<svg width="75" height="75" viewBox="0 0 75 75" fill="none" xmlns="http://www.w3.org/2000/svg">
<circle cx="37.5" cy="37.5" r="37.5" fill="#0477BF"/>
<path d="M31.2019 49.9322C28.1219 49.9322 25.0319 49.9322 21.9519 49.9322C21.1719 49.9322 20.9419 49.6822 21.0119 48.9022C21.1719 47.0422 22.1519 45.7222 23.7419 44.8222C24.4819 44.4122 25.2719 44.0922 26.0219 43.7122C26.4819 43.4822 26.9219 43.2222 27.3519 42.9322C27.6619 42.7322 27.8219 42.4122 27.8119 42.0222C27.8019 41.6222 27.8119 41.2222 27.8019 40.8222C27.8019 40.7222 27.7719 40.6122 27.7119 40.5422C27.2419 39.9222 26.9619 39.2122 26.7519 38.4722C26.7219 38.3522 26.6419 38.2222 26.5419 38.1422C25.8319 37.5022 25.5119 36.1122 25.8519 35.2122C25.9119 35.0522 25.9319 34.8322 25.8819 34.6622C24.9219 31.3222 26.8519 28.1822 30.2819 27.5522C30.8119 27.4522 31.3519 27.4422 31.8819 27.3922C32.2719 27.3522 32.5619 27.5322 32.6819 27.9022C32.8219 28.3022 33.0819 28.4822 33.5019 28.5922C34.9219 28.9622 35.6619 30.0222 36.0519 31.3622C36.3819 32.5122 36.4019 33.6622 36.0619 34.8222C36.0319 34.9222 36.0419 35.0422 36.0819 35.1422C36.4519 36.1522 36.1419 37.4422 35.3619 38.1722C35.2719 38.2622 35.2219 38.4022 35.1919 38.5222C35.0019 39.2322 34.7219 39.9122 34.2819 40.5122C34.2719 40.5322 34.2419 40.5422 34.2419 40.5622C34.2319 41.1622 34.1619 41.7722 34.2419 42.3722C34.2719 42.6222 34.5719 42.9022 34.8219 43.0522C35.3219 43.3622 35.8719 43.6022 36.4119 43.8622C37.1119 44.1922 37.8419 44.4722 38.5319 44.8422C40.0519 45.6422 41.0819 46.8322 41.3519 48.5922C41.3619 48.6422 41.3719 48.6822 41.3719 48.7322C41.4919 49.5822 41.2819 49.9622 40.3119 49.9522C37.2719 49.9222 34.2319 49.9322 31.2019 49.9322Z" fill="#F5F5F5"/>
<path d="M35.5419 28.0126C36.5219 27.2326 37.6519 26.8626 38.8719 26.7326C38.9719 26.7226 39.0819 26.7326 39.1819 26.7126C39.8219 26.5926 40.2819 26.7826 40.5219 27.4226C40.5619 27.5326 40.6919 27.6626 40.8019 27.6826C42.3019 27.9726 43.1019 28.9726 43.5119 30.3526C43.8119 31.3626 43.8219 32.3826 43.5319 33.4026C43.5019 33.5126 43.5219 33.6426 43.5519 33.7626C43.8619 34.8026 43.6719 35.7226 42.8919 36.5126C42.8219 36.5926 42.7719 36.7026 42.7319 36.8026C42.4419 37.4126 42.1519 38.0126 41.8719 38.6226C41.8219 38.7326 41.7819 38.8526 41.7819 38.9726C41.7719 39.2626 41.8219 39.5526 41.7919 39.8326C41.7519 40.2826 41.9619 40.6026 42.3219 40.7926C42.9119 41.1126 43.5219 41.4026 44.1419 41.6726C45.0519 42.0626 45.9619 42.4326 46.7419 43.0526C47.8019 43.8826 48.3519 44.9626 48.4619 46.2926C48.5019 46.7826 48.2219 47.1226 47.7319 47.1326C46.0319 47.1526 44.3419 47.1626 42.6419 47.1626C42.5519 47.1626 42.4119 47.0826 42.3819 47.0126C41.6519 45.1726 40.2119 44.0726 38.5019 43.2726C37.6819 42.8926 36.8419 42.5426 36.0219 42.1626C35.6019 41.9626 35.4619 41.4526 35.6619 41.0326C35.9419 40.4326 36.2119 39.8226 36.4819 39.2226C36.5219 39.1326 36.5719 39.0426 36.6319 38.9626C37.5519 37.8326 37.8319 36.5426 37.5719 35.1226C37.5519 34.9926 37.5519 34.8526 37.5819 34.7226C37.9619 32.6226 37.6619 30.6626 36.3719 28.9126C36.1319 28.5826 35.8319 28.3226 35.5419 28.0126Z" fill="#F5F5F5"/>
<path d="M42.4919 26.7527C43.4619 26.1927 44.5119 25.9727 45.6019 26.0027C45.8119 26.0127 46.1119 26.2127 46.2119 26.4027C46.3919 26.7327 46.6119 26.8827 46.9719 26.9927C48.1719 27.3527 48.7719 28.2727 49.0719 29.4227C49.2919 30.2827 49.2919 31.1427 49.0719 32.0027C49.0419 32.1227 49.0619 32.2727 49.0919 32.3927C49.3119 33.2927 49.1519 34.0927 48.5119 34.7727C48.4319 34.8627 48.3719 34.9727 48.3219 35.0827C48.0719 35.6127 47.8219 36.1327 47.6019 36.6627C47.5319 36.8327 47.5419 37.0327 47.5119 37.2227C47.3419 38.1227 47.8319 38.5927 48.6019 38.9127C49.4219 39.2527 50.2519 39.5927 51.0419 40.0027C52.2519 40.6327 53.0819 41.5827 53.3319 42.9627C53.3619 43.1427 53.3919 43.3227 53.3919 43.5127C53.4119 43.9727 53.1319 44.2827 52.6719 44.2927C51.6619 44.3027 50.6519 44.3027 49.6419 44.2927C49.5419 44.2927 49.4019 44.2027 49.3619 44.1227C48.6219 42.5327 47.3319 41.5527 45.8019 40.8427C45.0519 40.5027 44.2819 40.2027 43.5319 39.8627C43.1219 39.6827 43.0519 39.4227 43.2919 39.0227C43.3119 38.9827 43.3419 38.9427 43.3619 38.9027C43.7919 38.0727 44.1619 37.2227 44.6419 36.4227C45.1319 35.6027 45.2019 34.6527 45.0119 33.6827C44.9619 33.4627 45.0419 33.2127 45.0719 32.9727C45.3319 30.9027 44.9519 29.0227 43.4319 27.4927C43.1519 27.2227 42.8219 27.0127 42.4919 26.7527Z" fill="#F5F5F5"/>
</svg>
