<svg width="75" height="75" viewBox="0 0 75 75" fill="none" xmlns="http://www.w3.org/2000/svg">
<circle cx="37.5" cy="37.5" r="37.5" fill="#0477BF"/>
<path d="M37.0135 50.1125C34.8635 50.1125 32.7034 50.0925 30.5534 50.1225C28.1634 50.1525 26.5934 48.9425 25.5834 46.8825C25.0534 45.8125 24.9434 44.6525 25.0234 43.4725C25.1934 40.8225 26.2034 38.4625 27.6134 36.2525C28.7534 34.4525 30.1335 32.8325 31.6735 31.3525C31.9135 31.1225 32.1634 31.0225 32.5034 31.0225C35.5834 31.0325 38.6735 31.0325 41.7635 31.0325C41.9235 31.0325 42.1235 31.0825 42.2335 31.1825C44.6335 33.4225 46.6335 35.9625 47.9535 38.9925C48.6535 40.5825 49.0834 42.2525 49.0834 44.0025C49.0934 45.9125 48.4934 47.5825 47.0234 48.8725C46.0834 49.6925 44.9934 50.1225 43.7234 50.1125C41.4834 50.0925 39.2535 50.1125 37.0135 50.1125ZM36.0435 36.0925C35.5935 36.3125 35.1634 36.4725 34.8034 36.7225C33.9734 37.2925 33.6934 38.1325 33.8034 39.1125C33.9034 40.0025 34.4134 40.5825 35.2134 40.9025C35.5734 41.0525 35.9634 41.1325 36.3334 41.2325C36.9434 41.4025 37.5834 41.5125 38.1634 41.7525C38.8334 42.0325 38.8934 42.8225 38.3134 43.2725C37.3634 44.0125 35.7334 43.6025 35.2834 42.4925C34.7234 42.4925 34.1534 42.4925 33.5734 42.4925C33.7134 44.0125 34.6934 44.6825 36.0435 45.0025C36.0435 45.5325 36.0435 46.0525 36.0435 46.5725C36.7135 46.5725 37.3634 46.5725 38.0334 46.5725C38.0334 46.1325 38.0434 45.7125 38.0334 45.2925C38.0234 45.0725 38.0734 44.9725 38.3134 44.9225C38.8734 44.7925 39.3835 44.5425 39.7935 44.1225C41.0335 42.8525 40.6235 40.7925 38.9835 40.1425C38.7135 40.0325 38.4234 39.9625 38.1434 39.8925C37.5034 39.7225 36.8534 39.5825 36.2134 39.3925C35.8334 39.2825 35.5734 39.0125 35.5834 38.5725C35.5934 38.1325 35.8435 37.8325 36.2335 37.6825C36.7835 37.4625 37.3434 37.4625 37.8934 37.6825C38.2534 37.8325 38.5034 38.0925 38.6334 38.4725C38.6534 38.5425 38.7334 38.6425 38.7834 38.6425C39.3034 38.6525 39.8134 38.6525 40.3334 38.6525C40.3834 37.5525 39.6734 36.7725 38.0534 36.1525C38.0534 35.6325 38.0534 35.1125 38.0534 34.5725C37.3834 34.5725 36.7334 34.5725 36.0634 34.5725C36.0434 35.1025 36.0435 35.6125 36.0435 36.0925Z" fill="#F5F5F5"/>
<path d="M37.0234 29.0225C35.4434 29.0225 33.8735 29.0225 32.2935 29.0225C32.0835 29.0225 31.9835 28.9525 31.9235 28.7525C31.6735 27.9925 31.3934 27.2425 31.1234 26.4825C30.8234 25.6325 31.2635 25.0025 32.1635 25.0025C32.9635 25.0025 33.7735 25.0125 34.5735 24.9925C34.7135 24.9925 34.8835 24.9225 34.9735 24.8325C36.1435 23.7225 37.9234 23.7225 39.0934 24.8325C39.1934 24.9225 39.3634 24.9925 39.4934 25.0025C40.3034 25.0225 41.1234 25.0125 41.9334 25.0125C42.7834 25.0125 43.2335 25.6525 42.9535 26.4625C42.6935 27.2225 42.4134 27.9725 42.1534 28.7325C42.0834 28.9525 41.9834 29.0325 41.7434 29.0325C40.1834 29.0225 38.6034 29.0225 37.0234 29.0225Z" fill="#F5F5F5"/>
</svg>
