<svg width="75" height="75" viewBox="0 0 75 75" fill="none" xmlns="http://www.w3.org/2000/svg">
<circle cx="37.5" cy="37.5" r="37.5" fill="#0477BF"/>
<path d="M32.3744 31.5375C32.3744 31.1675 32.3744 30.8475 32.3744 30.5175C32.3844 29.8075 32.8144 29.3775 33.5244 29.3575C33.8544 29.3475 34.1744 29.3575 34.5144 29.3575C34.5844 28.9375 34.5844 28.5775 34.2344 28.2975C33.9344 28.0575 33.6644 27.7875 33.3644 27.5575C33.0144 27.2975 32.6144 27.1775 32.1744 27.1775C31.5344 27.1875 30.9044 27.1875 30.2644 27.1775C29.5844 27.1675 29.0944 26.7175 29.0944 26.0975C29.0944 25.4775 29.5844 25.0075 30.2544 25.0075C30.9544 24.9975 31.6544 24.9975 32.3544 25.0075C33.2644 25.0175 33.8144 25.2075 35.0044 25.9175C35.0344 25.8675 35.0544 25.7975 35.1044 25.7475C35.5444 25.2475 36.1044 25.0175 36.7644 25.0075C37.4644 24.9975 38.1644 24.9975 38.8644 25.0075C40.1244 25.0275 41.0444 25.9575 41.0544 27.2175C41.0644 27.9175 41.0544 28.6175 41.0544 29.3575C41.3844 29.3575 41.6944 29.3575 41.9944 29.3575C42.8044 29.3675 43.2244 29.7775 43.2244 30.5975C43.2244 30.8975 43.2244 31.1875 43.2244 31.5375C43.5844 31.5375 43.9244 31.5375 44.2544 31.5375C45.8744 31.5675 47.1444 32.5675 47.4944 34.1175C47.5544 34.4075 47.5744 34.7075 47.5744 34.9975C47.5844 39.2075 47.5844 43.4275 47.5744 47.6375C47.5744 49.6975 46.1644 51.0975 44.1144 51.0975C39.8844 51.0975 35.6444 51.0975 31.4144 51.0975C29.7544 51.0975 28.4344 50.0775 28.0844 48.4975C28.0244 48.2275 28.0044 47.9475 28.0044 47.6775C28.0044 43.4275 27.9944 39.1875 28.0044 34.9375C28.0044 33.2275 29.0644 31.8875 30.6844 31.5875C31.0844 31.5175 31.5044 31.5375 31.9244 31.5275C32.0744 31.5375 32.2044 31.5375 32.3744 31.5375ZM30.2144 39.1175C30.2744 39.1375 30.2944 39.1375 30.3144 39.1375C30.5544 39.1375 30.8044 39.1275 31.0444 39.1475C31.2644 39.1675 31.3344 39.0875 31.3944 38.8675C31.7744 37.3675 32.7144 36.3575 34.2344 35.9975C35.7144 35.6475 36.9744 36.1075 37.9744 37.2475C38.4444 37.7875 38.7044 38.4275 38.8344 39.1275C41.0244 39.1275 43.1944 39.1275 45.3644 39.1275C45.3744 39.0775 45.3944 39.0575 45.3944 39.0275C45.3944 37.5975 45.4044 36.1575 45.3844 34.7275C45.3744 34.1175 44.9244 33.7275 44.2944 33.7175C43.6144 33.7075 42.9344 33.7175 42.2544 33.7175C41.4944 33.7175 41.0444 33.2675 41.0444 32.5075C41.0444 32.1975 41.0444 31.8775 41.0444 31.5575C38.8544 31.5575 36.7044 31.5575 34.5344 31.5575C34.5344 31.8875 34.5344 32.1875 34.5344 32.4975C34.5244 33.2575 34.0844 33.7075 33.3244 33.7075C32.6844 33.7075 32.0544 33.7075 31.4144 33.7075C30.5844 33.7075 30.1844 34.0975 30.1844 34.9375C30.1844 36.2275 30.1844 37.5275 30.1844 38.8175C30.2044 38.9175 30.2144 39.0175 30.2144 39.1175ZM33.4644 39.6675C33.4544 40.5975 34.1544 41.3075 35.0744 41.3075C35.9944 41.3075 36.7144 40.5975 36.7144 39.6875C36.7144 38.7875 36.0044 38.0675 35.1144 38.0575C34.1944 38.0475 33.4744 38.7575 33.4644 39.6675ZM41.5744 45.6675C42.4744 45.6875 43.2144 44.9875 43.2344 44.0975C43.2544 43.1775 42.5644 42.4375 41.6544 42.4075C40.7644 42.3775 39.9944 43.1175 39.9844 44.0175C39.9644 44.9075 40.6744 45.6375 41.5744 45.6675Z" fill="#F5F5F5"/>
</svg>
