<svg width="21" height="10" viewBox="0 0 21 10" fill="none" xmlns="http://www.w3.org/2000/svg">
<path fill-rule="evenodd" clip-rule="evenodd" d="M6.15357 0.507152C5.88137 0.194929 5.40761 0.162479 5.09538 0.434674L0.507149 4.43467C0.343771 4.57711 0.25 4.78326 0.25 5C0.25 5.21675 0.343771 5.4229 0.507149 5.56533L5.09538 9.56533C5.40761 9.83753 5.88137 9.80508 6.15357 9.49285C6.42576 9.18063 6.39331 8.70687 6.08109 8.43467L3.00161 5.75H20C20.4142 5.75 20.75 5.41422 20.75 5C20.75 4.58579 20.4142 4.25 20 4.25H3.00161L6.08109 1.56533C6.39331 1.29314 6.42576 0.819375 6.15357 0.507152Z" fill="#3F3F3F"/>
</svg>
