<svg width="14" height="10" viewBox="0 0 14 10" fill="none" xmlns="http://www.w3.org/2000/svg">
<path fill-rule="evenodd" clip-rule="evenodd" d="M6.65357 9.49286C6.38137 9.80508 5.90761 9.83753 5.59538 9.56533L1.00715 5.56533C0.843771 5.4229 0.750001 5.21675 0.750001 5.00001C0.750001 4.78326 0.843771 4.57711 1.00715 4.43468L5.59538 0.434676C5.90761 0.162482 6.38137 0.194931 6.65356 0.507154C6.92576 0.819377 6.89331 1.29314 6.58109 1.56533L3.50161 4.25001L12.5 4.25C12.9142 4.25 13.25 4.58579 13.25 5C13.25 5.41422 12.9142 5.75 12.5 5.75L3.50161 5.75001L6.58109 8.43468C6.89331 8.70687 6.92576 9.18063 6.65357 9.49286Z" fill="#111618"/>
</svg>
