<svg width="21" height="10" viewBox="0 0 21 10" fill="none" xmlns="http://www.w3.org/2000/svg">
<path fill-rule="evenodd" clip-rule="evenodd" d="M14.8464 0.507159C15.1186 0.194937 15.5924 0.162487 15.9046 0.434681L20.4929 4.43468C20.6562 4.57711 20.75 4.78326 20.75 5.00001C20.75 5.21676 20.6562 5.42291 20.4929 5.56534L15.9046 9.56534C15.5924 9.83753 15.1186 9.80509 14.8464 9.49286C14.5742 9.18064 14.6067 8.70688 14.9189 8.43468L17.9984 5.75001H1C0.585786 5.75001 0.25 5.41422 0.25 5.00001C0.25 4.5858 0.585786 4.25001 1 4.25001H17.9984L14.9189 1.56534C14.6067 1.29315 14.5742 0.819382 14.8464 0.507159Z" fill="#E74B5B"/>
</svg>
