<svg width="17" height="21" viewBox="0 0 17 21" fill="none" xmlns="http://www.w3.org/2000/svg">
<path d="M4.12135 4.72168C4.02806 3.2424 4.45953 1.98878 5.57205 1.0197C6.39769 0.300756 7.37144 -0.0345154 8.46414 0.00280178C10.8956 0.0850162 12.7789 2.25933 12.5026 4.72051C12.6116 4.72051 12.7171 4.71818 12.8227 4.72109C13.3381 4.73392 13.8611 4.69602 14.3673 4.77241C15.2815 4.91118 15.9783 5.69892 16.0337 6.62369C16.1212 8.07848 16.1812 9.5356 16.2506 10.9915C16.3626 13.3361 16.4763 15.6801 16.5795 18.0247C16.5987 18.4666 16.6302 18.9215 16.5521 19.3512C16.3783 20.3098 15.5381 20.9797 14.5632 20.9937C13.7632 21.0054 12.9626 20.9972 12.1626 20.9972C8.83089 20.9972 5.49859 20.9984 2.16686 20.9966C1.07767 20.9961 0.209457 20.3168 0.0368646 19.2765C-0.0301897 18.8731 0.0112159 18.448 0.0292914 18.034C0.105092 16.2935 0.190218 14.5536 0.273599 12.8137C0.372723 10.7461 0.460766 8.67788 0.577966 6.61144C0.636857 5.57473 1.54005 4.74325 2.57794 4.72401C3.07822 4.7141 3.57967 4.72168 4.12135 4.72168ZM8.30496 19.5972C10.3492 19.5972 12.3935 19.5978 14.4384 19.5967C14.9538 19.5967 15.2308 19.3051 15.2127 18.7879C15.2046 18.5623 15.1976 18.336 15.1871 18.1104C15.0757 15.7442 14.9643 13.3775 14.853 11.0114C14.7877 9.62073 14.7264 8.22949 14.6535 6.83943C14.6273 6.33506 14.3486 6.08959 13.8506 6.09133C12.7591 6.096 11.6682 6.10125 10.5766 6.10416C7.96502 6.11116 5.35282 6.11699 2.7412 6.1234C2.25141 6.12457 1.98728 6.36538 1.95638 6.86217C1.92139 7.42951 1.90331 7.99801 1.87707 8.56593C1.71789 11.9589 1.55813 15.3518 1.39953 18.7454C1.37271 19.3214 1.63918 19.5967 2.21526 19.5967C4.24555 19.5972 6.27525 19.5972 8.30496 19.5972ZM5.52308 4.70535C7.38661 4.70535 9.23497 4.70535 11.0874 4.70535C11.1854 3.50537 10.8367 2.50655 9.80814 1.84709C8.84839 1.23252 7.83266 1.22028 6.86066 1.81035C5.79246 2.45932 5.41929 3.47155 5.52308 4.70535Z" fill="black"/>
<path d="M8.66837 12.8749C6.35645 12.8743 4.68185 11.5542 4.22296 9.64815C4.08244 9.06448 4.47602 8.60968 5.03694 8.71813C5.36988 8.78285 5.52323 9.019 5.60311 9.33562C5.86316 10.3613 6.49873 11.0516 7.50279 11.3776C8.97624 11.8557 10.5949 10.9682 11.0077 9.47147C11.031 9.38751 11.0468 9.30121 11.0724 9.21783C11.189 8.83183 11.5564 8.62367 11.9441 8.7228C12.2975 8.81259 12.5289 9.17643 12.4392 9.55311C12.3703 9.84173 12.287 10.1339 12.1599 10.3997C11.3873 12.012 10.0812 12.8044 8.66837 12.8749Z" fill="black"/>
</svg>
