<?xml version="1.0" encoding="UTF-8"?>
<svg id="_Слой_1" data-name="Слой 1" xmlns="http://www.w3.org/2000/svg" viewBox="0 0 21.36 21.36">
  <defs>
    <style>
      .cls-1 {
        fill: #111618;
        fill-rule: evenodd;
      }
    </style>
  </defs>
  <path class="cls-1" d="m20.96.4c.54.54.54,1.41,0,1.94l-8.33,8.33,8.33,8.33c.54.54.54,1.41,0,1.94-.54.54-1.41.54-1.94,0l-8.33-8.33L2.35,20.96c-.54.54-1.41.54-1.94,0-.54-.54-.54-1.41,0-1.94l8.33-8.33L.4,2.35C-.13,1.81-.13.94.4.4.94-.13,1.81-.13,2.35.4l8.33,8.33L19.02.4c.54-.54,1.41-.54,1.94,0Z"/>
</svg>