<svg width="44" height="44" viewBox="0 0 44 44" fill="none" xmlns="http://www.w3.org/2000/svg">
<path fill-rule="evenodd" clip-rule="evenodd" d="M32.2786 11.7214C32.8155 12.2584 32.8155 13.129 32.2786 13.666L23.9445 22L32.2786 30.334C32.8155 30.871 32.8155 31.7416 32.2786 32.2786C31.7416 32.8155 30.871 32.8155 30.334 32.2786L22 23.9445L13.666 32.2786C13.129 32.8155 12.2584 32.8155 11.7214 32.2786C11.1845 31.7416 11.1845 30.871 11.7214 30.334L20.0555 22L11.7214 13.666C11.1845 13.129 11.1845 12.2584 11.7214 11.7214C12.2584 11.1845 13.129 11.1845 13.666 11.7214L22 20.0554L30.334 11.7214C30.871 11.1845 31.7416 11.1845 32.2786 11.7214Z" fill="#111618"/>
</svg>
