<svg width="9" height="17" viewBox="0 0 9 17" fill="none" xmlns="http://www.w3.org/2000/svg">
<path d="M8.03404 0H6.02553C3.78403 0 2.32786 1.61303 2.32786 4.10748V6.00274H0.319353C0.277606 6.00217 0.236168 6.01056 0.197445 6.02743C0.158722 6.0443 0.123484 6.06931 0.0937754 6.10102C0.064067 6.13273 0.0404796 6.1705 0.0243819 6.21214C0.0082842 6.25378 -3.38672e-06 6.29846 1.0382e-09 6.34358V9.08769C1.0382e-09 9.17809 0.0332228 9.26478 0.0923598 9.3287C0.151497 9.39263 0.231704 9.42854 0.315336 9.42854H2.32385V16.3539C2.32437 16.4442 2.35776 16.5305 2.41679 16.5943C2.47581 16.6581 2.55571 16.6942 2.63918 16.6948H5.27033C5.35396 16.6948 5.43417 16.6589 5.4933 16.595C5.55244 16.531 5.58566 16.4443 5.58566 16.3539V9.42854H7.93964C8.02327 9.42854 8.10348 9.39263 8.16261 9.3287C8.22175 9.26478 8.25497 9.17809 8.25497 9.08769V6.34358C8.25452 6.25329 8.22135 6.16678 8.16258 6.10261C8.10346 6.03868 8.02326 6.00276 7.93964 6.00274H5.58566V4.39622C5.58566 3.62552 5.75639 3.23258 6.68633 3.23258H8.03404C8.07535 3.23258 8.11626 3.22375 8.15441 3.20659C8.19255 3.18944 8.22718 3.1643 8.25631 3.13262C8.28543 3.10094 8.30847 3.06335 8.32409 3.02201C8.33972 2.98067 8.34763 2.93639 8.34737 2.89174V0.345185C8.3479 0.300243 8.3402 0.255631 8.32471 0.213918C8.30923 0.172204 8.28627 0.134213 8.25714 0.10213C8.22802 0.0700473 8.19332 0.0445071 8.15503 0.0269794C8.11674 0.00945168 8.07562 0.00028262 8.03404 0V0Z" fill="#3F3F3F"/>
</svg>
