<svg width="28" height="28" viewBox="0 0 28 28" fill="none" xmlns="http://www.w3.org/2000/svg">
<path d="M20.2504 0H17.0544C13.4877 0 11.1707 2.65833 11.1707 6.76927V9.89272H7.97471C7.90828 9.89177 7.84234 9.9056 7.78073 9.9334C7.71911 9.96121 7.66304 10.0024 7.61577 10.0547C7.5685 10.1069 7.53096 10.1692 7.50535 10.2378C7.47973 10.3064 7.46655 10.3801 7.46655 10.4544V14.9768C7.46655 15.1258 7.51942 15.2687 7.61352 15.374C7.70762 15.4794 7.83524 15.5385 7.96832 15.5385H11.1643V26.9518C11.1651 27.1005 11.2182 27.2429 11.3122 27.348C11.4061 27.4531 11.5332 27.5126 11.666 27.5136H15.8527C15.9858 27.5136 16.1134 27.4544 16.2075 27.349C16.3016 27.2437 16.3545 27.1008 16.3545 26.9518V15.5385H20.1001C20.2332 15.5385 20.3608 15.4794 20.4549 15.374C20.549 15.2687 20.6019 15.1258 20.6019 14.9768V10.4544C20.6012 10.3056 20.5484 10.1631 20.4549 10.0573C20.3608 9.95195 20.2332 9.89275 20.1001 9.89272H16.3545V7.24512C16.3545 5.97499 16.6261 5.3274 18.1059 5.3274H20.2504C20.3161 5.3274 20.3812 5.31285 20.4419 5.28457C20.5026 5.2563 20.5577 5.21487 20.604 5.16266C20.6504 5.11045 20.687 5.0485 20.7119 4.98037C20.7368 4.91224 20.7493 4.83927 20.7489 4.76568V0.568876C20.7498 0.49481 20.7375 0.421288 20.7129 0.352543C20.6882 0.283798 20.6517 0.221187 20.6054 0.168314C20.559 0.11544 20.5038 0.0733492 20.4429 0.0444629C20.3819 0.0155767 20.3165 0.000465767 20.2504 0V0Z" fill="#171717"/>
</svg>
