<svg width="10" height="17" viewBox="0 0 10 17" fill="none" xmlns="http://www.w3.org/2000/svg">
<path d="M7.58014 4.40788C7.91423 4.40102 8.25466 4.39997 8.58453 4.39891H8.64892C8.7492 4.39838 8.85001 4.39838 8.95029 4.39786C9.61372 4.39469 9.99479 4.01468 9.99532 3.35652C9.99532 3.14646 9.99426 2.9364 9.99321 2.72423C9.9911 2.27244 9.98846 1.80534 9.99955 1.34774C10.0117 0.832618 9.80215 0.470553 9.37675 0.271575C9.35616 0.262075 9.334 0.257324 9.31077 0.257324H6.82223C6.80798 0.257324 6.46755 0.257852 6.29391 0.290575C5.26418 0.486914 4.5105 0.88487 3.92201 1.54408C3.2781 2.26505 2.93821 3.1396 2.88279 4.21788C2.8659 4.53878 2.86643 4.8639 2.86695 5.18057C2.86695 5.32994 2.86748 5.47877 2.8659 5.62814C2.8659 5.635 2.8659 5.64239 2.86537 5.64925C2.84637 5.64925 2.82789 5.64925 2.80942 5.64925C2.67589 5.64978 2.54289 5.64925 2.40936 5.64872C2.10588 5.64767 1.79237 5.64661 1.47886 5.65611C0.983788 5.67089 0.606422 6.05143 0.600617 6.54122C0.591116 7.36088 0.591645 8.19902 0.601145 9.10312C0.605895 9.53433 0.915711 9.89059 1.35536 9.96923C1.46303 9.98823 1.57069 9.9914 1.66147 9.99193C1.96284 9.99298 2.26474 9.99298 2.57244 9.99298H2.86537V10.9478C2.86537 12.4472 2.86537 13.9472 2.8659 15.4467C2.8659 15.5195 2.86643 15.5971 2.87277 15.6773C2.91393 16.185 3.28655 16.5429 3.77951 16.5476C4.15213 16.5513 4.55009 16.5534 4.99554 16.5534C5.48692 16.5534 5.9672 16.5513 6.37202 16.5487C6.72247 16.5466 6.9964 16.3893 7.14366 16.1053C7.23496 15.9296 7.28774 15.709 7.2888 15.5005C7.29566 14.0733 7.29514 12.6282 7.29461 11.2307L7.29408 9.99193H7.73267C8.12112 9.99193 8.50113 9.99246 8.88114 9.9914C9.50922 9.98982 9.89979 9.59925 9.90084 8.9717C9.9019 8.28557 9.90243 7.53505 9.90137 6.67739C9.90084 6.03612 9.5182 5.65136 8.87852 5.64872C8.57081 5.64714 8.26311 5.64767 7.95488 5.64767H7.90104C7.77965 5.64767 7.65878 5.64767 7.53739 5.64767C7.45875 5.64767 7.38116 5.64872 7.30147 5.64767C7.30094 5.57958 7.30094 5.51203 7.30041 5.445C7.29883 5.18163 7.29725 4.93251 7.30411 4.68022C7.31308 4.41316 7.31308 4.41316 7.58014 4.40788ZM8.64522 6.89906V8.74211H8.63097C8.45205 8.74211 8.2726 8.7437 8.09368 8.74475C7.68834 8.74792 7.26927 8.75109 6.85707 8.73736C6.60373 8.72786 6.40264 8.79542 6.25908 8.93476C6.11393 9.07568 6.03793 9.28785 6.03899 9.547C6.0448 10.9551 6.04426 12.3781 6.0432 13.754C6.04268 14.2502 6.04268 14.7463 6.04268 15.2424V15.2931H4.11835V14.5426C4.11835 12.8858 4.11835 11.2291 4.11835 9.57233V9.55228C4.11835 9.49633 4.11835 9.43299 4.11202 9.3686C4.07296 8.99176 3.80537 8.74634 3.43116 8.74317C3.06118 8.74 2.67906 8.74053 2.34233 8.74106L1.85888 8.74159V6.89854L2.59989 6.89906C2.8527 6.89959 3.11396 6.90012 3.371 6.89801C3.84126 6.89484 4.1136 6.62408 4.11782 6.15488C4.11993 5.93795 4.11887 5.71153 4.11782 5.5115C4.11624 5.1051 4.11413 4.68497 4.13366 4.27277C4.17588 3.36655 4.48411 2.67409 5.0763 2.15527C5.54551 1.74412 6.12291 1.52139 6.79268 1.49447C7.27086 1.47494 7.76223 1.47969 8.23988 1.48444H8.24832C8.40719 1.48602 8.57028 1.48761 8.73284 1.48814V3.14435C8.67004 3.14382 8.60564 3.14382 8.54178 3.14593C8.42144 3.14963 8.29847 3.15068 8.17919 3.15174H8.16862C7.87359 3.1549 7.56801 3.15754 7.26716 3.19449C6.55359 3.28157 6.1303 3.72175 6.07646 4.43427C6.03107 5.03437 6.0411 5.6445 6.05166 6.2351V6.24196C6.05852 6.63886 6.34616 6.89642 6.7837 6.89854C7.22018 6.90065 7.66037 6.90012 8.08577 6.89959L8.64522 6.89906Z" fill="black"/>
</svg>
