<svg width="25" height="25" viewBox="0 0 25 25" fill="none" xmlns="http://www.w3.org/2000/svg">
<path d="M14.5801 8.40764C14.9142 8.40078 15.2546 8.39972 15.5845 8.39867H15.6489C15.7491 8.39814 15.8499 8.39814 15.9502 8.39761C16.6137 8.39444 16.9947 8.01443 16.9953 7.35628C16.9953 7.14622 16.9942 6.93615 16.9931 6.72398C16.991 6.27219 16.9884 5.8051 16.9995 5.3475C17.0116 4.83237 16.8021 4.47031 16.3767 4.27133C16.3561 4.26183 16.3339 4.25708 16.3107 4.25708H13.8222C13.8079 4.25708 13.4675 4.25761 13.2938 4.29033C12.2641 4.48667 11.5104 4.88463 10.9219 5.54384C10.278 6.2648 9.93815 7.13935 9.88273 8.21763C9.86584 8.53853 9.86636 8.86365 9.86689 9.18033C9.86689 9.32969 9.86742 9.47853 9.86584 9.62789C9.86584 9.63476 9.86584 9.64215 9.86531 9.64901C9.84631 9.64901 9.82783 9.64901 9.80936 9.64901C9.67583 9.64953 9.54283 9.64901 9.4093 9.64848C9.10582 9.64742 8.7923 9.64637 8.4788 9.65587C7.98373 9.67065 7.60636 10.0512 7.60056 10.541C7.59106 11.3606 7.59158 12.1988 7.60108 13.1029C7.60583 13.5341 7.91565 13.8903 8.3553 13.969C8.46297 13.988 8.57063 13.9912 8.66141 13.9917C8.96278 13.9927 9.26468 13.9927 9.57238 13.9927H9.86531V14.9475C9.86531 16.447 9.86531 17.947 9.86584 19.4464C9.86584 19.5193 9.86637 19.5968 9.8727 19.6771C9.91387 20.1848 10.2865 20.5426 10.7794 20.5474C11.1521 20.5511 11.55 20.5532 11.9955 20.5532C12.4869 20.5532 12.9671 20.5511 13.372 20.5484C13.7224 20.5463 13.9963 20.3891 14.1436 20.1051C14.2349 19.9293 14.2877 19.7087 14.2887 19.5003C14.2956 18.0731 14.2951 16.628 14.2945 15.2304L14.294 13.9917H14.7326C15.1211 13.9917 15.5011 13.9922 15.8811 13.9912C16.5092 13.9896 16.8997 13.599 16.9008 12.9715C16.9018 12.2853 16.9024 11.5348 16.9013 10.6771C16.9008 10.0359 16.5181 9.65112 15.8785 9.64848C15.5708 9.6469 15.263 9.64742 14.9548 9.64742H14.901C14.7796 9.64742 14.6587 9.64742 14.5373 9.64742C14.4587 9.64742 14.3811 9.64848 14.3014 9.64742C14.3009 9.57934 14.3009 9.51178 14.3003 9.44475C14.2988 9.18138 14.2972 8.93227 14.304 8.67998C14.313 8.41292 14.313 8.41292 14.5801 8.40764ZM15.6452 10.8988V12.7419H15.6309C15.452 12.7419 15.2725 12.7435 15.0936 12.7445C14.6883 12.7477 14.2692 12.7508 13.857 12.7371C13.6037 12.7276 13.4026 12.7952 13.259 12.9345C13.1139 13.0754 13.0379 13.2876 13.0389 13.5468C13.0447 14.9549 13.0442 16.3778 13.0431 17.7538C13.0426 18.2499 13.0426 18.746 13.0426 19.2422V19.2928H11.1183V18.5423C11.1183 16.8856 11.1183 15.2288 11.1183 13.5721V13.552C11.1183 13.4961 11.1183 13.4327 11.112 13.3684C11.0729 12.9915 10.8053 12.7461 10.4311 12.7429C10.0611 12.7398 9.679 12.7403 9.34227 12.7408L8.85882 12.7413V10.8983L9.59983 10.8988C9.85264 10.8993 10.1139 10.8999 10.3709 10.8978C10.8412 10.8946 11.1135 10.6238 11.1178 10.1546C11.1199 9.93771 11.1188 9.71129 11.1178 9.51125C11.1162 9.10485 11.1141 8.68473 11.1336 8.27252C11.1758 7.36631 11.4841 6.67384 12.0762 6.15502C12.5454 5.74387 13.1228 5.52114 13.7926 5.49423C14.2708 5.4747 14.7622 5.47945 15.2398 5.4842H15.2483C15.4071 5.48578 15.5702 5.48736 15.7328 5.48789V7.1441C15.67 7.14358 15.6056 7.14358 15.5417 7.14569C15.4214 7.14938 15.2984 7.15044 15.1791 7.15149H15.1686C14.8735 7.15466 14.5679 7.1573 14.2671 7.19425C13.5535 7.28133 13.1302 7.72151 13.0764 8.43403C13.031 9.03413 13.041 9.64426 13.0516 10.2349V10.2417C13.0585 10.6386 13.3461 10.8962 13.7836 10.8983C14.2201 10.9004 14.6603 10.8999 15.0857 10.8993L15.6452 10.8988Z" fill="#6360BC"/>
</svg>
