<svg width="12" height="15" viewBox="0 0 12 15" fill="none" xmlns="http://www.w3.org/2000/svg">
<path d="M11.7559 7.5C11.783 7.5 11.81 7.49613 11.837 7.49613C11.783 7.49613 11.7289 7.49613 11.6748 7.49613C7.73172 7.36483 5.98223 2.51802 5.9243 0H5.91658C5.85865 2.51802 4.1053 7.36096 0.162197 7.49613C0.108129 7.49613 0.054068 7.49613 0 7.49613C0.027034 7.49613 0.0540647 7.5 0.0810987 7.5C0.0540647 7.5 0.027034 7.50386 0 7.50386C0.05793 7.50386 0.108129 7.50386 0.162197 7.50386C4.1053 7.63517 5.85479 12.482 5.91658 15H5.9243C5.98223 12.482 7.73559 7.63517 11.6748 7.50386C11.7289 7.50386 11.783 7.50386 11.837 7.50386C11.81 7.50386 11.783 7.5 11.7559 7.5Z" fill="#66ADD9"/>
</svg>
