<svg width="24" height="24" viewBox="0 0 24 24" fill="none" xmlns="http://www.w3.org/2000/svg">
<path fill-rule="evenodd" clip-rule="evenodd" d="M11.5834 2.27744C11.8599 2.24085 12.1401 2.24085 12.4166 2.27744C13.7548 2.45449 14.7547 3.59545 14.7547 4.94524V5.8206C16.2763 6.4998 17.5002 7.72373 18.1794 9.2453H19.0548C20.4045 9.2453 21.5455 10.2453 21.7226 11.5834C21.7591 11.8599 21.7591 12.1401 21.7226 12.4166C21.5455 13.7548 20.4046 14.7547 19.0548 14.7547H18.1794C17.5002 16.2763 16.2763 17.5002 14.7547 18.1794V19.0548C14.7547 20.4046 13.7548 21.5455 12.4166 21.7226C12.1401 21.7591 11.8599 21.7591 11.5834 21.7226C10.2453 21.5455 9.2453 20.4046 9.2453 19.0548V18.1794C7.72373 17.5002 6.4998 16.2763 5.82061 14.7547H4.94523C3.59544 14.7547 2.45449 13.7548 2.27744 12.4166L2.7765 12.3506L2.27744 12.4166C2.24085 12.1401 2.24085 11.8599 2.27744 11.5834L3.02096 11.6818L2.27744 11.5834C2.45449 10.2453 3.59545 9.2453 4.94525 9.2453H5.82061C6.4998 7.72373 7.72373 6.4998 9.2453 5.8206V4.94525C9.2453 3.59545 10.2453 2.45449 11.5834 2.27744ZM12.2199 3.76448C12.0739 3.74517 11.9261 3.74517 11.7801 3.76448C11.1879 3.84284 10.7453 4.34783 10.7453 4.94525V6.32812C10.7453 6.64598 10.5449 6.92932 10.2452 7.03525C8.75004 7.56372 7.56372 8.75004 7.03525 10.2452C6.92932 10.5449 6.64598 10.7453 6.32812 10.7453H4.94525C4.34783 10.7453 3.84284 11.1879 3.76448 11.7801C3.74517 11.9261 3.74517 12.0739 3.76448 12.2199C3.84284 12.8121 4.34782 13.2547 4.94523 13.2547H6.32812C6.64598 13.2547 6.92932 13.4551 7.03525 13.7548C7.56372 15.25 8.75004 16.4363 10.2452 16.9648C10.5449 17.0707 10.7453 17.354 10.7453 17.6719V19.0548C10.7453 19.6522 11.1879 20.1572 11.7801 20.2355C11.9261 20.2548 12.0739 20.2548 12.2199 20.2355C12.8121 20.1572 13.2547 19.6522 13.2547 19.0548V17.6719C13.2547 17.354 13.4551 17.0707 13.7548 16.9648C15.25 16.4363 16.4363 15.25 16.9648 13.7548C17.0707 13.4551 17.354 13.2547 17.6719 13.2547H19.0548C19.6522 13.2547 20.1572 12.8121 20.2355 12.2199C20.2548 12.0739 20.2548 11.9261 20.2355 11.7801C20.1572 11.1879 19.6522 10.7453 19.0548 10.7453H17.6719C17.354 10.7453 17.0707 10.5449 16.9648 10.2452C16.4363 8.75004 15.25 7.56372 13.7548 7.03525C13.4551 6.92932 13.2547 6.64598 13.2547 6.32812V4.94524C13.2547 4.34782 12.8121 3.84284 12.2199 3.76448Z" fill="#3F3F3F"/>
<path fill-rule="evenodd" clip-rule="evenodd" d="M8.75 12C8.75 10.2051 10.2051 8.75 12 8.75C13.7949 8.75 15.25 10.2051 15.25 12C15.25 13.7949 13.7949 15.25 12 15.25C10.2051 15.25 8.75 13.7949 8.75 12ZM12 10.25C11.0335 10.25 10.25 11.0335 10.25 12C10.25 12.9665 11.0335 13.75 12 13.75C12.9665 13.75 13.75 12.9665 13.75 12C13.75 11.0335 12.9665 10.25 12 10.25Z" fill="#3F3F3F"/>
</svg>
