<svg width="17" height="17" viewBox="0 0 17 17" fill="none" xmlns="http://www.w3.org/2000/svg">
<path d="M11.9201 0H4.54262C3.33824 0.0012888 2.18355 0.480299 1.33193 1.33193C0.480299 2.18355 0.0012888 3.33824 0 4.54262V11.9201C0.0012888 13.1245 0.480299 14.2792 1.33193 15.1308C2.18355 15.9824 3.33824 16.4615 4.54262 16.4627H11.9201C13.1244 16.4611 14.2789 15.982 15.1305 15.1305C15.982 14.2789 16.4611 13.1244 16.4627 11.9201V4.54262C16.4615 3.33824 15.9824 2.18355 15.1308 1.33193C14.2792 0.480299 13.1245 0.0012888 11.9201 0V0ZM15.0021 11.9201C15.0011 12.7372 14.6761 13.5206 14.0983 14.0983C13.5206 14.6761 12.7372 15.0011 11.9201 15.0021H4.54262C3.72553 15.0011 2.94218 14.6761 2.36441 14.0983C1.78663 13.5206 1.46162 12.7372 1.46065 11.9201V4.54262C1.46162 3.72553 1.78663 2.94218 2.36441 2.36441C2.94218 1.78663 3.72553 1.46162 4.54262 1.46065H11.9201C12.7372 1.46162 13.5206 1.78663 14.0983 2.36441C14.6761 2.94218 15.0011 3.72553 15.0021 4.54262V11.9201Z" fill="#3F3F3F"/>
<path d="M8.23008 3.79884C7.35351 3.79909 6.4967 4.05925 5.76798 4.54643C5.03927 5.0336 4.47137 5.72592 4.1361 6.53583C3.80082 7.34575 3.71323 8.23689 3.88439 9.09658C4.05556 9.95628 4.47779 10.7459 5.09771 11.3657C5.71762 11.9854 6.50738 12.4074 7.36712 12.5783C8.22687 12.7492 9.11798 12.6614 9.9278 12.3259C10.7376 11.9904 11.4298 11.4223 11.9167 10.6934C12.4037 9.96456 12.6636 9.10768 12.6636 8.23111C12.6623 7.05579 12.1947 5.92901 11.3635 5.09806C10.5323 4.2671 9.4054 3.79985 8.23008 3.79884ZM8.23008 11.1359C7.65531 11.1357 7.09352 10.965 6.61575 10.6455C6.13799 10.3259 5.7657 9.8719 5.54598 9.34078C5.32626 8.80966 5.26896 8.22532 5.38134 7.66164C5.49372 7.09796 5.77073 6.58027 6.17733 6.17402C6.58393 5.76777 7.10187 5.49122 7.66565 5.37933C8.22942 5.26745 8.81372 5.32525 9.34464 5.54544C9.87556 5.76563 10.3293 6.13831 10.6484 6.61636C10.9675 7.0944 11.1377 7.65634 11.1374 8.23111C11.1364 9.00165 10.8297 9.7403 10.2846 10.2849C9.73954 10.8295 9.00062 11.1356 8.23008 11.1359Z" fill="#3F3F3F"/>
<path d="M12.6649 2.5322C12.3719 2.53189 12.0878 2.63322 11.8611 2.81892C11.6344 3.00461 11.4791 3.26318 11.4217 3.55055C11.3644 3.83791 11.4084 4.13629 11.5464 4.39482C11.6843 4.65334 11.9077 4.85601 12.1784 4.96829C12.4491 5.08056 12.7503 5.09549 13.0308 5.01053C13.3112 4.92556 13.5535 4.74596 13.7164 4.50234C13.8792 4.25872 13.9526 3.96616 13.9239 3.67453C13.8952 3.3829 13.7662 3.11025 13.559 2.90305C13.3216 2.66619 13.0002 2.53286 12.6649 2.5322Z" fill="#3F3F3F"/>
</svg>
