<svg width="28" height="28" viewBox="0 0 28 28" fill="none" xmlns="http://www.w3.org/2000/svg">
<g clip-path="url(#clip0_91_557)">
<path d="M20.2739 0H7.72614C5.67771 0.002192 3.71381 0.816897 2.26535 2.26535C0.816897 3.71381 0.002192 5.67771 0 7.72614V20.2739C0.002192 22.3223 0.816897 24.2862 2.26535 25.7346C3.71381 27.1831 5.67771 27.9978 7.72614 28H20.2739C22.3221 27.9973 24.2857 27.1824 25.734 25.734C27.1824 24.2857 27.9973 22.3221 28 20.2739V7.72614C27.9978 5.67771 27.1831 3.71381 25.7346 2.26535C24.2862 0.816897 22.3223 0.002192 20.2739 0V0ZM25.5157 20.2739C25.5141 21.6636 24.9613 22.9959 23.9786 23.9786C22.9959 24.9613 21.6636 25.5141 20.2739 25.5157H7.72614C6.33642 25.5141 5.00409 24.9613 4.02141 23.9786C3.03872 22.9959 2.48593 21.6636 2.48429 20.2739V7.72614C2.48593 6.33642 3.03872 5.00409 4.02141 4.02141C5.00409 3.03872 6.33642 2.48593 7.72614 2.48429H20.2739C21.6636 2.48593 22.9959 3.03872 23.9786 4.02141C24.9613 5.00409 25.5141 6.33642 25.5157 7.72614V20.2739Z" fill="#171717"/>
<path d="M13.9977 6.46133C12.5069 6.46176 11.0496 6.90425 9.81017 7.73285C8.57076 8.56144 7.60488 9.73894 7.03464 11.1164C6.4644 12.494 6.31543 14.0096 6.60654 15.4718C6.89766 16.934 7.6158 18.277 8.67016 19.3311C9.72452 20.3851 11.0677 21.1029 12.53 21.3936C13.9923 21.6843 15.5079 21.5348 16.8852 20.9642C18.2626 20.3936 19.4398 19.4274 20.268 18.1877C21.0963 16.9481 21.5384 15.4907 21.5384 13.9998C21.5361 12.0008 20.7408 10.0844 19.3271 8.67106C17.9134 7.25776 15.9967 6.46305 13.9977 6.46133ZM13.9977 18.9404C13.0201 18.9399 12.0647 18.6496 11.2521 18.1062C10.4395 17.5627 9.80629 16.7905 9.43258 15.8871C9.05888 14.9838 8.96143 13.9899 9.15257 13.0312C9.3437 12.0725 9.81483 11.192 10.5064 10.5011C11.1979 9.81012 12.0789 9.33976 13.0377 9.14946C13.9966 8.95917 14.9904 9.05748 15.8934 9.43198C16.7964 9.80648 17.5681 10.4403 18.1108 11.2534C18.6536 12.0665 18.943 13.0222 18.9426 13.9998C18.9409 15.3103 18.4192 16.5666 17.4921 17.4929C16.565 18.4192 15.3083 18.9398 13.9977 18.9404Z" fill="#171717"/>
<path d="M21.5406 4.30728C21.0422 4.30675 20.5591 4.4791 20.1735 4.79493C19.7879 5.11077 19.5238 5.55054 19.4262 6.0393C19.3286 6.52805 19.4035 7.03553 19.6382 7.47524C19.8729 7.91494 20.2528 8.25965 20.7131 8.45061C21.1735 8.64157 21.6859 8.66695 22.1629 8.52244C22.6399 8.37793 23.052 8.07247 23.329 7.65812C23.606 7.24377 23.7307 6.74618 23.6819 6.25017C23.633 5.75416 23.4137 5.29043 23.0613 4.93803C22.6576 4.53517 22.1109 4.30841 21.5406 4.30728Z" fill="#171717"/>
</g>
<defs>
<clipPath id="clip0_91_557">
<rect width="28" height="28" fill="white"/>
</clipPath>
</defs>
</svg>
