<svg width="25" height="25" viewBox="0 0 25 25" fill="none" xmlns="http://www.w3.org/2000/svg">
<path d="M20.2516 9.27776C20.2442 7.39723 19.0794 5.79961 17.2843 5.20742C17.0669 5.13564 16.8415 5.09606 16.623 5.05806C16.5264 5.04117 16.4267 5.02375 16.3301 5.00369L16.3127 5H8.95788L8.92727 5.00264C8.85866 5.01478 8.78899 5.02533 8.71879 5.03642C8.56309 5.06017 8.40159 5.08497 8.24325 5.12931C6.53584 5.60749 5.47076 6.72905 5.07861 8.46337C5.0538 8.5721 5.0385 8.68135 5.02319 8.78902C5.01633 8.83652 5.00947 8.8835 5.00208 8.93047L4.99997 8.94419V16.2953L5.00261 16.3259C5.01475 16.395 5.02583 16.4647 5.03638 16.5349C5.06013 16.6917 5.08494 16.8532 5.12928 17.0126C5.60851 18.7231 6.72954 19.7856 8.46123 20.1709C8.77685 20.2411 9.10356 20.25 9.32206 20.2506L9.88785 20.2521C10.9677 20.2553 12.084 20.2579 13.1982 20.2579C14.2089 20.2579 15.1024 20.2553 15.9311 20.25C17.5952 20.2395 18.8693 19.5 19.7169 18.0518C20.0721 17.4453 20.2521 16.746 20.2526 15.9733C20.2532 15.5231 20.2537 15.0729 20.2542 14.6227V14.4496C20.2563 12.7543 20.2584 11.0015 20.2516 9.27776ZM19.0297 13.612C19.0297 14.3794 19.0297 15.1473 19.0297 15.9147C19.0297 16.6151 18.8408 17.2289 18.4692 17.7393C17.8507 18.5891 17.0057 19.0224 15.958 19.0271C13.6658 19.0372 11.4237 19.0372 9.29303 19.0271C8.56573 19.024 7.89755 18.7939 7.36131 18.3626C6.82613 17.932 6.45879 17.3308 6.29887 16.6241C6.25242 16.4172 6.22814 16.1823 6.22762 15.9258L6.2255 15.1479C6.22022 13.242 6.21495 11.2712 6.22814 9.33317C6.23712 8.02794 6.84144 7.07264 8.02369 6.49418C8.39315 6.31315 8.81644 6.22553 9.31731 6.22501L10.241 6.22395C11.1926 6.22289 12.1595 6.22237 13.1296 6.22237C14.0669 6.22237 15.0069 6.22342 15.9401 6.22553C16.6716 6.22712 17.3434 6.45512 17.8834 6.88475C18.4228 7.31384 18.7928 7.915 18.9537 8.62329C19.0012 8.83336 19.0245 9.06928 19.0271 9.36537C19.0334 10.1602 19.0324 10.9683 19.0313 11.7494C19.0308 12.0413 19.0308 12.3326 19.0308 12.6245L19.0297 13.612Z" fill="#6360BC"/>
<path d="M12.6382 8.36816H12.6028C11.4918 8.36816 10.4399 8.80412 9.63981 9.59528C8.82226 10.4044 8.37047 11.48 8.36835 12.6238C8.36624 13.7564 8.80537 14.8225 9.60656 15.6258C10.4067 16.4286 11.476 16.8756 12.616 16.8851H12.6514C13.7624 16.8851 14.8143 16.4492 15.6144 15.658C16.432 14.8489 16.8838 13.7733 16.8859 12.6296C16.8885 11.4969 16.4489 10.4308 15.6482 9.62748C14.8475 8.82523 13.7788 8.37766 12.6382 8.36816ZM15.6598 12.6238C15.6609 13.4339 15.3452 14.1966 14.7705 14.7708C14.1973 15.344 13.4373 15.6591 12.6297 15.6591H12.6239C10.9561 15.6559 9.59758 14.2969 9.59494 12.6296C9.59389 11.8199 9.90951 11.0573 10.4838 10.483C11.0569 9.90985 11.818 9.59423 12.6255 9.59423H12.6308C14.2981 9.59686 15.6572 10.9559 15.6598 12.6238Z" fill="#6360BC"/>
<path d="M16.9636 7.39771H16.9556C16.715 7.39982 16.488 7.49746 16.317 7.67163C16.1492 7.84263 16.0584 8.06536 16.061 8.29865C16.0668 8.78369 16.4764 9.19273 16.9562 9.19273H16.9641C17.4597 9.18798 17.8597 8.78316 17.8561 8.2902C17.8545 8.04953 17.7584 7.82363 17.5864 7.65421C17.418 7.48901 17.1968 7.39771 16.9636 7.39771Z" fill="#6360BC"/>
</svg>
