<svg width="16" height="16" viewBox="0 0 16 16" fill="none" xmlns="http://www.w3.org/2000/svg">
<path d="M15.2516 4.27776C15.2442 2.39723 14.0794 0.799605 12.2844 0.207422C12.0669 0.135642 11.8415 0.0960577 11.623 0.0580567C11.5265 0.0411673 11.4267 0.0237502 11.3301 0.00369413L11.3127 0H3.95791L3.92731 0.00263832C3.85869 0.0147775 3.78902 0.0253334 3.71882 0.036417C3.56312 0.0601677 3.40162 0.0849744 3.24328 0.129309C1.53587 0.607489 0.47079 1.72905 0.0786406 3.46337C0.0538343 3.5721 0.0385258 3.68135 0.0232198 3.78902C0.0163585 3.83652 0.00950233 3.8835 0.00211323 3.93047L0 3.94419V11.2953L0.00264154 11.3259C0.0147808 11.395 0.0258587 11.4647 0.0364146 11.5349C0.0601652 11.6917 0.084972 11.8532 0.129307 12.0126C0.608542 13.7231 1.72957 14.7856 3.46126 15.1709C3.77688 15.2411 4.10359 15.25 4.32209 15.2506L4.88789 15.2521C5.96775 15.2553 7.08403 15.2579 8.1982 15.2579C9.20892 15.2579 10.1025 15.2553 10.9311 15.25C12.5952 15.2395 13.8693 14.5 14.717 13.0518C15.0722 12.4453 15.2521 11.746 15.2527 10.9733C15.2532 10.5231 15.2537 10.0729 15.2543 9.62271V9.44959C15.2564 7.75432 15.2585 6.00153 15.2516 4.27776ZM14.0298 8.61199C14.0298 9.3794 14.0298 10.1473 14.0298 10.9147C14.0298 11.6151 13.8408 12.2289 13.4693 12.7393C12.8507 13.5891 12.0057 14.0224 10.958 14.0271C8.66582 14.0372 6.42376 14.0372 4.29306 14.0271C3.56576 14.024 2.89758 13.7939 2.36134 13.3626C1.82616 12.932 1.45882 12.3308 1.2989 11.6241C1.25245 11.4172 1.22817 11.1823 1.22765 10.9258L1.22553 10.1479C1.22025 8.24201 1.21498 6.27123 1.22817 4.33317C1.23715 3.02794 1.84147 2.07264 3.02372 1.49418C3.39318 1.31315 3.81647 1.22553 4.31734 1.22501L5.24098 1.22395C6.19259 1.22289 7.15951 1.22237 8.12959 1.22237C9.06695 1.22237 10.0069 1.22342 10.9401 1.22553C11.6716 1.22712 12.3435 1.45512 12.8834 1.88475C13.4228 2.31384 13.7928 2.915 13.9538 3.62329C14.0013 3.83336 14.0245 4.06928 14.0271 4.36537C14.0335 5.16023 14.0324 5.96828 14.0314 6.74941C14.0308 7.04128 14.0308 7.33262 14.0308 7.62449L14.0298 8.61199Z" fill="black"/>
<path d="M7.63826 3.36816H7.6029C6.4919 3.36816 5.44001 3.80412 4.63987 4.59528C3.82232 5.40439 3.37053 6.48003 3.36842 7.62375C3.3663 8.7564 3.80543 9.82254 4.60662 10.6258C5.40675 11.4286 6.47606 11.8756 7.61609 11.8851H7.65145C8.76245 11.8851 9.81435 11.4492 10.6145 10.658C11.432 9.84893 11.8838 8.77329 11.8859 7.62956C11.8886 6.49692 11.4489 5.43078 10.6483 4.62748C9.8476 3.82523 8.77882 3.37766 7.63826 3.36816ZM10.6599 7.62375C10.6609 8.43392 10.3453 9.19658 9.77054 9.77081C9.19736 10.344 8.43733 10.6591 7.62981 10.6591H7.62401C5.95618 10.6559 4.59764 9.29686 4.595 7.62956C4.59395 6.81993 4.90957 6.05727 5.48381 5.48303C6.05699 4.90985 6.81807 4.59423 7.62559 4.59423H7.63087C9.29816 4.59686 10.6572 5.95593 10.6599 7.62375Z" fill="black"/>
<path d="M11.9636 2.39746H11.9557C11.715 2.39957 11.4881 2.49721 11.3171 2.67139C11.1492 2.84239 11.0585 3.06512 11.0611 3.2984C11.0669 3.78344 11.4765 4.19248 11.9562 4.19248H11.9641C12.4597 4.18773 12.8598 3.78292 12.8561 3.28996C12.8545 3.04928 12.7585 2.82339 12.5864 2.65397C12.418 2.48877 12.1969 2.39746 11.9636 2.39746Z" fill="black"/>
</svg>
