<svg width="25" height="25" viewBox="0 0 25 25" fill="none" xmlns="http://www.w3.org/2000/svg">
<path d="M24.4257 8.73807C23.3567 5.4587 21.2912 3.00955 18.2501 1.401C17.015 0.747198 15.7072 0.32171 14.3267 0.145288C13.9531 0.0933996 13.5691 0.0518888 13.1954 0C12.7387 0 12.282 0 11.8254 0C11.6281 0.0207555 11.4413 0.031133 11.2441 0.0518885C10.1335 0.186799 9.04372 0.425487 8.00579 0.83022C5.73274 1.72271 3.87486 3.14446 2.42177 5.11623C0.99981 7.04649 0.210989 9.21544 0.0345425 11.6127C-0.0796291 13.1901 0.0864391 14.7364 0.574263 16.2412C1.64332 19.5309 3.70879 21.9801 6.76028 23.599C7.99541 24.2528 9.30319 24.6783 10.6836 24.8547C11.0573 24.9066 11.4413 24.9481 11.815 25C12.2717 25 12.7283 25 13.185 25C13.2265 24.9896 13.2577 24.9792 13.2992 24.9689C13.922 24.8858 14.5551 24.834 15.1675 24.699C18.219 24.0349 20.6788 22.4159 22.5471 19.9149C24.0002 17.9743 24.789 15.7846 24.9655 13.3562C25.0796 11.7787 24.9136 10.2325 24.4257 8.73807ZM23.4605 12.5259C17.7727 13.2316 13.2784 17.7563 12.5934 23.4537H12.3962C11.7216 17.7563 7.22735 13.2316 1.53953 12.5259V12.4741C7.22735 11.7684 11.7216 7.24367 12.3962 1.53591H12.5934C13.2681 7.24367 17.7727 11.758 23.4605 12.4741V12.5259Z" fill="#6360BC"/>
</svg>
