<svg width="24" height="24" viewBox="0 0 24 24" fill="none" xmlns="http://www.w3.org/2000/svg">
<path fill-rule="evenodd" clip-rule="evenodd" d="M14.9533 4.07329C13.008 3.64224 10.992 3.64224 9.04668 4.07329L8.59281 4.17386C7.23636 4.47443 6.03902 5.18652 5.13838 6.17602L10.5185 10.0198C11.4047 10.653 12.5953 10.653 13.4815 10.0198L18.8616 6.17602C17.961 5.18652 16.7636 4.47443 15.4072 4.17386L14.9533 4.07329ZM19.7388 7.39279L14.3535 11.2403C12.9456 12.2461 11.0543 12.2461 9.64648 11.2403L4.26116 7.39279C3.97706 7.8998 3.75745 8.44893 3.61329 9.02949C3.1289 10.9802 3.1289 13.0198 3.61329 14.9705C4.21736 17.4032 6.14627 19.284 8.59281 19.8261L9.04668 19.9267C10.992 20.3578 13.008 20.3578 14.9533 19.9267L15.4072 19.8261C17.8537 19.284 19.7826 17.4032 20.3867 14.9705C20.8711 13.0198 20.8711 10.9802 20.3867 9.0295C20.2426 8.44893 20.0229 7.8998 19.7388 7.39279ZM8.72218 2.60881C10.8812 2.1304 13.1188 2.1304 15.2778 2.60881L15.7317 2.70938C18.7342 3.3747 21.1013 5.68288 21.8425 8.66801C22.3858 10.8561 22.3858 13.1439 21.8425 15.332C21.1013 18.3171 18.7342 20.6253 15.7317 21.2906L15.2778 21.3912C13.1188 21.8696 10.8812 21.8696 8.72218 21.3912L8.2683 21.2906C5.26576 20.6253 2.89874 18.3171 2.1575 15.332C1.61417 13.1439 1.61417 10.8561 2.1575 8.668C2.89874 5.68288 5.26576 3.3747 8.2683 2.70938L8.72218 2.60881Z" fill="#3F3F3F"/>
</svg>
