<svg width="75" height="95" viewBox="0 0 75 95" fill="none" xmlns="http://www.w3.org/2000/svg">
<path fill-rule="evenodd" clip-rule="evenodd" d="M61.4292 59.6094H13.9292V80.5578H61.4292H65.0209H70.5146V59.6094H65.0209H61.4292Z" fill="#F87213"/>
<path fill-rule="evenodd" clip-rule="evenodd" d="M19.7581 19.7577V6.55371L6.5542 19.7577H19.7581Z" fill="#F87213"/>
<path d="M64.6514 95H0V23.5961V20.88L20.88 0C36.109 0 51.338 0 66.567 0V55.7713H74.3526V84.3958L66.567 92.0035V95H64.6514ZM29.0829 16.4536H57.0848V20.2917H29.0829V16.4536ZM10.9394 29.8149H57.0848V33.653H10.9394V29.8149ZM10.9394 43.1762H57.0848V47.0143H10.9394V43.1762ZM68.8794 84.3958H66.567V86.6535L68.8794 84.3958ZM23.5961 3.83804V23.5961H3.83804V91.162H62.729V84.3958H10.0911V55.7713H62.729V3.83804H23.5961ZM19.758 19.758V6.55408L6.55408 19.758H19.758ZM66.567 80.5578H70.5145V59.6093H66.567H65.0209H62.729H13.9291V80.5578H62.729H65.0209H66.567Z" fill="#1D1E21"/>
<path d="M30.725 64.5693C31.7033 64.5693 32.5517 64.7267 33.27 65.0551C33.9884 65.3835 34.5494 65.8418 34.9325 66.4439C35.3225 67.0391 35.5209 67.7506 35.5209 68.5716C35.5209 69.3789 35.3225 70.0835 34.9325 70.6856C34.5494 71.2945 33.9884 71.7528 33.27 72.0744C32.5517 72.3959 31.7033 72.5533 30.725 72.5533H28.5016V75.5977H25.9497V64.5693H30.725ZM30.5882 70.4735C31.3544 70.4735 31.936 70.3093 32.3328 69.9809C32.7364 69.6457 32.9348 69.1805 32.9348 68.5716C32.9348 67.949 32.7364 67.4769 32.3328 67.1417C31.936 66.8133 31.3544 66.6491 30.5882 66.6491H28.5016V70.4735H30.5882Z" fill="#2B2A29"/>
<path d="M37.3271 64.5693H42.3419C43.5392 64.5693 44.5996 64.7951 45.5163 65.2535C46.4399 65.7119 47.1514 66.3549 47.6645 67.1828C48.1708 68.0106 48.4239 68.9821 48.4239 70.0835C48.4239 71.185 48.1708 72.1496 47.6645 72.9843C47.1514 73.8121 46.4399 74.4552 45.5163 74.9136C44.5996 75.3719 43.5392 75.5977 42.3419 75.5977H37.3271V64.5693ZM42.2188 73.5042C43.3202 73.5042 44.1959 73.1964 44.8527 72.5806C45.5095 71.9649 45.8379 71.1303 45.8379 70.0835C45.8379 69.0299 45.5095 68.1953 44.8527 67.5864C44.1959 66.9707 43.3202 66.6628 42.2188 66.6628H39.8858V73.5042H42.2188Z" fill="#2B2A29"/>
<path d="M52.9049 66.6149V69.5294H58.0086V71.5818H52.9049V75.5977H50.3462V64.5693H58.6859V66.6149H52.9049Z" fill="#2B2A29"/>
</svg>
