<svg width="20" height="20" viewBox="0 0 20 20" fill="none" xmlns="http://www.w3.org/2000/svg">
<path fill-rule="evenodd" clip-rule="evenodd" d="M15.4689 4.53196C14.2967 3.35973 12.6008 2.98684 11.0397 3.43165C10.6413 3.54516 10.2264 3.31424 10.1129 2.91588C9.99938 2.51752 10.2303 2.10257 10.6287 1.98907C12.672 1.40686 14.943 1.88469 16.5296 3.4713C18.1162 5.0579 18.594 7.32885 18.0118 9.37221C17.8983 9.77057 17.4833 10.0015 17.085 9.88798C16.6866 9.77448 16.4557 9.35953 16.5692 8.96118C17.014 7.40003 16.6411 5.70419 15.4689 4.53196ZM13.8548 6.14604C13.4648 5.75602 12.9721 5.63048 12.5948 5.70563C12.1885 5.78654 11.7936 5.52282 11.7127 5.11659C11.6318 4.71035 11.8955 4.31544 12.3017 4.23453C13.2118 4.05326 14.202 4.37188 14.9155 5.08538C15.629 5.79889 15.9476 6.78903 15.7663 7.69912C15.6854 8.10535 15.2905 8.36908 14.8843 8.28816C14.478 8.20725 14.2143 7.81234 14.2952 7.40611C14.3704 7.02878 14.2449 6.53607 13.8548 6.14604Z" fill="#E74B5B"/>
<path fill-rule="evenodd" clip-rule="evenodd" d="M4.646 1.89295C4.94909 1.79831 5.26368 1.75 5.58051 1.75C7.12243 1.75 8.25001 3.10485 8.25 4.61756L8.25 7.88245C8.25001 9.39516 7.12243 10.75 5.5805 10.75C5.26368 10.75 4.94909 10.7017 4.646 10.6071L4.48778 10.5576C5.59809 12.6714 7.32856 14.4019 9.44235 15.5122L9.39295 15.354L10.0988 15.1336L9.39295 15.354C9.29831 15.0509 9.25 14.7363 9.25 14.4195C9.25 12.8776 10.6048 11.75 12.1176 11.75H15.3824C16.8952 11.75 18.25 12.8776 18.25 14.4195C18.25 14.7363 18.2017 15.0509 18.1071 15.354L18.0376 15.5765C17.6174 16.9223 16.4182 17.8903 14.9924 18.1415C14.1717 18.2862 13.3283 18.2862 12.5076 18.1415C12.4752 18.1358 12.4428 18.1297 12.4106 18.1233C7.07596 17.0968 2.9032 12.9241 1.87673 7.58939C1.87027 7.55718 1.86418 7.52484 1.85847 7.49239C1.71384 6.67167 1.71384 5.82833 1.85847 5.00761C2.10971 3.58181 3.07771 2.38265 4.42346 1.96244C4.42346 1.96244 4.42346 1.96244 4.42347 1.96244L4.646 1.89295L4.646 1.89295ZM3.34889 7.30171C3.34424 7.27746 3.33965 7.25319 3.33514 7.22889C3.22143 6.58139 3.22162 5.91536 3.33571 5.26792C3.50059 4.33222 4.11803 3.62923 4.87055 3.39426L4.87055 3.39426L5.09309 3.32477C5.09309 3.32477 5.09309 3.32477 5.09309 3.32477C5.25263 3.27495 5.41653 3.25 5.58051 3.25C6.15881 3.25 6.75 3.79128 6.75 4.61755L6.75 7.88245C6.75 8.70872 6.15881 9.25 5.5805 9.25C5.41653 9.25 5.25262 9.22504 5.09308 9.17523L4.87055 9.10574C4.13681 8.87663 3.5315 8.20259 3.34889 7.30171ZM12.771 16.6648C13.4186 16.7786 14.0846 16.7784 14.7321 16.6643C15.6678 16.4994 16.3708 15.882 16.6057 15.1295L16.6752 14.9069C16.725 14.7474 16.75 14.5835 16.75 14.4195C16.75 13.8412 16.2087 13.25 15.3824 13.25H12.1175C11.2913 13.25 10.75 13.8412 10.75 14.4195C10.75 14.5835 10.775 14.7474 10.8248 14.9069L10.1089 15.1305L10.8248 14.9069L10.8943 15.1294L10.1783 15.353L10.1683 15.3561M10.1783 15.353L10.8943 15.1294C11.1234 15.8632 11.7975 16.4685 12.6984 16.6511C12.7226 16.6558 12.7468 16.6603 12.771 16.6648" fill="#E74B5B"/>
</svg>
