<svg width="17" height="17" viewBox="0 0 17 17" fill="none" xmlns="http://www.w3.org/2000/svg">
<path id="Vector" d="M16.6136 12.2931C16.5614 12.1 16.4692 11.9201 16.3429 11.765C16.2167 11.6099 16.0592 11.4832 15.8807 11.393C14.8394 10.8422 13.7212 10.2626 12.3606 9.56724C11.7017 9.23056 10.9844 9.40005 10.5337 9.99995C10.3526 10.24 10.1751 10.4865 10.0131 10.7173C9.94366 10.8139 9.89275 10.826 9.79556 10.7682C8.18187 9.82093 6.83743 8.47649 5.89018 6.8628C5.83233 6.76272 5.84101 6.71413 5.93646 6.64586C6.15397 6.49083 6.41024 6.30629 6.66709 6.10787C7.25252 5.65607 7.41913 4.94337 7.0865 4.29257C6.40851 2.95857 5.83638 1.84845 5.28739 0.798493C5.19566 0.614341 5.06587 0.451766 4.90661 0.321524C4.74734 0.191282 4.56224 0.0963427 4.36355 0.0429862C4.16182 -0.00693051 3.9518 -0.0134563 3.74737 0.0238404C3.54293 0.0611371 3.34874 0.141407 3.17764 0.259341C2.31801 0.824525 1.62093 1.29137 0.983432 1.72928C0.312963 2.18918 0.0104128 2.85618 0 3.89168V3.90035V3.90845C0.0179332 4.01952 0.0352879 4.14968 0.0578489 4.30067C0.111647 4.75619 0.192001 5.20818 0.298501 5.65433C0.718484 7.30824 1.52316 8.89388 2.75824 10.5038C4.53478 12.8178 6.67866 14.5642 9.13146 15.6934C10.3161 16.249 11.5971 16.5696 12.9038 16.6375C12.9524 16.6375 12.9998 16.641 13.0467 16.641C13.8461 16.641 14.4744 16.3194 14.9158 15.6848C15.3786 15.0183 15.8552 14.3062 16.4123 13.4431C16.5246 13.2762 16.6005 13.0876 16.6352 12.8895C16.6699 12.6914 16.6625 12.4882 16.6136 12.2931ZM4.72742 7.48583C5.7939 9.32345 7.32176 10.8507 9.1598 11.9165C9.80829 12.2948 10.5829 12.1363 11.0434 11.5318C11.2059 11.3189 11.3772 11.084 11.5675 10.8133C11.6369 10.715 11.6947 10.7017 11.8064 10.7601C12.4512 11.0956 13.0966 11.4302 13.7426 11.7638C14.2235 12.0125 14.704 12.2615 15.1842 12.5106C15.2577 12.5488 15.2999 12.587 15.3097 12.6263C15.3134 12.6799 15.296 12.7329 15.2611 12.7738L15.2525 12.7871C14.7897 13.4963 14.3072 14.2293 13.8224 14.9414C13.6292 15.226 13.3382 15.3411 12.8801 15.3128C11.7809 15.2463 10.7142 14.9657 9.61623 14.4555C7.69391 13.5617 6.0134 12.2699 4.47924 10.5055C3.25574 9.09866 2.38511 7.65359 1.81819 6.0882C1.54515 5.33616 1.393 4.53785 1.34036 3.58045C1.32995 3.26459 1.47399 2.99733 1.75745 2.80701C2.42156 2.35694 3.11517 1.89415 3.87819 1.38971C3.96555 1.33186 4.00662 1.3255 4.02571 1.33186C4.0448 1.33822 4.08009 1.36368 4.12984 1.46029C4.71064 2.58063 5.29067 3.70193 5.86993 4.8242C5.94571 4.97114 5.9434 4.98097 5.80051 5.08626L5.53441 5.28121C5.39615 5.38129 5.25326 5.48541 5.11443 5.59012C4.50354 6.05002 4.34446 6.8304 4.72742 7.48583Z" fill="black"/>
</svg>
