<svg width="22" height="20" viewBox="0 0 22 20" fill="none" xmlns="http://www.w3.org/2000/svg">
<path fill-rule="evenodd" clip-rule="evenodd" d="M13.9533 2.07328C13.7005 2.01727 13.4465 1.96853 13.1916 1.92707C14.152 2.86932 14.869 4.2097 15.27 5.72992C17.1417 6.22361 18.7408 7.19629 19.6599 8.51263C19.5994 8.01453 19.5083 7.51921 19.3867 7.0295C18.7826 4.59679 16.8537 2.71597 14.4072 2.17385L13.9533 2.07328ZM19.6599 11.4874C18.7408 12.8037 17.1417 13.7764 15.27 14.2701C14.869 15.7903 14.1521 17.1307 13.1916 18.0729C13.4465 18.0315 13.7005 17.9827 13.9533 17.9267L14.4072 17.8261C16.8537 17.284 18.7826 15.4032 19.3867 12.9705C19.5083 12.4808 19.5994 11.9855 19.6599 11.4874ZM15.5814 12.6079C17.2069 12.0326 18.3375 11.0585 18.7757 10C18.3375 8.94153 17.2069 7.96741 15.5814 7.39213C15.8061 9.11467 15.8061 10.8853 15.5814 12.6079ZM14.0067 6.99322C14.331 8.96754 14.331 11.0325 14.0067 13.0068C12.0324 13.3311 9.9675 13.3311 7.99321 13.0068C7.66891 11.0325 7.66891 8.96754 7.99321 6.99323C9.9675 6.66893 12.0324 6.66892 14.0067 6.99322ZM13.6078 5.41851C13.0325 3.7931 12.0584 2.66244 11 2.22432C9.94151 2.66244 8.9674 3.7931 8.39213 5.41851C10.1146 5.19383 11.8853 5.19383 13.6078 5.41851ZM6.72992 5.72993C7.13089 4.20971 7.84785 2.86933 8.80827 1.92708C8.55341 1.96854 8.29944 2.01727 8.04667 2.07328L7.5928 2.17385C5.14626 2.71597 3.21734 4.59679 2.61327 7.02949C2.49168 7.51919 2.4006 8.01448 2.34006 8.51257C3.25913 7.19626 4.85822 6.22361 6.72992 5.72993ZM2.34006 11.4874C2.4006 11.9855 2.49168 12.4808 2.61327 12.9705C3.21734 15.4032 5.14625 17.284 7.59279 17.8261L8.04667 17.9267C8.29944 17.9827 8.55341 18.0315 8.80826 18.0729C7.84784 17.1307 7.13089 15.7903 6.72992 14.2701C4.85822 13.7764 3.25913 12.8037 2.34006 11.4874ZM6.4185 12.6079C6.19381 10.8853 6.19381 9.11467 6.4185 7.39214C4.79306 7.96742 3.66239 8.94153 3.22428 10C3.66239 11.0585 4.79306 12.0326 6.4185 12.6079ZM8.39213 14.5815C8.9674 16.2069 9.94151 17.3376 11 17.7757C12.0584 17.3376 13.0325 16.2069 13.6078 14.5815C11.8853 14.8062 10.1146 14.8062 8.39213 14.5815ZM7.72216 0.608805C9.8812 0.130393 12.1188 0.130393 14.2778 0.608806L14.7317 0.709375C17.7342 1.3747 20.1012 3.68288 20.8425 6.66801C21.3858 8.8561 21.3858 11.1439 20.8425 13.332C20.1012 16.3171 17.7342 18.6253 14.7317 19.2906L14.2778 19.3912C12.1188 19.8696 9.8812 19.8696 7.72216 19.3912L7.26829 19.2906C4.26574 18.6253 1.89873 16.3171 1.15748 13.332C0.614152 11.1439 0.614152 8.85609 1.15748 6.668C1.89873 3.68287 4.26575 1.3747 7.26829 0.709376L7.72216 0.608805Z" fill="#3F3F3F"/>
</svg>
