<svg width="25" height="25" viewBox="0 0 25 25" fill="none" xmlns="http://www.w3.org/2000/svg">
<path d="M20.48 6.96533C20.471 6.93419 20.462 6.90252 20.4536 6.87086C20.3079 6.34201 19.8746 6 19.3495 6C19.3394 6 19.3294 6 19.3194 6.00053C19.0824 6.00633 18.8391 6.05436 18.6158 6.13934C14.1 7.8573 9.49134 9.61696 4.9175 11.3698C4.6953 11.4553 4.48101 11.583 4.3137 11.7308C4.1047 11.9155 3.99333 12.1562 4.00019 12.4085C4.00705 12.6602 4.13108 12.893 4.34906 13.064C4.53537 13.2102 4.7676 13.3305 5.003 13.4018C5.89233 13.6715 6.80752 13.9274 7.66941 14.1671C7.75438 14.1908 7.78605 14.2209 7.81507 14.3069C8.0188 14.9039 8.23098 15.5087 8.43629 16.0956L8.55398 16.4318C8.6189 16.6176 8.68382 16.8039 8.74874 16.9897L8.75191 16.9987C8.93294 17.5191 9.12031 18.0569 9.31137 18.5842C9.51615 19.1489 9.88455 19.4856 10.4065 19.5854C10.8773 19.6751 11.3143 19.5284 11.7419 19.1357C11.9197 18.9726 12.0971 18.809 12.2744 18.6454L12.3203 18.6032C12.4232 18.5082 12.5261 18.4137 12.6291 18.3187C12.8164 18.1461 13.0038 17.974 13.1928 17.8004L13.4039 17.6067L13.6899 17.8368C13.909 18.0131 14.1254 18.1873 14.3423 18.3614C14.5075 18.4939 14.6743 18.6306 14.8368 18.7641C15.2105 19.0702 15.5968 19.3875 15.9964 19.6788C16.2772 19.8836 16.587 19.9918 16.8931 19.9918C17.0367 19.9918 17.1771 19.9675 17.3095 19.92C17.736 19.7669 18.0558 19.3853 18.1867 18.8729C18.1983 18.8275 18.2094 18.78 18.2194 18.7277C18.3403 18.1324 18.4617 17.5375 18.582 16.9422L19.0893 14.4368C19.465 12.5805 19.8408 10.7248 20.2171 8.86855C20.2784 8.56718 20.3433 8.26053 20.4056 7.96391L20.4198 7.89741C20.4473 7.76758 20.4747 7.63827 20.5016 7.50843L20.5043 7.05822L20.48 6.96533ZM17.053 18.4316L17.0477 18.457C17.0435 18.4781 17.0393 18.4992 17.0346 18.5203C16.9828 18.7356 16.9232 18.7773 16.9 18.7858C16.8767 18.7937 16.8044 18.7974 16.6345 18.6623C16.1494 18.2764 15.6591 17.8806 15.1846 17.498L15.1736 17.489C14.9646 17.3201 14.7555 17.1512 14.546 16.9828L12.1614 15.0632C12.1519 15.0553 12.1424 15.0474 12.1324 15.0395C12.1398 15.0316 12.1467 15.0237 12.1541 15.0157L16.1611 10.7586L16.9137 9.95897C16.93 9.94155 16.9459 9.92466 16.9617 9.90725C17.1897 9.65443 17.2188 9.34515 17.0372 9.10025C16.8551 8.85483 16.5426 8.79519 16.2408 8.94772C15.7974 9.1715 15.3483 9.40162 14.9134 9.62329L13.7005 10.2429C12.01 11.1069 10.0936 12.086 8.25314 13.0239C8.20987 13.046 8.15814 13.0555 8.13967 13.0502C7.40393 12.8444 6.65657 12.6301 5.93402 12.4227L5.69916 12.3551L6.64654 11.9936C10.7047 10.4435 14.9012 8.84058 19.0301 7.26828C19.0956 7.24348 19.1758 7.23767 19.2634 7.23134C19.2639 7.23134 19.265 7.23134 19.2655 7.23134C19.2655 7.23292 19.2661 7.23451 19.2661 7.23609C19.275 7.32054 19.2835 7.40023 19.2703 7.46779C18.885 9.39529 18.4939 11.3249 18.116 13.1906L17.9255 14.1306C17.7423 15.0363 17.5586 15.9415 17.375 16.8472L17.053 18.4316ZM13.7422 11.573L13.3284 12.0126C12.5694 12.8185 11.7091 13.7316 10.8884 14.6125C10.777 14.7323 10.6884 14.8954 10.6456 15.0596C10.492 15.648 10.3448 16.2481 10.2018 16.8287L10.1959 16.853C10.1659 16.976 10.1353 17.0995 10.1052 17.2224L8.98044 14.0056L13.7422 11.573ZM12.4554 16.844L11.1381 18.0564L11.6062 16.16L12.4554 16.844Z" fill="#6360BC"/>
</svg>
