<svg width="30" height="27" viewBox="0 0 30 27" fill="none" xmlns="http://www.w3.org/2000/svg">
<path d="M28.5676 1.68444C28.2256 1.24302 27.7133 1 27.125 1C26.8052 1 26.4664 1.07101 26.1182 1.21146L2.41679 10.7595C1.15898 11.2661 0.989576 12.0263 1.00047 12.4343C1.01137 12.8424 1.22136 13.5913 2.50437 14.0221C2.51206 14.0246 2.51975 14.0271 2.52745 14.0293L7.44375 15.5141L10.1025 23.5375C10.465 24.6313 11.2787 25.3108 12.2263 25.3108C12.8238 25.3108 13.4115 25.0466 13.9259 24.547L16.9668 21.5922L21.3775 25.3401C21.3779 25.3406 21.3786 25.3408 21.379 25.3413L21.4209 25.3769C21.4247 25.38 21.4288 25.3834 21.4326 25.3866C21.9229 25.7879 22.458 25.9998 22.9807 26H22.9809C24.0023 26 24.8155 25.2022 25.0524 23.9677L28.9359 3.73121C29.0918 2.91895 28.9611 2.19213 28.5676 1.68444ZM9.08843 15.2321L18.5735 10.1184L12.6675 16.7412C12.5707 16.8496 12.5021 16.9824 12.4684 17.1269L11.3295 21.995L9.08843 15.2321ZM12.8144 23.2733C12.7751 23.3114 12.7356 23.3454 12.6961 23.3768L13.7527 18.8607L15.6746 20.4941L12.8144 23.2733ZM27.328 3.38741L23.4445 23.6241C23.4071 23.8177 23.2877 24.2684 22.9807 24.2684C22.8291 24.2684 22.6385 24.1811 22.4435 24.0227L17.4456 19.7758C17.4449 19.7751 17.4441 19.7745 17.4432 19.774L14.4694 17.2468L23.0102 7.66943C23.2837 7.36283 23.3084 6.89324 23.069 6.55643C22.8293 6.21962 22.395 6.11367 22.0397 6.30529L7.99234 13.8787L3.00916 12.3741L26.7033 2.829C26.9035 2.74829 27.0432 2.73138 27.125 2.73138C27.1752 2.73138 27.2645 2.7377 27.2976 2.78075C27.3412 2.83689 27.3967 3.02829 27.328 3.38741Z" fill="white" stroke="white" stroke-width="0.5"/>
</svg>
