<svg width="17" height="14" viewBox="0 0 17 14" fill="none" xmlns="http://www.w3.org/2000/svg">
<path d="M16.4801 0.965332C16.4711 0.934192 16.4621 0.902525 16.4537 0.870857C16.308 0.342009 15.8747 0 15.3496 0C15.3395 0 15.3295 -2.89913e-07 15.3195 0.000527502C15.0825 0.00633322 14.8392 0.0543626 14.6159 0.139337C10.1001 1.8573 5.49145 3.61696 0.917603 5.36976C0.695402 5.45526 0.481118 5.58299 0.313808 5.73077C0.104802 5.9155 -0.00656215 6.15617 0.000299155 6.40845C0.00716046 6.66021 0.131191 6.89297 0.349169 7.06397C0.53548 7.21017 0.767709 7.33051 1.0031 7.40176C1.89243 7.67146 2.80763 7.92744 3.66951 8.16706C3.75449 8.19081 3.78615 8.22089 3.81518 8.30692C4.01891 8.90386 4.23108 9.50871 4.43639 10.0956L4.55409 10.4318C4.61901 10.6176 4.68393 10.8039 4.74885 10.9897L4.75201 10.9987C4.93305 11.5191 5.12041 12.0569 5.31147 12.5842C5.51626 13.1489 5.88466 13.4856 6.40664 13.5854C6.87743 13.6751 7.31445 13.5284 7.74196 13.1357C7.91982 12.9726 8.09716 12.809 8.2745 12.6454L8.32042 12.6032C8.42334 12.5081 8.52626 12.4137 8.62918 12.3187C8.81654 12.1461 9.00391 11.974 9.19286 11.8004L9.40397 11.6067L9.69004 11.8368C9.90907 12.0131 10.1255 12.1873 10.3424 12.3614C10.5076 12.4939 10.6744 12.6306 10.8369 12.7641C11.2106 13.0702 11.597 13.3875 11.9965 13.6788C12.2773 13.8836 12.5871 13.9918 12.8932 13.9918C13.0368 13.9918 13.1772 13.9675 13.3096 13.92C13.7361 13.7669 14.0559 13.3853 14.1868 12.8729C14.1984 12.8275 14.2095 12.78 14.2196 12.7277C14.3404 12.1324 14.4618 11.5375 14.5821 10.9422L15.0894 8.43676C15.4651 6.58051 15.8409 4.7248 16.2172 2.86855C16.2785 2.56718 16.3434 2.26053 16.4057 1.96391L16.4199 1.89741C16.4474 1.76758 16.4748 1.63827 16.5017 1.50843L16.5044 1.05822L16.4801 0.965332ZM13.0531 12.4316L13.0479 12.457C13.0436 12.4781 13.0394 12.4992 13.0347 12.5203C12.9829 12.7356 12.9233 12.7773 12.9001 12.7858C12.8768 12.7937 12.8045 12.7974 12.6346 12.6623C12.1496 12.2764 11.6592 11.8806 11.1847 11.498L11.1737 11.489C10.9647 11.3201 10.7557 11.1512 10.5461 10.9828L8.16155 9.06325C8.15205 9.05533 8.14255 9.04742 8.13252 9.0395C8.13991 9.03158 8.14677 9.02366 8.15416 9.01575L12.1612 4.75857L12.9138 3.95897C12.9302 3.94155 12.946 3.92466 12.9618 3.90725C13.1898 3.65443 13.2189 3.34515 13.0373 3.10025C12.8552 2.85483 12.5428 2.79519 12.2409 2.94772C11.7975 3.1715 11.3484 3.40162 10.9135 3.62329L9.70059 4.24292C8.01007 5.10692 6.09366 6.08597 4.25325 7.02386C4.20997 7.04603 4.15825 7.05553 4.13977 7.05025C3.40403 6.84441 2.65668 6.63013 1.93413 6.4227L1.69926 6.35515L2.64665 5.99361C6.70485 4.44348 10.9013 2.84058 15.0302 1.26828C15.0957 1.24348 15.1759 1.23767 15.2635 1.23134C15.2641 1.23134 15.2651 1.23134 15.2656 1.23134C15.2656 1.23292 15.2662 1.23451 15.2662 1.23609C15.2751 1.32054 15.2836 1.40023 15.2704 1.46779C14.8851 3.39529 14.494 5.3249 14.1161 7.19064L13.9256 8.13064C13.7424 9.03633 13.5588 9.9415 13.3751 10.8472L13.0531 12.4316ZM9.74229 5.57296L9.3285 6.01261C8.56954 6.81855 7.70923 7.73163 6.88852 8.61252C6.77715 8.73232 6.68848 8.89541 6.64573 9.05956C6.49214 9.64804 6.34489 10.2481 6.20186 10.8287L6.19605 10.853C6.16597 10.976 6.13536 11.0995 6.10527 11.2224L4.98055 8.00555L9.74229 5.57296ZM8.45553 10.844L7.13816 12.0564L7.60631 10.16L8.45553 10.844Z" fill="black"/>
</svg>
