<svg width="25" height="25" viewBox="0 0 25 25" fill="none" xmlns="http://www.w3.org/2000/svg">
<path d="M25 0H0V25H25V0Z" fill="white"/>
<path d="M20.4801 6.96533C20.4711 6.93419 20.4621 6.90252 20.4537 6.87086C20.308 6.34201 19.8747 6 19.3496 6C19.3395 6 19.3295 6 19.3195 6.00053C19.0825 6.00633 18.8392 6.05436 18.6159 6.13934C14.1001 7.8573 9.49145 9.61696 4.9176 11.3698C4.6954 11.4553 4.48112 11.583 4.31381 11.7308C4.1048 11.9155 3.99344 12.1562 4.0003 12.4085C4.00716 12.6602 4.13119 12.893 4.34917 13.064C4.53548 13.2102 4.76771 13.3305 5.0031 13.4018C5.89243 13.6715 6.80763 13.9274 7.66951 14.1671C7.75449 14.1908 7.78615 14.2209 7.81518 14.3069C8.01891 14.9039 8.23108 15.5087 8.43639 16.0956L8.55409 16.4318C8.61901 16.6176 8.68393 16.8039 8.74885 16.9897L8.75201 16.9987C8.93305 17.5191 9.12041 18.0569 9.31147 18.5842C9.51626 19.1489 9.88466 19.4856 10.4066 19.5854C10.8774 19.6751 11.3144 19.5284 11.742 19.1357C11.9198 18.9726 12.0972 18.809 12.2745 18.6454L12.3204 18.6032C12.4233 18.5082 12.5263 18.4137 12.6292 18.3187C12.8165 18.1461 13.0039 17.974 13.1929 17.8004L13.404 17.6067L13.69 17.8368C13.9091 18.0131 14.1255 18.1873 14.3424 18.3614C14.5076 18.4939 14.6744 18.6306 14.8369 18.7641C15.2106 19.0702 15.597 19.3875 15.9965 19.6788C16.2773 19.8836 16.5871 19.9918 16.8932 19.9918C17.0368 19.9918 17.1772 19.9675 17.3096 19.92C17.7361 19.7669 18.0559 19.3853 18.1868 18.8729C18.1984 18.8275 18.2095 18.78 18.2196 18.7277C18.3404 18.1324 18.4618 17.5375 18.5821 16.9422L19.0894 14.4368C19.4651 12.5805 19.8409 10.7248 20.2172 8.86855C20.2785 8.56718 20.3434 8.26053 20.4057 7.96391L20.4199 7.89741C20.4474 7.76758 20.4748 7.63827 20.5017 7.50843L20.5044 7.05822L20.4801 6.96533ZM17.0531 18.4316L17.0479 18.457C17.0436 18.4781 17.0394 18.4992 17.0347 18.5203C16.9829 18.7356 16.9233 18.7773 16.9001 18.7858C16.8768 18.7937 16.8045 18.7974 16.6346 18.6623C16.1496 18.2764 15.6592 17.8806 15.1847 17.498L15.1737 17.489C14.9647 17.3201 14.7557 17.1512 14.5461 16.9828L12.1616 15.0632C12.1521 15.0553 12.1426 15.0474 12.1325 15.0395C12.1399 15.0316 12.1468 15.0237 12.1542 15.0157L16.1612 10.7586L16.9138 9.95897C16.9302 9.94155 16.946 9.92466 16.9618 9.90725C17.1898 9.65443 17.2189 9.34515 17.0373 9.10025C16.8552 8.85483 16.5428 8.79519 16.2409 8.94772C15.7975 9.1715 15.3484 9.40162 14.9135 9.62329L13.7006 10.2429C12.0101 11.1069 10.0937 12.086 8.25325 13.0239C8.20997 13.046 8.15825 13.0555 8.13977 13.0502C7.40403 12.8444 6.65668 12.6301 5.93413 12.4227L5.69926 12.3551L6.64665 11.9936C10.7048 10.4435 14.9013 8.84058 19.0302 7.26828C19.0957 7.24348 19.1759 7.23767 19.2635 7.23134C19.2641 7.23134 19.2651 7.23134 19.2656 7.23134C19.2656 7.23292 19.2662 7.23451 19.2662 7.23609C19.2751 7.32054 19.2836 7.40023 19.2704 7.46779C18.8851 9.39529 18.494 11.3249 18.1161 13.1906L17.9256 14.1306C17.7424 15.0363 17.5588 15.9415 17.3751 16.8472L17.0531 18.4316ZM13.7423 11.573L13.3285 12.0126C12.5695 12.8185 11.7092 13.7316 10.8885 14.6125C10.7772 14.7323 10.6885 14.8954 10.6457 15.0596C10.4921 15.648 10.3449 16.2481 10.2019 16.8287L10.1961 16.853C10.166 16.976 10.1354 17.0995 10.1053 17.2224L8.98055 14.0056L13.7423 11.573ZM12.4555 16.844L11.1382 18.0564L11.6063 16.16L12.4555 16.844Z" fill="black"/>
</svg>
