<svg width="24" height="24" viewBox="0 0 24 24" fill="none" xmlns="http://www.w3.org/2000/svg">
<path d="M3.35288 15.0496L2.6227 15.2209L3.35288 15.0496ZM3.35288 8.95043L2.6227 8.77915L3.35288 8.95043ZM20.6471 8.95044L19.9169 9.12171L20.6471 8.95044ZM20.6471 15.0496L19.9169 14.8783L20.6471 15.0496ZM15.0496 20.6471L14.8783 19.9169L15.0496 20.6471ZM8.95044 20.6471L8.77916 21.3773L8.95044 20.6471ZM8.95043 3.35288L8.77916 2.6227L8.95043 3.35288ZM15.0496 3.35288L14.8783 4.08306L15.0496 3.35288ZM16.0539 10.5193C16.3851 10.2706 16.4521 9.80045 16.2034 9.46919C15.9547 9.13793 15.4846 9.07098 15.1533 9.31965L16.0539 10.5193ZM11.5 13L11.2628 13.7115C11.4964 13.7894 11.7534 13.7476 11.9503 13.5998L11.5 13ZM8.73717 11.2885C8.34421 11.1575 7.91947 11.3699 7.78849 11.7628C7.6575 12.1558 7.86987 12.5805 8.26283 12.7115L8.73717 11.2885ZM4.08306 14.8783C3.63898 12.9851 3.63898 11.0149 4.08306 9.12171L2.6227 8.77915C2.12577 10.8976 2.12577 13.1024 2.6227 15.2209L4.08306 14.8783ZM19.9169 9.12171C20.361 11.0149 20.361 12.9851 19.9169 14.8783L21.3773 15.2208C21.8742 13.1024 21.8742 10.8976 21.3773 8.77916L19.9169 9.12171ZM14.8783 19.9169C12.9851 20.361 11.0149 20.361 9.12171 19.9169L8.77916 21.3773C10.8976 21.8742 13.1024 21.8742 15.2208 21.3773L14.8783 19.9169ZM9.12171 4.08306C11.0149 3.63898 12.9851 3.63898 14.8783 4.08306L15.2208 2.6227C13.1024 2.12577 10.8976 2.12577 8.77916 2.6227L9.12171 4.08306ZM9.12171 19.9169C6.62161 19.3305 4.6695 17.3784 4.08306 14.8783L2.6227 15.2209C3.33924 18.2756 5.72441 20.6608 8.77916 21.3773L9.12171 19.9169ZM15.2208 21.3773C18.2756 20.6608 20.6608 18.2756 21.3773 15.2208L19.9169 14.8783C19.3305 17.3784 17.3784 19.3305 14.8783 19.9169L15.2208 21.3773ZM14.8783 4.08306C17.3784 4.6695 19.3305 6.62161 19.9169 9.12171L21.3773 8.77916C20.6608 5.72441 18.2756 3.33924 15.2208 2.6227L14.8783 4.08306ZM8.77916 2.6227C5.72441 3.33924 3.33924 5.72441 2.6227 8.77915L4.08306 9.12171C4.6695 6.6216 6.62161 4.6695 9.12171 4.08306L8.77916 2.6227ZM15.1533 9.31965L11.0497 12.4002L11.9503 13.5998L16.0539 10.5193L15.1533 9.31965ZM11.7372 12.2885L8.73717 11.2885L8.26283 12.7115L11.2628 13.7115L11.7372 12.2885Z" fill="#E74B5B"/>
</svg>
