<svg width="16" height="17" viewBox="0 0 16 17" fill="none" xmlns="http://www.w3.org/2000/svg">
<path d="M15.2871 5.96311C15.2776 5.50129 15.2349 5.097 15.1567 4.72649C14.6158 2.16459 12.323 0.287758 9.70412 0.26348C8.40522 0.251341 7.08574 0.257147 5.81007 0.262952L5.562 0.264008C5.0416 0.266119 4.51328 0.354261 3.99235 0.526321C1.59089 1.31748 0.0375973 3.46454 0.0344306 5.99636L0.0339023 6.31673C0.0328467 7.03083 0.0317932 7.76922 0.0360155 8.50338V8.56618C0.0370711 8.82163 0.0381256 9.08553 0.0745433 9.3452C0.353218 11.3318 1.39613 12.8149 3.17427 13.7539C3.23919 13.7882 3.24552 13.7987 3.245 13.871C3.23919 14.4373 3.23391 15.0232 3.24816 15.6017C3.25396 15.8397 3.27244 16.5638 4.03774 16.7855L4.05041 16.7892L4.38555 16.7913L4.40772 16.7839C4.71806 16.6794 4.98882 16.4804 5.25905 16.1574C5.49603 15.874 5.73775 15.589 5.97157 15.314C6.20802 15.0353 6.47561 14.7197 6.73265 14.4125C6.77065 14.3671 6.8002 14.354 6.86671 14.354L7.28313 14.3555C8.02943 14.3587 8.80159 14.3619 9.56584 14.3518C9.88832 14.3476 10.2689 14.3334 10.6468 14.2611C13.3744 13.7385 15.285 11.4305 15.2924 8.64905C15.2929 8.45324 15.294 8.25742 15.295 8.06214V8.05106C15.2982 7.36598 15.3014 6.65874 15.2871 5.96311ZM4.47528 14.4305C4.47422 14.1138 4.47317 13.7866 4.47792 13.4625C4.48267 13.1453 4.33858 12.9268 4.03668 12.7938C2.57892 12.1536 1.67428 11.0399 1.34705 9.48401C1.29955 9.25865 1.27422 9.00319 1.27158 8.72452C1.26261 7.83677 1.26208 6.91894 1.26894 5.91878C1.28424 3.68621 2.90088 1.84264 5.11285 1.53493C5.29811 1.50907 5.49761 1.49693 5.74198 1.4964C6.98387 1.49271 8.27591 1.49218 9.58114 1.49535C11.763 1.49957 13.5728 2.99744 13.9819 5.13817C14.0278 5.37779 14.0515 5.64802 14.0547 5.96469C14.0642 6.87566 14.061 7.78294 14.0573 8.66013C14.0537 9.71255 13.7106 10.689 13.0662 11.4828C12.4212 12.2776 11.5361 12.8123 10.5074 13.0292C10.2425 13.0851 9.9411 13.1131 9.55898 13.1173C8.58045 13.1284 7.60614 13.1247 6.61231 13.1194H6.60387C6.33575 13.1194 6.12199 13.2192 5.95151 13.4245C5.55567 13.9001 5.15349 14.373 4.76398 14.8311C4.66792 14.944 4.57186 15.057 4.4758 15.1704V14.8422C4.47633 14.7034 4.4758 14.5667 4.47528 14.4305Z" fill="black"/>
<path d="M8.94054 12.1C9.80928 12.1 10.5376 11.7965 11.1061 11.198C11.7479 10.5224 11.7452 9.53917 11.1003 8.86043C10.9261 8.67728 10.7656 8.51789 10.6099 8.3738C10.0621 7.86607 9.24402 7.78426 8.6207 8.17535C8.47925 8.26402 8.35838 8.3775 8.24174 8.48728C8.19793 8.52845 8.15413 8.56961 8.10979 8.6092C7.99948 8.70684 7.94196 8.68784 7.86859 8.615C7.37141 8.12204 6.8811 7.63173 6.41136 7.15777C6.32533 7.07121 6.32638 7.01579 6.41558 6.92079C6.44936 6.88437 6.48472 6.84901 6.52114 6.81259C6.57497 6.75876 6.63039 6.70281 6.68212 6.64317C7.24052 6.00454 7.23208 5.0524 6.66153 4.42855C6.49053 4.24119 6.30686 4.05752 6.11527 3.88123C5.47453 3.29222 4.50603 3.29433 3.86212 3.88651C3.24355 4.45547 2.9311 5.19544 2.90576 6.15232L2.90682 6.17027C2.9179 6.25472 2.92688 6.33969 2.93585 6.42519C2.95591 6.61203 2.97701 6.80573 3.01554 6.99574C3.23721 8.08827 3.77979 9.09899 4.62901 9.9994C5.82657 11.2698 7.11913 11.9517 8.58006 12.0842C8.70251 12.0942 8.8239 12.1 8.94054 12.1ZM5.6962 5.89001C5.44655 6.13649 5.21696 6.38877 5.14677 6.76509C5.05915 7.23483 5.16366 7.62856 5.45764 7.93626C6.09468 8.60286 6.5982 9.10585 7.08957 9.56714C7.58939 10.0358 8.39058 10.0263 8.9131 9.54445C8.96218 9.49906 9.00968 9.45208 9.05507 9.40616L9.06193 9.3993C9.09202 9.36922 9.1221 9.33914 9.15324 9.30905C9.35275 9.11693 9.5987 9.11271 9.79504 9.29849C9.9386 9.43361 10.08 9.57506 10.2157 9.71862C10.3972 9.91073 10.3962 10.1583 10.2125 10.3488C9.82776 10.7483 9.31844 10.9135 8.65606 10.8534C7.68123 10.7642 6.77342 10.324 5.88198 9.50644C5.04965 8.74326 4.52503 7.9141 4.27855 6.97146C4.23052 6.78779 4.20149 6.5925 4.17299 6.40197C4.16032 6.31752 4.14766 6.23044 4.13288 6.14441C4.16666 5.57334 4.32869 5.1606 4.6422 4.84604C4.86915 4.61803 5.10983 4.61592 5.3373 4.83918C5.46292 4.96268 5.58325 5.08302 5.69461 5.19596C5.9242 5.4303 5.92473 5.66359 5.6962 5.89001Z" fill="black"/>
<path d="M11.9465 5.8648C11.9275 5.75555 11.8995 5.64101 11.8552 5.49482C11.6467 4.80182 11.2071 4.17639 10.617 3.73304C10.028 3.29023 9.31124 3.04639 8.59608 3.04639C8.29841 3.04691 8.07251 3.19206 7.97593 3.4454C7.90415 3.63382 7.9242 3.83438 8.03187 3.99483C8.14851 4.16953 8.34855 4.27403 8.57972 4.28036C9.61578 4.30939 10.4708 4.99341 10.7062 5.98249C10.7358 6.10653 10.7474 6.24217 10.759 6.37359L10.76 6.38309C10.7653 6.44273 10.7706 6.50237 10.7774 6.56201C10.8144 6.8808 11.0698 7.11355 11.3886 7.11514C11.7016 7.11514 11.9507 6.89716 11.9945 6.58523C11.9998 6.54618 12.0009 6.50765 12.0009 6.4707L12.0225 6.46859L12.0051 6.32662C11.9993 6.28123 11.9945 6.23636 11.9893 6.18992C11.9776 6.08436 11.9655 5.97405 11.9465 5.8648Z" fill="black"/>
<path d="M8.52528 6.17427C8.76912 6.20224 8.86201 6.2946 8.88207 6.52736C8.9111 6.86831 9.16866 7.11585 9.49536 7.11585C9.50803 7.11585 9.52122 7.11532 9.53442 7.11479C9.8722 7.09474 10.1166 6.82609 10.1145 6.47511C10.1108 5.66547 9.42147 4.96457 8.60973 4.94504C8.24239 4.93659 7.95685 5.1799 7.93521 5.5235C7.91304 5.85812 8.16163 6.13204 8.52528 6.17427Z" fill="black"/>
</svg>
