<svg width="15" height="17" viewBox="0 0 15 17" fill="none" xmlns="http://www.w3.org/2000/svg">
<path d="M14.9644 5.67892C14.9646 4.16776 14.3734 2.74328 13.3 1.66779C12.2266 0.592308 10.8049 0 9.2966 0H5.93835C5.93823 0 5.93823 0 5.93823 0C4.43015 0 3.00831 0.592308 1.93505 1.66767C0.861661 2.74328 0.270508 4.16776 0.270508 5.67892V8.32386C0.270508 9.49424 0.626793 10.6199 1.30089 11.5795C1.8956 12.4261 2.6954 13.0874 3.62789 13.5066V15.0258C3.62789 15.8114 4.06688 16.0902 4.44277 16.0902C4.71133 16.0902 4.97989 15.9573 5.24134 15.6955L6.93063 14.0029L9.29672 14.0028C10.8049 14.0028 12.2266 13.4105 13.3 12.3351C14.3734 11.2596 14.9646 9.83502 14.9646 8.32386L14.9644 5.67892ZM9.29672 13.06L6.73583 13.0601C6.61098 13.0601 6.4914 13.1097 6.40319 13.1981L4.57607 15.0288C4.57374 15.0312 4.57129 15.0336 4.56884 15.0359C4.56884 15.0326 4.56884 15.0292 4.56884 15.0258V13.192C4.56884 12.9964 4.4484 12.8212 4.26609 12.7515C2.43909 12.053 1.21158 10.2736 1.21158 8.32386V5.67892C1.21158 4.41954 1.70484 3.23173 2.60045 2.33425C3.49606 1.43701 4.68143 0.942783 5.93835 0.942783H9.2966C10.5535 0.942783 11.739 1.43701 12.6346 2.33437C13.5304 3.23185 14.0236 4.41966 14.0235 5.67892L14.0236 8.32386C14.0235 10.9354 11.9031 13.06 9.29672 13.06Z" fill="#86B7B0"/>
<path d="M8.86825 7.70979C8.6846 7.52565 8.38675 7.52565 8.20297 7.70979L7.82292 8.09047L6.35024 6.61503L6.7303 6.23436C6.81851 6.14598 6.86813 6.02604 6.86813 5.90095C6.86813 5.77598 6.81851 5.65605 6.7303 5.56766L4.94863 3.78251C4.86041 3.69413 4.74084 3.64441 4.61599 3.64441C4.49126 3.64441 4.37156 3.69413 4.28335 3.78251L3.03611 5.03219C2.36164 5.70797 2.36164 6.80776 3.03623 7.48392L6.95573 11.4113C7.28163 11.7377 7.71621 11.9175 8.17921 11.9175C8.64233 11.9175 9.0769 11.7377 9.4028 11.4113L10.65 10.1618C10.7383 10.0733 10.7879 9.95344 10.7879 9.82835C10.7879 9.70338 10.7383 9.58345 10.65 9.49506L8.86825 7.70979ZM8.7374 10.7445C8.58928 10.8929 8.39104 10.9747 8.17921 10.9747C7.96737 10.9747 7.76913 10.8929 7.62101 10.7445L3.70163 6.81722C3.39386 6.50885 3.39374 6.00701 3.70151 5.69877L4.61599 4.78238L5.73226 5.90095L5.35221 6.28162C5.26399 6.37001 5.21437 6.48994 5.21437 6.61491C5.21437 6.74 5.26399 6.85981 5.35221 6.94832L7.49016 9.09045C7.67394 9.27447 7.97178 9.27459 8.15556 9.09045L8.53561 8.70978L9.65188 9.82823L8.7374 10.7445Z" fill="#86B7B0"/>
<path d="M7.73121 2.08521C7.47135 2.08521 7.26074 2.29623 7.26074 2.5566C7.26074 2.81684 7.47135 3.02799 7.73121 3.02799C8.80791 3.02799 9.82028 3.44807 10.5816 4.21101C11.3431 4.97383 11.7623 5.98806 11.7623 7.06698C11.7623 7.32722 11.9729 7.53837 12.2328 7.53837C12.4925 7.53837 12.7033 7.32735 12.7033 7.06698C12.7033 5.73628 12.1861 4.48525 11.247 3.54431C10.3079 2.60337 9.05932 2.08521 7.73121 2.08521Z" fill="#86B7B0"/>
<path d="M9.74665 7.06689C9.74665 7.32714 9.95738 7.53828 10.2171 7.53828C10.477 7.53828 10.6876 7.32714 10.6876 7.06689C10.6876 5.43359 9.36133 4.10486 7.73121 4.10486C7.47135 4.10486 7.26074 4.31588 7.26074 4.57625C7.26074 4.83662 7.47135 5.04764 7.73121 5.04764C8.84258 5.04764 9.74665 5.95347 9.74665 7.06689Z" fill="#86B7B0"/>
</svg>
