<svg width="19" height="20" viewBox="0 0 19 20" fill="none" xmlns="http://www.w3.org/2000/svg">
<path d="M18.0592 7.47599C18.0593 5.75274 17.3654 4.12832 16.1053 2.90188C14.8452 1.67544 13.1763 1 11.4056 1H7.46336C7.46322 1 7.46322 1 7.46322 1C5.69286 1 4.02376 1.67544 2.76384 2.90174C1.50378 4.12832 0.809814 5.75274 0.809814 7.47599V10.4922C0.809814 11.8268 1.22806 13.1105 2.01939 14.2048C2.71753 15.1702 3.65642 15.9243 4.75109 16.4023V18.1348C4.75109 19.0306 5.26642 19.3485 5.70767 19.3485C6.02294 19.3485 6.33821 19.1971 6.64513 18.8985L8.62821 16.9683L11.4058 16.9682C13.1763 16.9682 14.8452 16.2927 16.1053 15.0664C17.3654 13.84 18.0593 12.2154 18.0593 10.4922L18.0592 7.47599ZM11.4058 15.8931L8.39953 15.8932C8.25297 15.8932 8.11259 15.9498 8.00904 16.0506L5.86416 18.1382C5.86142 18.141 5.85855 18.1437 5.85567 18.1463C5.85567 18.1425 5.85567 18.1386 5.85567 18.1348V16.0436C5.85567 15.8205 5.71429 15.6208 5.50028 15.5413C3.35554 14.7447 1.91454 12.7156 1.91454 10.4922V7.47599C1.91454 6.03985 2.49359 4.68533 3.54496 3.66188C4.59633 2.6387 5.98785 2.07511 7.46336 2.07511H11.4056C12.8812 2.07511 14.2728 2.6387 15.3242 3.66202C16.3757 4.68547 16.9547 6.03999 16.9546 7.47599L16.9547 10.4922C16.9546 13.4703 14.4654 15.8931 11.4058 15.8931Z" fill="#070A0D" stroke="#070A0D" stroke-width="0.5"/>
<path d="M10.9031 9.79202C10.6875 9.58202 10.3379 9.58202 10.1221 9.79202L9.676 10.2261L7.9472 8.54353L8.39335 8.1094C8.49691 8.00861 8.55516 7.87183 8.55516 7.72917C8.55516 7.58666 8.49691 7.44988 8.39335 7.34908L6.30183 5.31326C6.19827 5.21246 6.0579 5.15576 5.91134 5.15576C5.76492 5.15576 5.62441 5.21246 5.52085 5.31326L4.0567 6.73842C3.26493 7.5091 3.26493 8.76332 4.05684 9.53442L8.65799 14.0133C9.04057 14.3856 9.55072 14.5905 10.0942 14.5905C10.6379 14.5905 11.1481 14.3856 11.5306 14.0133L12.9948 12.5883C13.0983 12.4874 13.1566 12.3507 13.1566 12.2081C13.1566 12.0656 13.0983 11.9288 12.9948 11.828L10.9031 9.79202ZM10.7495 13.2529C10.5756 13.4221 10.3429 13.5154 10.0942 13.5154C9.84557 13.5154 9.61286 13.4221 9.43897 13.2529L4.83796 8.7741C4.47667 8.42243 4.47653 7.85013 4.83782 7.4986L5.91134 6.45353L7.22174 7.72917L6.77559 8.1633C6.67204 8.2641 6.61379 8.40087 6.61379 8.54339C6.61379 8.68605 6.67204 8.82268 6.77559 8.92362L9.28537 11.3666C9.5011 11.5764 9.85075 11.5765 10.0665 11.3666L10.5126 10.9324L11.823 12.2079L10.7495 13.2529Z" fill="#070A0D" stroke="#070A0D" stroke-width="0.5"/>
<path d="M9.5689 3.37769C9.26384 3.37769 9.0166 3.61833 9.0166 3.91525C9.0166 4.21203 9.26384 4.45282 9.5689 4.45282C10.8328 4.45282 12.0213 4.93187 12.915 5.80191C13.8089 6.67182 14.3011 7.82842 14.3011 9.05881C14.3011 9.35559 14.5483 9.59637 14.8534 9.59637C15.1583 9.59637 15.4057 9.35573 15.4057 9.05881C15.4057 7.5413 14.7986 6.11465 13.6961 5.04162C12.5937 3.96859 11.128 3.37769 9.5689 3.37769Z" fill="#070A0D" stroke="#070A0D" stroke-width="0.5"/>
<path d="M11.9348 9.05873C11.9348 9.35553 12.1822 9.59633 12.4871 9.59633C12.7922 9.59633 13.0394 9.35553 13.0394 9.05873C13.0394 7.19603 11.4825 5.68066 9.56889 5.68066C9.26384 5.68066 9.0166 5.92132 9.0166 6.21826C9.0166 6.5152 9.26384 6.75586 9.56889 6.75586C10.8735 6.75586 11.9348 7.78893 11.9348 9.05873Z" fill="#070A0D" stroke="#070A0D" stroke-width="0.5"/>
</svg>
