<svg width="25" height="25" viewBox="0 0 25 25" fill="none" xmlns="http://www.w3.org/2000/svg">
<path d="M20.2872 9.96311C20.2777 9.50129 20.235 9.097 20.1569 8.72649C19.6159 6.16459 17.3231 4.28776 14.7042 4.26348C13.4053 4.25134 12.0859 4.25715 10.8102 4.26295L10.5621 4.26401C10.0417 4.26612 9.5134 4.35426 8.99247 4.52632C6.59101 5.31748 5.03772 7.46454 5.03455 9.99636L5.03402 10.3167C5.03297 11.0308 5.03192 11.7692 5.03614 12.5034V12.5662C5.03719 12.8216 5.03825 13.0855 5.07467 13.3452C5.35334 15.3318 6.39626 16.8149 8.17439 17.7539C8.23931 17.7882 8.24565 17.7987 8.24512 17.871C8.23931 18.4373 8.23403 19.0232 8.24828 19.6017C8.25409 19.8397 8.27256 20.5638 9.03786 20.7855L9.05053 20.7892L9.38568 20.7913L9.40784 20.7839C9.71818 20.6794 9.98894 20.4804 10.2592 20.1574C10.4961 19.874 10.7379 19.589 10.9717 19.314C11.2081 19.0353 11.4757 18.7197 11.7328 18.4125C11.7708 18.3671 11.8003 18.354 11.8668 18.354L12.2833 18.3555C13.0296 18.3587 13.8017 18.3619 14.566 18.3518C14.8884 18.3476 15.269 18.3334 15.6469 18.2611C18.3745 17.7385 20.2851 15.4305 20.2925 12.649C20.293 12.4532 20.2941 12.2574 20.2951 12.0621V12.0511C20.2983 11.366 20.3015 10.6587 20.2872 9.96311ZM9.4754 18.4305C9.47434 18.1138 9.47329 17.7866 9.47804 17.4625C9.48279 17.1453 9.3387 16.9268 9.03681 16.7938C7.57904 16.1536 6.6744 15.0399 6.34717 13.484C6.29967 13.2586 6.27434 13.0032 6.2717 12.7245C6.26273 11.8368 6.2622 10.9189 6.26906 9.91878C6.28437 7.68621 7.901 5.84264 10.113 5.53493C10.2982 5.50907 10.4977 5.49693 10.7421 5.4964C11.984 5.49271 13.276 5.49218 14.5813 5.49535C16.7632 5.49957 18.573 6.99744 18.982 9.13817C19.0279 9.37779 19.0517 9.64802 19.0548 9.96469C19.0643 10.8757 19.0612 11.7829 19.0575 12.6601C19.0538 13.7125 18.7107 14.689 18.0663 15.4828C17.4213 16.2776 16.5362 16.8123 15.5075 17.0292C15.2426 17.0851 14.9412 17.1131 14.5591 17.1173C13.5806 17.1284 12.6063 17.1247 11.6124 17.1194H11.604C11.3359 17.1194 11.1221 17.2192 10.9516 17.4245C10.5558 17.9001 10.1536 18.373 9.7641 18.8311C9.66804 18.944 9.57198 19.057 9.47593 19.1704V18.8422C9.47645 18.7034 9.47593 18.5667 9.4754 18.4305Z" fill="#6360BC"/>
<path d="M13.9406 16.1C14.8093 16.1 15.5377 15.7965 16.1061 15.198C16.7479 14.5224 16.7453 13.5392 16.1003 12.8604C15.9262 12.6773 15.7657 12.5179 15.61 12.3738C15.0622 11.8661 14.2441 11.7843 13.6208 12.1754C13.4793 12.264 13.3584 12.3775 13.2418 12.4873C13.198 12.5284 13.1542 12.5696 13.1099 12.6092C12.9995 12.7068 12.942 12.6878 12.8687 12.615C12.3715 12.122 11.8812 11.6317 11.4114 11.1578C11.3254 11.0712 11.3264 11.0158 11.4156 10.9208C11.4494 10.8844 11.4848 10.849 11.5212 10.8126C11.575 10.7588 11.6305 10.7028 11.6822 10.6432C12.2406 10.0045 12.2321 9.0524 11.6616 8.42855C11.4906 8.24119 11.3069 8.05752 11.1153 7.88123C10.4746 7.29222 9.50609 7.29433 8.86218 7.88651C8.24361 8.45547 7.93116 9.19544 7.90582 10.1523L7.90688 10.1703C7.91796 10.2547 7.92694 10.3397 7.93591 10.4252C7.95597 10.612 7.97707 10.8057 8.0156 10.9957C8.23727 12.0883 8.77985 13.099 9.62907 13.9994C10.8266 15.2698 12.1192 15.9517 13.5801 16.0842C13.7026 16.0942 13.824 16.1 13.9406 16.1ZM10.6963 9.89001C10.4466 10.1365 10.217 10.3888 10.1468 10.7651C10.0592 11.2348 10.1637 11.6286 10.4577 11.9363C11.0947 12.6029 11.5983 13.1059 12.0896 13.5671C12.5895 14.0358 13.3906 14.0263 13.9132 13.5444C13.9622 13.4991 14.0097 13.4521 14.0551 13.4062L14.062 13.3993C14.0921 13.3692 14.1222 13.3391 14.1533 13.3091C14.3528 13.1169 14.5988 13.1127 14.7951 13.2985C14.9387 13.4336 15.0801 13.5751 15.2157 13.7186C15.3973 13.9107 15.3963 14.1583 15.2126 14.3488C14.8278 14.7483 14.3185 14.9135 13.6561 14.8534C12.6813 14.7642 11.7735 14.324 10.882 13.5064C10.0497 12.7433 9.52509 11.9141 9.27861 10.9715C9.23058 10.7878 9.20155 10.5925 9.17305 10.402C9.16039 10.3175 9.14772 10.2304 9.13294 10.1444C9.16672 9.57334 9.32875 9.1606 9.64226 8.84604C9.86921 8.61803 10.1099 8.61592 10.3374 8.83918C10.463 8.96268 10.5833 9.08302 10.6947 9.19596C10.9243 9.4303 10.9248 9.66359 10.6963 9.89001Z" fill="#6360BC"/>
<path d="M16.9466 9.86504C16.9276 9.75579 16.8996 9.64126 16.8553 9.49506C16.6468 8.80207 16.2071 8.17663 15.6171 7.73329C15.028 7.29047 14.3113 7.04663 13.5961 7.04663C13.2985 7.04716 13.0726 7.1923 12.976 7.44564C12.9042 7.63406 12.9243 7.83462 13.0319 7.99507C13.1486 8.16977 13.3486 8.27428 13.5798 8.28061C14.6158 8.30964 15.4709 8.99366 15.7063 9.98274C15.7358 10.1068 15.7474 10.2424 15.759 10.3738L15.7601 10.3833C15.7654 10.443 15.7706 10.5026 15.7775 10.5623C15.8145 10.881 16.0699 11.1138 16.3887 11.1154C16.7017 11.1154 16.9508 10.8974 16.9946 10.5855C16.9999 10.5464 17.0009 10.5079 17.0009 10.4709L17.0226 10.4688L17.0052 10.3269C16.9993 10.2815 16.9946 10.2366 16.9893 10.1902C16.9777 10.0846 16.9656 9.9743 16.9466 9.86504Z" fill="#6360BC"/>
<path d="M13.5253 10.1743C13.7692 10.2022 13.8621 10.2946 13.8821 10.5274C13.9112 10.8683 14.1687 11.1158 14.4954 11.1158C14.5081 11.1158 14.5213 11.1153 14.5345 11.1148C14.8723 11.0947 15.1166 10.8261 15.1145 10.4751C15.1108 9.66547 14.4215 8.96457 13.6098 8.94504C13.2424 8.93659 12.9569 9.1799 12.9353 9.5235C12.9131 9.85812 13.1617 10.132 13.5253 10.1743Z" fill="#6360BC"/>
</svg>
