<svg width="35" height="22" viewBox="0 0 35 22" fill="none" xmlns="http://www.w3.org/2000/svg">
<path d="M34.2735 18.961C32.8662 16.4282 29.2409 13.3849 27.7443 12.0606C27.3348 11.698 27.2909 11.0707 27.6637 10.6697C30.5198 7.60052 32.8043 4.07397 33.5906 1.94301C33.9375 1.00166 33.2194 0.00704826 32.2075 0.00704826H29.2684C28.2996 0.00704826 27.7326 0.354769 27.4624 0.90846C25.0887 5.77263 23.0525 7.87776 21.6271 9.10809C20.8291 9.79727 19.5846 9.22635 19.5846 8.1777C19.5846 6.15716 19.5846 3.54534 19.5846 1.69318C19.5846 0.794902 18.85 0.0681344 17.9439 0.0681344L12.5746 0.00704826C11.8988 0.00704826 11.5127 0.77219 11.9183 1.30865L12.8049 2.58128C13.1385 3.02219 13.3186 3.55866 13.3186 4.10921L13.3139 9.84034C13.3139 10.8373 12.1055 11.3244 11.3882 10.6258C8.96115 8.26229 6.85525 3.4357 6.09716 1.12774C5.87787 0.459712 5.25213 0.00861457 4.54259 0.00704826L1.64727 0C0.561034 0 -0.233086 1.02985 0.0621638 2.06675C2.70766 11.3526 8.13571 20.1866 17.8092 21.1444C18.7623 21.2384 19.5846 20.4709 19.5846 19.5209V16.5089C19.5846 15.6451 20.2621 14.9027 21.1329 14.8807C21.1635 14.8799 21.194 14.8799 21.2246 14.8799C23.7831 14.8799 26.6487 18.6038 27.6511 20.3456C27.9393 20.8468 28.4782 21.1522 29.0608 21.1522H32.9555C34.0918 21.1522 34.8209 19.947 34.2735 18.961Z" fill="white"/>
</svg>
