<svg width="28" height="28" viewBox="0 0 28 28" fill="none" xmlns="http://www.w3.org/2000/svg">
<path d="M26.6951 20.5345C25.6469 18.648 22.9466 16.3812 21.8319 15.3947C21.5268 15.1247 21.4941 14.6574 21.7718 14.3587C23.8992 12.0727 25.6008 9.44591 26.1865 7.85866C26.4449 7.1575 25.91 6.41666 25.1563 6.41666H22.9671C22.2455 6.41666 21.8231 6.67566 21.6219 7.08808C19.8538 10.7112 18.3371 12.2792 17.2755 13.1956C16.6811 13.7089 15.7541 13.2837 15.7541 12.5026C15.7541 10.9976 15.7541 9.05216 15.7541 7.67258C15.7541 7.0035 15.207 6.46217 14.5321 6.46217L10.5327 6.41666C10.0293 6.41666 9.74172 6.98658 10.0439 7.38616L10.7042 8.33408C10.9527 8.6625 11.0869 9.06208 11.0869 9.47217L11.0834 13.741C11.0834 14.4836 10.1833 14.8464 9.64897 14.3261C7.84122 12.5656 6.27264 8.9705 5.70797 7.25141C5.54464 6.75383 5.07856 6.41783 4.55006 6.41666L2.39347 6.41142C1.58439 6.41142 0.99289 7.1785 1.21281 7.95083C3.18331 14.8674 7.22639 21.4474 14.4317 22.1608C15.1416 22.2308 15.7541 21.6592 15.7541 20.9516V18.7081C15.7541 18.0647 16.2587 17.5117 16.9074 17.4953C16.9301 17.4947 16.9529 17.4947 16.9756 17.4947C18.8814 17.4947 21.0158 20.2685 21.7625 21.5658C21.9771 21.9392 22.3785 22.1667 22.8125 22.1667H25.7134C26.5598 22.1667 27.1029 21.2689 26.6951 20.5345Z" fill="black"/>
</svg>
