<svg width="28" height="28" viewBox="0 0 28 28" fill="none" xmlns="http://www.w3.org/2000/svg">
<path d="M13.6652 5.04C9.96837 5.04 6.49681 5.32 4.64837 5.71156C3.41681 5.99156 2.35149 6.83156 2.12837 8.12C1.90524 9.46313 1.67993 11.48 1.67993 14C1.67993 16.52 1.90306 18.48 2.18306 19.88C2.40837 21.1116 3.47149 22.0084 4.70306 22.2884C6.66524 22.68 10.0231 22.96 13.7199 22.96C17.4168 22.96 20.7746 22.68 22.7346 22.2884C23.9684 22.0084 25.0315 21.1684 25.2546 19.88C25.4799 18.48 25.7599 16.4653 25.8146 13.9453C25.8146 11.4253 25.5346 9.40844 25.2546 8.00844C25.0315 6.77688 23.9684 5.88 22.7346 5.6C20.7746 5.32 17.3599 5.04 13.6652 5.04ZM13.6652 6.16C17.6968 6.16 20.9431 6.49469 22.5115 6.77469C23.3515 7 24.0231 7.56 24.1346 8.28844C24.4715 10.08 24.6946 11.9853 24.6946 13.9453C24.6399 16.3516 24.3599 18.3116 24.1346 19.7116C23.9684 20.7747 22.8484 21.1116 22.5115 21.2253C20.4946 21.6169 17.1346 21.8947 13.7746 21.8947C10.4146 21.8947 6.99993 21.6716 5.03993 21.2253C4.19993 21 3.52837 20.44 3.41681 19.7116C2.96837 18.1431 2.79993 16.0716 2.79993 14C2.79993 11.4231 3.02524 9.52 3.24837 8.34531C3.41681 7.28 4.59149 6.94313 4.87149 6.83156C6.71993 6.44 10.1368 6.16 13.6652 6.16ZM10.6399 9.52V18.48L18.4799 14L10.6399 9.52ZM11.7599 11.4253L16.2399 14L11.7599 16.5747V11.4253Z" fill="#171717" stroke="#171717" stroke-width="0.5" stroke-linejoin="round"/>
</svg>
