<svg width="25" height="17" viewBox="0 0 25 17" fill="none" xmlns="http://www.w3.org/2000/svg">
<path d="M23.7087 2.61223C23.5702 2.109 23.3004 1.65023 22.9261 1.28151C22.5519 0.912804 22.0861 0.646997 21.5752 0.510513C19.681 0 12.1035 0 12.1035 0C12.1035 0 4.52631 0 2.63211 0.491122C1.61516 0.765583 0.776912 1.59083 0.498632 2.61223C0 4.47752 0 8.34683 0 8.34683C0 8.34683 0 12.2352 0.498632 14.0814C0.63694 14.5849 0.906653 15.0439 1.28095 15.4128C1.65524 15.7817 2.12107 16.0477 2.63211 16.1843C4.54638 16.6948 12.1039 16.6948 12.1039 16.6948C12.1039 16.6948 19.681 16.6948 21.5752 16.2037C22.0861 16.0673 22.5519 15.8015 22.9263 15.4329C23.3006 15.0642 23.5705 14.6055 23.7091 14.1023C24.2073 12.2378 24.2073 8.36734 24.2073 8.36734C24.2073 8.36734 24.2274 4.47864 23.7087 2.61335V2.61223ZM9.69247 11.9212V4.77324L15.9933 8.34758L9.69247 11.9212Z" fill="#3F3F3F"/>
</svg>
