<svg width="110" height="110" viewBox="0 0 110 110" fill="none" xmlns="http://www.w3.org/2000/svg">
<rect width="110" height="110" rx="24" fill="#69BC77"/>
<path d="M65.5696 34.6611H65.7045C70.4342 34.6611 74.2683 38.4952 74.2683 43.2248V69.9865C74.2683 74.7161 70.4342 78.5503 65.7045 78.5503H44.2952C39.5656 78.5503 35.7314 74.7161 35.7314 69.9865V43.2248C35.7314 38.4952 39.5656 34.6611 44.2952 34.6611H44.4301C44.9054 32.8143 46.5819 31.4497 48.5771 31.4497H61.4227C63.4178 31.4497 65.0943 32.8143 65.5696 34.6611ZM44.4301 38.943H44.2952C41.9304 38.943 40.0133 40.86 40.0133 43.2248V69.9865C40.0133 72.3513 41.9304 74.2684 44.2952 74.2684H65.7045C68.0693 74.2684 69.9864 72.3513 69.9864 69.9865V43.2248C69.9864 40.86 68.0693 38.943 65.7045 38.943H65.5696C65.0943 40.7898 63.4178 42.1544 61.4227 42.1544H48.5771C46.5819 42.1544 44.9054 40.7898 44.4301 38.943ZM46.4361 51.7886C45.2537 51.7886 44.2952 50.8301 44.2952 49.6476C44.2952 48.4652 45.2537 47.5067 46.4361 47.5067H63.5636C64.746 47.5067 65.7045 48.4652 65.7045 49.6476C65.7045 50.8301 64.746 51.7886 63.5636 51.7886H46.4361ZM46.4361 60.3523C45.2537 60.3523 44.2952 59.3938 44.2952 58.2114C44.2952 57.029 45.2537 56.0704 46.4361 56.0704H63.5636C64.746 56.0704 65.7045 57.029 65.7045 58.2114C65.7045 59.3938 64.746 60.3523 63.5636 60.3523H46.4361ZM46.4361 68.9161C45.2537 68.9161 44.2952 67.9575 44.2952 66.7751C44.2952 65.5927 45.2537 64.6342 46.4361 64.6342H59.2817C60.4641 64.6342 61.4227 65.5927 61.4227 66.7751C61.4227 67.9575 60.4641 68.9161 59.2817 68.9161H46.4361ZM48.5771 35.7316V37.8725H61.4227V35.7316H48.5771Z" fill="white"/>
</svg>
