<svg width="83" height="94" viewBox="0 0 83 94" fill="none" xmlns="http://www.w3.org/2000/svg">
<g id="Group 107">
<g id="Group">
<g id="Group_2">
<g id="Group_3">
<path id="Vector" d="M50.9987 29.3247H31.0012V32.3309H50.9987V29.3247Z" stroke="black" stroke-width="2" stroke-miterlimit="10" stroke-linecap="round" stroke-linejoin="round"/>
<path id="Vector_2" d="M49.0885 24.3779H32.9116C31.3331 24.3779 30.0663 25.6548 30.0663 27.2232V29.3245H51.9439V27.2232C51.9338 25.6548 50.6569 24.3779 49.0885 24.3779Z" stroke="black" stroke-width="2" stroke-miterlimit="10" stroke-linecap="round" stroke-linejoin="round"/>
<path id="Vector_3" d="M29.5636 32.3306V42.2841C29.5636 43.4403 30.5087 44.3854 31.6649 44.3854H34.3594V40.4944H47.6508V44.3854H50.3453C51.5015 44.3854 52.4466 43.4403 52.4466 42.2841V32.3306H29.5636Z" stroke="black" stroke-width="2" stroke-miterlimit="10" stroke-linecap="round" stroke-linejoin="round"/>
<path id="Vector_4" d="M38.0592 55.2037V40.4946H43.9308V55.2037" stroke="black" stroke-width="2" stroke-miterlimit="10" stroke-linecap="round" stroke-linejoin="round"/>
<path id="Vector_5" d="M40.995 38.3632C42.0278 38.3632 42.8651 37.5259 42.8651 36.4931C42.8651 35.4603 42.0278 34.623 40.995 34.623C39.9622 34.623 39.125 35.4603 39.125 36.4931C39.125 37.5259 39.9622 38.3632 40.995 38.3632Z" stroke="black" stroke-width="2" stroke-miterlimit="10" stroke-linecap="round" stroke-linejoin="round"/>
<path id="Vector_6" d="M40.995 63.1767C43.4715 63.1767 45.4791 61.1691 45.4791 58.6926C45.4791 56.2161 43.4715 54.2085 40.995 54.2085C38.5185 54.2085 36.5109 56.2161 36.5109 58.6926C36.5109 61.1691 38.5185 63.1767 40.995 63.1767Z" stroke="black" stroke-width="2" stroke-miterlimit="10" stroke-linecap="round" stroke-linejoin="round"/>
<path id="Vector_7" d="M40.9951 40.4946V51.8155" stroke="black" stroke-width="2" stroke-miterlimit="10" stroke-linecap="round" stroke-linejoin="round"/>
<g id="Group_4">
<g id="Group_5">
<path id="Vector_8" d="M30.0563 50.5786V56.3999" stroke="black" stroke-width="2" stroke-miterlimit="10" stroke-linecap="round" stroke-linejoin="round"/>
</g>
<g id="Group_6">
<path id="Vector_9" d="M51.934 50.5786V56.3999" stroke="black" stroke-width="2" stroke-miterlimit="10" stroke-linecap="round" stroke-linejoin="round"/>
</g>
</g>
<path id="Vector_10" d="M40.995 56.6514C42.1211 56.6514 43.046 57.5663 43.046 58.7024C43.046 59.8285 42.1311 60.7534 40.995 60.7534C39.8689 60.7534 38.944 59.8385 38.944 58.7024" stroke="black" stroke-width="2" stroke-miterlimit="10" stroke-linecap="round" stroke-linejoin="round"/>
</g>
<path id="Vector_11" d="M78.1245 15.9829H3.8453C2.26681 15.9829 1 14.706 1 13.1376V10.8453C1 9.2668 2.27686 8 3.8453 8H78.1245C79.703 8 80.9698 9.27685 80.9698 10.8453V13.1376C80.9698 14.706 79.693 15.9829 78.1245 15.9829Z" stroke="black" stroke-width="2" stroke-miterlimit="10" stroke-linecap="round" stroke-linejoin="round"/>
<path id="Vector_12" d="M81 11.9814V69.6715C81 71.25 79.7231 72.5168 78.1547 72.5168H3.8453C2.26681 72.5168 1 71.24 1 69.6715V11.9814" stroke="black" stroke-width="2" stroke-miterlimit="10" stroke-linecap="round" stroke-linejoin="round"/>
<path id="Vector_13" d="M40.995 78.2375V72.5269" stroke="black" stroke-width="2" stroke-miterlimit="10" stroke-linecap="round" stroke-linejoin="round"/>
<path id="Vector_14" d="M40.995 85.617C43.0939 85.617 44.7954 83.9155 44.7954 81.8165C44.7954 79.7176 43.0939 78.0161 40.995 78.0161C38.8961 78.0161 37.1946 79.7176 37.1946 81.8165C37.1946 83.9155 38.8961 85.617 40.995 85.617Z" stroke="black" stroke-width="2" stroke-miterlimit="10" stroke-linecap="round" stroke-linejoin="round"/>
</g>
<g id="Group_7">
<g id="Group_8">
<path id="Vector_15" d="M9.7973 24.3379H19.9519C21.0478 24.3379 21.9325 25.2226 21.9325 26.3185C21.9325 27.4144 21.0478 28.2992 19.9519 28.2992H9.7973C8.70141 28.2992 7.81665 27.4144 7.81665 26.3185C7.81665 25.2226 8.70141 24.3379 9.7973 24.3379Z" stroke="black" stroke-width="2" stroke-miterlimit="10" stroke-linecap="round" stroke-linejoin="round"/>
<path id="Vector_16" d="M9.7973 33.708H19.9519C21.0478 33.708 21.9325 34.5928 21.9325 35.6887C21.9325 36.7845 21.0478 37.6693 19.9519 37.6693H9.7973C8.70141 37.6693 7.81665 36.7845 7.81665 35.6887C7.81665 34.5928 8.70141 33.708 9.7973 33.708Z" stroke="black" stroke-width="2" stroke-miterlimit="10" stroke-linecap="round" stroke-linejoin="round"/>
<path id="Vector_17" d="M9.7973 43.0786H19.9519C21.0478 43.0786 21.9325 43.9634 21.9325 45.0593C21.9325 46.1552 21.0478 47.0399 19.9519 47.0399H9.7973C8.70141 47.0399 7.81665 46.1552 7.81665 45.0593C7.81665 43.9634 8.70141 43.0786 9.7973 43.0786Z" stroke="black" stroke-width="2" stroke-miterlimit="10" stroke-linecap="round" stroke-linejoin="round"/>
<path id="Vector_18" d="M9.7973 52.4487H19.9519C21.0478 52.4487 21.9325 53.3335 21.9325 54.4294C21.9325 55.5253 21.0478 56.41 19.9519 56.41H9.7973C8.70141 56.41 7.81665 55.5253 7.81665 54.4294C7.81665 53.3335 8.70141 52.4487 9.7973 52.4487Z" stroke="black" stroke-width="2" stroke-miterlimit="10" stroke-linecap="round" stroke-linejoin="round"/>
</g>
<g id="Group_9">
<path id="Vector_19" d="M62.048 24.3379H72.2026C73.2985 24.3379 74.1833 25.2226 74.1833 26.3185C74.1833 27.4144 73.2985 28.2992 72.2026 28.2992H62.048C60.9521 28.2992 60.0674 27.4144 60.0674 26.3185C60.0774 25.2226 60.9622 24.3379 62.048 24.3379Z" stroke="black" stroke-width="2" stroke-miterlimit="10" stroke-linecap="round" stroke-linejoin="round"/>
<path id="Vector_20" d="M62.048 33.708H72.2026C73.2985 33.708 74.1833 34.5928 74.1833 35.6887C74.1833 36.7845 73.2985 37.6693 72.2026 37.6693H62.048C60.9521 37.6693 60.0674 36.7845 60.0674 35.6887C60.0774 34.5928 60.9622 33.708 62.048 33.708Z" stroke="black" stroke-width="2" stroke-miterlimit="10" stroke-linecap="round" stroke-linejoin="round"/>
<path id="Vector_21" d="M62.048 43.0786H72.2026C73.2985 43.0786 74.1833 43.9634 74.1833 45.0593C74.1833 46.1552 73.2985 47.0399 72.2026 47.0399H62.048C60.9521 47.0399 60.0674 46.1552 60.0674 45.0593C60.0774 43.9634 60.9622 43.0786 62.048 43.0786Z" stroke="black" stroke-width="2" stroke-miterlimit="10" stroke-linecap="round" stroke-linejoin="round"/>
<path id="Vector_22" d="M62.048 52.4487H72.2026C73.2985 52.4487 74.1833 53.3335 74.1833 54.4294C74.1833 55.5253 73.2985 56.41 72.2026 56.41H62.048C60.9521 56.41 60.0674 55.5253 60.0674 54.4294C60.0774 53.3335 60.9622 52.4487 62.048 52.4487Z" stroke="black" stroke-width="2" stroke-miterlimit="10" stroke-linecap="round" stroke-linejoin="round"/>
</g>
</g>
</g>
</g>
</svg>
