<svg width="83" height="94" viewBox="0 0 83 94" fill="none" xmlns="http://www.w3.org/2000/svg">
<g id="Group 128">
<g id="Group">
<g id="Group_2">
<g id="Group_3">
<g id="Group_4">
<path id="Vector" d="M78.1553 72.5187H3.85518C2.27689 72.5187 1.01025 71.242 1.01025 69.6738V10.8449C1.01025 9.26664 2.28694 8 3.85518 8H78.1553C79.7336 8 81.0002 9.27669 81.0002 10.8449V69.6738C81.0002 71.242 79.7235 72.5187 78.1553 72.5187Z" stroke="white" stroke-width="2" stroke-miterlimit="10" stroke-linecap="round" stroke-linejoin="round"/>
</g>
</g>
<g id="Group_5">
<path id="Vector_2" d="M44.7497 72.5186H37.2402V77.8867H44.7497V72.5186Z" stroke="white" stroke-width="2" stroke-miterlimit="10" stroke-linecap="round" stroke-linejoin="round"/>
<path id="Vector_3" d="M26.0815 85.6074H55.9182" stroke="white" stroke-width="2" stroke-miterlimit="10" stroke-linecap="round" stroke-linejoin="round"/>
<path id="Vector_4" d="M48.9915 85.175C47.4535 83.456 46.4884 81.2041 46.4884 78.7111C46.4884 78.4296 46.5487 78.1581 46.5688 77.8867H35.4203C35.4404 78.1581 35.5007 78.4296 35.5007 78.7111C35.5007 81.2041 34.5356 83.456 32.9976 85.175" stroke="white" stroke-width="2" stroke-miterlimit="10" stroke-linecap="round" stroke-linejoin="round"/>
</g>
<path id="Vector_5" d="M1 15.9819H81" stroke="white" stroke-width="2" stroke-miterlimit="10" stroke-linecap="round" stroke-linejoin="round"/>
</g>
<g id="Group_6">
<g id="Group_7">
<path id="Vector_6" d="M40.9998 67.0197C50.305 67.0197 57.8483 59.4764 57.8483 50.1712C57.8483 40.8661 50.305 33.3228 40.9998 33.3228C31.6947 33.3228 24.1514 40.8661 24.1514 50.1712C24.1514 59.4764 31.6947 67.0197 40.9998 67.0197Z" stroke="white" stroke-width="2" stroke-miterlimit="10" stroke-linecap="round" stroke-linejoin="round"/>
<path id="Vector_7" d="M40.9999 63.5013C48.3619 63.5013 54.3299 57.5333 54.3299 50.1713C54.3299 42.8094 48.3619 36.8413 40.9999 36.8413C33.638 36.8413 27.6699 42.8094 27.6699 50.1713C27.6699 57.5333 33.638 63.5013 40.9999 63.5013Z" stroke="white" stroke-width="2" stroke-miterlimit="10" stroke-linecap="round" stroke-linejoin="round"/>
<path id="Vector_8" d="M27.8105 50.7343C31.3692 47.7185 35.9734 45.8989 41.0098 45.8989C46.0362 45.8989 50.6404 47.7185 54.1991 50.7343" stroke="white" stroke-width="2" stroke-miterlimit="10" stroke-linecap="round" stroke-linejoin="round"/>
<g id="Group_8">
<path id="Vector_9" d="M53.6966 53.8604C48.8813 54.2223 45.0613 58.0926 44.7798 62.9179" stroke="white" stroke-width="2" stroke-miterlimit="10" stroke-linecap="round" stroke-linejoin="round"/>
<path id="Vector_10" d="M28.3032 53.8604C33.1185 54.2223 36.9386 58.0926 37.22 62.9179" stroke="white" stroke-width="2" stroke-miterlimit="10" stroke-linecap="round" stroke-linejoin="round"/>
</g>
</g>
<path id="Vector_11" d="M38.2251 52.634C38.2251 54.172 39.4717 55.4085 40.9997 55.4085C42.5378 55.4085 43.7742 54.162 43.7742 52.634C43.7742 51.0959 42.5277 49.8594 40.9997 49.8594" stroke="white" stroke-width="2" stroke-miterlimit="10" stroke-linecap="round" stroke-linejoin="round"/>
</g>
<g id="Group_9">
<path id="Vector_12" d="M41.0099 23.1294H25.3276V29.6034H41.0099V23.1294Z" stroke="white" stroke-width="2" stroke-miterlimit="10" stroke-linecap="round" stroke-linejoin="round"/>
<path id="Vector_13" d="M56.6721 23.1294H40.9897V29.6034H56.6721V23.1294Z" stroke="white" stroke-width="2" stroke-miterlimit="10" stroke-linecap="round" stroke-linejoin="round"/>
</g>
<g id="Group_10">
<path id="Vector_14" d="M21.8899 23.1396H4.94092V40.2595H21.8899V23.1396Z" stroke="white" stroke-width="2" stroke-miterlimit="10" stroke-linecap="round" stroke-linejoin="round"/>
<path id="Vector_15" d="M77.0193 23.1396H60.0703V40.2595H77.0193V23.1396Z" stroke="white" stroke-width="2" stroke-miterlimit="10" stroke-linecap="round" stroke-linejoin="round"/>
</g>
</g>
</g>
</svg>
