<svg width="83" height="94" viewBox="0 0 83 94" fill="none" xmlns="http://www.w3.org/2000/svg">
<g id="Group 107">
<g id="Group">
<g id="Group_2">
<g id="Group_3">
<g id="Group_4">
<path id="Vector" d="M78.155 72.5187H3.85493C2.27665 72.5187 1.01001 71.242 1.01001 69.6738V10.8449C1.01001 9.26664 2.2867 8 3.85493 8H78.155C79.7333 8 80.9999 9.27669 80.9999 10.8449V69.6738C80.9999 71.242 79.7233 72.5187 78.155 72.5187Z" stroke="black" stroke-width="2" stroke-miterlimit="10" stroke-linecap="round" stroke-linejoin="round"/>
</g>
</g>
<g id="Group_5">
<path id="Vector_2" d="M44.7497 72.5186H37.2402V77.8867H44.7497V72.5186Z" stroke="black" stroke-width="2" stroke-miterlimit="10" stroke-linecap="round" stroke-linejoin="round"/>
<path id="Vector_3" d="M26.0817 85.6074H55.9183" stroke="black" stroke-width="2" stroke-miterlimit="10" stroke-linecap="round" stroke-linejoin="round"/>
<path id="Vector_4" d="M48.9919 85.175C47.4538 83.456 46.4888 81.2041 46.4888 78.7111C46.4888 78.4296 46.5491 78.1581 46.5692 77.8867H35.4206C35.4408 78.1581 35.5011 78.4296 35.5011 78.7111C35.5011 81.2041 34.536 83.456 32.9979 85.175" stroke="black" stroke-width="2" stroke-miterlimit="10" stroke-linecap="round" stroke-linejoin="round"/>
</g>
<path id="Vector_5" d="M1 15.9819H81" stroke="black" stroke-width="2" stroke-miterlimit="10" stroke-linecap="round" stroke-linejoin="round"/>
</g>
<g id="Group_6">
<g id="Group_7">
<path id="Vector_6" d="M41.0001 67.0197C50.3052 67.0197 57.8485 59.4764 57.8485 50.1712C57.8485 40.8661 50.3052 33.3228 41.0001 33.3228C31.6949 33.3228 24.1516 40.8661 24.1516 50.1712C24.1516 59.4764 31.6949 67.0197 41.0001 67.0197Z" stroke="black" stroke-width="2" stroke-miterlimit="10" stroke-linecap="round" stroke-linejoin="round"/>
<path id="Vector_7" d="M41 63.5013C48.362 63.5013 54.33 57.5333 54.33 50.1713C54.33 42.8094 48.362 36.8413 41 36.8413C33.6381 36.8413 27.67 42.8094 27.67 50.1713C27.67 57.5333 33.6381 63.5013 41 63.5013Z" stroke="black" stroke-width="2" stroke-miterlimit="10" stroke-linecap="round" stroke-linejoin="round"/>
<path id="Vector_8" d="M27.8108 50.7343C31.3695 47.7185 35.9736 45.8989 41.0101 45.8989C46.0365 45.8989 50.6407 47.7185 54.1993 50.7343" stroke="black" stroke-width="2" stroke-miterlimit="10" stroke-linecap="round" stroke-linejoin="round"/>
<g id="Group_8">
<path id="Vector_9" d="M53.6969 53.8604C48.8816 54.2223 45.0615 58.0926 44.78 62.9179" stroke="black" stroke-width="2" stroke-miterlimit="10" stroke-linecap="round" stroke-linejoin="round"/>
<path id="Vector_10" d="M28.3035 53.8604C33.1187 54.2223 36.9388 58.0926 37.2203 62.9179" stroke="black" stroke-width="2" stroke-miterlimit="10" stroke-linecap="round" stroke-linejoin="round"/>
</g>
</g>
<path id="Vector_11" d="M38.2256 52.634C38.2256 54.172 39.4721 55.4085 41.0002 55.4085C42.5382 55.4085 43.7747 54.162 43.7747 52.634C43.7747 51.0959 42.5282 49.8594 41.0002 49.8594" stroke="black" stroke-width="2" stroke-miterlimit="10" stroke-linecap="round" stroke-linejoin="round"/>
</g>
<g id="Group_9">
<path id="Vector_12" d="M41.0101 23.1294H25.3278V29.6034H41.0101V23.1294Z" stroke="black" stroke-width="2" stroke-miterlimit="10" stroke-linecap="round" stroke-linejoin="round"/>
<path id="Vector_13" d="M56.6723 23.1294H40.99V29.6034H56.6723V23.1294Z" stroke="black" stroke-width="2" stroke-miterlimit="10" stroke-linecap="round" stroke-linejoin="round"/>
</g>
<g id="Group_10">
<path id="Vector_14" d="M21.8896 23.1396H4.94067V40.2595H21.8896V23.1396Z" stroke="black" stroke-width="2" stroke-miterlimit="10" stroke-linecap="round" stroke-linejoin="round"/>
<path id="Vector_15" d="M77.019 23.1396H60.0701V40.2595H77.019V23.1396Z" stroke="black" stroke-width="2" stroke-miterlimit="10" stroke-linecap="round" stroke-linejoin="round"/>
</g>
</g>
</g>
</svg>
