<svg width="83" height="94" viewBox="0 0 83 94" fill="none" xmlns="http://www.w3.org/2000/svg">
<g id="Group 107">
<g id="Group">
<g id="Group_2">
<g id="Group_3">
<g id="Group_4">
<path id="Vector" d="M24.5666 72.5268H3.84528C2.2668 72.5268 1 71.25 1 69.6815V10.8453C1 9.2668 2.27685 8 3.84528 8H78.1547C79.7332 8 81 9.27685 81 10.8453V69.6815C81 71.26 79.7232 72.5268 78.1547 72.5268H57.4635" stroke="black" stroke-width="2" stroke-miterlimit="10" stroke-linecap="round" stroke-linejoin="round"/>
</g>
</g>
</g>
<g id="Group_5">
<path id="Vector_2" d="M24.456 72.5469H20.354C13.2357 72.5469 8.50026 78.7402 5.83594 85.6171H76.1439C73.4795 78.7402 68.7441 72.5469 61.6258 72.5469H57.5237" stroke="black" stroke-width="2" stroke-miterlimit="10" stroke-linecap="round" stroke-linejoin="round"/>
</g>
<path id="Vector_3" d="M7.324 23.1414H74.666M32.2379 23.3827L15.4276 56.8727M50.5464 23.3827L67.3567 56.8727M28.8195 56.8828H8.40985C7.80661 56.8828 7.31396 56.4404 7.31396 55.9075V16.9582C7.31396 16.4152 7.80661 15.9829 8.40985 15.9829H73.5701C74.1733 15.9829 74.666 16.4253 74.666 16.9582V55.9075C74.666 56.4505 74.1733 56.8828 73.5701 56.8828H52.9392M37.4962 51.9161L38.1497 39.8211H44.1922L44.8457 51.9161M39.0144 23.3827H43.3275L43.9308 34.8544H38.4111L39.0144 23.3827Z" stroke="black" stroke-width="2" stroke-miterlimit="10" stroke-linecap="round" stroke-linejoin="round"/>
<g id="Group_6">
<g id="Group_7">
<path id="Vector_4" d="M40.9949 85.6172C50.3012 85.6172 57.8454 78.0729 57.8454 68.7666C57.8454 59.4603 50.3012 51.916 40.9949 51.916C31.6886 51.916 24.1443 59.4603 24.1443 68.7666C24.1443 78.0729 31.6886 85.6172 40.9949 85.6172Z" stroke="black" stroke-width="2" stroke-miterlimit="10" stroke-linecap="round" stroke-linejoin="round"/>
<path id="Vector_5" d="M40.9948 82.0984C48.3576 82.0984 54.3264 76.1296 54.3264 68.7667C54.3264 61.4038 48.3576 55.4351 40.9948 55.4351C33.6319 55.4351 27.6631 61.4038 27.6631 68.7667C27.6631 76.1296 33.6319 82.0984 40.9948 82.0984Z" stroke="black" stroke-width="2" stroke-miterlimit="10" stroke-linecap="round" stroke-linejoin="round"/>
<path id="Vector_6" d="M27.7939 69.3297C31.3531 66.3135 35.9578 64.4937 40.9949 64.4937C46.0219 64.4937 50.6267 66.3135 54.1858 69.3297" stroke="black" stroke-width="2" stroke-miterlimit="10" stroke-linecap="round" stroke-linejoin="round"/>
<g id="Group_8">
<path id="Vector_7" d="M53.6931 72.4565C48.8772 72.8185 45.0567 76.6893 44.7751 81.5152" stroke="black" stroke-width="2" stroke-miterlimit="10" stroke-linecap="round" stroke-linejoin="round"/>
<path id="Vector_8" d="M28.2866 72.4565C33.1025 72.8185 36.923 76.6893 37.2046 81.5152" stroke="black" stroke-width="2" stroke-miterlimit="10" stroke-linecap="round" stroke-linejoin="round"/>
</g>
</g>
<path id="Vector_9" d="M38.22 71.2197C38.22 72.758 39.4667 73.9946 40.9949 73.9946C42.5332 73.9946 43.7698 72.7479 43.7698 71.2197C43.7698 69.6815 42.5231 68.4448 40.9949 68.4448" stroke="black" stroke-width="2" stroke-miterlimit="10" stroke-linecap="round" stroke-linejoin="round"/>
</g>
</g>
</g>
</svg>
