<svg width="83" height="94" viewBox="0 0 83 94" fill="none" xmlns="http://www.w3.org/2000/svg">
<g id="Group 107">
<g id="Group">
<g id="Group_2">
<path id="Vector" d="M53.5737 72.5357L50.9802 51.9185H31.0163L28.4329 72.5357H53.5737Z" stroke="black" stroke-width="2" stroke-miterlimit="10" stroke-linecap="round" stroke-linejoin="round"/>
<path id="Vector_2" d="M60.6706 72.5357H80.9964L77.9104 51.9185H58.0872L60.6706 72.5357Z" stroke="black" stroke-width="2" stroke-miterlimit="10" stroke-linecap="round" stroke-linejoin="round"/>
<path id="Vector_3" d="M21.3258 72.5357H1L4.09613 51.9185H23.9193L21.3258 72.5357Z" stroke="black" stroke-width="2" stroke-miterlimit="10" stroke-linecap="round" stroke-linejoin="round"/>
</g>
<path id="Vector_4" d="M1 85.6138H80.9964" stroke="black" stroke-width="2" stroke-miterlimit="10" stroke-linecap="round" stroke-linejoin="round"/>
<g id="Group_3">
<g id="Group_4">
<path id="Vector_5" d="M40.9983 56.2714V36.6895" stroke="black" stroke-width="2" stroke-miterlimit="10" stroke-linecap="round" stroke-linejoin="round"/>
</g>
<g id="Group_5">
<path id="Vector_6" d="M48.6983 8H33.2981V32.7187H48.6983V8Z" stroke="black" stroke-width="2" stroke-miterlimit="10" stroke-linecap="round" stroke-linejoin="round"/>
<g id="Group_6">
<path id="Vector_7" d="M41.2295 29.914C42.8839 29.914 44.2251 28.5729 44.2251 26.9185C44.2251 25.264 42.8839 23.9229 41.2295 23.9229C39.5751 23.9229 38.2339 25.264 38.2339 26.9185C38.2339 28.5729 39.5751 29.914 41.2295 29.914Z" stroke="black" stroke-width="2" stroke-miterlimit="10" stroke-linecap="round" stroke-linejoin="round"/>
<path id="Vector_8" d="M36.0425 26.8682C36.0425 24.0032 38.3646 21.6812 41.2295 21.6812C44.0944 21.6812 46.4165 24.0032 46.4165 26.8682" stroke="black" stroke-width="2" stroke-miterlimit="10" stroke-linecap="round" stroke-linejoin="round"/>
</g>
<g id="Group_7">
<g id="Group_8">
<g id="Group_9">
<path id="Vector_9" d="M33.2981 9.04541H24.7537V9.89983C24.7537 9.89983 29.5386 9.43743 33.2981 13.8605" stroke="black" stroke-width="2" stroke-miterlimit="10" stroke-linecap="round" stroke-linejoin="round"/>
<path id="Vector_10" d="M33.2781 19.1582C31.3481 18.8768 29.8604 17.2081 29.8604 15.1976V11.0762" stroke="black" stroke-width="2" stroke-miterlimit="10" stroke-linecap="round" stroke-linejoin="round"/>
</g>
<g id="Group_10">
<path id="Vector_11" d="M33.2981 20.9878H24.7537V21.8422C24.7537 21.8422 29.5386 21.3798 33.2981 25.8029" stroke="black" stroke-width="2" stroke-miterlimit="10" stroke-linecap="round" stroke-linejoin="round"/>
<path id="Vector_12" d="M33.2781 31.1104C31.3481 30.8289 29.8604 29.1602 29.8604 27.1498V23.0283" stroke="black" stroke-width="2" stroke-miterlimit="10" stroke-linecap="round" stroke-linejoin="round"/>
</g>
</g>
<g id="Group_11">
<g id="Group_12">
<path id="Vector_13" d="M48.6982 9.04541H57.2427V9.89983C57.2427 9.89983 52.4578 9.43743 48.6982 13.8605" stroke="black" stroke-width="2" stroke-miterlimit="10" stroke-linecap="round" stroke-linejoin="round"/>
<path id="Vector_14" d="M48.7285 19.1582C50.6586 18.8768 52.1463 17.2081 52.1463 15.1976V11.0762" stroke="black" stroke-width="2" stroke-miterlimit="10" stroke-linecap="round" stroke-linejoin="round"/>
</g>
<g id="Group_13">
<path id="Vector_15" d="M48.6982 20.9878H57.2427V21.8422C57.2427 21.8422 52.4578 21.3798 48.6982 25.8029" stroke="black" stroke-width="2" stroke-miterlimit="10" stroke-linecap="round" stroke-linejoin="round"/>
<path id="Vector_16" d="M48.7285 31.1104C50.6586 30.8289 52.1463 29.1602 52.1463 27.1498V23.0283" stroke="black" stroke-width="2" stroke-miterlimit="10" stroke-linecap="round" stroke-linejoin="round"/>
</g>
</g>
</g>
<path id="Vector_17" d="M43.9537 32.7188H38.053V36.6894H43.9537V32.7188Z" stroke="black" stroke-width="2" stroke-miterlimit="10" stroke-linecap="round" stroke-linejoin="round"/>
<g id="Group_14">
<path id="Vector_18" d="M41.2295 19.2387C42.8839 19.2387 44.2251 17.8976 44.2251 16.2431C44.2251 14.5887 42.8839 13.2476 41.2295 13.2476C39.5751 13.2476 38.2339 14.5887 38.2339 16.2431C38.2339 17.8976 39.5751 19.2387 41.2295 19.2387Z" stroke="black" stroke-width="2" stroke-miterlimit="10" stroke-linecap="round" stroke-linejoin="round"/>
<path id="Vector_19" d="M36.0425 16.1929C36.0425 13.3279 38.3646 11.0059 41.2295 11.0059C44.0944 11.0059 46.4165 13.3279 46.4165 16.1929" stroke="black" stroke-width="2" stroke-miterlimit="10" stroke-linecap="round" stroke-linejoin="round"/>
</g>
</g>
</g>
<g id="Group_15">
<g id="Group_16">
<g id="Group_17">
<path id="Vector_20" d="M11.6755 66.3236V47.4453" stroke="black" stroke-width="2" stroke-miterlimit="10" stroke-linecap="round" stroke-linejoin="round"/>
</g>
</g>
<path id="Vector_21" d="M11.6756 44.5C17.5715 44.5 22.3511 39.7204 22.3511 33.8245C22.3511 27.9285 17.5715 23.1489 11.6756 23.1489C5.77961 23.1489 1 27.9285 1 33.8245C1 39.7204 5.77961 44.5 11.6756 44.5Z" stroke="black" stroke-width="2" stroke-miterlimit="10" stroke-linecap="round" stroke-linejoin="round"/>
<path id="Vector_22" d="M5.97583 33.8247H17.3751" stroke="black" stroke-width="2" stroke-miterlimit="10" stroke-linecap="round" stroke-linejoin="round"/>
</g>
<g id="Group_18">
<path id="Vector_23" d="M59.8867 39.4939L68.984 24.2747C69.5972 23.2795 71.0548 23.2795 71.668 24.2747L80.7653 39.4939C81.4087 40.5393 80.6548 41.8964 79.4184 41.8964H61.2236C59.9972 41.8964 59.2333 40.5494 59.8867 39.4939Z" stroke="black" stroke-width="2" stroke-miterlimit="10" stroke-linecap="round" stroke-linejoin="round"/>
<path id="Vector_24" d="M74.6836 33.6131H71.5574V30.4868H69.0945V33.6131H65.9683V36.0759H69.0945V39.2022H71.5574V36.0759H74.6836V33.6131Z" stroke="black" stroke-width="2" stroke-miterlimit="10" stroke-linecap="round" stroke-linejoin="round"/>
</g>
<g id="Group_19">
<g id="Group_20">
<path id="Vector_25" d="M70.3208 66.3234V44.5903" stroke="black" stroke-width="2" stroke-miterlimit="10" stroke-linecap="round" stroke-linejoin="round"/>
</g>
</g>
<path id="Vector_26" d="M72.2206 41.8965H68.4309V44.4397H72.2206V41.8965Z" stroke="black" stroke-width="2" stroke-miterlimit="10" stroke-linecap="round" stroke-linejoin="round"/>
<path id="Vector_27" d="M13.5754 44.6206H9.78564V47.1638H13.5754V44.6206Z" stroke="black" stroke-width="2" stroke-miterlimit="10" stroke-linecap="round" stroke-linejoin="round"/>
</g>
</g>
</svg>
