<svg width="36" height="45" viewBox="0 0 36 45" fill="none" xmlns="http://www.w3.org/2000/svg">
<g id="Group">
<path id="Vector" d="M35.6974 17.5201C35.6486 22.5351 34.0822 26.552 30.9723 29.9485C30.5457 30.4141 30.5164 30.7251 30.8339 31.2592C32.2325 33.6055 33.5807 35.9827 34.9501 38.3469C35.2562 38.8745 35.5525 39.4134 35.1031 39.9963C34.6847 40.5401 34.1294 40.4359 33.5465 40.3073C32.2537 40.0207 30.9479 39.7993 29.6583 39.4981C29.1079 39.3694 28.8849 39.5371 28.7237 40.0533C28.3134 41.3673 27.8461 42.6634 27.413 43.9708C27.242 44.4837 27.0238 44.925 26.4051 44.9917C25.7522 45.0634 25.4298 44.6596 25.1448 44.163C23.6224 41.5122 22.0821 38.8712 20.5711 36.2139C20.3122 35.7564 20.0517 35.5968 19.4883 35.6424C18.386 35.7287 17.2674 35.7206 16.1635 35.6391C15.6392 35.6001 15.3852 35.7352 15.1393 36.1683C13.6511 38.7768 12.1369 41.3689 10.6356 43.9692C10.3344 44.4902 10.0755 45.0438 9.32326 44.9803C8.5645 44.9168 8.41145 44.3307 8.21931 43.7575C7.80086 42.5022 7.34821 41.2582 6.9558 39.9963C6.80112 39.4964 6.56502 39.376 6.07004 39.485C4.69907 39.7879 3.32646 40.094 1.93921 40.3024C1.52075 40.3659 0.84504 40.2487 0.664306 39.9703C0.446122 39.6365 0.465657 38.9477 0.670815 38.5732C2.0369 36.0837 3.46812 33.6283 4.91074 31.1827C5.19568 30.7007 5.14846 30.4141 4.77234 29.9989C-4.60141 19.645 0.519385 3.51081 14.151 0.415531C24.0148 -1.82329 34.1913 5.24976 35.4939 15.2569C35.6079 16.141 35.6551 17.0333 35.6974 17.5201ZM17.8096 33.5794C26.3416 33.6625 33.47 26.5829 33.5335 17.963C33.5954 9.52062 26.6135 2.32382 18.272 2.23264C9.4356 2.13494 2.24043 8.99145 2.1639 17.5836C2.08249 26.4299 8.99273 33.4931 17.8096 33.5794ZM9.67985 41.3429C10.9352 39.1627 12.0668 37.1957 13.1317 35.3444C10.9775 34.2731 8.93899 33.257 6.80275 32.1938C5.80464 33.9181 4.7414 35.7564 3.67816 37.5947C4.78862 37.5686 5.73625 37.3895 6.68226 37.2039C7.98159 36.9483 8.23722 37.0932 8.65405 38.3225C8.9683 39.2571 9.28744 40.1884 9.67985 41.3429ZM22.5657 35.3493C23.6338 37.1974 24.772 39.1692 26.0078 41.3103C26.4067 40.151 26.7372 39.1887 27.0678 38.2264C27.4585 37.0883 27.7419 36.9336 28.9337 37.173C29.9156 37.37 30.9006 37.5491 32.1006 37.777C30.9185 35.7352 29.8618 33.9083 28.88 32.2133C26.7307 33.2815 24.6905 34.2942 22.5657 35.3493Z" fill="black"/>
<path id="Vector_2" d="M17.8394 28.4425C11.9924 28.4425 7.25587 23.6994 7.26564 17.8557C7.27541 12.0347 12.0429 7.31121 17.8996 7.31935C23.6897 7.32749 28.4229 12.0673 28.436 17.8736C28.449 23.701 23.6962 28.4408 17.8394 28.4425ZM17.8378 9.51421C13.1973 9.51747 9.4719 13.2298 9.46539 17.8589C9.45888 22.5189 13.2234 26.3143 17.8492 26.3095C22.4506 26.3046 26.2769 22.4522 26.2525 17.8475C26.2281 13.2478 22.4538 9.51096 17.8378 9.51421Z" fill="black"/>
<path id="Vector_3" d="M15.5213 19.4479C17.4328 17.9011 19.2581 16.4259 21.0817 14.9491C21.2282 14.8303 21.3683 14.7 21.5262 14.5974C22.0863 14.236 22.6187 14.2848 23.0356 14.8075C23.4345 15.309 23.3531 15.8365 22.8939 16.2566C22.3973 16.7125 21.8584 17.1228 21.3341 17.5478C19.6342 18.9253 17.9376 20.306 16.2312 21.6754C15.3845 22.3543 14.8097 22.2729 14.2073 21.3969C13.5039 20.3728 12.8119 19.3421 12.128 18.3049C11.6526 17.5836 11.7096 16.9861 12.2664 16.5985C12.82 16.211 13.4225 16.3755 13.9109 17.074C14.4336 17.823 14.9384 18.5866 15.5213 19.4479Z" fill="black"/>
</g>
</svg>
