<svg width="60" height="60" viewBox="0 0 60 60" fill="none" xmlns="http://www.w3.org/2000/svg">
<circle cx="30" cy="30" r="30" fill="white"/>
<path d="M20.3847 39.2809C19.4955 38.4101 19.5458 36.9488 20.4971 36.0172L32.5542 24.2087C33.5054 23.2771 34.9974 23.2278 35.8866 24.0986C36.7758 24.9695 36.7255 26.4307 35.7742 27.3624L23.7171 39.1709C22.7659 40.1025 21.2739 40.1518 20.3847 39.2809Z" fill="#0477BF"/>
<path d="M26.1648 21.7903C26.1738 20.4773 27.2679 19.4058 28.6085 19.397L38.318 19.3332C39.6586 19.3244 40.7381 20.3816 40.7291 21.6946C40.7201 23.0075 39.6261 24.079 38.2855 24.0878L28.5759 24.1516C27.2353 24.1605 26.1558 23.1032 26.1648 21.7903Z" fill="#0477BF"/>
<path d="M26.1648 21.7903C26.1738 20.4773 27.2679 19.4058 28.6085 19.397L38.318 19.3332C39.6586 19.3244 40.7381 20.3816 40.7291 21.6946C40.7201 23.0075 39.6261 24.079 38.2855 24.0878L28.5759 24.1516C27.2353 24.1605 26.1558 23.1032 26.1648 21.7903Z" fill="#0477BF"/>
<path d="M38.318 19.3332C39.6586 19.3244 40.7381 20.3816 40.7291 21.6946L40.664 31.204C40.6551 32.5169 39.561 33.5884 38.2204 33.5972C36.8798 33.6061 35.8003 32.5488 35.8093 31.2359L35.8744 21.7265C35.8834 20.4136 36.9774 19.342 38.318 19.3332Z" fill="#0477BF"/>
<path d="M38.318 19.3332C39.6586 19.3244 40.7381 20.3816 40.7291 21.6946L40.664 31.204C40.6551 32.5169 39.561 33.5884 38.2204 33.5972C36.8798 33.6061 35.8003 32.5488 35.8093 31.2359L35.8744 21.7265C35.8834 20.4136 36.9774 19.342 38.318 19.3332Z" fill="#0477BF"/>
</svg>
