<svg width="60" height="60" viewBox="0 0 60 60" fill="none" xmlns="http://www.w3.org/2000/svg">
<rect width="60" height="60" fill="white"/>
<path d="M47.197 35.4C33.0075 35.3925 18.818 35.3925 4.62854 35.3925C4.37881 35.3925 4.12907 35.3925 3.85284 35.3925C3.86798 35.5854 3.86799 35.7217 3.89447 35.8541C4.73449 40.0353 5.58207 44.2127 6.42209 48.3938C7.00859 51.2998 9.02917 52.9723 11.9768 52.9723C21.3078 52.9723 30.635 52.9761 39.966 52.9685C40.5109 52.9685 41.0596 52.942 41.5969 52.8663C46.3418 52.208 49.7095 49.6728 51.5257 45.2608C52.6495 42.5288 53.5085 39.6909 54.4847 36.8984C54.9653 35.5249 55.4382 34.1514 55.9756 32.6113C54.095 33.3605 52.3733 34.0303 50.6668 34.7341C49.5543 35.1919 48.4078 35.4 47.197 35.4Z" fill="#66ADD9"/>
<path d="M59.5477 23.2162C58.6774 21.5664 56.846 20.9269 54.9806 21.6572C52.4795 22.6373 49.9897 23.6513 47.4885 24.6313C47.1556 24.7638 46.7772 24.8432 46.4177 24.8432C34.684 24.8546 22.9502 24.8508 11.2164 24.8508C11.0083 24.8508 10.8002 24.8508 10.5732 24.8508C10.5732 23.5757 10.5732 22.3572 10.5732 21.1048C11.1181 21.1048 11.6213 21.1086 12.1283 21.1048C13.2673 21.0934 14.0506 20.3707 14.0468 19.3415C14.043 18.3085 13.2597 17.5971 12.117 17.5896C11.5986 17.5858 11.0802 17.5896 10.558 17.5896C10.5467 17.408 10.5391 17.3096 10.5391 17.215C10.5391 13.2722 10.5353 9.32562 10.5391 5.38284C10.5391 4.2666 11.2467 3.54388 12.363 3.5401C14.6484 3.52496 16.9301 3.52118 19.2155 3.54766C19.6015 3.55145 19.9837 3.72929 20.4037 3.83902C20.3166 3.97524 20.3015 4.02065 20.2712 4.03578C20.1539 4.10389 20.0328 4.16443 19.908 4.22119C18.2431 4.9931 17.0663 6.22664 16.3284 7.91046C15.7117 9.32184 15.7873 10.8089 15.7987 12.2884C15.8063 13.3592 16.529 14.0744 17.6149 14.0782C21.0885 14.0857 24.5659 14.0857 28.0395 14.0782C29.1103 14.0744 29.8255 13.3517 29.8557 12.2733C29.8709 11.7662 29.8633 11.2592 29.8595 10.7521C29.8293 7.41856 27.9298 4.86823 24.7551 3.83524C24.5092 3.75578 24.2481 3.49469 24.1345 3.25252C23.1886 1.22059 21.6107 0.0967821 19.3782 0.0362403C17.0171 -0.0280853 14.6522 0.00975375 12.2911 0.0248892C11.1521 0.0324569 10.104 0.357869 9.18073 1.04653C7.67475 2.17412 7.02392 3.71794 7.02013 5.56068C7.01257 9.34833 7.01636 13.136 7.01636 16.9236C7.01636 17.1317 7.01636 17.3398 7.01636 17.5934C6.42607 17.5934 5.90389 17.5896 5.37794 17.5934C4.23521 17.6047 3.48601 18.3199 3.49736 19.3793C3.50871 20.4048 4.25792 21.101 5.37416 21.1086C5.91147 21.1124 6.44877 21.1086 6.98608 21.1086C6.98608 22.3951 6.98608 23.5984 6.98608 24.8546C5.79038 24.8546 4.62117 24.8319 3.45574 24.8584C1.1665 24.9114 -0.430292 27 0.103232 29.2136C0.500538 30.8634 1.89301 31.885 3.75467 31.885C17.0322 31.885 30.306 31.8283 43.5798 31.9266C46.8075 31.9531 49.8308 31.5747 52.7443 30.1482C54.4698 29.3044 56.3352 28.7406 58.0758 27.9195C59.8542 27.0833 60.4558 24.9378 59.5477 23.2162Z" fill="#66ADD9"/>
<path d="M15.9083 59.9992C18.0614 59.9576 20.169 58.4213 20.6798 56.5029C17.4446 56.5029 14.2132 56.5029 10.9401 56.5029C11.5796 58.5878 13.6645 60.0408 15.9083 59.9992Z" fill="#66ADD9"/>
<path d="M41.0293 59.9838C43.0878 59.8325 45.2181 58.1562 45.4489 56.4951C42.2288 56.4951 39.0088 56.4951 35.7471 56.4951C36.3828 58.6481 38.6985 60.1579 41.0293 59.9838Z" fill="#66ADD9"/>
</svg>
