<svg width="998" height="1912" viewBox="0 0 998 1912" fill="none" xmlns="http://www.w3.org/2000/svg">
<path opacity="0.03" d="M957.078 3.26098C957.035 3.21348 956.983 3.16584 956.94 3.12266C956.719 2.86789 956.457 2.62135 956.203 2.38385C956.004 2.2068 955.822 2.01734 955.611 1.85757C955.559 1.81438 955.524 1.75791 955.468 1.72768C955.239 1.55064 954.993 1.44278 954.751 1.29165C954.527 1.1621 954.316 1.01521 954.078 0.898623C953.729 0.725895 953.353 0.609742 952.986 0.484515C952.792 0.42406 952.602 0.337291 952.408 0.285473C951.946 0.160245 951.472 0.104008 951.002 0.0737803C950.885 0.0521893 950.768 0.0132581 950.647 0.00462171C950.643 0.00462171 950.63 0.0088387 950.626 0.0088387C950.034 -0.0170705 949.448 0.0263139 948.874 0.10836C948.589 0.15586 948.33 0.242527 948.058 0.311618C947.756 0.389346 947.457 0.450037 947.168 0.553673C946.896 0.65731 946.655 0.791005 946.4 0.920551C946.116 1.0501 945.822 1.18416 945.559 1.34394C945.33 1.49076 945.123 1.66733 944.898 1.83142C944.639 2.03438 944.376 2.2292 944.134 2.45806C944.07 2.5142 944.005 2.56133 943.941 2.61747L706.829 241.617C706.725 241.725 706.652 241.854 706.557 241.979C706.385 242.165 706.191 242.334 706.031 242.55C705.906 242.709 705.824 242.895 705.716 243.055C705.643 243.18 705.543 243.266 705.47 243.379L553.296 503.627C553.253 503.701 553.237 503.783 553.193 503.86C553.021 504.171 552.886 504.487 552.757 504.823C552.666 505.039 552.567 505.247 552.502 505.463C552.394 505.812 552.329 506.162 552.264 506.52C552.23 506.702 552.171 506.87 552.145 507.069L529.303 702.182L510.248 743.667L499.569 742.989C499.5 742.98 499.436 742.993 499.367 742.989C499.246 742.989 499.124 742.946 498.999 742.946C498.874 742.946 498.758 742.989 498.637 742.989C498.563 742.993 498.508 742.971 498.434 742.989L487.755 743.667L468.697 702.182L445.855 507.069C445.834 506.87 445.761 506.685 445.73 506.499C445.67 506.158 445.606 505.812 445.498 505.48C445.429 505.246 445.324 505.022 445.238 504.801C445.104 504.473 444.974 504.154 444.81 503.86C444.767 503.783 444.746 503.701 444.707 503.627L292.534 243.379C292.46 243.271 292.366 243.184 292.292 243.08C292.185 242.899 292.102 242.714 291.969 242.55C291.809 242.325 291.614 242.16 291.433 241.962C291.333 241.854 291.269 241.72 291.17 241.617L54.0544 2.61747C54.0026 2.56133 53.9344 2.514 53.874 2.4665C53.6236 2.22468 53.3469 2.01687 53.0664 1.80527C52.8592 1.65414 52.6658 1.49035 52.4543 1.3608C52.1652 1.1708 51.8581 1.02847 51.5473 0.885972C51.3185 0.778017 51.0893 0.648674 50.8476 0.553673C50.5239 0.445718 50.1922 0.371736 49.8512 0.28969C49.6138 0.229235 49.385 0.138587 49.1346 0.10836C48.552 0.0133593 47.9658 -0.0170705 47.3745 0.0088387C47.3658 0.0088387 47.3571 0.00462171 47.3441 0.00462171C47.2276 0.0132581 47.1235 0.0525941 47.0069 0.0569123C46.5365 0.100094 46.066 0.160245 45.6042 0.285473C45.3841 0.337291 45.1733 0.427973 44.9618 0.501383C44.6165 0.622292 44.2667 0.730213 43.93 0.898623C43.6797 1.01953 43.4499 1.17971 43.2168 1.31357C42.9924 1.46471 42.7515 1.56359 42.5357 1.72768C42.4753 1.75791 42.4492 1.81438 42.3975 1.85757C42.1816 2.01734 41.995 2.20754 41.7922 2.38891C41.5375 2.62641 41.2796 2.86789 41.0638 3.12266C41.012 3.16584 40.9637 3.21348 40.9205 3.26098L1.99452 51.0588C0.704 52.635 0 54.6125 0 56.6463V299.191C0 300.038 0.1251 300.871 0.362487 301.679L72.9087 549.534C73.008 549.879 73.1278 550.212 73.2746 550.536L170.323 776.52L195.81 875.877C195.957 876.443 196.154 876.991 196.4 877.514L218.257 923.032L210.013 930.343C207.488 932.584 206.462 936.047 207.342 939.303C208.232 942.546 210.881 945.011 214.196 945.654L234.918 949.693L222.358 998.035C222.034 999.291 221.986 1000.6 222.22 1001.88L235.901 1075.44L207.86 1143.45L139.621 1274.11C139.591 1274.15 139.579 1274.22 139.549 1274.27C139.471 1274.44 139.406 1274.61 139.328 1274.79C139.199 1275.1 139.074 1275.43 138.979 1275.76C138.923 1275.97 138.884 1276.16 138.841 1276.36C138.798 1276.53 138.741 1276.7 138.719 1276.87L122.193 1385.46C121.978 1386.9 122.12 1388.37 122.608 1389.75L161.539 1499.52C162.074 1501.04 163.029 1502.39 164.281 1503.41L183.327 1518.96L122.19 1620.64C122.112 1620.76 122.082 1620.89 122.021 1621.01C121.793 1621.43 121.599 1621.86 121.435 1622.33C121.361 1622.55 121.291 1622.78 121.231 1623.02C121.188 1623.21 121.102 1623.38 121.067 1623.58C121.02 1623.82 121.032 1624.06 121.006 1624.3C120.989 1624.54 120.951 1624.77 120.951 1625C120.938 1625.54 120.981 1626.05 121.059 1626.56C121.08 1626.7 121.076 1626.83 121.111 1626.97C121.241 1627.63 121.448 1628.26 121.728 1628.86C121.741 1628.89 121.75 1628.94 121.758 1628.97L197.618 1790.07C197.639 1790.11 197.662 1790.15 197.683 1790.18C197.891 1790.6 198.136 1791.01 198.395 1791.39C198.416 1791.42 198.437 1791.45 198.459 1791.49C198.761 1791.9 199.098 1792.29 199.469 1792.65C199.555 1792.73 199.659 1792.81 199.754 1792.89C200.039 1793.15 200.333 1793.39 200.636 1793.6C200.787 1793.7 200.945 1793.78 201.101 1793.88C201.381 1794.04 201.667 1794.2 201.961 1794.35C202.051 1794.38 202.128 1794.43 202.21 1794.48L481.311 1911.32C482.412 1911.77 483.569 1912 484.726 1912C486.353 1912 487.963 1911.55 489.379 1910.68C491.805 1909.18 493.358 1906.6 493.557 1903.75L499.043 1823.41L504.588 1903.76C504.787 1906.61 506.342 1909.18 508.768 1910.68C511.202 1912.19 514.201 1912.41 516.833 1911.31L795.793 1794.46C795.867 1794.43 795.944 1794.38 796.017 1794.35C796.332 1794.2 796.627 1794.04 796.916 1793.87C797.063 1793.78 797.217 1793.7 797.359 1793.6C797.674 1793.38 797.968 1793.14 798.253 1792.89C798.339 1792.81 798.448 1792.73 798.535 1792.65C798.901 1792.29 799.242 1791.9 799.544 1791.49C799.549 1791.47 799.558 1791.45 799.566 1791.45C799.856 1791.05 800.101 1790.62 800.317 1790.17C800.338 1790.14 800.36 1790.11 800.377 1790.07L876.237 1628.97C876.258 1628.94 876.258 1628.89 876.275 1628.85C876.543 1628.26 876.765 1627.62 876.894 1626.97C876.92 1626.83 876.919 1626.7 876.936 1626.56C877.018 1626.05 877.065 1625.55 877.053 1625C877.044 1624.77 877.019 1624.54 876.988 1624.29C876.958 1624.06 876.974 1623.82 876.923 1623.58C876.893 1623.38 876.815 1623.22 876.768 1623.03C876.703 1622.78 876.642 1622.55 876.56 1622.31C876.401 1621.86 876.207 1621.44 875.987 1621.03C875.922 1620.9 875.888 1620.76 875.815 1620.64L814.681 1518.96L833.719 1503.41C834.971 1502.39 835.925 1501.04 836.464 1499.52L875.392 1389.75C875.884 1388.37 876.022 1386.9 875.802 1385.46L859.287 1276.87C859.257 1276.7 859.197 1276.53 859.163 1276.36C859.124 1276.16 859.081 1275.95 859.016 1275.76C858.925 1275.43 858.8 1275.12 858.67 1274.81C858.597 1274.62 858.532 1274.44 858.446 1274.26C858.424 1274.21 858.408 1274.15 858.382 1274.11L790.143 1143.45L762.102 1075.44L775.775 1001.88C776.008 1000.6 775.969 999.291 775.641 998.035L763.082 949.693L783.807 945.654C787.114 945.011 789.768 942.546 790.658 939.303C791.547 936.047 790.507 932.584 787.99 930.343L779.746 923.032L801.598 877.514C801.848 876.991 802.047 876.443 802.19 875.877L827.677 776.52L924.729 550.536C924.867 550.212 924.992 549.879 925.091 549.534L997.638 301.679C997.871 300.871 998 300.038 998 299.191V56.6463C998 54.6125 997.291 52.635 996.009 51.0588L957.078 3.26098ZM871.615 100.649L750.621 264.913L726.545 246.868L871.615 100.649ZM715.738 260.888L742.976 281.318L715.884 479.519L577.639 497.051L715.738 260.888ZM745.015 1070.49L722.825 1081.9L711.228 1066.24L708.444 990.435L720.032 958.069L732.592 955.621L745.886 953.855L758.019 1000.58L745.015 1070.49ZM756.884 1109.22L733.525 1096.3L748.41 1088.65L756.884 1109.22ZM694.057 949.791C693.112 952.767 693.812 956.018 695.888 958.354C697.054 959.663 698.568 960.531 700.2 960.971L691.213 986.056C690.829 987.122 690.662 988.241 690.701 989.372L693.653 1069.63C693.713 1071.42 694.317 1073.14 695.383 1074.57L696.204 1075.68L640.978 1045.16C640.913 1045.06 640.862 1044.96 640.806 1044.86L593.337 974.876L671.162 825.488L713.977 886.686L694.057 949.791ZM656.094 816.114L581.847 958.635L510.368 859.286L557.72 807.364L656.094 816.114ZM572.71 790.921L592.512 769.209L634.965 796.457L572.71 790.921ZM677.299 803.396C677.143 803.18 676.953 803.004 676.785 802.801C676.651 802.632 676.522 802.459 676.366 802.304C675.961 801.885 675.529 801.518 675.058 801.198C674.989 801.151 674.934 801.086 674.869 801.043C674.852 801.039 674.848 801.025 674.831 801.021L631.042 772.901L727.202 787.859L732.312 880.968L730.365 879.245L677.299 803.396ZM545.972 708.306C546.357 707.455 546.607 706.56 546.719 705.636L568.909 516.008L715.25 497.439L724.474 738.14L726.209 769.792L592.371 748.97C592.237 748.948 592.108 748.969 591.969 748.957C591.836 748.944 591.714 748.896 591.585 748.879L529.165 744.88L545.972 708.306ZM507.847 761.255L572.055 765.375L507.847 835.787V761.255ZM507.847 886.081L561.259 960.332L507.847 945.703V886.081ZM507.847 964.059L577.566 983.154L622.315 1049.14C622.074 1052.33 623.584 1055.51 626.433 1057.29L656.836 1162.07C657.16 1163.17 657.687 1164.2 658.407 1165.11L732.57 1258.29V1361.92L704.084 1398.76L711.194 1359.46C711.423 1358.21 711.375 1356.92 711.064 1355.7L682.75 1244.17C682.551 1243.36 682.237 1242.57 681.814 1241.86L627.844 1149.8C627.071 1148.49 625.968 1147.39 624.656 1146.63L545.472 1100.59C544.997 1100.33 544.512 1100.09 544.003 1099.91L507.847 1086.98V964.059ZM507.847 1105.78L537.279 1116.31L613.757 1160.77L665.913 1249.74L693.445 1358.18L680.669 1428.75L651.945 1460.47L592.866 1442.2L527.288 1414.57L507.847 1398.04V1324.03L588.628 1258.53C591.407 1256.27 592.557 1252.54 591.529 1249.11L572.948 1187.14C572.504 1185.67 571.693 1184.36 570.596 1183.3L507.847 1123.07V1105.78ZM632.062 1472.85L557.095 1513.67H507.839V1454.57L558.226 1446.81L586.406 1458.68C586.665 1458.8 586.945 1458.89 587.217 1458.98L632.062 1472.85ZM498.999 1139.11L556.667 1194.47L572.866 1248.51L498.999 1308.41L425.124 1248.51L441.332 1194.47L498.999 1139.11ZM286.798 1359.46L293.919 1398.77L265.428 1361.92V1258.29L339.588 1165.11C340.308 1164.2 340.849 1163.17 341.164 1162.07L371.562 1057.29C374.415 1055.51 375.931 1052.33 375.685 1049.13L420.437 983.154L490.151 964.059V1086.98L454 1099.91C453.482 1100.09 452.994 1100.33 452.532 1100.59L373.344 1146.63C372.024 1147.39 370.928 1148.49 370.16 1149.8L316.19 1241.86C315.767 1242.57 315.453 1243.36 315.245 1244.17L286.931 1355.7C286.62 1356.92 286.582 1358.21 286.798 1359.46ZM306.782 986.056L297.807 960.993C301.61 960.009 304.425 956.572 304.425 952.465C304.425 951.131 304.136 949.883 303.614 948.756L284.026 886.686L326.843 825.488L404.662 974.876L357.203 1044.86C357.134 1044.96 357.091 1045.07 357.026 1045.16L301.8 1075.68L302.612 1074.57C303.678 1073.14 304.286 1071.42 304.351 1069.63L307.299 989.372C307.338 988.241 307.166 987.122 306.782 986.056ZM252.977 1070.49L239.976 1000.58L252.117 953.855L265.408 955.621L277.967 958.069L289.551 990.435L286.767 1066.24L275.175 1081.9L252.977 1070.49ZM264.484 1096.3L241.111 1109.22L249.593 1088.65L264.484 1096.3ZM416.16 958.635L341.911 816.114L440.278 807.364L487.627 859.286L416.16 958.635ZM490.151 886.081V945.703L436.744 960.332L490.151 886.081ZM363.03 796.457L405.483 769.209L425.29 790.921L363.03 796.457ZM323.17 801.021C323.157 801.021 323.149 801.039 323.144 801.043C323.062 801.095 322.998 801.172 322.92 801.211C322.462 801.543 322.026 801.911 321.629 802.304C321.486 802.459 321.352 802.632 321.214 802.791C321.05 803.003 320.856 803.172 320.705 803.396L267.625 879.245L265.691 880.968L270.798 787.859L366.956 772.901L323.17 801.021ZM332.087 1249.74L384.248 1160.77L460.721 1116.31L490.151 1105.78V1123.07L427.404 1183.3C426.299 1184.36 425.491 1185.67 425.055 1187.14L406.476 1249.11C405.444 1252.54 406.595 1256.27 409.379 1258.53L490.151 1324.03V1398.04L470.717 1414.57L434.991 1429.61C434.943 1429.64 434.872 1429.66 434.815 1429.69L405.137 1442.2L346.058 1460.47L317.329 1428.75L304.558 1358.18L332.087 1249.74ZM490.151 761.255V835.787L425.937 765.375L490.151 761.255ZM451.284 705.636C451.388 706.56 451.648 707.455 452.036 708.306L468.839 744.88L406.418 748.879C406.28 748.896 406.16 748.944 406.031 748.957C405.888 748.969 405.759 748.948 405.629 748.97L271.786 769.792L273.526 737.993L282.74 497.439L429.086 516.008L451.284 705.636ZM420.365 497.051L282.119 479.519L255.027 281.318L282.261 260.888L420.365 497.051ZM271.45 246.868L247.378 264.913L126.376 100.645L271.45 246.868ZM17.7012 297.921V59.8032L47.4301 23.2976L237.088 280.791L265.408 487.875L255.855 737.168L254.353 764.619L89.4381 543.027L17.7012 297.921ZM232.025 910.815L212.729 870.626L187.294 771.459C187.173 771.01 187.031 770.578 186.849 770.154L119.224 612.687L252.834 792.23L247.064 897.486L232.025 910.815ZM235.164 931.703L269.943 900.858L282.3 940.006L268.269 938.146L235.164 931.703ZM349.601 1069.49L324.658 1155.45L260.638 1235.89L233.635 1133.57L349.601 1069.49ZM221.257 1156.02L247.732 1256.34V1364.95C247.732 1366.92 248.381 1368.82 249.585 1370.37L302.076 1438.24C302.158 1438.34 302.262 1438.41 302.353 1438.52C302.413 1438.59 302.448 1438.69 302.521 1438.77L336.727 1476.53C336.843 1476.66 336.982 1476.74 337.103 1476.86C337.349 1477.11 337.602 1477.34 337.878 1477.55C338.107 1477.73 338.344 1477.89 338.586 1478.04C338.75 1478.14 338.88 1478.27 339.057 1478.36L434.412 1530.29C435.716 1531.01 437.172 1531.37 438.648 1531.37H442.269L421.137 1538.95L282.042 1489.3L157.582 1277.95L221.257 1156.02ZM394.869 1548.38L382.331 1552.87L281.804 1569.81L284.377 1508.92L394.869 1548.38ZM177.379 1491.26L140.028 1385.92L152.462 1304.14L267.09 1498.79L264.41 1562.32L177.379 1491.26ZM145.135 1637.08L462.489 1696.42L210.347 1775.55L145.135 1637.08ZM476.746 1890.21L231.4 1787.5L489.288 1706.56L476.746 1890.21ZM490.143 1683.58L143.912 1618.84L197.178 1530.26L266.913 1587.21C266.969 1587.25 267.034 1587.29 267.09 1587.33C267.276 1587.47 267.479 1587.6 267.674 1587.73C267.928 1587.89 268.186 1588.05 268.463 1588.2C268.67 1588.31 268.882 1588.4 269.102 1588.49C269.395 1588.62 269.693 1588.72 269.987 1588.81C270.211 1588.88 270.43 1588.94 270.654 1588.98C271 1589.06 271.341 1589.1 271.695 1589.13C271.85 1589.14 271.98 1589.19 272.131 1589.2C272.257 1589.2 272.381 1589.2 272.502 1589.2H272.511C272.524 1589.2 272.537 1589.2 272.555 1589.2C273.034 1589.2 273.5 1589.16 273.971 1589.08L386.043 1570.2C386.561 1570.1 387.065 1569.97 387.557 1569.81L458.989 1544.19L490.143 1540.68V1683.58ZM490.143 1513.67H440.897L365.938 1472.85L410.778 1458.98C411.059 1458.89 411.327 1458.8 411.594 1458.68L439.769 1446.81L490.143 1454.57V1513.67ZM498.999 1438.03L470.902 1433.7L478.84 1430.36C479.673 1430.01 480.448 1429.53 481.134 1428.94L498.999 1413.76L516.864 1428.94C517.554 1429.53 518.328 1430.01 519.165 1430.36L527.098 1433.7L498.999 1438.03ZM521.392 1890.21L508.715 1706.56L766.617 1787.5L521.392 1890.21ZM787.658 1775.55L535.506 1696.42L852.86 1637.08L787.658 1775.55ZM854.083 1618.84L507.839 1683.59V1540.68L539.006 1544.19L610.438 1569.81C610.934 1569.97 611.439 1570.1 611.957 1570.2L724.021 1589.08C724.496 1589.16 724.974 1589.2 725.44 1589.2C725.462 1589.2 725.479 1589.2 725.488 1589.2C725.488 1589.2 725.487 1589.2 725.496 1589.2C725.621 1589.2 725.748 1589.2 725.869 1589.2C726.015 1589.19 726.154 1589.14 726.3 1589.13C726.654 1589.1 726.994 1589.06 727.344 1588.98C727.568 1588.94 727.788 1588.88 728.008 1588.81C728.31 1588.72 728.596 1588.62 728.89 1588.49C729.114 1588.4 729.333 1588.31 729.541 1588.2C729.817 1588.05 730.072 1587.89 730.331 1587.73C730.521 1587.6 730.724 1587.48 730.91 1587.34C730.961 1587.29 731.035 1587.26 731.087 1587.21L800.826 1530.27L854.083 1618.84ZM603.131 1548.38L713.618 1508.92L716.186 1569.81L615.669 1552.87L603.131 1548.38ZM857.971 1385.92L820.616 1491.26L733.589 1562.32L730.91 1498.79L845.533 1304.15L857.971 1385.92ZM840.413 1277.95L715.958 1489.3L576.863 1538.95L555.734 1531.37H559.347C560.828 1531.37 562.283 1531.01 563.577 1530.29L658.95 1478.36C659.114 1478.27 659.253 1478.14 659.409 1478.05C659.651 1477.89 659.892 1477.73 660.125 1477.55C660.397 1477.34 660.651 1477.11 660.892 1476.86C661.022 1476.74 661.161 1476.66 661.268 1476.53L695.482 1438.77C695.547 1438.69 695.582 1438.6 695.651 1438.52C695.733 1438.43 695.841 1438.34 695.927 1438.24L748.415 1370.37C749.62 1368.82 750.272 1366.92 750.272 1364.95V1256.34L776.742 1156.02L840.413 1277.95ZM764.363 1133.57L737.362 1235.89L673.34 1155.45L648.398 1069.49L764.363 1133.57ZM729.743 938.142L715.704 940.006L728.052 900.858L762.841 931.703L729.743 938.142ZM811.151 770.154C810.974 770.578 810.821 771.01 810.709 771.459L785.266 870.626L765.97 910.815L750.931 897.486L745.161 792.23L878.779 612.683L811.151 770.154ZM980.304 297.921L908.557 543.035L743.646 764.623L742.143 737.319L732.592 487.875L760.907 280.791L950.573 23.2934L980.304 59.8032V297.921Z" fill="#171717"/>
</svg>
