<svg width="64" height="64" viewBox="0 0 64 64" fill="none" xmlns="http://www.w3.org/2000/svg">
<path d="M24.958 20.813L28.6046 19.0004L30.3715 22.9359L32.3793 21.0082L34.869 21.4097L35.5919 19.9639L39.4823 20.4995M21.5761 56.5075C22.158 41.2909 27.4721 55.8757 27.3654 56.5075M18.6397 56.5075C17.9689 50.3011 17.5302 40.2076 26.4805 46.8611C29.2988 48.9563 30.1747 53.0173 30.391 56.5075M14.6194 56.5075C10.4152 29.0208 35.0816 39.9158 34.8958 56.5075M22.8162 24.5214C23.9756 31.3342 26.7794 38.3997 34.3877 37.8219C37.8653 37.5579 41.4478 32.5596 43.2516 27.0291M26.1001 20.245C26.5735 26.8408 28.2397 33.2222 34.5429 31.55C38.7745 30.4275 40.817 27.4931 41.6973 24.3369M31.9052 21.4627C34.3117 30.8438 37.8343 25.524 39.1555 20.4547M32.3108 8.07767L46.2913 32.2927L60.2718 56.5078H32.3108H4.34952L18.33 32.2927L32.3108 8.07767Z" stroke="#111618" stroke-width="1.5" stroke-miterlimit="22.9256"/>
</svg>
