<svg width="65" height="65" viewBox="0 0 65 65" fill="none" xmlns="http://www.w3.org/2000/svg">
<rect width="65" height="65" fill="#F2F2F2"/>
<path d="M32.7077 4C33.1617 4.21617 33.3346 4.60526 33.3562 5.08083C33.4211 6.79934 34.8802 8.35572 36.8041 8.453C37.4417 8.48542 37.7768 8.80967 37.7768 9.30685C37.7768 9.78241 37.4633 10.0634 36.8473 10.1391C34.7505 10.3877 33.6372 11.4793 33.3562 13.5869C33.2914 14.0733 33.1617 14.5164 32.578 14.5813C32.0376 14.6461 31.7782 14.2678 31.6053 13.5437C31.454 12.8736 31.2486 12.171 30.8811 11.609C30.265 10.6471 29.2599 10.2364 28.1358 10.1607C27.6927 10.1283 27.336 9.97697 27.2387 9.4906C27.1198 8.91776 27.4765 8.52866 28.1791 8.47462C29.2923 8.38815 30.265 7.96663 30.8811 7.03712C31.2378 6.4967 31.4323 5.8374 31.5945 5.21052C31.7134 4.73496 31.7566 4.25939 32.2646 4.02161C32.4159 4 32.5672 4 32.7077 4ZM32.5132 8.02067C32.0808 8.43139 31.562 8.91776 31.1946 9.25281C31.5945 9.68514 32.0808 10.2039 32.4591 10.6038C32.8806 10.1715 33.367 9.65271 33.7345 9.27443C33.3886 8.91775 32.8915 8.40977 32.5132 8.02067Z" fill="#EAB840"/>
<path d="M60.9823 20.2448C60.7553 20.6123 60.4419 20.796 59.9987 20.85C58.4207 21.0554 57.6101 21.9093 57.4263 23.4873C57.3615 24.0817 57.0589 24.3843 56.5617 24.3735C56.0969 24.3627 55.8159 24.0709 55.7403 23.4981C55.5349 21.8768 54.7351 21.0662 53.1139 20.8284C52.487 20.7312 52.1951 20.4718 52.1843 20.007C52.1735 19.5098 52.5086 19.2072 53.1355 19.1315C54.6594 18.9478 55.5457 18.0723 55.7294 16.57C55.8051 15.9323 56.0969 15.5864 56.5725 15.5864C57.048 15.5864 57.3507 15.9431 57.4155 16.57C57.5668 18.0291 58.5072 18.9478 59.9447 19.1531C60.3013 19.2072 60.6256 19.499 60.9715 19.6828C60.9823 19.8773 60.9823 20.061 60.9823 20.2448ZM57.4588 20.0286C57.1561 19.7152 56.8643 19.4017 56.6265 19.1531C56.3239 19.4558 56.0213 19.7584 55.7511 20.0286C55.9997 20.2988 56.2915 20.6015 56.5293 20.8609C56.8535 20.569 57.1778 20.2772 57.4588 20.0286Z" fill="#EAB840"/>
<path d="M53.3191 33.5606C53.4813 32.9337 53.6326 32.3068 53.7947 31.6908C53.9892 30.9342 54.1946 30.7613 54.9511 30.7613C56.2481 30.7504 57.5451 30.7504 58.8421 30.7613C59.7068 30.7721 59.9662 31.0423 59.977 31.9069C59.977 32.8905 59.977 33.874 59.977 34.8576C59.977 35.733 59.696 36.0141 58.7989 36.0141C57.4262 36.0249 56.0536 36.0141 54.5945 36.0141C54.7026 36.1978 54.7566 36.3275 54.8323 36.4356C55.6213 37.5596 56.4103 38.6837 57.2209 39.7861C57.891 40.7048 58.2044 41.71 58.2044 42.8557C58.1936 46.1414 58.1828 49.4271 58.2044 52.702C58.2153 54.1611 57.7397 55.3825 56.6589 56.366C56.5184 56.4957 56.4319 56.7443 56.4319 56.9388C56.4103 57.663 56.4319 58.3872 56.4211 59.1113C56.4103 60.2786 55.7077 60.9919 54.5513 60.9919C52.8652 61.0028 51.1791 61.0028 49.4822 60.9919C48.3149 60.9811 47.634 60.2894 47.6124 59.1113C47.6016 58.5817 47.6124 58.0413 47.6124 57.4684C37.4526 57.4684 27.3361 57.4684 17.1439 57.4684C17.1439 58.0197 17.1547 58.5709 17.1439 59.1221C17.1331 60.3002 16.4522 60.9919 15.2741 60.9919C13.588 61.0028 11.9019 61.0028 10.205 60.9919C9.07012 60.9811 8.36757 60.2894 8.33514 59.1654C8.32434 58.8843 8.31353 58.6033 8.33514 58.3331C8.39999 57.3279 8.35678 56.4309 7.48132 55.6527C6.76797 55.015 6.56261 54.0206 6.56261 53.0479C6.5518 49.5784 6.5518 46.109 6.56261 42.6395C6.56261 41.6019 6.89766 40.6832 7.50292 39.8402C8.28111 38.7594 9.0593 37.6677 9.82669 36.5869C9.93477 36.4464 10.0212 36.2843 10.1726 36.0681C9.90235 36.0573 9.70782 36.0357 9.51327 36.0357C8.32436 36.0357 7.13544 36.0357 5.94653 36.0357C5.04944 36.0357 4.77924 35.7547 4.76843 34.8792C4.76843 33.874 4.76843 32.8797 4.76843 31.8745C4.76843 31.1179 5.04945 30.8045 5.78441 30.7937C7.15706 30.7721 8.52971 30.7937 9.90235 30.7937C10.4644 30.7937 10.7886 31.0639 10.9183 31.6151C11.0696 32.2744 11.2534 32.9337 11.4587 33.7443C11.9992 32.2204 12.4855 30.8585 12.9719 29.4859C13.7933 27.1513 14.6148 24.8059 15.447 22.4605C16.2252 20.2664 17.7383 19.1856 20.0621 19.1748C28.2656 19.1748 36.4582 19.1748 44.6617 19.1748C46.9855 19.1748 48.5094 20.2556 49.2768 22.4605C50.5846 26.1569 51.8924 29.8642 53.1894 33.5606C53.2542 33.5498 53.2867 33.5606 53.3191 33.5606ZM8.22709 52.1508C13.3394 52.1508 18.3869 52.1508 23.4992 52.1508C23.4992 51.913 23.4992 51.7185 23.4992 51.5131C23.4992 49.7297 23.4883 47.9572 23.4992 46.1738C23.51 43.8933 24.7313 42.2288 26.7957 41.6452C27.0226 41.5803 27.2712 41.5263 27.509 41.5263C30.7515 41.5155 34.0047 41.4722 37.2472 41.5371C39.2576 41.5803 41.0625 43.3529 41.1706 45.3416C41.2787 47.3952 41.2355 49.4595 41.2571 51.5131C41.2571 51.7293 41.2571 51.9346 41.2571 52.1508C46.4018 52.1508 51.4493 52.1508 56.5075 52.1508C56.5183 52.0319 56.5292 51.9562 56.5292 51.8914C56.5292 48.811 56.5292 45.7307 56.5292 42.6503C56.5292 41.9586 56.2914 41.3533 55.8807 40.7913C54.8323 39.3322 53.7839 37.8731 52.7463 36.3924C52.5409 36.0897 52.3031 36.0033 51.9573 36.0141C50.509 36.0249 49.0607 36.0249 47.6124 36.0141C47.2233 36.0141 46.8342 36.0249 46.4451 35.9492C45.9479 35.8627 45.6777 35.344 45.8614 34.8792C46.0343 34.4253 46.4234 34.328 46.8558 34.328C48.25 34.328 49.6335 34.328 51.0277 34.328C51.2223 34.328 51.4169 34.3064 51.6546 34.2956C51.5898 34.0686 51.5466 33.9065 51.4925 33.7551C50.228 30.156 48.9526 26.5568 47.688 22.9685C47.1476 21.4445 46.2613 20.8177 44.6293 20.8177C36.4474 20.8177 28.2656 20.8177 20.0837 20.8177C18.4301 20.8177 17.5546 21.4337 17.0034 23.0117C15.7388 26.5676 14.4851 30.1344 13.2313 33.6903C13.1665 33.874 13.1232 34.0578 13.0476 34.328C13.3718 34.328 13.6096 34.328 13.8366 34.328C23.4235 34.328 33.0212 34.328 42.6081 34.328C43.4728 34.328 43.8727 34.5766 43.8835 35.1386C43.8943 35.7222 43.4836 36.0033 42.5865 36.0033C39.6575 36.0033 36.7284 36.0033 33.7886 36.0033C26.7957 36.0033 19.8027 36.0033 12.8098 36.0033C12.4855 36.0033 12.2261 36.0141 11.9992 36.3383C10.9399 37.8623 9.8267 39.343 8.7891 40.8778C8.48647 41.3209 8.22709 41.8938 8.22709 42.4126C8.20547 45.6442 8.22709 48.8651 8.22709 52.1508ZM8.42163 53.8693C8.45405 54.0098 8.45405 54.0855 8.48647 54.1503C8.55132 54.28 8.61619 54.4205 8.70265 54.5394C9.32953 55.4365 10.2266 55.7607 11.2966 55.7607C22.7966 55.7499 34.2966 55.7607 45.7966 55.7607C48.4122 55.7607 51.0278 55.7607 53.6434 55.7607C54.7782 55.7607 55.6429 55.296 56.2049 54.2908C56.2698 54.1719 56.2914 54.0422 56.3346 53.8801C40.3384 53.8693 24.407 53.8693 8.42163 53.8693ZM25.2068 52.14C30.0165 52.14 34.7721 52.14 39.5494 52.14C39.5494 51.5131 39.5494 50.9295 39.5494 50.3134C34.7613 50.3134 30.0057 50.3134 25.2068 50.3134C25.2068 50.9295 25.2068 51.5131 25.2068 52.14ZM39.5818 46.7575C34.7397 46.7575 29.9841 46.7575 25.2177 46.7575C25.2177 47.3843 25.2177 47.968 25.2177 48.5841C30.0057 48.5841 34.7614 48.5841 39.5386 48.5841C39.5602 48.4544 39.5818 48.3463 39.5818 48.2382C39.5818 47.7626 39.5818 47.2763 39.5818 46.7575ZM39.344 45.0173C39.1495 44.023 38.1551 43.2016 37.0419 43.1691C35.6476 43.1259 34.2642 43.1475 32.8699 43.1475C31.1622 43.1475 29.4545 43.1367 27.7468 43.1691C26.5903 43.1907 25.596 44.0122 25.3906 45.0173C30.0598 45.0173 34.6965 45.0173 39.344 45.0173ZM10.032 59.2626C11.8803 59.2626 13.6636 59.2626 15.4362 59.2626C15.4362 58.6357 15.4362 58.0413 15.4362 57.4468C13.6204 57.4468 11.837 57.4468 10.032 57.4468C10.032 58.0737 10.032 58.6574 10.032 59.2626ZM54.7134 59.2842C54.7134 58.6249 54.7134 58.0521 54.7134 57.4576C52.8976 57.4576 51.1142 57.4576 49.3309 57.4576C49.3309 58.0953 49.3309 58.6898 49.3309 59.2842C51.1467 59.2842 52.9084 59.2842 54.7134 59.2842ZM9.88075 34.3064C9.74024 33.7443 9.64296 33.2688 9.50245 32.7932C9.45922 32.6635 9.3187 32.469 9.22143 32.4582C8.31353 32.4365 7.39486 32.4473 6.47616 32.4473C6.47616 33.1175 6.47616 33.7011 6.47616 34.3064C7.60021 34.3064 8.70265 34.3064 9.88075 34.3064ZM54.8863 34.2631C56.0644 34.2631 57.1777 34.2631 58.2801 34.2631C58.2801 33.6254 58.2801 33.0634 58.2801 32.4365C57.556 32.4365 56.8534 32.4798 56.1617 32.4257C55.5348 32.3717 55.1889 32.5338 55.1349 33.2039C55.1133 33.5498 54.9836 33.8848 54.8863 34.2631Z" fill="#EAB840"/>
<path d="M8.38916 24.3843C7.92441 24.3843 7.6326 24.0709 7.55694 23.5197C7.35158 21.8876 6.57337 21.0878 4.94133 20.8392C4.30364 20.742 3.9794 20.4393 4.00101 19.9638C4.02263 19.4882 4.3685 19.2072 5.01699 19.1423C6.30318 19.0018 7.24348 18.1804 7.50288 16.9591C7.5353 16.7969 7.53532 16.624 7.55694 16.4619C7.6326 15.9323 7.95684 15.5864 8.39998 15.5972C8.84312 15.608 9.15654 15.9323 9.22139 16.4835C9.40513 17.8994 10.1293 18.8073 11.3398 19.0883C11.5884 19.1532 11.8586 19.1423 12.1072 19.2072C12.5503 19.3045 12.7881 19.5963 12.7665 20.0394C12.7449 20.4826 12.4855 20.7636 12.0424 20.8068C11.2858 20.8825 10.5832 21.077 10.032 21.6391C9.51321 22.1687 9.27545 22.8063 9.2106 23.5413C9.17818 24.0925 8.85392 24.3843 8.38916 24.3843ZM8.3351 20.85C8.65935 20.569 8.99443 20.2772 9.27545 20.0286C8.97282 19.7044 8.68097 19.3801 8.50804 19.1964C8.17298 19.4882 7.84876 19.7692 7.55694 20.0178C7.80553 20.2988 8.09732 20.6123 8.3351 20.85Z" fill="#EAB840"/>
<path d="M32.3725 33.3228C27.0333 33.3228 21.6832 33.3228 16.3439 33.3228C16.1818 33.3228 16.0088 33.3228 15.8467 33.3228C14.982 33.2904 14.647 32.8148 14.928 31.9934C15.3819 30.664 15.8683 29.3345 16.3331 28.0159C16.8843 26.4487 17.4463 24.8707 17.9975 23.3035C18.3866 22.2119 18.9054 21.8336 20.0727 21.8336C28.2762 21.8336 36.4689 21.8336 44.6723 21.8336C45.8288 21.8336 46.3584 22.2119 46.7475 23.3035C47.7419 26.1137 48.7362 28.9238 49.7306 31.734C50.1413 32.9121 49.8603 33.3228 48.6173 33.3228C43.2132 33.3228 37.7983 33.3228 32.3725 33.3228ZM16.8519 31.6151C27.2278 31.6151 37.5281 31.6151 47.8608 31.6151C47.8283 31.4746 47.8283 31.3557 47.7959 31.2584C46.9312 28.7941 46.0558 26.3407 45.2019 23.8656C45.083 23.5089 44.8669 23.4981 44.5751 23.4981C36.4473 23.4981 28.3194 23.5089 20.2024 23.4873C19.8133 23.4873 19.6512 23.617 19.5323 23.9628C18.7757 26.1461 17.9975 28.3294 17.2302 30.5126C17.1005 30.8693 16.9816 31.2152 16.8519 31.6151Z" fill="#EAB840"/>
<path d="M16.8952 43.2664C17.5978 43.2664 18.7975 43.5258 19.8999 44.1635C22.0291 45.3956 22.1696 47.6654 20.2242 49.1461C18.2679 50.6376 14.3661 50.6268 12.399 49.1245C10.4751 47.6546 10.6265 45.4065 12.7233 44.1851C13.7717 43.569 14.9605 43.2664 16.8952 43.2664ZM16.29 48.6165C17.3276 48.5841 18.3868 48.4219 19.2838 47.7518C20.1269 47.125 20.1161 46.39 19.2731 45.7631C17.8031 44.6715 14.8525 44.6607 13.3717 45.7415C12.4746 46.39 12.4746 47.1574 13.3825 47.7951C14.2472 48.3895 15.2308 48.5625 16.29 48.6165Z" fill="#EAB840"/>
<path d="M48.4338 50.2809C46.9746 50.2161 45.6344 49.9783 44.4996 49.1028C42.6838 47.7085 42.7054 45.7631 44.5428 44.3796C46.4991 42.8989 50.3684 42.8989 52.3247 44.3688C54.3027 45.8603 54.1513 48.1409 52.0005 49.3838C50.8656 50.0323 49.6443 50.2485 48.4338 50.2809ZM48.4122 48.6164C49.5038 48.6164 50.5522 48.3354 51.2655 47.8599C52.3031 47.1789 52.3139 46.3683 51.2872 45.6874C49.7956 44.6822 47.0611 44.693 45.5696 45.6982C44.5968 46.3575 44.586 47.1465 45.548 47.8058C46.4234 48.4111 47.4178 48.5732 48.4122 48.6164Z" fill="#EAB840"/>
<path d="M16.3116 42.2612C15.4577 42.2612 14.6039 42.2828 13.7609 42.2504C12.9827 42.2179 12.5395 41.5262 12.9718 40.975C13.134 40.7696 13.4907 40.6075 13.7717 40.5967C15.4686 40.5643 17.1763 40.5751 18.8731 40.5859C19.4676 40.5859 19.7919 40.8885 19.8135 41.3857C19.8243 41.8937 19.4784 42.2287 18.8731 42.2504C18.0085 42.272 17.1654 42.2612 16.3116 42.2612Z" fill="#EAB840"/>
<path d="M48.4446 40.586C49.2985 40.586 50.1523 40.5752 50.9954 40.586C51.5682 40.5968 51.9249 40.9102 51.9465 41.375C51.9681 41.8289 51.6006 42.2288 51.0494 42.2396C49.3093 42.2613 47.5691 42.2613 45.829 42.2396C45.2562 42.2288 44.932 41.8722 44.9428 41.375C44.9536 40.8778 45.2886 40.586 45.8831 40.586C46.7369 40.5752 47.5908 40.586 48.4446 40.586Z" fill="#EAB840"/>
</svg>
