<svg width="52" height="50" viewBox="0 0 52 50" fill="none" xmlns="http://www.w3.org/2000/svg">
<path d="M41.2213 41.6995H15.0515C13.0997 41.6995 11.5026 40.1024 11.5026 38.1506C11.5026 36.3223 12.862 34.7864 14.6432 34.6017" stroke="black" stroke-width="1.5" stroke-miterlimit="22.9256" stroke-linecap="round" stroke-linejoin="round"/>
<path d="M21.4829 48.7976C23.4429 48.7976 25.0318 47.2087 25.0318 45.2487C25.0318 43.2887 23.4429 41.6998 21.4829 41.6998C19.5229 41.6998 17.934 43.2887 17.934 45.2487C17.934 47.2087 19.5229 48.7976 21.4829 48.7976Z" stroke="black" stroke-width="1.5" stroke-miterlimit="22.9256" stroke-linecap="round" stroke-linejoin="round"/>
<path d="M41.2917 48.7976C43.2517 48.7976 44.8406 47.2087 44.8406 45.2487C44.8406 43.2887 43.2517 41.6998 41.2917 41.6998C39.3317 41.6998 37.7428 43.2887 37.7428 45.2487C37.7428 47.2087 39.3317 48.7976 41.2917 48.7976Z" stroke="black" stroke-width="1.5" stroke-miterlimit="22.9256" stroke-linecap="round" stroke-linejoin="round"/>
<path fill-rule="evenodd" clip-rule="evenodd" d="M14.6429 34.6014H47.6432L51 14.3462H12.3599L14.6429 34.6014Z" stroke="black" stroke-width="1.5" stroke-miterlimit="22.9256" stroke-linecap="round" stroke-linejoin="round"/>
<path d="M12.3599 14.3462L11.2027 4.08015C11.0422 2.6565 9.85155 1.59253 8.41902 1.59253H1" stroke="black" stroke-width="1.5" stroke-miterlimit="22.9256" stroke-linecap="round" stroke-linejoin="round"/>
<path d="M21.3236 20.989V28.5957" stroke="black" stroke-width="1.5" stroke-miterlimit="22.9256" stroke-linecap="round" stroke-linejoin="round"/>
<path d="M31.3235 20.989V28.5957" stroke="black" stroke-width="1.5" stroke-miterlimit="22.9256" stroke-linecap="round" stroke-linejoin="round"/>
<path d="M41.3231 20.989V28.5957" stroke="black" stroke-width="1.5" stroke-miterlimit="22.9256" stroke-linecap="round" stroke-linejoin="round"/>
</svg>
