<svg width="36" height="36" viewBox="0 0 36 36" fill="none" xmlns="http://www.w3.org/2000/svg">
<g id="Group 183">
<circle id="Ellipse 11" cx="18" cy="18" r="18" fill="#FFD500"/>
<g id="Group 182">
<path id="Vector" d="M17.9881 28.9509C11.912 28.9509 6.98986 24.022 7.00002 17.9492C7.01017 11.9002 11.9645 6.99155 18.0508 7.00001C24.0677 7.00847 28.9864 11.934 29 17.9678C29.0135 24.0237 24.0744 28.9492 17.9881 28.9509ZM17.9865 9.28089C13.1641 9.28428 9.29274 13.1421 9.28597 17.9526C9.2792 22.7952 13.1912 26.7394 17.9983 26.7343C22.78 26.7292 26.7563 22.7259 26.7309 17.9408C26.7056 13.1607 22.7834 9.27751 17.9865 9.28089Z" fill="black"/>
<path id="Vector_2" d="M15.5789 19.6042C17.5654 17.9968 19.4622 16.4638 21.3573 14.9291C21.5095 14.8056 21.6551 14.6702 21.8192 14.5636C22.4013 14.188 22.9546 14.2387 23.3877 14.7819C23.8023 15.303 23.7177 15.8513 23.2405 16.2878C22.7244 16.7616 22.1644 17.188 21.6195 17.6296C19.853 19.0611 18.0899 20.4959 16.3167 21.9189C15.4368 22.6245 14.8395 22.5399 14.2135 21.6296C13.4825 20.5653 12.7634 19.4942 12.0527 18.4164C11.5586 17.6668 11.6179 17.0458 12.1965 16.6431C12.7718 16.2404 13.3979 16.4113 13.9055 17.1372C14.4487 17.9156 14.9732 18.7091 15.5789 19.6042Z" fill="black"/>
</g>
</g>
</svg>
