<svg width="65" height="65" viewBox="0 0 65 65" fill="none" xmlns="http://www.w3.org/2000/svg">
<rect width="65" height="65" fill="#F2F2F2"/>
<path d="M13 34.6501C13.0561 34.2544 13.1121 33.8588 13.1738 33.4631C14.3004 26.2055 18.1681 21.0449 24.816 18.0322C25.8699 17.5574 26.9965 17.2522 28.1344 16.8565C28.1344 16.2235 28.1176 15.5509 28.14 14.8782C28.1512 14.5843 28.0447 14.4713 27.7813 14.3695C26.3183 13.8043 25.4495 12.3234 25.6961 10.8538C25.9708 9.20893 27.2095 8.05584 28.8519 8.03324C31.1949 7.99367 33.5436 7.98237 35.8922 8.03889C38.0502 8.08976 39.5301 10.1529 38.9415 12.2103C38.5996 13.403 37.7756 14.1378 36.5929 14.5221C36.5929 15.1834 36.5929 15.8448 36.5929 16.5004C36.5929 16.6418 36.6041 16.7887 36.6097 16.9357C36.7442 16.9809 36.8619 17.0261 36.9852 17.06C41.1668 18.1057 44.6141 20.3327 47.3439 23.6789C47.5737 23.9615 47.8035 24.052 48.1455 24.052C50.2194 24.0407 52.2934 24.0406 54.3674 24.0463C55.0512 24.0463 55.5053 24.442 55.5053 25.0185C55.5053 25.5951 55.0624 25.9738 54.3674 25.9794C52.7418 25.9851 51.1107 25.9794 49.4851 25.9794C49.3338 25.9794 49.1824 25.9964 49.0591 26.002C49.5468 27.1155 50.0457 28.1895 50.4941 29.2804C50.623 29.5969 50.7631 29.7156 51.1107 29.7099C54.3001 29.6986 57.4952 29.7043 60.6846 29.7043C60.8584 29.7043 61.0377 29.6987 61.2115 29.7213C61.6655 29.7778 61.9963 30.1395 62.0299 30.5917C62.0635 31.0382 61.7832 31.4622 61.346 31.5752C61.133 31.6261 60.9032 31.6374 60.6846 31.6374C57.7138 31.6431 54.7485 31.6374 51.7777 31.6374C51.5983 31.6374 51.419 31.6374 51.262 31.6374C51.4246 32.9148 51.5759 34.1018 51.7329 35.3397C51.8898 35.3397 52.0636 35.3397 52.2374 35.3397C53.4481 35.3397 54.6645 35.3284 55.8752 35.3453C56.4582 35.351 56.8618 35.7692 56.8618 36.3062C56.8618 36.8432 56.4526 37.2558 55.8696 37.2615C54.9896 37.2728 54.1151 37.2671 53.2351 37.2671C52.7138 37.2671 52.1925 37.2671 51.6992 37.2671C51.4974 38.5276 51.3069 39.7259 51.1107 40.9807C51.2901 40.9807 51.4638 40.9807 51.632 40.9807C53.3696 40.9807 55.1129 40.9807 56.8505 40.9807C57.0075 40.9807 57.17 40.9751 57.327 40.9977C57.8539 41.0655 58.2126 41.4668 58.2014 41.9699C58.1902 42.4616 57.8427 42.8347 57.3326 42.8912C57.1588 42.9138 56.9795 42.9082 56.8057 42.9082C54.8719 42.9082 52.9436 42.9195 51.0098 42.8969C50.5838 42.8912 50.3764 43.0043 50.2082 43.4282C45.7183 54.5237 32.2487 58.9099 22.1591 52.5737C21.3968 52.0989 21.1782 51.5562 21.5313 51.0193C21.8789 50.4823 22.4058 50.4597 23.1681 50.9288C27.075 53.3311 31.2902 54.0941 35.7633 53.1954C46.8618 50.9627 52.91 38.9176 48.1511 28.5738C43.0614 17.5009 28.4203 14.9234 19.9562 23.6563C16.0269 27.709 14.4518 32.6379 15.0908 38.2676C15.3823 40.8507 16.2735 43.2247 17.6356 45.4234C18 46.0113 17.8991 46.5935 17.4058 46.8931C16.9237 47.1926 16.3856 47.0231 16.0269 46.4578C14.8161 44.5417 13.9529 42.4729 13.4877 40.2516C13.2859 39.2963 13.1626 38.3241 13.0056 37.3632C13 36.4532 13 35.5545 13 34.6501ZM35.64 12.6512C36.548 12.6455 37.131 12.1255 37.1422 11.3286C37.1534 10.5146 36.5536 9.95504 35.6343 9.94939C33.4371 9.94373 31.2342 9.93808 29.0369 9.94939C28.2353 9.95504 27.6916 10.4185 27.5851 11.1364C27.4954 11.7412 27.8766 12.3742 28.4763 12.5664C28.6837 12.6342 28.9135 12.6455 29.1322 12.6455C30.214 12.6512 31.3014 12.6512 32.3833 12.6512C33.4707 12.6512 34.5525 12.6569 35.64 12.6512ZM30.057 16.5457C31.5873 16.5457 33.1007 16.5457 34.6422 16.5457C34.6422 15.9239 34.6422 15.2852 34.6422 14.6182C33.1175 14.6182 31.6097 14.6182 30.057 14.6182C30.057 15.2795 30.057 15.907 30.057 16.5457Z" fill="#EAB840"/>
<path d="M47.1926 35.9105C47.2318 44.1686 40.6007 50.9175 32.4001 50.9627C24.2443 51.0079 17.546 44.3155 17.4955 36.0744C17.4451 27.7825 24.065 21.0505 32.3104 21.011C40.4718 20.9658 47.1534 27.6581 47.1926 35.9105ZM19.4125 35.967C19.4013 43.1568 25.2085 49.0239 32.3385 49.0296C39.4628 49.0352 45.2812 43.1738 45.2812 35.984C45.2812 28.7773 39.5021 22.9441 32.3553 22.9328C25.2141 22.9271 19.4182 28.7603 19.4125 35.967Z" fill="#EAB840"/>
<path d="M60.1184 41.9359C60.1184 42.4615 60.5332 42.8798 61.0601 42.8855C61.6094 42.8911 62.041 42.4559 62.0242 41.9076C62.0074 41.3876 61.5758 40.9693 61.0601 40.975C60.5444 40.9863 60.1184 41.4159 60.1184 41.9359Z" fill="#EAB840"/>
<path d="M20.2869 49.0465C20.2701 48.5152 19.8441 48.1196 19.3116 48.1365C18.7903 48.1535 18.3699 48.5887 18.3811 49.103C18.3923 49.64 18.8519 50.0639 19.39 50.0357C19.9169 50.0131 20.3093 49.5835 20.2869 49.0465Z" fill="#EAB840"/>
<path d="M33.5548 38.7085C32.4113 39.2285 31.3239 39.0476 30.3878 38.2224C29.4405 37.3802 29.1434 36.2893 29.5302 35.074C29.6423 34.7179 29.5694 34.537 29.3284 34.294C28.1177 33.1013 26.9293 31.8861 25.7354 30.6822C25.4551 30.3995 25.158 30.1226 24.9002 29.8173C24.5583 29.4217 24.5919 28.8564 24.945 28.506C25.2982 28.1499 25.8419 28.1386 26.2455 28.4721C26.3576 28.5625 26.4529 28.6699 26.5538 28.7717C27.9551 30.1848 29.3564 31.5922 30.7466 33.0053C30.9371 33.1974 31.0885 33.2596 31.3631 33.1522C32.0078 32.9035 32.686 32.9035 33.3306 33.1522C33.6109 33.2596 33.7622 33.1918 33.9416 32.9996C34.5189 32.4005 35.1075 31.807 35.7017 31.2248C36.1669 30.7669 36.7555 30.75 37.1422 31.1569C37.529 31.5639 37.5066 32.1122 37.0638 32.57C36.5649 33.09 36.066 33.6157 35.5391 34.1018C35.186 34.4297 34.9562 34.7292 35.214 35.2379C35.3205 35.4414 35.3037 35.7071 35.3317 35.8936C35.2701 37.2219 34.7095 38.1828 33.5548 38.7085ZM31.2903 35.9897C31.2959 36.5775 31.7891 37.0636 32.3665 37.0523C32.927 37.041 33.3923 36.5662 33.3979 36.001C33.4091 35.4075 32.9382 34.9327 32.3497 34.927C31.7555 34.9214 31.2847 35.3962 31.2903 35.9897Z" fill="#EAB840"/>
<path d="M31.3855 26.098C31.3855 26.2563 31.3743 26.4202 31.3855 26.5785C31.4191 27.1098 31.7891 27.4885 32.2935 27.5111C32.8092 27.5337 33.2408 27.1607 33.2857 26.6124C33.3137 26.2789 33.3137 25.9398 33.2857 25.6063C33.2408 25.058 32.826 24.6906 32.3048 24.7019C31.7778 24.7189 31.4135 25.0976 31.3855 25.6685C31.3743 25.8098 31.3855 25.9511 31.3855 26.098Z" fill="#EAB840"/>
<path d="M22.5515 36.9732C22.7589 36.9619 22.9663 36.9732 23.1681 36.9336C23.6614 36.8375 23.9641 36.4306 23.9361 35.9332C23.9136 35.4414 23.5549 35.074 23.0504 35.0401C22.7365 35.0175 22.417 35.0231 22.0975 35.0344C21.5538 35.057 21.1558 35.464 21.1502 35.9784C21.1446 36.4701 21.5146 36.8884 22.0246 36.9506C22.1984 36.9732 22.3722 36.9562 22.5459 36.9562C22.5459 36.9619 22.5459 36.9676 22.5515 36.9732Z" fill="#EAB840"/>
<path d="M33.3081 45.8643C33.3081 45.706 33.3137 45.5421 33.3081 45.3838C33.2745 44.8582 32.8989 44.4738 32.4001 44.4512C31.9068 44.4286 31.4696 44.7847 31.4135 45.2991C31.3743 45.6495 31.3799 46.0056 31.4079 46.356C31.4472 46.8987 31.8844 47.2887 32.3889 47.2717C32.8989 47.2548 33.2857 46.8478 33.3081 46.2995C33.3137 46.1526 33.3081 46.0056 33.3081 45.8643Z" fill="#EAB840"/>
<path d="M42.1029 35.0004C41.9292 35.0061 41.7498 35.0061 41.576 35.0287C41.094 35.0909 40.7632 35.4583 40.752 35.9387C40.7352 36.4248 41.0267 36.8318 41.5088 36.8996C41.9011 36.9505 42.3047 36.9561 42.6971 36.9166C43.2016 36.8657 43.5435 36.4418 43.5323 35.9613C43.5267 35.4583 43.1511 35.0683 42.6242 35.0231C42.4504 35.0061 42.2711 35.0231 42.0973 35.0231C42.1029 35.0118 42.1029 35.0061 42.1029 35.0004Z" fill="#EAB840"/>
</svg>
