<svg width="75" height="75" viewBox="0 0 75 75" fill="none" xmlns="http://www.w3.org/2000/svg">
<path d="M37.5 75C58.2107 75 75 58.2107 75 37.5C75 16.7893 58.2107 0 37.5 0C16.7893 0 0 16.7893 0 37.5C0 58.2107 16.7893 75 37.5 75Z" fill="#F29100"/>
<path d="M37.5 53.1547C33.2866 53.1547 29.0731 53.1547 24.8597 53.1547C22.8529 53.1547 21.6709 51.9684 21.6709 49.9616C21.6709 43.4735 21.6794 36.9854 21.6624 30.4931C21.6582 29.1326 22.2321 28.1844 23.4226 27.5339C27.6105 25.2295 31.79 22.9081 35.9651 20.5824C36.9855 20.0126 37.9805 19.9956 39.0051 20.5654C43.2441 22.9208 47.4915 25.272 51.7305 27.6274C52.8104 28.2269 53.3333 29.1453 53.3333 30.3825C53.3291 36.9429 53.3333 43.499 53.3291 50.0594C53.3291 51.9514 52.1131 53.1589 50.2211 53.1632C45.9821 53.1547 41.739 53.1547 37.5 53.1547ZM27.4362 38.2482C27.4362 38.4523 27.4362 38.5756 27.4362 38.6989C27.4362 41.0246 27.4362 43.3502 27.4362 45.6759C27.4362 46.8919 27.9549 47.4064 29.1837 47.4064C34.7279 47.4064 40.2764 47.4064 45.8206 47.4064C47.0451 47.4064 47.5638 46.8919 47.5638 45.6717C47.568 43.3587 47.5638 41.0501 47.5638 38.7371C47.5638 38.6011 47.5638 38.465 47.5638 38.2609C47.3554 38.363 47.2066 38.431 47.0621 38.5033C44.1539 39.9531 41.2415 41.3987 38.3376 42.857C37.7636 43.1462 37.2322 43.1462 36.6539 42.8528C35.1573 42.0832 33.648 41.3477 32.1429 40.5951C30.6037 39.8256 29.0646 39.0603 27.4362 38.2482ZM27.4362 33.0824C27.4362 33.4395 27.4362 33.7712 27.4362 34.1028C27.4405 34.7405 27.7381 35.1912 28.3078 35.4761C31.2925 36.9642 34.273 38.4523 37.2619 39.9319C37.3895 39.9956 37.5978 40.0041 37.7211 39.9446C40.7355 38.4523 43.7415 36.9472 46.7475 35.4463C47.1344 35.255 47.432 34.9574 47.5 34.5407C47.5765 34.0688 47.5553 33.5798 47.5765 33.0824C40.8291 33.0824 34.1582 33.0824 27.4362 33.0824Z" fill="white"/>
</svg>
