<svg width="54" height="54" viewBox="0 0 54 54" fill="none" xmlns="http://www.w3.org/2000/svg">
<g id="Group 167">
<circle id="Ellipse 11" cx="27" cy="27" r="27" fill="#FFD500"/>
<g id="Group 180">
<path id="Vector" d="M26.9814 42C18.7219 42.0154 12.0192 35.3109 12 27.0149C11.9809 18.7367 18.6662 12.0236 26.9511 12.0001C35.2336 11.9766 41.9585 18.6891 41.9628 26.9839C41.9672 35.2874 35.2855 41.9845 26.9814 42ZM26.9647 39.6433C33.8895 39.6847 39.5499 34.0577 39.6123 27.0699C39.6742 20.092 34.0509 14.4149 27.0142 14.353C20.0914 14.2918 14.3988 19.9516 14.3518 26.9431C14.3042 33.9284 19.938 39.6012 26.9647 39.6433Z" fill="black"/>
<path id="Vector_2" d="M27.9083 30.3386C27.3411 30.7543 26.7671 31.0332 26.0984 31.1019C25.1322 31.2009 24.3578 30.8675 23.7801 30.0961C22.9654 29.0081 22.8027 27.7796 23.0842 26.4838C23.3879 25.0846 24.0893 23.9236 25.272 23.0867C25.9481 22.6085 26.7182 22.5219 27.5186 22.6215C28.011 22.6828 28.3456 23.0013 28.6128 23.3514C28.7551 23.138 28.8436 22.872 29.0254 22.7681C29.2196 22.6568 29.5036 22.6642 29.7448 22.679C30.3033 22.7131 30.5767 23.0675 30.4926 23.6217C30.3906 24.2928 30.2718 24.9615 30.1648 25.632C29.9873 26.7497 29.8023 27.8662 29.6427 28.9871C29.5691 29.5048 29.8091 29.6743 30.299 29.4658C30.8712 29.2221 31.3543 28.8436 31.679 28.3135C32.6446 26.7392 32.8351 25.0654 32.0279 23.3935C31.3029 21.8922 29.9638 21.1438 28.3469 20.9625C25.7069 20.6669 23.5073 21.6912 22.2009 24.0448C21.2359 25.7829 21.1512 27.6423 21.7797 29.5153C22.1891 30.7345 23.0242 31.6376 24.1759 32.1819C26.2821 33.1778 28.4421 33.2458 30.6108 32.3644C31.4607 32.0192 32.1244 31.4242 32.7126 30.7295C32.8722 30.5409 33.0955 30.385 33.3194 30.2767C33.5798 30.1512 33.8631 30.1598 34.0908 30.3924C34.3215 30.6281 34.34 30.9046 34.2231 31.1934C33.9899 31.7675 33.6188 32.2462 33.1567 32.6526C32.1132 33.5705 30.8699 34.0778 29.5227 34.3159C27.3745 34.6963 25.2652 34.5442 23.2716 33.6052C20.918 32.4967 19.6803 30.5934 19.5071 28.0091C19.3871 26.2178 19.6908 24.5081 20.73 23.0032C22.1199 20.991 24.046 19.8461 26.4801 19.5646C28.3524 19.3475 30.1147 19.6401 31.7081 20.6997C33.0503 21.5929 34.0332 22.7465 34.3753 24.3739C34.8757 26.7566 33.6522 29.477 31.5615 30.6058C30.912 30.9565 30.2149 31.1205 29.4844 31.1229C28.8485 31.126 28.2813 30.9435 27.9083 30.3386ZM25.0376 28.2763C25.0815 28.4786 25.1069 28.7928 25.2182 29.0724C25.4811 29.7287 26.3025 29.8784 26.7887 29.3687C26.9427 29.2073 27.0751 29.0155 27.1803 28.8182C27.6652 27.9027 27.9776 26.9267 28.1576 25.9085C28.2479 25.397 28.2831 24.8854 28.045 24.3974C27.8737 24.046 27.617 23.9304 27.2359 24.0108C26.8506 24.0924 26.5611 24.3232 26.3396 24.6256C25.5683 25.6803 25.1495 26.8667 25.0376 28.2763Z" fill="black"/>
</g>
</g>
</svg>
