<svg width="182" height="48" viewBox="0 0 182 48" fill="none" xmlns="http://www.w3.org/2000/svg">
<g clip-path="url(#clip0_365_1032)">
<path d="M58.0404 24.9135H71.3735V28.3951H61.9164V33.8162H69.6099V37.2628H61.9164V45.4432H58.0404V24.9135Z" fill="white"/>
<path d="M80.6184 43.7011C79.5573 45.0157 78.2767 45.9355 76.4496 45.9355C73.7884 45.9355 71.8662 44.0635 71.8662 41.6666C71.8662 38.8723 73.8542 36.5105 80.6184 36.2805V35.9181C80.6184 33.8811 79.7817 33.0264 77.6693 33.0264C76.1618 33.0264 74.3348 33.7187 72.7614 34.6359L71.9955 31.5842C73.8672 30.4405 76.0023 29.828 78.1815 29.8097C82.7308 29.8097 84.4944 31.8792 84.3968 36.0581V41.4767C84.3968 42.6264 84.592 42.7888 85.714 42.8563L85.4238 45.778C82.6039 46.108 81.2892 45.2207 80.7428 43.7086L80.6184 43.7011ZM80.6184 38.3175C76.9326 38.7749 75.5837 39.5322 75.5837 41.1392C75.5837 42.2914 76.4496 43.1112 77.7961 43.1112C78.3304 43.1086 78.8582 42.9901 79.3446 42.7635C79.831 42.5369 80.2651 42.2074 80.6184 41.7966V38.3175Z" fill="white"/>
<path d="M94.5199 45.9355C89.7121 45.9355 86.8582 42.8813 86.8582 37.9226C86.8582 32.9639 90.0097 29.8097 94.6444 29.8097C96.6641 29.8097 98.396 30.2696 99.7425 31.0894L98.9399 34.211C97.7438 33.4276 96.3566 33.0049 94.9371 32.9914C92.2051 32.9914 90.7415 34.9009 90.7415 37.8226C90.7415 40.9118 92.449 42.7188 94.9419 42.7188C96.3886 42.7314 97.8086 42.3204 99.0351 41.5341L99.6449 44.6858C98.3618 45.4756 96.5031 45.9355 94.5224 45.9355" fill="white"/>
<path d="M104.733 38.7099C104.894 41.1717 106.529 42.8488 109.158 42.8488C110.789 42.8217 112.384 42.3451 113.773 41.4692L114.261 44.6858C112.851 45.4756 110.895 45.9355 108.909 45.9355C104.165 45.9355 101.021 42.8488 101.021 38.0201C101.021 33.0938 104.228 29.8097 108.651 29.8097C112.554 29.8097 114.749 32.2391 114.749 35.9506C114.74 36.8088 114.624 37.6622 114.403 38.4899L104.723 38.6249L104.733 38.7099ZM111.178 36.313V36.0631C111.178 34.0261 110.309 32.7439 108.358 32.7439C106.272 32.7439 105.021 34.4935 104.828 36.358L111.178 36.313Z" fill="white"/>
<path d="M124.35 45.903C123.231 45.8886 122.12 45.7119 121.049 45.3782L117.425 45.9355V23.4939L121.21 22.9715V31.7417C122.206 30.757 123.55 29.8047 125.343 29.8047C129.245 29.8047 131.819 33.0539 131.819 37.7202C131.819 42.5489 128.55 45.898 124.35 45.898V45.903ZM124.255 33.0539C123.121 33.0548 122.031 33.5022 121.21 34.3035V41.9566C121.913 42.5164 122.876 42.8088 123.999 42.8088C126.528 42.8088 127.972 40.7069 127.972 37.8826C127.972 34.9284 126.594 33.0539 124.255 33.0539Z" fill="white"/>
<path d="M141.081 45.9355C136.756 45.9355 133.612 42.9138 133.612 37.8876C133.612 32.8614 136.912 29.7772 141.274 29.7772C145.635 29.7772 148.741 32.8639 148.741 37.8551C148.741 42.8463 145.408 45.9355 141.081 45.9355V45.9355ZM141.145 32.8964C138.678 32.8964 137.33 34.9334 137.33 37.8551C137.33 40.7769 138.742 42.7813 141.208 42.7813C143.674 42.7813 144.991 40.8118 144.991 37.8876C144.991 34.9634 143.579 32.8889 141.145 32.8889" fill="white"/>
<path d="M158.046 45.9355C153.719 45.9355 150.575 42.9138 150.575 37.8876C150.575 32.8614 153.88 29.7772 158.239 29.7772C162.598 29.7772 165.708 32.8639 165.708 37.8551C165.708 42.8463 162.371 45.9355 158.046 45.9355V45.9355ZM158.112 32.8964C155.641 32.8964 154.297 34.9334 154.297 37.8551C154.297 40.7769 155.705 42.7813 158.176 42.7813C160.615 42.7813 161.954 40.8118 161.954 37.8876C161.954 34.9634 160.547 32.8889 158.112 32.8889" fill="white"/>
<path d="M172.096 38.1525V45.4432H168.313V23.5014L172.096 22.979V37.0328H172.162L177.451 30.3021H181.968L175.846 37.4952L182 45.4432H177.482L172.162 38.1525H172.096Z" fill="white"/>
<path fill-rule="evenodd" clip-rule="evenodd" d="M2.58564 0H44.2633C44.9486 0.00066246 45.6057 0.280078 46.09 0.776848C46.5744 1.27362 46.8465 1.9471 46.8465 2.64931V45.3507C46.8468 45.6985 46.7802 46.0429 46.6505 46.3643C46.5209 46.6858 46.3307 46.9778 46.0907 47.2239C45.8508 47.4699 45.566 47.6651 45.2524 47.7983C44.9388 47.9315 44.6027 48 44.2633 48H32.3229V29.4123H38.4138L39.3261 22.1642H32.3229V17.5429C32.3229 15.446 32.8913 14.0163 35.8282 14.0163H39.5701V7.53552C37.7584 7.3385 35.9376 7.24255 34.1158 7.24809C28.7177 7.24809 25.0222 10.6222 25.0222 16.8231V22.1692H18.924V29.4173H25.0222V48H2.58564C1.89989 48 1.24222 47.7209 0.757317 47.224C0.272415 46.7272 0 46.0533 0 45.3507V2.64931C0.000645838 1.94687 0.273268 1.27339 0.758031 0.776696C1.24279 0.279997 1.90009 0.000661741 2.58564 0Z" fill="white"/>
<path d="M98.5613 6.68329V12.5193C98.5613 13.9339 99.1321 14.3913 100.144 14.3913C100.904 14.385 101.634 14.0881 102.191 13.559V6.68329H104.581V16.1983L102.191 16.5307V15.1161C101.801 15.5612 101.326 15.9201 100.796 16.1706C100.266 16.4212 99.6914 16.5582 99.1077 16.5732C97.2855 16.5732 96.1805 15.3235 96.1805 13.2691V6.68329H98.5613Z" fill="white"/>
<path d="M109.905 16.5907C108.645 16.5855 107.404 16.28 106.28 15.6985L106.807 13.7865C107.776 14.3469 108.865 14.6542 109.978 14.6812C110.91 14.6812 111.519 14.2863 111.519 13.6215C111.519 12.8717 110.729 12.6043 109.634 12.3343C107.87 11.9195 106.463 11.1722 106.463 9.36262C106.463 7.55309 107.941 6.3634 110.193 6.3634C111.372 6.36547 112.536 6.62804 113.608 7.1332L113.078 9.04021C112.164 8.56779 111.162 8.29945 110.139 8.25291C109.268 8.25291 108.744 8.58533 108.744 9.20766C108.744 9.93497 109.531 10.1824 110.629 10.4573C112.41 10.8922 113.8 11.5995 113.8 13.4691C113.8 15.2561 112.302 16.5832 109.897 16.5832" fill="white"/>
<path d="M124.542 16.5732C121.805 16.5732 119.822 14.6612 119.822 11.4845C119.822 8.30782 121.905 6.35333 124.662 6.35333C127.418 6.35333 129.387 8.30283 129.387 11.462C129.387 14.6212 127.281 16.5732 124.542 16.5732ZM124.584 8.32532C123.02 8.32532 122.171 9.61248 122.171 11.462C122.171 13.3115 123.062 14.5787 124.625 14.5787C126.189 14.5787 127.016 13.329 127.016 11.4845C127.016 9.63998 126.125 8.32532 124.576 8.32532" fill="white"/>
<path d="M137.248 16.2608V10.4223C137.248 9.01017 136.702 8.53279 135.629 8.53279C134.855 8.55748 134.118 8.87543 133.56 9.42506V16.2608H131.165V6.72576L133.56 6.39335V7.90795C134.39 6.9757 135.512 6.37335 136.641 6.37335C138.524 6.37335 139.639 7.62303 139.639 9.67499V16.2608H137.248Z" fill="white"/>
<path d="M74.8224 12.2693V16.8906H72.3319V2.97926L74.8224 2.64685V11.557H74.8688L78.3472 7.29314H81.3207L77.291 11.8495L81.3426 16.8906H78.3691L74.8688 12.2693H74.8224Z" fill="white"/>
<path d="M83.753 12.2269C83.8579 13.819 84.9117 14.9062 86.6192 14.9062C87.6754 14.8869 88.7072 14.5779 89.6073 14.0114L89.9195 16.0959C88.8436 16.6471 87.6537 16.924 86.4509 16.9032C83.3774 16.9032 81.343 14.9037 81.343 11.7795C81.343 8.58782 83.4213 6.46088 86.2826 6.46088C88.8194 6.46088 90.2293 8.03297 90.2293 10.4373C90.2289 10.99 90.1584 11.5403 90.0195 12.0744L83.753 12.1594V12.2269ZM87.9266 10.6723V10.4973C87.9266 9.18267 87.3632 8.35038 86.0972 8.35038C84.7483 8.35038 83.9409 9.48009 83.814 10.6923L87.9266 10.6723Z" fill="white"/>
<path d="M68.9291 5.58357C67.9925 5.58357 67.4656 5.00122 67.4656 4.10895C67.4656 3.21669 67.99 2.63434 68.9291 2.63434C69.8683 2.63434 70.4073 3.23668 70.4073 4.10895C70.4073 4.98123 69.8829 5.58357 68.9291 5.58357V5.58357ZM67.7315 16.9031V7.3906L70.1244 7.03569V16.9031H67.7315Z" fill="white"/>
<path d="M57.9789 16.9031V2.98676H60.3987V14.6937L66.3895 14.6812V16.9031H57.9789Z" fill="white"/>
</g>
<defs>
<clipPath id="clip0_365_1032">
<rect width="182" height="48" fill="white"/>
</clipPath>
</defs>
</svg>
