<svg width="118" height="94" viewBox="0 0 118 94" fill="none" xmlns="http://www.w3.org/2000/svg">
<g id="logo">
<g id="Group">
<path id="Vector" d="M59.6215 78.8672C58.3882 78.8282 57.3912 78.3127 56.532 77.4502C53.6583 74.5628 50.7682 71.6897 47.8863 68.8105C39.2406 60.1729 30.595 51.5332 21.9493 42.8935C21.682 42.6265 21.4086 42.3657 21.1702 42.0761C19.8711 40.5112 19.869 38.3631 21.1661 36.7983C21.384 36.5354 21.6286 36.2951 21.8711 36.0528C33.3268 24.6078 44.7824 13.1628 56.2401 1.71788C56.53 1.42831 56.8177 1.13053 57.1405 0.877936C58.6369 -0.290588 60.6843 -0.292642 62.1848 0.871776C62.4808 1.10178 62.746 1.37287 63.0132 1.63984C74.5182 13.132 86.0191 24.6304 97.5343 36.1123C98.856 37.4308 99.5467 38.9156 98.8869 40.7289C98.6176 41.4662 98.0852 42.1644 97.5199 42.7312C90.9298 49.3584 84.3109 55.9567 77.6981 62.5633C72.7566 67.5003 67.8109 72.429 62.8796 77.3742C61.9669 78.2881 60.9309 78.861 59.6215 78.8672ZM60.0696 0.674626C58.454 0.695162 57.5721 1.33795 56.7458 2.16557C45.2737 13.6434 33.7893 25.1089 22.309 36.5785C22.163 36.7243 22.015 36.866 21.8773 37.018C20.5412 38.4864 20.535 40.3695 21.8609 41.8297C22.0438 42.033 22.2432 42.2219 22.4364 42.417C27.4499 47.4259 32.4655 52.4327 37.479 57.4415C43.8985 63.853 50.3119 70.2706 56.7417 76.6718C57.2186 77.1462 57.7571 77.633 58.3615 77.8938C59.897 78.5592 61.2146 78.0663 62.3616 76.9162C66.3987 72.8664 70.4482 68.831 74.4935 64.7895C81.9778 57.3121 89.4683 49.841 96.9361 42.3493C97.4562 41.8276 97.966 41.2115 98.227 40.54C98.817 39.0224 98.225 37.7696 97.115 36.6627C85.5524 25.1294 74.0022 13.5838 62.4479 2.04235C62.23 1.82467 62.0265 1.56385 61.7614 1.43037C61.1036 1.09973 60.417 0.826596 60.0696 0.674626Z" fill="#242424"/>
<path id="Vector_2" d="M110.408 93.0887C106.587 93.1585 102.866 90.5155 102.928 85.4122C102.986 80.543 107.391 78.093 110.647 78.2101C114.727 78.3559 118.047 81.5678 118 85.7059C117.944 90.419 114.248 93.2386 110.408 93.0887ZM110.427 88.735C111.977 89.0554 113.607 87.2276 113.557 85.7059C113.51 84.3032 112.429 82.6583 110.41 82.6192C108.77 82.5884 107.44 84.0445 107.335 85.6812C107.232 87.2749 108.916 89.0451 110.427 88.735Z" fill="white"/>
<path id="Vector_3" d="M46.6714 93.0913C42.8686 93.1981 39.037 90.5571 39.0925 85.2628C39.1316 81.6053 42.5274 78.3441 46.2603 78.2147C50.4947 78.0689 54.1269 81.287 54.1454 85.6756C54.1639 89.8363 50.7558 93.231 46.6714 93.0913ZM46.5583 88.7356C48.4207 88.7397 49.7095 87.5506 49.7568 85.7865C49.802 84.045 48.396 82.6711 46.5768 82.6793C44.7926 82.6876 43.4729 84.0163 43.5038 85.7701C43.5366 87.5383 44.7659 88.7314 46.5583 88.7356Z" fill="white"/>
<path id="Vector_4" d="M65.2024 93.0395C65.2024 89.7722 65.2024 86.6075 65.2024 83.3997C64.7604 83.3771 64.3966 83.3587 63.9875 83.3361C64.3925 81.8348 64.7872 80.3809 65.1859 78.9043C66.6351 78.9043 68.0247 78.9043 69.4862 78.9043C69.4862 79.6313 69.4862 80.3357 69.4862 81.0421C69.554 81.0565 69.6239 81.0709 69.6917 81.0853C69.8911 80.4158 70.0885 79.7483 70.3084 79.009C72.364 79.007 74.0989 79.7257 75.4802 81.2988C77.8955 84.0487 77.7372 89.1089 74.5778 91.5835C73.217 92.6493 71.624 92.9636 69.9713 93.0272C68.4317 93.0847 66.8921 93.0395 65.2024 93.0395ZM69.5622 89.3204C71.6836 89.3327 73.2725 87.8418 73.2355 85.9504C73.1985 84.1082 71.4369 82.49 69.5622 82.6255C69.5622 84.8291 69.5622 87.0347 69.5622 89.3204Z" fill="white"/>
<path id="Vector_5" d="M2.91273 83.4549C2.57151 83.4179 2.27345 83.3851 1.82328 83.3378C2.20151 81.9003 2.57151 80.4956 2.93534 79.1094C5.03201 79.1094 7.00946 79.1094 8.97869 79.1094C10.2984 83.8245 11.6036 88.4925 12.9213 93.2015C11.507 93.2015 10.1195 93.2015 8.67653 93.2015C8.51825 92.6059 8.36408 92.035 8.2058 91.4395C7.00124 91.4395 5.84396 91.4395 4.64146 91.4395C4.45851 92.033 4.27557 92.6265 4.09673 93.2015C2.72156 93.2015 1.42656 93.2015 0 93.2015C0.982558 89.9177 1.94045 86.7079 2.91273 83.4549ZM7.24996 87.4061C6.95602 86.3259 6.69496 85.3607 6.43185 84.3934C6.3743 84.4057 6.31469 84.418 6.25713 84.4304C6.02485 85.3976 5.79463 86.367 5.54591 87.4061C6.13791 87.4061 6.6333 87.4061 7.24996 87.4061Z" fill="white"/>
<path id="Vector_6" d="M83.8505 87.5254C83.8505 87.9444 83.8505 88.2627 83.8505 88.6632C85.5443 88.6632 87.1743 88.6632 88.9524 88.6632C88.6112 90.1048 88.2946 91.4335 87.9719 92.793C85.1476 92.793 82.3458 92.793 79.4434 92.793C79.4434 89.5688 79.4434 86.3384 79.4434 83.0341C79.059 83.0095 78.7671 82.993 78.4094 82.9704C78.765 81.5247 79.1104 80.1261 79.4763 78.6373C80.9213 78.6373 82.3869 78.6496 83.8525 78.629C84.2637 78.6229 84.7426 78.8118 85.0448 78.3107C85.09 78.2347 85.2976 78.2368 85.4292 78.2368C86.5556 78.2306 87.6821 78.2347 88.9524 78.2347C88.6811 79.4526 88.4303 80.5862 88.1754 81.7198C88.1384 81.8841 88.0274 82.0484 88.0377 82.2065C88.0829 82.954 87.6389 83.0238 87.051 83.0095C86.0253 82.9828 84.9975 83.0012 83.8772 83.0012C83.8772 83.3771 83.8772 83.72 83.8772 84.1636C85.4806 84.1636 87.0407 84.1636 88.6605 84.1636C88.4303 85.1555 88.1857 86.0324 88.0336 86.9237C87.9493 87.4207 87.7006 87.5316 87.2709 87.5295C86.1753 87.5193 85.0797 87.5254 83.8505 87.5254Z" fill="white"/>
<path id="Vector_7" d="M13.0548 78.8965C14.6088 78.8965 16.0744 78.8965 17.6038 78.8965C18.206 81.0795 18.8022 83.2441 19.4003 85.4086C19.4497 85.4127 19.499 85.4148 19.5483 85.4189C20.1424 83.2666 20.7364 81.1144 21.3428 78.915C22.8598 78.915 24.3542 78.915 25.8897 78.915C24.2905 83.585 22.6933 88.2529 21.0756 92.9804C20.0191 92.9804 18.9789 92.9804 17.8792 92.9804C16.2759 88.3022 14.6746 83.6281 13.0548 78.8965Z" fill="white"/>
<path id="Vector_8" d="M38.7638 78.6475C38.3507 80.2699 37.9622 81.7875 37.5531 83.3955C36.5068 83.3955 35.4975 83.3955 34.4143 83.3955C34.4143 86.6978 34.4143 89.8953 34.4143 93.1688C32.961 93.1688 31.5776 93.1688 30.0709 93.1688C30.0709 89.9857 30.0709 86.7635 30.0709 83.4592C28.8684 83.4592 27.7851 83.4592 26.6011 83.4592C26.9629 81.9375 27.2979 80.5204 27.6494 79.05C29.6433 79.05 31.5899 79.0665 33.5345 79.0356C33.9518 79.0295 34.3649 78.8488 34.7802 78.7461C34.9097 78.7153 35.0392 78.6516 35.1687 78.6516C36.3259 78.6434 37.4832 78.6475 38.7638 78.6475Z" fill="white"/>
<path id="Vector_9" d="M92.5929 78.6826C94.0195 78.6826 95.3782 78.6826 96.8438 78.6826C96.8438 81.9274 96.8438 85.1537 96.8438 88.4806C97.9579 88.4806 98.9692 88.4806 100.028 88.4806C100.412 89.9592 100.772 91.3557 101.148 92.8014C98.295 92.8014 95.4727 92.8014 92.5929 92.8014C92.5929 88.1191 92.5929 83.4512 92.5929 78.6826Z" fill="white"/>
<path id="Vector_10" d="M60.0696 0.674805C60.415 0.826775 61.1036 1.09786 61.7593 1.4326C62.0245 1.56609 62.228 1.8269 62.4459 2.04459C74.0002 13.5861 85.5504 25.1296 97.1129 36.665C98.2229 37.7719 98.8149 39.0246 98.225 40.5422C97.9639 41.2138 97.4541 41.8319 96.9341 42.3515C89.4642 49.8432 81.9757 57.3144 74.4914 64.7917C70.4461 68.8333 66.3966 72.8687 62.3595 76.9185C61.2146 78.0685 59.8949 78.5594 58.3594 77.896C57.7551 77.6352 57.2165 77.1485 56.7396 76.6741C50.3098 70.2729 43.8965 63.8573 37.477 57.4438C32.4634 52.4349 27.4479 47.4281 22.4344 42.4193C22.2411 42.2262 22.0438 42.0352 21.8588 41.8319C20.533 40.3718 20.5391 38.4886 21.8752 37.0202C22.013 36.8683 22.161 36.7245 22.3069 36.5808C33.7893 25.1091 45.2737 13.6436 56.7458 2.16575C57.5742 1.33813 58.456 0.695341 60.0696 0.674805ZM59.7387 64.6726C60.9556 64.6377 61.9731 64.1674 62.8385 63.2987C69.7369 56.3964 76.6498 49.5064 83.5441 42.6C85.3983 40.7435 85.388 38.3654 83.5668 36.4966C82.6829 35.5888 81.7764 34.7037 80.8801 33.8083C74.8717 27.8076 68.8695 21.8007 62.8529 15.8061C61.0172 13.9783 58.604 13.9064 56.8198 15.6808C49.8268 22.6344 42.8543 29.6086 35.8983 36.5992C35.4337 37.0675 35.0534 37.6979 34.8438 38.3243C34.2723 40.0268 34.8376 41.4602 36.0792 42.6986C41.3661 47.9682 46.6427 53.2482 51.9234 58.524C53.5227 60.1217 55.1301 61.7112 56.717 63.3172C57.5536 64.1612 58.5485 64.613 59.7387 64.6726Z" fill="#FDFDFD"/>
<path id="Vector_11" d="M59.7387 64.6726C58.5485 64.613 57.5536 64.1612 56.7191 63.3171C55.1301 61.7091 53.5227 60.1217 51.9255 58.5239C46.6447 53.2481 41.3681 47.9682 36.0812 42.6985C34.8397 41.4602 34.2744 40.0267 34.8458 38.3243C35.0555 37.6979 35.4358 37.0674 35.9003 36.5992C42.8563 29.6086 49.8288 22.6344 56.8218 15.6808C58.6061 13.9064 61.0193 13.9783 62.8549 15.806C68.8715 21.7986 74.8738 27.8055 80.8822 33.8083C81.7784 34.7037 82.6829 35.5909 83.5688 36.4965C85.3921 38.3653 85.4003 40.7435 83.5462 42.6C76.6518 49.5064 69.739 56.3964 62.8405 63.2987C61.971 64.1653 60.9556 64.6376 59.7387 64.6726ZM59.8168 64.0298C60.8096 63.9764 61.673 63.5636 62.4109 62.8263C69.2826 55.9507 76.1667 49.0874 83.0344 42.2098C84.7096 40.5319 84.7117 38.5502 83.0364 36.8744C76.1688 29.9967 69.2929 23.1252 62.4068 16.264C60.7726 14.6355 58.7726 14.6334 57.1384 16.2619C50.2276 23.1458 43.3271 30.0419 36.443 36.9524C36.0237 37.3734 35.668 37.93 35.4707 38.4906C34.9445 39.9857 35.4933 41.2158 36.5725 42.2899C40.6713 46.3705 44.7577 50.4654 48.8504 54.5522C51.5863 57.2856 54.3305 60.0108 57.0562 62.7565C57.8147 63.5184 58.6862 63.9825 59.8168 64.0298Z" fill="#0F0D0A"/>
<path id="Vector_12" d="M59.8169 64.0302C58.6863 63.9829 57.8148 63.5209 57.0563 62.7569C54.3306 60.0133 51.5864 57.286 48.8505 54.5526C44.7578 50.4638 40.6714 46.3709 36.5726 42.2903C35.4934 41.2162 34.9446 39.9861 35.4708 38.491C35.6682 37.9304 36.0217 37.3739 36.4431 36.9529C43.3272 30.0423 50.2277 23.1462 57.1385 16.2624C58.7727 14.6338 60.7727 14.6359 62.4069 16.2644C69.293 23.1257 76.1689 29.9972 83.0365 36.8748C84.7118 38.5526 84.7097 40.5324 83.0345 42.2102C76.1648 49.0879 69.2827 55.9511 62.411 62.8267C61.6731 63.564 60.8097 63.9768 59.8169 64.0302ZM52.6779 30.5866C52.756 30.6502 52.8341 30.7139 52.9143 30.7775L52.8958 30.7734C53.2494 30.9213 53.5906 31.1369 53.9606 31.2027C54.419 31.2868 54.902 31.2478 55.3728 31.2643C56.0305 31.8906 56.6883 32.517 57.4735 33.2625C58.1128 32.4122 58.674 31.6668 59.3523 30.7673C58.9165 30.3997 58.5096 30.0341 58.0799 29.6953C57.5352 29.264 57.2885 28.765 57.3482 28.0236C57.4263 27.042 56.9329 26.2431 56.1724 25.6373C55.3543 24.9883 54.3203 24.8918 53.5515 25.3847C54.1929 26.0295 54.828 26.6703 55.3748 27.2206C54.7479 27.8614 54.2299 28.3912 53.6646 28.9662C53.0315 28.344 52.3696 27.693 51.6296 26.9639C51.2123 28.1653 51.4836 29.0771 52.0016 29.954C52.2319 30.1656 52.4621 30.3791 52.6923 30.5907C52.6882 30.5948 52.6779 30.5866 52.6779 30.5866ZM66.8469 41.2778C66.9476 41.206 67.0463 41.132 67.147 41.0602C67.9816 39.8649 67.9549 39.5487 66.9291 38.526C66.037 37.6347 65.1428 36.7454 64.2487 35.8562C63.4593 35.0697 62.668 34.2831 61.8622 33.4843C61.1283 34.2256 60.0553 34.4063 59.6011 35.5215C61.521 37.4108 63.4634 39.3207 65.4039 41.2306C65.8685 41.896 66.3597 41.6824 66.8551 41.2737C66.8551 41.2696 66.8469 41.2778 66.8469 41.2778ZM60.9063 33.4986L60.9248 33.4945C61.7553 33.1762 61.1509 32.6053 61.1674 32.0036C62.67 30.5126 64.2446 28.9498 65.8212 27.3911C65.9178 27.2966 66.0329 27.1672 66.148 27.157C66.9168 27.081 67.1614 26.4094 67.5561 25.9248C67.9199 25.4771 67.6794 25.1998 67.2128 25.0089C66.5489 25.5202 65.9507 25.9987 65.4943 26.7298C64.999 27.5225 64.2117 28.1366 63.5251 28.8019C62.5241 29.7733 61.5004 30.72 60.4849 31.677C59.6504 31.2684 59.4777 31.2684 59.081 31.9687C58.6288 32.7696 58.0614 33.4083 57.2104 33.7861C57.0295 33.8662 56.8815 34.0244 56.7274 34.1537C56.0244 34.739 55.3563 35.3695 54.6163 35.9055C53.3789 36.8009 52.3593 37.8852 51.5741 39.1852C51.1363 39.9081 51.2267 40.5139 51.7529 41.0376C52.2771 41.5592 52.8835 41.627 53.6132 41.1587C54.7993 40.3989 55.8455 39.485 56.6965 38.3432C57.3029 37.5299 58.0018 36.7865 58.6432 35.9979C58.8097 35.7926 58.9145 35.5379 59.0461 35.3038C59.2722 34.9814 59.4983 34.6589 59.7223 34.3365C59.9854 34.1537 60.2486 33.9689 60.5117 33.7861C60.6432 33.6876 60.7748 33.5931 60.9063 33.4986ZM46.7661 37.569C46.466 35.2607 44.8339 33.9566 42.4022 34.0839C40.4432 34.1866 38.9365 35.7597 38.8728 37.7682C38.8275 37.8585 38.7392 37.9489 38.7433 38.0372C38.8831 40.7788 40.9448 42.4032 43.469 42.0644C45.4177 41.8036 47.2512 39.7705 46.7661 37.569ZM79.9819 37.801C80.0806 35.9856 78.2327 34.0469 76.0558 34.0387C73.7618 34.0285 71.957 35.9096 72.0187 37.7969C71.7268 40.2695 74.066 42.128 75.9962 42.1383C77.9654 42.1465 80.2964 40.1874 79.9819 37.801ZM57.3995 50.7493C57.5249 50.8745 57.6462 51.1066 57.7737 51.1086C58.9638 51.1374 60.1561 51.1374 61.3462 51.1086C61.4737 51.1066 61.597 50.8725 61.7224 50.7472C61.7224 48.6196 61.7224 46.49 61.7224 44.383C60.2136 44.383 58.8282 44.383 57.3995 44.383C57.3995 46.5434 57.3995 48.6463 57.3995 50.7493ZM71.6384 50.7657C71.6734 48.901 71.7124 47.0363 71.7412 45.1716C71.7453 44.9107 71.7021 44.6499 71.6795 44.3809C70.1892 44.3809 68.7709 44.3809 67.2827 44.3809C67.2827 46.5331 67.2827 48.6299 67.2827 50.7287C67.4327 50.8622 67.5807 51.1066 67.7349 51.1107C68.8614 51.1436 69.9878 51.1436 71.1143 51.1128C71.2931 51.1086 71.4658 50.8868 71.6384 50.7657ZM62.2219 44.5534C61.8581 44.3665 61.9341 44.6479 61.9341 44.8306C61.9321 46.4366 61.9341 48.0425 61.9341 49.6485C61.9341 49.9401 61.9341 50.2338 61.9341 50.5254C62.1212 50.1147 62.1171 49.7101 62.1232 49.3035C62.1458 47.8064 62.1746 46.3072 62.1993 44.8101C62.226 45.1818 62.2712 45.5535 62.2774 45.9252C62.3062 47.5291 62.3226 49.1351 62.3452 50.739C62.5014 50.8704 62.6536 51.1086 62.8139 51.1128C63.9362 51.1456 65.0606 51.1456 66.183 51.1128C66.3556 51.1086 66.5221 50.8827 66.6907 50.7595C66.7256 50.5952 66.7914 50.4309 66.7935 50.2666C66.8017 48.4266 66.8037 46.5886 66.7955 44.7485C66.7955 44.6253 66.7195 44.5021 66.6619 44.3296C65.3155 44.3296 63.9897 44.3234 62.6638 44.3398C62.5158 44.3439 62.3699 44.4795 62.2219 44.5534ZM56.8754 50.7102C56.9782 50.5624 57.1693 50.4145 57.1714 50.2625C57.1919 48.4512 57.1919 46.642 57.1714 44.8306C57.1693 44.6807 56.9782 44.5349 56.8754 44.385C55.3933 44.385 53.9092 44.385 52.3305 44.385C52.3305 46.0608 52.3203 47.6544 52.3367 49.2501C52.3408 49.7553 52.4169 50.2584 52.4621 50.7616C52.5895 50.8827 52.7149 51.1086 52.8444 51.1128C54.0325 51.1395 55.2207 51.1395 56.4088 51.1128C56.5383 51.1107 56.6637 50.8807 56.7911 50.7575L56.8199 50.7102H56.8754ZM51.8393 50.7308C51.8393 48.6299 51.8393 46.5311 51.8393 44.4014C50.3284 44.4014 48.8916 44.4014 47.3787 44.4014C47.3787 45.5905 47.3664 46.7077 47.3828 47.8249C47.3972 48.8044 47.4465 49.784 47.4815 50.7657C47.6212 50.8868 47.759 51.1066 47.9008 51.1107C49.0971 51.1374 50.2935 51.1374 51.4878 51.1066C51.607 51.1045 51.72 50.8622 51.8393 50.7308Z" fill="#FFD04D"/>
<path id="Vector_13" d="M59.0441 35.2996C58.9104 35.5316 58.8077 35.7883 58.6412 35.9937C57.9998 36.7823 57.3009 37.5257 56.6945 38.339C55.8435 39.4829 54.7973 40.3947 53.6112 41.1545C52.8835 41.6228 52.2771 41.555 51.7509 41.0334C51.2247 40.5097 51.1363 39.9039 51.5721 39.181C52.3573 37.8831 53.3769 36.7987 54.6143 35.9013C55.3523 35.3653 56.0224 34.7348 56.7254 34.1495C56.8816 34.0202 57.0296 33.862 57.2084 33.7819C58.0594 33.4041 58.6268 32.7654 59.079 31.9645C59.4757 31.2642 59.6463 31.2642 60.4829 31.6728C60.8201 32.2335 60.9722 32.8393 60.9228 33.4924L60.9043 33.4965C60.7728 33.5909 60.6412 33.6834 60.5097 33.7778C60.2466 33.9606 59.9834 34.1454 59.7203 34.3282C59.0687 34.3549 59.081 34.8457 59.0441 35.2996Z" fill="#333733"/>
<path id="Vector_14" d="M51.9974 29.9574C51.4773 29.0805 51.208 28.1666 51.6253 26.9673C52.3674 27.6963 53.0272 28.3474 53.6603 28.9696C54.2256 28.3925 54.7436 27.8647 55.3705 27.224C54.8238 26.6736 54.1886 26.0329 53.5473 25.388C54.316 24.8952 55.352 24.9917 56.1681 25.6406C56.9307 26.2465 57.422 27.0453 57.3439 28.027C57.2843 28.7663 57.5309 29.2653 58.0757 29.6987C58.5032 30.0375 58.9123 30.4031 59.3481 30.7707C58.6718 31.6702 58.1106 32.4156 57.4693 33.2658C56.6861 32.5204 56.0283 31.894 55.3685 31.2676C55.241 31.1752 55.1239 31.0171 54.9862 30.9986C54.2914 30.9041 53.5904 30.8466 52.8915 30.7768L52.91 30.7809C52.8319 30.7173 52.7538 30.6536 52.6736 30.5899L52.6839 30.5981C52.4578 30.3825 52.2276 30.1689 51.9974 29.9574Z" fill="#343833"/>
<path id="Vector_15" d="M65.4039 41.2278C63.4635 39.3179 61.521 37.408 59.6011 35.5187C60.0554 34.4035 61.1284 34.2228 61.8622 33.4814C62.6659 34.2803 63.4573 35.0669 64.2487 35.8534C65.1429 36.7426 66.035 37.6339 66.9291 38.5231C67.9549 39.5459 67.9816 39.8621 67.147 41.0573C67.0463 41.1292 66.9477 41.2032 66.8469 41.275L66.8572 41.2668C66.3721 41.2545 65.889 41.2422 65.4039 41.2278ZM65.4224 39.2727C65.2415 39.6301 65.3011 39.9545 65.6629 40.1168C65.8376 40.1969 66.1336 40.1763 66.3001 40.0778C66.6085 39.8909 66.7709 39.5952 66.481 39.2419C65.9384 38.7182 65.9116 38.7182 65.4224 39.2727Z" fill="#313633"/>
<path id="Vector_16" d="M47.4794 50.7656C47.4445 49.786 47.3972 48.8064 47.3807 47.8248C47.3643 46.7076 47.3766 45.5904 47.3766 44.4014C48.8895 44.4014 50.3264 44.4014 51.8372 44.4014C51.8372 46.531 51.8372 48.6319 51.8372 50.7307C50.386 50.743 48.9327 50.7533 47.4794 50.7656ZM50.5237 45.9703C49.9728 45.9026 49.2595 46.1819 48.76 46.7179C48.61 46.8781 48.61 47.1779 48.5031 47.5373C48.9183 47.4634 49.1691 47.4182 49.5206 47.3545C49.5206 48.0096 49.5206 48.6134 49.5206 49.2562C49.9029 49.2562 50.1928 49.2562 50.5216 49.2562C50.5237 48.1205 50.5237 47.0424 50.5237 45.9703Z" fill="#0A0804"/>
<path id="Vector_17" d="M52.462 50.7613C52.4188 50.2582 52.3428 49.755 52.3366 49.2499C52.3202 47.6562 52.3304 46.0605 52.3304 44.3848C53.9091 44.3848 55.3912 44.3848 56.8753 44.3848C56.8753 46.4918 56.8753 48.6009 56.8753 50.7079H56.8198L56.791 50.7552C55.348 50.7572 53.905 50.7593 52.462 50.7613ZM53.2164 47.6357C53.2205 47.7035 53.2287 47.8411 53.2431 47.9766C53.3377 48.911 53.7385 49.3299 54.5628 49.3587C55.4076 49.3895 55.8455 49.0075 55.9585 48.0711C56.0017 47.7055 55.9893 47.3174 55.9153 46.9559C55.7427 46.1057 55.1938 45.7566 54.3428 45.8921C53.5473 46.0195 53.2267 46.498 53.2164 47.6357Z" fill="#0E0C06"/>
<path id="Vector_18" d="M62.3432 50.7387C62.3227 49.1348 62.3042 47.5288 62.2754 45.9249C62.2692 45.5532 62.224 45.1815 62.1973 44.8098C62.2055 44.7236 62.2137 44.6373 62.2219 44.5531C62.3699 44.4792 62.5159 44.3416 62.6639 44.3395C63.9897 44.3231 65.3156 44.3293 66.6619 44.3293C66.7195 44.5038 66.7956 44.625 66.7956 44.7482C66.8017 46.5883 66.8017 48.4263 66.7935 50.2663C66.7935 50.4306 66.7277 50.5949 66.6907 50.7592C65.2416 50.7531 63.7924 50.7469 62.3432 50.7387ZM65.9137 47.6438C65.8993 47.5083 65.887 47.3379 65.8664 47.1695C65.7554 46.2987 65.3526 45.89 64.5838 45.8654C63.7595 45.8387 63.262 46.27 63.1675 47.1428C63.1305 47.4775 63.1346 47.8266 63.186 48.1593C63.3361 49.1389 64.1459 49.6112 65.0709 49.2785C65.8356 49.0054 65.8541 48.3318 65.9137 47.6438Z" fill="#0E0C06"/>
<path id="Vector_19" d="M67.2848 50.7277C67.2848 48.6289 67.2848 46.5301 67.2848 44.3799C68.773 44.3799 70.1893 44.3799 71.6816 44.3799C71.7043 44.6489 71.7474 44.9097 71.7433 45.1705C71.7145 47.0352 71.6755 48.9 71.6405 50.7647C70.1872 50.7523 68.736 50.74 67.2848 50.7277ZM70.8944 47.563C70.8882 47.487 70.882 47.3166 70.8553 47.1482C70.7114 46.2508 70.2325 45.8195 69.4267 45.8606C68.6168 45.9016 68.1831 46.3514 68.1152 47.2694C68.0906 47.6062 68.0947 47.9594 68.1605 48.29C68.3167 49.0581 68.8799 49.4401 69.6631 49.3641C70.4853 49.284 70.8944 48.7192 70.8944 47.563Z" fill="#0C0A05"/>
<path id="Vector_20" d="M57.3995 50.7491C57.3995 48.6462 57.3995 46.5412 57.3995 44.3828C58.8282 44.3828 60.2136 44.3828 61.7224 44.3828C61.7224 46.4899 61.7224 48.6174 61.7224 50.7471C60.2814 50.7491 58.8405 50.7491 57.3995 50.7491ZM60.9495 47.6029C60.9351 46.3482 60.378 45.7423 59.3647 45.8738C58.6267 45.9703 58.2793 46.3543 58.193 47.1758C58.0717 48.3258 58.3451 49.0425 59.0029 49.2869C59.0974 49.3218 59.2002 49.3362 59.3009 49.3526C60.3904 49.519 60.9659 48.907 60.9495 47.6029Z" fill="#070606"/>
<path id="Vector_21" d="M72.0206 37.7963C71.9589 35.909 73.7637 34.0279 76.0577 34.0381C78.2345 34.0484 80.0825 35.985 79.9838 37.8004C79.5419 38.2317 79.4905 39.1065 78.5943 39.0223C78.2798 38.7389 77.9653 38.4535 77.6651 38.1803C78.9643 36.3012 78.9643 36.3012 77.9324 35.4942C77.9262 35.3956 77.9591 35.2559 77.9057 35.2025C77.0341 34.3236 74.9703 34.3215 74.1049 35.2005C74.0535 35.2539 74.0885 35.3935 74.0823 35.4921C73.036 36.2828 73.0381 36.3033 74.3434 38.1824C74.0391 38.4555 73.7246 38.7389 73.4081 39.0203C72.5036 39.1086 72.4687 38.2194 72.0206 37.7963Z" fill="#81807D"/>
<path id="Vector_22" d="M38.8748 37.768C38.9385 35.7595 40.4452 34.1864 42.4042 34.0837C44.8338 33.9564 46.468 35.2605 46.7681 37.5688C46.5708 38.3142 46.1042 38.8461 45.4484 39.2281C45.1113 38.8277 44.7722 38.4251 44.4474 38.0391C45.7979 36.4701 45.8102 36.2031 44.6221 35.472C44.5502 35.3056 44.5255 35.0736 44.4001 34.9832C43.3559 34.2439 41.8348 34.4123 40.8522 35.3508C40.474 35.8786 39.8203 36.314 40.2787 37.1129C39.9149 37.7988 40.661 38.0062 40.8543 38.4498C40.6282 38.7085 40.402 38.9673 40.1759 39.2261C39.7422 38.7435 39.3085 38.2547 38.8748 37.768Z" fill="#81807D"/>
<path id="Vector_23" d="M38.8749 37.7676C39.3086 38.2543 39.7423 38.741 40.176 39.2277C40.1267 39.7555 40.1555 40.2607 40.6879 40.5605C41.6746 41.115 42.1124 40.0964 42.8051 39.776C43.5122 40.08 43.9501 41.1171 44.9347 40.5585C45.4609 40.2607 45.5082 39.7596 45.4465 39.2277C46.1022 38.8457 46.5688 38.3138 46.7662 37.5684C47.2513 39.7699 45.4177 41.8009 43.4691 42.0638C40.9448 42.4026 38.8831 40.7782 38.7433 38.0366C38.7413 37.9503 38.8297 37.8579 38.8749 37.7676Z" fill="#C9C8C3"/>
<path id="Vector_24" d="M72.0207 37.7969C72.4688 38.222 72.5037 39.1112 73.4041 39.0229C73.3568 39.5938 73.2211 40.1832 73.8707 40.5529C74.8738 41.1238 75.3014 40.097 76.0434 39.7663C76.3189 39.9984 76.5655 40.3188 76.8903 40.4522C77.2315 40.5939 77.6611 40.6432 78.0229 40.5755C78.469 40.4892 78.6375 40.0785 78.6396 39.6328C78.6396 39.4295 78.6108 39.2262 78.5944 39.025C79.4906 39.1071 79.542 38.2343 79.9839 37.803C80.2964 40.1894 77.9674 42.1486 76.0003 42.1383C74.068 42.128 71.7288 40.2695 72.0207 37.7969Z" fill="#CBCAC8"/>
<path id="Vector_25" d="M60.9248 33.4936C60.9741 32.8405 60.822 32.2347 60.4849 31.6741C61.5003 30.7171 62.524 29.7703 63.525 28.7989C64.2116 28.1336 64.9989 27.5195 65.4943 26.7268C65.9527 25.9937 66.5488 25.5152 67.2127 25.0059C67.6793 25.1968 67.9198 25.4741 67.556 25.9218C67.1613 26.4064 66.9188 27.078 66.1479 27.154C66.0308 27.1663 65.9157 27.2936 65.8211 27.3881C64.2445 28.9468 62.6699 30.5096 61.1673 32.0006C61.1509 32.6044 61.7552 33.1753 60.9248 33.4936Z" fill="#393E3B"/>
<path id="Vector_26" d="M47.4795 50.7654C48.9328 50.7531 50.3861 50.7428 51.8373 50.7305C51.7201 50.8619 51.605 51.1042 51.4858 51.1083C50.2915 51.1371 49.0931 51.1391 47.8988 51.1124C47.757 51.1083 47.6193 50.8865 47.4795 50.7654Z" fill="#CECC6F"/>
<path id="Vector_27" d="M52.4622 50.761C53.9052 50.759 55.3482 50.7569 56.7912 50.7549C56.6637 50.8781 56.5383 51.1081 56.4088 51.1102C55.2207 51.1389 54.0326 51.1369 52.8445 51.1102C52.715 51.1081 52.5896 50.8822 52.4622 50.761Z" fill="#CECC6F"/>
<path id="Vector_28" d="M57.3995 50.7491C58.8405 50.7491 60.2814 50.7491 61.7224 50.7471C61.597 50.8723 61.4757 51.1044 61.3462 51.1085C60.156 51.1373 58.9638 51.1373 57.7736 51.1085C57.6462 51.1065 57.5229 50.8765 57.3995 50.7491Z" fill="#CECC6F"/>
<path id="Vector_29" d="M67.2848 50.7285C68.736 50.7408 70.1872 50.7532 71.6385 50.7655C71.4638 50.8866 71.2931 51.1084 71.1164 51.1146C69.9899 51.1475 68.8635 51.1454 67.737 51.1125C67.5828 51.1084 67.4348 50.862 67.2848 50.7285Z" fill="#CECC6F"/>
<path id="Vector_30" d="M62.3433 50.7383C63.7924 50.7444 65.2416 50.7527 66.6887 50.7588C66.5202 50.882 66.3537 51.1079 66.181 51.112C65.0587 51.1449 63.9343 51.1449 62.8119 51.112C62.6537 51.1079 62.4995 50.8697 62.3433 50.7383Z" fill="#CECC6F"/>
<path id="Vector_31" d="M62.222 44.5528C62.2138 44.639 62.2056 44.7253 62.1973 44.8095C62.1706 46.3066 62.1439 47.8057 62.1213 49.3028C62.1151 49.7074 62.1213 50.114 61.9322 50.5248C61.9322 50.2331 61.9322 49.9395 61.9322 49.6478C61.9322 48.0419 61.9301 46.4359 61.9322 44.83C61.9342 44.6472 61.8561 44.3659 62.222 44.5528Z" fill="#FEEA00"/>
<path id="Vector_32" d="M56.8752 50.7099C56.8752 48.6029 56.8752 46.4938 56.8752 44.3867C56.978 44.5346 57.1692 44.6824 57.1712 44.8324C57.1918 46.6437 57.1918 48.4529 57.1712 50.2643C57.1692 50.4121 56.9801 50.56 56.8752 50.7099Z" fill="#FEEA00"/>
<path id="Vector_33" d="M52.8958 30.7725C53.5946 30.8423 54.2956 30.8998 54.9904 30.9943C55.1281 31.0127 55.2453 31.1688 55.3727 31.2633C54.8999 31.2489 54.4189 31.2859 53.9605 31.2017C53.5905 31.1339 53.2493 30.9203 52.8958 30.7725Z" fill="#CECC6F"/>
<path id="Vector_34" d="M65.4038 41.2275C65.8869 41.2419 66.372 41.2563 66.855 41.2707C66.3596 41.6793 65.8684 41.8929 65.4038 41.2275Z" fill="#CECC6F"/>
<path id="Vector_35" d="M59.0438 35.2993C59.0808 34.8454 59.0685 34.3567 59.7201 34.332C59.496 34.6524 59.2699 34.9769 59.0438 35.2993Z" fill="#393E3B"/>
<path id="Vector_36" d="M51.9974 29.957C52.2277 30.1686 52.4579 30.3821 52.6881 30.5937C52.4579 30.3821 52.2277 30.1686 51.9974 29.957Z" fill="#CECC6F"/>
<path id="Vector_37" d="M60.5117 33.7794C60.6433 33.6849 60.7748 33.5925 60.9064 33.498C60.7748 33.5925 60.6433 33.687 60.5117 33.7794Z" fill="#393E3B"/>
<path id="Vector_38" d="M66.8468 41.2773C66.9475 41.2054 67.0462 41.1314 67.1469 41.0596C67.0462 41.1314 66.9455 41.2054 66.8468 41.2773Z" fill="#CECC6F"/>
<path id="Vector_39" d="M52.6779 30.5859C52.756 30.6496 52.8341 30.7133 52.9143 30.7769C52.8341 30.7133 52.756 30.6496 52.6779 30.5859Z" fill="#CECC6F"/>
<path id="Vector_40" d="M66.481 39.2422C66.7687 39.5954 66.6063 39.8911 66.3001 40.078C66.1356 40.1786 65.8396 40.1971 65.6628 40.117C65.3011 39.9548 65.2415 39.6303 65.4223 39.273C65.7738 39.2627 66.1274 39.2525 66.481 39.2422Z" fill="#FBCA01"/>
<path id="Vector_41" d="M66.4809 39.2415C66.1273 39.2518 65.7758 39.2621 65.4222 39.2723C65.9115 38.7179 65.9382 38.7179 66.4809 39.2415Z" fill="#CECC6F"/>
<path id="Vector_42" d="M50.5237 45.97C50.5237 47.042 50.5237 48.1201 50.5237 49.2558C50.1948 49.2558 49.905 49.2558 49.5226 49.2558C49.5226 48.611 49.5226 48.0092 49.5226 47.3541C49.1711 47.4178 48.9183 47.463 48.5051 47.5369C48.61 47.1775 48.612 46.8797 48.7621 46.7175C49.2595 46.1815 49.9707 45.9022 50.5237 45.97Z" fill="#E6E6E6"/>
<path id="Vector_43" d="M53.2166 47.6352C53.2268 46.4975 53.5495 46.019 54.3409 45.8917C55.194 45.7561 55.7408 46.1052 55.9134 46.9555C55.9874 47.3169 56.0018 47.705 55.9566 48.0706C55.8436 49.007 55.4057 49.389 54.5609 49.3582C53.7345 49.3295 53.3337 48.9085 53.2412 47.9761C53.2289 47.8406 53.2207 47.703 53.2166 47.6352ZM54.5835 48.7011C55.1837 47.9289 55.1611 47.1629 54.5691 46.6022C54.0121 47.2758 54.0018 47.8221 54.5835 48.7011Z" fill="#EBEBEB"/>
<path id="Vector_44" d="M65.9136 47.6438C65.854 48.3297 65.8355 49.0054 65.0708 49.2805C64.1458 49.6132 63.3359 49.1388 63.1859 48.1613C63.1345 47.8286 63.1304 47.4795 63.1674 47.1447C63.2619 46.2719 63.7594 45.8407 64.5837 45.8674C65.3504 45.892 65.7553 46.3028 65.8663 47.1714C65.8869 47.3398 65.8992 47.5082 65.9136 47.6438ZM64.4501 46.5923C63.9218 47.4076 63.9732 48.1284 64.5939 48.6254C65.1531 47.7793 65.1058 47.0975 64.4501 46.5923Z" fill="#EBEBEB"/>
<path id="Vector_45" d="M70.8943 47.5636C70.8964 48.7199 70.4873 49.2846 69.661 49.3626C68.8778 49.4366 68.3166 49.0546 68.1583 48.2886C68.0905 47.9579 68.0864 47.6068 68.1131 47.2679C68.181 46.3499 68.6147 45.9002 69.4246 45.8591C70.2303 45.8181 70.7114 46.2493 70.8532 47.1468C70.8799 47.3172 70.8861 47.4897 70.8943 47.5636ZM69.4472 46.5266C68.9189 47.3644 68.9312 47.958 69.4513 48.6439C70.0721 48.0504 70.0926 47.3357 69.4472 46.5266Z" fill="#E6E6E6"/>
<path id="Vector_46" d="M60.9494 47.6022C60.9659 48.9063 60.3903 49.5183 59.3008 49.3519C59.2001 49.3376 59.0974 49.3211 59.0028 49.2862C58.345 49.0418 58.0716 48.3251 58.1929 47.1751C58.2792 46.3536 58.6266 45.9696 59.3646 45.8731C60.378 45.7416 60.933 46.3495 60.9494 47.6022ZM59.5249 46.6001C58.9925 47.3599 59.0377 48.13 59.6421 48.5962C60.1087 47.7809 60.0717 47.1504 59.5249 46.6001Z" fill="#E6E6E6"/>
<path id="Vector_47" d="M78.5945 39.0227C78.6109 39.226 78.6397 39.4293 78.6397 39.6306C78.6377 40.0762 78.4712 40.487 78.023 40.5732C77.6613 40.6431 77.2316 40.5917 76.8904 40.45C76.5656 40.3165 76.319 39.9962 76.0435 39.7641C75.3015 40.0947 74.8739 41.1236 73.8708 40.5506C73.2212 40.181 73.3569 39.5916 73.4042 39.0207C73.7207 38.7373 74.0352 38.4539 74.3395 38.1828C73.0342 36.3037 73.0321 36.2832 74.0784 35.4925C75.0301 35.2009 75.3816 36.1476 76.0189 36.4844C76.6335 36.0408 77.0096 35.2276 77.9305 35.4946C78.9645 36.3016 78.9645 36.3016 77.6633 38.1807C77.9655 38.4539 78.28 38.7373 78.5945 39.0227Z" fill="#050505"/>
<path id="Vector_48" d="M77.9306 35.4948C77.0076 35.2279 76.6315 36.0411 76.0189 36.4847C75.3837 36.1479 75.0302 35.2012 74.0784 35.4928C74.0846 35.3942 74.0497 35.2546 74.1011 35.2012C74.9685 34.3222 77.0302 34.3243 77.9018 35.2032C77.9573 35.2587 77.9244 35.3963 77.9306 35.4948Z" fill="#EBEBEB"/>
<path id="Vector_49" d="M45.4466 39.2278C45.5082 39.7617 45.4589 40.2608 44.9347 40.5585C43.9501 41.1171 43.5123 40.08 42.8052 39.7761C42.1124 40.0965 41.6726 41.1151 40.6879 40.5606C40.1556 40.2608 40.1288 39.7556 40.1761 39.2278C40.4022 38.969 40.6283 38.7103 40.8544 38.4515C41.2388 38.3016 41.2882 38.049 41.0209 37.7656C40.7969 37.5253 40.5276 37.3302 40.2768 37.1146C39.8184 36.3157 40.4721 35.8783 40.8503 35.3525C41.6993 35.4018 42.2584 35.9768 42.8196 36.5026C43.9234 35.525 43.9234 35.525 44.6202 35.4737C45.8083 36.2069 45.796 36.4718 44.4455 38.0408C44.7723 38.4268 45.1095 38.8273 45.4466 39.2278Z" fill="#030303"/>
<path id="Vector_50" d="M44.6201 35.4739C43.9212 35.5253 43.9212 35.5253 42.8194 36.5028C42.2583 35.9771 41.6992 35.402 40.8502 35.3528C41.8328 34.4163 43.3539 34.2458 44.3981 34.9852C44.5256 35.0735 44.5502 35.3055 44.6201 35.4739Z" fill="#EBEBEB"/>
<path id="Vector_51" d="M40.2767 37.1143C40.5254 37.3299 40.7967 37.527 41.0208 37.7653C41.2859 38.0507 41.2387 38.3033 40.8543 38.4512C40.659 38.0055 39.9128 37.7981 40.2767 37.1143Z" fill="#393E3B"/>
<path id="Vector_52" d="M54.5834 48.7014C54.0017 47.8224 54.012 47.2761 54.569 46.6025C55.161 47.1611 55.1836 47.9292 54.5834 48.7014Z" fill="#242424"/>
<path id="Vector_53" d="M64.4501 46.5918C65.1058 47.097 65.1531 47.7788 64.594 48.6249C63.9732 48.1279 63.9218 47.4091 64.4501 46.5918Z" fill="#242424"/>
<path id="Vector_54" d="M69.4472 46.5264C70.0906 47.3355 70.0721 48.0502 69.4514 48.6437C68.9313 47.9578 68.919 47.3643 69.4472 46.5264Z" fill="#242424"/>
<path id="Vector_55" d="M59.5249 46.6006C60.0717 47.151 60.1087 47.7814 59.6421 48.5967C59.0377 48.1285 58.9925 47.3604 59.5249 46.6006Z" fill="#0F0D0A"/>
</g>
</g>
</svg>
