<svg width="52" height="50" viewBox="0 0 52 50" fill="none" xmlns="http://www.w3.org/2000/svg">
<path d="M41.1709 41.6995H15.0011C13.0494 41.6995 11.4522 40.1024 11.4522 38.1506C11.4522 36.3223 12.8116 34.7864 14.5929 34.6017" stroke="black" stroke-width="1.5" stroke-miterlimit="22.9256" stroke-linecap="round" stroke-linejoin="round"/>
<path d="M21.4326 48.7976C23.3926 48.7976 24.9815 47.2087 24.9815 45.2487C24.9815 43.2887 23.3926 41.6998 21.4326 41.6998C19.4726 41.6998 17.8837 43.2887 17.8837 45.2487C17.8837 47.2087 19.4726 48.7976 21.4326 48.7976Z" stroke="black" stroke-width="1.5" stroke-miterlimit="22.9256" stroke-linecap="round" stroke-linejoin="round"/>
<path d="M41.2414 48.7976C43.2014 48.7976 44.7903 47.2087 44.7903 45.2487C44.7903 43.2887 43.2014 41.6998 41.2414 41.6998C39.2814 41.6998 37.6925 43.2887 37.6925 45.2487C37.6925 47.2087 39.2814 48.7976 41.2414 48.7976Z" stroke="black" stroke-width="1.5" stroke-miterlimit="22.9256" stroke-linecap="round" stroke-linejoin="round"/>
<path fill-rule="evenodd" clip-rule="evenodd" d="M14.5926 34.6014H47.5929L50.9497 14.3462H12.3096L14.5926 34.6014Z" stroke="black" stroke-width="1.5" stroke-miterlimit="22.9256" stroke-linecap="round" stroke-linejoin="round"/>
<path d="M12.3096 14.3462L11.1523 4.08015C10.9919 2.6565 9.80123 1.59253 8.3687 1.59253H0.949677" stroke="black" stroke-width="1.5" stroke-miterlimit="22.9256" stroke-linecap="round" stroke-linejoin="round"/>
<path d="M21.2733 20.989V28.5957" stroke="black" stroke-width="1.5" stroke-miterlimit="22.9256" stroke-linecap="round" stroke-linejoin="round"/>
<path d="M31.2732 20.989V28.5957" stroke="black" stroke-width="1.5" stroke-miterlimit="22.9256" stroke-linecap="round" stroke-linejoin="round"/>
<path d="M41.2728 20.989V28.5957" stroke="black" stroke-width="1.5" stroke-miterlimit="22.9256" stroke-linecap="round" stroke-linejoin="round"/>
<path fill-rule="evenodd" clip-rule="evenodd" d="M21.202 14.3462H31.166V7.81053H22.5327C21.8006 7.81053 21.202 8.40912 21.202 9.14122V14.3462Z" stroke="black" stroke-width="1.5" stroke-miterlimit="22.9256" stroke-linecap="round" stroke-linejoin="round"/>
<path fill-rule="evenodd" clip-rule="evenodd" d="M44.6657 14.3462H31.166V6.034C31.166 5.30219 31.7649 4.7036 32.4967 4.7036H43.3353C44.0671 4.7036 44.666 5.30219 44.666 6.034V14.3462H44.6657Z" stroke="black" stroke-width="1.5" stroke-miterlimit="22.9256" stroke-linecap="round" stroke-linejoin="round"/>
</svg>
