<svg width="16" height="16" viewBox="0 0 16 16" fill="none" xmlns="http://www.w3.org/2000/svg">
<path fill-rule="evenodd" clip-rule="evenodd" d="M0.242188 8.22641C0.242188 12.4432 3.71537 15.8615 7.99976 15.8615C12.2842 15.8615 15.7573 12.4432 15.7573 8.22641C15.7573 4.00966 12.2842 0.591309 7.99976 0.591309C3.71537 0.591309 0.242188 4.00966 0.242188 8.22641ZM14.4644 8.22641C14.4644 11.7404 11.5701 14.589 7.99976 14.589C4.42944 14.589 1.53512 11.7404 1.53512 8.22641C1.53512 4.71245 4.42944 1.86383 7.99976 1.86383C11.5701 1.86383 14.4644 4.71245 14.4644 8.22641Z" fill="#070A0D"/>
<path fill-rule="evenodd" clip-rule="evenodd" d="M6.85257 13.1061C7.33053 13.9964 7.92144 14.589 7.99978 14.589C7.64275 14.589 7.35332 14.8739 7.35332 15.2253C7.35332 15.5767 7.64275 15.8615 7.99978 15.8615C6.84714 15.8615 5.50686 13.9631 4.84973 11.4077H6.1678C6.34752 12.0272 6.57878 12.5962 6.85257 13.1061ZM5.88467 10.1352C5.9555 10.5791 6.05071 11.0041 6.1678 11.4077H9.83176C9.65204 12.0272 9.42079 12.5962 9.147 13.1061C8.66904 13.9964 8.07813 14.589 7.99978 14.589C8.35682 14.589 8.64625 14.8739 8.64625 15.2253C8.64625 15.5767 8.35682 15.8615 7.99978 15.8615C9.15243 15.8615 10.4927 13.9631 11.1498 11.4077H14.4644C14.8215 11.4077 15.1109 11.1228 15.1109 10.7714C15.1109 10.42 14.8215 10.1352 14.4644 10.1352H11.4093C11.5033 9.51754 11.5553 8.87651 11.5553 8.22641C11.5553 7.57647 11.5039 6.93541 11.4107 6.31764H14.4644C14.8215 6.31764 15.1109 6.03277 15.1109 5.68138C15.1109 5.32998 14.8215 5.04512 14.4644 5.04512H11.1533C10.5015 2.49088 9.16904 0.591309 7.99978 0.591309C6.83053 0.591309 5.49803 2.49088 4.84622 5.04512H1.53514C1.1781 5.04512 0.888672 5.32998 0.888672 5.68138C0.888672 6.03277 1.1781 6.31764 1.53514 6.31764H4.58889C4.4957 6.93541 4.44423 7.57647 4.44423 8.22641C4.44423 8.87651 4.49625 9.51754 4.59026 10.1352H1.53514C1.1781 10.1352 0.888672 10.42 0.888672 10.7714C0.888672 11.1228 1.1781 11.4077 1.53514 11.4077H4.84973C4.74455 10.9987 4.65687 10.5728 4.59026 10.1352H5.88467ZM5.88391 6.31764C5.78816 6.92164 5.73716 7.56014 5.73716 8.22641C5.73716 8.89367 5.78841 9.53195 5.88467 10.1352H10.1149C10.0441 10.5791 9.94885 11.0041 9.83176 11.4077H11.1498C11.255 10.9987 11.3427 10.5728 11.4093 10.1352H10.1149C10.2112 9.53195 10.2624 8.89367 10.2624 8.22641C10.2624 7.56014 10.2114 6.92164 10.1157 6.31764H11.4107C11.3447 5.88008 11.2577 5.4542 11.1533 5.04512H9.83469C9.65787 4.43044 9.43085 3.86508 9.16236 3.35845C8.68351 2.45488 8.09598 1.86383 7.99978 1.86383C8.35682 1.86383 8.64625 1.57896 8.64625 1.22757C8.64625 0.876171 8.35682 0.591309 7.99978 0.591309C7.64275 0.591309 7.35332 0.876171 7.35332 1.22757C7.35332 1.57896 7.64275 1.86383 7.99978 1.86383C7.90358 1.86383 7.31606 2.45488 6.83721 3.35845C6.56872 3.86508 6.34169 4.43044 6.16488 5.04512H4.84622C4.74183 5.4542 4.6549 5.88008 4.58889 6.31764H5.88391ZM5.88391 6.31764C5.95425 5.87396 6.04873 5.4489 6.16488 5.04512H9.83469C9.95084 5.4489 10.0453 5.87396 10.1157 6.31764H5.88391Z" fill="#070A0D"/>
</svg>
