<svg width="16" height="16" viewBox="0 0 16 16" fill="none" xmlns="http://www.w3.org/2000/svg">
<path fill-rule="evenodd" clip-rule="evenodd" d="M0.242432 7.74741C0.242432 11.9642 3.71562 15.3825 8.00001 15.3825C12.2844 15.3825 15.7576 11.9642 15.7576 7.74741C15.7576 3.53066 12.2844 0.112305 8.00001 0.112305C3.71562 0.112305 0.242432 3.53066 0.242432 7.74741ZM14.4647 7.74741C14.4647 11.2614 11.5703 14.11 8.00001 14.11C4.42968 14.11 1.53536 11.2614 1.53536 7.74741C1.53536 4.23345 4.42968 1.38482 8.00001 1.38482C11.5703 1.38482 14.4647 4.23345 14.4647 7.74741Z" fill="#6360BC"/>
<path fill-rule="evenodd" clip-rule="evenodd" d="M6.85281 12.6271C7.33077 13.5174 7.92168 14.11 8.00003 14.11C7.64299 14.11 7.35356 14.3949 7.35356 14.7463C7.35356 15.0976 7.64299 15.3825 8.00003 15.3825C6.84738 15.3825 5.5071 13.4841 4.84998 10.9287H6.16805C6.34777 11.5482 6.57902 12.1172 6.85281 12.6271ZM5.88491 9.65618C5.95575 10.1001 6.05096 10.5251 6.16805 10.9287H9.83201C9.65229 11.5482 9.42103 12.1172 9.14724 12.6271C8.66928 13.5174 8.07837 14.11 8.00003 14.11C8.35706 14.11 8.64649 14.3949 8.64649 14.7463C8.64649 15.0976 8.35706 15.3825 8.00003 15.3825C9.15267 15.3825 10.493 13.4841 11.1501 10.9287H14.4647C14.8217 10.9287 15.1111 10.6438 15.1111 10.2924C15.1111 9.94105 14.8217 9.65618 14.4647 9.65618H11.4095C11.5036 9.03854 11.5556 8.39751 11.5556 7.74741C11.5556 7.09747 11.5041 6.45641 11.4109 5.83863H14.4647C14.8217 5.83863 15.1111 5.55377 15.1111 5.20237C15.1111 4.85098 14.8217 4.56611 14.4647 4.56611H11.1536C10.5018 2.01188 9.16928 0.112305 8.00003 0.112305C6.83077 0.112305 5.49828 2.01188 4.84647 4.56611H1.53538C1.17835 4.56611 0.888916 4.85098 0.888916 5.20237C0.888916 5.55377 1.17835 5.83863 1.53538 5.83863H4.58914C4.49595 6.45641 4.44447 7.09747 4.44447 7.74741C4.44447 8.39751 4.4965 9.03854 4.5905 9.65618H1.53538C1.17835 9.65618 0.888916 9.94105 0.888916 10.2924C0.888916 10.6438 1.17835 10.9287 1.53538 10.9287H4.84998C4.74479 10.5197 4.65711 10.0938 4.5905 9.65618H5.88491ZM5.88416 5.83863C5.7884 6.44264 5.7374 7.08114 5.7374 7.74741C5.7374 8.41467 5.78866 9.05295 5.88491 9.65618H10.1151C10.0443 10.1001 9.94909 10.5251 9.83201 10.9287H11.1501C11.2553 10.5197 11.3429 10.0938 11.4095 9.65618H10.1151C10.2114 9.05295 10.2627 8.41467 10.2627 7.74741C10.2627 7.08114 10.2116 6.44264 10.1159 5.83863H11.4109C11.3449 5.40108 11.258 4.9752 11.1536 4.56611H9.83493C9.65812 3.95144 9.43109 3.38608 9.1626 2.87945C8.68375 1.97588 8.09623 1.38482 8.00003 1.38482C8.35706 1.38482 8.64649 1.09996 8.64649 0.748563C8.64649 0.397167 8.35706 0.112305 8.00003 0.112305C7.64299 0.112305 7.35356 0.397167 7.35356 0.748563C7.35356 1.09996 7.64299 1.38482 8.00003 1.38482C7.90383 1.38482 7.3163 1.97588 6.83745 2.87945C6.56896 3.38608 6.34194 3.95144 6.16512 4.56611H4.84647C4.74208 4.9752 4.65514 5.40108 4.58914 5.83863H5.88416ZM5.88416 5.83863C5.95449 5.39496 6.04897 4.96989 6.16512 4.56611H9.83493C9.95108 4.96989 10.0456 5.39496 10.1159 5.83863H5.88416Z" fill="#6360BC"/>
</svg>
