<svg width="144" height="69" viewBox="0 0 144 69" fill="none" xmlns="http://www.w3.org/2000/svg">
<path fill-rule="evenodd" clip-rule="evenodd" d="M47.1932 8.53028C55.163 10.2223 67.3227 12.031 75.0282 9.70885C75.3189 9.6155 75.6229 9.53381 75.9137 9.4638C76.4688 9.32377 77.6583 8.9737 78.0152 9.56882C78.3721 10.1756 77.3676 10.724 76.905 11.0041C73.3364 13.1512 68.9351 13.9213 64.6793 14.0614C60.8199 14.1897 56.9341 13.8163 53.1276 13.2912C51.6209 13.0812 50.1142 12.8478 48.6074 12.6378C47.8276 12.5327 46.9289 12.3927 46.1094 12.3577C44.0343 19.2657 42.3426 26.2671 40.2543 33.1868C37.9942 40.6666 35.2054 48.6599 30.857 55.4162C30.0772 56.6298 29.0595 57.7733 27.9096 58.7185C27.2752 59.2436 26.2311 59.9904 25.3852 60.2238C24.2221 60.5389 23.4291 59.7337 23.0326 58.8702C22.7682 58.3101 22.755 57.7033 22.9268 57.1199C23.1251 56.5014 23.5612 55.9413 24.275 55.7196C24.5393 55.6379 24.9887 55.7196 25.253 55.7663C25.4909 55.8013 25.742 55.8013 25.9799 55.7663C26.4954 55.3228 27.8435 53.1291 28.1475 52.6273C28.848 51.5071 29.456 50.3402 30.0243 49.1733C30.5662 48.0647 31.0685 46.9329 31.5311 45.7893C33.5797 40.725 35.4301 35.6023 37.1615 30.4446C39.1969 24.3651 40.8491 18.1689 42.673 12.0426C40.175 11.6692 37.5977 11.4242 35.0864 11.2608C31.1478 10.9924 27.1563 10.9108 23.2176 11.1208C20.4949 11.2725 17.7326 11.5642 15.0759 12.1127C11.3223 12.8945 7.56869 14.5281 5.41432 17.457C3.81507 19.6391 3.32604 22.2997 4.19836 24.7852C4.97816 27.0139 6.73602 28.8226 9.07543 29.8962C12.0625 31.2731 15.5385 31.2731 18.7503 30.5613C19.9927 30.2929 20.3759 30.0245 20.8518 29.0327C21.2615 28.1925 21.7109 27.7141 22.6889 27.3523C23.7198 26.9673 25.1076 26.6639 26.0857 27.3173C26.654 27.6791 26.9712 28.3325 26.9448 28.9393C26.7862 31.4948 21.1293 33.6186 18.671 34.1787C15.1288 34.9838 11.1373 34.5404 7.8066 33.2568C6.24699 32.65 4.75347 31.8682 3.55073 30.783C2.42728 29.7678 1.48888 28.6242 0.894115 27.294C-1.03556 22.9648 0.286134 19.0207 3.63003 15.5667C13.8335 4.97125 30.3151 6.97831 44.259 8.25023C44.7877 7.08333 45.4221 5.84642 46.2416 4.85456C46.7967 4.16609 47.5765 3.39594 48.5149 3.13922C49.0832 2.98752 49.4401 3.38427 49.6251 3.80435C49.7573 4.10774 49.5062 4.44614 49.3344 4.70286C49.07 5.11127 48.7792 5.49635 48.4885 5.8931C48.1316 6.38319 47.8012 6.89663 47.5501 7.4334C47.3915 7.78347 47.2989 8.18021 47.1932 8.56529V8.53028ZM44.2987 47.598C44.2194 47.7614 44.1269 47.9247 44.0476 48.0881C43.3471 49.5234 42.6862 50.9703 42.0518 52.4289C41.0473 54.7744 37.9149 62.4176 38.3114 64.7747L38.6154 66.5484C38.7079 67.0968 38.8004 67.5986 38.3907 68.0654C38.0867 68.4154 37.7563 68.6955 37.2937 68.8705C37.0161 68.9639 36.765 68.9872 36.4742 68.9989C36.157 69.0105 35.8927 68.9289 35.5887 68.8588C34.9807 68.6955 34.452 68.4271 34.1613 67.902C33.7648 67.1902 33.9234 66.5134 34.1216 65.7899C35.6548 60.2472 37.7166 54.9261 39.9371 49.57C43.0299 42.1136 45.964 34.5871 49.3476 27.2356C49.5723 26.7339 49.9688 26.1854 50.5635 25.9754L50.59 25.9637L50.6296 25.9521C51.1979 25.8237 51.6341 26.2438 51.9249 26.6172L51.9645 26.6639L51.991 26.7222C52.1099 27.0139 51.7266 27.7491 51.6209 28.0175C51.2376 28.9393 50.8543 29.8728 50.471 30.7947C49.2551 33.7119 48.0391 36.6292 46.8231 39.5581C47.2725 39.1497 47.7087 38.7296 48.158 38.3095L48.1845 38.2862L48.2109 38.2628C49.5062 37.271 50.9997 36.3958 52.665 35.9757C54.4229 35.579 55.7975 36.1041 56.5773 37.5627L56.5905 37.5743L56.6037 37.586C57.1456 38.8346 56.4319 40.655 55.89 41.8335C55.4803 42.697 54.9648 43.5139 54.3568 44.284C53.7092 45.1125 52.9822 45.8943 52.2421 46.6528L52.2289 46.6645L52.2157 46.6761C50.9997 47.773 49.3211 49.0799 47.6029 49.5117C47.2461 49.5934 46.876 49.6167 46.5191 49.5117C46.2284 49.43 45.9508 49.325 45.6865 49.185C45.0917 48.8932 44.682 48.4382 44.4441 47.878C44.4044 47.773 44.3648 47.6797 44.3251 47.5747L44.2987 47.598ZM46.5456 45.731C46.8099 45.9177 47.0875 46.151 47.3254 46.3727C47.7087 46.7345 48.2506 46.7111 48.7528 46.5945C50.0745 46.2911 51.4755 44.2957 52.0967 43.3388V43.3271L52.1099 43.3155C52.9029 42.2186 54.0264 40.3749 53.4448 39.033C53.2862 38.6479 52.1099 38.7879 51.7531 38.8463C50.5635 39.1263 49.6119 39.7798 48.8453 40.6199C48.2638 41.2734 47.7748 41.8452 47.3386 42.6037C46.8628 43.4438 46.2944 44.2607 45.779 45.0775C45.6997 45.1942 45.6336 45.3109 45.5543 45.4276C45.9112 45.4159 46.2548 45.4976 46.5324 45.731H46.5456ZM67.7588 41.4134C67.5738 41.5885 67.3888 41.7752 67.2037 41.9502C66.6618 42.487 66.1067 43.0004 65.5516 43.5255C64.97 44.0623 64.3621 44.5757 63.7144 45.0542C63.199 45.4392 62.5778 45.836 61.9434 46.0343C61.2032 46.2911 60.4366 46.3611 59.6568 46.2327C58.7052 46.081 58.0443 45.4742 57.5818 44.7624L57.5553 44.7274L57.5421 44.6924C56.5905 42.4986 58.388 39.5931 59.6833 37.7844C60.6481 36.5241 61.7715 35.3106 63.0932 34.3304C64.0449 33.6186 65.208 32.9184 66.4239 32.6384C67.5341 32.3466 69.0012 32.2416 69.5563 33.3618V33.3735V33.3852C69.8075 33.9803 69.8603 34.5871 69.596 35.1705C69.6224 35.1705 69.6356 35.1589 69.6621 35.1589C70.3494 35.0072 70.9441 35.2406 71.1952 35.8357C71.4464 36.4074 71.2481 37.656 71.1556 38.2628C71.0763 38.7646 70.9441 39.7798 71.1556 40.2699C71.5389 41.1684 72.1337 41.6468 73.2307 41.4251C74.3409 41.1684 75.385 40.7483 76.3367 40.1882C76.8653 39.8731 77.394 39.5464 77.8963 39.1963C77.8566 38.1345 78.2795 36.9326 78.7025 35.9757L78.7157 35.9524L78.7289 35.929C79.1915 35.0889 79.7334 34.272 80.3282 33.5019C80.989 32.6384 81.7424 31.8332 82.5486 31.0864C83.2623 30.4329 84.0422 29.7911 84.888 29.2894C85.5621 28.8926 86.289 28.5309 87.0424 28.2742L87.0688 28.2625L87.0953 28.2508C87.3861 28.1808 87.69 28.1692 87.994 28.1808C88.3905 28.2042 88.7606 28.3325 89.0778 28.5309C89.4479 28.7526 89.7651 29.056 90.0294 29.3711C90.1087 29.4644 90.188 29.5694 90.2673 29.6745C91.0339 27.9124 91.8137 26.1504 92.6068 24.3884C93.7831 21.7629 94.9594 19.1374 96.1489 16.5119L96.1621 16.4768L96.1753 16.4418C96.3207 16.2085 96.4793 15.9868 96.6512 15.765C96.8494 15.52 97.1137 15.345 97.4442 15.2633C97.9861 15.1349 98.4222 15.5083 98.713 15.8701L98.7527 15.9284L98.7791 15.9868C98.898 16.2785 98.5147 17.0136 98.409 17.282C98.0257 18.2039 97.6424 19.1374 97.2591 20.0592C96.0432 22.9765 94.8272 25.9054 93.598 28.8226C94.0474 28.4142 94.4836 27.9941 94.9329 27.574L94.9594 27.5507L94.9858 27.5274C96.2811 26.5472 97.7878 25.672 99.4532 25.2869C101.185 24.8902 102.572 25.3686 103.339 26.8272L103.352 26.8389L103.365 26.8622C103.63 27.4807 103.643 28.1341 103.511 28.7759C103.352 29.5694 103.009 30.3746 102.652 31.1097C101.793 32.9068 100.497 34.5171 98.9773 35.9524C97.7614 37.0492 96.0696 38.3562 94.3646 38.7996C93.7038 38.9513 93.0561 38.8229 92.4878 38.5195C91.893 38.2045 91.4569 37.7494 91.2058 37.1659C91.1397 37.0026 91.0736 36.8275 91.0207 36.6525C89.4347 39.278 88.0072 42.1019 86.8574 44.8675C85.985 46.9679 85.192 49.2083 84.7823 51.4254C84.5444 52.6857 83.9364 54.8678 84.4519 56.058L85.2317 57.8667C85.7075 58.9636 85.1259 59.8037 83.9761 60.2822C83.3945 60.5272 82.7469 60.4689 82.1653 60.2822C81.5838 60.1071 81.0287 59.8037 80.7908 59.267C80.4868 58.5668 80.5132 57.7967 80.685 57.0615C80.8701 56.303 81.0287 55.5446 81.2137 54.7861C81.8349 52.2889 82.4825 49.7918 83.2623 47.3296C84.0554 44.8441 84.9806 42.4053 85.985 39.9782C86.0379 39.8381 86.104 39.6981 86.1701 39.5697C85.7868 39.8381 85.4035 40.1065 85.007 40.3632C84.1082 40.9583 83.1037 41.4835 82.02 41.7752H82.0067H81.9935C80.6983 42.0669 79.5219 41.9035 78.7025 41.0867C78.61 41.1684 78.5042 41.2501 78.4117 41.3434C76.8521 42.6503 74.9621 43.8873 72.8606 44.3657C70.3494 44.9375 68.7237 43.2105 67.7192 41.4134H67.7588ZM68.1818 36.3724C68.1025 36.3958 68.0232 36.4191 67.9439 36.4308L67.7192 36.4775L67.5077 36.3724C67.3623 36.3024 67.2566 36.1974 67.1641 36.0807C67.098 36.0107 67.0187 35.9407 66.9526 35.8707C66.8601 35.7773 66.7676 35.6956 66.675 35.614L66.6618 35.6023L66.6486 35.5906C66.3578 35.2872 66.0274 35.1822 65.578 35.2522C63.992 35.6256 62.7628 37.1543 61.9962 38.3445C61.2825 39.4297 60.4366 41.0634 60.9917 42.347C61.071 42.5453 61.19 42.7204 61.3486 42.8721C61.4279 42.9421 61.494 42.9654 61.5865 42.9537C62.5249 42.802 63.3576 42.4636 64.0977 41.9269C64.9965 41.2851 65.7763 40.5033 66.4636 39.6981C66.979 39.068 67.5341 37.7961 67.8646 37.0609C67.9439 36.8392 68.0496 36.6058 68.1818 36.3841V36.3724ZM92.2895 34.6921C92.6464 34.6571 92.9901 34.7038 93.2808 34.9138C93.5716 35.1239 93.8624 35.3689 94.1399 35.614L94.1531 35.6256L94.1664 35.6373C94.5497 35.999 95.0783 35.9757 95.5938 35.859C96.8362 35.579 98.3429 33.5369 98.9773 32.6384C99.5325 31.8682 99.9554 31.0514 100.259 30.1879C100.458 29.6511 100.629 28.916 100.325 28.3792C100.18 28.1575 99.9951 28.0058 99.7175 27.9358C99.3871 27.8424 99.017 27.8891 98.6866 27.9708C98.1579 28.1108 97.6556 28.3559 97.2063 28.6359C96.6379 28.986 96.1357 29.4177 95.7127 29.8845C95.1841 30.5496 94.6818 31.2498 94.1796 31.9499C93.5319 32.8601 92.9107 33.7703 92.3028 34.7038L92.2895 34.6921ZM88.7342 32.58C88.602 32.2416 88.417 31.8449 88.1791 31.5765C88.0072 31.3898 87.7958 31.2264 87.5446 31.1331C87.3067 31.0514 87.0688 31.0164 86.8177 31.0281C86.5402 31.0397 86.2626 31.0747 85.9983 31.1447C85.3903 31.2848 84.8352 31.6698 84.399 32.0433C83.6589 32.685 83.0244 33.5719 82.5222 34.377C81.7821 35.4856 80.6454 37.446 81.2137 38.7762C81.2666 38.8929 81.3855 38.9279 81.5177 38.9396C81.8746 38.998 82.2843 38.9279 82.6147 38.8346C83.1566 38.6946 83.6853 38.4612 84.1611 38.2045C84.7427 37.8894 85.2845 37.516 85.7736 37.1076C86.0247 36.8859 86.2758 36.6758 86.5402 36.4541C86.8177 36.2207 87.0556 35.9524 87.2539 35.6723C87.5447 35.2756 87.7958 34.8321 88.0205 34.4004C88.3112 33.8286 88.5359 33.1985 88.721 32.58H88.7342Z" fill="black"/>
<path fill-rule="evenodd" clip-rule="evenodd" d="M120.191 27.364C122.676 24.4935 126.852 19.9542 129.364 19.3825C129.853 19.2658 130.249 19.7675 130.474 20.0826L130.487 20.1059L130.5 20.1409C130.632 20.4443 129.773 22.2764 129.628 22.6031C129.218 23.7467 129.02 25.0186 129.482 26.1738C130.024 27.4107 131.293 27.4807 132.602 27.2123C134.412 26.8039 136.884 24.0034 137.955 22.7548L137.968 22.7431L137.981 22.7315C138.496 22.2064 139.025 21.4712 139.461 20.8994C140.519 19.5225 141.55 18.1339 142.581 16.7336L142.62 16.6869L142.673 16.6519C142.818 16.5586 142.977 16.5002 143.149 16.4652C143.479 16.3952 143.717 16.5819 143.876 16.8153L143.889 16.8386L143.902 16.862C144.021 17.1304 144.034 17.3987 143.929 17.6788L143.915 17.7138L143.889 17.7488C142.911 19.2191 141.906 20.6777 140.876 22.113C140.228 23.0115 139.554 23.9334 138.827 24.7735C137.029 26.909 134.518 29.2544 131.491 29.9429C129.086 30.4913 127.553 29.3594 126.68 27.4341C126.482 26.9673 126.324 26.4655 126.205 25.9754C126.086 25.5087 125.993 25.0302 125.914 24.5518C125.015 25.4503 124.13 26.3488 123.244 27.259C122.107 28.4259 121.024 29.6162 119.979 30.8414C119.649 31.2148 117.667 33.5953 117.177 33.712C117.006 33.747 116.662 33.6536 116.477 33.6069C116.173 33.5486 115.869 33.4086 115.75 33.1285C115.578 32.7434 115.644 32.125 115.684 31.7166C115.79 30.8531 116.041 29.9546 116.279 29.1144C116.53 28.1459 116.768 27.1773 117.006 26.2088C117.125 25.7537 117.23 25.2986 117.336 24.8435C117.098 24.6218 116.926 24.3301 116.807 24.0384C116.609 23.5716 116.887 23.0932 117.191 22.7198L117.204 22.7081L117.217 22.6965C117.521 22.4047 117.918 22.043 118.341 21.8913L118.367 21.8796H118.393C119.636 21.5996 120.667 21.8913 121.209 22.9415V22.9532V22.9648C121.42 23.4666 120.759 25.602 120.601 26.1271C120.455 26.5355 120.31 26.944 120.165 27.364H120.191Z" fill="black"/>
<path fill-rule="evenodd" clip-rule="evenodd" d="M104.621 41.7752C104.872 42.0319 105.625 41.9385 106.207 42.1836C108.559 43.1521 106.114 43.9806 103.233 44.144C100.682 44.2957 97.5893 43.8172 97.6553 43.0821C97.576 41.075 119.067 33.5019 105.916 20.6893C104.581 19.3941 103.193 18.0405 102.4 15.8701C101.739 14.0614 102.347 11.9493 102.546 9.26541C102.665 7.71344 100.867 8.15686 99.9154 8.34357C99.5057 8.42525 99.4396 7.80679 100.021 7.43339C100.669 7.0133 102.083 6.72158 102.995 6.73325C104.475 6.75659 106.167 7.29336 105.942 8.50693C105.876 8.86867 105.559 9.32376 104.885 9.52213C103.775 13.6063 104.806 17.4104 108.89 19.6858C121.38 26.6638 116.357 33.8753 106.881 39.4764C105.506 40.2932 104.224 41.3434 104.647 41.7635L104.621 41.7752Z" fill="black"/>
<path fill-rule="evenodd" clip-rule="evenodd" d="M104.595 5.9631C105.797 5.34464 106.022 2.26404 105.335 1.21383C104.013 -0.839911 99.3606 -0.139773 99.3342 2.20569C99.3078 3.85101 99.7043 6.41819 102.163 4.4578C102.665 4.06106 102.903 3.48928 103.313 3.22089C104.925 2.13568 105.031 5.06459 104.595 5.9631Z" fill="black"/>
</svg>
