<svg width="229" height="109" viewBox="0 0 229 109" fill="none" xmlns="http://www.w3.org/2000/svg">
<path fill-rule="evenodd" clip-rule="evenodd" d="M75.0503 13.4752C87.7246 16.1481 107.062 19.0053 119.316 15.337C119.778 15.1895 120.261 15.0605 120.724 14.9499C121.607 14.7287 123.498 14.1757 124.066 15.1158C124.633 16.0744 123.036 16.9407 122.3 17.3831C116.625 20.7749 109.626 21.9915 102.858 22.2127C96.7206 22.4155 90.5411 21.8256 84.4877 20.9961C82.0916 20.6643 79.6954 20.2956 77.2993 19.9638C76.0592 19.7979 74.6299 19.5767 73.3268 19.5214C70.0268 30.4341 67.3365 41.4943 64.0155 52.4254C60.4213 64.2413 55.9864 76.8683 49.0712 87.5414C47.8311 89.4585 46.2127 91.265 44.3841 92.7581C43.3752 93.5876 41.7147 94.7673 40.3695 95.136C38.5199 95.6337 37.2587 94.3618 36.6282 92.9977C36.2078 92.1129 36.1868 91.1544 36.46 90.2327C36.7753 89.2557 37.4689 88.3709 38.6039 88.0206C39.0243 87.8916 39.7389 88.0206 40.1593 88.0944C40.5376 88.1497 40.937 88.1497 41.3153 88.0944C42.1351 87.3939 44.279 83.9284 44.7624 83.1357C45.8764 81.3661 46.8432 79.5228 47.747 77.6794C48.6088 75.9282 49.4075 74.1402 50.1432 72.3337C53.4011 64.3335 56.3437 56.2411 59.0971 48.0935C62.334 38.4896 64.9613 28.7014 67.8619 19.0237C63.8894 18.4338 59.7908 18.0467 55.7972 17.7887C49.5336 17.3647 43.186 17.2357 36.9224 17.5675C32.5926 17.8071 28.1997 18.2679 23.9749 19.1343C18.0056 20.3694 12.0363 22.9501 8.61028 27.5769C6.06702 31.024 5.28933 35.2268 6.67656 39.1532C7.91666 42.674 10.7121 45.5312 14.4325 47.2271C19.1827 49.4023 24.7106 49.4023 29.8181 48.2778C31.7939 47.8539 32.4034 47.4299 33.1601 45.863C33.8117 44.5358 34.5263 43.78 36.0817 43.2086C37.7211 42.6003 39.9281 42.121 41.4835 43.1533C42.3873 43.7247 42.8917 44.757 42.8497 45.7156C42.5975 49.7525 33.6015 53.1074 29.692 53.9922C24.059 55.2642 17.7114 54.5637 12.4147 52.536C9.93446 51.5774 7.55934 50.3424 5.64664 48.6281C3.86006 47.0243 2.36773 45.2179 1.42189 43.1164C-1.64684 36.2776 0.455033 30.047 5.77276 24.5907C21.9992 7.85297 48.2095 11.0235 70.3842 13.0328C71.2249 11.1894 72.2338 9.23549 73.537 7.66863C74.4197 6.58105 75.6598 5.36444 77.1522 4.9589C78.056 4.71926 78.6235 5.346 78.9177 6.00961C79.1279 6.48888 78.7286 7.02346 78.4553 7.429C78.035 8.07417 77.5725 8.68248 77.1101 9.30922C76.5426 10.0834 76.0172 10.8945 75.6178 11.7425C75.3656 12.2955 75.2185 12.9222 75.0503 13.5305V13.4752ZM70.4472 75.1909C70.3211 75.4489 70.174 75.707 70.0479 75.9651C68.9339 78.2324 67.8829 80.5182 66.874 82.8224C65.2766 86.5275 60.2952 98.6015 60.9258 102.325L61.4092 105.127C61.5563 105.993 61.7034 106.786 61.0519 107.523C60.5684 108.076 60.043 108.519 59.3073 108.795C58.8659 108.943 58.4666 108.98 58.0042 108.998C57.4997 109.017 57.0793 108.887 56.5959 108.777C55.6291 108.519 54.7883 108.095 54.3259 107.265C53.6953 106.141 53.9476 105.072 54.2628 103.929C56.701 95.1729 59.9799 86.7672 63.5111 78.3061C68.4294 66.5271 73.0956 54.6374 78.4764 43.0243C78.8337 42.2316 79.4642 41.3652 80.4101 41.0334L80.4521 41.015L80.5152 40.9966C81.419 40.7938 82.1126 41.4574 82.575 42.0473L82.6381 42.121L82.6801 42.2132C82.8693 42.674 82.2597 43.8353 82.0916 44.2593C81.482 45.7156 80.8725 47.1902 80.2629 48.6465C78.3292 53.2549 76.3955 57.8633 74.4618 62.4901C75.1764 61.845 75.87 61.1813 76.5847 60.5177L76.6267 60.4809L76.6687 60.444C78.7286 58.8771 81.1037 57.4946 83.752 56.831C86.5475 56.2043 88.7335 57.0338 89.9736 59.338L89.9946 59.3564L90.0156 59.3748C90.8774 61.3472 89.7424 64.2229 88.8806 66.0847C88.229 67.4488 87.4093 68.7391 86.4424 69.9557C85.4125 71.2645 84.2565 72.4996 83.0794 73.6978L83.0584 73.7162L83.0374 73.7346C81.1037 75.4674 78.4343 77.5319 75.7019 78.214C75.1344 78.343 74.5459 78.3799 73.9784 78.214C73.5159 78.0849 73.0746 77.919 72.6542 77.6978C71.7083 77.237 71.0568 76.5181 70.6784 75.6333C70.6154 75.4674 70.5523 75.3199 70.4893 75.154L70.4472 75.1909ZM74.0204 72.2415C74.4408 72.5364 74.8822 72.9051 75.2605 73.2553C75.87 73.8268 76.7318 73.7899 77.5305 73.6056C79.6324 73.1263 81.8604 69.9742 82.8482 68.4626V68.4442L82.8693 68.4257C84.1304 66.693 85.917 63.7805 84.9921 61.6606C84.7399 61.0523 82.8693 61.2735 82.3017 61.3657C80.4101 61.8081 78.8967 62.8404 77.6776 64.1676C76.7528 65.1999 75.9751 66.1031 75.2815 67.3013C74.5248 68.6285 73.621 69.9189 72.8013 71.2092C72.6752 71.3936 72.5701 71.5779 72.444 71.7622C73.0115 71.7438 73.558 71.8728 73.9994 72.2415H74.0204ZM107.755 65.4211C107.461 65.6976 107.167 65.9925 106.873 66.269C106.011 67.117 105.128 67.928 104.245 68.7575C103.32 69.6055 102.354 70.4166 101.324 71.1723C100.504 71.7807 99.516 72.4074 98.5071 72.7208C97.3301 73.1263 96.111 73.2369 94.8709 73.0341C93.3576 72.7945 92.3066 71.836 91.571 70.7115L91.5289 70.6562L91.5079 70.6009C89.9946 67.1354 92.8531 62.5454 94.913 59.6882C96.4473 57.6974 98.2339 55.7803 100.336 54.2319C101.849 53.1074 103.699 52.0014 105.632 51.559C107.398 51.0982 109.731 50.9323 110.614 52.7019V52.7203V52.7388C111.013 53.6789 111.097 54.6374 110.677 55.5591C110.719 55.5591 110.74 55.5407 110.782 55.5407C111.875 55.301 112.821 55.6697 113.22 56.6098C113.62 57.5131 113.304 59.4855 113.157 60.444C113.031 61.2366 112.821 62.8404 113.157 63.6146C113.767 65.034 114.713 65.7897 116.457 65.4395C118.223 65.034 119.883 64.3704 121.396 63.4855C122.237 62.9878 123.078 62.4717 123.877 61.9187C123.814 60.2412 124.486 58.3426 125.159 56.831L125.18 56.7941L125.201 56.7573C125.937 55.4301 126.798 54.1397 127.744 52.9231C128.795 51.559 129.993 50.2871 131.275 49.1073C132.41 48.0751 133.65 47.0612 134.996 46.2686C136.068 45.6418 137.224 45.0704 138.422 44.6648L138.464 44.6464L138.506 44.628C138.968 44.5174 139.452 44.4989 139.935 44.5174C140.566 44.5542 141.154 44.757 141.658 45.0704C142.247 45.4206 142.751 45.8999 143.172 46.3976C143.298 46.5451 143.424 46.711 143.55 46.8769C144.769 44.0934 146.009 41.3099 147.27 38.5265C149.141 34.3789 151.012 30.2313 152.903 26.0838L152.924 26.0285L152.946 25.9732C153.177 25.6045 153.429 25.2543 153.702 24.904C154.017 24.5169 154.438 24.2404 154.963 24.1114C155.825 23.9086 156.519 24.4985 156.981 25.0699L157.044 25.1621L157.086 25.2543C157.275 25.7151 156.666 26.8764 156.498 27.3004C155.888 28.7567 155.279 30.2313 154.669 31.6876C152.735 36.296 150.802 40.9228 148.847 45.5312C149.562 44.886 150.255 44.2224 150.97 43.5588L151.012 43.522L151.054 43.4851C153.114 41.9367 155.51 40.5542 158.158 39.9458C160.912 39.3191 163.119 40.0749 164.338 42.3791L164.359 42.3975L164.38 42.4344C164.8 43.4114 164.821 44.4436 164.611 45.4575C164.359 46.711 163.812 47.9829 163.245 49.1442C161.878 51.983 159.819 54.5268 157.401 56.7941C155.468 58.5269 152.777 60.5915 150.066 61.2919C149.015 61.5316 147.985 61.3288 147.081 60.8495C146.135 60.3518 145.442 59.6329 145.042 58.7112C144.937 58.4532 144.832 58.1767 144.748 57.9002C142.226 62.0477 139.956 66.5087 138.127 70.8774C136.74 74.1955 135.479 77.7347 134.827 81.2371C134.449 83.2279 133.482 86.675 134.302 88.5552L135.542 91.4124C136.299 93.1452 135.374 94.4724 133.545 95.2282C132.62 95.6153 131.591 95.5231 130.666 95.2282C129.741 94.9517 128.858 94.4724 128.48 93.6245C127.996 92.5184 128.038 91.3018 128.312 90.1405C128.606 88.9423 128.858 87.7441 129.152 86.546C130.14 82.6012 131.17 78.6564 132.41 74.7669C133.671 70.8405 135.143 66.9879 136.74 63.1537C136.824 62.9325 136.929 62.7113 137.034 62.5086C136.425 62.9325 135.815 63.3565 135.185 63.762C133.755 64.7022 132.158 65.5317 130.435 65.9925H130.413H130.392C128.333 66.4533 126.462 66.1953 125.159 64.9049C125.012 65.034 124.844 65.163 124.696 65.3105C122.216 67.375 119.211 69.329 115.869 70.0848C111.875 70.988 109.29 68.2598 107.692 65.4211H107.755ZM108.428 57.4578C108.302 57.4946 108.176 57.5315 108.05 57.5499L107.692 57.6237L107.356 57.4578C107.125 57.3472 106.957 57.1813 106.81 56.9969C106.704 56.8863 106.578 56.7757 106.473 56.6651C106.326 56.5176 106.179 56.3886 106.032 56.2596L106.011 56.2411L105.99 56.2227C105.527 55.7434 105.002 55.5775 104.287 55.6881C101.765 56.278 99.8103 58.6928 98.5912 60.573C97.4562 62.2874 96.111 64.8681 96.9938 66.8958C97.1199 67.2091 97.3091 67.4856 97.5613 67.7253C97.6874 67.8359 97.7925 67.8727 97.9396 67.8543C99.432 67.6147 100.756 67.0801 101.933 66.2321C103.362 65.2183 104.603 63.9832 105.696 62.7113C106.515 61.7159 107.398 59.7067 107.924 58.5453C108.05 58.1951 108.218 57.8264 108.428 57.4762V57.4578ZM146.766 54.8033C147.334 54.748 147.88 54.8218 148.342 55.1536C148.805 55.4854 149.267 55.8725 149.709 56.2596L149.73 56.278L149.751 56.2964C150.36 56.8679 151.201 56.831 152.021 56.6467C153.996 56.2043 156.393 52.9784 157.401 51.559C158.284 50.3424 158.957 49.052 159.44 47.688C159.756 46.84 160.029 45.6787 159.545 44.8307C159.314 44.4805 159.02 44.2409 158.579 44.1303C158.053 43.9828 157.465 44.0565 156.939 44.1856C156.098 44.4068 155.3 44.7939 154.585 45.2363C153.681 45.7893 152.882 46.4713 152.21 47.2087C151.369 48.2594 150.57 49.3654 149.772 50.4714C148.742 51.9092 147.754 53.3471 146.787 54.8218L146.766 54.8033ZM141.112 51.4668C140.902 50.9323 140.608 50.3055 140.229 49.8816C139.956 49.5866 139.62 49.3285 139.22 49.1811C138.842 49.052 138.464 48.9967 138.064 49.0152C137.623 49.0336 137.182 49.0889 136.761 49.1995C135.794 49.4207 134.911 50.029 134.218 50.6189C133.041 51.6327 132.032 53.0337 131.233 54.3056C130.056 56.0568 128.249 59.1536 129.152 61.2551C129.236 61.4394 129.426 61.4947 129.636 61.5131C130.203 61.6053 130.855 61.4947 131.38 61.3472C132.242 61.126 133.083 60.7574 133.84 60.3518C134.764 59.8541 135.626 59.2642 136.404 58.6191C136.803 58.2688 137.203 57.937 137.623 57.5868C138.064 57.2181 138.443 56.7941 138.758 56.3517C139.22 55.725 139.62 55.0245 139.977 54.3425C140.439 53.4392 140.797 52.4438 141.091 51.4668H141.112Z" fill="white"/>
<path fill-rule="evenodd" clip-rule="evenodd" d="M191.136 43.2273C195.088 38.6927 201.73 31.522 205.723 30.6188C206.501 30.4344 207.132 31.2271 207.489 31.7248L207.51 31.7616L207.531 31.8169C207.741 32.2962 206.375 35.1903 206.144 35.7064C205.492 37.5129 205.177 39.5222 205.913 41.3471C206.774 43.3011 208.792 43.4117 210.873 42.9877C213.753 42.3425 217.683 37.9185 219.386 35.9461L219.407 35.9276L219.428 35.9092C220.247 35.0797 221.088 33.9184 221.782 33.0151C223.463 30.84 225.103 28.6464 226.742 26.4343L226.805 26.3606L226.889 26.3053C227.12 26.1578 227.373 26.0657 227.646 26.0104C228.171 25.8998 228.55 26.1947 228.802 26.5634L228.823 26.6002L228.844 26.6371C229.033 27.0611 229.054 27.485 228.886 27.9275L228.865 27.9828L228.823 28.0381C227.268 30.3607 225.67 32.6649 224.031 34.9322C223.001 36.3516 221.929 37.8079 220.773 39.1351C217.914 42.5084 213.921 46.2136 209.107 47.3012C205.282 48.1675 202.844 46.3795 201.457 43.3379C201.141 42.6006 200.889 41.8079 200.7 41.0337C200.511 40.2964 200.364 39.5406 200.238 38.7848C198.808 40.2042 197.4 41.6236 195.992 43.0614C194.184 44.9048 192.461 46.785 190.8 48.7205C190.275 49.3104 187.122 53.0709 186.344 53.2552C186.071 53.3105 185.524 53.163 185.23 53.0893C184.747 52.9971 184.263 52.7759 184.074 52.3335C183.801 51.7252 183.906 50.7482 183.969 50.1031C184.137 48.739 184.537 47.3196 184.915 45.9924C185.314 44.4624 185.693 42.9324 186.071 41.4024C186.26 40.6835 186.428 39.9646 186.596 39.2457C186.218 38.8954 185.945 38.4346 185.756 37.9738C185.44 37.2364 185.882 36.4806 186.365 35.8908L186.386 35.8723L186.407 35.8539C186.891 35.3931 187.521 34.8216 188.194 34.582L188.236 34.5635H188.278C190.254 34.1211 191.893 34.582 192.755 36.241V36.2594V36.2779C193.091 37.0705 192.04 40.4439 191.788 41.2734C191.557 41.9186 191.326 42.5637 191.094 43.2273H191.136Z" fill="white"/>
<path fill-rule="evenodd" clip-rule="evenodd" d="M166.376 65.9928C166.776 66.3984 167.974 66.2509 168.899 66.638C172.64 68.168 168.752 69.4768 164.17 69.7349C160.113 69.9745 155.195 69.2187 155.3 68.0574C155.174 64.8868 189.35 52.9234 168.436 32.6833C166.313 30.6372 164.106 28.4989 162.845 25.0703C161.794 22.2131 162.761 18.8766 163.077 14.6369C163.266 12.1852 160.407 12.8857 158.894 13.1806C158.242 13.3096 158.137 12.3327 159.062 11.7428C160.092 11.0792 162.341 10.6183 163.791 10.6368C166.145 10.6736 168.836 11.5216 168.478 13.4387C168.373 14.0101 167.869 14.729 166.797 15.0424C165.031 21.4941 166.671 27.5035 173.166 31.098C193.028 42.1213 185.041 53.5133 169.971 62.3614C167.785 63.6518 165.746 65.3108 166.419 65.9744L166.376 65.9928Z" fill="white"/>
<path fill-rule="evenodd" clip-rule="evenodd" d="M166.334 9.41997C168.247 8.44299 168.604 3.57652 167.511 1.9175C165.41 -1.32682 158.011 -0.220801 157.969 3.48435C157.927 6.08349 158.558 10.1389 162.467 7.04203C163.266 6.41529 163.644 5.51205 164.296 5.08807C166.86 3.37375 167.028 8.00058 166.334 9.41997Z" fill="white"/>
</svg>
