<svg width="64" height="64" viewBox="0 0 64 64" fill="none" xmlns="http://www.w3.org/2000/svg">
<path d="M5 43C11 41.5 17.4103 39.7527 17.4103 39.7527C28.3264 41.3037 33.5 42 33.5 42C38.157 42.4093 38.5 48.5 32.5 48M32.5 48C26.4575 47.454 24.7729 47.185 24.7729 47.185M32.5 48C44 48 52 47.5 52 47.5C54.5 47.5 55.0831 51.243 52.5 52C36.2998 56.7477 33.5 56.5 31.5 57C29 57.5 27.5803 57.5548 26.0005 56.8902C18.323 53.6617 14.5 52 14.5 52C7.73871 52.1583 5 52.2295 5 52.2295M22.5 40C30 32.5 46.5 34.5 50 47M39.3145 36.0487L39.2829 24.1398M39.2829 24.1398C36.3919 12.1914 46.9841 2.06292 58.3267 4.80077C61.9206 15.1666 51.9761 27.2813 39.2829 24.1398ZM39.2829 24.1398L50.6965 12.7295M39.3145 30.9528L35.215 26.1655M35.215 26.1655C33.8327 17.4376 23.9278 13.5999 17.127 18.5771C17.593 26.4821 27.6244 31.7837 35.215 26.1655ZM35.215 26.1655L24.4017 21.7422" stroke="#111618" stroke-width="1.5" stroke-miterlimit="22.9256" stroke-linecap="round" stroke-linejoin="round"/>
</svg>
