<svg width="740" height="414" viewBox="0 0 740 414" fill="none" xmlns="http://www.w3.org/2000/svg">
<path d="M102.08 410.335C67.7695 409.69 35.452 393.084 15.8857 364.9C3.70617 347.371 -4.06174 324.903 2.24053 297.92C19.0515 225.942 76.0064 188.744 155.093 142.137C234.179 95.5294 223.435 18.1288 325.752 1.06867C392.278 -10.0263 417.589 67.3158 288.906 138.077C106.448 238.4 334.018 311.345 408.004 214.745C481.99 118.144 569.152 -10.847 670.691 51.3403C739.24 93.3309 721.065 155.958 702.012 192.247C692.427 210.495 693.467 232.508 705.002 249.583C737.1 297.085 781.391 388.541 657.97 401.761C518.733 416.652 204.983 412.27 102.08 410.335Z" fill="#C4E1F2"/>
<path d="M618.221 211.241H591.663C591.458 211.241 591.282 211.066 591.282 210.86V202.242C591.282 202.037 591.458 201.861 591.663 201.861H618.221C618.426 201.861 618.602 202.037 618.602 202.242V210.86C618.602 211.066 618.426 211.241 618.221 211.241Z" fill="#E87D00"/>
<path d="M634.065 234.355L629.917 311.433C629.785 313.866 627.777 315.786 625.33 315.786H584.688C582.24 315.786 580.232 313.866 580.1 311.433L578.033 272.96L577.623 265.309L576.48 244.19L575.952 234.34C575.938 234.033 575.923 233.725 575.923 233.402C575.908 229.152 577.271 225.004 579.836 221.589L588.982 209.424C589.509 208.721 590.345 208.296 591.224 208.296H618.778C619.658 208.296 620.493 208.721 621.021 209.424L630.166 221.589C632.937 225.268 634.314 229.768 634.065 234.355Z" fill="#F29100"/>
<path d="M576.495 244.659C576.246 244.659 576.04 244.468 576.026 244.219L575.498 234.37C575.469 234.062 575.469 233.739 575.469 233.402C575.454 229.064 576.876 224.784 579.47 221.311C579.631 221.106 579.91 221.062 580.115 221.223C580.32 221.369 580.364 221.663 580.203 221.868C577.726 225.165 576.363 229.255 576.378 233.388C576.378 233.695 576.378 234.003 576.407 234.296L576.935 244.146C576.949 244.395 576.759 244.615 576.495 244.629C576.509 244.659 576.495 244.659 576.495 244.659Z" fill="#46332A"/>
<path d="M634.065 235.278C634.051 235.278 634.036 235.278 634.021 235.278C633.508 235.249 633.113 234.809 633.142 234.296C633.376 229.943 632.057 225.634 629.449 222.146L620.303 209.981C619.951 209.512 619.38 209.219 618.793 209.219H601.25C600.737 209.219 600.326 208.808 600.326 208.295C600.326 207.782 600.737 207.372 601.25 207.372H618.793C619.966 207.372 621.08 207.929 621.783 208.867L630.929 221.032C633.801 224.857 635.252 229.606 635.003 234.384C634.974 234.897 634.564 235.278 634.065 235.278Z" fill="#F29100"/>
<path d="M618.193 205.643H591.679C590.184 205.643 588.953 204.426 588.953 202.917V197.362C588.953 195.867 590.17 194.636 591.679 194.636H618.193C619.688 194.636 620.919 195.852 620.919 197.362V202.917C620.919 204.426 619.702 205.643 618.193 205.643Z" fill="#D9D9D9"/>
<path d="M612.8 200.659H597.074C594.699 200.659 592.779 198.739 592.779 196.365V195.559C594.45 193.888 595.388 192.95 597.059 191.279H612.8C614.471 192.95 615.409 193.888 617.08 195.559V196.365C617.094 198.739 615.174 200.659 612.8 200.659Z" fill="#D9D9D9"/>
<path d="M588.967 197.567C588.454 197.567 588.044 197.156 588.044 196.643C588.044 195.031 589.246 193.727 590.741 193.727H619.145C619.658 193.727 620.068 194.137 620.068 194.65C620.068 195.163 619.658 195.573 619.145 195.573H590.741C590.286 195.573 589.905 196.057 589.905 196.629C589.891 197.156 589.48 197.567 588.967 197.567Z" fill="#D9D9D9"/>
<path d="M633.157 222.38L631.618 218.511L630.065 222.38L626.312 223.816L630.006 225.004L631.618 229.122L633.23 225.004L636.924 223.816L633.157 222.38Z" fill="white"/>
<path d="M631.617 229.591C631.559 229.591 631.5 229.576 631.456 229.562C631.222 229.474 631.104 229.195 631.192 228.961L632.878 224.637L636.791 223.377C637.04 223.303 637.289 223.435 637.377 223.67C637.451 223.919 637.319 224.168 637.084 224.256L633.596 225.37L632.072 229.283C631.969 229.474 631.793 229.591 631.617 229.591Z" fill="#46332A"/>
<path d="M162.217 143.148C180.714 149.04 191.193 168.665 185.667 187.367C183.088 196.117 177.46 203.123 170.278 207.593C166.526 209.938 162.334 211.565 157.952 212.4C152.793 213.367 147.341 213.221 141.947 211.741L162.217 143.148Z" fill="#66ADD9"/>
<path d="M157.776 192.599C155.9 201.627 153.13 210.421 150.125 219.142C148.601 223.495 147.062 227.848 145.098 232.069C143.149 236.304 140.833 240.438 138.752 244.629C136.627 248.821 134.882 253.101 133.593 257.527C132.332 261.953 131.145 266.409 129.914 270.835C127.496 279.717 125.121 288.613 122.791 297.524C118.115 315.332 113.748 333.227 109.512 351.167C107.446 360.151 105.364 369.121 103.459 378.149C101.495 387.163 99.663 396.206 97.9775 405.293C97.4059 408.342 99.4285 411.288 102.492 411.845C105.203 412.343 107.812 410.804 108.765 408.327C112.062 399.694 115.213 391.018 118.233 382.297C121.311 373.591 124.213 364.856 127.115 356.106C132.845 338.592 138.444 321.033 143.735 303.402C146.402 294.593 149.011 285.755 151.561 276.917C152.822 272.491 154.141 268.08 155.357 263.639C156.559 259.198 157.307 254.625 157.673 249.95C158.069 245.274 158.259 240.555 158.802 235.923C159.329 231.292 160.282 226.778 161.249 222.264C163.228 213.25 165.441 204.309 168.548 195.633C169.589 192.716 168.065 189.506 165.148 188.451C162.231 187.396 159.022 188.935 157.966 191.851C157.893 192.086 157.82 192.35 157.776 192.599Z" fill="#66ADD9"/>
<path d="M151.372 213.47C148.177 213.47 144.996 213.045 141.845 212.18C141.611 212.122 141.464 211.873 141.523 211.623C141.581 211.389 141.83 211.242 142.08 211.301C147.283 212.723 152.603 212.942 157.879 211.946C162.203 211.125 166.307 209.542 170.059 207.197C170.264 207.065 170.542 207.139 170.674 207.344C170.806 207.549 170.748 207.827 170.528 207.959C166.688 210.348 162.481 211.99 158.04 212.825C155.813 213.265 153.585 213.47 151.372 213.47Z" fill="#46332A"/>
<path d="M142.767 208.97L161.395 145.918L133.768 129.254C133.768 129.254 120.24 144.819 127.744 149.656C115.784 159.915 116.737 172.842 116.546 187.543C113.102 199.194 110.522 207.944 110.522 207.944L142.767 208.97Z" fill="#A3A3A3"/>
<path d="M148.586 214.115L169.076 144.776C169.838 142.196 168.358 139.485 165.778 138.723L160.766 137.242C158.186 136.48 155.475 137.96 154.712 140.54L151.693 150.756L145.787 170.762L134.223 209.865C133.461 212.444 134.941 215.156 137.52 215.918L142.533 217.398C145.112 218.16 147.824 216.695 148.586 214.115Z" fill="#66ADD9"/>
<path d="M145.773 171.201C145.729 171.201 145.685 171.201 145.641 171.186C145.407 171.113 145.26 170.863 145.333 170.629L154.259 140.407C154.655 139.044 155.578 137.916 156.824 137.242C158.07 136.567 159.506 136.406 160.884 136.817C161.118 136.89 161.265 137.139 161.192 137.373C161.118 137.608 160.869 137.74 160.635 137.681C159.506 137.344 158.304 137.476 157.264 138.033C156.223 138.59 155.476 139.528 155.139 140.671L146.213 170.893C146.154 171.069 145.964 171.201 145.773 171.201Z" fill="#46332A"/>
<path d="M143.925 218.057C143.412 218.057 142.914 217.984 142.416 217.837C142.181 217.764 142.035 217.515 142.108 217.28C142.181 217.046 142.43 216.914 142.665 216.972C143.793 217.31 144.995 217.178 146.036 216.621C147.076 216.049 147.824 215.126 148.161 213.983L168.651 144.643C168.724 144.408 168.973 144.277 169.208 144.335C169.442 144.408 169.589 144.658 169.515 144.892L149.026 214.232C148.63 215.595 147.707 216.723 146.461 217.398C145.669 217.837 144.79 218.057 143.925 218.057Z" fill="#46332A"/>
<path d="M140.422 157.409C140.349 157.409 140.261 157.394 140.188 157.35L123.157 147.281C122.937 147.149 122.878 146.886 122.996 146.666C123.128 146.446 123.391 146.387 123.611 146.504L140.642 156.573C140.862 156.705 140.921 156.969 140.803 157.189C140.73 157.321 140.583 157.409 140.422 157.409Z" fill="#D9D9D9"/>
<path d="M134.384 190.137C134.37 190.137 134.355 190.137 134.326 190.137L116.503 187.997C116.254 187.968 116.078 187.748 116.108 187.499C116.137 187.249 116.372 187.073 116.606 187.103L134.428 189.243C134.677 189.272 134.853 189.492 134.824 189.741C134.809 189.975 134.604 190.137 134.384 190.137Z" fill="#D9D9D9"/>
<path d="M127.467 181.168C127.423 181.168 127.379 181.168 127.32 181.138L114.467 176.917C114.232 176.844 114.1 176.58 114.174 176.346C114.247 176.111 114.511 175.979 114.745 176.052L127.599 180.274C127.833 180.347 127.965 180.611 127.892 180.845C127.833 181.05 127.657 181.168 127.467 181.168Z" fill="#D9D9D9"/>
<path d="M130.412 155.43C130.368 155.43 130.309 155.416 130.266 155.401L123.685 153.173C123.45 153.1 123.318 152.836 123.406 152.602C123.48 152.367 123.743 152.235 123.978 152.323L130.559 154.551C130.793 154.624 130.925 154.888 130.837 155.123C130.778 155.313 130.603 155.43 130.412 155.43Z" fill="#D9D9D9"/>
<path d="M670.618 314.526H633.391V412.094H670.618V314.526Z" fill="#66ADD9"/>
<path d="M633.684 314.526H511.259V412.094H633.684V314.526Z" fill="#0477BF"/>
<path d="M670.618 314.981H563.67C563.421 314.981 563.201 314.776 563.201 314.512C563.201 314.248 563.406 314.043 563.67 314.043H670.618C670.867 314.043 671.087 314.248 671.087 314.512C671.087 314.776 670.867 314.981 670.618 314.981Z" fill="#46332A"/>
<path d="M652.004 334.591L633.053 314.835C632.877 314.644 632.877 314.351 633.068 314.175C633.258 313.999 633.551 313.999 633.727 314.19L652.004 333.243L670.28 314.19C670.456 313.999 670.749 313.999 670.94 314.175C671.13 314.351 671.13 314.644 670.955 314.835L652.004 334.591Z" fill="#46332A"/>
<path d="M670.617 412.549C670.5 412.549 670.383 412.505 670.295 412.417L652.004 394.126L633.712 412.417C633.536 412.593 633.243 412.593 633.053 412.417C632.877 412.241 632.877 411.948 633.053 411.757L651.989 392.821L670.94 411.757C671.116 411.933 671.116 412.226 670.94 412.417C670.852 412.505 670.735 412.549 670.617 412.549Z" fill="#46332A"/>
<path d="M652.004 393.935C651.755 393.935 651.535 393.73 651.535 393.466V380.481C651.535 380.232 651.74 380.012 652.004 380.012C652.253 380.012 652.473 380.217 652.473 380.481V393.466C652.459 393.73 652.253 393.935 652.004 393.935Z" fill="#46332A"/>
<path d="M652.004 362.731C651.755 362.731 651.535 362.526 651.535 362.262V338.211C651.535 337.962 651.74 337.742 652.004 337.742C652.253 337.742 652.473 337.947 652.473 338.211V362.262C652.459 362.526 652.253 362.731 652.004 362.731Z" fill="#46332A"/>
<path d="M633.668 371.115C633.156 371.115 632.745 370.705 632.745 370.192V320.257C632.745 319.744 633.156 319.334 633.668 319.334C634.181 319.334 634.592 319.744 634.592 320.257V370.177C634.606 370.69 634.181 371.115 633.668 371.115Z" fill="#EDF6FB"/>
<path d="M330.897 355.535L325.283 236.876L324.331 216.562L323.569 200.704L321.619 159.49C321.282 152.323 317.208 145.845 310.891 142.43L297.597 135.234L282.003 126.806C277.21 124.197 274.22 119.2 274.22 113.733V89.8721H235.234V113.733C235.234 119.185 232.244 124.197 227.452 126.806L198.578 142.43C192.261 145.845 188.187 152.323 187.85 159.49L181.254 298.785L179.129 343.59L176.418 400.97C176.139 406.935 180.903 411.933 186.868 411.933H322.572C328.552 411.933 333.315 406.935 333.022 400.97L330.897 355.535ZM205.071 178.338L204.514 175.935C204.236 174.733 204.104 173.502 204.148 172.271V172.256C205.071 145.01 235.938 146.402 235.938 173.692V242.314C235.938 269.589 205.071 270.982 204.148 243.735C204.119 243.09 204.119 242.446 204.119 241.801L204.47 240.438C209.585 220.08 209.805 198.799 205.071 178.338Z" fill="#66ADD9"/>
<path d="M276.331 99.9112H232.934V68.2826C232.934 64.9556 235.63 62.2734 238.943 62.2734H270.308C273.635 62.2734 276.317 64.9702 276.317 68.2826V99.9112H276.331Z" fill="#F29100"/>
<path d="M276.33 70.5109C275.817 70.5109 275.406 70.1005 275.406 69.5875C275.406 66.07 272.534 63.1973 269.016 63.1973H240.26C239.747 63.1973 239.337 62.7869 239.337 62.2739C239.337 61.761 239.747 61.3506 240.26 61.3506H269.016C273.56 61.3506 277.253 65.044 277.253 69.5875C277.253 70.1005 276.843 70.5109 276.33 70.5109Z" fill="#EDF6FB"/>
<path d="M277.005 105.1H232.464C230.236 105.1 228.434 103.297 228.434 101.069V90.5312H281.021V101.069C281.036 103.297 279.233 105.1 277.005 105.1Z" fill="#66ADD9"/>
<path d="M228.448 100.674C228.198 100.674 227.979 100.469 227.979 100.205V90.0771H281.035C281.284 90.0771 281.504 90.2823 281.504 90.5462C281.504 90.7953 281.299 91.0152 281.035 91.0152H228.902V100.219C228.902 100.469 228.697 100.674 228.448 100.674Z" fill="#46332A"/>
<path d="M181.269 299.254C181.254 299.254 181.254 299.254 181.239 299.254C180.99 299.239 180.785 299.02 180.8 298.77L187.395 159.476C187.732 152.191 191.938 145.493 198.358 142.02C198.578 141.903 198.871 141.976 198.988 142.21C199.105 142.43 199.032 142.723 198.798 142.841C192.657 146.168 188.641 152.558 188.318 159.52L181.723 298.814C181.723 299.064 181.518 299.254 181.269 299.254Z" fill="#46332A"/>
<path d="M323.569 201.642C323.071 201.642 322.661 201.261 322.646 200.763L320.697 159.549C320.374 152.748 316.446 146.505 310.452 143.251L281.579 127.627C276.478 124.857 273.312 119.537 273.312 113.733C273.312 113.22 273.723 112.81 274.236 112.81C274.749 112.81 275.159 113.22 275.159 113.733C275.159 118.848 277.959 123.538 282.458 125.986L311.331 141.609C317.897 145.156 322.192 152.001 322.543 159.446L324.493 200.66C324.522 201.173 324.126 201.613 323.613 201.628C323.599 201.642 323.584 201.642 323.569 201.642Z" fill="#EDF6FB"/>
<path d="M301.862 373.591H207.738C201.612 373.591 196.614 368.578 196.614 362.467V303.944C196.614 297.817 201.627 292.819 207.738 292.819H301.862C307.989 292.819 312.986 297.832 312.986 303.944V362.467C313.001 368.578 307.989 373.591 301.862 373.591Z" fill="#0477BF"/>
<path d="M320.842 141.522L315.83 128.961L310.803 141.522L298.594 146.197L310.597 150.052L315.83 163.433L321.047 150.052L333.066 146.197L320.842 141.522Z" fill="#EDF6FB"/>
<path d="M315.829 163.887C315.771 163.887 315.712 163.873 315.668 163.858C315.434 163.77 315.316 163.492 315.404 163.257L320.71 149.671L332.933 145.743C333.182 145.655 333.432 145.801 333.52 146.036C333.593 146.285 333.461 146.534 333.226 146.622L321.428 150.418L316.284 163.594C316.181 163.785 316.005 163.887 315.829 163.887Z" fill="#46332A"/>
<path d="M486.445 256.647V395.884C486.445 405.132 478.941 412.651 469.693 412.651H385.389C376.141 412.651 368.637 405.146 368.637 395.884V262.891C368.637 252.661 370.249 242.577 373.385 232.963C376.068 224.711 379.849 216.797 384.7 209.468L396.777 191.192L409.528 171.904C412.137 167.976 417.325 166.73 421.415 169.061L442.71 181.196C446.418 183.307 448.119 187.748 446.77 191.793L445.774 194.797C441.655 207.138 448.221 220.49 460.518 224.755L464.842 226.25C477.769 230.75 486.445 242.944 486.445 256.647Z" fill="#66ADD9"/>
<path d="M368.652 263.36C368.402 263.36 368.183 263.155 368.183 262.891C368.183 252.632 369.795 242.519 372.961 232.816C375.657 224.477 379.483 216.533 384.319 209.219C384.466 209 384.744 208.941 384.964 209.087C385.184 209.234 385.243 209.513 385.096 209.732C380.303 216.973 376.522 224.843 373.84 233.109C370.704 242.724 369.106 252.749 369.106 262.906C369.106 263.155 368.901 263.36 368.652 263.36Z" fill="#46332A"/>
<path d="M395.048 209.542C394.872 209.542 394.696 209.498 394.535 209.381C394.11 209.102 393.993 208.516 394.271 208.091L414.79 177.049C415.069 176.624 415.64 176.506 416.08 176.785C416.505 177.063 416.622 177.65 416.344 178.075L395.825 209.117C395.649 209.395 395.341 209.542 395.048 209.542Z" fill="#66ADD9"/>
<path d="M428.141 220.974C428.053 220.974 427.951 220.96 427.863 220.93C427.379 220.769 427.1 220.256 427.262 219.772L437.243 188.364C437.404 187.88 437.917 187.601 438.401 187.763C438.884 187.924 439.163 188.437 439.001 188.921L429.02 220.329C428.903 220.725 428.537 220.974 428.141 220.974Z" fill="#66ADD9"/>
<path d="M414.82 209.161C414.688 209.161 414.541 209.132 414.424 209.073C413.97 208.854 413.765 208.297 413.999 207.842L427.131 180.596C427.351 180.142 427.908 179.937 428.362 180.171C428.817 180.391 429.022 180.948 428.787 181.402L415.655 208.648C415.494 208.971 415.172 209.161 414.82 209.161Z" fill="#66ADD9"/>
<path d="M427.805 152.16L415.992 172.62L443.268 188.368L455.081 167.908L427.805 152.16Z" fill="#66ADD9"/>
<path d="M486.445 257.571C485.932 257.571 485.522 257.161 485.522 256.648C485.522 243.355 477.08 231.498 464.534 227.13L460.21 225.635C447.503 221.224 440.644 207.256 444.894 194.505L445.891 191.5C447.093 187.88 445.569 183.879 442.242 182.003L420.946 169.867C420.506 169.618 420.345 169.047 420.594 168.607C420.843 168.167 421.415 168.006 421.854 168.255L443.15 180.391C447.225 182.706 449.115 187.631 447.635 192.087L446.624 195.091C442.696 206.89 449.042 219.802 460.797 223.891L465.12 225.386C478.428 230.003 487.354 242.563 487.354 256.648C487.369 257.161 486.958 257.571 486.445 257.571Z" fill="#66ADD9"/>
<path d="M453.689 177.357L421.123 158.553C420.639 158.274 420.478 157.659 420.756 157.175L431.558 138.459C431.837 137.975 432.452 137.814 432.936 138.092L465.502 156.897C465.986 157.175 466.147 157.791 465.869 158.274L455.067 176.99C454.789 177.459 454.173 177.635 453.689 177.357Z" fill="#F29100"/>
<path d="M465.823 159.285C465.661 159.285 465.5 159.241 465.354 159.153C464.914 158.904 464.753 158.332 465.017 157.893C465.046 157.849 465.046 157.79 465.031 157.761C465.017 157.731 465.002 157.688 464.958 157.658L432.553 138.957C432.113 138.707 431.952 138.136 432.215 137.696C432.465 137.256 433.036 137.095 433.476 137.359L465.881 156.061C466.35 156.324 466.687 156.764 466.834 157.292C466.981 157.819 466.907 158.362 466.629 158.831C466.453 159.109 466.145 159.285 465.823 159.285Z" fill="#F29100"/>
<path d="M435.544 167.332C435.471 167.332 435.383 167.317 435.31 167.273L420.976 159.007C420.61 158.802 420.36 158.465 420.243 158.054C420.141 157.644 420.184 157.233 420.404 156.867C420.536 156.647 420.815 156.574 421.035 156.691C421.254 156.823 421.328 157.102 421.21 157.321C421.122 157.468 421.108 157.644 421.152 157.805C421.196 157.966 421.298 158.113 421.445 158.186L435.779 166.452C435.999 166.584 436.072 166.863 435.955 167.083C435.852 167.259 435.706 167.332 435.544 167.332Z" fill="#46332A"/>
<path d="M450.288 353.175H403.724C393.26 353.175 384.7 344.616 384.7 334.151V289.346C384.7 278.882 393.26 270.322 403.724 270.322H450.288C460.752 270.322 469.312 278.882 469.312 289.346V334.151C469.312 344.616 460.752 353.175 450.288 353.175Z" fill="#A3A3A3"/>
<path d="M483.441 234.033L480.026 225.518L476.626 234.033L468.345 237.199L476.494 239.822L480.026 248.895L483.573 239.822L491.722 237.199L483.441 234.033Z" fill="white"/>
<path d="M480.027 249.349C479.968 249.349 479.909 249.335 479.865 249.32C479.631 249.232 479.514 248.954 479.601 248.719L483.222 239.442L491.576 236.76C491.825 236.686 492.089 236.818 492.162 237.053C492.235 237.302 492.103 237.551 491.869 237.639L483.925 240.189L480.466 249.056C480.393 249.247 480.217 249.349 480.027 249.349Z" fill="#46332A"/>
<path d="M147.341 392.132V395.664C147.356 404.854 154.816 412.299 164.02 412.284L254.304 412.123C261.163 412.109 266.703 406.539 266.688 399.695L266.659 386.709L152.544 386.914C149.671 386.9 147.326 389.245 147.341 392.132Z" fill="#F29100"/>
<path d="M147.267 355.212C144.775 355.915 144.951 356.194 147.824 357.557C145.186 357.22 147.062 359.55 149.231 363.419C147.472 363.097 149.436 368.842 149.978 371.319C150.506 373.796 151.4 376.185 152.895 378.662C151.532 380.465 154.859 386.87 154.859 386.87L259.11 386.679L266.6 354.977C266.6 354.977 259.14 354.992 247.957 355.007C242.153 354.757 235.44 353.16 228.42 352.427C221.385 351.694 214.042 351.826 206.933 355.08C203.548 351.65 190.665 344.718 188.246 352.691C180.024 345.817 173.121 350.375 165.91 355.153C162.773 352.779 158.113 352.779 154.243 353.38C149.29 354.376 144.775 355.93 147.267 355.212Z" fill="#C5C5C5"/>
<path d="M165.925 391.868V394.228C165.94 404.209 174.045 412.284 184.026 412.27L273.488 412.109C279.996 412.094 285.272 406.803 285.258 400.296L285.243 391.883C285.243 389.01 282.913 386.694 280.04 386.694L170.864 386.885C168.138 386.899 165.91 389.127 165.925 391.868Z" fill="#66ADD9"/>
<path d="M183.807 412.739C173.709 412.739 165.486 404.531 165.472 394.433C165.472 394.184 165.677 393.964 165.941 393.964C166.19 393.964 166.41 394.169 166.41 394.433C166.424 404.018 174.236 411.815 183.822 411.815C183.836 411.815 183.836 411.815 183.851 411.815L203.974 411.786C204.223 411.786 204.443 411.991 204.443 412.255C204.443 412.504 204.238 412.724 203.974 412.724L183.851 412.753C183.822 412.739 183.807 412.739 183.807 412.739Z" fill="#46332A"/>
<path d="M165.852 355.212C165.852 355.212 165.588 356.956 165.691 358.861C165.808 360.767 165.823 363.727 167.816 363.419C166.555 366.82 164.313 371.114 168.637 371.348C165.295 373.737 169.589 375.965 171.48 378.677C170.645 380.113 172.535 383.074 172.887 384.539C173.239 386.005 173.444 386.884 173.444 386.884L277.695 386.694L285.185 354.992C285.185 354.992 277.725 355.007 266.542 355.021C260.738 354.772 254.025 353.174 247.005 352.442C239.97 351.709 232.627 351.841 225.518 355.094C222.133 351.665 209.25 344.732 206.831 352.705C198.609 345.832 191.706 350.39 184.495 355.168C178.237 350.419 165.852 355.212 165.852 355.212Z" fill="white"/>
<path d="M172.887 385.008C172.682 385.008 172.491 384.862 172.432 384.657C172.33 384.246 172.095 383.675 171.832 383.074C171.201 381.594 170.498 379.923 170.937 378.735C170.468 378.12 169.868 377.504 169.281 376.918C168.006 375.628 166.819 374.412 166.936 373.063C166.98 372.565 167.185 372.111 167.581 371.686C166.878 371.495 166.365 371.158 166.042 370.645C165.09 369.165 166.028 366.776 166.936 364.445C167.01 364.255 167.083 364.064 167.156 363.889C166.892 363.83 166.658 363.713 166.438 363.551C165.441 362.745 165.339 360.84 165.251 359.301L165.236 358.905C165.221 358.656 165.412 358.436 165.676 358.422C165.925 358.407 166.145 358.598 166.16 358.861L166.174 359.257C166.247 360.532 166.335 362.276 167.01 362.833C167.2 362.98 167.435 363.038 167.742 362.994L168.519 362.877L168.241 363.625C168.094 364.006 167.948 364.401 167.786 364.812C166.995 366.82 166.116 369.092 166.804 370.162C167.098 370.631 167.713 370.88 168.651 370.924L169.97 370.997L168.886 371.759C168.226 372.228 167.889 372.682 167.845 373.151C167.757 374.075 168.812 375.145 169.926 376.273C170.6 376.962 171.304 377.666 171.832 378.428L172.007 378.677L171.861 378.926C171.392 379.717 172.139 381.447 172.667 382.722C172.945 383.367 173.195 383.968 173.312 384.452C173.37 384.701 173.224 384.95 172.975 385.008C172.96 385.008 172.931 385.008 172.887 385.008Z" fill="#46332A"/>
<path d="M285.258 398.36C285.009 398.36 284.789 398.155 284.789 397.891V393.993C284.789 392.16 284.071 390.446 282.781 389.156C281.491 387.866 279.777 387.163 277.945 387.163H277.93L231.469 387.251C231.22 387.251 231 387.045 231 386.782C231 386.532 231.205 386.313 231.469 386.313L277.93 386.225H277.945C280.011 386.225 281.96 387.031 283.426 388.496C284.892 389.962 285.712 391.911 285.712 393.993V397.891C285.727 398.155 285.522 398.36 285.258 398.36Z" fill="#46332A"/>
<path d="M223.494 365.559C223.436 365.559 223.392 365.544 223.333 365.53C223.099 365.442 222.967 365.178 223.055 364.943C223.524 363.624 224.945 356.809 224.96 356.75C225.019 356.501 225.253 356.325 225.502 356.399C225.752 356.457 225.913 356.692 225.854 356.941C225.796 357.219 224.403 363.888 223.905 365.266C223.876 365.442 223.685 365.559 223.494 365.559Z" fill="#A3A3A3"/>
<path d="M189.888 370.543C189.859 370.543 189.83 370.543 189.8 370.528C189.566 370.484 189.405 370.264 189.434 370.044C189.346 369.238 186.605 361.72 184.876 357.147C184.788 356.912 184.905 356.634 185.14 356.546C185.374 356.458 185.653 356.575 185.741 356.81C188.892 365.178 190.445 369.678 190.357 370.162C190.299 370.381 190.108 370.543 189.888 370.543Z" fill="#A3A3A3"/>
<path d="M257.513 375.013C257.469 375.013 257.425 375.013 257.381 374.998C257.132 374.925 257 374.675 257.073 374.426L263.258 353.336C263.331 353.087 263.58 352.955 263.83 353.028C264.079 353.101 264.211 353.35 264.137 353.6L257.952 374.69C257.894 374.895 257.718 375.013 257.513 375.013Z" fill="#A3A3A3"/>
<path d="M243.339 356.106H243.324C243.075 356.091 242.885 355.901 242.885 355.652C242.885 355.271 243.911 350.83 244.35 348.924C244.409 348.675 244.658 348.514 244.907 348.573C245.157 348.631 245.318 348.88 245.259 349.13C244.717 351.46 243.852 355.3 243.823 355.666C243.779 355.915 243.574 356.106 243.339 356.106Z" fill="#A3A3A3"/>
<path d="M203.343 374.046C203.123 374.046 202.932 373.899 202.888 373.679L200.822 364.109C200.763 363.859 200.924 363.61 201.173 363.552C201.423 363.508 201.672 363.654 201.73 363.903L203.797 373.474C203.856 373.723 203.694 373.972 203.445 374.031C203.401 374.046 203.372 374.046 203.343 374.046Z" fill="#A3A3A3"/>
<path d="M344.88 292.819V282.53H370.646V292.819C370.646 296.85 371.819 300.704 373.9 303.885C375.146 305.79 376.714 307.476 378.561 308.809C386.124 314.305 391.107 323.744 391.107 334.458V345.743V400.852C391.107 407.051 386.534 412.064 380.906 412.064H333.712C328.582 412.064 324.42 407.491 324.42 401.848V334.473C324.42 327.276 326.677 320.652 330.444 315.419C332.29 312.854 334.489 310.627 336.966 308.824C341.876 305.262 344.88 299.283 344.88 292.819Z" fill="#C4E1F2"/>
<path d="M324.419 402.332C324.17 402.332 323.95 402.127 323.95 401.863V334.473C323.95 327.379 326.061 320.696 330.062 315.141C331.938 312.532 334.166 310.275 336.687 308.443C336.892 308.296 337.185 308.34 337.332 308.545C337.478 308.751 337.434 309.044 337.229 309.19C334.781 310.964 332.627 313.147 330.809 315.683C326.925 321.077 324.874 327.569 324.874 334.473V401.863C324.888 402.127 324.683 402.332 324.419 402.332Z" fill="#46332A"/>
<path d="M391.106 366.101C390.593 366.101 390.183 365.691 390.183 365.178V334.473C390.183 324.419 385.639 315.112 378.018 309.572C376.098 308.179 374.456 306.435 373.137 304.398C372.859 303.973 372.976 303.401 373.401 303.108C373.826 302.83 374.412 302.947 374.691 303.372C375.893 305.219 377.388 306.787 379.117 308.047C387.208 313.939 392.044 323.803 392.044 334.444V365.149C392.03 365.691 391.619 366.101 391.106 366.101Z" fill="#88A8FF"/>
<path d="M344.645 297.304H353.498H357.47H360.049H370.88C371.818 297.304 372.581 296.542 372.581 295.604V283.498C372.581 282.56 371.818 281.798 370.88 281.798H344.645C343.707 281.798 342.945 282.56 342.945 283.498V295.604C342.945 296.542 343.707 297.304 344.645 297.304Z" fill="#F29100"/>
<path d="M360.049 298.228H353.498C352.985 298.228 352.574 297.817 352.574 297.304C352.574 296.791 352.985 296.381 353.498 296.381H360.049C360.562 296.381 360.972 296.791 360.972 297.304C360.972 297.817 360.562 298.228 360.049 298.228Z" fill="#88A8FF"/>
<path d="M384.437 261.851L391.853 292.717L391.911 292.981C392.131 293.875 391.574 294.784 390.666 295.004C389.86 295.194 389.039 294.769 388.731 294.022L376.537 265.178L376.258 264.533C375.335 262.334 376.361 259.814 378.545 258.876C380.743 257.952 383.264 258.978 384.202 261.162C384.305 261.396 384.393 261.631 384.437 261.851Z" fill="#46332A"/>
<path d="M336.451 255.987C343.677 249.89 374.28 251.136 388.218 252.045C392.483 252.323 395.194 252.572 395.194 252.572V257.922V268.562C395.194 268.562 374.734 267.815 368.49 281.783H346.037C346.037 281.783 346.711 278.749 337.287 271.655C331.395 267.258 333.447 258.523 336.451 255.987Z" fill="#66ADD9"/>
<path d="M337.287 272.139C337.184 272.139 337.096 272.11 337.008 272.051C333.872 269.691 333.124 266.423 333.066 264.093C332.978 260.78 334.268 257.233 336.158 255.636C340.013 252.368 350.61 250.741 367.626 250.829C367.875 250.829 368.095 251.034 368.095 251.298C368.095 251.547 367.889 251.767 367.626 251.767C351.079 251.679 340.394 253.291 336.759 256.354C335.308 257.571 333.901 260.619 334.004 264.078C334.062 266.203 334.737 269.178 337.58 271.318C337.785 271.479 337.829 271.758 337.668 271.963C337.565 272.08 337.419 272.139 337.287 272.139Z" fill="#46332A"/>
<path d="M370.425 278.925C370.337 278.925 370.235 278.895 370.147 278.837C369.942 278.69 369.898 278.397 370.044 278.192C377.812 267.61 395.019 268.108 395.195 268.108C395.444 268.123 395.649 268.328 395.634 268.592C395.62 268.841 395.444 269.032 395.151 269.032C394.975 269.017 378.267 268.548 370.777 278.734C370.704 278.866 370.572 278.925 370.425 278.925Z" fill="#46332A"/>
<path d="M372.58 284.421C372.067 284.421 371.657 284.011 371.657 283.498C371.657 283.073 371.305 282.721 370.88 282.721H344.645C344.132 282.721 343.722 282.31 343.722 281.797C343.722 281.284 344.132 280.874 344.645 280.874H370.88C372.331 280.874 373.504 282.047 373.504 283.498C373.504 284.011 373.093 284.421 372.58 284.421Z" fill="#F29100"/>
<path d="M398.36 255.05H395.18V266.101H398.36V255.05Z" fill="#46332A"/>
<path d="M391.647 319.084L389.067 312.649L386.488 319.084L380.215 321.487L386.385 323.466L389.067 330.34L391.749 323.466L397.905 321.487L391.647 319.084Z" fill="white"/>
<path d="M389.068 330.794C389.009 330.794 388.95 330.779 388.906 330.765C388.672 330.677 388.555 330.398 388.642 330.164L391.398 323.099L397.773 321.048C398.023 320.974 398.272 321.106 398.36 321.341C398.433 321.59 398.301 321.839 398.067 321.927L392.116 323.832L389.522 330.486C389.434 330.692 389.258 330.794 389.068 330.794Z" fill="#46332A"/>
<path d="M528.51 376.098L526.781 371.774L525.066 376.098L520.874 377.696L524.992 379.015L526.781 383.617L528.583 379.015L532.702 377.696L528.51 376.098Z" fill="white"/>
<path d="M526.78 384.071C526.722 384.071 526.663 384.056 526.619 384.042C526.385 383.954 526.267 383.675 526.355 383.441L528.231 378.648L532.57 377.256C532.804 377.182 533.068 377.314 533.156 377.549C533.229 377.798 533.097 378.047 532.863 378.135L528.95 379.395L527.235 383.778C527.147 383.968 526.971 384.071 526.78 384.071Z" fill="#46332A"/>
<path d="M437.054 367.802L436.131 365.486L435.207 367.802L432.95 368.667L435.163 369.37L436.131 371.847L437.083 369.37L439.296 368.667L437.054 367.802Z" fill="white"/>
<path d="M464.93 368.623C466.147 372.756 463.171 376.904 458.877 377.138C455.374 377.343 451.842 377.226 448.325 376.904C447.724 376.845 447.123 376.904 446.551 377.065C441.89 378.428 440.278 386.973 442.96 396.133C445.642 405.293 451.608 411.61 456.268 410.247C456.869 410.071 457.412 409.778 457.91 409.382C460.651 407.198 463.523 405.19 466.542 403.446C470.295 401.292 475.058 403.168 476.274 407.316C476.949 409.631 479.382 410.965 481.712 410.291L491.033 407.565L477.183 360.356L467.862 363.083C465.546 363.757 464.212 366.19 464.886 368.52L464.93 368.623Z" fill="#66ADD9"/>
<path d="M451.462 387.442C451.257 387.442 451.081 387.31 451.022 387.105C449.923 383.368 448.208 379.924 446.171 377.388C446.01 377.183 446.039 376.89 446.244 376.743C446.449 376.582 446.742 376.611 446.889 376.816C449 379.44 450.788 383.016 451.916 386.856C451.989 387.105 451.843 387.354 451.608 387.428C451.55 387.442 451.491 387.442 451.462 387.442Z" fill="#46332A"/>
<path d="M480.481 410.951C478.385 410.951 476.45 409.573 475.834 407.463C475.761 407.213 475.908 406.964 476.142 406.891C476.391 406.818 476.641 406.964 476.714 407.199C477.329 409.265 479.499 410.453 481.58 409.852L490.901 407.126C491.15 407.052 491.4 407.199 491.473 407.433C491.546 407.682 491.4 407.932 491.165 408.005L481.844 410.731C481.389 410.892 480.935 410.951 480.481 410.951Z" fill="#46332A"/>
<path d="M491.62 356.136C491.62 356.136 496.295 362.629 495.21 368.374C499.505 371.833 502.964 374.896 499.124 379.571C504.635 381.022 502.744 386.167 501.864 391.106C505.338 395.884 505.455 403.344 505.455 403.344L489.934 403.886L478.253 364.05L491.62 356.136Z" fill="#A3A3A3"/>
<path d="M476.274 407.799C476.069 407.799 475.893 407.668 475.835 407.462L468.14 381.213C468.067 380.963 468.213 380.714 468.448 380.641C468.697 380.568 468.946 380.714 469.019 380.949L476.714 407.199C476.787 407.448 476.641 407.697 476.406 407.77C476.362 407.799 476.318 407.799 476.274 407.799Z" fill="#46332A"/>
<path d="M484.306 385.111C484.101 385.111 483.925 384.98 483.867 384.774L476.876 360.928L473.578 361.896C473.329 361.969 473.08 361.822 473.006 361.588C472.933 361.339 473.08 361.09 473.314 361.016L477.506 359.785L484.761 384.511C484.834 384.76 484.687 385.009 484.453 385.082C484.394 385.111 484.35 385.111 484.306 385.111Z" fill="#46332A"/>
<path d="M487.267 372.009C487.091 372.009 486.915 371.906 486.842 371.73C486.739 371.496 486.857 371.217 487.091 371.129L495.958 367.363C496.193 367.26 496.471 367.377 496.559 367.612C496.662 367.846 496.545 368.125 496.31 368.213L487.443 371.979C487.384 371.994 487.326 372.009 487.267 372.009Z" fill="#D9D9D9"/>
<path d="M496.192 392.777C495.957 392.777 495.767 392.601 495.738 392.381C495.708 392.132 495.884 391.897 496.133 391.853L502.597 391.003C502.846 390.959 503.08 391.15 503.124 391.399C503.154 391.648 502.978 391.883 502.729 391.927L496.265 392.777C496.236 392.777 496.221 392.777 496.192 392.777Z" fill="#D9D9D9"/>
<path d="M495.753 381.023C495.577 381.023 495.401 380.921 495.328 380.745C495.225 380.51 495.328 380.232 495.562 380.129L500.048 378.15C500.282 378.047 500.561 378.15 500.664 378.385C500.766 378.619 500.664 378.898 500.429 379L495.943 380.979C495.87 381.009 495.812 381.023 495.753 381.023Z" fill="#D9D9D9"/>
<path d="M492.09 387.222C491.87 387.222 491.665 387.061 491.636 386.826C491.592 386.577 491.768 386.342 492.031 386.298L504.064 384.466C504.313 384.437 504.548 384.598 504.592 384.862C504.636 385.111 504.46 385.346 504.196 385.39L492.163 387.222C492.134 387.222 492.119 387.222 492.09 387.222Z" fill="#D9D9D9"/>
<path d="M565.825 188.524C566.821 185.08 565.136 181.386 561.838 179.979C547.607 173.868 547.9 162.494 547.9 162.494V159.387C547.9 159.006 547.592 158.684 547.196 158.684H540.557H533.918C533.537 158.684 533.214 158.991 533.214 159.387V162.494C533.214 162.494 533.507 173.868 519.276 179.979C515.978 181.401 514.293 185.08 515.289 188.524L518.895 201.041C518.895 201.041 507.888 301.994 517.063 314.482H540.557H564.051C566.631 310.964 567.613 300.455 567.701 287.162C567.745 279.335 567.481 270.542 567.041 261.645C565.575 231.922 562.219 201.041 562.219 201.041L565.825 188.524Z" fill="#66ADD9"/>
<path d="M564.051 315.405C563.86 315.405 563.67 315.347 563.508 315.229C563.098 314.921 563.01 314.35 563.318 313.94C564.842 311.873 566.674 305.556 566.791 287.162C566.835 279.981 566.616 271.407 566.132 261.689C566.103 261.176 566.498 260.737 567.011 260.722C567.51 260.678 567.964 261.088 567.979 261.601C568.462 271.363 568.682 279.966 568.638 287.177C568.55 302.551 567.29 311.668 564.813 315.039C564.608 315.273 564.329 315.405 564.051 315.405Z" fill="#F29100"/>
<path d="M517.063 314.936C516.916 314.936 516.784 314.877 516.696 314.745C507.58 302.346 517.854 206.361 518.441 201.07L514.85 188.641C514.776 188.392 514.923 188.143 515.172 188.07C515.421 187.996 515.671 188.143 515.744 188.392L519.379 200.997L519.364 201.085C519.261 202.096 508.474 301.994 517.444 314.188C517.591 314.394 517.547 314.687 517.341 314.833C517.253 314.906 517.151 314.936 517.063 314.936Z" fill="#46332A"/>
<path d="M534.094 158.684V147.56L531.456 145.859C530.283 145.112 529.829 143.602 530.4 142.327L537.098 143.705C537.098 143.705 545.511 142.327 555.331 142.635C563.025 142.869 571.57 144.159 577.638 147.941L573.651 152.616H547.255V158.669H534.094V158.684Z" fill="#4E74C6"/>
<path d="M577.622 148.879C577.461 148.879 577.285 148.835 577.138 148.732C572.141 145.61 564.783 143.866 555.3 143.573C545.7 143.28 537.332 144.614 537.258 144.628C536.76 144.716 536.276 144.365 536.188 143.866C536.1 143.353 536.452 142.884 536.95 142.796C537.038 142.782 545.568 141.404 555.359 141.712C565.179 142.02 572.844 143.852 578.12 147.164C578.56 147.428 578.692 148.014 578.413 148.439C578.238 148.732 577.93 148.879 577.622 148.879Z" fill="#4E74C6"/>
<path d="M573.857 153.1L547.08 153.071L533.845 147.956L531.852 146.681C531.632 146.549 531.574 146.256 531.705 146.036C531.837 145.816 532.131 145.757 532.35 145.889L534.3 147.15L547.329 152.177H573.432L575.792 149.407C575.953 149.216 576.246 149.187 576.452 149.348C576.642 149.509 576.671 149.802 576.51 150.008L573.857 153.1Z" fill="#46332A"/>
<path d="M562.219 201.965C562.131 201.965 562.043 201.95 561.956 201.935C561.457 201.789 561.179 201.276 561.325 200.792L564.931 188.275C565.796 185.256 564.315 182.061 561.472 180.83C546.83 174.542 546.962 162.964 546.977 162.465V159.607H540.557C540.044 159.607 539.634 159.197 539.634 158.684C539.634 158.171 540.044 157.761 540.557 157.761H547.197C548.091 157.761 548.823 158.494 548.823 159.388V162.495C548.809 162.949 548.765 173.355 562.205 179.13C565.913 180.727 567.847 184.875 566.719 188.788L563.113 201.305C562.996 201.701 562.615 201.965 562.219 201.965Z" fill="#F29100"/>
<path d="M566.016 180.713L564.447 176.771L562.879 180.713L559.054 182.179L562.806 183.381L564.447 187.587L566.089 183.381L569.855 182.179L566.016 180.713Z" fill="white"/>
<path d="M564.447 188.041C564.389 188.041 564.33 188.026 564.286 188.012C564.052 187.924 563.934 187.645 564.022 187.411L565.737 183.014L569.709 181.739C569.958 181.651 570.207 181.797 570.295 182.032C570.369 182.281 570.237 182.53 570.002 182.618L566.441 183.761L564.887 187.748C564.814 187.938 564.638 188.041 564.447 188.041Z" fill="#46332A"/>
<path d="M710.102 413.105H36.1551C35.3929 413.105 34.7627 412.475 34.7627 411.713C34.7627 410.951 35.3783 410.32 36.1551 410.32H710.102C710.864 410.32 711.494 410.951 711.494 411.713C711.494 412.489 710.864 413.105 710.102 413.105Z" fill="#F29100"/>
</svg>
