<svg width="442" height="469" viewBox="0 0 442 469" fill="none" xmlns="http://www.w3.org/2000/svg">
<g opacity="0.5">
<path d="M316.617 465.198C312.426 469.378 305.649 469.366 301.457 465.186L9.59224 172.838C5.41256 168.646 5.41255 161.869 9.60431 157.69L10.3291 156.965C14.5209 152.785 21.2978 152.785 25.4774 156.977L317.342 449.325C321.522 453.505 321.522 460.294 317.33 464.473L316.617 465.198Z" fill="#762AA9" fill-opacity="0.85"/>
<path d="M422.836 371.18C418.645 375.359 411.868 375.359 407.688 371.167L276.765 240.039C272.585 235.847 272.585 229.07 276.777 224.891L277.49 224.178C281.682 219.998 288.459 220.01 292.638 224.19L423.549 355.319C427.729 359.498 427.729 366.287 423.537 370.467L422.836 371.18Z" fill="#762AA9" fill-opacity="0.85"/>
<path d="M249.694 197.747C245.502 201.927 238.725 201.927 234.546 197.735L103.623 66.6066C99.4428 62.4148 99.4428 55.638 103.635 51.4583L104.347 50.7456C108.539 46.5659 115.316 46.5659 119.496 50.7576L250.407 181.886C254.586 186.078 254.586 192.855 250.395 197.034L249.694 197.747Z" fill="#762AA9" fill-opacity="0.85"/>
<path d="M335.028 182.973C330.836 187.153 324.059 187.153 319.879 182.961L188.968 51.8327C184.789 47.6409 184.789 40.864 188.98 36.6843L189.705 35.9716C193.897 31.7919 200.674 31.792 204.853 35.9837L335.764 167.112C339.944 171.304 339.944 178.081 335.752 182.26L335.028 182.973Z" fill="#762AA9" fill-opacity="0.85"/>
<path d="M437.671 285.774C433.479 289.954 426.702 289.954 422.523 285.762L365.807 228.962C361.627 224.782 361.627 217.993 365.819 213.814L366.544 213.089C370.736 208.909 377.513 208.909 381.692 213.101L438.408 269.901C442.588 274.093 442.575 280.87 438.396 285.061L437.671 285.774Z" fill="#762AA9" fill-opacity="0.85"/>
<path d="M434.868 433.343C430.688 437.523 423.899 437.523 419.72 433.331L127.855 140.983C123.675 136.791 123.675 130.014 127.867 125.835L128.58 125.122C132.771 120.942 139.548 120.942 143.728 125.134L435.593 417.482C439.773 421.674 439.773 428.451 435.581 432.63L434.868 433.343Z" fill="#762AA9" fill-opacity="0.85"/>
<path d="M113.407 111.303C109.216 115.482 102.439 115.482 98.259 111.291L41.5434 54.4904C37.3637 50.2986 37.3637 43.5217 41.5555 39.3421L42.2682 38.6293C46.46 34.4497 53.2368 34.4497 57.4165 38.6414L114.132 95.4416C118.312 99.6333 118.3 106.41 114.12 110.59L113.407 111.303Z" fill="#762AA9" fill-opacity="0.85"/>
<path d="M148.971 397.49C144.779 401.67 138.002 401.67 133.823 397.478L77.1191 340.678C72.9395 336.498 72.9395 329.709 77.1191 325.529L77.8439 324.805C82.0357 320.625 88.8126 320.625 92.9923 324.817L149.708 381.617C153.888 385.809 153.875 392.586 149.696 396.765L148.971 397.49Z" fill="#762AA9" fill-opacity="0.85"/>
<path d="M374.263 172.198C370.072 176.377 363.295 176.377 359.115 172.186L302.412 115.385C298.232 111.194 298.232 104.417 302.424 100.237L303.148 99.5244C307.34 95.3447 314.117 95.3447 318.297 99.5365L375 156.325C379.18 160.516 379.168 167.293 374.988 171.473L374.263 172.198Z" fill="#762AA9" fill-opacity="0.85"/>
<path d="M375.773 273.924C371.581 278.104 364.804 278.104 360.624 273.912L229.713 142.783C225.534 138.592 225.534 131.815 229.725 127.635L230.45 126.922C234.63 122.743 241.419 122.743 245.599 126.934L376.522 258.063C380.701 262.255 380.701 269.044 376.51 273.211L375.773 273.924Z" fill="#762AA9" fill-opacity="0.85"/>
<path d="M216.075 113.96C211.884 118.14 205.107 118.14 200.927 113.948L200.77 113.791C196.59 109.599 196.59 102.823 200.782 98.6428L201.495 97.9301C205.687 93.7504 212.463 93.7504 216.643 97.9422L216.8 98.0992C220.98 102.291 220.968 109.068 216.788 113.248L216.075 113.96Z" fill="#762AA9" fill-opacity="0.85"/>
<path d="M51.292 248.108C55.4838 243.929 62.2606 243.929 66.4403 248.12L197.351 379.249C201.531 383.441 201.531 390.23 197.339 394.409L196.626 395.122C192.435 399.302 185.658 399.29 181.478 395.11L50.5551 263.981C46.3754 259.79 46.3754 253.013 50.5672 248.833L51.292 248.108Z" fill="#762AA9" fill-opacity="0.85"/>
<path d="M211.002 408.084C215.194 403.904 221.971 403.904 226.15 408.096L226.307 408.253C230.487 412.445 230.487 419.222 226.295 423.401L225.583 424.114C221.391 428.294 214.614 428.294 210.434 424.102L210.277 423.945C206.097 419.753 206.11 412.976 210.289 408.797L211.002 408.084Z" fill="#762AA9" fill-opacity="0.85"/>
<path d="M317.004 365.405C312.812 369.585 306.035 369.573 301.856 365.393L79.3178 142.384C75.1381 138.193 75.1381 131.416 79.3299 127.236L80.0547 126.523C84.2344 122.344 91.0233 122.344 95.203 126.535L317.741 349.544C321.92 353.724 321.92 360.513 317.729 364.693L317.004 365.405Z" fill="#762AA9" fill-opacity="0.85"/>
<path d="M316.775 365.176C312.583 369.356 305.806 369.344 301.626 365.164L244.923 308.364C240.743 304.172 240.743 297.395 244.923 293.215L245.648 292.491C249.839 288.311 256.616 288.323 260.796 292.503L317.512 349.303C321.691 353.495 321.679 360.271 317.499 364.451L316.775 365.176Z" fill="#762AA9" fill-opacity="0.85"/>
<path d="M347.047 395.497C342.855 399.676 336.078 399.676 331.899 395.485L331.742 395.328C327.562 391.136 327.562 384.359 331.754 380.179L332.479 379.467C336.67 375.287 343.459 375.299 347.627 379.491L347.784 379.648C351.964 383.84 351.951 390.616 347.772 394.796L347.047 395.497Z" fill="#762AA9" fill-opacity="0.85"/>
<path d="M161.813 260.092C157.621 264.271 150.844 264.271 146.664 260.08L15.7534 128.951C11.5737 124.76 11.5737 117.983 15.7655 113.803L16.4902 113.09C20.682 108.911 27.4589 108.911 31.6386 113.102L162.55 244.231C166.729 248.41 166.729 255.199 162.537 259.379L161.813 260.092Z" fill="#762AA9" fill-opacity="0.85"/>
<path d="M360.468 459.086C356.288 463.265 349.499 463.265 345.32 459.074L214.409 327.933C210.229 323.753 210.229 316.964 214.421 312.785L215.146 312.072C219.325 307.892 226.114 307.904 230.294 312.084L361.205 443.213C365.384 447.392 365.384 454.181 361.193 458.361L360.468 459.086Z" fill="#762AA9" fill-opacity="0.85"/>
<path d="M203.9 302.251C199.708 306.431 192.931 306.419 188.751 302.239L188.594 302.082C184.415 297.89 184.415 291.113 188.606 286.934L189.319 286.209C193.511 282.029 200.288 282.029 204.467 286.221L204.624 286.378C208.804 290.57 208.804 297.347 204.612 301.526L203.9 302.251Z" fill="#762AA9" fill-opacity="0.85"/>
</g>
<path d="M44.407 263.667H0.689453V255.163L43.6701 182.429C44.407 181.257 45.2043 180.025 46.074 178.733C46.9317 177.44 47.9827 176.268 49.2148 175.217C50.447 174.167 51.9207 173.297 53.6482 172.584C55.3756 171.871 57.4655 171.521 59.9298 171.521C62.5753 171.521 64.8343 171.811 66.6825 172.403C68.5307 172.995 70.0287 173.804 71.1642 174.855C72.2997 175.906 73.1211 177.162 73.6164 178.648C74.1117 180.122 74.3533 181.729 74.3533 183.456V255.175H92.7511V263.679H74.3533V291.862C74.3533 296.67 73.1574 300.149 70.7535 302.311C68.3495 304.473 64.5564 305.549 59.3862 305.549C54.2159 305.549 50.4228 304.473 48.0189 302.311C45.615 300.149 44.4191 296.67 44.4191 291.862V263.667H44.407ZM44.407 255.163V200.453L12.7936 255.163H44.407Z" fill="white"/>
<path d="M392.915 263.667H349.197V255.163L392.178 182.429C392.915 181.257 393.724 180.025 394.582 178.733C395.439 177.44 396.49 176.268 397.723 175.217C398.955 174.167 400.429 173.297 402.156 172.584C403.883 171.871 405.973 171.521 408.438 171.521C411.083 171.521 413.33 171.811 415.178 172.403C417.026 172.995 418.524 173.804 419.66 174.855C420.795 175.906 421.617 177.162 422.112 178.648C422.607 180.122 422.849 181.729 422.849 183.456V255.175H441.247V263.679H422.849V291.862C422.849 296.67 421.641 300.149 419.249 302.311C416.845 304.473 413.052 305.549 407.882 305.549C402.712 305.549 398.919 304.473 396.515 302.311C394.111 300.149 392.915 296.67 392.915 291.862V263.667ZM392.915 255.163V200.453L361.301 255.163H392.915Z" fill="white"/>
<g opacity="0.5">
<path d="M221.645 371.626C294.892 371.626 354.271 312.247 354.271 239C354.271 165.752 294.892 106.374 221.645 106.374C148.397 106.374 89.0186 165.752 89.0186 239C89.0186 312.247 148.397 371.626 221.645 371.626Z" fill="#762AA9" fill-opacity="0.85"/>
</g>
<path d="M221.644 127.006C199.356 127.006 178.615 133.542 161.172 144.764C130.186 164.684 109.65 199.438 109.65 239.012C109.65 300.874 159.794 351.006 221.644 351.006C251.663 351.006 278.891 339.179 299.004 319.948C320.338 299.557 333.638 270.843 333.638 239C333.638 177.15 283.494 127.006 221.644 127.006Z" fill="white"/>
<path d="M126.527 225.7C126.527 193.857 139.839 165.143 161.16 144.752C130.175 164.672 109.639 199.426 109.639 239C109.639 300.862 159.783 350.994 221.632 350.994C251.651 350.994 278.879 339.167 298.993 319.936C281.549 331.158 260.796 337.694 238.52 337.694C176.671 337.694 126.527 287.55 126.527 225.7Z" fill="#EAB840"/>
<path d="M333.639 239C333.639 177.15 283.495 127.006 221.645 127.006C199.357 127.006 178.616 133.542 161.172 144.764C139.839 165.155 126.539 193.869 126.539 225.712C126.539 287.562 176.683 337.706 238.533 337.706C260.82 337.706 281.562 331.17 299.005 319.948C320.339 299.545 333.639 270.843 333.639 239Z" fill="#FFD500"/>
<path opacity="0.7" d="M300.78 199.365C294.414 210.31 271.692 208.981 250.044 196.382C228.397 183.782 216.003 164.696 222.369 153.751C228.735 142.807 251.458 144.136 273.105 156.735C294.765 169.335 307.147 188.421 300.78 199.365Z" fill="white"/>
<path d="M234.232 283.781C234.232 289.362 229.702 293.892 224.121 293.892C218.54 293.892 214.01 289.362 214.01 283.781C214.01 278.2 218.54 273.67 224.121 273.67C229.714 273.682 234.232 278.2 234.232 283.781Z" stroke="#D19D0F" stroke-width="3.3104" stroke-miterlimit="10"/>
<path d="M193.583 280.024C193.583 294.182 182.107 305.658 167.949 305.658C153.791 305.658 142.315 294.182 142.315 280.024C142.315 265.866 153.791 254.402 167.949 254.402C182.107 254.402 193.583 265.878 193.583 280.024Z" stroke="#D19D0F" stroke-width="3.3104" stroke-miterlimit="10"/>
<path d="M234.232 283.781C234.232 289.362 229.702 293.892 224.121 293.892C218.54 293.892 214.01 289.362 214.01 283.781C214.01 278.2 218.54 273.67 224.121 273.67C229.714 273.682 234.232 278.2 234.232 283.781Z" stroke="#D19D0F" stroke-width="3.3104" stroke-miterlimit="10"/>
<path d="M177.626 172.536C180.476 177.344 178.882 183.541 174.086 186.38C169.278 189.231 163.081 187.636 160.242 182.84C157.392 178.045 158.986 171.835 163.782 168.997C168.578 166.146 174.775 167.728 177.626 172.536Z" fill="#D19D0F"/>
<path d="M312.486 247.879C312.486 252.928 308.391 257.024 303.342 257.024C298.292 257.024 294.197 252.928 294.197 247.879C294.197 242.83 298.292 238.734 303.342 238.734C308.391 238.734 312.486 242.83 312.486 247.879Z" fill="#D19D0F"/>
<path d="M255.505 322.328C255.505 325.24 253.137 327.607 250.226 327.607C247.315 327.607 244.947 325.24 244.947 322.328C244.947 319.417 247.315 317.049 250.226 317.049C253.15 317.049 255.505 319.417 255.505 322.328Z" fill="#D19D0F"/>
<path d="M343.037 83.1317C361.978 91.8535 379.325 97.5311 394.896 85.8014C365.735 72.3805 336.489 58.9113 307.292 45.4663C308.512 64.9151 324.095 74.41 343.037 83.1317Z" fill="#D19D0F"/>
<path d="M366.798 31.5381C340.645 19.4944 311.158 23.662 289.655 39.8613L410.624 95.5621C408.957 68.6962 392.963 43.594 366.798 31.5381Z" fill="#54D39B"/>
<path d="M366.786 31.5745C346.697 22.3212 322.501 28.9169 303.704 46.3242L396.599 89.0994C397.602 63.4898 386.875 40.8278 366.786 31.5745Z" fill="#79F9C0" fill-opacity="0.5"/>
<path d="M366.786 31.5744C353.365 25.3894 334.955 34.6427 319.106 53.4271L381.198 82.0204C385.148 57.7638 380.219 37.7593 366.786 31.5744Z" fill="#79F9C0"/>
<path d="M379.965 2.95681C377.984 2.03873 375.942 1.37433 373.889 0.939453C384.41 8.97265 388.348 23.4807 382.586 35.9956L379.228 43.2919L390.764 48.6071L394.123 41.3229C400.815 26.8148 394.473 9.63705 379.965 2.95681Z" fill="#55C1FA"/>
<path d="M373.901 0.939484C360.963 -1.82684 347.373 4.59973 341.611 17.1267L338.253 24.423L379.24 43.304L382.599 36.0077C388.361 23.4808 384.411 8.97268 373.901 0.939484Z" fill="#9CDDFF"/>
<path opacity="0.7" d="M375.918 8.01847C375.701 10.2654 371.908 11.727 367.475 11.2801C363.029 10.8331 359.61 8.65871 359.84 6.41183C360.07 4.16495 363.851 2.70327 368.284 3.15023C372.729 3.59719 376.148 5.78367 375.918 8.01847Z" fill="white"/>
<path d="M415.819 97.9176C415.299 99.0531 413.947 99.5484 412.811 99.029L285.609 40.453C284.473 39.9336 283.978 38.5927 284.497 37.4572C285.017 36.3217 286.358 35.8264 287.493 36.3458L414.708 94.9218C415.843 95.4412 416.338 96.7942 415.819 97.9176Z" fill="#FFDE79"/>
<path d="M393.459 49.4768C392.916 50.6486 391.539 51.1559 390.367 50.6244L336.985 26.0416C335.814 25.498 335.306 24.1088 335.838 22.9491C336.381 21.7774 337.77 21.27 338.93 21.8015L392.312 46.3843C393.495 46.9158 394.003 48.305 393.459 49.4768Z" fill="#FFDE79"/>
</svg>
