<svg width="60" height="60" viewBox="0 0 60 60" fill="none" xmlns="http://www.w3.org/2000/svg">
<rect width="60" height="60" fill="white"/>
<path d="M57.9004 28.3828H30.2252C29.1242 28.3828 28.2313 29.2757 28.2313 30.3766V58.0064C28.2313 59.1074 29.1242 60.0003 30.2252 60.0003H57.9004C59.0013 60.0003 59.8942 59.1074 59.8942 58.0064V30.3766C59.898 29.2757 59.0051 28.3828 57.9004 28.3828ZM42.2865 32.1397C43.4366 32.1397 44.5716 32.1397 45.7369 32.1397C45.7369 33.3239 45.7369 34.4816 45.7369 35.6771C44.583 35.6771 43.4518 35.6771 42.2865 35.6771C42.2865 34.4929 42.2865 33.3352 42.2865 32.1397ZM35.2608 32.1321C36.4336 32.1321 37.5573 32.1321 38.7074 32.1321C38.7074 33.3201 38.7074 34.4778 38.7074 35.6771C37.5611 35.6771 36.4261 35.6771 35.2608 35.6771C35.2608 34.4967 35.2608 33.339 35.2608 32.1321ZM52.7436 52.967C46.8984 52.967 41.1061 52.967 35.2684 52.967C35.2684 48.2908 35.2684 43.6297 35.2684 38.9232C41.0834 38.9232 46.9059 38.9232 52.7436 38.9232C52.7436 43.6108 52.7436 48.287 52.7436 52.967ZM52.7474 35.6885C51.6011 35.6885 50.4774 35.6885 49.3197 35.6885C49.3197 34.5005 49.3197 33.339 49.3197 32.1397C50.4547 32.1397 51.5784 32.1397 52.7474 32.1397C52.7474 33.2936 52.7474 34.4551 52.7474 35.6885Z" fill="#66ADD9"/>
<path d="M59.9547 15.682C59.9585 15.3226 59.7807 14.9859 59.478 14.7891C56.2281 12.6629 52.9971 10.5139 49.7472 8.38769C49.3916 8.15312 49.2705 7.9072 49.2743 7.49103C49.2932 5.24372 49.2857 2.99641 49.2857 0.74532C49.2857 0.332935 48.9527 0 48.5404 0H39.4868C39.0744 0 38.7415 0.336719 38.7415 0.74532C38.7377 2.99263 38.7301 5.20589 38.7528 7.42293C38.7566 7.91477 38.5977 8.18339 38.1891 8.452C34.996 10.5555 31.8293 12.6969 28.6362 14.8042C28.2957 15.0275 28.1746 15.262 28.1897 15.6555C28.2162 16.3592 28.1973 17.0629 28.1973 17.7666V20.5512C28.1973 20.9635 28.5302 21.2965 28.9426 21.2965H59.1943C59.6067 21.2965 59.9434 20.9598 59.9396 20.5474C59.9396 18.9016 59.932 17.2899 59.9547 15.682Z" fill="#66ADD9"/>
<path d="M22.666 45.873H1.99382C0.892867 45.873 0 46.7659 0 47.8669V57.9949C0 59.0959 0.892867 59.9887 1.99382 59.9887H22.666C23.767 59.9887 24.6599 59.0959 24.6599 57.9949V47.8669C24.6599 46.7659 23.767 45.873 22.666 45.873ZM19.3594 52.9593C14.7361 52.9593 10.1016 52.9593 5.42155 52.9593C5.42155 51.847 5.42155 50.7233 5.42155 49.5315C10.0789 49.5315 14.6945 49.5315 19.3594 49.5315C19.3594 50.6703 19.3594 51.7902 19.3594 52.9593Z" fill="#66ADD9"/>
<path d="M1.99383 42.2716H22.6471C23.7481 42.2716 24.641 41.3787 24.641 40.2778V30.3805C24.641 29.2796 23.7481 28.3867 22.6471 28.3867H1.99383C0.892878 28.3867 1.19791e-05 29.2796 1.19791e-05 30.3805V40.2778C-0.00377137 41.3787 0.889095 42.2716 1.99383 42.2716ZM5.41399 32.1549C10.0448 32.1549 14.6794 32.1549 19.3594 32.1549C19.3594 33.271 19.3594 34.4098 19.3594 35.5978C14.6945 35.5978 10.0751 35.5978 5.41399 35.5978C5.41399 34.4514 5.41399 33.3278 5.41399 32.1549Z" fill="#66ADD9"/>
</svg>
