<svg width="54" height="54" viewBox="0 0 54 54" fill="none" xmlns="http://www.w3.org/2000/svg">
<g id="Group 167">
<circle id="Ellipse 11" cx="27" cy="27" r="27" fill="#FFD500"/>
<g id="Group 166">
<path id="Vector" d="M38.9992 22.554C38.9491 22.1614 38.8966 21.7688 38.8488 21.3762C38.2078 16.1449 33.9708 11.7922 28.6208 11.115C24.6059 10.6067 21.0978 11.7776 18.3449 14.7534C14.9286 18.4466 14.1379 22.7631 15.9329 27.4575C16.5098 28.967 17.3884 30.3686 18.2022 31.777C20.7438 36.1737 23.3193 40.5519 25.8863 44.9347C26.4672 45.9266 27.5362 45.9274 28.1171 44.9362C30.9032 40.177 33.6993 35.4232 36.4584 30.6478C37.3424 29.1182 38.2495 27.584 38.6274 25.823C38.7771 25.1242 38.8774 24.4145 39 23.7095C38.9992 23.3238 38.9992 22.9389 38.9992 22.554ZM27.0102 42.1771C26.8945 41.9912 26.8189 41.8755 26.7487 41.7567C25.0649 38.8943 23.3625 36.0418 21.7049 33.1639C20.5085 31.0867 19.2481 29.0334 18.2384 26.8659C16.7466 23.6632 17.1115 20.4814 19.0545 17.5657C21.4048 14.0391 25.6788 12.5381 29.7369 13.7545C32.7297 14.6516 34.8409 16.5962 35.9624 19.5242C37.0331 22.318 36.8611 25.0694 35.3785 27.685C33.3113 31.3327 31.2086 34.9604 29.1144 38.5934C28.4372 39.7713 27.7399 40.9368 27.0102 42.1771Z" fill="black"/>
<path id="Vector_2" d="M26.991 28.1895C30.0995 28.2019 32.6419 25.6688 32.6543 22.5464C32.6666 19.444 30.1204 16.8862 27.0103 16.877C23.9072 16.8677 21.3633 19.4055 21.3471 22.5271C21.3301 25.6295 23.8702 28.178 26.991 28.1895ZM23.6966 22.5209C23.7066 20.709 25.2177 19.2126 27.0234 19.2273C28.833 19.2419 30.3256 20.7615 30.304 22.5672C30.2824 24.3698 28.7929 25.8431 26.9964 25.84C25.1838 25.8369 23.6866 24.3313 23.6966 22.5209Z" fill="black"/>
</g>
</g>
</svg>
