<svg width="65" height="65" viewBox="0 0 65 65" fill="none" xmlns="http://www.w3.org/2000/svg">
<rect width="65" height="65" fill="#F2F2F2"/>
<path d="M30.0201 58.9433C29.0224 58.8416 28.0246 58.7625 27.0269 58.6325C23.972 58.2368 20.9675 57.632 18.2601 56.0719C17.4025 55.5802 16.5953 54.9189 15.9395 54.1728C14.6895 52.754 14.7288 50.9848 15.9059 49.4983C16.9092 48.2322 18.2713 47.4747 19.7175 46.8586C21.685 46.0164 23.7534 45.5473 25.9507 45.1855C25.7937 44.9708 25.6704 44.8012 25.5471 44.6373C23.3105 41.6585 21.0236 38.7249 18.8599 35.6953C17.0774 33.1913 15.8274 30.4273 15.2725 27.3524C13.6133 18.173 19.7063 9.11233 28.7813 7.32619C38.0694 5.49483 47.1052 11.5598 48.9101 20.8805C49.7621 25.2667 48.9998 29.4099 46.8642 33.31C45.3843 36.0118 43.5234 38.448 41.6512 40.8728C40.5638 42.2859 39.4707 43.6933 38.3384 45.1629C39.1792 45.3325 39.9584 45.4738 40.7319 45.649C42.6321 46.0786 44.4987 46.6438 46.1691 47.6839C46.9146 48.1474 47.6377 48.707 48.2263 49.357C49.6164 50.8888 49.5771 52.7766 48.2263 54.348C47.3406 55.3824 46.2083 56.0606 44.992 56.6202C42.5256 57.745 39.9079 58.299 37.2398 58.6325C36.2477 58.7568 35.2443 58.8416 34.2465 58.9433C32.8396 58.9433 31.4327 58.9433 30.0201 58.9433ZM32.1558 50.0352C32.2398 49.9335 32.3127 49.8487 32.38 49.7583C34.751 46.6325 37.1501 43.5238 39.4819 40.3641C41.2532 37.9675 43.0469 35.5766 44.6444 33.0669C46.7184 29.7999 47.6097 26.1767 47.0996 22.2766C45.9785 13.7359 38.1086 7.85751 29.667 9.23668C21.5561 10.565 15.9227 18.433 17.1951 26.6063C17.6211 29.3534 18.6469 31.8517 20.222 34.09C22.2231 36.9444 24.3531 39.7084 26.4439 42.495C28.3217 45.0047 30.2275 47.4917 32.1558 50.0352ZM32.1109 56.9424C33.047 56.8859 34.6221 56.8407 36.1916 56.6994C38.6523 56.4733 41.0626 55.9985 43.3776 55.0997C44.5211 54.6589 45.631 54.1332 46.5222 53.2458C47.4583 52.3075 47.4807 51.3692 46.5166 50.4818C45.9897 49.9957 45.3899 49.5661 44.7622 49.2326C42.4023 47.9778 39.8239 47.4578 37.2118 47.1017C37.038 47.0791 36.7746 47.2373 36.6568 47.39C35.4741 48.967 34.3138 50.5609 33.1535 52.1549C32.4697 53.0932 31.8026 53.0932 31.13 52.1662C29.9753 50.5722 28.8038 48.9839 27.6491 47.3843C27.4697 47.1356 27.2847 47.0282 26.9764 47.096C25.4237 47.4352 23.8486 47.6952 22.3184 48.1078C20.7097 48.543 19.1682 49.1761 17.907 50.3235C16.7523 51.3749 16.7131 52.4149 17.935 53.3871C18.7478 54.0371 19.6895 54.5797 20.6536 54.981C24.1121 56.4054 27.7724 56.7954 32.1109 56.9424Z" fill="#EAB840"/>
<path d="M32.1445 31.3486C28.2713 31.3543 25.0986 28.1664 25.093 24.2662C25.0874 20.3322 28.2488 17.1386 32.1501 17.1443C36.0178 17.1499 39.1792 20.3435 39.1736 24.2493C39.1736 28.1607 36.0178 31.343 32.1445 31.3486ZM37.1613 24.238C37.1557 21.4514 34.8912 19.1791 32.1333 19.1791C29.3531 19.1791 27.0885 21.4796 27.1053 24.2889C27.1222 27.0698 29.3979 29.3364 32.1558 29.3251C34.9192 29.3081 37.1725 27.0189 37.1613 24.238Z" fill="#EAB840"/>
<path d="M45.2162 23.7744C45.2162 23.9722 45.2162 24.1079 45.2162 24.2435C45.1994 24.8935 44.7958 25.3514 44.2241 25.357C43.6579 25.3627 43.2768 24.8992 43.1983 24.2661C43.0469 23.1017 42.9853 21.8921 42.6321 20.7843C41.5559 17.4211 39.3026 15.1037 36.0403 13.8093C35.4405 13.5719 35.1434 13.1932 35.1939 12.7014C35.2611 12.0119 35.9113 11.6162 36.6064 11.8649C38.7364 12.628 40.5414 13.8828 42.0156 15.6067C44.0335 17.9638 45.0705 20.7221 45.2162 23.7744Z" fill="#EAB840"/>
<path d="M33.2319 12.0571C33.2431 12.5884 32.8003 13.0632 32.2678 13.0858C31.7072 13.1084 31.2364 12.6563 31.2252 12.091C31.214 11.5258 31.668 11.0567 32.2285 11.0623C32.7667 11.068 33.2207 11.5201 33.2319 12.0571Z" fill="#EAB840"/>
</svg>
