<svg width="75" height="75" viewBox="0 0 75 75" fill="none" xmlns="http://www.w3.org/2000/svg">
<path d="M37.5 75C58.2107 75 75 58.2107 75 37.5C75 16.7893 58.2107 0 37.5 0C16.7893 0 0 16.7893 0 37.5C0 58.2107 16.7893 75 37.5 75Z" fill="#F29100"/>
<path d="M37.5212 42.8106C37.5042 45.8463 35.9991 48.661 33.4864 50.9696C32.5552 51.8242 31.5603 52.6533 30.4719 53.2868C28.7712 54.2775 27.8529 55.7698 27.2321 57.5343C27.1938 57.6406 27.1683 57.7469 27.1258 57.8489C26.9387 58.3548 26.5518 58.6567 26.1139 58.6525C25.6717 58.6482 25.3231 58.3336 25.1063 57.8361C24.7109 56.939 24.3495 56.0164 23.8435 55.1831C23.5161 54.6474 23.0144 54.1669 22.4915 53.814C20.71 52.6066 18.9498 51.3906 17.5552 49.7239C14.7449 46.3693 13.92 42.581 15.4421 38.4696C16.96 34.3583 20.0085 31.8753 24.3282 31.1397C31.2032 29.9748 37.5085 35.3787 37.5212 42.8106ZM26.1097 45.6295C27.9081 45.6338 29.3622 44.2052 29.3792 42.411C29.4005 40.6338 27.9421 39.1499 26.1607 39.1329C24.3495 39.1159 22.8699 40.5742 22.8699 42.3855C22.8699 44.1754 24.3112 45.6253 26.1097 45.6295Z" fill="white"/>
<path d="M37.517 28.2226C37.517 21.0245 43.3248 15.7524 49.9872 16.4029C56.0714 16.9981 60.6037 22.2192 60.2934 28.3077C60.1531 31.0925 58.9923 33.448 57.1301 35.4803C55.9864 36.7303 54.6981 37.8315 53.2313 38.6691C51.5349 39.6384 50.642 41.135 50.0213 42.8825C49.9787 43.0015 49.949 43.1248 49.9022 43.2439C49.7236 43.6988 49.409 43.9922 48.9031 43.9879C48.4014 43.9837 48.0952 43.6861 47.9124 43.2311C47.619 42.5126 47.3384 41.7856 46.994 41.0925C46.5646 40.2252 45.9311 39.5364 45.0935 39.0092C43.0782 37.7464 41.2117 36.2966 39.7747 34.3621C38.3078 32.3935 37.5255 30.1869 37.517 28.2226ZM52.1684 27.7294C52.1599 25.9352 50.71 24.4896 48.9158 24.4854C47.1046 24.4854 45.6335 25.9692 45.6548 27.7677C45.6803 29.5534 47.1556 31.0117 48.9328 30.9947C50.7185 30.982 52.1769 29.5109 52.1684 27.7294Z" fill="white"/>
</svg>
