<svg width="118" height="94" viewBox="0 0 118 94" fill="none" xmlns="http://www.w3.org/2000/svg">
<path d="M59.6215 79.6655C58.3882 79.6265 57.3912 79.1111 56.532 78.2485C53.6583 75.3611 50.7682 72.488 47.8863 69.6088C39.2406 60.9712 30.595 52.3315 21.9493 43.6918C21.682 43.4248 21.4086 43.164 21.1702 42.8745C19.8711 41.3096 19.869 39.1615 21.1661 37.5966C21.384 37.3337 21.6286 37.0935 21.8711 36.8511C33.3268 25.4062 44.7824 13.9612 56.2401 2.51622C56.53 2.22665 56.8177 1.92887 57.1405 1.67628C58.6369 0.507751 60.6843 0.505698 62.1848 1.67012C62.4808 1.90012 62.746 2.17121 63.0132 2.43818C74.5182 13.9304 86.0191 25.4287 97.5343 36.9107C98.856 38.2291 99.5467 39.7139 98.8869 41.5273C98.6176 42.2645 98.0852 42.9628 97.5199 43.5296C90.9298 50.1567 84.3109 56.7551 77.6981 63.3616C72.7566 68.2986 67.8109 73.2274 62.8796 78.1725C61.9669 79.0864 60.9309 79.6594 59.6215 79.6655ZM60.0696 1.47297C58.454 1.4935 57.5721 2.13629 56.7458 2.96391C45.2737 14.4417 33.7893 25.9072 22.309 37.3769C22.163 37.5227 22.015 37.6644 21.8773 37.8163C20.5412 39.2847 20.535 41.1679 21.8609 42.628C22.0438 42.8313 22.2432 43.0203 22.4364 43.2154C27.4499 48.2242 32.4655 53.231 37.479 58.2398C43.8985 64.6513 50.3119 71.069 56.7417 77.4702C57.2186 77.9446 57.7571 78.4313 58.3615 78.6921C59.897 79.3575 61.2146 78.8646 62.3616 77.7146C66.3987 73.6648 70.4482 69.6294 74.4935 65.5878C81.9778 58.1105 89.4683 50.6393 96.9361 43.1476C97.4562 42.626 97.966 42.0099 98.227 41.3383C98.817 39.8207 98.225 38.568 97.115 37.4611C85.5524 25.9278 74.0022 14.3822 62.4479 2.84069C62.23 2.62301 62.0265 2.36219 61.7614 2.22871C61.1036 1.89807 60.417 1.62494 60.0696 1.47297Z" fill="#242424"/>
<path d="M110.408 93.8871C106.587 93.9569 102.866 91.3138 102.928 86.2105C102.986 81.3413 107.391 78.8913 110.647 79.0084C114.727 79.1542 118.047 82.3661 118 86.5042C117.944 91.2173 114.248 94.037 110.408 93.8871ZM110.427 89.5333C111.977 89.8537 113.607 88.026 113.557 86.5042C113.51 85.1016 112.429 83.4566 110.41 83.4176C108.77 83.3868 107.44 84.8428 107.335 86.4796C107.232 88.0732 108.916 89.8434 110.427 89.5333Z" fill="#070A0D"/>
<path d="M46.6714 93.8892C42.8686 93.996 39.037 91.355 39.0925 86.0607C39.1316 82.4031 42.5274 79.142 46.2603 79.0126C50.4947 78.8668 54.1269 82.0848 54.1454 86.4735C54.1639 90.6342 50.7558 94.0288 46.6714 93.8892ZM46.5583 89.5334C48.4207 89.5375 49.7095 88.3484 49.7568 86.5844C49.802 84.8429 48.396 83.469 46.5768 83.4772C44.7926 83.4854 43.4729 84.8141 43.5038 86.5679C43.5366 88.3361 44.7659 89.5293 46.5583 89.5334Z" fill="#070A0D"/>
<path d="M65.2024 93.8376C65.2024 90.5703 65.2024 87.4056 65.2024 84.1978C64.7604 84.1752 64.3966 84.1567 63.9875 84.1342C64.3925 82.6329 64.7872 81.179 65.1859 79.7024C66.6351 79.7024 68.0247 79.7024 69.4862 79.7024C69.4862 80.4294 69.4862 81.1338 69.4862 81.8402C69.554 81.8546 69.6239 81.869 69.6917 81.8834C69.8911 81.2139 70.0885 80.5464 70.3084 79.8071C72.364 79.8051 74.0989 80.5238 75.4802 82.0969C77.8955 84.8468 77.7372 89.907 74.5778 92.3816C73.217 93.4474 71.624 93.7617 69.9713 93.8253C68.4317 93.8828 66.8921 93.8376 65.2024 93.8376ZM69.5622 90.1185C71.6836 90.1308 73.2725 88.6399 73.2355 86.7485C73.1985 84.9063 71.4369 83.2881 69.5622 83.4236C69.5622 85.6272 69.5622 87.8328 69.5622 90.1185Z" fill="#070A0D"/>
<path d="M2.91273 84.2535C2.57151 84.2165 2.27345 84.1837 1.82328 84.1364C2.20151 82.6989 2.57151 81.2942 2.93534 79.908C5.03201 79.908 7.00946 79.908 8.97869 79.908C10.2984 84.6231 11.6036 89.2911 12.9213 94.0001C11.507 94.0001 10.1195 94.0001 8.67653 94.0001C8.51825 93.4045 8.36408 92.8336 8.2058 92.238C7.00124 92.238 5.84396 92.238 4.64146 92.238C4.45851 92.8316 4.27557 93.4251 4.09673 94.0001C2.72156 94.0001 1.42656 94.0001 0 94.0001C0.982558 90.7163 1.94045 87.5064 2.91273 84.2535ZM7.24996 88.2047C6.95602 87.1245 6.69496 86.1593 6.43185 85.192C6.3743 85.2043 6.31469 85.2166 6.25713 85.229C6.02485 86.1962 5.79463 87.1655 5.54591 88.2047C6.13791 88.2047 6.6333 88.2047 7.24996 88.2047Z" fill="#070A0D"/>
<path d="M83.8505 88.324C83.8505 88.743 83.8505 89.0613 83.8505 89.4617C85.5443 89.4617 87.1743 89.4617 88.9524 89.4617C88.6112 90.9034 88.2946 92.2321 87.9719 93.5916C85.1476 93.5916 82.3458 93.5916 79.4434 93.5916C79.4434 90.3674 79.4434 87.137 79.4434 83.8327C79.059 83.808 78.7671 83.7916 78.4094 83.769C78.765 82.3233 79.1104 80.9247 79.4763 79.4358C80.9213 79.4358 82.3869 79.4482 83.8525 79.4276C84.2637 79.4215 84.7426 79.6104 85.0448 79.1093C85.09 79.0333 85.2976 79.0354 85.4292 79.0354C86.5556 79.0292 87.6821 79.0333 88.9524 79.0333C88.6811 80.2511 88.4303 81.3847 88.1754 82.5184C88.1384 82.6827 88.0274 82.8469 88.0377 83.0051C88.0829 83.7526 87.6389 83.8224 87.051 83.808C86.0253 83.7814 84.9975 83.7998 83.8772 83.7998C83.8772 84.1757 83.8772 84.5186 83.8772 84.9622C85.4806 84.9622 87.0407 84.9622 88.6605 84.9622C88.4303 85.9541 88.1857 86.831 88.0336 87.7223C87.9493 88.2193 87.7006 88.3302 87.2709 88.3281C86.1753 88.3179 85.0797 88.324 83.8505 88.324Z" fill="#070A0D"/>
<path d="M13.0548 79.6943C14.6088 79.6943 16.0744 79.6943 17.6038 79.6943C18.206 81.8774 18.8022 84.0419 19.4003 86.2064C19.4497 86.2106 19.499 86.2126 19.5483 86.2167C20.1424 84.0645 20.7364 81.9123 21.3428 79.7128C22.8598 79.7128 24.3542 79.7128 25.8897 79.7128C24.2905 84.3828 22.6933 89.0507 21.0756 93.7782C20.0191 93.7782 18.9789 93.7782 17.8792 93.7782C16.2759 89.1 14.6746 84.4259 13.0548 79.6943Z" fill="#070A0D"/>
<path d="M38.7638 79.4456C38.3507 81.068 37.9622 82.5856 37.5531 84.1936C36.5068 84.1936 35.4975 84.1936 34.4143 84.1936C34.4143 87.4959 34.4143 90.6934 34.4143 93.9669C32.961 93.9669 31.5776 93.9669 30.0709 93.9669C30.0709 90.7838 30.0709 87.5616 30.0709 84.2573C28.8684 84.2573 27.7851 84.2573 26.6011 84.2573C26.9629 82.7355 27.2979 81.3185 27.6494 79.8481C29.6433 79.8481 31.5899 79.8645 33.5345 79.8337C33.9518 79.8276 34.3649 79.6469 34.7802 79.5442C34.9097 79.5134 35.0392 79.4497 35.1687 79.4497C36.3259 79.4415 37.4832 79.4456 38.7638 79.4456Z" fill="#070A0D"/>
<path d="M92.5929 79.481C94.0195 79.481 95.3782 79.481 96.8438 79.481C96.8438 82.7257 96.8438 85.952 96.8438 89.2789C97.9579 89.2789 98.9692 89.2789 100.028 89.2789C100.412 90.7575 100.772 92.154 101.148 93.5998C98.295 93.5998 95.4727 93.5998 92.5929 93.5998C92.5929 88.9175 92.5929 84.2495 92.5929 79.481Z" fill="#070A0D"/>
<path d="M60.0696 1.4729C60.415 1.62487 61.1036 1.89595 61.7593 2.2307C62.0245 2.36418 62.228 2.625 62.4459 2.84268C74.0002 14.3842 85.5504 25.9277 97.1129 37.4631C98.2229 38.57 98.8149 39.8227 98.225 41.3403C97.9639 42.0119 97.4541 42.63 96.9341 43.1496C89.4642 50.6413 81.9757 58.1125 74.4914 65.5898C70.4461 69.6314 66.3966 73.6668 62.3595 77.7166C61.2146 78.8666 59.8949 79.3575 58.3594 78.6941C57.7551 78.4333 57.2165 77.9466 56.7396 77.4722C50.3098 71.071 43.8965 64.6554 37.477 58.2419C32.4634 53.233 27.4479 48.2262 22.4344 43.2174C22.2411 43.0243 22.0438 42.8333 21.8588 42.63C20.533 41.1699 20.5391 39.2867 21.8752 37.8183C22.013 37.6664 22.161 37.5226 22.3069 37.3789C33.7893 25.9072 45.2737 14.4417 56.7458 2.96385C57.5742 2.13623 58.456 1.49344 60.0696 1.4729ZM59.7387 65.4707C60.9556 65.4358 61.9731 64.9655 62.8385 64.0968C69.7369 57.1945 76.6498 50.3045 83.5441 43.3981C85.3983 41.5416 85.388 39.1635 83.5668 37.2947C82.6829 36.3869 81.7764 35.5018 80.8801 34.6064C74.8717 28.6057 68.8695 22.5988 62.8529 16.6042C61.0172 14.7764 58.604 14.7045 56.8198 16.4789C49.8268 23.4325 42.8543 30.4067 35.8983 37.3973C35.4337 37.8656 35.0534 38.496 34.8438 39.1224C34.2723 40.8249 34.8376 42.2583 36.0792 43.4967C41.3661 48.7663 46.6427 54.0463 51.9234 59.3221C53.5227 60.9198 55.1301 62.5093 56.717 64.1153C57.5536 64.9593 58.5485 65.4111 59.7387 65.4707Z" fill="#FDFDFD"/>
<path d="M59.7387 65.4704C58.5485 65.4108 57.5536 64.959 56.7191 64.115C55.1301 62.507 53.5227 60.9195 51.9255 59.3218C46.6447 54.046 41.3681 48.766 36.0812 43.4964C34.8397 42.258 34.2744 40.8246 34.8458 39.1221C35.0555 38.4958 35.4358 37.8653 35.9003 37.3971C42.8563 30.4064 49.8288 23.4323 56.8218 16.4786C58.6061 14.7043 61.0193 14.7761 62.8549 16.6039C68.8715 22.5964 74.8738 28.6033 80.8822 34.6062C81.7784 35.5015 82.6829 36.3887 83.5688 37.2944C85.3921 39.1632 85.4003 41.5413 83.5462 43.3978C76.6518 50.3042 69.739 57.1942 62.8405 64.0965C61.971 64.9632 60.9556 65.4355 59.7387 65.4704ZM59.8168 64.8276C60.8096 64.7742 61.673 64.3614 62.4109 63.6242C69.2826 56.7486 76.1667 49.8853 83.0344 43.0076C84.7096 41.3298 84.7117 39.348 83.0364 37.6722C76.1688 30.7946 69.2929 23.9231 62.4068 17.0619C60.7726 15.4333 58.7726 15.4313 57.1384 17.0598C50.2276 23.9436 43.3271 30.8398 36.443 37.7503C36.0237 38.1713 35.668 38.7278 35.4707 39.2885C34.9445 40.7835 35.4933 42.0137 36.5725 43.0877C40.6713 47.1683 44.7577 51.2633 48.8504 55.35C51.5863 58.0834 54.3305 60.8086 57.0562 63.5544C57.8147 64.3163 58.6862 64.7804 59.8168 64.8276Z" fill="#0F0D0A"/>
<path d="M59.8169 64.8283C58.6863 64.781 57.8148 64.319 57.0563 63.555C54.3306 60.8114 51.5864 58.0841 48.8505 55.3507C44.7578 51.2619 40.6714 47.169 36.5726 43.0884C35.4934 42.0143 34.9446 40.7842 35.4708 39.2891C35.6682 38.7285 36.0217 38.172 36.4431 37.751C43.3272 30.8404 50.2277 23.9443 57.1385 17.0605C58.7727 15.4319 60.7727 15.434 62.4069 17.0625C69.293 23.9238 76.1689 30.7953 83.0365 37.6729C84.7118 39.3507 84.7097 41.3305 83.0345 43.0083C76.1648 49.886 69.2827 56.7492 62.411 63.6248C61.6731 64.3621 60.8097 64.7749 59.8169 64.8283ZM52.6779 31.3847C52.756 31.4483 52.8341 31.512 52.9143 31.5756L52.8958 31.5715C53.2494 31.7194 53.5906 31.935 53.9606 32.0007C54.419 32.0849 54.902 32.0459 55.3728 32.0624C56.0305 32.6887 56.6883 33.3151 57.4735 34.0606C58.1128 33.2103 58.674 32.4649 59.3523 31.5654C58.9165 31.1978 58.5095 30.8322 58.0799 30.4934C57.5352 30.0621 57.2885 29.5631 57.3482 28.8217C57.4263 27.8401 56.9329 27.0412 56.1724 26.4354C55.3543 25.7864 54.3203 25.6899 53.5515 26.1828C54.1929 26.8276 54.828 27.4683 55.3748 28.0187C54.7479 28.6595 54.2299 29.1893 53.6646 29.7643C53.0315 29.1421 52.3696 28.4911 51.6296 27.762C51.2123 28.9634 51.4836 29.8752 52.0016 30.7521C52.2319 30.9637 52.4621 31.1772 52.6923 31.3888C52.6882 31.3929 52.6779 31.3847 52.6779 31.3847ZM66.8469 42.0759C66.9476 42.0041 67.0463 41.9301 67.147 41.8582C67.9816 40.663 67.9549 40.3468 66.9291 39.324C66.037 38.4328 65.1428 37.5435 64.2487 36.6543C63.4593 35.8678 62.668 35.0812 61.8622 34.2823C61.1283 35.0237 60.0553 35.2044 59.6011 36.3196C61.521 38.2089 63.4635 40.1188 65.4039 42.0287C65.8685 42.6941 66.3597 42.4805 66.8551 42.0718C66.8551 42.0677 66.8469 42.0759 66.8469 42.0759ZM60.9063 34.2967L60.9248 34.2926C61.7553 33.9743 61.1509 33.4034 61.1674 32.8017C62.67 31.3107 64.2446 29.7479 65.8212 28.1892C65.9178 28.0947 66.0329 27.9653 66.148 27.9551C66.9168 27.8791 67.1614 27.2075 67.5561 26.7229C67.9199 26.2752 67.6794 25.9979 67.2128 25.8069C66.5489 26.3183 65.9507 26.7968 65.4943 27.5279C64.999 28.3206 64.2117 28.9347 63.5251 29.6C62.5241 30.5714 61.5004 31.5181 60.4849 32.4751C59.6504 32.0665 59.4777 32.0665 59.081 32.7668C58.6288 33.5677 58.0614 34.2064 57.2104 34.5842C57.0295 34.6643 56.8815 34.8225 56.7274 34.9518C56.0244 35.5371 55.3563 36.1676 54.6163 36.7036C53.3789 37.599 52.3593 38.6833 51.5741 39.9833C51.1363 40.7062 51.2267 41.312 51.7529 41.8357C52.2771 42.3573 52.8835 42.4251 53.6132 41.9568C54.7993 41.197 55.8455 40.2831 56.6965 39.1413C57.3029 38.328 58.0018 37.5846 58.6432 36.796C58.8097 36.5906 58.9145 36.336 59.0461 36.1019C59.2722 35.7795 59.4983 35.457 59.7223 35.1346C59.9854 34.9518 60.2486 34.767 60.5117 34.5842C60.6432 34.4857 60.7748 34.3912 60.9063 34.2967ZM46.7661 38.367C46.466 36.0588 44.8339 34.7547 42.4022 34.882C40.4432 34.9847 38.9365 36.5578 38.8728 38.5663C38.8275 38.6566 38.7392 38.747 38.7433 38.8353C38.8831 41.5769 40.9448 43.2013 43.469 42.8625C45.4177 42.6017 47.2512 40.5686 46.7661 38.367ZM79.9819 38.5991C80.0806 36.7837 78.2327 34.845 76.0558 34.8368C73.7618 34.8266 71.957 36.7077 72.0187 38.595C71.7268 41.0676 74.066 42.9261 75.9962 42.9364C77.9654 42.9446 80.2964 40.9854 79.9819 38.5991ZM57.3995 51.5474C57.5249 51.6726 57.6462 51.9047 57.7737 51.9067C58.9638 51.9355 60.1561 51.9355 61.3462 51.9067C61.4737 51.9047 61.597 51.6706 61.7224 51.5453C61.7224 49.4177 61.7224 47.2881 61.7224 45.181C60.2136 45.181 58.8282 45.181 57.3995 45.181C57.3995 47.3415 57.3995 49.4444 57.3995 51.5474ZM71.6384 51.5638C71.6734 49.6991 71.7124 47.8344 71.7412 45.9696C71.7453 45.7088 71.7021 45.448 71.6795 45.179C70.1892 45.179 68.7709 45.179 67.2827 45.179C67.2827 47.3312 67.2827 49.428 67.2827 51.5268C67.4327 51.6603 67.5807 51.9047 67.7349 51.9088C68.8614 51.9416 69.9878 51.9417 71.1143 51.9108C71.2931 51.9067 71.4658 51.6849 71.6384 51.5638ZM62.2219 45.3515C61.8581 45.1646 61.9341 45.446 61.9341 45.6287C61.9321 47.2347 61.9341 48.8406 61.9341 50.4466C61.9341 50.7382 61.9341 51.0319 61.9341 51.3235C62.1212 50.9128 62.1171 50.5082 62.1232 50.1016C62.1458 48.6045 62.1746 47.1053 62.1993 45.6082C62.226 45.9799 62.2712 46.3516 62.2774 46.7233C62.3062 48.3272 62.3226 49.9332 62.3452 51.5371C62.5014 51.6685 62.6536 51.9067 62.8139 51.9108C63.9362 51.9437 65.0606 51.9437 66.183 51.9108C66.3556 51.9067 66.5221 51.6808 66.6907 51.5576C66.7256 51.3933 66.7914 51.229 66.7935 51.0647C66.8017 49.2247 66.8037 47.3867 66.7955 45.5466C66.7955 45.4234 66.7195 45.3002 66.6619 45.1277C65.3155 45.1277 63.9897 45.1215 62.6638 45.1379C62.5158 45.142 62.3699 45.2776 62.2219 45.3515ZM56.8754 51.5083C56.9782 51.3605 57.1693 51.2126 57.1714 51.0606C57.1919 49.2493 57.1919 47.4401 57.1714 45.6287C57.1693 45.4788 56.9782 45.333 56.8754 45.1831C55.3933 45.1831 53.9092 45.1831 52.3305 45.1831C52.3305 46.8589 52.3203 48.4525 52.3367 50.0482C52.3408 50.5534 52.4169 51.0565 52.4621 51.5597C52.5895 51.6808 52.7149 51.9067 52.8444 51.9108C54.0325 51.9375 55.2207 51.9375 56.4088 51.9108C56.5383 51.9088 56.6637 51.6788 56.7911 51.5556L56.8199 51.5083H56.8754ZM51.8393 51.5289C51.8393 49.428 51.8393 47.3292 51.8393 45.1995C50.3284 45.1995 48.8916 45.1995 47.3787 45.1995C47.3787 46.3886 47.3664 47.5058 47.3828 48.623C47.3972 49.6025 47.4465 50.5821 47.4815 51.5638C47.6212 51.6849 47.759 51.9047 47.9008 51.9088C49.0971 51.9355 50.2935 51.9355 51.4878 51.9047C51.607 51.9026 51.72 51.6603 51.8393 51.5289Z" fill="#FBCA01"/>
<path d="M59.0441 36.0977C58.9104 36.3297 58.8077 36.5864 58.6412 36.7918C57.9998 37.5804 57.3009 38.3238 56.6945 39.1371C55.8435 40.2809 54.7973 41.1928 53.6112 41.9526C52.8835 42.4208 52.2771 42.3531 51.7509 41.8315C51.2247 41.3078 51.1363 40.7019 51.5721 39.9791C52.3573 38.6812 53.3769 37.5968 54.6143 36.6994C55.3523 36.1634 56.0224 35.5329 56.7254 34.9476C56.8816 34.8182 57.0296 34.6601 57.2084 34.58C58.0594 34.2022 58.6268 33.5635 59.079 32.7625C59.4757 32.0623 59.6463 32.0623 60.4829 32.4709C60.8201 33.0316 60.9722 33.6374 60.9228 34.2905L60.9043 34.2946C60.7728 34.389 60.6412 34.4815 60.5097 34.5759C60.2466 34.7587 59.9834 34.9435 59.7203 35.1263C59.0687 35.153 59.081 35.6438 59.0441 36.0977Z" fill="#333733"/>
<path d="M51.9974 30.756C51.4773 29.8791 51.208 28.9652 51.6253 27.7659C52.3674 28.4949 53.0272 29.1459 53.6603 29.7682C54.2256 29.1911 54.7436 28.6633 55.3705 28.0226C54.8238 27.4722 54.1886 26.8315 53.5473 26.1866C54.316 25.6938 55.352 25.7903 56.1681 26.4392C56.9307 27.0451 57.422 27.8439 57.3439 28.8256C57.2843 29.5649 57.5309 30.0639 58.0757 30.4972C58.5032 30.8361 58.9123 31.2016 59.3481 31.5692C58.6718 32.4687 58.1106 33.2142 57.4693 34.0644C56.6861 33.3189 56.0283 32.6926 55.3685 32.0662C55.241 31.9738 55.1239 31.8157 54.9862 31.7972C54.2914 31.7027 53.5904 31.6452 52.8915 31.5754L52.91 31.5795C52.8319 31.5158 52.7538 31.4522 52.6736 31.3885L52.6839 31.3967C52.4578 31.1811 52.2276 30.9675 51.9974 30.756Z" fill="#343833"/>
<path d="M65.4039 42.0259C63.4635 40.116 61.521 38.2061 59.6011 36.3168C60.0554 35.2016 61.1284 35.0209 61.8622 34.2795C62.6659 35.0784 63.4573 35.865 64.2487 36.6515C65.1429 37.5407 66.035 38.432 66.9291 39.3212C67.9549 40.344 67.9816 40.6602 67.147 41.8554C67.0463 41.9273 66.9477 42.0013 66.8469 42.0731L66.8572 42.0649C66.3721 42.0526 65.889 42.0403 65.4039 42.0259ZM65.4224 40.0708C65.2415 40.4282 65.3011 40.7526 65.6629 40.9149C65.8376 40.995 66.1336 40.9744 66.3001 40.8759C66.6085 40.689 66.7709 40.3932 66.481 40.04C65.9384 39.5163 65.9116 39.5163 65.4224 40.0708Z" fill="#313633"/>
<path d="M47.4794 51.5635C47.4445 50.5839 47.3972 49.6043 47.3807 48.6226C47.3643 47.5055 47.3766 46.3883 47.3766 45.1992C48.8895 45.1992 50.3264 45.1992 51.8372 45.1992C51.8372 47.3288 51.8372 49.4297 51.8372 51.5286C50.386 51.5409 48.9327 51.5511 47.4794 51.5635ZM50.5237 46.7682C49.9728 46.7004 49.2595 46.9797 48.76 47.5157C48.61 47.6759 48.61 47.9757 48.5031 48.3351C48.9183 48.2612 49.1691 48.216 49.5206 48.1524C49.5206 48.8075 49.5206 49.4112 49.5206 50.054C49.9029 50.054 50.1928 50.054 50.5216 50.054C50.5237 48.9184 50.5237 47.8402 50.5237 46.7682Z" fill="#0A0804"/>
<path d="M52.462 51.5597C52.4188 51.0565 52.3428 50.5534 52.3366 50.0482C52.3202 48.4546 52.3304 46.8589 52.3304 45.1831C53.9091 45.1831 55.3912 45.1831 56.8753 45.1831C56.8753 47.2901 56.8753 49.3992 56.8753 51.5063H56.8198L56.791 51.5535C55.348 51.5556 53.905 51.5576 52.462 51.5597ZM53.2164 48.434C53.2205 48.5018 53.2287 48.6394 53.2431 48.7749C53.3377 49.7093 53.7385 50.1283 54.5628 50.157C55.4076 50.1878 55.8455 49.8059 55.9585 48.8694C56.0017 48.5039 55.9893 48.1157 55.9153 47.7543C55.7427 46.9041 55.1938 46.5549 54.3428 46.6905C53.5473 46.8178 53.2267 47.2963 53.2164 48.434Z" fill="#0E0C06"/>
<path d="M62.3432 51.5368C62.3227 49.9329 62.3042 48.3269 62.2754 46.723C62.2692 46.3513 62.224 45.9796 62.1973 45.6079C62.2055 45.5217 62.2137 45.4354 62.2219 45.3512C62.3699 45.2773 62.5159 45.1397 62.6639 45.1376C63.9897 45.1212 65.3156 45.1274 66.6619 45.1274C66.7195 45.3019 66.7956 45.4231 66.7956 45.5463C66.8017 47.3864 66.8017 49.2244 66.7935 51.0644C66.7935 51.2287 66.7277 51.393 66.6907 51.5573C65.2416 51.5512 63.7924 51.545 62.3432 51.5368ZM65.9137 48.4419C65.8993 48.3064 65.887 48.1359 65.8664 47.9675C65.7554 47.0968 65.3526 46.6881 64.5838 46.6635C63.7595 46.6368 63.262 47.0681 63.1675 47.9409C63.1305 48.2756 63.1346 48.6247 63.186 48.9574C63.3361 49.937 64.1459 50.4093 65.0709 50.0766C65.8356 49.8035 65.8541 49.1299 65.9137 48.4419Z" fill="#0E0C06"/>
<path d="M67.2848 51.5263C67.2848 49.4275 67.2848 47.3286 67.2848 45.1785C68.773 45.1785 70.1893 45.1785 71.6816 45.1785C71.7043 45.4475 71.7474 45.7083 71.7433 45.9691C71.7145 47.8338 71.6755 49.6985 71.6405 51.5633C70.1872 51.5509 68.736 51.5386 67.2848 51.5263ZM70.8944 48.3616C70.8882 48.2856 70.882 48.1152 70.8553 47.9468C70.7114 47.0493 70.2325 46.6181 69.4267 46.6591C68.6168 46.7002 68.1831 47.15 68.1152 48.0679C68.0906 48.4047 68.0947 48.758 68.1605 49.0886C68.3167 49.8567 68.8799 50.2386 69.6631 50.1627C70.4853 50.0826 70.8944 49.5178 70.8944 48.3616Z" fill="#0C0A05"/>
<path d="M57.3995 51.547C57.3995 49.444 57.3995 47.339 57.3995 45.1807C58.8282 45.1807 60.2136 45.1807 61.7224 45.1807C61.7224 47.2877 61.7224 49.4153 61.7224 51.5449C60.2814 51.547 58.8405 51.547 57.3995 51.547ZM60.9495 48.4008C60.9351 47.146 60.378 46.5402 59.3647 46.6716C58.6267 46.7681 58.2793 47.1522 58.193 47.9736C58.0717 49.1237 58.3451 49.8404 59.0029 50.0848C59.0974 50.1197 59.2002 50.1341 59.3009 50.1505C60.3904 50.3168 60.9659 49.7048 60.9495 48.4008Z" fill="#070606"/>
<path d="M72.0206 38.5949C71.9589 36.7076 73.7637 34.8264 76.0577 34.8367C78.2345 34.847 80.0825 36.7836 79.9838 38.599C79.5419 39.0303 79.4905 39.9051 78.5943 39.8209C78.2798 39.5375 77.9653 39.252 77.6651 38.9789C78.9643 37.0998 78.9643 37.0998 77.9324 36.2927C77.9262 36.1942 77.9591 36.0545 77.9057 36.0011C77.0341 35.1222 74.9703 35.1201 74.1049 35.9991C74.0535 36.0525 74.0885 36.1921 74.0823 36.2907C73.036 37.0813 73.0381 37.1019 74.3434 38.981C74.0391 39.2541 73.7246 39.5375 73.4081 39.8189C72.5036 39.9072 72.4687 39.0179 72.0206 38.5949Z" fill="#81807D"/>
<path d="M38.8748 38.5661C38.9385 36.5576 40.4452 34.9845 42.4042 34.8818C44.8338 34.7545 46.468 36.0586 46.7681 38.3669C46.5708 39.1123 46.1042 39.6442 45.4484 40.0262C45.1113 39.6257 44.7722 39.2232 44.4474 38.8371C45.7979 37.2682 45.8102 37.0012 44.6221 36.2701C44.5502 36.1037 44.5255 35.8717 44.4001 35.7813C43.3559 35.042 41.8348 35.2104 40.8522 36.1489C40.474 36.6767 39.8203 37.1121 40.2787 37.911C39.9149 38.5969 40.661 38.8043 40.8543 39.2479C40.6282 39.5066 40.402 39.7654 40.1759 40.0242C39.7422 39.5415 39.3085 39.0528 38.8748 38.5661Z" fill="#81807D"/>
<path d="M38.8749 38.5659C39.3086 39.0526 39.7423 39.5393 40.176 40.026C40.1267 40.5538 40.1555 41.059 40.6879 41.3589C41.6746 41.9133 42.1124 40.8947 42.8051 40.5744C43.5122 40.8783 43.9501 41.9154 44.9347 41.3568C45.4609 41.059 45.5082 40.5579 45.4465 40.026C46.1022 39.6441 46.5688 39.1122 46.7662 38.3667C47.2513 40.5682 45.4177 42.5993 43.4691 42.8621C40.9448 43.201 38.8831 41.5765 38.7433 38.8349C38.7413 38.7487 38.8297 38.6563 38.8749 38.5659Z" fill="#C9C8C3"/>
<path d="M72.0207 38.5947C72.4688 39.0198 72.5037 39.9091 73.4041 39.8208C73.3568 40.3917 73.2211 40.9811 73.8707 41.3507C74.8738 41.9216 75.3014 40.8948 76.0434 40.5642C76.3189 40.7962 76.5655 41.1166 76.8903 41.2501C77.2315 41.3918 77.6611 41.4411 78.0229 41.3733C78.469 41.2871 78.6375 40.8763 78.6396 40.4307C78.6396 40.2274 78.6108 40.0241 78.5944 39.8228C79.4906 39.905 79.542 39.0322 79.9839 38.6009C80.2964 40.9872 77.9674 42.9464 76.0003 42.9361C74.068 42.9259 71.7288 41.0673 72.0207 38.5947Z" fill="#CBCAC8"/>
<path d="M60.9248 34.2922C60.9741 33.6391 60.822 33.0333 60.4849 32.4726C61.5003 31.5156 62.524 30.5689 63.525 29.5975C64.2116 28.9321 64.9989 28.3181 65.4943 27.5254C65.9527 26.7922 66.5488 26.3137 67.2127 25.8044C67.6793 25.9954 67.9198 26.2727 67.556 26.7204C67.1613 27.205 66.9188 27.8766 66.1479 27.9526C66.0308 27.9649 65.9157 28.0922 65.8211 28.1867C64.2445 29.7454 62.6699 31.3082 61.1673 32.7992C61.1509 33.4029 61.7552 33.9739 60.9248 34.2922Z" fill="#393E3B"/>
<path d="M47.4795 51.5635C48.9328 51.5512 50.3861 51.5409 51.8373 51.5286C51.7201 51.66 51.605 51.9023 51.4858 51.9064C50.2915 51.9352 49.0931 51.9372 47.8988 51.9105C47.757 51.9064 47.6193 51.6846 47.4795 51.5635Z" fill="#CECC6F"/>
<path d="M52.4622 51.5594C53.9052 51.5573 55.3482 51.5553 56.7912 51.5532C56.6637 51.6764 56.5383 51.9064 56.4088 51.9085C55.2207 51.9373 54.0326 51.9352 52.8445 51.9085C52.715 51.9064 52.5896 51.6805 52.4622 51.5594Z" fill="#CECC6F"/>
<path d="M57.3995 51.5472C58.8405 51.5472 60.2814 51.5472 61.7224 51.5452C61.597 51.6704 61.4757 51.9025 61.3462 51.9066C60.156 51.9354 58.9638 51.9354 57.7736 51.9066C57.6462 51.9046 57.5229 51.6745 57.3995 51.5472Z" fill="#CECC6F"/>
<path d="M67.2848 51.5264C68.736 51.5387 70.1872 51.551 71.6385 51.5633C71.4638 51.6845 71.2931 51.9063 71.1164 51.9125C69.9899 51.9453 68.8635 51.9433 67.737 51.9104C67.5828 51.9063 67.4348 51.6599 67.2848 51.5264Z" fill="#CECC6F"/>
<path d="M62.3433 51.5366C63.7924 51.5428 65.2416 51.551 66.6887 51.5572C66.5202 51.6804 66.3537 51.9063 66.181 51.9104C65.0587 51.9432 63.9343 51.9432 62.8119 51.9104C62.6537 51.9063 62.4995 51.6681 62.3433 51.5366Z" fill="#CECC6F"/>
<path d="M62.222 45.3508C62.2138 45.4371 62.2056 45.5234 62.1973 45.6076C62.1706 47.1047 62.1439 48.6038 62.1213 50.1009C62.1151 50.5055 62.1213 50.9121 61.9322 51.3229C61.9322 51.0312 61.9322 50.7376 61.9322 50.4459C61.9322 48.84 61.9301 47.234 61.9322 45.6281C61.9342 45.4453 61.8561 45.164 62.222 45.3508Z" fill="#FEEA00"/>
<path d="M56.8752 51.508C56.8752 49.401 56.8752 47.2919 56.8752 45.1848C56.978 45.3327 57.1692 45.4805 57.1712 45.6305C57.1918 47.4418 57.1918 49.251 57.1712 51.0623C57.1692 51.2102 56.9801 51.3581 56.8752 51.508Z" fill="#FEEA00"/>
<path d="M52.8958 31.571C53.5946 31.6409 54.2956 31.6984 54.9904 31.7928C55.1281 31.8113 55.2453 31.9674 55.3727 32.0619C54.8999 32.0475 54.4189 32.0845 53.9605 32.0003C53.5905 31.9325 53.2493 31.7189 52.8958 31.571Z" fill="#CECC6F"/>
<path d="M65.4038 42.0261C65.8869 42.0405 66.372 42.0549 66.855 42.0692C66.3596 42.4779 65.8684 42.6915 65.4038 42.0261Z" fill="#CECC6F"/>
<path d="M59.0438 36.0974C59.0808 35.6435 59.0685 35.1548 59.7201 35.1301C59.496 35.4505 59.2699 35.775 59.0438 36.0974Z" fill="#393E3B"/>
<path d="M51.9974 30.7559C52.2277 30.9674 52.4579 31.181 52.6881 31.3925C52.4579 31.181 52.2277 30.9674 51.9974 30.7559Z" fill="#CECC6F"/>
<path d="M60.5117 34.5775C60.6433 34.483 60.7748 34.3906 60.9064 34.2961C60.7748 34.3906 60.6433 34.4851 60.5117 34.5775Z" fill="#393E3B"/>
<path d="M66.8468 42.0756C66.9475 42.0037 67.0462 41.9298 67.1469 41.8579C67.0462 41.9298 66.9455 42.0037 66.8468 42.0756Z" fill="#CECC6F"/>
<path d="M52.6779 31.3843C52.756 31.4479 52.8341 31.5116 52.9143 31.5753C52.8341 31.5116 52.756 31.4479 52.6779 31.3843Z" fill="#CECC6F"/>
<path d="M66.481 40.0405C66.7687 40.3938 66.6063 40.6895 66.3001 40.8764C66.1356 40.977 65.8396 40.9955 65.6628 40.9154C65.3011 40.7531 65.2415 40.4287 65.4223 40.0713C65.7738 40.0611 66.1274 40.0508 66.481 40.0405Z" fill="#FBCA01"/>
<path d="M66.4809 40.0399C66.1273 40.0501 65.7758 40.0604 65.4222 40.0707C65.9115 39.5162 65.9382 39.5162 66.4809 40.0399Z" fill="#CECC6F"/>
<path d="M50.5237 46.7681C50.5237 47.8401 50.5237 48.9182 50.5237 50.0539C50.1948 50.0539 49.905 50.0539 49.5226 50.0539C49.5226 49.4091 49.5226 48.8073 49.5226 48.1522C49.1711 48.2159 48.9183 48.2611 48.5051 48.335C48.61 47.9756 48.612 47.6778 48.7621 47.5156C49.2595 46.9796 49.9707 46.7003 50.5237 46.7681Z" fill="#E6E6E6"/>
<path d="M53.2166 48.4338C53.2268 47.2961 53.5495 46.8176 54.3409 46.6902C55.194 46.5547 55.7408 46.9038 55.9134 47.754C55.9874 48.1155 56.0018 48.5036 55.9566 48.8692C55.8436 49.8056 55.4057 50.1876 54.5609 50.1568C53.7345 50.128 53.3337 49.7071 53.2412 48.7747C53.2289 48.6392 53.2207 48.5016 53.2166 48.4338ZM54.5835 49.4996C55.1837 48.7275 55.1611 47.9615 54.5691 47.4008C54.0121 48.0744 54.0018 48.6207 54.5835 49.4996Z" fill="#EBEBEB"/>
<path d="M65.9136 48.4419C65.854 49.1278 65.8355 49.8035 65.0708 50.0786C64.1458 50.4113 63.3359 49.9369 63.1859 48.9594C63.1345 48.6267 63.1304 48.2776 63.1674 47.9428C63.2619 47.07 63.7594 46.6388 64.5837 46.6655C65.3504 46.6901 65.7553 47.1008 65.8663 47.9695C65.8869 48.1379 65.8992 48.3063 65.9136 48.4419ZM64.4501 47.3904C63.9218 48.2057 63.9732 48.9265 64.5939 49.4235C65.1531 48.5774 65.1058 47.8956 64.4501 47.3904Z" fill="#EBEBEB"/>
<path d="M70.8943 48.362C70.8964 49.5182 70.4873 50.0829 69.661 50.161C68.8778 50.2349 68.3166 49.8529 68.1583 49.0869C68.0905 48.7563 68.0864 48.4051 68.1131 48.0663C68.181 47.1483 68.6147 46.6985 69.4246 46.6575C70.2303 46.6164 70.7114 47.0477 70.8532 47.9451C70.8799 48.1156 70.8861 48.2881 70.8943 48.362ZM69.4472 47.3249C68.9189 48.1628 68.9312 48.7563 69.4513 49.4422C70.0721 48.8487 70.0926 48.134 69.4472 47.3249Z" fill="#E6E6E6"/>
<path d="M60.9494 48.4008C60.9659 49.7049 60.3903 50.3169 59.3008 50.1505C59.2001 50.1361 59.0974 50.1197 59.0028 50.0848C58.345 49.8404 58.0716 49.1237 58.1929 47.9737C58.2792 47.1522 58.6266 46.7682 59.3646 46.6716C60.378 46.5402 60.933 47.1481 60.9494 48.4008ZM59.5249 47.3986C58.9925 48.1585 59.0377 48.9286 59.6421 49.3948C60.1087 48.5795 60.0717 47.949 59.5249 47.3986Z" fill="#E6E6E6"/>
<path d="M78.5945 39.8206C78.6109 40.0239 78.6397 40.2272 78.6397 40.4285C78.6377 40.8741 78.4712 41.2848 78.023 41.3711C77.6613 41.4409 77.2316 41.3896 76.8904 41.2479C76.5656 41.1144 76.319 40.794 76.0435 40.5619C75.3015 40.8926 74.8739 41.9215 73.8708 41.3485C73.2212 40.9788 73.3569 40.3894 73.4042 39.8185C73.7207 39.5351 74.0352 39.2517 74.3395 38.9806C73.0342 37.1016 73.0321 37.081 74.0784 36.2904C75.0301 35.9987 75.3816 36.9455 76.0189 37.2823C76.6335 36.8387 77.0096 36.0254 77.9305 36.2924C78.9645 37.0995 78.9645 37.0995 77.6633 38.9786C77.9655 39.2517 78.28 39.5351 78.5945 39.8206Z" fill="#050505"/>
<path d="M77.9306 36.2927C77.0076 36.0257 76.6315 36.839 76.0189 37.2825C75.3837 36.9457 75.0302 35.999 74.0784 36.2906C74.0846 36.1921 74.0497 36.0524 74.1011 35.999C74.9685 35.1201 77.0302 35.1221 77.9018 36.0011C77.9573 36.0565 77.9244 36.1941 77.9306 36.2927Z" fill="#EBEBEB"/>
<path d="M45.4466 40.0259C45.5082 40.5598 45.4589 41.0588 44.9347 41.3566C43.9501 41.9152 43.5123 40.8781 42.8052 40.5742C42.1124 40.8946 41.6726 41.9132 40.6879 41.3587C40.1556 41.0589 40.1288 40.5537 40.1761 40.0259C40.4022 39.7671 40.6283 39.5083 40.8544 39.2496C41.2388 39.0997 41.2882 38.8471 41.0209 38.5637C40.7969 38.3234 40.5276 38.1283 40.2768 37.9127C39.8184 37.1138 40.4721 36.6764 40.8503 36.1506C41.6993 36.1999 42.2584 36.7749 42.8196 37.3007C43.9234 36.3231 43.9234 36.3231 44.6202 36.2718C45.8083 37.005 45.796 37.2699 44.4455 38.8389C44.7723 39.2249 45.1095 39.6254 45.4466 40.0259Z" fill="#030303"/>
<path d="M44.6201 36.2718C43.9212 36.3231 43.9212 36.3231 42.8194 37.3006C42.2583 36.7749 41.6992 36.1999 40.8502 36.1506C41.8328 35.2141 43.3539 35.0437 44.3981 35.783C44.5256 35.8713 44.5502 36.1034 44.6201 36.2718Z" fill="#EBEBEB"/>
<path d="M40.2767 37.9126C40.5254 38.1282 40.7967 38.3254 41.0208 38.5636C41.2859 38.8491 41.2387 39.1017 40.8543 39.2495C40.659 38.8039 39.9128 38.5965 40.2767 37.9126Z" fill="#393E3B"/>
<path d="M54.5834 49.4995C54.0017 48.6205 54.012 48.0742 54.569 47.4006C55.161 47.9592 55.1836 48.7273 54.5834 49.4995Z" fill="#242424"/>
<path d="M64.4501 47.3904C65.1058 47.8956 65.1531 48.5774 64.594 49.4235C63.9732 48.9265 63.9218 48.2077 64.4501 47.3904Z" fill="#242424"/>
<path d="M69.4472 47.3252C70.0906 48.1343 70.0721 48.849 69.4514 49.4425C68.9313 48.7566 68.919 48.1631 69.4472 47.3252Z" fill="#242424"/>
<path d="M59.5249 47.3987C60.0717 47.9491 60.1087 48.5795 59.6421 49.3948C59.0377 48.9266 58.9925 48.1585 59.5249 47.3987Z" fill="#0F0D0A"/>
</svg>
