<svg width="125" height="29" viewBox="0 0 125 29" fill="none" xmlns="http://www.w3.org/2000/svg">
<path d="M118.813 19.9096C115.755 19.9654 112.778 17.8504 112.827 13.7666C112.873 9.8701 116.398 7.90953 119.004 8.00321C122.269 8.11989 124.926 10.6901 124.888 14.0016C124.843 17.7732 121.886 20.0295 118.813 19.9096ZM118.828 16.4256C120.068 16.6819 121.373 15.2193 121.333 14.0016C121.295 12.8791 120.43 11.5628 118.815 11.5316C117.502 11.5069 116.438 12.6721 116.354 13.9819C116.272 15.2571 117.619 16.6737 118.828 16.4256Z" fill="#020202"/>
<path d="M70.2093 19.9115C67.1662 19.9969 64.1001 17.8835 64.1445 13.6469C64.1758 10.72 66.8932 8.11027 69.8804 8.00674C73.2689 7.89006 76.1755 10.4653 76.1903 13.9772C76.2051 17.3067 73.4778 20.0232 70.2093 19.9115ZM70.1189 16.4258C71.6092 16.4291 72.6405 15.4776 72.6784 14.0659C72.7146 12.6723 71.5894 11.5729 70.1337 11.5795C68.7059 11.586 67.6499 12.6493 67.6745 14.0528C67.7008 15.4677 68.6845 16.4225 70.1189 16.4258Z" fill="#030303"/>
<path d="M83.438 19.87C83.438 17.2554 83.438 14.7229 83.438 12.156C83.0843 12.1379 82.7932 12.1231 82.4658 12.105C82.7899 10.9037 83.1057 9.74019 83.4248 8.55859C84.5845 8.55859 85.6964 8.55859 86.866 8.55859C86.866 9.14035 86.866 9.70403 86.866 10.2694C86.9203 10.2809 86.9762 10.2924 87.0305 10.3039C87.19 9.76813 87.3479 9.23402 87.524 8.6424C89.1689 8.64076 90.5572 9.21595 91.6626 10.4748C93.5954 12.6753 93.4687 16.7246 90.9405 18.7049C89.8515 19.5578 88.5767 19.8092 87.2542 19.8602C86.0221 19.9062 84.7901 19.87 83.438 19.87ZM86.9268 16.8939C88.6244 16.9037 89.8959 15.7106 89.8663 14.1971C89.8367 12.7229 88.427 11.428 86.9268 11.5364C86.9268 13.2998 86.9268 15.0648 86.9268 16.8939Z" fill="#030303"/>
<path d="M35.1927 12.2006C34.9196 12.171 34.6811 12.1447 34.3209 12.1069C34.6235 10.9565 34.9196 9.83243 35.2108 8.72314C36.8886 8.72314 38.471 8.72314 40.0468 8.72314C41.1029 12.4964 42.1474 16.2318 43.2018 20.0001C42.0701 20.0001 40.9598 20.0001 39.805 20.0001C39.6784 19.5235 39.555 19.0666 39.4283 18.5901C38.4644 18.5901 37.5383 18.5901 36.5761 18.5901C36.4297 19.065 36.2833 19.5399 36.1401 20.0001C35.0397 20.0001 34.0034 20.0001 32.8618 20.0001C33.6481 17.3723 34.4146 14.8037 35.1927 12.2006ZM38.6635 15.3624C38.4282 14.498 38.2193 13.7256 38.0088 12.9516C37.9627 12.9614 37.915 12.9713 37.869 12.9812C37.6831 13.7552 37.4989 14.5309 37.2998 15.3624C37.7736 15.3624 38.17 15.3624 38.6635 15.3624Z" fill="#020202"/>
<path d="M98.3609 15.458C98.3609 15.7932 98.3609 16.048 98.3609 16.3684C99.7164 16.3684 101.021 16.3684 102.444 16.3684C102.171 17.5221 101.917 18.5854 101.659 19.6733C99.3989 19.6733 97.1569 19.6733 94.8342 19.6733C94.8342 17.0932 94.8342 14.5081 94.8342 11.8639C94.5266 11.8442 94.2931 11.831 94.0068 11.8129C94.2914 10.656 94.5678 9.53685 94.8606 8.34539C96.0169 8.34539 97.1898 8.35525 98.3626 8.33882C98.6916 8.33389 99.0748 8.48508 99.3166 8.08409C99.3528 8.02329 99.519 8.02493 99.6242 8.02493C100.526 8.02 101.427 8.02329 102.444 8.02329C102.227 8.99782 102.026 9.90497 101.822 10.8121C101.792 10.9436 101.703 11.0751 101.712 11.2016C101.748 11.7998 101.393 11.8557 100.922 11.8442C100.101 11.8228 99.2788 11.8376 98.3823 11.8376C98.3823 12.1383 98.3823 12.4128 98.3823 12.7678C99.6654 12.7678 100.914 12.7678 102.21 12.7678C102.026 13.5615 101.83 14.2632 101.708 14.9765C101.641 15.3742 101.442 15.4629 101.098 15.4613C100.221 15.4531 99.3446 15.458 98.3609 15.458Z" fill="#010101"/>
<path d="M43.3086 8.55225C44.5522 8.55225 45.725 8.55225 46.9488 8.55225C47.4308 10.2992 47.9078 12.0313 48.3865 13.7634C48.4259 13.7667 48.4654 13.7684 48.5049 13.7717C48.9803 12.0494 49.4557 10.3271 49.9409 8.56704C51.1549 8.56704 52.3507 8.56704 53.5795 8.56704C52.2997 12.3041 51.0216 16.0395 49.7271 19.8226C48.8816 19.8226 48.0493 19.8226 47.1692 19.8226C45.8862 16.079 44.6048 12.3386 43.3086 8.55225Z" fill="#020202"/>
<path d="M63.8819 8.35312C63.5513 9.6514 63.2404 10.8659 62.9131 12.1526C62.0758 12.1526 61.2681 12.1526 60.4013 12.1526C60.4013 14.7952 60.4013 17.354 60.4013 19.9735C59.2383 19.9735 58.1313 19.9735 56.9256 19.9735C56.9256 17.4263 56.9256 14.8478 56.9256 12.2036C55.9633 12.2036 55.0964 12.2036 54.1489 12.2036C54.4384 10.9858 54.7066 9.85189 54.9878 8.67522C56.5834 8.67522 58.1412 8.68837 59.6972 8.66372C60.0312 8.65879 60.3618 8.51417 60.6941 8.432C60.7977 8.40735 60.9013 8.3564 61.005 8.3564C61.9311 8.34983 62.8571 8.35312 63.8819 8.35312Z" fill="#010101"/>
<path d="M105.357 8.38135C106.499 8.38135 107.586 8.38135 108.759 8.38135C108.759 10.9779 108.759 13.5597 108.759 16.222C109.65 16.222 110.459 16.222 111.307 16.222C111.614 17.4052 111.902 18.5227 112.203 19.6797C109.92 19.6797 107.661 19.6797 105.357 19.6797C105.357 15.9327 105.357 12.1973 105.357 8.38135Z" fill="#010101"/>
<path d="M14.1492 28.3031C13.7066 28.2891 13.3488 28.1041 13.0404 27.7946C12.0092 26.7584 10.972 25.7273 9.93776 24.6941C6.83507 21.5943 3.73239 18.4937 0.629703 15.3932C0.533804 15.2974 0.435693 15.2038 0.350122 15.0999C-0.116092 14.5383 -0.11683 13.7674 0.348647 13.2058C0.426841 13.1115 0.514624 13.0253 0.601671 12.9383C4.71277 8.83102 8.82386 4.72376 12.9357 0.616496C13.0397 0.51258 13.143 0.405716 13.2588 0.315066C13.7958 -0.104284 14.5306 -0.105021 15.0691 0.312855C15.1753 0.395398 15.2705 0.492681 15.3664 0.58849C19.4951 4.71271 23.6225 8.83913 27.755 12.9597C28.2293 13.4328 28.4771 13.9657 28.2404 14.6164C28.1437 14.881 27.9527 15.1316 27.7498 15.335C25.3848 17.7133 23.0095 20.0812 20.6363 22.4521C18.863 24.2239 17.0881 25.9927 15.3184 27.7673C14.9909 28.0953 14.6191 28.3009 14.1492 28.3031ZM14.31 0.242103C13.7302 0.249473 13.4137 0.480152 13.1172 0.77716C9.00017 4.89622 4.87874 9.01085 0.758797 13.127C0.706422 13.1793 0.653308 13.2301 0.603884 13.2847C0.124391 13.8116 0.122179 14.4874 0.597983 15.0114C0.663637 15.0844 0.735191 15.1522 0.804533 15.2222C2.60374 17.0198 4.40368 18.8165 6.20288 20.6141C8.50666 22.915 10.8082 25.2181 13.1157 27.5153C13.2868 27.6855 13.4801 27.8602 13.697 27.9538C14.248 28.1926 14.7209 28.0157 15.1325 27.603C16.5813 26.1496 18.0345 24.7014 19.4863 23.251C22.1722 20.5676 24.8603 17.8865 27.5403 15.1979C27.7269 15.0107 27.9099 14.7896 28.0036 14.5486C28.2153 14.004 28.0028 13.5544 27.6045 13.1572C23.455 9.01822 19.31 4.87484 15.1635 0.732941C15.0853 0.65482 15.0123 0.561222 14.9171 0.513317C14.681 0.394661 14.4347 0.296641 14.31 0.242103Z" fill="#242424"/>
<path d="M14.3102 0.241943C14.4342 0.296481 14.6813 0.393764 14.9166 0.513894C15.0118 0.561798 15.0848 0.655397 15.163 0.733518C19.3095 4.87542 23.4545 9.01806 27.604 13.1578C28.0023 13.555 28.2148 14.0046 28.003 14.5492C27.9094 14.7902 27.7264 15.012 27.5398 15.1985C24.8591 17.887 22.1717 20.5682 19.4858 23.2516C18.034 24.702 16.5808 26.1502 15.132 27.6036C14.7211 28.0163 14.2475 28.1924 13.6965 27.9544C13.4796 27.8608 13.2863 27.6861 13.1152 27.5159C10.8077 25.2187 8.50615 22.9163 6.20238 20.6147C4.40317 18.8171 2.60323 17.0203 0.80403 15.2228C0.734688 15.1535 0.663871 15.085 0.597479 15.012C0.121675 14.488 0.123889 13.8122 0.603381 13.2853C0.652806 13.2307 0.705919 13.1791 0.758294 13.1275C4.87898 9.01069 9.0004 4.89606 13.1174 0.777001C13.4147 0.479992 13.7311 0.249313 14.3102 0.241943ZM14.1915 23.2089C14.6282 23.1963 14.9933 23.0276 15.3039 22.7158C17.7795 20.2388 20.2604 17.7662 22.7345 15.2877C23.3999 14.6214 23.3962 13.768 22.7427 13.0973C22.4255 12.7716 22.1001 12.4539 21.7785 12.1326C19.6223 9.9791 17.4682 7.82339 15.309 5.67211C14.6503 5.01619 13.7843 4.99039 13.144 5.62715C10.6344 8.12261 8.13215 10.6254 5.63584 13.1342C5.46912 13.3022 5.33265 13.5285 5.25741 13.7532C5.05233 14.3642 5.2552 14.8786 5.70075 15.323C7.59807 17.2142 9.49169 19.109 11.3868 21.0023C11.9607 21.5757 12.5376 22.1461 13.1071 22.7225C13.4073 23.0254 13.7643 23.1875 14.1915 23.2089Z" fill="#FDFDFD"/>
<path d="M14.1917 23.2089C13.7646 23.1875 13.4075 23.0254 13.1081 22.7225C12.5378 22.1454 11.961 21.5757 11.3878 21.0024C9.49268 19.109 7.59905 17.2142 5.70174 15.3231C5.25618 14.8787 5.05332 14.3643 5.25839 13.7533C5.33363 13.5285 5.4701 13.3022 5.63682 13.1342C8.13313 10.6255 10.6353 8.12265 13.1449 5.62719C13.7852 4.99043 14.6513 5.01623 15.31 5.67215C17.4692 7.8227 19.6233 9.9784 21.7795 12.1326C22.1011 12.454 22.4257 12.7723 22.7436 13.0974C23.398 13.768 23.4009 14.6215 22.7355 15.2877C20.2613 17.7662 17.7805 20.2388 15.3049 22.7159C14.9928 23.0269 14.6284 23.1964 14.1917 23.2089ZM14.2197 22.9782C14.576 22.9591 14.8859 22.8109 15.1507 22.5464C17.6168 20.0789 20.0873 17.6159 22.5518 15.1477C23.1531 14.5456 23.1538 13.8344 22.5526 13.233C20.088 10.7648 17.6204 8.29879 15.1492 5.8365C14.5628 5.25206 13.845 5.25133 13.2585 5.83576C10.7785 8.30616 8.30206 10.781 5.83157 13.261C5.68108 13.4121 5.55346 13.6118 5.48265 13.813C5.2938 14.3495 5.49076 14.791 5.87804 15.1764C7.34898 16.6408 8.81549 18.1104 10.2842 19.577C11.2661 20.5579 12.2509 21.5359 13.229 22.5213C13.5012 22.7947 13.814 22.9613 14.2197 22.9782Z" fill="#0F0D0A"/>
<path d="M14.2193 22.9786C13.8135 22.9617 13.5008 22.7958 13.2286 22.5217C12.2504 21.5371 11.2656 20.5583 10.2837 19.5774C8.81501 18.11 7.3485 16.6412 5.87756 15.1768C5.49028 14.7914 5.29332 14.3499 5.48217 13.8134C5.55298 13.6122 5.67986 13.4124 5.83109 13.2614C8.30158 10.7814 10.778 8.30655 13.2581 5.83615C13.8445 5.25172 14.5623 5.25245 15.1487 5.83689C17.62 8.29918 20.0875 10.7652 22.5521 13.2334C23.1533 13.8355 23.1526 14.5459 22.5514 15.1481C20.086 17.6163 17.6163 20.0793 15.1502 22.5467C14.8854 22.8113 14.5756 22.9595 14.2193 22.9786ZM11.6573 10.9767C11.6853 10.9995 11.7134 11.0224 11.7421 11.0452L11.7355 11.0437C11.8624 11.0968 11.9848 11.1742 12.1176 11.1978C12.2821 11.228 12.4555 11.214 12.6244 11.2199C12.8604 11.4447 13.0965 11.6695 13.3783 11.937C13.6077 11.6319 13.8091 11.3643 14.0525 11.0415C13.8962 10.9096 13.7501 10.7784 13.5959 10.6568C13.4004 10.5021 13.3119 10.323 13.3333 10.0569C13.3613 9.70463 13.1843 9.41794 12.9113 9.20053C12.6178 8.96764 12.2467 8.933 11.9708 9.10988C12.201 9.34129 12.4289 9.57123 12.6251 9.76875C12.4001 9.99869 12.2142 10.1888 12.0114 10.3952C11.7842 10.1719 11.5466 9.93826 11.2811 9.67662C11.1313 10.1078 11.2287 10.435 11.4146 10.7497C11.4972 10.8256 11.5798 10.9022 11.6625 10.9782C11.661 10.9796 11.6573 10.9767 11.6573 10.9767ZM16.7421 14.8135C16.7783 14.7877 16.8137 14.7611 16.8498 14.7353C17.1493 14.3064 17.1397 14.1929 16.7716 13.8259C16.4515 13.506 16.1306 13.1869 15.8097 12.8678C15.5264 12.5855 15.2424 12.3033 14.9532 12.0166C14.6899 12.2826 14.3048 12.3475 14.1418 12.7477C14.8308 13.4257 15.5279 14.1111 16.2243 14.7965C16.391 15.0353 16.5673 14.9587 16.7451 14.812C16.7451 14.8105 16.7421 14.8135 16.7421 14.8135ZM14.6102 12.0217L14.6169 12.0203C14.9149 11.906 14.698 11.7011 14.7039 11.4852C15.2432 10.9502 15.8082 10.3893 16.374 9.82992C16.4087 9.79602 16.45 9.74959 16.4913 9.7459C16.7672 9.71863 16.855 9.47764 16.9966 9.30371C17.1272 9.14304 17.0409 9.04355 16.8734 8.97501C16.6352 9.15852 16.4205 9.33024 16.2567 9.59261C16.0789 9.87709 15.7964 10.0974 15.55 10.3362C15.1908 10.6848 14.8234 11.0246 14.459 11.368C14.1595 11.2214 14.0975 11.2214 13.9552 11.4727C13.7929 11.7601 13.5893 11.9893 13.2839 12.1249C13.219 12.1537 13.1658 12.2104 13.1105 12.2568C12.8582 12.4669 12.6185 12.6931 12.3529 12.8855C11.9088 13.2068 11.543 13.596 11.2612 14.0625C11.104 14.3219 11.1365 14.5393 11.3253 14.7272C11.5134 14.9144 11.7311 14.9388 11.9929 14.7707C12.4186 14.498 12.7941 14.1701 13.0995 13.7603C13.3171 13.4685 13.5679 13.2017 13.798 12.9187C13.8578 12.845 13.8954 12.7536 13.9426 12.6696C14.0238 12.5538 14.1049 12.4381 14.1853 12.3224C14.2797 12.2568 14.3742 12.1905 14.4686 12.1249C14.5158 12.0895 14.563 12.0556 14.6102 12.0217ZM9.53572 13.4825C9.42802 12.6541 8.8423 12.1861 7.96963 12.2318C7.26662 12.2686 6.7259 12.8332 6.70303 13.5539C6.6868 13.5864 6.65508 13.6188 6.65656 13.6505C6.70672 14.6344 7.44661 15.2173 8.35248 15.0957C9.0518 15.0021 9.70982 14.2725 9.53572 13.4825ZM21.4559 13.5657C21.4913 12.9142 20.8281 12.2185 20.0469 12.2156C19.2237 12.2119 18.576 12.887 18.5981 13.5643C18.4934 14.4516 19.3329 15.1186 20.0255 15.1223C20.7322 15.1252 21.5688 14.4221 21.4559 13.5657ZM13.3517 18.2125C13.3967 18.2574 13.4403 18.3407 13.486 18.3415C13.9131 18.3518 14.341 18.3518 14.7681 18.3415C14.8138 18.3407 14.8581 18.2567 14.9031 18.2117C14.9031 17.4482 14.9031 16.684 14.9031 15.9278C14.3616 15.9278 13.8644 15.9278 13.3517 15.9278C13.3517 16.7031 13.3517 17.4578 13.3517 18.2125ZM18.4617 18.2184C18.4742 17.5492 18.4882 16.88 18.4985 16.2108C18.5 16.1172 18.4845 16.0236 18.4764 15.9271C17.9416 15.9271 17.4326 15.9271 16.8985 15.9271C16.8985 16.6994 16.8985 17.4519 16.8985 18.2051C16.9524 18.253 17.0055 18.3407 17.0608 18.3422C17.465 18.354 17.8693 18.354 18.2735 18.3429C18.3377 18.3415 18.3997 18.2619 18.4617 18.2184ZM15.0823 15.989C14.9518 15.9219 14.9791 16.0229 14.9791 16.0885C14.9783 16.6648 14.9791 17.2411 14.9791 17.8175C14.9791 17.9221 14.9791 18.0275 14.9791 18.1322C15.0462 17.9848 15.0447 17.8396 15.0469 17.6936C15.055 17.1564 15.0654 16.6184 15.0742 16.0811C15.0838 16.2145 15.1 16.3479 15.1023 16.4813C15.1126 17.0569 15.1185 17.6332 15.1266 18.2088C15.1827 18.256 15.2373 18.3415 15.2948 18.3429C15.6976 18.3547 16.1011 18.3547 16.5039 18.3429C16.5658 18.3415 16.6256 18.2604 16.6861 18.2162C16.6986 18.1572 16.7222 18.0982 16.7229 18.0393C16.7259 17.3789 16.7266 16.7193 16.7237 16.059C16.7237 16.0148 16.6964 15.9705 16.6757 15.9086C16.1926 15.9086 15.7167 15.9064 15.2409 15.9123C15.1878 15.9138 15.1355 15.9624 15.0823 15.989ZM13.1636 18.1985C13.2005 18.1454 13.2691 18.0924 13.2699 18.0378C13.2772 17.3878 13.2772 16.7385 13.2699 16.0885C13.2691 16.0347 13.2005 15.9823 13.1636 15.9285C12.6318 15.9285 12.0992 15.9285 11.5326 15.9285C11.5326 16.5299 11.5289 17.1018 11.5348 17.6745C11.5363 17.8558 11.5636 18.0363 11.5798 18.2169C11.6256 18.2604 11.6706 18.3415 11.717 18.3429C12.1434 18.3525 12.5698 18.3525 12.9962 18.3429C13.0427 18.3422 13.0877 18.2597 13.1334 18.2154L13.1437 18.1985H13.1636ZM11.3563 18.2059C11.3563 17.4519 11.3563 16.6987 11.3563 15.9344C10.8141 15.9344 10.2985 15.9344 9.75555 15.9344C9.75555 16.3612 9.75113 16.7621 9.75703 17.163C9.76219 17.5145 9.77989 17.8661 9.79243 18.2184C9.8426 18.2619 9.89202 18.3407 9.94292 18.3422C10.3723 18.3518 10.8016 18.3518 11.2302 18.3407C11.273 18.34 11.3135 18.253 11.3563 18.2059Z" fill="#FBCA01"/>
<path d="M13.942 12.6679C13.894 12.7512 13.8571 12.8433 13.7974 12.917C13.5672 13.2 13.3164 13.4668 13.0988 13.7587C12.7934 14.1692 12.4179 14.4964 11.9923 14.7691C11.7311 14.9371 11.5135 14.9128 11.3247 14.7256C11.1358 14.5377 11.1041 14.3202 11.2605 14.0608C11.5423 13.595 11.9082 13.2059 12.3523 12.8838C12.6171 12.6915 12.8576 12.4652 13.1099 12.2552C13.1659 12.2088 13.219 12.152 13.2832 12.1233C13.5886 11.9877 13.7922 11.7585 13.9545 11.471C14.0969 11.2197 14.1581 11.2197 14.4584 11.3664C14.5793 11.5676 14.6339 11.785 14.6162 12.0193L14.6096 12.0208C14.5624 12.0547 14.5152 12.0879 14.4679 12.1218C14.3735 12.1874 14.2791 12.2537 14.1847 12.3193C13.9508 12.3289 13.9553 12.505 13.942 12.6679Z" fill="#333733"/>
<path d="M11.4135 10.7508C11.2269 10.4361 11.1302 10.1081 11.28 9.6777C11.5463 9.93933 11.7831 10.173 12.0103 10.3963C12.2132 10.1892 12.399 9.99976 12.624 9.76982C12.4278 9.57231 12.1999 9.34236 11.9697 9.11095C12.2456 8.93407 12.6174 8.96871 12.9103 9.2016C13.1839 9.41901 13.3602 9.7057 13.3322 10.058C13.3108 10.3233 13.3993 10.5024 13.5948 10.6579C13.7483 10.7795 13.8951 10.9107 14.0515 11.0426C13.8088 11.3654 13.6074 11.6329 13.3772 11.9381C13.0962 11.6705 12.8601 11.4457 12.6233 11.221C12.5776 11.1878 12.5355 11.131 12.4861 11.1244C12.2368 11.0905 11.9852 11.0699 11.7344 11.0448L11.741 11.0463C11.713 11.0234 11.685 11.0006 11.6562 10.9778L11.6599 10.9807C11.5787 10.9033 11.4961 10.8267 11.4135 10.7508Z" fill="#343833"/>
<path d="M16.2246 14.7956C15.5282 14.1102 14.8311 13.4248 14.1421 12.7467C14.3051 12.3465 14.6902 12.2817 14.9535 12.0156C15.242 12.3023 15.526 12.5846 15.81 12.8669C16.1309 13.186 16.451 13.5058 16.7719 13.8249C17.14 14.192 17.1496 14.3055 16.8501 14.7344C16.814 14.7602 16.7786 14.7867 16.7424 14.8125L16.7461 14.8096C16.572 14.8051 16.3987 14.8007 16.2246 14.7956ZM16.2312 14.0939C16.1663 14.2222 16.1877 14.3386 16.3175 14.3969C16.3802 14.4256 16.4864 14.4182 16.5462 14.3828C16.6568 14.3158 16.7151 14.2097 16.6111 14.0829C16.4164 13.895 16.4068 13.895 16.2312 14.0939Z" fill="#313633"/>
<path d="M9.7919 18.218C9.77936 17.8665 9.76239 17.5149 9.75649 17.1626C9.75058 16.7617 9.75501 16.3608 9.75501 15.9341C10.2979 15.9341 10.8136 15.9341 11.3558 15.9341C11.3558 16.6983 11.3558 17.4523 11.3558 18.2055C10.835 18.2099 10.3134 18.2136 9.7919 18.218ZM10.8844 16.4971C10.6867 16.4728 10.4307 16.5731 10.2515 16.7654C10.1976 16.8229 10.1976 16.9305 10.1593 17.0595C10.3083 17.0329 10.3983 17.0167 10.5244 16.9939C10.5244 17.229 10.5244 17.4457 10.5244 17.6763C10.6616 17.6763 10.7656 17.6763 10.8837 17.6763C10.8844 17.2688 10.8844 16.8819 10.8844 16.4971Z" fill="#0A0804"/>
<path d="M11.5796 18.2166C11.5641 18.036 11.5368 17.8555 11.5346 17.6742C11.5287 17.1023 11.5324 16.5296 11.5324 15.9282C12.0989 15.9282 12.6308 15.9282 13.1634 15.9282C13.1634 16.6844 13.1634 17.4413 13.1634 18.1974H13.1435L13.1332 18.2144C12.6153 18.2151 12.0975 18.2159 11.5796 18.2166ZM11.8503 17.0949C11.8518 17.1192 11.8548 17.1686 11.8599 17.2172C11.8939 17.5526 12.0377 17.7029 12.3335 17.7132C12.6367 17.7243 12.7938 17.5872 12.8344 17.2511C12.8499 17.1199 12.8455 16.9806 12.8189 16.8509C12.7569 16.5458 12.56 16.4205 12.2546 16.4692C11.9691 16.5149 11.854 16.6866 11.8503 17.0949Z" fill="#0E0C06"/>
<path d="M15.1261 18.2085C15.1187 17.6329 15.1121 17.0566 15.1018 16.481C15.0995 16.3476 15.0833 16.2142 15.0737 16.0808C15.0767 16.0499 15.0796 16.0189 15.0826 15.9887C15.1357 15.9622 15.1881 15.9128 15.2412 15.9121C15.717 15.9062 16.1928 15.9084 16.676 15.9084C16.6966 15.971 16.7239 16.0145 16.7239 16.0587C16.7261 16.7191 16.7261 17.3787 16.7232 18.039C16.7232 18.098 16.6996 18.1569 16.6863 18.2159C16.1662 18.2137 15.6462 18.2115 15.1261 18.2085ZM16.4075 17.0979C16.4023 17.0492 16.3979 16.9881 16.3905 16.9276C16.3507 16.6151 16.2061 16.4685 15.9302 16.4596C15.6344 16.4501 15.4558 16.6048 15.4219 16.918C15.4086 17.0382 15.4101 17.1635 15.4286 17.2829C15.4824 17.6344 15.7731 17.8039 16.105 17.6845C16.3794 17.5865 16.3861 17.3448 16.4075 17.0979Z" fill="#0E0C06"/>
<path d="M16.8994 18.2048C16.8994 17.4516 16.8994 16.6984 16.8994 15.9268C17.4335 15.9268 17.9418 15.9268 18.4773 15.9268C18.4854 16.0233 18.5009 16.1169 18.4994 16.2105C18.4891 16.8797 18.4751 17.5489 18.4626 18.2181C17.941 18.2136 17.4202 18.2092 16.8994 18.2048ZM18.1948 17.0691C18.1926 17.0418 18.1904 16.9807 18.1808 16.9202C18.1291 16.5982 17.9572 16.4434 17.6681 16.4581C17.3774 16.4729 17.2218 16.6343 17.1974 16.9637C17.1886 17.0846 17.1901 17.2113 17.2137 17.33C17.2697 17.6056 17.4719 17.7427 17.7529 17.7154C18.048 17.6867 18.1948 17.484 18.1948 17.0691Z" fill="#0C0A05"/>
<path d="M13.3521 18.2122C13.3521 17.4575 13.3521 16.7021 13.3521 15.9275C13.8647 15.9275 14.3619 15.9275 14.9034 15.9275C14.9034 16.6836 14.9034 17.4472 14.9034 18.2114C14.3863 18.2122 13.8692 18.2122 13.3521 18.2122ZM14.626 17.0831C14.6209 16.6328 14.4209 16.4154 14.0573 16.4625C13.7924 16.4972 13.6678 16.635 13.6368 16.9298C13.5933 17.3425 13.6914 17.5997 13.9274 17.6874C13.9614 17.7 13.9983 17.7051 14.0344 17.711C14.4254 17.7707 14.6319 17.5511 14.626 17.0831Z" fill="#070606"/>
<path d="M18.5992 13.564C18.5771 12.8867 19.2247 12.2117 20.048 12.2153C20.8292 12.219 21.4924 12.914 21.457 13.5655C21.2984 13.7203 21.2799 14.0342 20.9583 14.004C20.8454 13.9023 20.7326 13.7999 20.6249 13.7019C21.0911 13.0275 21.0911 13.0275 20.7208 12.7379C20.7185 12.7025 20.7303 12.6524 20.7112 12.6332C20.3984 12.3178 19.6578 12.3171 19.3472 12.6325C19.3288 12.6516 19.3413 12.7018 19.3391 12.7371C18.9636 13.0209 18.9643 13.0283 19.4328 13.7026C19.3236 13.8006 19.2107 13.9023 19.0971 14.0033C18.7725 14.035 18.76 13.7159 18.5992 13.564Z" fill="#81807D"/>
<path d="M6.7041 13.5537C6.72697 12.833 7.26769 12.2684 7.9707 12.2316C8.84264 12.1859 9.42909 12.6539 9.5368 13.4823C9.46598 13.7498 9.29853 13.9407 9.06321 14.0777C8.94223 13.934 8.82051 13.7896 8.70396 13.651C9.18861 13.088 9.19304 12.9922 8.76666 12.7298C8.74084 12.6701 8.73199 12.5868 8.68699 12.5544C8.31225 12.2891 7.76636 12.3495 7.41375 12.6863C7.27802 12.8757 7.04344 13.032 7.20794 13.3186C7.07737 13.5648 7.34515 13.6392 7.41449 13.7984C7.33334 13.8913 7.2522 13.9841 7.17105 14.077C7.0154 13.9038 6.85975 13.7284 6.7041 13.5537Z" fill="#81807D"/>
<path d="M6.70347 13.5537C6.85912 13.7283 7.01478 13.903 7.17043 14.0777C7.15272 14.2671 7.16305 14.4484 7.35411 14.556C7.70819 14.755 7.86532 14.3894 8.11392 14.2744C8.36768 14.3835 8.52481 14.7557 8.87816 14.5552C9.067 14.4484 9.08397 14.2685 9.06184 14.0777C9.29716 13.9406 9.46461 13.7497 9.53543 13.4822C9.70952 14.2722 9.05151 15.0011 8.35219 15.0955C7.44632 15.2171 6.70642 14.6341 6.65626 13.6502C6.65552 13.6193 6.68724 13.5861 6.70347 13.5537Z" fill="#C9C8C3"/>
<path d="M18.5992 13.564C18.7601 13.7165 18.7726 14.0356 19.0957 14.004C19.0787 14.2088 19.03 14.4204 19.2632 14.553C19.6231 14.7579 19.7766 14.3894 20.0429 14.2707C20.1417 14.354 20.2303 14.469 20.3468 14.5169C20.4693 14.5678 20.6234 14.5854 20.7533 14.5611C20.9133 14.5302 20.9738 14.3828 20.9746 14.2228C20.9746 14.1499 20.9642 14.0769 20.9583 14.0047C21.28 14.0342 21.2984 13.7209 21.457 13.5662C21.5691 14.4226 20.7334 15.1257 20.0274 15.122C19.334 15.1183 18.4945 14.4513 18.5992 13.564Z" fill="#CBCAC8"/>
<path d="M14.6168 12.0199C14.6346 11.7855 14.58 11.5681 14.459 11.3669C14.8234 11.0235 15.1908 10.6837 15.55 10.3351C15.7964 10.0963 16.0789 9.87596 16.2567 9.59148C16.4212 9.32837 16.6351 9.15665 16.8734 8.97388C17.0409 9.04242 17.1272 9.14191 16.9966 9.30258C16.855 9.47651 16.7679 9.7175 16.4913 9.74477C16.4492 9.74919 16.4079 9.79489 16.374 9.82879C15.8082 10.3882 15.2431 10.949 14.7039 11.4841C14.698 11.7008 14.9149 11.9056 14.6168 12.0199Z" fill="#393E3B"/>
<path d="M9.79199 18.2181C10.3135 18.2137 10.8351 18.21 11.3559 18.2056C11.3138 18.2527 11.2725 18.3397 11.2297 18.3412C10.8011 18.3515 10.3711 18.3522 9.94248 18.3426C9.89158 18.3412 9.84215 18.2616 9.79199 18.2181Z" fill="#CECC6F"/>
<path d="M11.5801 18.2166C12.0979 18.2158 12.6158 18.2151 13.1336 18.2144C13.0879 18.2586 13.0429 18.3411 12.9964 18.3419C12.57 18.3522 12.1437 18.3514 11.7173 18.3419C11.6708 18.3411 11.6258 18.26 11.5801 18.2166Z" fill="#CECC6F"/>
<path d="M13.3521 18.2124C13.8692 18.2124 14.3863 18.2124 14.9034 18.2117C14.8584 18.2566 14.8149 18.3399 14.7684 18.3414C14.3413 18.3517 13.9134 18.3517 13.4863 18.3414C13.4406 18.3406 13.3963 18.2581 13.3521 18.2124Z" fill="#CECC6F"/>
<path d="M16.8994 18.2048C17.4202 18.2093 17.941 18.2137 18.4618 18.2181C18.3991 18.2616 18.3379 18.3412 18.2745 18.3434C17.8702 18.3552 17.466 18.3544 17.0617 18.3427C17.0064 18.3412 16.9533 18.2527 16.8994 18.2048Z" fill="#CECC6F"/>
<path d="M15.126 18.2085C15.646 18.2107 16.1661 18.2137 16.6854 18.2159C16.6249 18.2601 16.5652 18.3412 16.5032 18.3426C16.1005 18.3544 15.6969 18.3544 15.2942 18.3426C15.2374 18.3412 15.182 18.2557 15.126 18.2085Z" fill="#CECC6F"/>
<path d="M15.0826 15.9886C15.0797 16.0196 15.0767 16.0505 15.0738 16.0808C15.0642 16.618 15.0546 17.156 15.0465 17.6933C15.0442 17.8385 15.0465 17.9844 14.9786 18.1318C14.9786 18.0272 14.9786 17.9218 14.9786 17.8171C14.9786 17.2408 14.9779 16.6645 14.9786 16.0881C14.9793 16.0225 14.9513 15.9216 15.0826 15.9886Z" fill="#FEEA00"/>
<path d="M13.1636 18.1982C13.1636 17.442 13.1636 16.6851 13.1636 15.929C13.2005 15.982 13.2691 16.0351 13.2698 16.0889C13.2772 16.7389 13.2772 17.3882 13.2698 18.0382C13.2691 18.0913 13.2012 18.1444 13.1636 18.1982Z" fill="#FEEA00"/>
<path d="M11.7354 11.0435C11.9862 11.0685 12.2377 11.0892 12.487 11.1231C12.5365 11.1297 12.5785 11.1857 12.6243 11.2196C12.4546 11.2144 12.282 11.2277 12.1175 11.1975C11.9847 11.1732 11.8622 11.0965 11.7354 11.0435Z" fill="#CECC6F"/>
<path d="M16.2246 14.7954C16.398 14.8006 16.5721 14.8057 16.7454 14.8109C16.5676 14.9575 16.3913 15.0342 16.2246 14.7954Z" fill="#CECC6F"/>
<path d="M13.9419 12.6677C13.9552 12.5048 13.9507 12.3294 14.1846 12.3206C14.1042 12.4355 14.023 12.552 13.9419 12.6677Z" fill="#393E3B"/>
<path d="M11.4136 10.751C11.4962 10.8269 11.5788 10.9035 11.6614 10.9794C11.5788 10.9035 11.4962 10.8269 11.4136 10.751Z" fill="#CECC6F"/>
<path d="M14.4688 12.1225C14.516 12.0886 14.5632 12.0554 14.6104 12.0215C14.5632 12.0554 14.516 12.0893 14.4688 12.1225Z" fill="#393E3B"/>
<path d="M16.7422 14.8132C16.7783 14.7874 16.8137 14.7609 16.8499 14.7351C16.8137 14.7609 16.7776 14.7874 16.7422 14.8132Z" fill="#CECC6F"/>
<path d="M11.6577 10.9763C11.6857 10.9992 11.7138 11.022 11.7425 11.0449C11.7138 11.022 11.6857 10.9992 11.6577 10.9763Z" fill="#CECC6F"/>
<path d="M16.6107 14.0828C16.714 14.2095 16.6557 14.3157 16.5458 14.3827C16.4868 14.4188 16.3806 14.4255 16.3171 14.3967C16.1873 14.3385 16.1659 14.2221 16.2308 14.0938C16.357 14.0901 16.4839 14.0864 16.6107 14.0828Z" fill="#FBCA01"/>
<path d="M16.6109 14.0825C16.484 14.0862 16.3578 14.0898 16.231 14.0935C16.4065 13.8945 16.4161 13.8945 16.6109 14.0825Z" fill="#CECC6F"/>
<path d="M10.8841 16.4972C10.8841 16.882 10.8841 17.2689 10.8841 17.6764C10.766 17.6764 10.662 17.6764 10.5248 17.6764C10.5248 17.445 10.5248 17.2291 10.5248 16.994C10.3987 17.0168 10.3079 17.033 10.1597 17.0596C10.1973 16.9306 10.198 16.8237 10.2519 16.7655C10.4304 16.5732 10.6856 16.4729 10.8841 16.4972Z" fill="#E6E6E6"/>
<path d="M11.8511 17.0951C11.8548 16.6868 11.9706 16.5151 12.2546 16.4694C12.5607 16.4208 12.7569 16.5461 12.8189 16.8512C12.8455 16.9809 12.8506 17.1202 12.8344 17.2514C12.7938 17.5874 12.6367 17.7245 12.3335 17.7135C12.037 17.7031 11.8931 17.5521 11.8599 17.2175C11.8555 17.1688 11.8525 17.1194 11.8511 17.0951ZM12.3416 17.4776C12.557 17.2005 12.5489 16.9256 12.3365 16.7244C12.1366 16.9661 12.1329 17.1622 12.3416 17.4776Z" fill="#EBEBEB"/>
<path d="M16.4074 17.0979C16.386 17.344 16.3794 17.5865 16.1049 17.6853C15.773 17.8047 15.4823 17.6344 15.4285 17.2836C15.4101 17.1642 15.4086 17.0389 15.4219 16.9188C15.4558 16.6056 15.6343 16.4508 15.9301 16.4604C16.2053 16.4692 16.3506 16.6166 16.3904 16.9284C16.3978 16.9888 16.4022 17.0492 16.4074 17.0979ZM15.8822 16.7205C15.6926 17.0131 15.711 17.2718 15.9338 17.4502C16.1345 17.1465 16.1175 16.9018 15.8822 16.7205Z" fill="#EBEBEB"/>
<path d="M18.1945 17.0692C18.1952 17.4841 18.0484 17.6868 17.7519 17.7148C17.4708 17.7413 17.2695 17.6043 17.2127 17.3294C17.1883 17.2107 17.1868 17.0847 17.1964 16.9631C17.2208 16.6336 17.3764 16.4722 17.6671 16.4575C17.9562 16.4428 18.1289 16.5975 18.1798 16.9196C18.1893 16.9808 18.1916 17.0427 18.1945 17.0692ZM17.6752 16.697C17.4856 16.9977 17.49 17.2107 17.6767 17.4569C17.8994 17.2439 17.9068 16.9874 17.6752 16.697Z" fill="#E6E6E6"/>
<path d="M14.6257 17.0832C14.6316 17.5512 14.4251 17.7708 14.0341 17.7111C13.998 17.7059 13.9611 17.7 13.9272 17.6875C13.6911 17.5998 13.593 17.3426 13.6365 16.9299C13.6675 16.6351 13.7922 16.4973 14.057 16.4626C14.4207 16.4154 14.6198 16.6336 14.6257 17.0832ZM14.1145 16.7235C13.9235 16.9962 13.9397 17.2726 14.1566 17.4399C14.324 17.1473 14.3107 16.921 14.1145 16.7235Z" fill="#E6E6E6"/>
<path d="M20.9582 14.0042C20.9641 14.0771 20.9744 14.1501 20.9744 14.2223C20.9737 14.3822 20.9139 14.5296 20.7531 14.5606C20.6233 14.5856 20.4691 14.5672 20.3467 14.5164C20.2301 14.4685 20.1416 14.3535 20.0427 14.2702C19.7764 14.3889 19.623 14.7581 19.263 14.5525C19.0299 14.4198 19.0786 14.2083 19.0956 14.0034C19.2092 13.9017 19.322 13.8 19.4312 13.7027C18.9628 13.0284 18.962 13.021 19.3375 12.7373C19.6791 12.6326 19.8052 12.9724 20.0339 13.0932C20.2544 12.934 20.3894 12.6422 20.7199 12.738C21.091 13.0276 21.091 13.0276 20.624 13.702C20.7325 13.8 20.8453 13.9017 20.9582 14.0042Z" fill="#050505"/>
<path d="M20.72 12.7378C20.3888 12.642 20.2538 12.9339 20.034 13.0931C19.806 12.9722 19.6791 12.6324 19.3376 12.7371C19.3398 12.7017 19.3273 12.6516 19.3457 12.6324C19.657 12.317 20.3969 12.3178 20.7097 12.6332C20.7296 12.6531 20.7178 12.7025 20.72 12.7378Z" fill="#EBEBEB"/>
<path d="M9.06252 14.0775C9.08465 14.2691 9.06694 14.4482 8.87883 14.555C8.52549 14.7555 8.36836 14.3833 8.1146 14.2743C7.866 14.3892 7.70813 14.7548 7.35479 14.5558C7.16373 14.4482 7.15414 14.2669 7.1711 14.0775C7.25225 13.9846 7.33339 13.8918 7.41454 13.7989C7.55248 13.7451 7.57019 13.6544 7.47429 13.5527C7.39388 13.4665 7.29725 13.3965 7.20725 13.3191C7.04275 13.0324 7.27733 12.8754 7.41306 12.6868C7.71773 12.7045 7.91837 12.9108 8.11976 13.0995C8.51589 12.7487 8.5159 12.7487 8.76597 12.7302C9.19235 12.9934 9.18792 13.0884 8.70327 13.6515C8.82056 13.79 8.94154 13.9338 9.06252 14.0775Z" fill="#030303"/>
<path d="M8.7655 12.7304C8.51469 12.7488 8.51469 12.7488 8.11929 13.0996C7.91791 12.911 7.71726 12.7046 7.4126 12.6869C7.76521 12.3508 8.31109 12.2897 8.68583 12.555C8.73157 12.5867 8.74042 12.67 8.7655 12.7304Z" fill="#EBEBEB"/>
<path d="M7.20676 13.3191C7.29602 13.3965 7.39339 13.4672 7.4738 13.5527C7.56896 13.6552 7.55199 13.7458 7.41405 13.7989C7.34397 13.6389 7.07619 13.5645 7.20676 13.3191Z" fill="#393E3B"/>
<path d="M12.3409 17.4773C12.1321 17.1619 12.1358 16.9659 12.3357 16.7241C12.5482 16.9246 12.5563 17.2002 12.3409 17.4773Z" fill="#242424"/>
<path d="M15.8824 16.7205C16.1177 16.9018 16.1347 17.1464 15.934 17.4501C15.7112 17.2717 15.6928 17.0138 15.8824 16.7205Z" fill="#242424"/>
<path d="M17.6755 16.6973C17.9064 16.9876 17.8998 17.2441 17.677 17.4571C17.4904 17.2109 17.4859 16.998 17.6755 16.6973Z" fill="#242424"/>
<path d="M14.1147 16.7234C14.3109 16.9209 14.3242 17.1472 14.1567 17.4397C13.9398 17.2717 13.9236 16.9961 14.1147 16.7234Z" fill="#0F0D0A"/>
</svg>
