<svg width="237" height="78" viewBox="0 0 237 78" fill="none" xmlns="http://www.w3.org/2000/svg">
<path d="M5.27597 41V5.58336H1.00108V1.38964H14.7998V5.58336H10.579V41H5.27597ZM25.4318 36.184V26.8225H30.7619V37.0227C30.7619 37.2031 30.843 37.3745 31.0054 37.5368C31.1677 37.6991 31.3481 37.7803 31.5465 37.7803H32.8723C33.0526 37.7803 33.206 37.7172 33.3322 37.5909C33.4585 37.4646 33.5397 37.3294 33.5757 37.1851V25.8756C33.5757 25.2984 33.3593 24.8745 32.9264 24.6039L28.2186 21.276C26.3607 20.1577 25.4318 18.399 25.4318 16V7.53141C25.4318 5.72766 25.9819 4.25761 27.0822 3.12124C28.1825 1.96684 29.5714 1.38964 31.2489 1.38964H33.4134C34.9827 1.38964 36.2994 1.86764 37.3636 2.82362C38.4278 3.76158 38.9599 4.87088 38.9599 6.15154V15.3507H33.5757V5.3128C33.5757 5.11439 33.4946 4.93401 33.3322 4.77168C33.1699 4.60934 32.9985 4.52817 32.8182 4.52817H31.6006C31.4022 4.52817 31.2218 4.60934 31.0595 4.77168C30.8972 4.91598 30.798 5.07831 30.7619 5.25869V16C30.7619 16.6133 31.0234 17.0642 31.5465 17.3528L36.092 20.4372C37.0119 21.0505 37.7153 21.772 38.2023 22.6017C38.7074 23.4315 38.9599 24.5047 38.9599 25.8214V34.9123C38.9599 36.68 38.4098 38.132 37.3095 39.2684C36.2092 40.3867 34.8203 40.9459 33.1428 40.9459H30.9783C29.391 40.9459 28.0653 40.4769 27.0011 39.539C25.9549 38.583 25.4318 37.4646 25.4318 36.184ZM49.9707 41V1.38964H55.3549V41H49.9707ZM66.3928 41V1.38964H71.7229L76.0519 24.7121V1.38964H81.3549V41H76.0519L71.7229 17.7857V41H66.3928ZM92.501 41V1.38964H102.052C103.062 1.38964 103.964 1.8496 104.757 2.76951C105.569 3.67139 105.975 4.72658 105.975 5.93509V36.4545C105.975 37.6811 105.569 38.7453 104.757 39.6472C103.964 40.5491 103.026 41 101.944 41H92.501ZM97.8311 37.8885H99.8332C100.014 37.8885 100.194 37.8074 100.374 37.645C100.555 37.4646 100.645 37.2933 100.645 37.131V5.25869C100.645 5.09635 100.555 4.92499 100.374 4.74462C100.194 4.56424 100.014 4.47406 99.8332 4.47406H97.8311V37.8885ZM117.094 41V1.38964H128.782V5.58336H122.424V17.3528H127.7V21.5466H122.424V36.7792H128.782V41H117.094ZM139.739 41V1.38964H145.069V36.7792H151.427V41H139.739ZM161.789 41V1.38964H167.173V41H161.789ZM177.453 41L181.809 1.38964H188.682L193.065 41H188.032L187.41 34.2359H183.108L182.54 41H177.453ZM183.433 30.0963H187.085L185.381 9.75003H185.137L183.433 30.0963ZM203.399 41V1.38964H208.729L213.058 24.7121V1.38964H218.361V41H213.058L208.729 17.7857V41H203.399ZM229.399 41V1.38964H234.783V41H229.399Z" fill="white"/>
<path d="M86.2711 70.2107V50.4055H92.1153V52.5024H88.9361V58.3871H91.5741V60.484H88.9361V70.2107H86.2711ZM96.1055 70.2107L98.2835 50.4055H101.72L103.911 70.2107H101.395L101.084 66.8287H98.9329L98.6488 70.2107H96.1055ZM99.0952 64.7589H100.922L100.069 54.5857H99.9475L99.0952 64.7589ZM109.078 70.2107V50.4055H112.46L114.287 61.9856L116.127 50.4055H119.468V70.2107H116.817V58.4412H116.735L116.005 62.4591L115.288 70.2107H113.272L112.542 62.3644L111.825 58.4142H111.743V70.2107H109.078ZM124.973 70.2107V50.4055H127.666V70.2107H124.973ZM133.184 70.2107V50.4055H135.85V68.1003H139.029V70.2107H133.184ZM144.98 70.2107V62.4591L142.126 50.4055H144.669L145.752 55.9385L146.252 59.6317H146.36L146.915 55.9385L147.97 50.4055H150.541L147.632 62.4591V70.2107H144.98Z" fill="white"/>
</svg>
