<svg width="131" height="104" viewBox="0 0 131 104" fill="none" xmlns="http://www.w3.org/2000/svg">
<path d="M66.19 87.5559C64.8208 87.5126 63.714 86.9404 62.7601 85.9828C59.5698 82.7773 56.3613 79.5877 53.1619 76.3913C43.5637 66.8021 33.9655 57.2105 24.3674 47.619C24.0707 47.3226 23.7672 47.0331 23.5025 46.7116C22.0602 44.9743 22.058 42.5896 23.4979 40.8523C23.7398 40.5605 24.0114 40.2937 24.2806 40.0247C36.9984 27.3188 49.7161 14.613 62.436 1.90714C62.7578 1.58567 63.0773 1.25508 63.4356 0.974658C65.0969 -0.322602 67.3698 -0.324882 69.0356 0.967819C69.3643 1.22317 69.6586 1.52411 69.9553 1.8205C82.7278 14.5788 95.4957 27.3439 108.28 40.0908C109.747 41.5545 110.514 43.2029 109.781 45.216C109.482 46.0345 108.891 46.8097 108.264 47.4389C100.947 54.7961 93.5993 62.1214 86.2581 69.4559C80.7721 74.9367 75.2815 80.4085 69.807 85.8985C68.7938 86.913 67.6436 87.5491 66.19 87.5559ZM66.6875 0.748949C64.8938 0.771748 63.9148 1.48535 62.9974 2.40415C50.2615 15.1465 37.5118 27.8751 24.7667 40.6084C24.6047 40.7702 24.4404 40.9275 24.2875 41.0963C22.8042 42.7264 22.7973 44.817 24.2692 46.438C24.4723 46.6638 24.6937 46.8735 24.9082 47.0901C30.4741 52.6508 36.0422 58.2091 41.608 63.7698C48.7348 70.8876 55.8547 78.0123 62.9929 85.1187C63.5223 85.6454 64.1202 86.1857 64.7911 86.4753C66.4958 87.214 67.9585 86.6668 69.2319 85.39C73.7138 80.8941 78.2094 76.4141 82.7004 71.9273C91.0092 63.6262 99.3249 55.3319 107.616 47.0149C108.193 46.4358 108.759 45.7518 109.049 45.0063C109.704 43.3214 109.046 41.9307 107.814 40.7018C94.9777 27.8979 82.155 15.0804 69.3277 2.26736C69.0859 2.02569 68.8599 1.73614 68.5656 1.58795C67.8353 1.22089 67.0731 0.917661 66.6875 0.748949Z" fill="#242424"/>
<path d="M122.572 103.344C118.33 103.422 114.199 100.488 114.268 94.8221C114.332 89.4164 119.222 86.6965 122.837 86.8265C127.366 86.9883 131.052 90.5541 130.999 95.1481C130.938 100.38 126.835 103.511 122.572 103.344ZM122.592 98.5109C124.313 98.8666 126.123 96.8375 126.068 95.1481C126.015 93.5909 124.815 91.7647 122.574 91.7214C120.753 91.6872 119.277 93.3037 119.16 95.1207C119.046 96.8899 120.915 98.8552 122.592 98.5109Z" fill="white"/>
<path d="M51.8131 103.347C47.5914 103.465 43.3377 100.533 43.3993 94.6558C43.4426 90.5953 47.2125 86.9748 51.3567 86.8312C56.0577 86.6693 60.09 90.2419 60.1105 95.1141C60.1311 99.7331 56.3475 103.502 51.8131 103.347ZM51.6876 98.5111C53.7551 98.5157 55.1859 97.1956 55.2384 95.2372C55.2886 93.3038 53.7277 91.7786 51.7081 91.7877C49.7273 91.7968 48.2623 93.2719 48.2965 95.219C48.333 97.1819 49.6977 98.5066 51.6876 98.5111Z" fill="white"/>
<path d="M72.3857 103.289C72.3857 99.6621 72.3857 96.1488 72.3857 92.5876C71.8951 92.5625 71.4912 92.542 71.037 92.5169C71.4866 90.8503 71.9248 89.2362 72.3675 87.5969C73.9763 87.5969 75.5189 87.5969 77.1415 87.5969C77.1415 88.404 77.1415 89.186 77.1415 89.9703C77.2168 89.9862 77.2944 90.0022 77.3697 90.0182C77.591 89.2749 77.8101 88.534 78.0543 87.7132C80.3363 87.7109 82.2623 88.5089 83.7958 90.2553C86.4772 93.3081 86.3015 98.9257 82.794 101.673C81.2833 102.856 79.5148 103.205 77.68 103.276C75.9708 103.34 74.2615 103.289 72.3857 103.289ZM77.2259 99.1606C79.5809 99.1742 81.3449 97.519 81.3039 95.4192C81.2628 93.3742 79.3071 91.5776 77.2259 91.7281C77.2259 94.1744 77.2259 96.623 77.2259 99.1606Z" fill="white"/>
<path d="M3.23362 92.6494C2.85481 92.6084 2.52392 92.5719 2.02415 92.5195C2.44405 90.9236 2.85481 89.3641 3.25873 87.8252C5.58639 87.8252 7.78169 87.8252 9.96787 87.8252C11.4329 93.0598 12.882 98.242 14.3448 103.47C12.7748 103.47 11.2344 103.47 9.63241 103.47C9.4567 102.809 9.28555 102.175 9.10983 101.514C7.77256 101.514 6.48779 101.514 5.1528 101.514C4.94971 102.173 4.7466 102.831 4.54807 103.47C3.0214 103.47 1.58372 103.47 0 103.47C1.09081 99.8243 2.15423 96.2608 3.23362 92.6494ZM8.04869 97.036C7.72236 95.8367 7.43254 94.7652 7.14045 93.6914C7.07655 93.705 7.01037 93.7187 6.94647 93.7324C6.68861 94.8062 6.43302 95.8823 6.15689 97.036C6.81412 97.036 7.36408 97.036 8.04869 97.036Z" fill="white"/>
<path d="M93.0883 97.1683C93.0883 97.6334 93.0883 97.9868 93.0883 98.4313C94.9687 98.4313 96.7783 98.4313 98.7523 98.4313C98.3735 100.032 98.022 101.507 97.6638 103.016C94.5283 103.016 91.4179 103.016 88.1956 103.016C88.1956 99.4368 88.1956 95.8505 88.1956 92.1821C87.7689 92.1548 87.4449 92.1365 87.0478 92.1115C87.4426 90.5064 87.826 88.9538 88.2322 87.3009C89.8364 87.3009 91.4635 87.3146 93.0906 87.2918C93.547 87.2849 94.0787 87.4947 94.4142 86.9384C94.4644 86.854 94.6948 86.8563 94.8409 86.8563C96.0914 86.8495 97.342 86.854 98.7523 86.854C98.451 88.206 98.1726 89.4645 97.8897 90.723C97.8486 90.9054 97.7254 91.0878 97.7368 91.2633C97.787 92.0932 97.2941 92.1707 96.6414 92.1548C95.5027 92.1251 94.3617 92.1457 93.118 92.1457C93.118 92.5629 93.118 92.9436 93.118 93.4361C94.8979 93.4361 96.63 93.4361 98.4282 93.4361C98.1726 94.5373 97.9011 95.5108 97.7322 96.5003C97.6386 97.052 97.3625 97.1751 96.8856 97.1728C95.6693 97.1614 94.453 97.1683 93.0883 97.1683Z" fill="white"/>
<path d="M14.493 87.5879C16.2183 87.5879 17.8453 87.5879 19.5432 87.5879C20.2118 90.0114 20.8736 92.4144 21.5376 94.8174C21.5924 94.822 21.6472 94.8243 21.702 94.8288C22.3615 92.4395 23.021 90.0502 23.6942 87.6084C25.3783 87.6084 27.0373 87.6084 28.742 87.6084C26.9666 92.7929 25.1934 97.9751 23.3975 103.223C22.2245 103.223 21.0698 103.223 19.8489 103.223C18.069 98.0298 16.2913 92.8408 14.493 87.5879Z" fill="white"/>
<path d="M43.0344 87.3117C42.5757 89.1128 42.1444 90.7976 41.6903 92.5828C40.5287 92.5828 39.4083 92.5828 38.2056 92.5828C38.2056 96.2489 38.2056 99.7987 38.2056 103.433C36.5923 103.433 35.0564 103.433 33.3837 103.433C33.3837 99.899 33.3837 96.3218 33.3837 92.6535C32.0487 92.6535 30.8461 92.6535 29.5317 92.6535C29.9333 90.9641 30.3053 89.391 30.6955 87.7585C32.9091 87.7585 35.0701 87.7768 37.2289 87.7426C37.6922 87.7357 38.1509 87.5351 38.6118 87.4211C38.7556 87.3869 38.8994 87.3162 39.0431 87.3162C40.3279 87.3071 41.6127 87.3117 43.0344 87.3117Z" fill="white"/>
<path d="M102.794 87.3511C104.378 87.3511 105.886 87.3511 107.513 87.3511C107.513 90.9533 107.513 94.535 107.513 98.2285C108.75 98.2285 109.873 98.2285 111.048 98.2285C111.475 99.87 111.874 101.42 112.292 103.025C109.124 103.025 105.991 103.025 102.794 103.025C102.794 97.8272 102.794 92.645 102.794 87.3511Z" fill="white"/>
<path d="M66.6875 0.749023C67.0709 0.917736 67.8354 1.21868 68.5633 1.5903C68.8577 1.7385 69.0836 2.02804 69.3255 2.26971C82.1528 15.0827 94.9754 27.898 107.812 40.7042C109.044 41.9331 109.701 43.3238 109.046 45.0086C108.757 45.7542 108.191 46.4404 107.613 47.0172C99.3204 55.3343 91.007 63.6286 82.6982 71.9296C78.2071 76.4165 73.7116 80.8965 69.2297 85.3924C67.9586 86.6692 66.4935 87.2141 64.7889 86.4777C64.1179 86.1881 63.5201 85.6478 62.9906 85.1211C55.8525 78.0147 48.7326 70.8923 41.6058 63.7722C36.04 58.2115 30.4718 52.6531 24.906 47.0925C24.6915 46.8782 24.4724 46.6661 24.267 46.4404C22.7951 44.8194 22.8019 42.7287 24.2853 41.0986C24.4382 40.9299 24.6025 40.7703 24.7645 40.6107C37.5119 27.8752 50.2615 15.1466 62.9975 2.40423C63.9171 1.48543 64.8961 0.771822 66.6875 0.749023ZM66.3201 71.7974C67.671 71.7587 68.8006 71.2366 69.7614 70.2722C77.4198 62.6094 85.0943 54.9604 92.7482 47.2931C94.8066 45.2321 94.7952 42.5919 92.7733 40.5172C91.792 39.5095 90.7856 38.5269 89.7907 37.5329C83.1203 30.871 76.4568 24.2023 69.7774 17.5473C67.7395 15.5182 65.0604 15.4384 63.0796 17.4082C55.3162 25.1279 47.5756 32.8705 39.8532 40.6312C39.3375 41.1511 38.9153 41.851 38.6825 42.5463C38.0481 44.4364 38.6757 46.0277 40.054 47.4025C45.9234 53.2527 51.7813 59.1143 57.6438 64.9714C59.4193 66.7452 61.2038 68.5098 62.9655 70.2927C63.8943 71.2297 64.9988 71.7313 66.3201 71.7974Z" fill="#FDFDFD"/>
<path d="M66.32 71.7969C64.9987 71.7308 63.8942 71.2292 62.9677 70.2922C61.2037 68.507 59.4192 66.7447 57.646 64.9709C51.7835 59.1139 45.9256 53.2523 40.0562 47.4021C38.6779 46.0273 38.0503 44.4359 38.6847 42.5459C38.9175 41.8505 39.3396 41.1506 39.8554 40.6308C47.5777 32.87 55.3184 25.1275 63.0818 17.4077C65.0626 15.4379 67.7417 15.5177 69.7795 17.5468C76.459 24.1996 83.1225 30.8683 89.7929 37.5324C90.7878 38.5264 91.7919 39.5113 92.7755 40.5168C94.7996 42.5915 94.8087 45.2316 92.7504 47.2926C85.0965 54.9599 77.422 62.609 69.7636 70.2717C68.7983 71.2338 67.6709 71.7582 66.32 71.7969ZM66.4067 71.0833C67.5089 71.0241 68.4674 70.5658 69.2866 69.7473C76.9154 62.1142 84.5579 54.4948 92.1821 46.8594C94.042 44.9968 94.0443 42.7967 92.1844 40.9363C84.5602 33.3009 76.9268 25.6724 69.2821 18.0552C67.4678 16.2473 65.2474 16.245 63.4332 18.053C55.7611 25.6952 48.1003 33.3511 40.4578 41.0229C39.9923 41.4903 39.5975 42.1081 39.3784 42.7306C38.7942 44.3903 39.4035 45.756 40.6016 46.9484C45.152 51.4785 49.6886 56.0246 54.2321 60.5616C57.2695 63.5962 60.316 66.6216 63.342 69.6698C64.184 70.5156 65.1516 71.0309 66.4067 71.0833Z" fill="#0F0D0A"/>
<path d="M66.4068 71.0839C65.1517 71.0315 64.1841 70.5185 63.3421 69.6704C60.3161 66.6245 57.2696 63.5967 54.2322 60.5622C49.6887 56.0229 45.1521 51.4791 40.6017 46.949C39.4037 45.7566 38.7944 44.3909 39.3786 42.7311C39.5976 42.1087 39.9902 41.4909 40.458 41.0235C48.1005 33.3517 55.7612 25.6958 63.4334 18.0536C65.2476 16.2456 67.468 16.2479 69.2822 18.0558C76.927 25.673 84.5603 33.3015 92.1845 40.9369C94.0444 42.7995 94.0421 44.9974 92.1823 46.86C84.5558 54.4954 76.9155 62.1148 69.2867 69.7479C68.4675 70.5664 67.5091 71.0246 66.4068 71.0839ZM58.4814 33.9558C58.5681 34.0265 58.6548 34.0972 58.7438 34.1679L58.7233 34.1633C59.1158 34.3275 59.4946 34.5668 59.9054 34.6398C60.4142 34.7333 60.9505 34.69 61.4731 34.7082C62.2034 35.4036 62.9336 36.0989 63.8053 36.9265C64.515 35.9827 65.138 35.1551 65.8911 34.1565C65.4073 33.7484 64.9555 33.3425 64.4785 32.9664C63.8738 32.4876 63.5999 31.9336 63.6661 31.1105C63.7528 30.0207 63.2052 29.1339 62.3608 28.4613C61.4526 27.7408 60.3047 27.6337 59.4512 28.1809C60.1632 28.8967 60.8684 29.6081 61.4754 30.2191C60.7794 30.9304 60.2043 31.5186 59.5767 32.157C58.8739 31.4662 58.1391 30.7435 57.3175 29.9341C56.8543 31.2678 57.1555 32.2801 57.7306 33.2536C57.9862 33.4884 58.2418 33.7256 58.4973 33.9604C58.4928 33.9649 58.4814 33.9558 58.4814 33.9558ZM74.2113 45.825C74.3232 45.7452 74.4327 45.6631 74.5445 45.5833C75.471 44.2564 75.4414 43.9053 74.3026 42.7699C73.3122 41.7804 72.3195 40.7932 71.3269 39.806C70.4506 38.9328 69.572 38.0596 68.6774 37.1728C67.8628 37.9958 66.6716 38.1964 66.1672 39.4344C68.2986 41.5319 70.4551 43.6522 72.6094 45.7725C73.1251 46.5112 73.6705 46.2741 74.2205 45.8204C74.2205 45.8158 74.2113 45.825 74.2113 45.825ZM67.6163 37.1887L67.6368 37.1842C68.5588 36.8308 67.8879 36.197 67.9061 35.529C69.5743 33.8738 71.3223 32.1388 73.0726 30.4083C73.1799 30.3034 73.3077 30.1598 73.4355 30.1484C74.2889 30.064 74.5605 29.3185 74.9986 28.7805C75.4026 28.2834 75.1356 27.9757 74.6175 27.7636C73.8805 28.3313 73.2164 28.8625 72.7098 29.6742C72.1598 30.5542 71.2858 31.2359 70.5236 31.9746C69.4123 33.053 68.2758 34.104 67.1485 35.1665C66.222 34.7128 66.0303 34.7128 65.5899 35.4902C65.0878 36.3794 64.458 37.0884 63.5132 37.5079C63.3124 37.5968 63.1481 37.7724 62.977 37.916C62.1965 38.5658 61.4549 39.2657 60.6333 39.8608C59.2595 40.8548 58.1277 42.0586 57.2559 43.5017C56.7699 44.3043 56.8703 44.9768 57.4545 45.5582C58.0364 46.1373 58.7096 46.2125 59.5197 45.6927C60.8364 44.8492 61.998 43.8346 62.9427 42.567C63.6159 41.6642 64.3918 40.8388 65.1038 39.9634C65.2886 39.7354 65.405 39.4527 65.5511 39.1927C65.8021 38.8348 66.0531 38.4769 66.3019 38.1189C66.594 37.916 66.8861 37.7108 67.1782 37.5079C67.3242 37.3985 67.4703 37.2936 67.6163 37.1887ZM51.9183 41.7075C51.5851 39.1449 49.7732 37.6971 47.0735 37.8385C44.8988 37.9525 43.2261 39.6989 43.1553 41.9286C43.1051 42.0289 43.007 42.1293 43.0116 42.2273C43.1667 45.2709 45.4556 47.0743 48.2579 46.6982C50.4213 46.4086 52.4568 44.1515 51.9183 41.7075ZM88.7935 41.9651C88.903 39.9497 86.8515 37.7975 84.4348 37.7883C81.8881 37.7769 79.8844 39.8653 79.9529 41.9605C79.6289 44.7055 82.2258 46.7688 84.3686 46.7802C86.5548 46.7894 89.1426 44.6143 88.7935 41.9651ZM63.7232 56.3398C63.8624 56.4789 63.997 56.7365 64.1385 56.7388C65.4598 56.7707 66.7834 56.7707 68.1047 56.7388C68.2461 56.7365 68.3831 56.4766 68.5223 56.3376C68.5223 53.9756 68.5223 51.6113 68.5223 49.2722C66.8473 49.2722 65.3092 49.2722 63.7232 49.2722C63.7232 51.6706 63.7232 54.0052 63.7232 56.3398ZM79.5307 56.3581C79.5695 54.2879 79.6129 52.2178 79.6448 50.1476C79.6494 49.8581 79.6015 49.5686 79.5764 49.2699C77.9219 49.2699 76.3473 49.2699 74.6951 49.2699C74.6951 51.6592 74.6951 53.987 74.6951 56.317C74.8617 56.4652 75.026 56.7365 75.1972 56.7411C76.4477 56.7776 77.6983 56.7776 78.9488 56.7434C79.1474 56.7388 79.3391 56.4926 79.5307 56.3581ZM69.0768 49.4614C68.6729 49.2539 68.7573 49.5663 68.7573 49.7692C68.755 51.5521 68.7573 53.3349 68.7573 55.1178C68.7573 55.4416 68.7573 55.7676 68.7573 56.0913C68.965 55.6354 68.9604 55.1862 68.9673 54.7348C68.9924 53.0728 69.0243 51.4084 69.0517 49.7464C69.0814 50.159 69.1316 50.5717 69.1384 50.9844C69.1704 52.765 69.1886 54.5478 69.2137 56.3284C69.3871 56.4743 69.556 56.7388 69.734 56.7434C70.98 56.7799 72.2283 56.7799 73.4743 56.7434C73.6659 56.7388 73.8508 56.488 74.0379 56.3512C74.0767 56.1688 74.1497 55.9865 74.152 55.8041C74.1611 53.7613 74.1634 51.7208 74.1543 49.678C74.1543 49.5412 74.0699 49.4044 74.006 49.2129C72.5112 49.2129 71.0393 49.206 69.5674 49.2243C69.4031 49.2288 69.2411 49.3793 69.0768 49.4614ZM63.1413 56.2965C63.2554 56.1324 63.4676 55.9682 63.4699 55.7995C63.4927 53.7886 63.4927 51.78 63.4699 49.7692C63.4676 49.6027 63.2554 49.4409 63.1413 49.2744C61.4959 49.2744 59.8483 49.2744 58.0957 49.2744C58.0957 51.1348 58.0843 52.904 58.1026 54.6755C58.1071 55.2364 58.1916 55.7949 58.2418 56.3535C58.3832 56.488 58.5224 56.7388 58.6662 56.7434C59.9852 56.773 61.3042 56.773 62.6232 56.7434C62.767 56.7411 62.9062 56.4858 63.0477 56.349L63.0797 56.2965H63.1413ZM57.5503 56.3193C57.5503 53.987 57.5503 51.6569 57.5503 49.2927C55.873 49.2927 54.2779 49.2927 52.5983 49.2927C52.5983 50.6127 52.5846 51.853 52.6029 53.0933C52.6189 54.1808 52.6736 55.2683 52.7124 56.3581C52.8676 56.4926 53.0205 56.7365 53.178 56.7411C54.5061 56.7707 55.8342 56.7707 57.1601 56.7365C57.2924 56.7343 57.418 56.4652 57.5503 56.3193Z" fill="#FBCA01"/>
<path d="M65.549 39.1882C65.4006 39.4458 65.2865 39.7308 65.1017 39.9588C64.3897 40.8343 63.6138 41.6596 62.9406 42.5624C61.9958 43.8323 60.8343 44.8446 59.5176 45.6882C58.7097 46.208 58.0365 46.1327 57.4523 45.5536C56.8681 44.9723 56.77 44.2997 57.2538 43.4972C58.1255 42.0563 59.2574 40.8525 60.6312 39.8562C61.4504 39.2611 62.1944 38.5612 62.9748 37.9114C63.1483 37.7678 63.3126 37.5923 63.5111 37.5033C64.4559 37.0838 65.0857 36.3748 65.5877 35.4856C66.0282 34.7082 66.2176 34.7082 67.1464 35.1619C67.5206 35.7843 67.6895 36.4569 67.6347 37.1819L67.6142 37.1864C67.4681 37.2913 67.3221 37.3939 67.176 37.4988C66.8839 37.7017 66.5918 37.9069 66.2997 38.1098C65.5763 38.1394 65.59 38.6843 65.549 39.1882Z" fill="#333733"/>
<path d="M57.7259 33.2579C57.1486 32.2844 56.8496 31.2698 57.3129 29.9383C58.1367 30.7477 58.8692 31.4704 59.5721 32.1612C60.1997 31.5206 60.7747 30.9347 61.4707 30.2233C60.8637 29.6123 60.1586 28.901 59.4466 28.1851C60.3001 27.6379 61.4502 27.7451 62.3562 28.4655C63.2028 29.1381 63.7482 30.025 63.6615 31.1148C63.5953 31.9355 63.8691 32.4895 64.4739 32.9706C64.9485 33.3468 65.4027 33.7526 65.8865 34.1607C65.1357 35.1593 64.5127 35.9869 63.8007 36.9308C62.9312 36.1032 62.201 35.4078 61.4685 34.7124C61.327 34.6099 61.1969 34.4343 61.044 34.4138C60.2727 34.3089 59.4945 34.2451 58.7186 34.1676L58.7392 34.1721C58.6524 34.1014 58.5657 34.0308 58.4767 33.9601L58.4881 33.9692C58.2371 33.7298 57.9815 33.4927 57.7259 33.2579Z" fill="#343833"/>
<path d="M72.6094 45.7697C70.4552 43.6494 68.2987 41.5291 66.1673 39.4316C66.6716 38.1936 67.8628 37.993 68.6775 37.1699C69.5698 38.0568 70.4484 38.93 71.3269 39.8032C72.3196 40.7904 73.31 41.7799 74.3027 42.7671C75.4414 43.9025 75.4711 44.2536 74.5446 45.5805C74.4328 45.6603 74.3232 45.7423 74.2114 45.8221L74.2228 45.813C73.6843 45.7993 73.148 45.7856 72.6094 45.7697ZM72.63 43.5992C72.4292 43.9959 72.4953 44.3562 72.897 44.5363C73.0909 44.6252 73.4196 44.6024 73.6044 44.4929C73.9467 44.2855 74.127 43.9572 73.8052 43.565C73.2028 42.9837 73.1731 42.9837 72.63 43.5992Z" fill="#313633"/>
<path d="M52.7102 56.3579C52.6714 55.2704 52.6189 54.1829 52.6007 53.0931C52.5824 51.8528 52.5961 50.6125 52.5961 49.2925C54.2757 49.2925 55.8708 49.2925 57.5481 49.2925C57.5481 51.6567 57.5481 53.9891 57.5481 56.3191C55.937 56.3328 54.3236 56.3442 52.7102 56.3579ZM56.0899 51.0343C55.4783 50.9591 54.6864 51.2691 54.1319 51.8642C53.9653 52.042 53.9653 52.3749 53.8467 52.7739C54.3076 52.6918 54.586 52.6416 54.9763 52.571C54.9763 53.2983 54.9763 53.9685 54.9763 54.6821C55.4007 54.6821 55.7225 54.6821 56.0876 54.6821C56.0899 53.4214 56.0899 52.2244 56.0899 51.0343Z" fill="#0A0804"/>
<path d="M58.2417 56.3535C58.1938 55.7949 58.1093 55.2363 58.1025 54.6755C58.0842 52.9063 58.0956 51.1348 58.0956 49.2744C59.8482 49.2744 61.4936 49.2744 63.1412 49.2744C63.1412 51.6136 63.1412 53.955 63.1412 56.2942H63.0796L63.0476 56.3467C61.4456 56.3489 59.8437 56.3512 58.2417 56.3535ZM59.0792 52.8835C59.0837 52.9587 59.0929 53.1115 59.1088 53.262C59.2138 54.2993 59.6588 54.7644 60.5739 54.7963C61.5118 54.8305 61.9979 54.4065 62.1234 53.3668C62.1713 52.961 62.1576 52.5301 62.0755 52.1288C61.8838 51.185 61.2745 50.7974 60.3297 50.9479C59.4466 51.0892 59.0906 51.6204 59.0792 52.8835Z" fill="#0E0C06"/>
<path d="M69.2116 56.3282C69.1888 54.5476 69.1682 52.7648 69.1363 50.9842C69.1294 50.5715 69.0792 50.1588 69.0496 49.7462C69.0587 49.6504 69.0678 49.5547 69.077 49.4612C69.2413 49.3791 69.4033 49.2264 69.5676 49.2241C71.0395 49.2058 72.5114 49.2127 74.0061 49.2127C74.07 49.4065 74.1544 49.541 74.1544 49.6778C74.1613 51.7206 74.1613 53.7611 74.1522 55.8039C74.1522 55.9863 74.0791 56.1686 74.0381 56.351C72.4292 56.3442 70.8204 56.3374 69.2116 56.3282ZM73.1755 52.8924C73.1595 52.742 73.1458 52.5527 73.123 52.3658C72.9997 51.3991 72.5525 50.9454 71.699 50.918C70.7839 50.8884 70.2316 51.3672 70.1267 52.3361C70.0856 52.7078 70.0902 53.0953 70.1472 53.4647C70.3138 54.5522 71.2129 55.0766 72.2398 54.7072C73.0887 54.404 73.1093 53.6562 73.1755 52.8924Z" fill="#0E0C06"/>
<path d="M74.6976 56.3167C74.6976 53.9866 74.6976 51.6566 74.6976 49.2695C76.3498 49.2695 77.9221 49.2695 79.5788 49.2695C79.6039 49.5682 79.6518 49.8577 79.6473 50.1473C79.6153 52.2174 79.572 54.2876 79.5332 56.3577C77.9198 56.344 76.3087 56.3304 74.6976 56.3167ZM78.7048 52.8034C78.698 52.719 78.6911 52.5298 78.6614 52.3428C78.5017 51.3465 77.97 50.8677 77.0754 50.9133C76.1763 50.9589 75.6948 51.4582 75.6195 52.4773C75.5921 52.8512 75.5967 53.2434 75.6697 53.6105C75.8431 54.4631 76.4684 54.8872 77.3379 54.8028C78.2507 54.7139 78.7048 54.0869 78.7048 52.8034Z" fill="#0C0A05"/>
<path d="M63.7233 56.3396C63.7233 54.005 63.7233 51.6681 63.7233 49.272C65.3093 49.272 66.8474 49.272 68.5224 49.272C68.5224 51.6111 68.5224 53.9731 68.5224 56.3374C66.9227 56.3396 65.323 56.3396 63.7233 56.3396ZM67.6643 52.8468C67.6483 51.4538 67.0299 50.7813 65.9049 50.9272C65.0856 51.0343 64.7 51.4607 64.6041 52.3726C64.4695 53.6494 64.773 54.4451 65.5032 54.7164C65.6082 54.7551 65.7223 54.7711 65.8341 54.7893C67.0436 54.974 67.6826 54.2946 67.6643 52.8468Z" fill="#070606"/>
<path d="M79.9551 41.9606C79.8866 39.8654 81.8902 37.777 84.437 37.7884C86.8536 37.7998 88.9052 39.9497 88.7956 41.9651C88.305 42.4439 88.2479 43.4152 87.253 43.3217C86.9038 43.0071 86.5547 42.6902 86.2215 42.3869C87.6637 40.3008 87.6637 40.3008 86.5182 39.4048C86.5113 39.2954 86.5478 39.1404 86.4885 39.0811C85.5209 38.1053 83.2298 38.103 82.269 39.0788C82.212 39.1381 82.2508 39.2931 82.2439 39.4025C81.0824 40.2803 81.0847 40.3031 82.5338 42.3892C82.196 42.6924 81.8469 43.0071 81.4954 43.3194C80.4913 43.4174 80.4526 42.4302 79.9551 41.9606Z" fill="#81807D"/>
<path d="M43.1576 41.9285C43.2283 39.6987 44.9011 37.9523 47.0758 37.8383C49.7732 37.697 51.5874 39.1447 51.9206 41.7073C51.7015 42.5349 51.1835 43.1254 50.4555 43.5495C50.0812 43.1049 49.7047 42.658 49.3442 42.2294C50.8434 40.4876 50.8571 40.1912 49.5381 39.3795C49.4583 39.1949 49.4309 38.9372 49.2917 38.8369C48.1324 38.0162 46.4437 38.2031 45.3529 39.245C44.933 39.831 44.2073 40.3143 44.7162 41.2012C44.3123 41.9627 45.1407 42.1929 45.3552 42.6854C45.1042 42.9727 44.8531 43.2599 44.6021 43.5472C44.1206 43.0114 43.6391 42.4688 43.1576 41.9285Z" fill="#81807D"/>
<path d="M43.1577 41.9284C43.6392 42.4688 44.1207 43.0091 44.6022 43.5494C44.5474 44.1354 44.5794 44.6962 45.1704 45.0291C46.2658 45.6447 46.7519 44.5138 47.5209 44.1582C48.3059 44.4956 48.792 45.6469 49.8851 45.0268C50.4693 44.6962 50.5218 44.1399 50.4533 43.5494C51.1813 43.1254 51.6993 42.5349 51.9184 41.7073C52.4569 44.1513 50.4214 46.4061 48.258 46.698C45.4557 47.0741 43.1668 45.2708 43.0116 42.2271C43.0094 42.1313 43.1075 42.0287 43.1577 41.9284Z" fill="#C9C8C3"/>
<path d="M79.9551 41.9604C80.4526 42.4324 80.4914 43.4196 81.4909 43.3215C81.4384 43.9554 81.2878 44.6097 82.0089 45.0201C83.1226 45.6539 83.5972 44.5139 84.421 44.1469C84.7268 44.4045 85.0007 44.7602 85.3612 44.9084C85.74 45.0657 86.217 45.1204 86.6186 45.0451C87.1138 44.9494 87.3009 44.4934 87.3032 43.9987C87.3032 43.773 87.2713 43.5473 87.253 43.3238C88.248 43.415 88.305 42.4461 88.7957 41.9673C89.1425 44.6165 86.557 46.7915 84.3731 46.7801C82.228 46.7687 79.6311 44.7054 79.9551 41.9604Z" fill="#CBCAC8"/>
<path d="M67.6369 37.1838C67.6916 36.4588 67.5228 35.7862 67.1485 35.1638C68.2758 34.1014 69.4123 33.0503 70.5236 31.972C71.2858 31.2333 72.1598 30.5516 72.7098 29.6715C73.2187 28.8576 73.8805 28.3264 74.6176 27.761C75.1356 27.973 75.4026 28.2808 74.9987 28.7778C74.5605 29.3159 74.2912 30.0614 73.4355 30.1458C73.3054 30.1594 73.1776 30.3008 73.0726 30.4057C71.3223 32.1361 69.5743 33.8711 67.9061 35.5263C67.8879 36.1966 68.5588 36.8304 67.6369 37.1838Z" fill="#393E3B"/>
<path d="M52.7103 56.3578C54.3237 56.3442 55.9371 56.3328 57.5482 56.3191C57.4181 56.465 57.2903 56.734 57.158 56.7386C55.8321 56.7705 54.5017 56.7728 53.1759 56.7431C53.0184 56.7386 52.8655 56.4924 52.7103 56.3578Z" fill="#CECC6F"/>
<path d="M58.2419 56.3533C59.8439 56.351 61.4459 56.3487 63.0479 56.3464C62.9064 56.4832 62.7672 56.7386 62.6234 56.7409C61.3044 56.7728 59.9854 56.7705 58.6664 56.7409C58.5226 56.7386 58.3834 56.4878 58.2419 56.3533Z" fill="#CECC6F"/>
<path d="M63.7233 56.3397C65.323 56.3397 66.9227 56.3397 68.5224 56.3374C68.3832 56.4765 68.2485 56.7341 68.1048 56.7387C66.7835 56.7706 65.4599 56.7706 64.1386 56.7387C63.9971 56.7364 63.8602 56.481 63.7233 56.3397Z" fill="#CECC6F"/>
<path d="M74.6976 56.3169C76.3087 56.3306 77.9198 56.3443 79.5309 56.3579C79.3369 56.4924 79.1475 56.7387 78.9513 56.7455C77.7007 56.782 76.4502 56.7797 75.1996 56.7432C75.0285 56.7387 74.8642 56.4651 74.6976 56.3169Z" fill="#CECC6F"/>
<path d="M69.2116 56.3281C70.8204 56.335 72.4293 56.3441 74.0358 56.3509C73.8487 56.4877 73.6638 56.7385 73.4721 56.7431C72.2262 56.7795 70.9779 56.7795 69.7319 56.7431C69.5562 56.7385 69.385 56.474 69.2116 56.3281Z" fill="#CECC6F"/>
<path d="M69.0769 49.4609C69.0678 49.5567 69.0587 49.6524 69.0496 49.7459C69.0199 51.4079 68.9902 53.0723 68.9651 54.7343C68.9583 55.1834 68.9651 55.6349 68.7552 56.0908C68.7552 55.7671 68.7552 55.4411 68.7552 55.1173C68.7552 53.3344 68.7529 51.5516 68.7552 49.7687C68.7575 49.5658 68.6707 49.2534 69.0769 49.4609Z" fill="#FEEA00"/>
<path d="M63.1412 56.2962C63.1412 53.957 63.1412 51.6155 63.1412 49.2764C63.2553 49.4405 63.4675 49.6047 63.4698 49.7711C63.4926 51.782 63.4926 53.7906 63.4698 55.8014C63.4675 55.9656 63.2576 56.1297 63.1412 56.2962Z" fill="#FEEA00"/>
<path d="M58.7233 34.1631C59.4992 34.2406 60.2774 34.3044 61.0487 34.4093C61.2016 34.4298 61.3317 34.6031 61.4732 34.708C60.9483 34.692 60.4143 34.7331 59.9054 34.6396C59.4947 34.5643 59.1158 34.3272 58.7233 34.1631Z" fill="#CECC6F"/>
<path d="M72.6093 45.77C73.1455 45.786 73.6841 45.8019 74.2204 45.8179C73.6704 46.2716 73.125 46.5087 72.6093 45.77Z" fill="#CECC6F"/>
<path d="M65.5486 39.1881C65.5897 38.6842 65.576 38.1416 66.2994 38.1143C66.0507 38.4699 65.7997 38.8301 65.5486 39.1881Z" fill="#393E3B"/>
<path d="M57.726 33.2578C57.9815 33.4926 58.2371 33.7298 58.4927 33.9646C58.2371 33.7298 57.9815 33.4926 57.726 33.2578Z" fill="#CECC6F"/>
<path d="M67.1782 37.5006C67.3243 37.3957 67.4703 37.2931 67.6164 37.1882C67.4703 37.2931 67.3243 37.398 67.1782 37.5006Z" fill="#393E3B"/>
<path d="M74.2113 45.8247C74.3231 45.7449 74.4327 45.6628 74.5445 45.583C74.4327 45.6628 74.3208 45.7449 74.2113 45.8247Z" fill="#CECC6F"/>
<path d="M58.4813 33.9556C58.568 34.0262 58.6548 34.0969 58.7438 34.1676C58.6548 34.0969 58.568 34.0262 58.4813 33.9556Z" fill="#CECC6F"/>
<path d="M73.8051 43.5654C74.1246 43.9576 73.9443 44.2859 73.6043 44.4933C73.4218 44.6051 73.0932 44.6256 72.8969 44.5367C72.4953 44.3566 72.4291 43.9963 72.6299 43.5996C73.0201 43.5882 73.4126 43.5768 73.8051 43.5654Z" fill="#FBCA01"/>
<path d="M73.805 43.5647C73.4125 43.5761 73.0223 43.5875 72.6298 43.5989C73.1729 42.9833 73.2026 42.9833 73.805 43.5647Z" fill="#CECC6F"/>
<path d="M56.0899 51.0341C56.0899 52.2242 56.0899 53.4211 56.0899 54.6819C55.7248 54.6819 55.403 54.6819 54.9785 54.6819C54.9785 53.966 54.9785 53.298 54.9785 52.5707C54.5883 52.6414 54.3076 52.6915 53.8489 52.7736C53.9653 52.3746 53.9676 52.0441 54.1342 51.8639C54.6864 51.2689 55.476 50.9588 56.0899 51.0341Z" fill="#E6E6E6"/>
<path d="M59.0794 52.8834C59.0908 51.6203 59.4491 51.0891 60.3277 50.9478C61.2747 50.7973 61.8817 51.1849 62.0734 52.1288C62.1556 52.53 62.1715 52.9609 62.1213 53.3667C61.9958 54.4064 61.5098 54.8304 60.5718 54.7962C59.6545 54.7643 59.2095 54.2969 59.1068 53.2619C59.0931 53.1114 59.084 52.9586 59.0794 52.8834ZM60.5969 54.0667C61.2633 53.2094 61.2382 52.359 60.581 51.7366C59.9625 52.4844 59.9511 53.0909 60.5969 54.0667Z" fill="#EBEBEB"/>
<path d="M73.1752 52.8924C73.109 53.6538 73.0885 54.4039 72.2396 54.7094C71.2127 55.0788 70.3136 54.5521 70.147 53.4669C70.0899 53.0975 70.0854 52.71 70.1264 52.3383C70.2314 51.3694 70.7837 50.8906 71.6988 50.9202C72.5499 50.9476 72.9995 51.4036 73.1227 52.368C73.1455 52.5549 73.1592 52.7419 73.1752 52.8924ZM71.5504 51.725C70.9639 52.6302 71.021 53.4304 71.7102 53.9821C72.3309 53.0428 72.2784 52.2859 71.5504 51.725Z" fill="#EBEBEB"/>
<path d="M78.7047 52.8037C78.707 54.0873 78.2529 54.7143 77.3355 54.8009C76.466 54.883 75.843 54.4589 75.6673 53.6085C75.592 53.2415 75.5875 52.8516 75.6171 52.4754C75.6924 51.4563 76.1739 50.957 77.0731 50.9114C77.9676 50.8658 78.5016 51.3446 78.6591 52.3409C78.6887 52.5301 78.6956 52.7217 78.7047 52.8037ZM77.0982 51.6524C76.5117 52.5826 76.5254 53.2415 77.1027 54.003C77.7919 53.3441 77.8147 52.5507 77.0982 51.6524Z" fill="#E6E6E6"/>
<path d="M67.6641 52.8469C67.6824 54.2947 67.0434 54.9741 65.834 54.7894C65.7221 54.7734 65.608 54.7552 65.5031 54.7164C64.7728 54.4451 64.4693 53.6494 64.6039 52.3727C64.6998 51.4607 65.0855 51.0344 65.9047 50.9272C67.0297 50.7813 67.6459 51.4562 67.6641 52.8469ZM66.0827 51.7343C65.4916 52.5779 65.5419 53.4329 66.2128 53.9504C66.7308 53.0453 66.6897 52.3453 66.0827 51.7343Z" fill="#E6E6E6"/>
<path d="M87.2532 43.3213C87.2715 43.547 87.3034 43.7727 87.3034 43.9961C87.3011 44.4909 87.1163 44.9468 86.6188 45.0426C86.2172 45.1201 85.7402 45.0631 85.3614 44.9058C85.0009 44.7576 84.727 44.4019 84.4212 44.1443C83.5974 44.5114 83.1228 45.6536 82.0091 45.0175C81.288 44.6071 81.4386 43.9528 81.4911 43.319C81.8425 43.0044 82.1917 42.6897 82.5294 42.3888C81.0803 40.3027 81.0781 40.2799 82.2396 39.4021C83.2962 39.0784 83.6864 40.1294 84.3938 40.5033C85.0762 40.0109 85.4938 39.108 86.5161 39.4044C87.664 40.3004 87.664 40.3004 86.2195 42.3865C86.5549 42.6897 86.9041 43.0044 87.2532 43.3213Z" fill="#050505"/>
<path d="M86.5161 39.4049C85.4915 39.1085 85.0739 40.0113 84.3939 40.5038C83.6887 40.1299 83.2962 39.0789 82.2396 39.4026C82.2465 39.2932 82.2077 39.1381 82.2647 39.0789C83.2277 38.1031 85.5166 38.1053 86.4842 39.0811C86.5458 39.1427 86.5093 39.2954 86.5161 39.4049Z" fill="#EBEBEB"/>
<path d="M50.4534 43.5492C50.5219 44.142 50.4671 44.696 49.8852 45.0266C48.7921 45.6467 48.306 44.4954 47.521 44.158C46.752 44.5136 46.2636 45.6445 45.1705 45.0289C44.5795 44.696 44.5498 44.1352 44.6023 43.5492C44.8533 43.262 45.1043 42.9747 45.3554 42.6874C45.7821 42.521 45.8369 42.2406 45.5402 41.9259C45.2915 41.6592 44.9925 41.4426 44.7141 41.2032C44.2052 40.3163 44.9309 39.8307 45.3508 39.2471C46.2933 39.3018 46.914 39.9402 47.537 40.5238C48.7624 39.4386 48.7624 39.4386 49.536 39.3816C50.855 40.1955 50.8413 40.4896 49.3421 42.2315C49.7049 42.6601 50.0791 43.1047 50.4534 43.5492Z" fill="#030303"/>
<path d="M49.5359 39.3817C48.76 39.4387 48.76 39.4387 47.5369 40.524C46.9139 39.9403 46.2932 39.302 45.3507 39.2472C46.4415 38.2076 48.1302 38.0184 49.2895 38.8391C49.431 38.9372 49.4583 39.1948 49.5359 39.3817Z" fill="#EBEBEB"/>
<path d="M44.7139 41.2031C44.99 41.4425 45.2912 41.6614 45.5399 41.9259C45.8343 42.2428 45.7818 42.5232 45.3551 42.6873C45.1383 42.1926 44.3099 41.9623 44.7139 41.2031Z" fill="#393E3B"/>
<path d="M60.5969 54.0664C59.9511 53.0906 59.9625 52.4841 60.5809 51.7363C61.2381 52.3565 61.2632 53.2091 60.5969 54.0664Z" fill="#242424"/>
<path d="M71.5506 51.7251C72.2785 52.286 72.331 53.0429 71.7103 53.9822C71.0211 53.4305 70.9641 52.6325 71.5506 51.7251Z" fill="#242424"/>
<path d="M77.0982 51.6526C77.8125 52.5509 77.7919 53.3443 77.1027 54.0032C76.5254 53.2417 76.5117 52.5828 77.0982 51.6526Z" fill="#242424"/>
<path d="M66.0827 51.7344C66.6897 52.3454 66.7308 53.0453 66.2128 53.9504C65.5419 53.4306 65.4917 52.5779 66.0827 51.7344Z" fill="#0F0D0A"/>
</svg>
