<svg width="199" height="82" viewBox="0 0 199 82" fill="none" xmlns="http://www.w3.org/2000/svg">
<g clip-path="url(#clip0_140_434)">
<path d="M91.5278 38.1425V43.608C91.5278 43.7573 91.4752 43.8835 91.3689 43.9842C91.2637 44.0872 91.1377 44.1379 90.9926 44.1379C90.8435 44.1379 90.7152 44.0872 90.61 43.9842C90.5038 43.8835 90.4514 43.7572 90.4514 43.608V36.7005C90.4514 36.5489 90.5037 36.4249 90.61 36.322C90.7152 36.2213 90.8435 36.1709 90.9926 36.1709H91.0116C91.1524 36.1791 91.2742 36.2295 91.3784 36.3262L94.2353 39.7863L97.0933 36.3262C97.1807 36.2463 97.2795 36.198 97.3918 36.1768C97.4005 36.1768 97.411 36.1749 97.4233 36.1726C97.4351 36.1709 97.4456 36.1709 97.4539 36.1709C97.492 36.1709 97.5203 36.1726 97.541 36.1768C97.6736 36.1937 97.7861 36.2505 97.8775 36.3473C97.969 36.446 98.0143 36.5618 98.0143 36.7005V43.608C98.0143 43.7573 97.9618 43.8835 97.8555 43.9842C97.7492 44.0872 97.6219 44.1379 97.4729 44.1379C97.3277 44.1379 97.2017 44.0872 97.0965 43.9842C96.9903 43.8835 96.9379 43.7572 96.9379 43.608V38.1487L94.6462 40.9196L94.5969 40.9827C94.535 41.0436 94.4761 41.0856 94.4225 41.1064C94.252 41.18 94.0922 41.159 93.9431 41.0373L93.8872 40.9887L91.5276 38.1425H91.5278Z" fill="white"/>
<path d="M101.593 41.3798H104.55L103.082 37.8881L101.593 41.3798ZM104.993 42.4519H101.165L100.585 43.8142C100.556 43.8855 100.516 43.9444 100.463 43.9948C100.412 44.0452 100.353 44.081 100.287 44.1065C100.22 44.1316 100.15 44.1421 100.078 44.1399C100.005 44.1379 99.9336 44.121 99.8633 44.0872C99.7223 44.0306 99.6297 43.9339 99.5856 43.7994C99.5425 43.6628 99.5518 43.526 99.6142 43.3855L102.583 36.5009C102.629 36.3917 102.694 36.3094 102.779 36.2548C102.864 36.198 102.963 36.171 103.076 36.171C103.183 36.171 103.279 36.198 103.364 36.2548C103.45 36.3094 103.515 36.3894 103.561 36.4946L106.536 43.3855C106.599 43.5218 106.609 43.6586 106.568 43.7951C106.526 43.9316 106.437 44.0306 106.299 44.0872C106.159 44.1504 106.019 44.1546 105.88 44.1043C105.74 44.0517 105.638 43.955 105.572 43.8142L104.993 42.4519H104.993Z" fill="white"/>
<path d="M109.2 37.2472V40.9258H110.962C111.228 40.9258 111.474 40.8752 111.7 40.7745C111.926 40.6715 112.122 40.5367 112.286 40.3688C112.45 40.2007 112.577 40.007 112.668 39.7863C112.759 39.5678 112.805 39.3363 112.805 39.0968C112.805 38.8593 112.759 38.6303 112.665 38.4073C112.571 38.1868 112.444 37.989 112.282 37.8168C112.121 37.6444 111.927 37.5056 111.703 37.4027C111.479 37.2997 111.237 37.2473 110.975 37.2473H109.2V37.2472ZM110.95 36.1709C111.361 36.1709 111.744 36.2462 112.098 36.3999C112.454 36.5532 112.764 36.7634 113.029 37.0262C113.295 37.2891 113.503 37.6003 113.655 37.9575C113.807 38.3125 113.882 38.6932 113.882 39.0968C113.882 39.4984 113.805 39.8767 113.652 40.2277C113.499 40.581 113.289 40.8902 113.026 41.1525C112.763 41.4176 112.453 41.6236 112.095 41.7751C111.739 41.9262 111.356 42.0019 110.95 42.0019H109.2V43.608C109.2 43.7573 109.148 43.8835 109.042 43.9842C108.937 44.0872 108.811 44.1379 108.665 44.1379C108.591 44.1379 108.52 44.1253 108.454 44.0977C108.387 44.0705 108.329 44.0329 108.28 43.9843C108.229 43.9382 108.191 43.8813 108.164 43.8181C108.138 43.753 108.124 43.6839 108.124 43.608V36.7048C108.124 36.5554 108.177 36.4292 108.283 36.3262C108.388 36.2233 108.516 36.1709 108.665 36.1709H110.95V36.1709Z" fill="white"/>
<path d="M116.67 43.608C116.67 43.7573 116.618 43.8835 116.511 43.9842C116.406 44.0872 116.28 44.1379 116.135 44.1379C115.986 44.1379 115.858 44.0872 115.752 43.9842C115.646 43.8835 115.594 43.7572 115.594 43.608V36.7005C115.594 36.5489 115.646 36.4249 115.752 36.322C115.858 36.2213 115.986 36.1709 116.135 36.1709C116.28 36.1709 116.406 36.2212 116.511 36.322C116.617 36.4249 116.67 36.549 116.67 36.7005V43.608Z" fill="white"/>
<path d="M121.096 40.5515L122.871 36.5069C122.932 36.3706 123.032 36.2716 123.169 36.2148C123.306 36.1561 123.442 36.1539 123.58 36.2085C123.646 36.2358 123.704 36.2779 123.753 36.3325C123.804 36.3874 123.842 36.446 123.869 36.5092C123.897 36.5743 123.91 36.6416 123.91 36.7153C123.91 36.7868 123.895 36.8605 123.866 36.9296L121.687 41.7415L121.563 42.0398C121.384 42.4309 121.212 42.7652 121.046 43.0426C120.88 43.3202 120.701 43.5495 120.507 43.7303C120.314 43.911 120.1 44.0453 119.863 44.1317C119.627 44.2178 119.349 44.2619 119.03 44.2619H118.986C118.836 44.2619 118.708 44.2178 118.6 44.1317C118.492 44.0453 118.438 43.9257 118.438 43.7764C118.438 43.6185 118.491 43.4885 118.6 43.381C118.708 43.2761 118.836 43.2234 118.986 43.2234C119.015 43.2234 119.037 43.2257 119.054 43.2297C119.262 43.234 119.435 43.2086 119.577 43.1583C119.718 43.1057 119.84 43.0281 119.944 42.925C120.048 42.8201 120.143 42.6895 120.228 42.5317C120.312 42.374 120.403 42.1892 120.498 41.979L120.549 41.8527L118.319 36.9297C118.291 36.8606 118.276 36.7868 118.276 36.7154C118.276 36.6418 118.29 36.5744 118.316 36.5092C118.343 36.4461 118.382 36.3875 118.432 36.3326C118.481 36.278 118.542 36.2359 118.612 36.2086C118.679 36.1793 118.748 36.1645 118.82 36.1665C118.893 36.1688 118.96 36.1832 119.023 36.2108C119.086 36.2381 119.142 36.278 119.194 36.3286C119.246 36.3811 119.286 36.4398 119.316 36.507L121.096 40.5516L121.096 40.5515Z" fill="white"/>
<path d="M131.965 43.5891C131.965 43.7425 131.912 43.873 131.803 43.978C131.695 44.0855 131.564 44.1379 131.411 44.1379C131.258 44.1379 131.133 44.0855 131.038 43.978C130.942 43.873 130.894 43.7424 130.894 43.5891V37.2472H126.58V43.5891C126.58 43.7425 126.532 43.873 126.434 43.978C126.336 44.0855 126.211 44.1379 126.058 44.1379C125.904 44.1379 125.773 44.0855 125.665 43.978C125.557 43.873 125.504 43.7424 125.504 43.5891V36.7236C125.504 36.5699 125.556 36.4397 125.662 36.3325C125.767 36.2253 125.898 36.1709 126.051 36.1709H131.417C131.537 36.1709 131.643 36.2042 131.735 36.2693C131.826 36.3367 131.891 36.4229 131.927 36.5322L131.946 36.5932L131.959 36.6373C131.959 36.6456 131.96 36.6561 131.962 36.6689C131.964 36.6814 131.965 36.6942 131.965 36.7047V43.5891V43.5891Z" fill="white"/>
<path d="M137.823 37.1841C137.408 37.1841 137.02 37.2638 136.658 37.4194C136.298 37.575 135.984 37.7874 135.716 38.0605C135.449 38.3319 135.237 38.6468 135.084 39.0086C134.93 39.3701 134.854 39.7548 134.854 40.1669C134.854 40.581 134.93 40.9699 135.084 41.3314C135.237 41.691 135.449 42.0064 135.716 42.2732C135.984 42.5403 136.298 42.7526 136.658 42.9079C137.02 43.0635 137.408 43.1414 137.823 43.1414C138.234 43.1414 138.621 43.0635 138.984 42.9079C139.347 42.7525 139.663 42.5403 139.931 42.2732C140.198 42.0064 140.41 41.691 140.565 41.3314C140.721 40.9699 140.799 40.581 140.799 40.1669C140.799 39.7548 140.721 39.3701 140.565 39.0086C140.41 38.6468 140.198 38.3319 139.931 38.0605C139.663 37.7874 139.347 37.5749 138.984 37.4194C138.621 37.2638 138.234 37.1841 137.823 37.1841ZM137.817 36.1078C138.19 36.1078 138.549 36.156 138.894 36.2548C139.238 36.3515 139.561 36.4881 139.861 36.6627C140.163 36.8371 140.436 37.0473 140.683 37.2976C140.93 37.5456 141.141 37.821 141.318 38.1194C141.495 38.4178 141.631 38.7395 141.729 39.0863C141.827 39.4333 141.875 39.7928 141.875 40.1669C141.875 40.7259 141.769 41.2515 141.555 41.7414C141.341 42.2312 141.051 42.6601 140.683 43.0257C140.316 43.3937 139.886 43.6839 139.395 43.8962C138.903 44.1066 138.377 44.2136 137.817 44.2136C137.444 44.2136 137.083 44.1652 136.737 44.0685C136.39 43.9738 136.068 43.8372 135.769 43.6606C135.47 43.4862 135.198 43.2738 134.953 43.0257C134.709 42.7799 134.499 42.5065 134.325 42.2079C134.151 41.9095 134.016 41.5881 133.92 41.2433C133.825 40.8986 133.777 40.5411 133.777 40.1669C133.777 39.7929 133.825 39.4333 133.92 39.0863C134.016 38.7395 134.151 38.4179 134.325 38.1195C134.499 37.821 134.709 37.5457 134.953 37.2977C135.198 37.0474 135.47 36.8371 135.769 36.6628C136.068 36.4881 136.39 36.3516 136.737 36.2549C137.083 36.1562 137.443 36.1078 137.817 36.1078L137.817 36.1078Z" fill="white"/>
<path d="M142.864 43.6019C142.864 43.4483 142.918 43.3223 143.026 43.2233C143.134 43.1226 143.263 43.074 143.412 43.074C143.861 43.074 144.182 42.9691 144.374 42.7588C144.567 42.5486 144.664 42.2184 144.664 41.7666V36.7109C144.664 36.6709 144.666 36.6416 144.67 36.6245C144.67 36.6206 144.671 36.6186 144.673 36.6186C144.675 36.6186 144.676 36.6163 144.676 36.612C144.68 36.591 144.684 36.5742 144.688 36.5594C144.692 36.5449 144.698 36.5279 144.707 36.5068C144.716 36.4818 144.724 36.4648 144.732 36.4565C144.732 36.4525 144.733 36.4502 144.736 36.4482C144.738 36.446 144.739 36.442 144.739 36.4377C144.784 36.36 144.846 36.2969 144.925 36.2485C145.003 36.2001 145.091 36.1749 145.186 36.1709H149.874C149.903 36.1709 149.926 36.1726 149.943 36.1768C150.079 36.1937 150.195 36.2528 150.288 36.3578C150.381 36.4607 150.428 36.5828 150.428 36.7236V43.5891C150.428 43.7468 150.374 43.8793 150.267 43.9842C150.158 44.0914 150.028 44.1441 149.874 44.1441C149.716 44.1441 149.59 44.0915 149.494 43.9842C149.398 43.8793 149.351 43.7467 149.351 43.5891V37.2472H145.734V41.8045C145.725 42.5467 145.526 43.1204 145.134 43.5283C144.742 43.9339 144.18 44.1421 143.45 44.1504H143.412C143.263 44.1504 143.134 44.096 143.026 43.9885C142.918 43.8813 142.864 43.7512 142.864 43.6019H142.864Z" fill="white"/>
<path d="M153.671 40.6777V43.0617H155.925C156.095 43.0617 156.254 43.0257 156.401 42.9586C156.548 42.8891 156.676 42.7989 156.784 42.6872C156.892 42.576 156.977 42.4476 157.039 42.3049C157.101 42.1617 157.133 42.0147 157.133 41.8654C157.133 41.7077 157.1 41.5587 157.036 41.4153C156.972 41.2705 156.883 41.1442 156.772 41.035C156.66 40.9258 156.529 40.8376 156.379 40.7745C156.23 40.7093 156.072 40.6777 155.906 40.6777H153.671V40.6777ZM153.149 44.1379C152.995 44.1379 152.864 44.0855 152.757 43.978C152.649 43.873 152.595 43.7424 152.595 43.5891V36.7236C152.595 36.5699 152.648 36.4397 152.757 36.3325C152.864 36.2253 152.996 36.1709 153.149 36.1709C153.307 36.1709 153.433 36.217 153.528 36.3093C153.624 36.4038 153.671 36.5301 153.671 36.6877V39.599H155.912C156.228 39.599 156.525 39.6622 156.803 39.7842C157.081 39.9062 157.324 40.0721 157.531 40.2846C157.738 40.4968 157.901 40.7429 158.02 41.0225C158.137 41.3019 158.197 41.6005 158.197 41.9157C158.197 42.2311 158.138 42.5233 158.02 42.7924C157.901 43.0635 157.738 43.297 157.531 43.4966C157.324 43.6964 157.081 43.8519 156.803 43.9675C156.525 44.0809 156.228 44.1379 155.912 44.1379H153.149Z" fill="white"/>
<path d="M166.289 37.3164C166.393 37.4193 166.445 37.5434 166.445 37.6862C166.445 37.8293 166.393 37.9555 166.289 38.0624C166.185 38.1657 166.059 38.2201 165.91 38.2223C165.76 38.2246 165.633 38.172 165.529 38.069C165.231 37.7703 164.899 37.5476 164.537 37.4025C164.173 37.2575 163.799 37.184 163.413 37.184C163.006 37.184 162.623 37.2637 162.261 37.4193C161.901 37.5749 161.586 37.7851 161.318 38.0542C161.05 38.3212 160.839 38.6344 160.683 38.996C160.528 39.3573 160.45 39.7464 160.45 40.1603C160.45 40.5576 160.525 40.9383 160.674 41.2958C160.823 41.655 161.029 41.9725 161.291 42.2459C161.552 42.5192 161.862 42.7377 162.221 42.8995C162.58 43.0616 162.971 43.1413 163.394 43.1413C163.784 43.1456 164.158 43.0782 164.515 42.9393C164.872 42.8008 165.206 42.5801 165.518 42.2774C165.567 42.2271 165.625 42.189 165.691 42.1639C165.758 42.1387 165.826 42.1281 165.894 42.1281C165.962 42.1281 166.03 42.1387 166.096 42.1617C166.162 42.185 166.221 42.2205 166.27 42.2709C166.324 42.3195 166.364 42.3781 166.389 42.4475C166.413 42.517 166.426 42.5841 166.426 42.6538C166.426 42.7209 166.413 42.7883 166.389 42.8535C166.364 42.9164 166.327 42.9732 166.276 43.0237C165.87 43.4292 165.42 43.732 164.926 43.9256C164.432 44.121 163.92 44.2177 163.388 44.2177C163.019 44.2177 162.663 44.1692 162.321 44.0727C161.978 43.976 161.659 43.8391 161.363 43.6648C161.065 43.4904 160.795 43.2802 160.55 43.0319C160.305 42.7861 160.095 42.5128 159.921 42.2124C159.747 41.9095 159.611 41.588 159.517 41.2473C159.421 40.9047 159.373 40.5455 159.373 40.1731C159.373 39.8159 159.419 39.4691 159.511 39.1303C159.602 38.7921 159.731 38.4724 159.899 38.172C160.067 37.8714 160.272 37.5937 160.512 37.3417C160.753 37.0873 161.024 36.8686 161.325 36.6877C161.625 36.5051 161.951 36.3618 162.302 36.2611C162.652 36.1581 163.025 36.1077 163.419 36.1077C163.942 36.1077 164.451 36.2084 164.945 36.4103C165.439 36.612 165.887 36.9127 166.289 37.3163L166.289 37.3164Z" fill="white"/>
<path d="M169.376 40.6777V43.0617H171.63C171.8 43.0617 171.959 43.0257 172.106 42.9586C172.253 42.8891 172.382 42.7989 172.489 42.6872C172.597 42.576 172.682 42.4476 172.744 42.3049C172.806 42.1617 172.838 42.0147 172.838 41.8654C172.838 41.7077 172.805 41.5587 172.741 41.4153C172.677 41.2705 172.589 41.1442 172.477 41.035C172.365 40.9258 172.234 40.8376 172.084 40.7745C171.935 40.7093 171.777 40.6777 171.611 40.6777H169.376ZM168.854 44.1379C168.7 44.1379 168.569 44.0855 168.462 43.978C168.354 43.873 168.3 43.7424 168.3 43.5891V36.7236C168.3 36.5699 168.353 36.4397 168.462 36.3325C168.569 36.2253 168.7 36.1709 168.854 36.1709C169.011 36.1709 169.138 36.217 169.233 36.3093C169.329 36.4038 169.376 36.5301 169.376 36.6877V39.599H171.617C171.933 39.599 172.23 39.6622 172.508 39.7842C172.786 39.9062 173.029 40.0721 173.236 40.2846C173.443 40.4968 173.606 40.7429 173.725 41.0225C173.843 41.3019 173.903 41.6005 173.903 41.9157C173.903 42.2311 173.843 42.5233 173.725 42.7924C173.606 43.0635 173.443 43.297 173.236 43.4966C173.029 43.6964 172.786 43.8519 172.508 43.9675C172.23 44.0809 171.933 44.1379 171.617 44.1379H168.854V44.1379Z" fill="white"/>
<path d="M176.609 39.4438H177.082L179.691 36.3262C179.749 36.2759 179.8 36.24 179.847 36.2213C179.925 36.1874 180.005 36.171 180.083 36.171H180.718C180.793 36.171 180.863 36.1854 180.929 36.2148C180.996 36.2423 181.055 36.2821 181.104 36.3285C181.153 36.3768 181.193 36.4335 181.223 36.4964C181.251 36.5618 181.266 36.6311 181.266 36.7048C181.266 36.8645 181.213 36.9928 181.107 37.0957C181.001 37.1964 180.872 37.2473 180.718 37.2473H180.288L177.923 40.062L180.899 43.2109C180.953 43.2678 180.993 43.3329 181.02 43.4001C181.047 43.4695 181.061 43.5389 181.061 43.6081C181.061 43.6795 181.046 43.7468 181.017 43.8143C180.988 43.8814 180.946 43.9403 180.893 43.9949C180.784 44.0979 180.664 44.1443 180.531 44.1318C180.399 44.119 180.278 44.0603 180.171 43.9508L176.92 40.5222H176.609V43.583C176.609 43.7387 176.561 43.8689 176.463 43.9761C176.365 44.0833 176.24 44.138 176.087 44.138C175.933 44.138 175.802 44.0857 175.695 43.9781C175.587 43.8732 175.533 43.7426 175.533 43.5893V36.7172C175.533 36.5638 175.587 36.4356 175.695 36.3287C175.802 36.2234 175.933 36.171 176.087 36.171C176.245 36.171 176.371 36.2214 176.466 36.3221C176.562 36.4251 176.609 36.5514 176.609 36.7049V39.444L176.609 39.4438Z" fill="white"/>
<path d="M184.957 41.3798H187.914L186.446 37.8881L184.957 41.3798ZM188.357 42.4519H184.528L183.949 43.8142C183.92 43.8855 183.88 43.9444 183.827 43.9948C183.776 44.0452 183.717 44.081 183.651 44.1065C183.584 44.1316 183.514 44.1421 183.442 44.1399C183.369 44.1379 183.297 44.121 183.227 44.0872C183.086 44.0306 182.994 43.9339 182.949 43.7994C182.907 43.6628 182.916 43.526 182.978 43.3855L185.947 36.5009C185.993 36.3917 186.058 36.3094 186.143 36.2548C186.228 36.198 186.327 36.171 186.439 36.171C186.547 36.171 186.644 36.198 186.728 36.2548C186.813 36.3094 186.879 36.3894 186.925 36.4946L189.9 43.3855C189.963 43.5218 189.972 43.6586 189.932 43.7951C189.89 43.9316 189.801 44.0306 189.663 44.0872C189.523 44.1504 189.382 44.1546 189.244 44.1043C189.104 44.0517 189.002 43.955 188.936 43.8142L188.357 42.4519H188.357Z" fill="white"/>
<path d="M91.7706 55.5757H94.7275L93.259 52.0839L91.7706 55.5757ZM95.1698 56.6476H91.3416L90.7623 58.0101C90.733 58.0816 90.6931 58.1401 90.6405 58.1906C90.589 58.2414 90.5303 58.277 90.4638 58.3022C90.3965 58.3273 90.3274 58.3379 90.2546 58.3356C90.1822 58.3338 90.1108 58.3168 90.0403 58.2833C89.8993 58.2264 89.8068 58.1297 89.7628 57.9952C89.7197 57.8586 89.7292 57.722 89.791 57.5813L92.7606 50.6966C92.8059 50.5874 92.8708 50.5055 92.956 50.4509C93.0412 50.394 93.1402 50.3667 93.2526 50.3667C93.3599 50.3667 93.4564 50.394 93.5416 50.4509C93.6267 50.5055 93.692 50.5851 93.7381 50.6904L96.7128 57.5813C96.776 57.7177 96.7855 57.8546 96.7444 57.9911C96.7035 58.1276 96.6143 58.2264 96.4765 58.2833C96.3357 58.3461 96.1959 58.3504 96.0571 58.3C95.9175 58.2474 95.8153 58.1507 95.7492 58.0101L95.1699 56.6476H95.1698Z" fill="white"/>
<path d="M104.595 51.512C104.698 51.615 104.75 51.7391 104.75 51.8821C104.75 52.0252 104.699 52.1512 104.595 52.2584C104.49 52.3614 104.364 52.4163 104.215 52.418C104.066 52.4203 103.938 52.3677 103.834 52.2647C103.536 51.9662 103.205 51.7433 102.842 51.5984C102.479 51.4534 102.104 51.3797 101.719 51.3797C101.312 51.3797 100.928 51.4596 100.566 51.615C100.206 51.7706 99.8917 51.9808 99.6236 52.2499C99.3555 52.517 99.1442 52.8302 98.9886 53.1917C98.8331 53.5535 98.7554 53.9421 98.7554 54.3565C98.7554 54.7536 98.83 55.134 98.9791 55.4915C99.1285 55.851 99.3345 56.1682 99.5963 56.4416C99.8569 56.7149 100.167 56.9336 100.526 57.0952C100.885 57.2573 101.276 57.3369 101.699 57.3369C102.089 57.3413 102.464 57.2742 102.82 57.1354C103.177 56.9965 103.512 56.7757 103.823 56.473C103.872 56.4228 103.93 56.3847 103.997 56.3596C104.064 56.3343 104.131 56.3239 104.199 56.3239C104.268 56.3239 104.335 56.3343 104.401 56.3576C104.467 56.3807 104.526 56.4162 104.576 56.4668C104.629 56.5151 104.669 56.5741 104.694 56.6434C104.719 56.7129 104.731 56.78 104.731 56.8495C104.731 56.9167 104.719 56.984 104.694 57.0492C104.669 57.1123 104.633 57.169 104.582 57.2194C104.175 57.6252 103.725 57.9281 103.231 58.1213C102.737 58.3167 102.225 58.4134 101.693 58.4134C101.325 58.4134 100.968 58.3654 100.626 58.2684C100.284 58.1717 99.9642 58.035 99.6678 57.8607C99.3704 57.6861 99.1003 57.476 98.8552 57.2281C98.6104 56.9818 98.4002 56.7084 98.2266 56.4081C98.0522 56.1054 97.9166 55.7837 97.822 55.4432C97.7265 55.1004 97.6781 54.7412 97.6781 54.3688C97.6781 54.0118 97.7244 53.6648 97.8159 53.3263C97.907 52.9881 98.0366 52.6683 98.2047 52.3677C98.3726 52.067 98.5768 51.7897 98.8173 51.5374C99.0582 51.283 99.3295 51.0643 99.6299 50.8834C99.9306 50.7007 100.256 50.558 100.607 50.4567C100.958 50.3537 101.331 50.3033 101.725 50.3033C102.247 50.3033 102.756 50.4043 103.25 50.606C103.744 50.8079 104.192 51.1086 104.595 51.512L104.595 51.512Z" fill="white"/>
<path d="M110.272 51.3798C109.856 51.3798 109.469 51.4597 109.107 51.6151C108.746 51.7707 108.432 51.9831 108.164 52.2564C107.897 52.5275 107.686 52.843 107.532 53.2043C107.379 53.5658 107.302 53.9507 107.302 54.3626C107.302 54.7767 107.379 55.1656 107.532 55.5274C107.686 55.8866 107.897 56.202 108.164 56.4689C108.432 56.736 108.746 56.9482 109.107 57.1038C109.469 57.2594 109.856 57.337 110.272 57.337C110.683 57.337 111.069 57.2594 111.432 57.1038C111.796 56.9481 112.111 56.736 112.379 56.4689C112.646 56.202 112.858 55.8866 113.014 55.5274C113.17 55.1656 113.247 54.7767 113.247 54.3626C113.247 53.9507 113.17 53.5658 113.014 53.2043C112.858 52.843 112.646 52.5275 112.379 52.2564C112.111 51.9831 111.796 51.7706 111.432 51.6151C111.069 51.4597 110.683 51.3798 110.272 51.3798ZM110.265 50.3034C110.638 50.3034 110.998 50.3517 111.343 50.4508C111.686 50.5474 112.009 50.6838 112.31 50.8584C112.611 51.0328 112.885 51.2432 113.132 51.4933C113.379 51.7413 113.59 52.0167 113.767 52.3151C113.943 52.6137 114.08 52.9355 114.178 53.2822C114.275 53.629 114.324 53.9885 114.324 54.3626C114.324 54.9218 114.218 55.4474 114.003 55.937C113.79 56.427 113.5 56.8559 113.132 57.2216C112.765 57.5894 112.335 57.8796 111.843 58.0922C111.351 58.3023 110.826 58.4093 110.265 58.4093C109.892 58.4093 109.532 58.3608 109.186 58.2641C108.839 58.1697 108.516 58.0329 108.217 57.8563C107.918 57.6819 107.647 57.4698 107.402 57.2216C107.157 56.9759 106.948 56.7025 106.773 56.4042C106.599 56.1054 106.464 55.7837 106.369 55.439C106.273 55.0943 106.226 54.737 106.226 54.3626C106.226 53.9886 106.273 53.629 106.369 53.2822C106.464 52.9355 106.599 52.6138 106.773 52.3152C106.948 52.0167 107.157 51.7414 107.402 51.4934C107.647 51.2433 107.918 51.0328 108.217 50.8584C108.516 50.6838 108.839 50.5475 109.186 50.4509C109.532 50.3519 109.892 50.3035 110.265 50.3035L110.265 50.3034Z" fill="white"/>
<path d="M117.274 57.2575H121.769V50.9256C121.769 50.7722 121.818 50.6417 121.915 50.5348C122.013 50.4255 122.137 50.3729 122.286 50.3729C122.44 50.3729 122.571 50.4254 122.681 50.5348C122.791 50.6417 122.846 50.7723 122.846 50.9256V57.2575H123.158C123.307 57.2575 123.432 57.3036 123.534 57.396C123.636 57.4905 123.691 57.6148 123.699 57.7683V59.2165C123.699 59.3741 123.647 59.5066 123.543 59.6096C123.439 59.7128 123.313 59.7651 123.164 59.7651C123.006 59.7651 122.877 59.7128 122.777 59.6096C122.678 59.5066 122.628 59.3741 122.628 59.2165V58.3338H116.752C116.619 58.3338 116.504 58.2937 116.406 58.216C116.309 58.1362 116.243 58.0371 116.211 57.9177C116.211 57.9089 116.21 57.9006 116.207 57.8944C116.205 57.8878 116.204 57.8815 116.204 57.8733C116.2 57.8523 116.198 57.8207 116.198 57.7789V50.9256C116.198 50.7722 116.252 50.6417 116.36 50.5348C116.467 50.4255 116.599 50.3729 116.752 50.3729C116.905 50.3729 117.03 50.4254 117.128 50.5348C117.226 50.6417 117.274 50.7723 117.274 50.9256V57.2575V57.2575Z" fill="white"/>
<path d="M126.425 57.804C126.425 57.9533 126.372 58.0793 126.266 58.18C126.161 58.2832 126.034 58.3338 125.889 58.3338C125.74 58.3338 125.612 58.2833 125.507 58.18C125.401 58.0793 125.348 57.9532 125.348 57.804V50.8963C125.348 50.7449 125.401 50.6209 125.507 50.518C125.612 50.417 125.74 50.3666 125.889 50.3666C126.035 50.3666 126.161 50.4169 126.266 50.518C126.372 50.6209 126.425 50.745 126.425 50.8963V57.804V57.804Z" fill="white"/>
<path d="M130.004 55.5757H132.961L131.492 52.0839L130.004 55.5757ZM133.403 56.6476H129.575L128.995 58.0101C128.966 58.0816 128.926 58.1401 128.874 58.1906C128.822 58.2414 128.763 58.277 128.697 58.3022C128.63 58.3273 128.561 58.3379 128.488 58.3356C128.415 58.3338 128.344 58.3168 128.273 58.2833C128.132 58.2264 128.04 58.1297 127.996 57.9952C127.953 57.8586 127.962 57.722 128.024 57.5813L130.994 50.6966C131.039 50.5874 131.104 50.5055 131.189 50.4509C131.274 50.394 131.373 50.3667 131.486 50.3667C131.593 50.3667 131.69 50.394 131.775 50.4509C131.86 50.5055 131.925 50.5851 131.971 50.6904L134.946 57.5813C135.009 57.7177 135.019 57.8546 134.978 57.9911C134.937 58.1276 134.848 58.2264 134.71 58.2833C134.569 58.3461 134.429 58.3504 134.29 58.3C134.151 58.2474 134.048 58.1507 133.982 58.0101L133.403 56.6476H133.403Z" fill="white"/>
<path d="M137.611 57.2575H142.106V50.9256C142.106 50.7722 142.154 50.6417 142.252 50.5348C142.349 50.4255 142.473 50.3729 142.623 50.3729C142.776 50.3729 142.907 50.4254 143.018 50.5348C143.127 50.6417 143.183 50.7723 143.183 50.9256V57.2575H143.494C143.643 57.2575 143.768 57.3036 143.87 57.396C143.972 57.4905 144.027 57.6148 144.035 57.7683V59.2165C144.035 59.3741 143.984 59.5066 143.88 59.6096C143.776 59.7128 143.65 59.7651 143.5 59.7651C143.343 59.7651 143.213 59.7128 143.113 59.6096C143.015 59.5066 142.964 59.3741 142.964 59.2165V58.3338H137.088C136.955 58.3338 136.84 58.2937 136.743 58.216C136.645 58.1362 136.58 58.0371 136.547 57.9177C136.547 57.9089 136.546 57.9006 136.544 57.8944C136.542 57.8878 136.541 57.8815 136.541 57.8733C136.537 57.8523 136.534 57.8207 136.534 57.7789V50.9256C136.534 50.7722 136.588 50.6417 136.696 50.5348C136.803 50.4255 136.935 50.3729 137.088 50.3729C137.242 50.3729 137.367 50.4254 137.465 50.5348C137.562 50.6417 137.611 50.7723 137.611 50.9256V57.2575V57.2575Z" fill="white"/>
<path d="M146.761 57.804C146.761 57.9533 146.709 58.0793 146.602 58.18C146.497 58.2832 146.371 58.3338 146.226 58.3338C146.077 58.3338 145.949 58.2833 145.843 58.18C145.737 58.0793 145.685 57.9532 145.685 57.804V50.8963C145.685 50.7449 145.737 50.6209 145.843 50.518C145.949 50.417 146.077 50.3666 146.226 50.3666C146.371 50.3666 146.497 50.4169 146.602 50.518C146.708 50.6209 146.761 50.745 146.761 50.8963V57.804V57.804Z" fill="white"/>
<path d="M149.706 53.2171C149.706 53.4546 149.753 53.6796 149.846 53.896C149.94 54.1102 150.069 54.2996 150.233 54.4615C150.397 54.6234 150.591 54.7517 150.817 54.8483C151.043 54.9427 151.291 54.9912 151.562 54.9912H153.317V51.4429H151.543C151.285 51.4429 151.044 51.4909 150.821 51.5857C150.596 51.6824 150.401 51.8107 150.236 51.9725C150.07 52.1344 149.94 52.3215 149.846 52.5358C149.753 52.7482 149.706 52.9775 149.706 53.217V53.2171ZM153.317 56.061H151.668L149.632 58.1717C149.528 58.2746 149.411 58.3293 149.28 58.3315C149.149 58.3338 149.03 58.2812 148.922 58.1781C148.868 58.1276 148.828 58.071 148.801 58.0035C148.774 57.9384 148.759 57.869 148.757 57.8018C148.755 57.7321 148.767 57.6653 148.792 57.5955C148.816 57.5284 148.856 57.4653 148.91 57.4129L150.416 55.8444C150.155 55.7395 149.915 55.6006 149.694 55.4263C149.474 55.2519 149.286 55.0519 149.13 54.8249C148.975 54.5999 148.854 54.3499 148.767 54.0786C148.679 53.8075 148.636 53.5195 148.636 53.2169C148.636 52.8153 148.713 52.4389 148.867 52.0901C149.02 51.7412 149.229 51.4405 149.495 51.1842C149.76 50.9296 150.071 50.7299 150.425 50.5829C150.781 50.4378 151.161 50.3664 151.568 50.3664H153.852C154.002 50.3664 154.128 50.419 154.233 50.522C154.336 50.625 154.388 50.7511 154.388 50.9003V57.8038C154.388 57.953 154.336 58.0791 154.233 58.1798C154.128 58.283 154.002 58.3336 153.852 58.3336C153.703 58.3336 153.577 58.2831 153.473 58.1798C153.369 58.0791 153.317 57.953 153.317 57.8038V56.0609V56.061Z" fill="white"/>
<path d="M169.165 50.3728C169.241 50.3728 169.312 50.3876 169.381 50.4169C169.449 50.4442 169.508 50.4842 169.558 50.5304C169.607 50.579 169.646 50.6355 169.676 50.6985C169.705 50.7639 169.72 50.833 169.72 50.9067C169.72 51.0643 169.666 51.1948 169.558 51.2978C169.45 51.3985 169.319 51.4492 169.165 51.4492H168.755L166.389 54.0705L169.352 57.4065C169.406 57.4634 169.447 57.5285 169.474 57.5957C169.5 57.6653 169.514 57.7344 169.514 57.804C169.514 57.8756 169.499 57.9428 169.471 58.0101C169.442 58.077 169.399 58.1362 169.346 58.1906C169.239 58.2937 169.118 58.3399 168.985 58.3273C168.852 58.3147 168.732 58.256 168.624 58.1467L165.362 54.4866H165.064V57.7789C165.064 57.9343 165.014 58.0645 164.918 58.1717C164.82 58.2789 164.693 58.3338 164.54 58.3338C164.386 58.3338 164.256 58.2812 164.148 58.174C164.041 58.0689 163.986 57.9384 163.986 57.7849V54.4931H163.694L160.462 58.1655C160.36 58.2729 160.241 58.3316 160.108 58.3398C159.975 58.3483 159.853 58.2981 159.74 58.1906C159.687 58.1362 159.647 58.0751 159.62 58.0078C159.593 57.9384 159.579 57.8691 159.579 57.7976C159.579 57.7282 159.591 57.6588 159.616 57.5894C159.642 57.5221 159.681 57.4591 159.734 57.4001L162.68 54.0516L160.32 51.4429H159.94C159.866 51.4429 159.796 51.4281 159.731 51.3985C159.667 51.3714 159.611 51.3311 159.564 51.285C159.516 51.2367 159.478 51.1801 159.448 51.1169C159.419 51.0518 159.405 50.9824 159.405 50.9066C159.405 50.833 159.419 50.7616 159.448 50.6964C159.478 50.6293 159.516 50.5724 159.564 50.524C159.611 50.4777 159.667 50.4379 159.731 50.4105C159.796 50.381 159.866 50.3664 159.94 50.3664H160.582C160.603 50.3664 160.62 50.3664 160.637 50.3687C160.654 50.3705 160.673 50.3747 160.693 50.379C160.805 50.3915 160.899 50.4379 160.973 50.5221L163.513 53.4102H163.986V50.9194C163.986 50.7658 164.041 50.6375 164.148 50.5304C164.256 50.4254 164.386 50.3728 164.54 50.3728C164.694 50.3728 164.82 50.4253 164.918 50.5281C165.014 50.6311 165.064 50.7596 165.064 50.9129V53.4042H165.58L168.089 50.5955L168.176 50.5031C168.242 50.4442 168.31 50.4106 168.381 50.3981C168.406 50.3896 168.432 50.3833 168.456 50.3791C168.481 50.3748 168.508 50.3728 168.537 50.3728H169.165H169.165Z" fill="white"/>
<path d="M172.427 57.804C172.427 57.9533 172.374 58.0793 172.268 58.18C172.163 58.2832 172.037 58.3338 171.892 58.3338C171.742 58.3338 171.614 58.2833 171.509 58.18C171.403 58.0793 171.35 57.9532 171.35 57.804V50.8963C171.35 50.7449 171.403 50.6209 171.509 50.518C171.614 50.417 171.742 50.3666 171.892 50.3666C172.037 50.3666 172.163 50.4169 172.268 50.518C172.374 50.6209 172.427 50.745 172.427 50.8963V57.804V57.804Z" fill="white"/>
<path d="M175.763 53.8266H180.351V50.8962C180.351 50.8206 180.366 50.7511 180.394 50.686C180.424 50.6228 180.464 50.5663 180.513 50.5178C180.563 50.4717 180.62 50.4337 180.684 50.4063C180.748 50.3791 180.818 50.3665 180.893 50.3665C181.042 50.3665 181.168 50.4169 181.269 50.5179C181.371 50.6209 181.423 50.7449 181.423 50.8962V57.8039C181.423 57.9532 181.37 58.0792 181.266 58.1799C181.163 58.2831 181.036 58.3338 180.886 58.3338C180.737 58.3338 180.611 58.2832 180.507 58.1799C180.403 58.0792 180.351 57.9531 180.351 57.8039V54.8967H175.763V57.8039C175.763 57.9532 175.711 58.0792 175.604 58.1799C175.499 58.2831 175.373 58.3338 175.228 58.3338C175.079 58.3338 174.951 58.2832 174.845 58.1799C174.739 58.0792 174.687 57.9531 174.687 57.8039V50.8962C174.687 50.7448 174.739 50.6209 174.845 50.5179C174.951 50.4169 175.079 50.3665 175.228 50.3665C175.373 50.3665 175.499 50.4169 175.604 50.5179C175.711 50.6209 175.763 50.7449 175.763 50.8962V53.8266V53.8266Z" fill="white"/>
<path d="M187.348 51.3798C186.933 51.3798 186.545 51.4597 186.183 51.6151C185.823 51.7707 185.508 51.9831 185.24 52.2564C184.973 52.5275 184.762 52.843 184.609 53.2043C184.455 53.5658 184.378 53.9507 184.378 54.3626C184.378 54.7767 184.455 55.1656 184.609 55.5274C184.762 55.8866 184.973 56.202 185.24 56.4689C185.508 56.736 185.823 56.9482 186.183 57.1038C186.545 57.2594 186.933 57.337 187.348 57.337C187.759 57.337 188.145 57.2594 188.508 57.1038C188.872 56.9481 189.187 56.736 189.455 56.4689C189.722 56.202 189.934 55.8866 190.09 55.5274C190.246 55.1656 190.323 54.7767 190.323 54.3626C190.323 53.9507 190.246 53.5658 190.09 53.2043C189.934 52.843 189.722 52.5275 189.455 52.2564C189.187 51.9831 188.872 51.7706 188.508 51.6151C188.145 51.4597 187.759 51.3798 187.348 51.3798ZM187.341 50.3034C187.714 50.3034 188.074 50.3517 188.419 50.4508C188.763 50.5474 189.085 50.6838 189.386 50.8584C189.687 51.0328 189.961 51.2432 190.208 51.4933C190.455 51.7413 190.666 52.0167 190.843 52.3151C191.019 52.6137 191.156 52.9355 191.254 53.2822C191.351 53.629 191.4 53.9885 191.4 54.3626C191.4 54.9218 191.294 55.4474 191.079 55.937C190.866 56.427 190.576 56.8559 190.208 57.2216C189.841 57.5894 189.411 57.8796 188.919 58.0922C188.427 58.3023 187.902 58.4093 187.341 58.4093C186.968 58.4093 186.607 58.3608 186.262 58.2641C185.915 58.1697 185.592 58.0329 185.294 57.8563C184.994 57.6819 184.723 57.4698 184.478 57.2216C184.233 56.9759 184.024 56.7025 183.849 56.4042C183.675 56.1054 183.54 55.7837 183.445 55.439C183.349 55.0943 183.302 54.737 183.302 54.3626C183.302 53.9886 183.349 53.629 183.445 53.2822C183.54 52.9355 183.675 52.6138 183.849 52.3152C184.024 52.0167 184.233 51.7414 184.478 51.4934C184.723 51.2433 184.994 51.0328 185.294 50.8584C185.592 50.6838 185.915 50.5475 186.262 50.4509C186.607 50.3519 186.968 50.3035 187.341 50.3035L187.341 50.3034Z" fill="white"/>
<path d="M194.35 53.6395H194.823L197.432 50.5221C197.49 50.4718 197.542 50.4357 197.588 50.4169C197.667 50.3834 197.746 50.3666 197.824 50.3666H198.459C198.534 50.3666 198.604 50.3811 198.671 50.4107C198.737 50.438 198.796 50.4778 198.845 50.5241C198.894 50.5725 198.934 50.6294 198.964 50.6926C198.981 50.7318 198.993 50.7727 199 50.8152V50.9954C198.983 51.112 198.932 51.2096 198.848 51.2913C198.742 51.3926 198.613 51.443 198.459 51.443H198.029L195.665 54.2577L198.64 57.4065C198.694 57.4635 198.734 57.5286 198.761 57.5958C198.788 57.6654 198.802 57.7345 198.802 57.8041C198.802 57.8757 198.787 57.9428 198.758 58.0102C198.729 58.0771 198.687 58.1362 198.634 58.1907C198.526 58.2938 198.406 58.34 198.272 58.3274C198.14 58.3148 198.019 58.256 197.912 58.1467L194.662 54.7179H194.35V57.779C194.35 57.9344 194.302 58.0646 194.204 58.1718C194.107 58.279 193.981 58.3339 193.828 58.3339C193.675 58.3339 193.543 58.2813 193.436 58.1741C193.328 58.0689 193.274 57.9385 193.274 57.785V50.9131C193.274 50.7597 193.328 50.6313 193.436 50.5243C193.543 50.4193 193.675 50.3666 193.828 50.3666C193.986 50.3666 194.112 50.417 194.208 50.518C194.303 50.621 194.35 50.7471 194.35 50.9006V53.6397L194.35 53.6395Z" fill="white"/>
<path d="M99.9075 22.5311C99.0358 21.6941 97.9834 21.2869 96.6905 21.2869L93.3419 21.4147C93.2725 21.3981 93.2061 21.3721 93.1319 21.3721H93.0703V21.2134H90.5997C90.5721 21.3011 90.504 21.3721 90.407 21.3721H89.3097C88.7968 21.3721 88.7921 21.7915 88.7921 22.3041H88.7896C88.7896 22.817 88.7968 23.2364 89.3097 23.2364L96.1986 23.2948C98.3113 23.2948 98.755 24.5049 98.755 25.5196C98.755 27.369 97.3649 27.7571 96.1986 27.7571H93.287C93.1675 27.7571 93.0702 27.6599 93.0702 27.5404V22.5767C93.0702 22.4572 92.9736 22.3602 92.854 22.3602H90.8402C90.7205 22.3602 90.6237 22.4571 90.6237 22.5767V28.9785C90.6237 29.2732 90.8552 29.5159 91.1491 29.53L96.0875 29.7657L96.6904 29.7652C97.9828 29.7652 99.0352 29.3564 99.9069 28.5148C100.779 27.6739 101.202 26.6943 101.202 25.5196C101.202 24.3448 100.779 23.3669 99.9074 22.5311L99.9075 22.5311Z" fill="white"/>
<path d="M106.257 18.3925H109.359C110.311 18.3925 110.96 18.579 111.344 18.9635C111.723 19.3428 111.915 19.8545 111.915 20.4841C111.915 21.4441 111.472 22.5887 109.359 22.5887H106.257V18.3924V18.3925ZM109.85 24.5972C111.19 24.5972 112.254 24.2323 113.104 23.4825C113.951 22.7363 114.362 21.7559 114.362 20.4841C114.362 19.2125 113.951 18.2341 113.104 17.4925C112.254 16.7466 111.19 16.3843 109.85 16.3843L104.13 16.6291C103.951 16.6378 103.811 16.7852 103.811 16.9643V25.2532C103.811 26.5544 104.232 27.6087 105.099 28.4761C105.966 29.3435 107.02 29.7651 108.322 29.7651L113.179 29.5249C113.27 29.5201 113.355 29.4781 113.415 29.4086C113.475 29.3395 113.503 29.2493 113.495 29.1583L113.391 28.0609C113.375 27.8885 113.23 27.757 113.057 27.757H109.226C108.101 27.757 107.345 27.5162 106.915 27.0211C106.49 26.5298 106.275 25.731 106.257 24.5777L106.255 24.4585L109.167 24.5975L109.85 24.597V24.5972Z" fill="white"/>
<path d="M93.0991 21.5211C93.1196 20.3811 92.6518 18.0014 95.2202 18.0014H99.8975C100.071 18.0014 100.215 17.8699 100.232 17.6972L100.336 16.5999C100.344 16.5089 100.315 16.4184 100.256 16.3496C100.196 16.2801 100.111 16.2381 100.02 16.2333L94.3166 15.993C90.6511 15.993 90.6511 19.2038 90.6511 20.5047V21.5212H93.0992L93.0991 21.5211Z" fill="white"/>
<path d="M124.568 23.2083V23.2088C124.199 23.6965 123.522 23.944 122.56 23.944H119.458V18.3925H122.56C123.522 18.3925 124.198 18.6395 124.568 19.1274C124.932 19.6068 125.117 20.296 125.117 21.1752C125.117 22.046 124.932 22.7303 124.568 23.2083V23.2083ZM123.051 16.3844L117.332 16.6302C117.153 16.6384 117.012 16.786 117.012 16.9651V29.4298C117.012 29.615 117.162 29.7652 117.347 29.7652H119.122C119.308 29.7652 119.458 29.6149 119.458 29.4298V25.814L122.632 25.9526L123.051 25.9521C124.353 25.9521 125.407 25.5304 126.275 24.6632C127.142 23.7948 127.563 22.7408 127.563 21.4407V20.8957C127.563 19.5958 127.142 18.5418 126.275 17.6734C125.407 16.8063 124.353 16.3843 123.051 16.3843L123.051 16.3844Z" fill="white"/>
<path d="M132.617 18.3925H135.719C136.671 18.3925 137.321 18.579 137.704 18.9635C138.083 19.343 138.276 19.855 138.276 20.4841C138.276 21.4441 137.833 22.5887 135.719 22.5887H132.617V18.3924V18.3925ZM136.211 24.5972C137.551 24.5972 138.615 24.2323 139.465 23.4825C140.311 22.7363 140.722 21.7559 140.722 20.4841C140.722 19.213 140.311 18.2341 139.465 17.4925C138.615 16.7466 137.551 16.3843 136.211 16.3843L130.49 16.6291C130.312 16.6378 130.171 16.7852 130.171 16.9643V25.2532C130.171 26.5539 130.592 27.6079 131.459 28.4761C132.326 29.3435 133.38 29.7651 134.683 29.7651L139.54 29.5249C139.631 29.5201 139.716 29.4781 139.776 29.4086C139.835 29.3395 139.864 29.2493 139.855 29.1583L139.751 28.0609C139.736 27.8885 139.59 27.757 139.417 27.757H135.586C134.461 27.757 133.705 27.5162 133.275 27.0211C132.851 26.5303 132.635 25.7315 132.617 24.5782L132.616 24.4585L135.527 24.5975L136.211 24.597V24.5972Z" fill="white"/>
<path d="M150.385 16.3844H143.811C143.626 16.3844 143.476 16.5347 143.476 16.7201V29.4298C143.476 29.615 143.626 29.7652 143.811 29.7652H145.587C145.772 29.7652 145.922 29.6149 145.922 29.4298V18.3925H150.273C150.448 18.3925 150.593 18.2587 150.608 18.0846L150.72 16.7481C150.728 16.6545 150.695 16.5619 150.632 16.4928C150.568 16.4237 150.479 16.3844 150.385 16.3844H150.385Z" fill="white"/>
<path d="M163.88 16.3844H162.118C161.933 16.3844 161.783 16.5347 161.783 16.7201V27.7571H158.814C158.179 27.7571 157.7 27.7195 157.349 27.6416H157.348C156.987 27.5622 156.679 27.3898 156.434 27.13C156.189 26.8721 156.028 26.5292 155.954 26.11C155.881 25.7023 155.846 25.1526 155.846 24.4297V16.7201C155.846 16.5347 155.695 16.3844 155.51 16.3844H153.735C153.549 16.3844 153.399 16.5347 153.399 16.7201V25.2533C153.399 26.554 153.821 27.608 154.687 28.4761C155.554 29.3435 156.609 29.7652 157.911 29.7652L159.378 29.765L163.899 29.5222C164.076 29.5127 164.216 29.3656 164.216 29.1872V16.7201C164.216 16.5347 164.066 16.3844 163.88 16.3844H163.88Z" fill="white"/>
<path d="M177.555 16.3844H175.793C175.608 16.3844 175.458 16.5347 175.458 16.7201V21.6589H169.521V16.7201C169.521 16.5347 169.37 16.3844 169.185 16.3844H167.41C167.224 16.3844 167.074 16.5347 167.074 16.7201V29.4298C167.074 29.615 167.225 29.7652 167.41 29.7652H169.185C169.37 29.7652 169.521 29.6149 169.521 29.4298V23.6671H175.458V29.4298C175.458 29.615 175.608 29.7652 175.793 29.7652H177.555C177.741 29.7652 177.891 29.6149 177.891 29.4298V16.7201C177.891 16.5347 177.741 16.3844 177.555 16.3844V16.3844Z" fill="white"/>
<path d="M193.274 23.6255C193.274 23.1988 192.925 22.8496 192.498 22.8496H188.978V22.8544H186.255C184.131 22.8544 183.686 21.6449 183.686 20.6302C183.686 19.0126 184.754 18.3973 185.806 18.3329H186.852C189.904 18.3329 189.119 22.005 189.139 23.0751H191.421V20.5673C191.421 19.3462 191.571 16.5766 187.8 16.3844L185.843 16.3841H185.743C184.463 16.3844 183.418 16.794 182.547 17.6353C181.675 18.4754 181.252 19.4545 181.252 20.6302C181.252 21.3856 181.448 22.0929 181.834 22.7318C182.221 23.3722 182.748 23.8841 183.401 24.2531L183.5 24.3087L180.641 29.2619C180.581 29.3658 180.581 29.4939 180.641 29.5976C180.701 29.7015 180.812 29.7652 180.932 29.7652H182.783C182.984 29.7652 183.17 29.658 183.27 29.4841L185.874 24.9727C185.913 24.9061 185.983 24.8635 186.06 24.8597L188.741 24.736C188.87 24.7297 188.978 24.8327 188.978 24.9623V29.2034C188.978 29.5137 189.23 29.7653 189.54 29.7653H190.863C191.174 29.7653 191.425 29.5137 191.425 29.2034V24.978C191.425 24.8528 191.527 24.7515 191.652 24.7515H192.729C193.309 24.7515 193.273 24.2246 193.274 23.6255H193.274Z" fill="white"/>
<path d="M71.7373 33.862C70.5609 34.5324 68.9908 35.0932 67.5133 35.6387C61.4698 37.6413 54.7759 38.4223 48.0019 37.6721C48.0632 37.6959 48.1281 37.7122 48.1895 37.7355C48.1808 37.7345 48.1718 37.7325 48.163 37.7315C54.4412 40.148 59.7983 43.8494 63.9182 48.3117C64.8918 49.4522 65.9432 50.6446 66.5882 51.7563C66.8109 52.1105 66.9362 52.4882 66.9778 52.6795C66.9209 52.7174 66.768 52.8155 66.5189 52.9175C65.3956 53.3987 63.6167 53.8601 61.9559 54.4709C60.2673 55.096 58.5519 55.9163 57.0074 57.0023C55.4805 58.1077 54.1933 59.4193 53.1314 60.7585C52.0875 62.0741 51.1745 63.5263 50.3972 64.4029C50.2278 64.5994 50.084 64.7127 50.0309 64.7528C49.8334 64.6729 49.4526 64.4747 49.1211 64.1945C48.5545 63.7486 47.9905 63.1898 47.4327 62.5973C48.4383 59.2008 49.3699 55.7903 49.7598 52.1408C49.8629 51.2258 49.8903 50.2323 49.8514 49.2659C49.8136 48.3387 49.7252 47.4088 49.5901 46.4821C49.322 44.629 48.8609 42.7807 48.241 41.0266C47.6447 39.2655 46.9198 37.6086 46.4147 36.0569C45.9153 34.4989 45.666 33.0323 45.7775 31.5019C45.8923 29.9851 46.2759 28.3813 46.8825 26.8515C49.0908 21.2832 58.5314 17.4694 64.6669 15.277C64.702 15.4394 64.7294 15.5691 64.7336 15.5959C64.9236 16.7044 64.9048 18.3746 65.0787 19.9851C65.2601 21.6235 65.6409 23.3415 66.3526 24.9874C67.0905 26.6235 68.1153 28.1113 69.234 29.4124C70.333 30.691 71.6142 31.8954 72.3233 32.8181C72.4837 33.0208 72.5626 33.1774 72.5899 33.2348C72.4485 33.3826 72.1293 33.6557 71.7372 33.8619L71.7373 33.862ZM30.5025 36.0571C29.9974 37.6087 29.2726 39.2657 28.6762 41.0268C28.0563 42.7809 27.5953 44.6293 27.3271 46.4823C27.1924 47.409 27.1039 48.3389 27.0655 49.2661C27.027 50.2325 27.0542 51.226 27.1575 52.141C27.5473 55.7905 28.4793 59.201 29.4845 62.5975C28.9267 63.19 28.3627 63.7488 27.7961 64.1947C27.4649 64.4749 27.0837 64.6731 26.8864 64.753C26.8333 64.7129 26.6894 64.5995 26.52 64.4031C25.7428 63.5265 24.8298 62.0743 23.7858 60.7587C22.7238 59.4194 21.4369 58.1079 19.91 57.0025C18.3655 55.9166 16.6497 55.0962 14.9616 54.4711C13.3007 53.8603 11.5217 53.3988 10.3985 52.9178C10.1494 52.8158 9.99635 52.7176 9.93968 52.6798C9.98115 52.4883 10.1066 52.1107 10.3292 51.7565C10.9742 50.6448 12.0254 49.4525 12.9992 48.3119C17.1188 43.8496 22.4761 40.1482 28.7542 37.7317C28.7455 37.7327 28.7367 37.7347 28.7276 37.7357C28.7893 37.7124 28.8542 37.6961 28.9154 37.6723C22.1414 38.4225 15.4473 37.6415 9.40399 35.6389C7.92651 35.0934 6.35643 34.5327 5.17996 33.8622C4.78785 33.656 4.46866 33.3829 4.32735 33.2351C4.35462 33.1777 4.43351 33.0211 4.59406 32.8185C5.30295 31.8958 6.58402 30.6913 7.68309 29.4127C8.80191 28.1117 9.82692 26.6239 10.5645 24.9877C11.2763 23.3419 11.6572 21.6238 11.8384 19.9855C12.0124 18.375 11.9938 16.7047 12.1838 15.5963C12.1879 15.5695 12.2153 15.4397 12.2503 15.2774C18.3859 17.4697 27.8266 21.2836 30.0346 26.8518C30.6413 28.3816 31.0249 29.9855 31.1399 31.5023C31.2511 33.0326 31.0018 34.4994 30.5024 36.0573L30.5025 36.0571ZM76.8155 32.3698C76.6371 31.6647 76.3369 31.1531 76.0598 30.7311C75.492 29.872 74.9195 29.2714 74.385 28.6574C73.8497 28.0558 73.3462 27.4891 72.8857 26.9183C71.9548 25.7873 71.1936 24.6456 70.6676 23.4407C70.1374 22.2378 69.8169 20.9372 69.639 19.5373C69.5396 18.8373 69.4748 18.1132 69.4067 17.3443C69.3261 16.567 69.2903 15.775 69.0489 14.7982C68.9768 14.5093 68.8783 14.188 68.7279 13.8441C68.7294 13.8436 68.7315 13.8428 68.7327 13.8423L68.7014 13.7847C68.6069 13.5768 68.4987 13.363 68.3511 13.1373C68.3479 13.1318 68.3434 13.1263 68.3389 13.1211L68.2758 13.0055C64.5401 13.5052 60.4487 14.3327 56.9116 15.6355C54.3673 16.6064 52.015 17.3586 49.8042 18.6005C51.2327 15.7375 52.1773 12.6394 52.6196 9.484C52.807 7.90074 53.0059 6.3782 52.8482 4.63766C52.7309 3.76097 52.6968 2.82897 51.8561 1.61018C51.44 1.0104 50.5953 0.386558 49.722 0.172267C49.2218 0.0404826 48.7727 -0.000273949 48.3695 0.000152077C48.0753 0.000436095 47.8056 0.0225895 47.5586 0.047228C46.4095 0.191367 45.5661 0.463385 44.7497 0.689392C43.9394 0.922926 43.1836 1.14368 42.4415 1.32573C41.0729 1.67926 39.7539 1.88802 38.4588 1.91606C37.1633 1.88802 35.8446 1.67926 34.4757 1.32573C33.7336 1.14361 32.9779 0.922926 32.1676 0.689392C31.3512 0.463385 30.508 0.191296 29.359 0.047228C29.1118 0.0225895 28.8421 0.000436095 28.5479 0.000152077C28.1448 -0.000273949 27.6956 0.0404116 27.1956 0.172267C26.3224 0.386558 25.4774 1.0104 25.0612 1.61018C24.2207 2.8289 24.1866 3.76097 24.0692 4.63766C23.9113 6.3782 24.1102 7.90081 24.2977 9.484C24.7401 12.6394 25.6846 15.7373 27.1133 18.6003C24.9025 17.3586 22.5502 16.6064 20.0058 15.6355C16.4685 14.3327 12.3773 13.5051 8.64164 13.0055L8.57851 13.1211C8.57411 13.1263 8.56943 13.1318 8.56609 13.1373C8.41867 13.363 8.3101 13.5768 8.21594 13.7847L8.18449 13.8423C8.18584 13.8428 8.18782 13.8436 8.18932 13.8441C8.03913 14.188 7.94057 14.5093 7.86843 14.7982C7.62721 15.775 7.59149 16.567 7.51075 17.3443C7.44244 18.1132 7.37775 18.8373 7.27834 19.5373C7.10039 20.9372 6.78007 22.2378 6.24992 23.4407C5.72396 24.6456 4.9626 25.7873 4.03182 26.9183C3.57125 27.4891 3.06759 28.0558 2.53225 28.6574C1.99798 29.2714 1.42529 29.872 0.857577 30.7311C0.580287 31.1531 0.280132 31.6646 0.101829 32.3698C0.0355776 32.6067 0.000783294 32.8765 7.32047e-05 33.1575C-0.00134697 33.694 0.121498 34.2711 0.38693 34.737C0.77336 35.4494 1.30046 35.9246 1.76379 36.2485C2.24218 36.5983 2.69678 36.8336 3.14562 37.0559C4.92092 37.9052 6.59517 38.2963 8.31571 38.7446C12.5412 39.7363 16.9589 40.0224 21.2055 39.5336C17.195 41.0271 13.473 43.3001 10.3233 46.1065C9.69435 46.6748 9.09915 47.2748 8.484 47.8623C7.89534 48.4864 7.32386 49.1359 6.78504 49.9055C6.51961 50.3007 6.25652 50.7101 6.03625 51.2295C5.81428 51.7196 5.62526 52.3705 5.68469 53.1622C5.72829 53.9602 6.20298 54.833 6.75281 55.3428C7.29886 55.8732 7.84315 56.1806 8.31749 56.4209C9.28605 56.9088 10.1169 57.1662 10.9193 57.4583C11.7165 57.7368 12.467 57.9999 13.1823 58.2858C14.6178 58.8398 15.9078 59.4887 17.0338 60.291C18.1631 61.0903 19.1581 62.0746 20.0933 63.2026C20.5678 63.7643 21.0257 64.3616 21.5116 64.9962C22.011 65.6339 22.4852 66.301 23.2353 67.0373C23.6042 67.3975 24.0618 67.8034 24.7595 68.1592C25.436 68.5228 26.4859 68.7359 27.3551 68.5891C28.2223 68.4589 28.8775 68.1389 29.3542 67.831C29.8623 67.5173 30.2424 67.1916 30.6065 66.8669C30.6793 66.8003 30.7382 66.7319 30.8079 66.665C32.4712 71.5522 34.3978 76.3484 36.611 81.0486H37.0197C35.5509 74.7087 33.9883 68.416 32.697 62.1235C32.3421 60.4062 32.0227 58.6874 31.7636 56.9744C31.4837 55.2669 31.2665 53.5554 31.1828 51.8993C31.1272 51.0579 31.145 50.2857 31.2121 49.4932C31.295 48.6616 31.4083 47.8375 31.5471 47.0195C31.8393 45.3831 32.2913 43.7914 32.8619 42.1846C33.4301 40.5775 34.1546 38.948 34.7258 37.1067C35.3172 35.2812 35.6211 33.2011 35.3969 31.213C35.1958 29.2141 34.5852 27.37 33.8119 25.6016C32.9588 23.7553 31.6919 22.1456 30.2131 20.8191C28.7896 17.025 28.0283 13.1142 27.9119 9.24166C27.9224 7.82228 27.9176 6.32104 28.1369 5.06298C28.2048 4.61743 28.3551 4.17173 28.4679 3.94878C28.526 3.95325 28.6095 3.95978 28.7202 3.97981C29.2226 4.07353 29.9672 4.29123 30.7325 4.54152C31.504 4.78933 32.3274 5.05844 33.1884 5.29801C34.8225 5.74427 36.6138 6.06215 38.4588 6.10305C40.3035 6.06215 42.0945 5.74427 43.729 5.29801C44.5897 5.05844 45.4135 4.78933 46.185 4.54152C46.95 4.29123 47.6947 4.07353 48.1969 3.97981C48.3078 3.95978 48.3913 3.95325 48.4497 3.94878C48.5621 4.17173 48.7125 4.61743 48.7804 5.06298C48.9999 6.32097 48.9951 7.82228 49.0057 9.24166C48.8892 13.1142 48.1277 17.025 46.7043 20.8194C45.2254 22.1456 43.9585 23.7553 43.1056 25.6016C42.332 27.37 41.7217 29.2141 41.5205 31.213C41.2964 33.2011 41.6001 35.2811 42.1914 37.1067C42.7628 38.948 43.4871 40.5775 44.0557 42.1846C44.626 43.7914 45.078 45.3831 45.3702 47.0195C45.5092 47.8375 45.6225 48.6616 45.7052 49.4932C45.7725 50.2857 45.7901 51.0579 45.7348 51.8993C45.6508 53.5554 45.4335 55.2669 45.1534 56.9744C44.8946 58.6874 44.5751 60.4062 44.2206 62.1235C42.9289 68.416 41.3667 74.7087 39.8976 81.0486H40.3065C42.5195 76.3484 44.4464 71.5522 46.1094 66.665C46.179 66.7318 46.2379 66.8002 46.3109 66.8669C46.6749 67.1916 47.0551 67.5173 47.5632 67.831C48.0398 68.1389 48.695 68.4588 49.5621 68.5891C50.4314 68.736 51.4813 68.5228 52.1578 68.1592C52.8556 67.8034 53.3131 67.3975 53.6822 67.0373C54.4322 66.3009 54.9064 65.6339 55.4058 64.9962C55.8915 64.3616 56.3497 63.7643 56.8241 63.2026C57.7594 62.0746 58.7542 61.0903 59.8837 60.291C61.0096 59.4887 62.2997 58.8398 63.735 58.2858C64.4504 57.9999 65.201 57.7368 65.9979 57.4583C66.8007 57.1662 67.6313 56.9088 68.5997 56.4209C69.0743 56.1806 69.6185 55.8732 70.1645 55.3428C70.7145 54.833 71.1891 53.9602 71.2327 53.1622C71.2921 52.3705 71.1029 51.7196 70.8811 51.2295C70.6609 50.7101 70.3978 50.3007 70.1322 49.9055C69.5935 49.1358 69.0222 48.4864 68.4334 47.8623C67.8183 47.2748 67.2231 46.6748 66.5939 46.1065C63.4445 43.3001 59.7224 41.0271 55.712 39.5336C59.9583 40.0224 64.3762 39.7363 68.6017 38.7446C70.3221 38.2963 71.9964 37.9052 73.7718 37.0559C74.2207 36.8336 74.6752 36.5983 75.1535 36.2485C75.6168 35.9246 76.144 35.4493 76.5304 34.737C76.935 34.0272 77.0082 33.0588 76.8155 32.3699V32.3698Z" fill="white"/>
<path d="M28.9445 31.5267C28.9445 31.5267 25.0759 24.0423 16.3715 21.2671C16.3715 21.2671 21.838 25.6821 24.7396 29.046L13.1756 25.1354L24.8236 31.1063C24.8236 31.1063 18.474 32.1152 13.1756 32.0313C13.1756 32.0313 25.9588 34.2179 28.9446 31.5267H28.9445Z" fill="white"/>
<path d="M28.9293 46.4594L28.4639 42.7816C25.5093 43.7177 21.0065 45.7762 17.5173 50.1798C17.5173 50.1798 23.5802 46.6275 27.7528 45.1029L20.0062 54.5367L28.9293 46.4593V46.4594Z" fill="white"/>
<path d="M48.167 46.4594L48.6325 42.7816C51.5872 43.7177 56.0896 45.7762 59.5788 50.1798C59.5788 50.1798 53.5161 46.6275 49.3434 45.1029L57.0902 54.5367L48.167 46.4593V46.4594Z" fill="white"/>
<path d="M48.8342 31.5267C48.8342 31.5267 52.703 24.0423 61.4074 21.2671C61.4074 21.2671 55.9408 25.6821 53.0392 29.046L64.6031 25.1354L52.9553 31.1063C52.9553 31.1063 59.3049 32.1152 64.6031 32.0313C64.6031 32.0313 51.8197 34.2179 48.8342 31.5267H48.8342Z" fill="white"/>
<path d="M47.7543 17.5725C47.7543 17.5725 46.9089 19.5623 45.752 20.541C44.8615 21.294 43.64 21.237 43.3779 20.5065C42.8855 19.1351 44.1407 18.2059 44.4679 15.2321C44.8548 11.7161 42.8813 8.64389 38.7929 8.64389C33.1759 8.64389 31.2811 14.9159 35.4265 20.1071C35.4265 20.1071 33.1884 11.3994 38.7796 11.6893C41.4326 11.8266 42.5631 14.1237 40.881 18.7133C39.3866 22.7914 41.756 26.1781 47.9275 24.1211L47.7543 17.5726V17.5725Z" fill="white"/>
</g>
<defs>
<clipPath id="clip0_140_434">
<rect width="199" height="81.0485" fill="white"/>
</clipPath>
</defs>
</svg>
