<svg width="212" height="71" viewBox="0 0 212 71" fill="none" xmlns="http://www.w3.org/2000/svg">
<path d="M90.37 27.45C88.24 27.45 86.385 26.985 84.805 26.055C83.225 25.115 82.01 23.795 81.16 22.095C80.32 20.395 79.9 18.43 79.9 16.2C79.9 13.97 80.32 12.005 81.16 10.305C82.01 8.605 83.225 7.29 84.805 6.36C86.385 5.42 88.24 4.95 90.37 4.95C92 4.95 93.47 5.225 94.78 5.775C96.09 6.325 97.2 7.115 98.11 8.145C99.03 9.165 99.72 10.38 100.18 11.79L96.07 12.93C95.66 11.6 94.975 10.58 94.015 9.87C93.055 9.15 91.84 8.79 90.37 8.79C89.02 8.79 87.885 9.095 86.965 9.705C86.045 10.305 85.35 11.16 84.88 12.27C84.42 13.37 84.19 14.68 84.19 16.2C84.19 17.72 84.42 19.035 84.88 20.145C85.35 21.245 86.045 22.1 86.965 22.71C87.885 23.31 89.02 23.61 90.37 23.61C91.84 23.61 93.055 23.255 94.015 22.545C94.975 21.825 95.66 20.8 96.07 19.47L100.18 20.61C99.72 22.02 99.03 23.24 98.11 24.27C97.2 25.29 96.09 26.075 94.78 26.625C93.47 27.175 92 27.45 90.37 27.45ZM103.783 5.4H107.863V27H103.783V5.4ZM119.89 27.45C118.25 27.45 116.79 27.095 115.51 26.385C114.24 25.675 113.245 24.685 112.525 23.415C111.815 22.145 111.46 20.71 111.46 19.11C111.46 17.37 111.805 15.84 112.495 14.52C113.195 13.19 114.165 12.165 115.405 11.445C116.645 10.715 118.06 10.35 119.65 10.35C121.21 10.35 122.565 10.695 123.715 11.385C124.865 12.075 125.745 13.055 126.355 14.325C126.975 15.595 127.285 17.085 127.285 18.795C127.285 19.065 127.265 19.48 127.225 20.04H115.855C116.005 21.2 116.4 22.09 117.04 22.71C117.69 23.33 118.56 23.64 119.65 23.64C120.44 23.64 121.12 23.465 121.69 23.115C122.27 22.765 122.71 22.26 123.01 21.6L127.09 22.77C126.69 23.74 126.125 24.58 125.395 25.29C124.665 25.99 123.825 26.525 122.875 26.895C121.925 27.265 120.93 27.45 119.89 27.45ZM123.1 17.01C122.96 15.92 122.625 15.13 122.095 14.64C121.575 14.14 120.82 13.89 119.83 13.89C117.68 13.89 116.39 14.93 115.96 17.01H123.1ZM134.819 27.45C133.699 27.45 132.729 27.235 131.909 26.805C131.099 26.365 130.479 25.77 130.049 25.02C129.629 24.27 129.419 23.44 129.419 22.53C129.419 21.35 129.694 20.355 130.244 19.545C130.794 18.735 131.699 18.1 132.959 17.64C133.659 17.38 134.514 17.16 135.524 16.98C136.534 16.79 137.989 16.555 139.889 16.275C139.809 15.515 139.529 14.96 139.049 14.61C138.579 14.25 137.869 14.07 136.919 14.07C136.229 14.07 135.574 14.23 134.954 14.55C134.334 14.87 133.909 15.37 133.679 16.05L129.989 14.88C130.409 13.48 131.199 12.375 132.359 11.565C133.519 10.755 135.039 10.35 136.919 10.35C140.109 10.35 142.219 11.33 143.249 13.29C143.539 13.83 143.719 14.38 143.789 14.94C143.869 15.49 143.909 16.21 143.909 17.1V27H140.339V25.02C139.619 25.88 138.829 26.5 137.969 26.88C137.109 27.26 136.059 27.45 134.819 27.45ZM133.409 22.47C133.409 23.02 133.609 23.455 134.009 23.775C134.419 24.085 134.979 24.24 135.689 24.24C136.379 24.24 136.984 24.12 137.504 23.88C138.024 23.63 138.439 23.34 138.749 23.01C139.069 22.68 139.299 22.37 139.439 22.08C139.699 21.55 139.839 20.715 139.859 19.575C138.449 19.815 137.414 20.005 136.754 20.145C136.094 20.285 135.539 20.44 135.089 20.61C134.499 20.85 134.069 21.12 133.799 21.42C133.539 21.71 133.409 22.06 133.409 22.47ZM158.849 19.35C158.849 18.53 158.789 17.76 158.669 17.04C158.549 16.32 158.229 15.66 157.709 15.06C157.199 14.46 156.419 14.16 155.369 14.16C154.429 14.16 153.619 14.485 152.939 15.135C152.259 15.775 151.919 16.99 151.919 18.78V27H147.779V10.8H151.409V12.465C152.019 11.785 152.764 11.26 153.644 10.89C154.524 10.51 155.529 10.32 156.659 10.32C158.559 10.32 159.974 10.805 160.904 11.775C161.844 12.745 162.424 13.77 162.644 14.85C162.874 15.93 162.989 16.95 162.989 17.91V27H158.849V19.35ZM167.181 4.95H171.261V8.55H167.181V4.95ZM167.181 10.8H171.261V27H167.181V10.8ZM186.798 19.35C186.798 18.53 186.738 17.76 186.618 17.04C186.498 16.32 186.178 15.66 185.658 15.06C185.148 14.46 184.368 14.16 183.318 14.16C182.378 14.16 181.568 14.485 180.888 15.135C180.208 15.775 179.868 16.99 179.868 18.78V27H175.728V10.8H179.358V12.465C179.968 11.785 180.713 11.26 181.593 10.89C182.473 10.51 183.478 10.32 184.608 10.32C186.508 10.32 187.923 10.805 188.853 11.775C189.793 12.745 190.373 13.77 190.593 14.85C190.823 15.93 190.938 16.95 190.938 17.91V27H186.798V19.35ZM201.76 34.65C200.4 34.65 199.14 34.33 197.98 33.69C196.82 33.05 195.93 32.2 195.31 31.14L199.09 29.31C199.34 29.78 199.705 30.14 200.185 30.39C200.675 30.65 201.21 30.78 201.79 30.78C202.42 30.78 203 30.675 203.53 30.465C204.07 30.255 204.5 29.945 204.82 29.535C205.14 29.125 205.29 28.63 205.27 28.05V26.415C204.17 27.105 202.88 27.45 201.4 27.45C199.94 27.45 198.64 27.08 197.5 26.34C196.37 25.59 195.49 24.565 194.86 23.265C194.24 21.965 193.93 20.51 193.93 18.9C193.93 17.26 194.245 15.79 194.875 14.49C195.515 13.19 196.415 12.175 197.575 11.445C198.745 10.715 200.09 10.35 201.61 10.35C203.24 10.35 204.63 10.8 205.78 11.7V10.8H209.35V28.11C209.35 28.96 209.27 29.69 209.11 30.3C208.73 31.73 207.875 32.81 206.545 33.54C205.225 34.28 203.63 34.65 201.76 34.65ZM198.25 18.9C198.25 20.35 198.57 21.535 199.21 22.455C199.85 23.365 200.8 23.82 202.06 23.82C204.54 23.82 205.78 22.18 205.78 18.9C205.78 17.36 205.49 16.155 204.91 15.285C204.34 14.415 203.44 13.98 202.21 13.98C201.33 13.98 200.595 14.2 200.005 14.64C199.415 15.07 198.975 15.655 198.685 16.395C198.395 17.135 198.25 17.97 198.25 18.9Z" fill="black"/>
<path d="M89.26 57.45C87.67 57.45 86.225 57.165 84.925 56.595C83.635 56.025 82.58 55.21 81.76 54.15C80.94 53.09 80.42 51.84 80.2 50.4L84.46 49.77C84.66 50.58 85.005 51.28 85.495 51.87C85.985 52.45 86.575 52.89 87.265 53.19C87.965 53.49 88.72 53.64 89.53 53.64C90.22 53.64 90.88 53.535 91.51 53.325C92.14 53.105 92.65 52.785 93.04 52.365C93.44 51.945 93.64 51.45 93.64 50.88C93.64 50.4 93.485 49.98 93.175 49.62C92.865 49.26 92.32 48.96 91.54 48.72L85.93 47.07C85.11 46.84 84.355 46.545 83.665 46.185C82.985 45.825 82.375 45.255 81.835 44.475C81.305 43.695 81.04 42.68 81.04 41.43C81.04 40.04 81.39 38.86 82.09 37.89C82.8 36.92 83.755 36.195 84.955 35.715C86.165 35.225 87.52 34.98 89.02 34.98C91.28 34.98 93.165 35.53 94.675 36.63C96.195 37.72 97.22 39.28 97.75 41.31L93.34 42.06C93.18 41.36 92.875 40.765 92.425 40.275C91.985 39.785 91.455 39.415 90.835 39.165C90.225 38.915 89.575 38.79 88.885 38.79C88.255 38.79 87.67 38.89 87.13 39.09C86.59 39.29 86.155 39.575 85.825 39.945C85.495 40.315 85.33 40.74 85.33 41.22C85.33 41.85 85.59 42.335 86.11 42.675C86.63 43.015 87.33 43.3 88.21 43.53L91.96 44.55C93.03 44.84 93.975 45.175 94.795 45.555C95.625 45.935 96.355 46.535 96.985 47.355C97.615 48.175 97.93 49.25 97.93 50.58C97.93 52.06 97.525 53.32 96.715 54.36C95.915 55.39 94.855 56.165 93.535 56.685C92.215 57.195 90.79 57.45 89.26 57.45ZM108.757 57.45C107.117 57.45 105.657 57.095 104.377 56.385C103.107 55.675 102.112 54.685 101.392 53.415C100.682 52.145 100.327 50.71 100.327 49.11C100.327 47.37 100.672 45.84 101.362 44.52C102.062 43.19 103.032 42.165 104.272 41.445C105.512 40.715 106.927 40.35 108.517 40.35C110.077 40.35 111.432 40.695 112.582 41.385C113.732 42.075 114.612 43.055 115.222 44.325C115.842 45.595 116.152 47.085 116.152 48.795C116.152 49.065 116.132 49.48 116.092 50.04H104.722C104.872 51.2 105.267 52.09 105.907 52.71C106.557 53.33 107.427 53.64 108.517 53.64C109.307 53.64 109.987 53.465 110.557 53.115C111.137 52.765 111.577 52.26 111.877 51.6L115.957 52.77C115.557 53.74 114.992 54.58 114.262 55.29C113.532 55.99 112.692 56.525 111.742 56.895C110.792 57.265 109.797 57.45 108.757 57.45ZM111.967 47.01C111.827 45.92 111.492 45.13 110.962 44.64C110.442 44.14 109.687 43.89 108.697 43.89C106.547 43.89 105.257 44.93 104.827 47.01H111.967ZM119.479 40.8H123.079V43.41C123.529 42.6 124.109 41.99 124.819 41.58C125.729 41.02 126.809 40.74 128.059 40.74C128.399 40.74 128.709 40.76 128.989 40.8V44.61C128.679 44.51 128.294 44.46 127.834 44.46C127.074 44.46 126.399 44.6 125.809 44.88C125.089 45.21 124.539 45.7 124.159 46.35C123.779 47 123.589 47.79 123.589 48.72V57H119.479V40.8ZM130.342 40.8H134.422L138.262 52.02L142.102 40.8H146.182L140.302 57H136.222L130.342 40.8ZM149.193 34.95H153.273V38.55H149.193V34.95ZM149.193 40.8H153.273V57H149.193V40.8ZM164.91 57.45C163.27 57.45 161.84 57.08 160.62 56.34C159.41 55.6 158.48 54.585 157.83 53.295C157.19 51.995 156.87 50.53 156.87 48.9C156.87 47.26 157.2 45.795 157.86 44.505C158.53 43.205 159.475 42.19 160.695 41.46C161.925 40.72 163.35 40.35 164.97 40.35C166.23 40.35 167.365 40.57 168.375 41.01C169.395 41.44 170.235 42.065 170.895 42.885C171.565 43.695 172.02 44.65 172.26 45.75L168.18 46.83C167.94 46 167.525 45.35 166.935 44.88C166.345 44.4 165.67 44.16 164.91 44.16C163.67 44.16 162.74 44.595 162.12 45.465C161.5 46.335 161.19 47.48 161.19 48.9C161.19 50.35 161.51 51.505 162.15 52.365C162.79 53.215 163.71 53.64 164.91 53.64C165.79 53.64 166.475 53.44 166.965 53.04C167.465 52.64 167.84 52.03 168.09 51.21L172.26 52.08C171.8 53.8 170.93 55.125 169.65 56.055C168.37 56.985 166.79 57.45 164.91 57.45ZM182.351 57.45C180.711 57.45 179.251 57.095 177.971 56.385C176.701 55.675 175.706 54.685 174.986 53.415C174.276 52.145 173.921 50.71 173.921 49.11C173.921 47.37 174.266 45.84 174.956 44.52C175.656 43.19 176.626 42.165 177.866 41.445C179.106 40.715 180.521 40.35 182.111 40.35C183.671 40.35 185.026 40.695 186.176 41.385C187.326 42.075 188.206 43.055 188.816 44.325C189.436 45.595 189.746 47.085 189.746 48.795C189.746 49.065 189.726 49.48 189.686 50.04H178.316C178.466 51.2 178.861 52.09 179.501 52.71C180.151 53.33 181.021 53.64 182.111 53.64C182.901 53.64 183.581 53.465 184.151 53.115C184.731 52.765 185.171 52.26 185.471 51.6L189.551 52.77C189.151 53.74 188.586 54.58 187.856 55.29C187.126 55.99 186.286 56.525 185.336 56.895C184.386 57.265 183.391 57.45 182.351 57.45ZM185.561 47.01C185.421 45.92 185.086 45.13 184.556 44.64C184.036 44.14 183.281 43.89 182.291 43.89C180.141 43.89 178.851 44.93 178.421 47.01H185.561Z" fill="#0477BF"/>
<path opacity="0.25" d="M33.8161 0H8.2782C5.51677 0 3.2782 2.23858 3.2782 5V21.4514C3.2782 24.2128 5.51678 26.4514 8.2782 26.4514H33.8161C36.5775 26.4514 38.8161 24.2128 38.8161 21.4514V5C38.8161 2.23858 36.5775 0 33.8161 0Z" fill="#66ADD9"/>
<path opacity="0.25" d="M55.1909 0H48.816C46.0546 0 43.816 2.23858 43.816 5V21.4514C43.816 24.2128 46.0546 26.4514 48.816 26.4514H55.1909C57.9524 26.4514 60.1909 24.2128 60.1909 21.4514V5C60.1909 2.23858 57.9524 0 55.1909 0Z" fill="#66ADD9"/>
<path opacity="0.25" d="M55.1909 31H48.816C46.0546 31 43.816 33.2386 43.816 36V51.4665C43.816 54.2279 46.0546 56.4665 48.816 56.4665H55.1909C57.9524 56.4665 60.1909 54.2279 60.1909 51.4665V36C60.1909 33.2386 57.9524 31 55.1909 31Z" fill="#66ADD9"/>
<path d="M1.80315 58.7162H40.7807C41.7757 58.7162 42.5838 57.9081 42.5838 56.9131H0C0.00505086 57.9081 0.808134 58.7162 1.80315 58.7162Z" fill="#0477BF"/>
<path d="M21.9509 60.2715H20.2336H2.13635C2.13635 60.2715 2.21717 65.2668 7.13166 65.2668C11.9855 65.2668 16.4303 65.191 18.5163 67.9539V70.9995H23.5924V68.0498C25.638 65.1809 30.1434 65.2668 35.0579 65.2668C39.9724 65.2668 40.0532 60.2715 40.0532 60.2715H21.9509Z" fill="#0477BF"/>
<path d="M33.5278 30.5479L32.7702 42.1749L31.9823 54.292L31.1893 42.1749L30.4316 30.5479H14.6679L13.5668 39.6293L12.4102 49.1956L11.2485 39.6293L10.1524 30.5479H3.2782V56.9992H38.8211V30.5479H33.5278Z" fill="#66ADD9"/>
<path d="M51.5289 26.8088C51.5643 26.8088 51.5997 26.8037 51.635 26.8037C51.5643 26.8037 51.4936 26.8037 51.4229 26.8037C46.2659 26.632 43.9779 20.2932 43.9021 17H43.892C43.8163 20.2932 41.5232 26.6269 36.3662 26.8037C36.2955 26.8037 36.2248 26.8037 36.1541 26.8037C36.1895 26.8037 36.2248 26.8088 36.2602 26.8088C36.2248 26.8088 36.1895 26.8138 36.1541 26.8138C36.2299 26.8138 36.2955 26.8138 36.3662 26.8138C41.5232 26.9856 43.8112 33.3244 43.892 36.6176H43.9021C43.9779 33.3244 46.271 26.9856 51.4229 26.8138C51.4936 26.8138 51.5643 26.8138 51.635 26.8138C51.5997 26.8138 51.5643 26.8088 51.5289 26.8088Z" fill="#66ADD9"/>
<path d="M36.2398 18.8351C36.1994 18.8351 36.159 18.8351 36.1186 18.8351C33.1992 18.7391 31.9011 15.1479 31.8557 13.2842H31.8506C31.8052 15.1479 30.5071 18.7391 27.5877 18.8351C30.5071 18.931 31.8052 22.5222 31.8506 24.386H31.8557C31.9011 22.5222 33.1992 18.931 36.1186 18.8351C36.159 18.8351 36.1994 18.8351 36.2398 18.8351Z" fill="#66ADD9"/>
</svg>
