<svg width="118" height="94" viewBox="0 0 118 94" fill="none" xmlns="http://www.w3.org/2000/svg">
<path d="M59.6215 78.8672C58.3882 78.8282 57.3912 78.3127 56.532 77.4502C53.6583 74.5628 50.7682 71.6897 47.8863 68.8105C39.2406 60.1729 30.595 51.5332 21.9493 42.8935C21.682 42.6265 21.4086 42.3657 21.1702 42.0761C19.8711 40.5112 19.869 38.3631 21.1661 36.7983C21.384 36.5354 21.6286 36.2951 21.8711 36.0528C33.3268 24.6078 44.7824 13.1628 56.2401 1.71788C56.53 1.42831 56.8177 1.13053 57.1405 0.877936C58.6369 -0.290588 60.6843 -0.292642 62.1848 0.871776C62.4808 1.10178 62.746 1.37287 63.0132 1.63984C74.5182 13.132 86.0191 24.6304 97.5343 36.1123C98.856 37.4308 99.5467 38.9156 98.8869 40.7289C98.6176 41.4662 98.0852 42.1644 97.5199 42.7312C90.9298 49.3584 84.3109 55.9567 77.6981 62.5633C72.7566 67.5003 67.8109 72.429 62.8796 77.3742C61.9669 78.2881 60.9309 78.861 59.6215 78.8672ZM60.0696 0.674626C58.454 0.695162 57.5721 1.33795 56.7458 2.16557C45.2737 13.6434 33.7893 25.1089 22.309 36.5785C22.163 36.7243 22.015 36.866 21.8773 37.018C20.5412 38.4864 20.535 40.3695 21.8609 41.8297C22.0438 42.033 22.2432 42.2219 22.4364 42.417C27.4499 47.4259 32.4655 52.4327 37.479 57.4415C43.8985 63.853 50.3119 70.2706 56.7417 76.6718C57.2186 77.1462 57.7571 77.633 58.3615 77.8938C59.897 78.5592 61.2146 78.0663 62.3616 76.9162C66.3987 72.8664 70.4482 68.831 74.4935 64.7895C81.9778 57.3121 89.4683 49.841 96.9361 42.3493C97.4562 41.8276 97.966 41.2115 98.227 40.54C98.817 39.0224 98.225 37.7696 97.115 36.6627C85.5524 25.1294 74.0022 13.5838 62.4479 2.04235C62.23 1.82467 62.0265 1.56385 61.7614 1.43037C61.1036 1.09973 60.417 0.826596 60.0696 0.674626Z" fill="#242424"/>
<path d="M110.408 93.0887C106.587 93.1585 102.866 90.5155 102.928 85.4122C102.986 80.543 107.391 78.093 110.647 78.2101C114.727 78.3559 118.047 81.5678 117.999 85.7059C117.944 90.419 114.248 93.2386 110.408 93.0887ZM110.427 88.735C111.977 89.0554 113.607 87.2276 113.557 85.7059C113.51 84.3032 112.429 82.6583 110.41 82.6192C108.77 82.5884 107.44 84.0445 107.335 85.6812C107.232 87.2749 108.916 89.0451 110.427 88.735Z" fill="#070A0D"/>
<path d="M46.6712 93.0908C42.8685 93.1976 39.0369 90.5567 39.0924 85.2624C39.1314 81.6048 42.5272 78.3436 46.2601 78.2142C50.4946 78.0684 54.1268 81.2865 54.1453 85.6751C54.1638 89.8358 50.7556 93.2305 46.6712 93.0908ZM46.5582 88.7351C48.4205 88.7392 49.7094 87.5501 49.7566 85.786C49.8019 84.0445 48.3959 82.6706 46.5767 82.6789C44.7925 82.6871 43.4728 84.0158 43.5036 85.7696C43.5365 87.5378 44.7657 88.731 46.5582 88.7351Z" fill="#070A0D"/>
<path d="M65.2024 93.0391C65.2024 89.7717 65.2024 86.607 65.2024 83.3992C64.7604 83.3766 64.3966 83.3582 63.9875 83.3356C64.3925 81.8344 64.7872 80.3804 65.1859 78.9038C66.6351 78.9038 68.0247 78.9038 69.4862 78.9038C69.4862 79.6308 69.4862 80.3352 69.4862 81.0416C69.554 81.056 69.6239 81.0704 69.6917 81.0848C69.8911 80.4153 70.0885 79.7479 70.3084 79.0085C72.364 79.0065 74.0989 79.7253 75.4802 81.2984C77.8955 84.0482 77.7372 89.1084 74.5778 91.583C73.217 92.6489 71.624 92.9631 69.9713 93.0267C68.4317 93.0842 66.8921 93.0391 65.2024 93.0391ZM69.5622 89.3199C71.6836 89.3322 73.2725 87.8413 73.2355 85.9499C73.1985 84.1077 71.4369 82.4895 69.5622 82.625C69.5622 84.8286 69.5622 87.0342 69.5622 89.3199Z" fill="#070A0D"/>
<path d="M2.91273 83.4549C2.57151 83.4179 2.27345 83.3851 1.82328 83.3378C2.20151 81.9003 2.57151 80.4956 2.93534 79.1094C5.03201 79.1094 7.00946 79.1094 8.97869 79.1094C10.2984 83.8245 11.6036 88.4925 12.9213 93.2015C11.507 93.2015 10.1195 93.2015 8.67653 93.2015C8.51825 92.6059 8.36408 92.035 8.2058 91.4395C7.00124 91.4395 5.84396 91.4395 4.64146 91.4395C4.45851 92.033 4.27557 92.6265 4.09673 93.2015C2.72156 93.2015 1.42656 93.2015 0 93.2015C0.982558 89.9177 1.94045 86.7079 2.91273 83.4549ZM7.24996 87.4061C6.95602 86.3259 6.69496 85.3607 6.43185 84.3934C6.3743 84.4057 6.31469 84.418 6.25713 84.4304C6.02485 85.3976 5.79463 86.367 5.54591 87.4061C6.13791 87.4061 6.6333 87.4061 7.24996 87.4061Z" fill="#070A0D"/>
<path d="M83.8505 87.5259C83.8505 87.9449 83.8505 88.2632 83.8505 88.6636C85.5443 88.6636 87.1743 88.6636 88.9524 88.6636C88.6112 90.1053 88.2946 91.434 87.9719 92.7935C85.1476 92.7935 82.3458 92.7935 79.4434 92.7935C79.4434 89.5693 79.4434 86.3389 79.4434 83.0346C79.059 83.01 78.7671 82.9935 78.4094 82.9709C78.765 81.5252 79.1104 80.1266 79.4763 78.6377C80.9213 78.6377 82.3869 78.6501 83.8525 78.6295C84.2637 78.6234 84.7426 78.8123 85.0448 78.3112C85.09 78.2352 85.2976 78.2373 85.4292 78.2373C86.5556 78.2311 87.6821 78.2352 88.9524 78.2352C88.6811 79.453 88.4303 80.5867 88.1754 81.7203C88.1384 81.8846 88.0274 82.0488 88.0377 82.207C88.0829 82.9545 87.6389 83.0243 87.051 83.01C86.0253 82.9833 84.9975 83.0017 83.8772 83.0017C83.8772 83.3776 83.8772 83.7205 83.8772 84.1641C85.4806 84.1641 87.0407 84.1641 88.6605 84.1641C88.4303 85.156 88.1857 86.0329 88.0336 86.9242C87.9493 87.4212 87.7006 87.5321 87.2709 87.53C86.1753 87.5198 85.0797 87.5259 83.8505 87.5259Z" fill="#070A0D"/>
<path d="M13.0547 78.896C14.6087 78.896 16.0743 78.896 17.6036 78.896C18.2059 81.079 18.802 83.2436 19.4002 85.4081C19.4495 85.4122 19.4989 85.4143 19.5482 85.4184C20.1423 83.2662 20.7363 81.1139 21.3427 78.9145C22.8597 78.9145 24.3541 78.9145 25.8896 78.9145C24.2904 83.5845 22.6932 88.2524 21.0755 92.9799C20.0189 92.9799 18.9788 92.9799 17.8791 92.9799C16.2758 88.3017 14.6745 83.6276 13.0547 78.896Z" fill="#070A0D"/>
<path d="M38.7638 78.6475C38.3507 80.2699 37.9622 81.7875 37.5531 83.3955C36.5068 83.3955 35.4975 83.3955 34.4143 83.3955C34.4143 86.6978 34.4143 89.8953 34.4143 93.1688C32.961 93.1688 31.5776 93.1688 30.0709 93.1688C30.0709 89.9857 30.0709 86.7635 30.0709 83.4592C28.8684 83.4592 27.7851 83.4592 26.6011 83.4592C26.9629 81.9375 27.2979 80.5204 27.6494 79.05C29.6433 79.05 31.5899 79.0665 33.5345 79.0356C33.9518 79.0295 34.3649 78.8488 34.7802 78.7461C34.9097 78.7153 35.0392 78.6516 35.1687 78.6516C36.3259 78.6434 37.4832 78.6475 38.7638 78.6475Z" fill="#070A0D"/>
<path d="M92.5928 78.6826C94.0193 78.6826 95.3781 78.6826 96.8437 78.6826C96.8437 81.9274 96.8437 85.1537 96.8437 88.4806C97.9578 88.4806 98.9691 88.4806 100.028 88.4806C100.412 89.9592 100.772 91.3557 101.148 92.8014C98.2949 92.8014 95.4726 92.8014 92.5928 92.8014C92.5928 88.1191 92.5928 83.4512 92.5928 78.6826Z" fill="#070A0D"/>
<path d="M60.0695 0.674316C60.4148 0.826286 61.1035 1.09737 61.7592 1.43211C62.0243 1.5656 62.2278 1.82641 62.4457 2.0441C74 13.5856 85.5502 25.1291 97.1128 36.6645C98.2228 37.7714 98.8148 39.0241 98.2248 40.5418C97.9638 41.2133 97.454 41.8314 96.9339 42.351C89.464 49.8427 81.9756 57.3139 74.4913 64.7912C70.446 68.8328 66.3965 72.8682 62.3594 76.918C61.2145 78.068 59.8948 78.5589 58.3593 77.8955C57.7549 77.6347 57.2164 77.148 56.7395 76.6736C50.3097 70.2724 43.8964 63.8568 37.4768 57.4433C32.4633 52.4344 27.4478 47.4276 22.4342 42.4188C22.241 42.2257 22.0437 42.0348 21.8587 41.8314C20.5328 40.3713 20.539 38.4881 21.8751 37.0198C22.0128 36.8678 22.1608 36.724 22.3068 36.5803C33.7892 25.1086 45.2736 13.6431 56.7457 2.16526C57.5741 1.33764 58.4559 0.694853 60.0695 0.674316ZM59.7386 64.6721C60.9555 64.6372 61.973 64.1669 62.8383 63.2982C69.7368 56.3959 76.6497 49.5059 83.544 42.5995C85.3981 40.743 85.3879 38.3649 83.5666 36.4961C82.6827 35.5884 81.7762 34.7032 80.88 33.8078C74.8716 27.8071 68.8694 21.8002 62.8527 15.8056C61.0171 13.9778 58.6039 13.906 56.8197 15.6803C49.8266 22.634 42.8542 29.6081 35.8982 36.5988C35.4336 37.067 35.0533 37.6975 34.8437 38.3238C34.2722 40.0263 34.8375 41.4597 36.0791 42.6981C41.366 47.9677 46.6426 53.2477 51.9233 58.5235C53.5225 60.1212 55.13 61.7107 56.7169 63.3167C57.5535 64.1607 58.5484 64.6126 59.7386 64.6721Z" fill="#FDFDFD"/>
<path d="M59.7388 64.6721C58.5486 64.6125 57.5537 64.1607 56.7192 63.3167C55.1302 61.7086 53.5228 60.1212 51.9256 58.5234C46.6449 53.2476 41.3682 47.9677 36.0813 42.698C34.8398 41.4597 34.2745 40.0263 34.8459 38.3238C35.0556 37.6974 35.4359 37.0669 35.9004 36.5987C42.8565 29.6081 49.8289 22.6339 56.822 15.6803C58.6062 13.9059 61.0194 13.9778 62.855 15.8055C68.8717 21.7981 74.8739 27.805 80.8823 33.8078C81.7785 34.7032 82.683 35.5904 83.5689 36.496C85.3922 38.3649 85.4004 40.743 83.5463 42.5995C76.652 49.5059 69.7391 56.3959 62.8406 63.2982C61.9711 64.1648 60.9557 64.6371 59.7388 64.6721ZM59.8169 64.0293C60.8097 63.9759 61.6731 63.5631 62.411 62.8258C69.2828 55.9502 76.1668 49.0869 83.0345 42.2093C84.7098 40.5315 84.7118 38.5497 83.0365 36.8739C76.1689 29.9962 69.293 23.1247 62.4069 16.2635C60.7727 14.635 58.7727 14.6329 57.1385 16.2615C50.2277 23.1453 43.3272 30.0414 36.4431 36.9519C36.0238 37.3729 35.6682 37.9295 35.4708 38.4901C34.9446 39.9852 35.4934 41.2153 36.5726 42.2894C40.6714 46.37 44.7579 50.4649 48.8505 54.5517C51.5864 57.2851 54.3306 60.0103 57.0563 62.756C57.8148 63.5179 58.6864 63.982 59.8169 64.0293Z" fill="#0F0D0A"/>
<path d="M59.8169 64.0302C58.6863 63.9829 57.8148 63.5209 57.0563 62.7569C54.3306 60.0133 51.5864 57.286 48.8505 54.5526C44.7578 50.4638 40.6714 46.3709 36.5726 42.2903C35.4934 41.2162 34.9446 39.9861 35.4708 38.491C35.6682 37.9304 36.0217 37.3739 36.4431 36.9529C43.3272 30.0423 50.2277 23.1462 57.1385 16.2624C58.7727 14.6338 60.7727 14.6359 62.4069 16.2644C69.293 23.1257 76.1689 29.9972 83.0365 36.8748C84.7118 38.5526 84.7097 40.5324 83.0345 42.2102C76.1648 49.0879 69.2827 55.9511 62.411 62.8267C61.6731 63.564 60.8097 63.9768 59.8169 64.0302ZM52.6779 30.5866C52.756 30.6502 52.8341 30.7139 52.9143 30.7775L52.8958 30.7734C53.2494 30.9213 53.5906 31.1369 53.9606 31.2027C54.419 31.2868 54.902 31.2478 55.3728 31.2643C56.0305 31.8906 56.6883 32.517 57.4735 33.2625C58.1128 32.4122 58.674 31.6668 59.3523 30.7673C58.9165 30.3997 58.5096 30.0341 58.0799 29.6953C57.5352 29.264 57.2885 28.765 57.3482 28.0236C57.4263 27.042 56.9329 26.2431 56.1724 25.6373C55.3543 24.9883 54.3203 24.8918 53.5515 25.3847C54.1929 26.0295 54.828 26.6703 55.3748 27.2206C54.7479 27.8614 54.2299 28.3912 53.6646 28.9662C53.0315 28.344 52.3696 27.693 51.6296 26.9639C51.2123 28.1653 51.4836 29.0771 52.0016 29.954C52.2319 30.1656 52.4621 30.3791 52.6923 30.5907C52.6882 30.5948 52.6779 30.5866 52.6779 30.5866ZM66.8469 41.2778C66.9476 41.206 67.0463 41.132 67.147 41.0602C67.9816 39.8649 67.9549 39.5487 66.9291 38.526C66.037 37.6347 65.1428 36.7454 64.2487 35.8562C63.4593 35.0697 62.668 34.2831 61.8622 33.4843C61.1283 34.2256 60.0553 34.4063 59.6011 35.5215C61.521 37.4108 63.4634 39.3207 65.4039 41.2306C65.8685 41.896 66.3597 41.6824 66.8551 41.2737C66.8551 41.2696 66.8469 41.2778 66.8469 41.2778ZM60.9063 33.4986L60.9248 33.4945C61.7553 33.1762 61.1509 32.6053 61.1674 32.0036C62.67 30.5126 64.2446 28.9498 65.8212 27.3911C65.9178 27.2966 66.0329 27.1672 66.148 27.157C66.9168 27.081 67.1614 26.4094 67.5561 25.9248C67.9199 25.4771 67.6794 25.1998 67.2128 25.0089C66.5489 25.5202 65.9507 25.9987 65.4943 26.7298C64.999 27.5225 64.2117 28.1366 63.5251 28.8019C62.5241 29.7733 61.5004 30.72 60.4849 31.677C59.6504 31.2684 59.4777 31.2684 59.081 31.9687C58.6288 32.7696 58.0614 33.4083 57.2104 33.7861C57.0295 33.8662 56.8815 34.0244 56.7274 34.1537C56.0244 34.739 55.3563 35.3695 54.6163 35.9055C53.3789 36.8009 52.3593 37.8852 51.5741 39.1852C51.1363 39.9081 51.2267 40.5139 51.7529 41.0376C52.2771 41.5592 52.8835 41.627 53.6132 41.1587C54.7993 40.3989 55.8455 39.485 56.6965 38.3432C57.3029 37.5299 58.0018 36.7865 58.6432 35.9979C58.8097 35.7926 58.9145 35.5379 59.0461 35.3038C59.2722 34.9814 59.4983 34.6589 59.7223 34.3365C59.9854 34.1537 60.2486 33.9689 60.5117 33.7861C60.6432 33.6876 60.7748 33.5931 60.9063 33.4986ZM46.7661 37.569C46.466 35.2607 44.8339 33.9566 42.4022 34.0839C40.4432 34.1866 38.9365 35.7597 38.8728 37.7682C38.8275 37.8585 38.7392 37.9489 38.7433 38.0372C38.8831 40.7788 40.9448 42.4032 43.469 42.0644C45.4177 41.8036 47.2512 39.7705 46.7661 37.569ZM79.9819 37.801C80.0806 35.9856 78.2327 34.0469 76.0558 34.0387C73.7618 34.0285 71.957 35.9096 72.0187 37.7969C71.7268 40.2695 74.066 42.128 75.9962 42.1383C77.9654 42.1465 80.2964 40.1874 79.9819 37.801ZM57.3995 50.7493C57.5249 50.8745 57.6462 51.1066 57.7737 51.1086C58.9638 51.1374 60.1561 51.1374 61.3462 51.1086C61.4737 51.1066 61.597 50.8725 61.7224 50.7472C61.7224 48.6196 61.7224 46.49 61.7224 44.383C60.2136 44.383 58.8282 44.383 57.3995 44.383C57.3995 46.5434 57.3995 48.6463 57.3995 50.7493ZM71.6384 50.7657C71.6734 48.901 71.7124 47.0363 71.7412 45.1716C71.7453 44.9107 71.7021 44.6499 71.6795 44.3809C70.1892 44.3809 68.7709 44.3809 67.2827 44.3809C67.2827 46.5331 67.2827 48.6299 67.2827 50.7287C67.4327 50.8622 67.5807 51.1066 67.7349 51.1107C68.8614 51.1436 69.9878 51.1436 71.1143 51.1128C71.2931 51.1086 71.4658 50.8868 71.6384 50.7657ZM62.2219 44.5534C61.8581 44.3665 61.9341 44.6479 61.9341 44.8306C61.9321 46.4366 61.9341 48.0425 61.9341 49.6485C61.9341 49.9401 61.9341 50.2338 61.9341 50.5254C62.1212 50.1147 62.1171 49.7101 62.1232 49.3035C62.1458 47.8064 62.1746 46.3072 62.1993 44.8101C62.226 45.1818 62.2712 45.5535 62.2774 45.9252C62.3062 47.5291 62.3226 49.1351 62.3452 50.739C62.5014 50.8704 62.6536 51.1086 62.8139 51.1128C63.9362 51.1456 65.0606 51.1456 66.183 51.1128C66.3556 51.1086 66.5221 50.8827 66.6907 50.7595C66.7256 50.5952 66.7914 50.4309 66.7935 50.2666C66.8017 48.4266 66.8037 46.5886 66.7955 44.7485C66.7955 44.6253 66.7195 44.5021 66.6619 44.3296C65.3155 44.3296 63.9897 44.3234 62.6638 44.3398C62.5158 44.3439 62.3699 44.4795 62.2219 44.5534ZM56.8754 50.7102C56.9782 50.5624 57.1693 50.4145 57.1714 50.2625C57.1919 48.4512 57.1919 46.642 57.1714 44.8306C57.1693 44.6807 56.9782 44.5349 56.8754 44.385C55.3933 44.385 53.9092 44.385 52.3305 44.385C52.3305 46.0608 52.3203 47.6544 52.3367 49.2501C52.3408 49.7553 52.4169 50.2584 52.4621 50.7616C52.5895 50.8827 52.7149 51.1086 52.8444 51.1128C54.0325 51.1395 55.2207 51.1395 56.4088 51.1128C56.5383 51.1107 56.6637 50.8807 56.7911 50.7575L56.8199 50.7102H56.8754ZM51.8393 50.7308C51.8393 48.6299 51.8393 46.5311 51.8393 44.4014C50.3284 44.4014 48.8916 44.4014 47.3787 44.4014C47.3787 45.5905 47.3664 46.7077 47.3828 47.8249C47.3972 48.8044 47.4465 49.784 47.4815 50.7657C47.6212 50.8868 47.759 51.1066 47.9008 51.1107C49.0971 51.1374 50.2935 51.1374 51.4878 51.1066C51.607 51.1045 51.72 50.8622 51.8393 50.7308Z" fill="#FFD04D"/>
<path d="M59.0442 35.2991C58.9106 35.5311 58.8078 35.7879 58.6413 35.9932C57.9999 36.7818 57.3011 37.5252 56.6947 38.3385C55.8437 39.4824 54.7974 40.3942 53.6113 41.154C52.8837 41.6223 52.2773 41.5545 51.751 41.0329C51.2248 40.5092 51.1364 39.9034 51.5722 39.1805C52.3574 37.8826 53.377 36.7982 54.6144 35.9008C55.3524 35.3648 56.0225 34.7343 56.7255 34.149C56.8817 34.0197 57.0297 33.8615 57.2086 33.7814C58.0596 33.4036 58.6269 32.7649 59.0791 31.964C59.4758 31.2637 59.6465 31.2637 60.4831 31.6723C60.8202 32.233 60.9723 32.8388 60.923 33.4919L60.9045 33.496C60.7729 33.5905 60.6413 33.6829 60.5098 33.7773C60.2467 33.9601 59.9836 34.1449 59.7205 34.3277C59.0688 34.3544 59.0812 34.8452 59.0442 35.2991Z" fill="#333733"/>
<path d="M51.9974 29.9579C51.4773 29.081 51.208 28.1671 51.6253 26.9678C52.3674 27.6968 53.0272 28.3478 53.6603 28.9701C54.2256 28.393 54.7436 27.8652 55.3705 27.2245C54.8238 26.6741 54.1886 26.0334 53.5473 25.3885C54.316 24.8957 55.352 24.9922 56.1681 25.6411C56.9307 26.247 57.422 27.0458 57.3439 28.0275C57.2843 28.7668 57.5309 29.2658 58.0757 29.6991C58.5032 30.038 58.9123 30.4035 59.3481 30.7711C58.6718 31.6706 58.1106 32.4161 57.4693 33.2663C56.6861 32.5209 56.0283 31.8945 55.3685 31.2681C55.241 31.1757 55.1239 31.0176 54.9862 30.9991C54.2914 30.9046 53.5904 30.8471 52.8915 30.7773L52.91 30.7814C52.8319 30.7177 52.7538 30.6541 52.6736 30.5904L52.6839 30.5986C52.4578 30.383 52.2276 30.1694 51.9974 29.9579Z" fill="#343833"/>
<path d="M65.4039 41.2278C63.4635 39.3179 61.521 37.408 59.6011 35.5187C60.0554 34.4035 61.1284 34.2228 61.8622 33.4814C62.6659 34.2803 63.4573 35.0669 64.2487 35.8534C65.1429 36.7426 66.035 37.6339 66.9291 38.5231C67.9549 39.5459 67.9816 39.8621 67.147 41.0573C67.0463 41.1292 66.9477 41.2032 66.8469 41.275L66.8572 41.2668C66.3721 41.2545 65.889 41.2422 65.4039 41.2278ZM65.4224 39.2727C65.2415 39.6301 65.3011 39.9545 65.6629 40.1168C65.8376 40.1969 66.1336 40.1763 66.3001 40.0778C66.6085 39.8909 66.7709 39.5952 66.481 39.2419C65.9384 38.7182 65.9116 38.7182 65.4224 39.2727Z" fill="#313633"/>
<path d="M47.4793 50.7651C47.4443 49.7855 47.3971 48.8059 47.3806 47.8243C47.3642 46.7071 47.3765 45.5899 47.3765 44.4009C48.8894 44.4009 50.3262 44.4009 51.8371 44.4009C51.8371 46.5305 51.8371 48.6314 51.8371 50.7302C50.3859 50.7425 48.9326 50.7528 47.4793 50.7651ZM50.5236 45.9699C49.9727 45.9021 49.2594 46.1814 48.7599 46.7174C48.6098 46.8776 48.6098 47.1774 48.503 47.5368C48.9182 47.4629 49.169 47.4177 49.5205 47.354C49.5205 48.0091 49.5205 48.6129 49.5205 49.2557C49.9028 49.2557 50.1926 49.2557 50.5215 49.2557C50.5236 48.12 50.5236 47.0419 50.5236 45.9699Z" fill="#0A0804"/>
<path d="M52.4619 50.7613C52.4187 50.2582 52.3427 49.755 52.3365 49.2499C52.32 47.6562 52.3303 46.0605 52.3303 44.3848C53.909 44.3848 55.3911 44.3848 56.8752 44.3848C56.8752 46.4918 56.8752 48.6009 56.8752 50.7079H56.8197L56.7909 50.7552C55.3479 50.7572 53.9049 50.7593 52.4619 50.7613ZM53.2163 47.6357C53.2204 47.7035 53.2286 47.8411 53.243 47.9766C53.3375 48.911 53.7384 49.3299 54.5627 49.3587C55.4075 49.3895 55.8453 49.0075 55.9584 48.0711C56.0016 47.7055 55.9892 47.3174 55.9152 46.9559C55.7426 46.1057 55.1937 45.7566 54.3427 45.8921C53.5472 46.0195 53.2266 46.498 53.2163 47.6357Z" fill="#0E0C06"/>
<path d="M62.3432 50.7387C62.3227 49.1348 62.3042 47.5288 62.2754 45.9249C62.2692 45.5532 62.224 45.1815 62.1973 44.8098C62.2055 44.7236 62.2137 44.6373 62.2219 44.5531C62.3699 44.4792 62.5159 44.3416 62.6639 44.3395C63.9897 44.3231 65.3156 44.3293 66.6619 44.3293C66.7195 44.5038 66.7956 44.625 66.7956 44.7482C66.8017 46.5883 66.8017 48.4263 66.7935 50.2663C66.7935 50.4306 66.7277 50.5949 66.6907 50.7592C65.2416 50.7531 63.7924 50.7469 62.3432 50.7387ZM65.9137 47.6438C65.8993 47.5083 65.887 47.3379 65.8664 47.1695C65.7554 46.2987 65.3526 45.89 64.5838 45.8654C63.7595 45.8387 63.262 46.27 63.1675 47.1428C63.1305 47.4775 63.1346 47.8266 63.186 48.1593C63.3361 49.1389 64.1459 49.6112 65.0709 49.2785C65.8356 49.0054 65.8541 48.3318 65.9137 47.6438Z" fill="#0E0C06"/>
<path d="M67.2847 50.7282C67.2847 48.6294 67.2847 46.5305 67.2847 44.3804C68.7729 44.3804 70.1892 44.3804 71.6815 44.3804C71.7041 44.6494 71.7473 44.9102 71.7432 45.171C71.7144 47.0357 71.6753 48.9004 71.6404 50.7652C70.1871 50.7528 68.7359 50.7405 67.2847 50.7282ZM70.8942 47.5635C70.8881 47.4875 70.8819 47.3171 70.8552 47.1487C70.7113 46.2512 70.2323 45.82 69.4266 45.861C68.6167 45.9021 68.183 46.3519 68.1151 47.2699C68.0904 47.6067 68.0946 47.9599 68.1603 48.2905C68.3166 49.0586 68.8798 49.4406 69.663 49.3646C70.4852 49.2845 70.8942 48.7197 70.8942 47.5635Z" fill="#0C0A05"/>
<path d="M57.3994 50.7486C57.3994 48.6457 57.3994 46.5407 57.3994 44.3823C58.828 44.3823 60.2135 44.3823 61.7223 44.3823C61.7223 46.4894 61.7223 48.6169 61.7223 50.7466C60.2813 50.7486 58.8404 50.7486 57.3994 50.7486ZM60.9494 47.6024C60.935 46.3477 60.3779 45.7418 59.3645 45.8733C58.6266 45.9698 58.2792 46.3538 58.1929 47.1753C58.0716 48.3253 58.345 49.042 59.0028 49.2864C59.0973 49.3213 59.2001 49.3357 59.3008 49.3521C60.3903 49.5185 60.9658 48.9065 60.9494 47.6024Z" fill="#070606"/>
<path d="M72.0206 37.7963C71.9589 35.909 73.7637 34.0279 76.0577 34.0381C78.2345 34.0484 80.0825 35.985 79.9838 37.8004C79.5419 38.2317 79.4905 39.1065 78.5943 39.0223C78.2798 38.7389 77.9653 38.4535 77.6651 38.1803C78.9643 36.3012 78.9643 36.3012 77.9324 35.4942C77.9262 35.3956 77.9591 35.2559 77.9057 35.2025C77.0341 34.3236 74.9703 34.3215 74.1049 35.2005C74.0535 35.2539 74.0885 35.3935 74.0823 35.4921C73.036 36.2828 73.0381 36.3033 74.3434 38.1824C74.0391 38.4555 73.7246 38.7389 73.4081 39.0203C72.5036 39.1086 72.4687 38.2194 72.0206 37.7963Z" fill="#81807D"/>
<path d="M38.8748 37.7675C38.9385 35.759 40.4452 34.1859 42.4042 34.0832C44.8338 33.9559 46.468 35.26 46.7681 37.5683C46.5708 38.3138 46.1042 38.8456 45.4484 39.2276C45.1113 38.8272 44.7722 38.4246 44.4474 38.0386C45.7979 36.4696 45.8102 36.2026 44.6221 35.4715C44.5502 35.3052 44.5255 35.0731 44.4001 34.9827C43.3559 34.2434 41.8348 34.4118 40.8522 35.3503C40.474 35.8781 39.8203 36.3135 40.2787 37.1124C39.9149 37.7983 40.661 38.0057 40.8543 38.4493C40.6282 38.7081 40.402 38.9668 40.1759 39.2256C39.7422 38.743 39.3085 38.2542 38.8748 37.7675Z" fill="#81807D"/>
<path d="M38.8748 37.7676C39.3085 38.2543 39.7422 38.741 40.1759 39.2277C40.1266 39.7555 40.1554 40.2607 40.6878 40.5605C41.6744 41.115 42.1123 40.0964 42.805 39.776C43.5121 40.08 43.9499 41.1171 44.9345 40.5585C45.4608 40.2607 45.508 39.7596 45.4464 39.2277C46.1021 38.8457 46.5687 38.3138 46.7661 37.5684C47.2512 39.7699 45.4176 41.8009 43.4689 42.0638C40.9447 42.4026 38.883 40.7782 38.7432 38.0366C38.7411 37.9503 38.8295 37.8579 38.8748 37.7676Z" fill="#C9C8C3"/>
<path d="M72.0207 37.7964C72.4688 38.2215 72.5037 39.1107 73.4041 39.0224C73.3568 39.5933 73.2211 40.1827 73.8707 40.5524C74.8738 41.1233 75.3014 40.0965 76.0434 39.7658C76.3189 39.9979 76.5655 40.3183 76.8903 40.4518C77.2315 40.5935 77.6611 40.6427 78.0229 40.575C78.469 40.4887 78.6375 40.078 78.6396 39.6323C78.6396 39.429 78.6108 39.2257 78.5944 39.0245C79.4906 39.1066 79.542 38.2338 79.9839 37.8025C80.2964 40.1889 77.9674 42.1481 76.0003 42.1378C74.068 42.1275 71.7288 40.269 72.0207 37.7964Z" fill="#CBCAC8"/>
<path d="M60.9248 33.4936C60.9741 32.8405 60.822 32.2347 60.4849 31.6741C61.5003 30.7171 62.524 29.7703 63.525 28.7989C64.2116 28.1336 64.9989 27.5195 65.4943 26.7268C65.9527 25.9937 66.5488 25.5152 67.2127 25.0059C67.6793 25.1968 67.9198 25.4741 67.556 25.9218C67.1613 26.4064 66.9188 27.078 66.1479 27.154C66.0308 27.1663 65.9157 27.2936 65.8211 27.3881C64.2445 28.9468 62.6699 30.5096 61.1673 32.0006C61.1509 32.6044 61.7552 33.1753 60.9248 33.4936Z" fill="#393E3B"/>
<path d="M47.4795 50.7654C48.9328 50.7531 50.3861 50.7428 51.8373 50.7305C51.7201 50.8619 51.605 51.1042 51.4858 51.1083C50.2915 51.1371 49.0931 51.1391 47.8988 51.1124C47.757 51.1083 47.6193 50.8865 47.4795 50.7654Z" fill="#CECC6F"/>
<path d="M52.4622 50.761C53.9052 50.759 55.3482 50.7569 56.7912 50.7549C56.6637 50.8781 56.5383 51.1081 56.4088 51.1102C55.2207 51.1389 54.0326 51.1369 52.8445 51.1102C52.715 51.1081 52.5896 50.8822 52.4622 50.761Z" fill="#CECC6F"/>
<path d="M57.3994 50.7491C58.8404 50.7491 60.2813 50.7491 61.7223 50.7471C61.5969 50.8723 61.4756 51.1044 61.3461 51.1085C60.1559 51.1373 58.9637 51.1373 57.7735 51.1085C57.6461 51.1065 57.5227 50.8765 57.3994 50.7491Z" fill="#CECC6F"/>
<path d="M67.2847 50.728C68.7359 50.7403 70.1871 50.7527 71.6384 50.765C71.4636 50.8862 71.293 51.108 71.1162 51.1141C69.9898 51.147 68.8633 51.1449 67.7369 51.1121C67.5827 51.108 67.4347 50.8615 67.2847 50.728Z" fill="#CECC6F"/>
<path d="M62.3433 50.7383C63.7924 50.7444 65.2416 50.7527 66.6887 50.7588C66.5202 50.882 66.3537 51.1079 66.181 51.112C65.0587 51.1449 63.9343 51.1449 62.8119 51.112C62.6537 51.1079 62.4995 50.8697 62.3433 50.7383Z" fill="#CECC6F"/>
<path d="M62.222 44.5528C62.2138 44.639 62.2056 44.7253 62.1973 44.8095C62.1706 46.3066 62.1439 47.8057 62.1213 49.3028C62.1151 49.7074 62.1213 50.114 61.9322 50.5248C61.9322 50.2331 61.9322 49.9395 61.9322 49.6478C61.9322 48.0419 61.9301 46.4359 61.9322 44.83C61.9342 44.6472 61.8561 44.3659 62.222 44.5528Z" fill="#FEEA00"/>
<path d="M56.8752 50.7094C56.8752 48.6024 56.8752 46.4933 56.8752 44.3862C56.978 44.5341 57.1692 44.682 57.1712 44.8319C57.1918 46.6432 57.1918 48.4524 57.1712 50.2638C57.1692 50.4116 56.9801 50.5595 56.8752 50.7094Z" fill="#FEEA00"/>
<path d="M52.8958 30.7729C53.5946 30.8428 54.2956 30.9003 54.9904 30.9947C55.1281 31.0132 55.2453 31.1693 55.3727 31.2638C54.8999 31.2494 54.4189 31.2864 53.9605 31.2022C53.5905 31.1344 53.2493 30.9208 52.8958 30.7729Z" fill="#CECC6F"/>
<path d="M65.4038 41.2275C65.8869 41.2419 66.372 41.2563 66.855 41.2707C66.3596 41.6793 65.8684 41.8929 65.4038 41.2275Z" fill="#CECC6F"/>
<path d="M59.0439 35.2988C59.0809 34.845 59.0686 34.3562 59.7202 34.3315C59.4962 34.6519 59.2701 34.9764 59.0439 35.2988Z" fill="#393E3B"/>
<path d="M51.9976 29.9575C52.2278 30.169 52.458 30.3826 52.6882 30.5942C52.458 30.3826 52.2278 30.169 51.9976 29.9575Z" fill="#CECC6F"/>
<path d="M60.5117 33.7794C60.6433 33.6849 60.7748 33.5925 60.9064 33.498C60.7748 33.5925 60.6433 33.687 60.5117 33.7794Z" fill="#393E3B"/>
<path d="M66.8467 41.2773C66.9474 41.2054 67.0461 41.1314 67.1468 41.0596C67.0461 41.1314 66.9453 41.2054 66.8467 41.2773Z" fill="#CECC6F"/>
<path d="M52.6777 30.5859C52.7558 30.6496 52.834 30.7133 52.9141 30.7769C52.834 30.7133 52.7558 30.6496 52.6777 30.5859Z" fill="#CECC6F"/>
<path d="M66.4808 39.2422C66.7686 39.5954 66.6062 39.8911 66.2999 40.078C66.1355 40.1786 65.8395 40.1971 65.6627 40.117C65.3009 39.9548 65.2413 39.6303 65.4222 39.273C65.7737 39.2627 66.1273 39.2525 66.4808 39.2422Z" fill="#FBCA01"/>
<path d="M66.481 39.2415C66.1274 39.2518 65.7759 39.2621 65.4224 39.2723C65.9116 38.7179 65.9383 38.7179 66.481 39.2415Z" fill="#CECC6F"/>
<path d="M50.5237 45.9695C50.5237 47.0415 50.5237 48.1197 50.5237 49.2553C50.1948 49.2553 49.905 49.2553 49.5226 49.2553C49.5226 48.6105 49.5226 48.0088 49.5226 47.3536C49.1711 47.4173 48.9183 47.4625 48.5051 47.5364C48.61 47.177 48.612 46.8793 48.7621 46.717C49.2595 46.181 49.9707 45.9017 50.5237 45.9695Z" fill="#E6E6E6"/>
<path d="M53.2166 47.6352C53.2268 46.4975 53.5495 46.019 54.3409 45.8917C55.194 45.7561 55.7408 46.1052 55.9134 46.9555C55.9874 47.3169 56.0018 47.705 55.9566 48.0706C55.8436 49.007 55.4057 49.389 54.5609 49.3582C53.7345 49.3295 53.3337 48.9085 53.2412 47.9761C53.2289 47.8406 53.2207 47.703 53.2166 47.6352ZM54.5835 48.7011C55.1837 47.9289 55.1611 47.1629 54.5691 46.6022C54.0121 47.2758 54.0018 47.8221 54.5835 48.7011Z" fill="#EBEBEB"/>
<path d="M65.9137 47.6433C65.8541 48.3292 65.8356 49.0049 65.071 49.2801C64.146 49.6127 63.3361 49.1384 63.186 48.1608C63.1346 47.8281 63.1305 47.479 63.1675 47.1443C63.2621 46.2715 63.7595 45.8402 64.5838 45.8669C65.3505 45.8915 65.7555 46.3023 65.8665 47.171C65.887 47.3394 65.8993 47.5078 65.9137 47.6433ZM64.4502 46.5918C63.9219 47.4071 63.9733 48.128 64.5941 48.6249C65.1532 47.7788 65.1059 47.097 64.4502 46.5918Z" fill="#EBEBEB"/>
<path d="M70.8942 47.5636C70.8962 48.7199 70.4872 49.2846 69.6608 49.3626C68.8777 49.4366 68.3165 49.0546 68.1582 48.2886C68.0904 47.9579 68.0863 47.6068 68.113 47.2679C68.1808 46.3499 68.6146 45.9002 69.4244 45.8591C70.2302 45.8181 70.7112 46.2493 70.8531 47.1468C70.8798 47.3172 70.886 47.4897 70.8942 47.5636ZM69.4471 46.5266C68.9188 47.3644 68.9311 47.958 69.4512 48.6439C70.0719 48.0504 70.0925 47.3357 69.4471 46.5266Z" fill="#E6E6E6"/>
<path d="M60.9495 47.6027C60.966 48.9068 60.3904 49.5188 59.301 49.3524C59.2002 49.338 59.0975 49.3216 59.0029 49.2867C58.3451 49.0423 58.0717 48.3256 58.193 47.1756C58.2794 46.3541 58.6267 45.9701 59.3647 45.8735C60.3781 45.7421 60.9331 46.35 60.9495 47.6027ZM59.525 46.6005C58.9926 47.3604 59.0379 48.1305 59.6422 48.5967C60.1088 47.7814 60.0718 47.1509 59.525 46.6005Z" fill="#E6E6E6"/>
<path d="M78.5944 39.0222C78.6108 39.2255 78.6396 39.4289 78.6396 39.6301C78.6375 40.0758 78.471 40.4865 78.0229 40.5727C77.6611 40.6426 77.2315 40.5912 76.8903 40.4495C76.5655 40.316 76.3189 39.9957 76.0434 39.7636C75.3014 40.0942 74.8738 41.1231 73.8707 40.5502C73.2211 40.1805 73.3568 39.5911 73.4041 39.0202C73.7206 38.7368 74.0351 38.4534 74.3393 38.1823C73.0341 36.3032 73.032 36.2827 74.0783 35.492C75.03 35.2004 75.3815 36.1471 76.0187 36.4839C76.6334 36.0403 77.0095 35.2271 77.9304 35.4941C78.9644 36.3012 78.9644 36.3012 77.6632 38.1802C77.9654 38.4534 78.2799 38.7368 78.5944 39.0222Z" fill="#050505"/>
<path d="M77.9306 35.4943C77.0076 35.2274 76.6315 36.0406 76.0189 36.4842C75.3837 36.1474 75.0302 35.2007 74.0784 35.4923C74.0846 35.3937 74.0497 35.2541 74.1011 35.2007C74.9685 34.3217 77.0302 34.3238 77.9018 35.2027C77.9573 35.2582 77.9244 35.3958 77.9306 35.4943Z" fill="#EBEBEB"/>
<path d="M45.4464 39.2273C45.5081 39.7612 45.4588 40.2603 44.9346 40.558C43.95 41.1166 43.5122 40.0795 42.805 39.7756C42.1123 40.096 41.6724 41.1146 40.6878 40.5601C40.1554 40.2603 40.1287 39.7551 40.176 39.2273C40.4021 38.9685 40.6282 38.7098 40.8543 38.451C41.2387 38.3011 41.288 38.0485 41.0208 37.7651C40.7968 37.5248 40.5275 37.3297 40.2767 37.1141C39.8183 36.3152 40.472 35.8778 40.8502 35.3521C41.6992 35.4013 42.2583 35.9764 42.8194 36.5021C43.9233 35.5246 43.9233 35.5246 44.6201 35.4732C45.8082 36.2064 45.7959 36.4713 44.4454 38.0403C44.7722 38.4264 45.1093 38.8268 45.4464 39.2273Z" fill="#030303"/>
<path d="M44.62 35.4734C43.9211 35.5248 43.9211 35.5248 42.8193 36.5023C42.2582 35.9766 41.699 35.4016 40.8501 35.3523C41.8327 34.4158 43.3538 34.2453 44.398 34.9847C44.5254 35.073 44.5501 35.305 44.62 35.4734Z" fill="#EBEBEB"/>
<path d="M40.2768 37.1143C40.5255 37.3299 40.7968 37.527 41.0209 37.7653C41.2861 38.0507 41.2388 38.3033 40.8544 38.4512C40.6591 38.0055 39.913 37.7981 40.2768 37.1143Z" fill="#393E3B"/>
<path d="M54.5834 48.7014C54.0017 47.8224 54.012 47.2761 54.569 46.6025C55.161 47.1611 55.1836 47.9292 54.5834 48.7014Z" fill="#242424"/>
<path d="M64.45 46.5918C65.1057 47.097 65.153 47.7788 64.5938 48.6249C63.9731 48.1279 63.9217 47.4091 64.45 46.5918Z" fill="#242424"/>
<path d="M69.4472 46.5269C70.0906 47.336 70.0721 48.0507 69.4514 48.6442C68.9313 47.9582 68.919 47.3647 69.4472 46.5269Z" fill="#242424"/>
<path d="M59.5249 46.6001C60.0717 47.1505 60.1087 47.7809 59.6421 48.5962C59.0377 48.128 58.9925 47.3599 59.5249 46.6001Z" fill="#0F0D0A"/>
</svg>
