<svg width="65" height="65" viewBox="0 0 65 65" fill="none" xmlns="http://www.w3.org/2000/svg">
<rect width="65" height="65" fill="#F2F2F2"/>
<path d="M32.9249 0C33.3675 0.334688 33.4863 0.788139 33.4755 1.32796C33.4539 2.48317 33.4971 3.62758 33.4431 4.7828C33.4323 5.0743 33.1948 5.45218 32.9465 5.61412C32.7521 5.74368 32.3095 5.70049 32.0936 5.56014C31.8776 5.40899 31.7049 5.05271 31.7049 4.7828C31.6617 3.51962 31.6509 2.24565 31.7157 0.982474C31.7265 0.647787 32.0504 0.33469 32.2231 0.0107987C32.4606 2.3066e-06 32.6982 0 32.9249 0Z" fill="#EAB840"/>
<path d="M39.4135 46.0034C40.2664 46.1654 40.5687 46.4245 40.5579 46.9751C40.5471 47.5041 40.2664 47.7416 39.4027 47.9036C39.4027 48.5945 39.4027 49.2855 39.4027 49.9765C40.2448 50.1168 40.5471 50.3544 40.5579 50.8942C40.5687 51.4448 40.2556 51.7147 39.3703 51.8659C39.3703 52.3193 39.3703 52.7943 39.3703 53.2586C39.3595 54.2087 38.9385 54.9212 38.1287 55.4502C37.9344 55.569 37.7725 55.8389 37.7293 56.0656C37.4054 57.7175 36.5524 58.9807 35.0733 59.8012C34.4795 60.1359 33.9721 60.0279 33.713 59.5421C33.4539 59.0778 33.6158 58.6136 34.1881 58.2789C35.1381 57.7283 35.7319 56.9402 35.9478 55.8065C33.6806 55.8065 31.4458 55.8065 29.1569 55.8065C29.3189 56.7566 29.7831 57.48 30.5281 58.0306C30.6684 58.1385 30.8304 58.2141 30.9707 58.3113C31.4782 58.6352 31.6293 59.0994 31.381 59.5529C31.1219 60.0171 30.6144 60.1359 30.0638 59.8336C28.6063 59.0346 27.7102 57.8147 27.4079 56.1736C27.3432 55.7957 27.2136 55.5582 26.8681 55.3531C26.1448 54.932 25.7669 54.2626 25.7453 53.4205C25.7345 52.9131 25.7453 52.4057 25.7453 51.9954C25.3566 51.7687 25.0111 51.6175 24.7196 51.3908C24.6009 51.2936 24.5685 51.0345 24.5793 50.851C24.6333 50.2032 25.0867 50.0413 25.6913 50.0197C25.6913 49.3179 25.6913 48.6269 25.6913 47.9036C25.1191 47.828 24.5577 47.6985 24.5685 46.9427C24.5793 46.4245 24.8816 46.1762 25.6589 46.0466C26.0368 43.164 25.4106 40.4973 23.7803 38.1005C23.1757 37.2044 22.4416 36.3623 21.6534 35.6173C18.922 33.037 17.1837 29.9384 16.5576 26.2245C16.5144 25.9761 16.482 25.7278 16.4604 25.4687C16.4172 24.8749 16.7087 24.4646 17.2161 24.3999C17.7128 24.3351 18.1014 24.6698 18.2094 25.2528C18.3066 25.7494 18.3606 26.2568 18.4685 26.7535C19.0947 29.6037 20.4443 32.0653 22.5927 34.0194C24.9248 36.1571 26.5226 38.6835 27.2783 41.7604C27.3107 41.9116 27.5807 42.1059 27.7426 42.1059C30.9275 42.1275 34.1125 42.1167 37.2974 42.1275C37.6321 42.1275 37.7508 42.0088 37.848 41.6849C38.0639 40.9183 38.3231 40.1626 38.6038 39.4176C38.8845 38.6835 39.3487 38.446 39.8777 38.6835C40.4068 38.921 40.5363 39.4068 40.2124 40.1302C39.3703 41.998 39.2516 43.9737 39.4135 46.0034ZM37.5781 47.882C34.2096 47.882 30.8844 47.882 27.5699 47.882C27.5699 48.6161 27.5699 49.3071 27.5699 49.9981C30.9275 49.9981 34.242 49.9981 37.5781 49.9981C37.5781 49.2855 37.5781 48.6053 37.5781 47.882ZM27.5267 51.8227C27.5267 52.2653 27.5267 52.6756 27.5267 53.075C27.5375 53.766 27.7318 53.9711 28.4444 53.9711C29.578 53.9819 30.7116 53.9711 31.8344 53.9711C33.4539 53.9711 35.0733 53.9711 36.6928 53.9711C37.1786 53.9711 37.5673 53.8308 37.5997 53.2802C37.6321 52.8051 37.6105 52.3193 37.6105 51.8119C34.2312 51.8227 30.9275 51.8227 27.5267 51.8227ZM27.5591 46.0142C30.9275 46.0142 34.2528 46.0142 37.5673 46.0142C37.5673 45.2909 37.5673 44.6107 37.5673 43.9197C34.2096 43.9197 30.9059 43.9197 27.5591 43.9197C27.5591 44.6323 27.5591 45.3017 27.5591 46.0142Z" fill="#EAB840"/>
<path d="M38.5389 32.9613C38.1934 32.7886 37.8479 32.659 37.5564 32.4431C37.2433 32.2164 36.995 31.9033 36.7143 31.6334C36.466 31.3851 36.2933 31.1475 35.829 31.3635C35.408 31.5578 35.3 31.7845 35.3216 32.1948C35.3432 32.6374 35.3432 33.0909 35.2892 33.5336C35.2028 34.2785 34.663 34.7751 33.9073 34.7967C33.0112 34.8183 32.1151 34.8183 31.2082 34.7967C30.4632 34.7751 29.9126 34.2785 29.8262 33.5336C29.7722 33.0153 29.7615 32.4755 29.7938 31.9573C29.8154 31.547 29.5563 31.493 29.2756 31.3743C29.0057 31.2555 28.8006 31.1907 28.563 31.4606C28.2715 31.8061 27.9477 32.1084 27.613 32.4107C26.9652 33.0045 26.1447 33.0153 25.5077 32.4107C24.8923 31.8385 24.2985 31.2447 23.7263 30.6293C23.0893 29.9599 23.1001 29.1718 23.7371 28.4808C24.0394 28.157 24.3525 27.8223 24.6871 27.5308C24.9355 27.3148 24.9031 27.1097 24.7627 26.8722C24.6332 26.6347 24.6332 26.3 24.2013 26.3324C23.7587 26.3755 23.3052 26.354 22.8518 26.3324C21.9125 26.3 21.3187 25.7062 21.2971 24.7777C21.2755 23.9572 21.2755 23.1366 21.2971 22.3161C21.3295 21.3984 21.9125 20.8478 22.8302 20.8154C23.1865 20.8046 23.5427 20.7614 23.8774 20.8262C24.5684 20.9666 24.6872 20.4699 24.8383 20.0165C24.8707 19.9193 24.7735 19.7358 24.6871 19.6386C24.374 19.2931 24.0178 18.98 23.7047 18.6345C23.1001 17.9868 23.0785 17.177 23.6831 16.5293C24.2661 15.9031 24.8815 15.2985 25.5077 14.7047C26.1447 14.1109 26.9112 14.1217 27.559 14.7047C27.9045 15.0178 28.2068 15.3848 28.5738 15.6763C28.7142 15.7951 28.9841 15.8383 29.1569 15.7843C29.4268 15.7087 29.7938 15.6763 29.7615 15.2121C29.7291 14.7694 29.7399 14.316 29.7615 13.8625C29.8046 12.9125 30.3228 12.3618 31.2621 12.3187C32.1043 12.2863 32.9464 12.2863 33.7777 12.3187C34.7062 12.3618 35.2244 12.9125 35.2784 13.8517C35.3 14.1972 35.3 14.5535 35.2784 14.9098C35.2568 15.2985 35.3108 15.5684 35.7534 15.7735C36.2393 16.0002 36.4228 15.7303 36.6819 15.4712C36.9626 15.2013 37.2217 14.9098 37.5132 14.6507C38.1286 14.1217 38.8844 14.1001 39.4782 14.6507C40.1368 15.2553 40.7737 15.8923 41.3891 16.5508C41.9721 17.177 41.929 17.9652 41.3352 18.613C41.0869 18.8829 40.8385 19.1744 40.547 19.3903C40.1476 19.6926 40.0936 20.0381 40.3743 20.4159C40.5038 20.5779 40.7198 20.7506 40.9249 20.7722C41.3676 20.8262 41.821 20.783 42.2745 20.7938C43.1166 20.8262 43.7104 21.3768 43.7427 22.2297C43.7751 23.0827 43.7751 23.9464 43.7427 24.8101C43.7104 25.6846 43.1274 26.2568 42.2529 26.3108C41.8858 26.3324 41.5079 26.3432 41.1408 26.3108C40.709 26.2784 40.4606 26.3755 40.2663 26.8398C40.072 27.304 40.3527 27.466 40.5794 27.7143C40.8493 27.995 41.1408 28.2541 41.3999 28.5564C41.929 29.1718 41.9506 29.9384 41.3999 30.5214C40.7738 31.1907 40.126 31.8493 39.4458 32.4647C39.2731 32.713 38.906 32.7886 38.5389 32.9613ZM38.4849 30.9532C39.0247 30.4458 39.4782 30.0139 40.0072 29.5173C39.4998 29.0423 39.014 28.5996 38.5389 28.1462C38.161 27.7899 38.1178 27.3904 38.3554 26.9262C38.6037 26.4187 38.8304 25.9005 39.014 25.3715C39.1975 24.8209 39.5214 24.5726 40.0936 24.5942C40.7306 24.6157 41.3675 24.5942 42.0261 24.5942C42.0261 23.9032 42.0261 23.2878 42.0261 22.6076C41.3783 22.6076 40.7522 22.5968 40.1368 22.6076C39.5538 22.6184 39.1975 22.3701 39.014 21.7979C38.8628 21.3013 38.6685 20.8046 38.4094 20.3404C38.1071 19.779 38.1826 19.3471 38.6361 18.9368C39.0895 18.5158 39.5322 18.0839 39.8777 17.7492C39.381 17.2202 38.9492 16.756 38.4525 16.227C38.2582 16.4537 38.0639 16.6912 37.8479 16.9179C37.6212 17.1554 37.3837 17.393 37.1462 17.6197C36.7791 17.9868 36.3796 18.0192 35.9154 17.8032C35.4403 17.5765 34.9653 17.3606 34.4687 17.1878C33.7237 16.9287 33.5726 16.7452 33.5726 15.957C33.5726 15.3632 33.5726 14.7694 33.5726 14.1756C32.86 14.1756 32.2446 14.1756 31.6508 14.1756C31.6292 14.262 31.6076 14.3052 31.6076 14.3376C31.6076 14.8882 31.6076 15.428 31.5968 15.9786C31.586 16.7344 31.4241 16.9395 30.7331 17.177C30.2797 17.339 29.8154 17.5117 29.3836 17.7277C28.6818 18.0623 28.4443 18.0407 27.8829 17.4793C27.4618 17.0583 27.0515 16.6156 26.6737 16.2162C26.1339 16.7344 25.6804 17.1554 25.1838 17.6305C25.6588 18.0839 26.1015 18.5266 26.5549 18.9476C26.9868 19.3471 27.0623 19.779 26.7708 20.308C26.5225 20.7722 26.3066 21.2581 26.1662 21.7547C25.9827 22.3593 25.6156 22.6076 25.011 22.5968C24.3956 22.586 23.7802 22.5968 23.1541 22.5968C23.1541 23.2986 23.1541 23.914 23.1541 24.5834C23.8342 24.5834 24.4712 24.5941 25.1082 24.5834C25.6588 24.5726 25.9719 24.8209 26.1447 25.3391C26.3174 25.8573 26.5117 26.3648 26.7708 26.8506C27.0515 27.3796 26.9976 27.8115 26.5657 28.2109C26.0907 28.6428 25.6156 29.0638 25.2702 29.3877C25.7884 29.9707 26.1987 30.4566 26.6629 30.9748C27.1379 30.4782 27.5806 30.0139 28.034 29.5605C28.3903 29.1934 28.779 29.1394 29.254 29.3661C29.7399 29.6037 30.2365 29.8412 30.7547 29.9923C31.3485 30.1759 31.6292 30.5322 31.6076 31.1476C31.5968 31.7629 31.6076 32.3783 31.6076 33.0153C32.2986 33.0153 32.914 33.0153 33.5834 33.0153C33.5834 32.3351 33.5834 31.6982 33.5834 31.0612C33.5834 30.5214 33.8425 30.1975 34.3499 30.0247C34.8789 29.8412 35.4079 29.6361 35.9154 29.3769C36.412 29.1286 36.8115 29.1826 37.1786 29.5821C37.6104 30.0355 38.0531 30.4998 38.4849 30.9532Z" fill="#EAB840"/>
<path d="M48.7956 23.223C48.6984 28.1245 47.079 32.022 43.84 35.2285C43.3542 35.7144 42.8791 36.2002 42.3933 36.6861C41.9507 37.1287 41.4324 37.1935 41.0546 36.848C40.6659 36.4917 40.6659 35.9627 41.0978 35.4985C41.9291 34.6131 42.8468 33.8142 43.6025 32.8749C47.1221 28.5024 48.029 23.6008 45.9993 18.3754C43.9912 13.2039 40.0613 10.127 34.5552 9.30643C26.8034 8.15122 19.4834 13.7006 18.2958 21.5063C18.2202 22.0138 18.0799 22.4348 17.5077 22.5212C16.8167 22.6292 16.4064 22.1001 16.536 21.2472C16.8167 19.3795 17.3673 17.5873 18.3174 15.957C21.6967 10.1809 26.7278 7.21194 33.4431 7.42786C40.8818 7.66538 47.3165 13.4522 48.5149 20.7938C48.6768 21.7007 48.7308 22.64 48.7956 23.223Z" fill="#EAB840"/>
<path d="M11.8395 22.7156C12.4656 22.7156 13.0918 22.7048 13.718 22.7156C14.3442 22.7264 14.7437 23.0719 14.7437 23.5901C14.7329 24.0868 14.3442 24.4646 13.7612 24.4646C12.498 24.4754 11.2241 24.4754 9.95009 24.4646C9.35629 24.4538 9 24.0976 9 23.5685C9 23.0395 9.34548 22.7156 9.96088 22.7048C10.5871 22.7048 11.2133 22.7156 11.8395 22.7156Z" fill="#EAB840"/>
<path d="M53.3083 22.7156C53.9561 22.7156 54.5931 22.7048 55.2409 22.7156C55.8023 22.7264 56.1478 23.0611 56.1478 23.5685C56.1586 24.0652 55.8131 24.4538 55.2625 24.4646C53.9561 24.4862 52.6498 24.4862 51.3434 24.4646C50.782 24.4538 50.3933 24.0328 50.4149 23.5362C50.4365 23.0503 50.8144 22.7264 51.365 22.7048C52.0128 22.7048 52.6606 22.7156 53.3083 22.7156Z" fill="#EAB840"/>
<path d="M48.6767 40.6268C48.3744 40.4541 48.1261 40.3569 47.9533 40.1949C47.0464 39.3096 46.1503 38.4135 45.265 37.5066C44.8547 37.0856 44.8439 36.5674 45.2002 36.2003C45.5565 35.844 46.0963 35.844 46.5066 36.2435C47.4243 37.1396 48.3528 38.0357 49.2165 38.9965C49.4108 39.2125 49.4756 39.6983 49.3892 40.0006C49.3136 40.2597 48.9358 40.4109 48.6767 40.6268Z" fill="#EAB840"/>
<path d="M45.7508 11.3146C45.5241 11.1203 45.1678 10.9691 45.0598 10.7208C44.9519 10.4617 44.9843 9.99747 45.157 9.81393C46.0963 8.79907 47.0788 7.8166 48.0828 6.86652C48.4283 6.53183 48.8926 6.57502 49.2488 6.9205C49.5943 7.26599 49.6375 7.73023 49.3028 8.08651C48.3528 9.09058 47.3595 10.0623 46.3662 11.0231C46.2367 11.1419 46.0207 11.1851 45.7508 11.3146Z" fill="#EAB840"/>
<path d="M20.3254 36.7508C20.1418 37.0639 20.0555 37.3338 19.8719 37.5174C19.0082 38.4135 18.1229 39.2988 17.2268 40.1733C16.7626 40.6267 16.2659 40.6267 15.8881 40.2381C15.5426 39.871 15.5642 39.3636 15.9852 38.9317C16.8705 38.0248 17.7558 37.1071 18.6951 36.2542C18.9218 36.0491 19.3861 35.9735 19.6884 36.0491C19.9259 36.1139 20.0986 36.4917 20.3254 36.7508Z" fill="#EAB840"/>
<path d="M20.2822 10.4401C20.1095 10.656 19.9691 10.9907 19.7316 11.0879C19.4725 11.1958 19.0082 11.1958 18.8247 11.0231C17.7882 10.073 16.8058 9.06895 15.8341 8.05409C15.521 7.71941 15.5642 7.27675 15.8773 6.94206C16.212 6.57498 16.687 6.51021 17.0325 6.8449C18.0581 7.80577 19.0406 8.80984 20.0123 9.8139C20.1527 9.93266 20.1742 10.1594 20.2822 10.4401Z" fill="#EAB840"/>
<path d="M32.6656 19.0556C35.1812 19.1096 37.1893 21.1933 37.1245 23.6765C37.0597 26.2136 34.976 28.1893 32.4281 28.1246C29.9881 28.0706 27.9692 25.9437 28.0232 23.5037C28.0987 20.9882 30.1717 18.9908 32.6656 19.0556ZM32.6008 20.8262C31.0678 20.8154 29.837 22.0138 29.8046 23.5469C29.7722 25.0692 31.0569 26.3648 32.59 26.354C34.1015 26.354 35.3539 25.1016 35.3539 23.5901C35.3539 22.0786 34.1231 20.837 32.6008 20.8262Z" fill="#EAB840"/>
</svg>
