<svg width="65" height="65" viewBox="0 0 65 65" fill="none" xmlns="http://www.w3.org/2000/svg">
<rect width="65" height="65" fill="#F2F2F2"/>
<path d="M33.0949 6C34.2642 6.67382 35.4739 7.28955 36.5915 8.04469C37.6111 8.73013 38.671 9.08447 39.8865 9.1077C40.8773 9.12513 41.8623 9.25872 42.8531 9.32843C43.8958 9.40394 44.6043 9.91512 44.996 10.9026C45.5317 12.2444 46.0848 13.5805 46.6608 14.9049C46.7875 15.1895 46.9891 15.4683 47.2253 15.6774C48.3025 16.6359 49.3913 17.5827 50.4915 18.5179C51.2749 19.1859 51.5399 20.005 51.2865 21.0157C50.9408 22.4214 50.6125 23.8271 50.3014 25.2387C50.2323 25.5465 50.2323 25.8893 50.2957 26.1971C50.6125 27.6435 50.9581 29.0841 51.298 30.5247C51.5169 31.4483 51.2865 32.2325 50.5722 32.854C49.4316 33.8473 48.2853 34.829 47.1562 35.8339C46.9603 36.0082 46.7875 36.2405 46.6838 36.4845C46.1078 37.8263 45.5433 39.1798 45.0018 40.5332C44.5985 41.5439 43.8785 42.0551 42.8186 42.1248C42.2598 42.1597 41.701 42.2178 41.0904 42.27C41.0904 43.0716 41.1019 43.8442 41.0847 44.611C41.0789 44.8607 41.0386 45.1396 40.9291 45.3545C40.7102 45.7843 40.3127 45.9354 39.8461 45.8541C39.4026 45.7785 39.0627 45.3952 39.0454 44.9072C39.0224 44.2857 39.0339 43.6641 39.0339 43.0426C39.0339 42.8567 39.0339 42.6708 39.0339 42.3281C38.5328 42.485 38.0834 42.543 37.7263 42.7522C36.4647 43.4783 35.2262 44.2508 33.9935 45.0176C33.1179 45.5636 32.2711 45.5694 31.3898 45.0176C30.1685 44.2508 28.9473 43.4899 27.7031 42.7754C27.3229 42.5547 26.862 42.485 26.3724 42.3281C26.3724 47.2656 26.3724 52.052 26.3724 56.8965C26.551 56.8268 26.7123 56.7746 26.862 56.7049C28.5902 55.9149 30.3183 55.1307 32.0349 54.3174C32.49 54.1025 32.899 54.1025 33.3541 54.3174C35.0592 55.1191 36.7701 55.8916 38.4809 56.6816C38.6364 56.7513 38.792 56.8152 38.9936 56.9082C39.0109 56.7397 39.0339 56.6119 39.0339 56.4899C39.0397 55.6941 39.0224 54.9041 39.0454 54.1083C39.0627 53.5565 39.4544 53.1557 39.9729 53.115C40.4798 53.0744 40.9349 53.4171 41.0559 53.9457C41.0847 54.0619 41.0904 54.1838 41.0904 54.3058C41.0904 55.1539 41.1077 55.9962 41.0904 56.8443C41.0558 58.5056 39.5754 59.4582 38.0719 58.7786C36.4014 58.0293 34.7481 57.2451 33.0776 56.5015C32.8644 56.4086 32.5419 56.4028 32.3345 56.4957C30.7388 57.1986 29.1317 57.884 27.5821 58.6857C25.8079 59.6034 24.241 58.3662 24.264 56.5654C24.3332 52.0288 24.2871 47.4921 24.2871 42.9555C24.2871 42.7463 24.2871 42.5431 24.2871 42.2758C23.8032 42.2294 23.3309 42.1539 22.8643 42.1539C21.5854 42.148 20.7444 41.5788 20.2893 40.3531C19.8054 39.0462 19.2409 37.7682 18.6937 36.4903C18.59 36.2463 18.4172 36.014 18.2213 35.8397C17.1153 34.858 15.9978 33.8938 14.8802 32.9353C14.1083 32.2789 13.8491 31.4773 14.091 30.484C14.4367 29.0609 14.7708 27.6377 15.0819 26.2088C15.151 25.9009 15.1452 25.5582 15.0761 25.2503C14.765 23.8213 14.4251 22.3982 14.0853 20.975C13.8491 20.005 14.1026 19.2092 14.8572 18.5644C15.9747 17.6001 17.098 16.6417 18.1983 15.66C18.4056 15.4741 18.59 15.2243 18.6994 14.9688C19.2755 13.6269 19.84 12.2735 20.3815 10.92C20.7732 9.93255 21.4817 9.42718 22.5244 9.34585C23.9415 9.2413 25.3528 9.13094 26.7699 8.99733C27.0809 8.96829 27.4093 8.86373 27.68 8.70689C28.9185 7.97499 30.134 7.20823 31.3667 6.4647C31.6547 6.29044 31.9773 6.16265 32.2826 6.01743C32.5476 6 32.8241 6 33.0949 6ZM32.6916 8.07374C32.5707 8.13764 32.4555 8.20153 32.3402 8.27124C31.0269 9.07285 29.7135 9.88608 28.3886 10.6761C28.1466 10.8213 27.8643 10.9491 27.5878 10.9723C26.021 11.1292 24.4541 11.2628 22.8873 11.3731C22.5359 11.3964 22.3458 11.5067 22.2076 11.8494C21.6488 13.2552 21.0727 14.6551 20.4621 16.0434C20.3066 16.3919 20.0647 16.7288 19.7824 16.9844C18.6591 17.9951 17.5128 18.9826 16.3607 19.9527C16.1014 20.1734 16.0438 20.3709 16.1303 20.702C16.5104 22.2414 16.8676 23.7807 17.2075 25.3316C17.2593 25.5756 17.2651 25.8486 17.2075 26.0926C16.8618 27.6377 16.5104 29.1828 16.1245 30.7222C16.0323 31.0881 16.1303 31.2856 16.3952 31.5064C17.5473 32.4822 18.6937 33.4697 19.817 34.4805C20.0877 34.7244 20.3181 35.0497 20.4621 35.3866C21.0727 36.7923 21.6315 38.2155 22.2479 39.6212C22.3285 39.8071 22.5878 40.0162 22.7836 40.0336C24.1776 40.1789 25.5832 40.2486 26.9715 40.3996C27.4957 40.4577 28.0544 40.5913 28.5153 40.8469C29.7999 41.5672 31.0441 42.3572 32.2884 43.1472C32.5937 43.3447 32.8184 43.3272 33.1121 43.1413C34.4025 42.3281 35.7044 41.5323 37.012 40.7539C37.2655 40.6029 37.5765 40.4925 37.8703 40.4635C39.4199 40.3125 40.9694 40.1789 42.5248 40.0685C42.8589 40.0453 43.0374 39.9349 43.1699 39.6154C43.7402 38.1923 44.322 36.7807 44.9327 35.375C45.0709 35.0555 45.2898 34.7418 45.549 34.5095C46.6723 33.4988 47.8186 32.5113 48.9707 31.5354C49.253 31.2972 49.3567 31.0939 49.2588 30.7106C48.8728 29.1945 48.5272 27.6609 48.1873 26.1332C48.1297 25.8777 48.1297 25.5814 48.1873 25.3258C48.5272 23.7807 48.8843 22.2355 49.2645 20.6962C49.3509 20.3477 49.2588 20.1676 49.0111 19.9527C47.859 18.9768 46.7126 17.9893 45.5893 16.9786C45.3071 16.723 45.0709 16.3803 44.9154 16.0318C44.3105 14.6435 43.7402 13.2436 43.1699 11.8378C43.0547 11.5532 42.9165 11.4022 42.5824 11.3847C41.1999 11.2918 39.8173 11.1698 38.4406 11.0595C37.8761 11.013 37.3461 10.9317 36.8392 10.6064C35.6064 9.80476 34.3334 9.06123 33.0718 8.28866C32.9451 8.21315 32.8241 8.14925 32.6916 8.07374Z" fill="#EAB840"/>
<path d="M39.0281 49.4962C39.0281 48.9269 39.4601 48.468 40.0189 48.4564C40.5834 48.4448 41.073 48.9443 41.0615 49.5136C41.05 50.0712 40.5834 50.5243 40.0304 50.5185C39.4716 50.5127 39.0338 50.0712 39.0281 49.4962Z" fill="#EAB840"/>
<path d="M32.6859 12.3723C40.0017 12.3723 45.9407 18.3727 45.9234 25.7441C45.9062 33.0922 39.9671 39.0694 32.6801 39.0636C25.3701 39.0578 19.431 33.0573 19.4425 25.686C19.4598 18.3379 25.3931 12.3723 32.6859 12.3723ZM32.6916 14.446C26.5394 14.4344 21.5105 19.4822 21.499 25.686C21.4817 31.9188 26.4934 36.9841 32.6743 36.9899C38.8381 36.9957 43.8554 31.9595 43.867 25.7557C43.8842 19.5229 38.8784 14.4576 32.6916 14.446Z" fill="#EAB840"/>
<path d="M33.6651 32.5345C33.5096 34.0099 33.3195 34.3468 32.634 34.3643C31.9312 34.3817 31.6777 33.9867 31.5452 32.7959C30.6812 32.4183 29.8574 32.1047 29.0797 31.7039C28.4519 31.3786 28.3078 30.7454 28.6304 30.2226C28.953 29.7056 29.5694 29.5662 30.1512 29.967C30.9865 30.5363 31.9024 30.6176 32.8529 30.5479C33.8552 30.4724 34.6732 29.6476 34.8172 28.602C34.9439 27.6958 34.4773 27.022 33.475 26.6037C32.5476 26.2146 31.6086 25.837 30.7042 25.3897C29.4196 24.7507 28.7284 23.6877 28.832 22.2239C28.9415 20.6439 29.7192 19.4938 31.2342 18.942C31.5222 18.8374 31.5856 18.6922 31.574 18.4192C31.5683 18.1984 31.5856 17.9661 31.6547 17.757C31.8045 17.2923 32.2595 17.0251 32.7434 17.089C33.1985 17.147 33.5614 17.5014 33.6075 17.9777C33.6363 18.2507 33.6132 18.5237 33.6132 18.6631C34.5407 19.1395 35.3875 19.5403 36.1939 20.0108C36.4474 20.156 36.6605 20.4755 36.7585 20.7659C36.8967 21.1725 36.7181 21.5559 36.361 21.8057C35.9866 22.0671 35.5949 22.0497 35.2031 21.8289C34.6962 21.5443 34.2066 21.2132 33.6651 21.0157C33.2273 20.8589 32.7261 20.8066 32.2595 20.8298C31.3955 20.8763 30.7445 21.7069 30.8943 22.5608C30.9461 22.8629 31.1593 23.2288 31.4127 23.3799C32.0867 23.7807 32.8125 24.0885 33.5268 24.4196C33.7285 24.5126 33.9416 24.5707 34.149 24.652C35.8771 25.3026 36.8506 26.5805 36.8794 28.2128C36.914 30.0077 35.8483 31.6574 34.2181 32.3312C34.0395 32.3951 33.8494 32.4648 33.6651 32.5345Z" fill="#EAB840"/>
</svg>
