<svg width="64" height="64" viewBox="0 0 64 64" fill="none" xmlns="http://www.w3.org/2000/svg">
<path d="M13.0253 49.6465H23.8178M51.0128 49.6465H40.2202M27.0965 21.6807H37.889M4.8427 32.3153H32.0748V60.2718H4.8427C4.2297 60.2718 3.72816 59.7703 3.72816 59.1573V33.4299C3.72816 32.8169 4.2297 32.3153 4.8427 32.3153ZM14.1027 32.3153H21.6166V40.8509L17.9665 37.7023L14.1027 40.8509V32.3153ZM9.96033 45.1605H26.4928C27.1058 45.1605 27.6073 45.662 27.6073 46.275V52.7672C27.6073 53.3802 27.1058 53.8818 26.4928 53.8818H9.96033C9.34733 53.8818 8.84578 53.3802 8.84578 52.7672V46.275C8.84578 45.662 9.34733 45.1605 9.96033 45.1605ZM59.1954 32.3153H31.9633V60.2718H59.1954C59.8084 60.2718 60.3099 59.7703 60.3099 59.1573V33.4299C60.3099 32.8169 59.8084 32.3153 59.1954 32.3153ZM49.9354 32.3153H42.4215V40.8509L46.0716 37.7023L49.9354 40.8509V32.3153ZM54.0778 45.1605H37.5453C36.9323 45.1605 36.4308 45.662 36.4308 46.275V52.7672C36.4308 53.3802 36.9323 53.8818 37.5453 53.8818H54.0778C54.6908 53.8818 55.1923 53.3802 55.1923 52.7672V46.275C55.1923 45.662 54.6908 45.1605 54.0778 45.1605ZM18.9138 4.34952H45.0314C45.6444 4.34952 46.1459 4.85106 46.1459 5.46406V32.306H17.7993V5.46406C17.7993 4.85106 18.3008 4.34952 18.9138 4.34952ZM28.1739 4.34952H35.6878V12.8851L32.0376 9.73649L28.1739 12.8851V4.34952ZM24.0315 17.1947H40.5639C41.1769 17.1947 41.6784 17.6962 41.6784 18.3092V24.8014C41.6784 25.4144 41.1769 25.916 40.5639 25.916H24.0315C23.4185 25.916 22.9169 25.4144 22.9169 24.8014V18.3092C22.9169 17.6962 23.4185 17.1947 24.0315 17.1947Z" stroke="#111618" stroke-width="1.5" stroke-miterlimit="22.9256"/>
</svg>
