<svg width="110" height="226" viewBox="0 0 110 226" fill="none" xmlns="http://www.w3.org/2000/svg">
<path d="M98.6046 0.31046C98.6005 0.305938 98.5955 0.301403 98.5914 0.297292C98.5705 0.273036 98.5455 0.249564 98.5213 0.226953C98.5024 0.210097 98.4851 0.192059 98.465 0.176848C98.46 0.172737 98.4567 0.16736 98.4513 0.164482C98.4296 0.147627 98.4061 0.137359 98.3831 0.12297C98.3618 0.110636 98.3417 0.0966518 98.3191 0.0855517C98.2858 0.0691071 98.25 0.0580488 98.2151 0.0461264C98.1966 0.0403708 98.1785 0.03211 98.16 0.0271766C98.1161 0.0152543 98.071 0.00990016 98.0262 0.00702236C98.0151 0.00496679 98.004 0.00126033 97.9925 0.000438104C97.9921 0.000438104 97.9908 0.000839583 97.9904 0.000839583C97.9341 -0.0016271 97.8783 0.00250331 97.8237 0.0103145C97.7965 0.0148368 97.7719 0.023088 97.746 0.0296658C97.7172 0.0370659 97.6888 0.0428439 97.6612 0.0527107C97.6354 0.0625774 97.6125 0.0753059 97.5882 0.0876394C97.5611 0.0999728 97.5332 0.112737 97.5081 0.127948C97.4864 0.141926 97.4666 0.158737 97.4452 0.174359C97.4206 0.193681 97.3955 0.21223 97.3725 0.234019C97.3664 0.239363 97.3602 0.24385 97.3541 0.249195L74.7833 23.0032C74.7734 23.0135 74.7665 23.0258 74.7575 23.0377C74.741 23.0554 74.7226 23.0714 74.7074 23.092C74.6955 23.1072 74.6876 23.1249 74.6774 23.1401C74.6704 23.152 74.6609 23.1602 74.6539 23.1709L60.1685 47.948C60.1644 47.955 60.1628 47.9627 60.1587 47.9701C60.1423 47.9997 60.1295 48.0298 60.1171 48.0618C60.1085 48.0824 60.0991 48.1021 60.0929 48.1227C60.0826 48.156 60.0764 48.1893 60.0703 48.2234C60.067 48.2407 60.0613 48.2567 60.0589 48.2756L57.8846 66.8514L56.0707 70.801L55.0542 70.7364C55.0476 70.7356 55.0415 70.7368 55.0349 70.7364C55.0234 70.7364 55.0118 70.7323 54.9999 70.7323C54.988 70.7323 54.9769 70.7364 54.9654 70.7364C54.9584 70.7368 54.9531 70.7348 54.9462 70.7364L53.9296 70.801L52.1154 66.8514L49.9411 48.2756C49.9391 48.2567 49.9321 48.2391 49.9293 48.2214C49.9235 48.1889 49.9174 48.156 49.9071 48.1243C49.9005 48.1021 49.8906 48.0807 49.8824 48.0597C49.8697 48.0285 49.8572 47.9981 49.8416 47.9701C49.8375 47.9627 49.8355 47.955 49.8318 47.948L35.3464 23.1709C35.3394 23.1606 35.3304 23.1524 35.3234 23.1425C35.3132 23.1252 35.3053 23.1076 35.2926 23.092C35.2774 23.0706 35.2588 23.0549 35.2416 23.036C35.2321 23.0257 35.226 23.0131 35.2165 23.0032L12.6455 0.249195C12.6405 0.24385 12.634 0.239344 12.6283 0.234822C12.6045 0.211799 12.5781 0.192014 12.5514 0.17187C12.5317 0.157481 12.5133 0.141887 12.4931 0.129554C12.4656 0.111465 12.4364 0.097914 12.4068 0.0843472C12.385 0.0740694 12.3632 0.0617552 12.3402 0.0527107C12.3094 0.0424328 12.2778 0.0353893 12.2454 0.0275781C12.2228 0.0218225 12.201 0.0131923 12.1771 0.0103145C12.1217 0.00126997 12.0659 -0.0016271 12.0096 0.000839583C12.0088 0.000839583 12.0079 0.000438104 12.0067 0.000438104C11.9956 0.00126033 11.9857 0.00500533 11.9746 0.00541644C11.9298 0.00952759 11.885 0.0152543 11.8411 0.0271766C11.8201 0.03211 11.8001 0.0407434 11.7799 0.0477323C11.7471 0.0592436 11.7138 0.0695182 11.6817 0.0855517C11.6579 0.0970629 11.636 0.112313 11.6138 0.125057C11.5925 0.139446 11.5695 0.14886 11.549 0.164482C11.5432 0.16736 11.5408 0.172737 11.5358 0.176848C11.5153 0.192059 11.4975 0.210168 11.4782 0.227434C11.454 0.250046 11.4294 0.273036 11.4089 0.297292C11.404 0.301403 11.3993 0.305938 11.3952 0.31046L7.68986 4.86107C7.56701 5.01112 7.5 5.19939 7.5 5.39303V28.4846C7.5 28.5652 7.51191 28.6445 7.53451 28.7214L14.4402 52.3185C14.4497 52.3514 14.4611 52.383 14.475 52.4139L23.7131 73.9287L26.1393 83.3881C26.1532 83.4419 26.172 83.4942 26.1954 83.5439L28.276 87.8775L27.4912 88.5735C27.2509 88.7869 27.1532 89.1166 27.237 89.4265C27.3216 89.7353 27.5739 89.97 27.8894 90.0313L29.862 90.4157L28.6663 95.0181C28.6355 95.1377 28.631 95.2623 28.6532 95.384L29.9555 102.387L27.2863 108.862L20.7906 121.302C20.7877 121.306 20.7866 121.313 20.7837 121.317C20.7763 121.334 20.7701 121.35 20.7627 121.367C20.7504 121.396 20.7385 121.427 20.7295 121.459C20.7241 121.479 20.7204 121.497 20.7163 121.517C20.7122 121.532 20.7068 121.549 20.7048 121.565L19.1316 131.903C19.1111 132.04 19.1247 132.18 19.1711 132.312L22.877 142.762C22.9279 142.907 23.0188 143.035 23.1379 143.132L24.951 144.613L19.1313 154.293C19.1239 154.305 19.121 154.317 19.1153 154.328C19.0935 154.368 19.075 154.41 19.0594 154.454C19.0524 154.475 19.0457 154.497 19.04 154.52C19.0359 154.538 19.0277 154.554 19.0244 154.573C19.0199 154.596 19.0211 154.619 19.0187 154.642C19.017 154.665 19.0134 154.686 19.0134 154.709C19.0121 154.76 19.0162 154.809 19.0236 154.857C19.0257 154.87 19.0253 154.883 19.0286 154.896C19.0409 154.959 19.0606 155.019 19.0873 155.076C19.0886 155.079 19.0894 155.084 19.0902 155.086L26.3113 170.424C26.3134 170.428 26.3155 170.431 26.3176 170.435C26.3373 170.474 26.3606 170.514 26.3853 170.55C26.3873 170.553 26.3893 170.556 26.3914 170.559C26.4201 170.599 26.4522 170.636 26.4875 170.67C26.4957 170.678 26.5056 170.685 26.5146 170.692C26.5418 170.718 26.5698 170.74 26.5986 170.76C26.613 170.77 26.6281 170.777 26.6429 170.787C26.6696 170.802 26.6968 170.817 26.7247 170.831C26.7333 170.834 26.7407 170.839 26.7485 170.844L53.3162 181.968C53.421 182.011 53.5311 182.032 53.6412 182.032C53.7961 182.032 53.9494 181.99 54.0842 181.907C54.3151 181.764 54.463 181.518 54.4819 181.247L55.0041 173.599L55.5319 181.248C55.5508 181.52 55.6989 181.764 55.9298 181.907C56.1615 182.05 56.447 182.072 56.6976 181.967L83.2519 170.842C83.2588 170.839 83.2662 170.835 83.2732 170.831C83.3032 170.817 83.3312 170.802 83.3587 170.786C83.3727 170.777 83.3874 170.77 83.4009 170.76C83.4309 170.739 83.4589 170.717 83.486 170.692C83.4942 170.685 83.5046 170.678 83.5128 170.67C83.5477 170.636 83.5802 170.599 83.6089 170.559C83.6094 170.558 83.6102 170.556 83.611 170.556C83.6385 170.518 83.6619 170.476 83.6824 170.434C83.6845 170.431 83.6866 170.428 83.6882 170.424L90.9093 155.086C90.9113 155.084 90.9113 155.079 90.913 155.075C90.9385 155.019 90.9595 154.958 90.9719 154.896C90.9743 154.883 90.9742 154.87 90.9759 154.857C90.9837 154.809 90.9882 154.76 90.987 154.709C90.9861 154.686 90.9837 154.665 90.9809 154.641C90.978 154.619 90.9795 154.596 90.9746 154.573C90.9717 154.554 90.9644 154.539 90.9598 154.521C90.9537 154.497 90.9479 154.475 90.9401 154.453C90.9249 154.41 90.9065 154.37 90.8855 154.33C90.8794 154.318 90.8761 154.305 90.8692 154.293L85.0498 144.613L86.8621 143.132C86.9812 143.035 87.072 142.907 87.1233 142.762L90.8289 132.312C90.8757 132.18 90.8888 132.04 90.8679 131.903L89.2959 121.565C89.293 121.549 89.2873 121.533 89.284 121.517C89.2803 121.497 89.2762 121.477 89.27 121.459C89.2614 121.427 89.2495 121.398 89.2371 121.369C89.2302 121.351 89.224 121.334 89.2158 121.317C89.2137 121.312 89.2122 121.306 89.2097 121.302L82.7141 108.862L80.0448 102.387L81.3464 95.384C81.3685 95.2623 81.3647 95.1377 81.3335 95.0181L80.138 90.4157L82.1109 90.0313C82.4256 89.97 82.6784 89.7353 82.763 89.4265C82.8476 89.1166 82.7486 88.7869 82.5091 88.5735L81.7243 87.8775L83.8044 83.5439C83.8282 83.4942 83.8472 83.4419 83.8607 83.3881L86.2869 73.9287L95.5253 52.4139C95.5384 52.383 95.5503 52.3514 95.5598 52.3185L102.465 28.7214C102.488 28.6445 102.5 28.5652 102.5 28.4846V5.39303C102.5 5.19939 102.432 5.01112 102.31 4.86107L98.6046 0.31046ZM90.4694 9.5823L78.9519 25.2211L76.6601 23.5031L90.4694 9.5823ZM75.6313 24.8379L78.2242 26.783L75.6453 45.6527L62.4856 47.3218L75.6313 24.8379ZM78.4182 101.917L76.306 103.002L75.202 101.511L74.937 94.2946L76.0401 91.2132L77.2357 90.9801L78.5012 90.812L79.6561 95.2607L78.4182 101.917ZM79.5481 105.604L77.3245 104.374L78.7415 103.645L79.5481 105.604ZM73.5676 90.4251C73.4776 90.7084 73.5443 91.0179 73.7419 91.2404C73.8528 91.3649 73.997 91.4476 74.1523 91.4895L73.2968 93.8777C73.2603 93.9792 73.2444 94.0857 73.2481 94.1934L73.5291 101.835C73.5348 102.005 73.5923 102.169 73.6937 102.305L73.7719 102.41L68.5149 99.505C68.5087 99.4956 68.5039 99.4857 68.4985 99.4762L63.9799 92.8133L71.3881 78.5908L75.4638 84.4171L73.5676 90.4251ZM69.9538 77.6983L62.8862 91.2671L56.0821 81.8086L60.5896 76.8653L69.9538 77.6983ZM62.0165 75.2998L63.9015 73.2327L67.9426 75.8268L62.0165 75.2998ZM71.9723 76.4875C71.9575 76.467 71.9394 76.4502 71.9234 76.4308C71.9106 76.4148 71.8984 76.3983 71.8836 76.3835C71.845 76.3437 71.8038 76.3087 71.759 76.2783C71.7525 76.2737 71.7472 76.2676 71.7411 76.2635C71.7394 76.2631 71.739 76.2618 71.7374 76.2614L67.5691 73.5843L76.7227 75.0083L77.2091 83.8728L77.0237 83.7088L71.9723 76.4875ZM59.4713 67.4344C59.5079 67.3534 59.5317 67.2682 59.5424 67.1803L61.6546 49.1266L75.5849 47.3588L76.463 70.2748L76.6281 73.2882L63.888 71.3059C63.8753 71.3038 63.8629 71.3058 63.8498 71.3046C63.8371 71.3034 63.8255 71.2988 63.8132 71.2972L57.8714 70.9165L59.4713 67.4344ZM55.8422 72.4755L61.9541 72.8677L55.8422 79.5713V72.4755ZM55.8422 84.3596L60.9265 91.4286L55.8422 90.0358V84.3596ZM55.8422 91.7835L62.4787 93.6014L66.7384 99.8836C66.7154 100.187 66.8592 100.49 67.1304 100.66L70.0245 110.635C70.0553 110.74 70.1054 110.838 70.174 110.924L77.2337 119.796V129.662L74.522 133.17L75.1988 129.428C75.2206 129.308 75.216 129.186 75.1864 129.069L72.4912 118.451C72.4723 118.374 72.4424 118.3 72.4021 118.232L67.2647 109.467C67.1911 109.342 67.0861 109.238 66.9612 109.165L59.4237 104.782C59.3785 104.757 59.3323 104.735 59.2839 104.718L55.8422 103.486V91.7835ZM55.8422 105.276L58.6438 106.278L65.9238 110.512L70.8885 118.982L73.5093 129.306L72.2931 136.024L69.5589 139.044L63.9352 137.305L57.6928 134.675L55.8422 133.101V126.054L63.5317 119.819C63.7963 119.603 63.9057 119.249 63.8079 118.922L62.0392 113.022C61.9968 112.882 61.9196 112.757 61.8153 112.656L55.8422 106.922V105.276ZM67.6662 140.223L60.5301 144.109H55.8414V138.483L60.6378 137.744L63.3202 138.874C63.3448 138.885 63.3715 138.894 63.3974 138.903L67.6662 140.223ZM54.9999 108.449L60.4893 113.719L62.0313 118.864L54.9999 124.567L47.9678 118.864L49.5105 113.719L54.9999 108.449ZM34.8004 129.428L35.4783 133.17L32.7662 129.662V119.796L39.8255 110.924C39.8941 110.838 39.9455 110.74 39.9755 110.635L42.8692 100.66C43.1407 100.49 43.285 100.187 43.2616 99.8828L47.5216 93.6014L54.1577 91.7835V103.486L50.7165 104.718C50.6672 104.735 50.6206 104.757 50.5767 104.782L43.0388 109.165C42.9131 109.238 42.8088 109.342 42.7356 109.467L37.5982 118.232C37.5579 118.3 37.528 118.374 37.5083 118.451L34.8131 129.069C34.7835 129.186 34.7798 129.308 34.8004 129.428ZM36.7027 93.8777L35.8484 91.4916C36.2103 91.3979 36.4783 91.0706 36.4783 90.6796C36.4783 90.5526 36.4508 90.4338 36.4011 90.3265L34.5365 84.4171L38.6123 78.5908L46.0199 92.8133L41.5023 99.4762C41.4957 99.4857 41.4916 99.496 41.4854 99.505L36.2284 102.41L36.3058 102.305C36.4073 102.169 36.4651 102.005 36.4712 101.835L36.7519 94.1934C36.7556 94.0857 36.7392 93.9792 36.7027 93.8777ZM31.581 101.917L30.3434 95.2607L31.4991 90.812L32.7643 90.9801L33.9597 91.2132L35.0625 94.2946L34.7975 101.511L33.694 103.002L31.581 101.917ZM32.6763 104.374L30.4514 105.604L31.2589 103.645L32.6763 104.374ZM47.1144 91.2671L40.0466 77.6983L49.4102 76.8653L53.9174 81.8086L47.1144 91.2671ZM54.1577 84.3596V90.0358L49.0738 91.4286L54.1577 84.3596ZM42.0569 75.8268L46.098 73.2327L47.9835 75.2998L42.0569 75.8268ZM38.2626 76.2614C38.2614 76.2614 38.2606 76.2631 38.2602 76.2635C38.2524 76.2684 38.2463 76.2758 38.2389 76.2795C38.1953 76.3111 38.1537 76.3461 38.1159 76.3835C38.1024 76.3983 38.0896 76.4147 38.0765 76.4299C38.0608 76.4501 38.0424 76.4661 38.028 76.4875L32.9753 83.7088L32.7912 83.8728L33.2773 75.0083L42.4307 73.5843L38.2626 76.2614ZM39.1115 118.982L44.0767 110.512L51.3562 106.278L54.1577 105.276V106.922L48.1847 112.656C48.0796 112.757 48.0027 112.882 47.9612 113.022L46.1926 118.922C46.0944 119.249 46.2039 119.603 46.4689 119.819L54.1577 126.054V133.101L52.3077 134.675L48.9069 136.107C48.9024 136.109 48.8956 136.111 48.8902 136.114L46.0651 137.305L40.4414 139.044L37.7067 136.024L36.491 129.306L39.1115 118.982ZM54.1577 72.4755V79.5713L48.0451 72.8677L54.1577 72.4755ZM50.4579 67.1803C50.4678 67.2682 50.4925 67.3534 50.5295 67.4344L52.1289 70.9165L46.1871 71.2972C46.174 71.2988 46.1625 71.3034 46.1502 71.3046C46.1367 71.3058 46.1243 71.3038 46.112 71.3059L33.3714 73.2882L33.537 70.2608L34.4141 47.3588L48.3449 49.1266L50.4579 67.1803ZM47.5147 47.3218L34.355 45.6527L31.7761 26.783L34.3685 24.8379L47.5147 47.3218ZM33.3395 23.5031L31.048 25.2211L19.5298 9.5819L33.3395 23.5031ZM9.18498 28.3637V5.69357L12.0149 2.21805L30.0685 26.7328L32.7643 46.4482L31.8549 70.1823L31.7119 72.7958L16.0136 51.699L9.18498 28.3637ZM29.5866 86.7144L27.7498 82.8881L25.3286 73.447C25.3171 73.4042 25.3035 73.363 25.2862 73.3227L18.849 58.331L31.5673 75.4244L31.0181 85.4453L29.5866 86.7144ZM29.8854 88.703L33.196 85.7664L34.3722 89.4935L33.0366 89.3164L29.8854 88.703ZM40.7786 101.821L38.4043 110.004L32.3102 117.663L29.7398 107.922L40.7786 101.821ZM28.5615 110.06L31.0817 119.61V129.95C31.0817 130.138 31.1434 130.319 31.2581 130.466L36.2547 136.928C36.2626 136.937 36.2724 136.944 36.2811 136.954C36.2868 136.962 36.2901 136.971 36.2971 136.979L39.5531 140.574C39.5642 140.586 39.5774 140.594 39.5889 140.605C39.6123 140.628 39.6364 140.651 39.6627 140.671C39.6845 140.688 39.7071 140.703 39.7301 140.717C39.7458 140.727 39.7581 140.739 39.7749 140.748L48.8519 145.692C48.976 145.76 49.1145 145.795 49.255 145.795H49.5998L47.5882 146.516L34.3476 141.789L22.5003 121.668L28.5615 110.06ZM45.0878 147.413L43.8942 147.841L34.325 149.454L34.5699 143.657L45.0878 147.413ZM24.3848 141.976L20.8293 131.947L22.0129 124.161L32.9244 142.693L32.6692 148.741L24.3848 141.976ZM21.3154 155.859L51.5245 161.508L27.523 169.041L21.3154 155.859ZM52.8816 179.958L29.527 170.179L54.0755 162.474L52.8816 179.958ZM54.1569 160.285L21.1991 154.122L26.2694 145.689L32.9076 151.111C32.9129 151.115 32.9191 151.118 32.9244 151.122C32.9421 151.136 32.9615 151.148 32.98 151.16C33.0042 151.176 33.0288 151.191 33.0551 151.205C33.0748 151.215 33.0949 151.224 33.1159 151.233C33.1438 151.245 33.1722 151.254 33.2001 151.263C33.2215 151.269 33.2423 151.275 33.2637 151.28C33.2966 151.287 33.329 151.291 33.3627 151.293C33.3775 151.295 33.3899 151.299 33.4043 151.3C33.4162 151.3 33.4281 151.3 33.4396 151.3H33.4404C33.4416 151.3 33.4429 151.3 33.4446 151.3C33.4902 151.3 33.5346 151.296 33.5794 151.289L44.2476 149.491C44.2969 149.482 44.3449 149.47 44.3917 149.454L51.1913 147.015L54.1569 146.681V160.285ZM54.1569 144.109H49.4691L42.3338 140.223L46.6021 138.903C46.6288 138.894 46.6544 138.885 46.6798 138.874L49.3618 137.744L54.1569 138.483V144.109ZM54.9999 136.908L52.3254 136.495L53.0809 136.178C53.1602 136.144 53.234 136.099 53.2994 136.043L54.9999 134.597L56.7005 136.043C56.7662 136.099 56.8398 136.144 56.9195 136.178L57.6746 136.495L54.9999 136.908ZM57.1315 179.958L55.9248 162.474L80.4746 170.18L57.1315 179.958ZM82.4775 169.041L58.475 161.508L88.6841 155.859L82.4775 169.041ZM88.8005 154.122L55.8414 160.287V146.681L58.8082 147.015L65.6078 149.454C65.655 149.47 65.7031 149.482 65.7524 149.491L76.4198 151.289C76.465 151.296 76.5106 151.3 76.5549 151.3C76.557 151.3 76.5586 151.3 76.5594 151.3C76.5594 151.3 76.5594 151.3 76.5602 151.3C76.5722 151.3 76.5842 151.3 76.5957 151.3C76.6097 151.299 76.6228 151.295 76.6368 151.293C76.6705 151.291 76.7029 151.287 76.7361 151.28C76.7575 151.275 76.7784 151.269 76.7994 151.263C76.8281 151.254 76.8554 151.245 76.8833 151.233C76.9047 151.224 76.9255 151.215 76.9453 151.205C76.9715 151.191 76.9959 151.176 77.0205 151.16C77.0386 151.148 77.0579 151.136 77.0756 151.123C77.0805 151.118 77.0875 151.115 77.0924 151.111L83.7309 145.69L88.8005 154.122ZM64.9122 147.413L75.4296 143.657L75.674 149.454L66.1058 147.841L64.9122 147.413ZM89.1705 131.947L85.6147 141.976L77.3306 148.741L77.0756 142.693L87.9866 124.162L89.1705 131.947ZM87.4992 121.668L75.6524 141.789L62.4118 146.516L60.4006 145.795H60.7445C60.8854 145.795 61.0239 145.76 61.1471 145.692L70.2257 140.748C70.2413 140.739 70.2546 140.727 70.2694 140.718C70.2924 140.703 70.3154 140.688 70.3376 140.671C70.3635 140.651 70.3876 140.628 70.4106 140.605C70.4229 140.594 70.4361 140.586 70.4464 140.574L73.7032 136.979C73.7094 136.971 73.7127 136.962 73.7193 136.955C73.7271 136.946 73.7374 136.937 73.7456 136.928L78.7419 130.466C78.8566 130.319 78.9186 130.138 78.9186 129.95V119.61L81.4383 110.06L87.4992 121.668ZM80.26 107.922L77.6898 117.663L71.5955 110.004L69.2212 101.821L80.26 107.922ZM76.9645 89.316L75.6281 89.4935L76.8035 85.7664L80.1151 88.703L76.9645 89.316ZM84.7138 73.3227C84.6969 73.363 84.6824 73.4042 84.6717 73.447L82.2498 82.8881L80.4129 86.7144L78.9814 85.4453L78.4322 75.4244L91.1513 58.3306L84.7138 73.3227ZM100.815 28.3637L93.9859 51.6998L78.2879 72.7962L78.1449 70.1967L77.2357 46.4482L79.931 26.7328L97.9854 2.21765L100.815 5.69357V28.3637Z" fill="white"/>
<path d="M0 202.032H9.14749C10.4375 202.032 11.5102 202.142 12.3638 202.356C13.2121 202.57 13.9602 202.893 14.6079 203.336C15.4208 203.907 16.0685 204.67 16.5396 205.61C17.0113 206.55 17.2467 207.578 17.2467 208.68C17.2467 210.076 16.8582 211.351 16.0806 212.506C15.303 213.653 14.1721 214.468 12.6882 214.94L17.5411 225.782H14.2782L9.78375 215.57H3.03981V225.782H0V202.032ZM3.03981 204.595V213.007H9.21811C10.055 213.007 10.8205 212.851 11.5101 212.54C12.1991 212.234 12.7589 211.795 13.1827 211.236C13.4473 210.872 13.6479 210.463 13.7898 210.007C13.925 209.551 13.9955 209.102 13.9955 208.651C13.9955 208.028 13.8716 207.439 13.6184 206.886C13.3651 206.326 13.0062 205.864 12.5465 205.489C12.146 205.183 11.6861 204.958 11.1736 204.814C10.6612 204.669 9.98435 204.595 9.14749 204.595H3.03981ZM31.1536 202.032L39.0408 225.782H35.7246L33.5156 218.893H24.7688L22.5778 225.782H19.8154L27.6667 202.032H31.1536ZM32.7327 216.469L29.1158 205.212L25.5403 216.469H32.7327ZM42.2744 202.032H51.5218C52.9063 202.032 53.9898 202.137 54.7734 202.344C55.563 202.552 56.2345 202.852 56.7876 203.233C57.512 203.73 58.0718 204.352 58.4663 205.108C58.8674 205.864 59.0612 206.741 59.0612 207.734C59.0612 208.68 58.8908 209.51 58.5549 210.232C58.2137 210.954 57.7599 211.542 57.1828 211.992C56.8823 212.228 56.5291 212.447 56.1107 212.65C55.6983 212.851 55.2804 213.018 54.856 213.14V213.21C55.339 213.302 55.8161 213.446 56.2872 213.66C56.7584 213.867 57.2002 214.133 57.6126 214.462C58.3609 215.05 58.9267 215.766 59.3032 216.608C59.6863 217.456 59.8747 218.368 59.8747 219.355C59.8747 220.335 59.6682 221.253 59.2557 222.118C58.8373 222.984 58.2669 223.694 57.5301 224.26C56.847 224.803 56.0635 225.189 55.174 225.425C54.2785 225.662 53.0776 225.782 51.5578 225.782H42.2744V202.032ZM45.3142 204.595V212.142H50.409C51.5158 212.142 52.3934 212.05 53.0417 211.87C53.6953 211.692 54.2551 211.409 54.7262 211.028C55.1799 210.653 55.5037 210.232 55.7162 209.754C55.9221 209.274 56.0221 208.755 56.0221 208.19C56.0221 207.549 55.9101 207 55.6802 206.545C55.451 206.089 55.0913 205.702 54.6088 205.391C54.2023 205.12 53.7313 204.918 53.189 204.79C52.6472 204.658 51.881 204.595 50.892 204.595H45.3142ZM45.3142 214.565V223.221H51.3571C52.1754 223.221 52.8944 223.14 53.5248 222.984C54.1491 222.828 54.6795 222.586 55.1034 222.257C55.5631 221.899 55.9342 221.438 56.2108 220.878C56.4873 220.324 56.623 219.683 56.623 218.962C56.623 218.362 56.5231 217.809 56.3226 217.289C56.122 216.77 55.8216 216.313 55.4331 215.916C54.938 215.431 54.3609 215.085 53.6952 214.877C53.0356 214.67 52.1107 214.565 50.9267 214.565H45.3142ZM64.4985 202.032H73.7458C75.1304 202.032 76.2139 202.137 76.9975 202.344C77.7864 202.552 78.458 202.852 79.0117 203.233C79.736 203.73 80.2957 204.352 80.6901 205.108C81.0906 205.864 81.2852 206.741 81.2852 207.734C81.2852 208.68 81.1146 209.51 80.7788 210.232C80.437 210.954 79.9832 211.542 79.4062 211.992C79.1057 212.228 78.7526 212.447 78.3348 212.65C77.9217 212.851 77.5038 213.018 77.08 213.14V213.21C77.5625 213.302 78.0401 213.446 78.5106 213.66C78.9823 213.867 79.4241 214.133 79.836 214.462C80.5842 215.05 81.15 215.766 81.5266 216.608C81.9103 217.456 82.098 218.368 82.098 219.355C82.098 220.335 81.8916 221.253 81.4798 222.118C81.0614 222.984 80.4902 223.694 79.7539 224.26C79.0709 224.803 78.2873 225.189 77.3978 225.425C76.5023 225.662 75.3009 225.782 73.7816 225.782H64.4985V202.032ZM67.5376 204.595V212.142H72.633C73.7398 212.142 74.6174 212.05 75.2657 211.87C75.9194 211.692 76.4789 211.409 76.95 211.028C77.4038 210.653 77.7277 210.232 77.9396 209.754C78.1455 209.274 78.2461 208.755 78.2461 208.19C78.2461 207.549 78.1341 207 77.9043 206.545C77.675 206.089 77.3152 205.702 76.8322 205.391C76.4263 205.12 75.9545 204.918 75.4128 204.79C74.8705 204.658 74.1049 204.595 73.1154 204.595H67.5376ZM67.5376 214.565V223.221H73.5812C74.3995 223.221 75.1182 223.14 75.7486 222.984C76.3729 222.828 76.9028 222.586 77.3272 222.257C77.7863 221.899 78.1574 221.438 78.4346 220.878C78.7112 220.324 78.8471 219.683 78.8471 218.962C78.8471 218.362 78.7465 217.809 78.5466 217.289C78.3461 216.77 78.0456 216.313 77.6571 215.916C77.1621 215.431 76.5849 215.085 75.9193 214.877C75.2596 214.67 74.3348 214.565 73.1507 214.565H67.5376ZM89.7614 202.032V225.782H86.7218V202.032H89.7614ZM93.2483 202.032H110V204.595H103.144V225.782H100.104V204.595H93.2483V202.032Z" fill="white"/>
</svg>
