<svg width="88" height="202" viewBox="0 0 88 202" fill="none" xmlns="http://www.w3.org/2000/svg">
<path d="M83.8091 0.285419C83.8053 0.281262 83.8008 0.277093 83.797 0.273313C83.7777 0.251014 83.7548 0.229435 83.7325 0.208648C83.7151 0.193152 83.6992 0.176569 83.6807 0.162585C83.6761 0.158805 83.673 0.153862 83.6681 0.151217C83.6481 0.13572 83.6265 0.126281 83.6054 0.113052C83.5857 0.101714 83.5672 0.0888573 83.5465 0.0786525C83.5158 0.0635344 83.4829 0.0533681 83.4508 0.0424075C83.4338 0.0371161 83.4172 0.0295216 83.4001 0.0249862C83.3597 0.0140256 83.3182 0.00910334 83.277 0.00645767C83.2668 0.0045679 83.2566 0.00116042 83.246 0.000404518C83.2456 0.000404518 83.2445 0.000773613 83.2441 0.000773613C83.1923 -0.0014941 83.141 0.00230314 83.0907 0.00948424C83.0658 0.0136417 83.0431 0.0212274 83.0192 0.0272746C82.9928 0.0340777 82.9666 0.0393898 82.9413 0.0484606C82.9175 0.0575315 82.8964 0.0692333 82.8741 0.0805718C82.8492 0.0919104 82.8235 0.103645 82.8004 0.117629C82.7804 0.130479 82.7622 0.145934 82.7426 0.160296C82.7199 0.17806 82.6969 0.195112 82.6757 0.215144C82.67 0.220057 82.6644 0.224182 82.6587 0.229095L61.8954 21.1477C61.8863 21.1571 61.8799 21.1685 61.8716 21.1794C61.8565 21.1957 61.8395 21.2104 61.8255 21.2293C61.8146 21.2433 61.8074 21.2596 61.7979 21.2735C61.7915 21.2845 61.7828 21.2921 61.7764 21.3019L48.4509 44.0803C48.4471 44.0868 48.4457 44.0939 48.4419 44.1007C48.4268 44.1279 48.415 44.1555 48.4036 44.185C48.3957 44.2039 48.387 44.2221 48.3813 44.241C48.3719 44.2716 48.3662 44.3022 48.3605 44.3335C48.3575 44.3494 48.3523 44.3641 48.35 44.3815L46.3499 61.4589L44.6813 65.0899L43.7461 65.0306C43.7401 65.0298 43.7344 65.031 43.7284 65.0306C43.7178 65.0306 43.7072 65.0268 43.6962 65.0268C43.6852 65.0268 43.6751 65.0306 43.6645 65.0306C43.658 65.031 43.6532 65.0291 43.6468 65.0306L42.7116 65.0899L41.0427 61.4589L39.0425 44.3815C39.0406 44.3641 39.0342 44.3479 39.0316 44.3317C39.0263 44.3018 39.0207 44.2715 39.0112 44.2424C39.0052 44.222 38.996 44.2024 38.9885 44.1831C38.9768 44.1544 38.9653 44.1264 38.951 44.1007C38.9472 44.0939 38.9454 44.0868 38.942 44.0803L25.6165 21.3019C25.6101 21.2924 25.6018 21.2848 25.5954 21.2757C25.5859 21.2599 25.5787 21.2437 25.567 21.2293C25.553 21.2097 25.536 21.1952 25.5201 21.1779C25.5114 21.1684 25.5057 21.1567 25.497 21.1477L4.73342 0.229095C4.72888 0.224182 4.72291 0.220039 4.71762 0.215882C4.6957 0.194717 4.67147 0.176528 4.6469 0.158008C4.62876 0.14478 4.61183 0.130444 4.59331 0.119105C4.56798 0.102475 4.54109 0.0900177 4.51388 0.0775453C4.49385 0.0680964 4.47377 0.0567756 4.45261 0.0484606C4.42426 0.0390118 4.39521 0.0325364 4.36535 0.0253553C4.34457 0.020064 4.32453 0.0121299 4.30261 0.00948424C4.25158 0.00116928 4.20025 -0.0014941 4.14847 0.000773613C4.14772 0.000773613 4.14695 0.000404518 4.14582 0.000404518C4.13561 0.00116042 4.12649 0.00460334 4.11629 0.00498129C4.07509 0.00876082 4.0339 0.0140256 3.99345 0.0249862C3.97418 0.0295216 3.95572 0.0374587 3.9372 0.0438838C3.90697 0.0544665 3.87633 0.0639124 3.84685 0.0786525C3.82493 0.0892352 3.80481 0.103255 3.7844 0.114971C3.76475 0.1282 3.74365 0.136854 3.72475 0.151217C3.71946 0.153862 3.71718 0.158805 3.71265 0.162585C3.69375 0.176569 3.67741 0.193217 3.65965 0.209091C3.63735 0.229878 3.61476 0.251014 3.59587 0.273313C3.59133 0.277093 3.5871 0.281262 3.58332 0.285419L0.174656 4.46896C0.0616476 4.60691 0 4.77999 0 4.95801V26.1869C0 26.261 0.0109547 26.3339 0.0317421 26.4046L6.38445 48.0983C6.39314 48.1285 6.40364 48.1576 6.41649 48.186L14.9148 67.9654L17.1467 76.6617C17.1595 76.7112 17.1768 76.7592 17.1983 76.805L19.1123 80.789L18.3904 81.4288C18.1693 81.625 18.0794 81.9281 18.1565 82.2131C18.2344 82.4969 18.4664 82.7127 18.7566 82.769L20.5713 83.1225L19.4714 87.3536C19.443 87.4636 19.4388 87.5781 19.4593 87.69L20.6573 94.1284L18.2018 100.081L12.2263 111.518C12.2237 111.521 12.2226 111.527 12.22 111.531C12.2132 111.546 12.2074 111.562 12.2006 111.577C12.1893 111.604 12.1784 111.633 12.1701 111.662C12.1652 111.68 12.1618 111.696 12.158 111.715C12.1542 111.729 12.1492 111.744 12.1473 111.759L10.7002 121.264C10.6813 121.389 10.6938 121.518 10.7365 121.639L14.1456 131.246C14.1925 131.379 14.2761 131.497 14.3857 131.587L16.0535 132.948L10.6999 141.847C10.6931 141.858 10.6904 141.869 10.6851 141.88C10.6651 141.916 10.6481 141.955 10.6338 141.995C10.6273 142.015 10.6212 142.035 10.6159 142.056C10.6121 142.072 10.6046 142.087 10.6016 142.105C10.5974 142.126 10.5985 142.147 10.5963 142.168C10.5947 142.189 10.5914 142.209 10.5914 142.229C10.5903 142.276 10.594 142.321 10.6008 142.365C10.6027 142.378 10.6024 142.39 10.6054 142.401C10.6168 142.46 10.6349 142.514 10.6594 142.567C10.6606 142.57 10.6614 142.574 10.6621 142.576L17.3049 156.677C17.3068 156.681 17.3088 156.684 17.3107 156.687C17.3288 156.723 17.3503 156.759 17.373 156.793C17.3749 156.795 17.3767 156.798 17.3786 156.801C17.405 156.838 17.4345 156.872 17.467 156.903C17.4746 156.91 17.4837 156.917 17.492 156.924C17.5169 156.947 17.5427 156.967 17.5692 156.986C17.5824 156.995 17.5963 157.002 17.6099 157.011C17.6345 157.025 17.6595 157.038 17.6852 157.052C17.6932 157.054 17.6999 157.059 17.7071 157.063L42.1473 167.29C42.2437 167.329 42.345 167.349 42.4463 167.349C42.5888 167.349 42.7298 167.31 42.8538 167.234C43.0662 167.102 43.2023 166.876 43.2196 166.627L43.7001 159.596L44.1856 166.628C44.203 166.878 44.3392 167.102 44.5516 167.234C44.7648 167.365 45.0274 167.385 45.2579 167.289L69.6858 157.061C69.6922 157.059 69.699 157.055 69.7054 157.052C69.733 157.038 69.7588 157.025 69.7841 157.01C69.797 157.002 69.8105 156.995 69.8229 156.986C69.8505 156.967 69.8762 156.946 69.9012 156.924C69.9087 156.917 69.9183 156.91 69.9258 156.903C69.958 156.872 69.9878 156.838 70.0143 156.801C70.0146 156.8 70.0154 156.798 70.0162 156.798C70.0415 156.763 70.063 156.725 70.0819 156.686C70.0838 156.683 70.0857 156.681 70.0872 156.677L76.73 142.576C76.7319 142.574 76.7319 142.57 76.7334 142.566C76.7569 142.514 76.7763 142.458 76.7876 142.401C76.7899 142.39 76.7898 142.378 76.7913 142.366C76.7985 142.321 76.8026 142.277 76.8015 142.229C76.8007 142.209 76.7985 142.189 76.7959 142.167C76.7932 142.147 76.7946 142.126 76.7901 142.105C76.7875 142.087 76.7807 142.073 76.7765 142.057C76.7709 142.035 76.7655 142.015 76.7584 141.994C76.7444 141.955 76.7274 141.918 76.7082 141.881C76.7025 141.87 76.6995 141.858 76.6931 141.847L71.3398 132.948L73.0069 131.587C73.1165 131.497 73.2 131.379 73.2472 131.246L76.6561 121.639C76.6991 121.518 76.7112 121.389 76.6919 121.264L75.2458 111.759C75.2432 111.744 75.2379 111.729 75.2349 111.715C75.2315 111.696 75.2277 111.678 75.222 111.661C75.2141 111.633 75.2031 111.605 75.1918 111.579C75.1854 111.562 75.1797 111.546 75.1721 111.531C75.1703 111.526 75.1688 111.521 75.1665 111.518L69.191 100.081L66.7355 94.1284L67.9329 87.69C67.9533 87.5781 67.9498 87.4636 67.9211 87.3536L66.8213 83.1225L68.6362 82.769C68.9257 82.7127 69.1582 82.4969 69.2361 82.2131C69.3139 81.9281 69.2229 81.625 69.0025 81.4288L68.2806 80.789L70.1941 76.805C70.216 76.7592 70.2334 76.7112 70.2459 76.6617L72.4778 67.9654L80.9764 48.186C80.9885 48.1576 80.9994 48.1285 81.0081 48.0983L87.3608 26.4046C87.3812 26.3339 87.3926 26.261 87.3926 26.1869V4.95801C87.3926 4.77999 87.3305 4.60691 87.2182 4.46896L83.8091 0.285419ZM76.3253 8.80936L65.7301 23.1867L63.6218 21.6073L76.3253 8.80936ZM62.6755 22.8344L65.0607 24.6225L62.6883 41.9702L50.5825 43.5047L62.6755 22.8344ZM65.2392 93.6957L63.2962 94.6939L62.2806 93.323L62.0368 86.6884L63.0515 83.8556L64.1514 83.6413L65.3156 83.4868L66.378 87.5766L65.2392 93.6957ZM66.2786 97.0852L64.2331 95.9547L65.5366 95.285L66.2786 97.0852ZM60.777 83.1311C60.6942 83.3915 60.7556 83.6761 60.9374 83.8806C61.0394 83.9951 61.172 84.0711 61.3149 84.1097L60.528 86.3052C60.4943 86.3985 60.4797 86.4964 60.4831 86.5954L60.7416 93.6205C60.7469 93.7766 60.7997 93.9274 60.8931 94.0528L60.965 94.1496L56.1289 91.4786C56.1233 91.4699 56.1188 91.4608 56.1139 91.4521L51.9571 85.3266L58.7721 72.2514L62.5214 77.6078L60.777 83.1311ZM57.4527 71.4309L50.951 83.9052L44.6917 75.2096L48.8383 70.6651L57.4527 71.4309ZM50.1509 69.2258L51.8849 67.3255L55.6025 69.7104L50.1509 69.2258ZM59.3095 70.3178C59.2959 70.2989 59.2792 70.2834 59.2645 70.2657C59.2528 70.2509 59.2415 70.2358 59.2279 70.2222C59.1923 70.1855 59.1545 70.1534 59.1133 70.1254C59.1072 70.1212 59.1024 70.1156 59.0968 70.1118C59.0952 70.1114 59.0949 70.1103 59.0934 70.1099L55.2589 67.6487L63.6794 68.9579L64.1269 77.1073L63.9564 76.9565L59.3095 70.3178ZM47.8095 61.9949C47.8432 61.9205 47.8651 61.8422 47.875 61.7613L49.818 45.1639L62.6328 43.5387L63.4406 64.6062L63.5925 67.3765L51.8725 65.5541C51.8608 65.5522 51.8495 65.554 51.8374 65.5529C51.8257 65.5518 51.8151 65.5476 51.8037 65.5461L46.3377 65.1962L47.8095 61.9949ZM44.471 66.6293L50.0935 66.9899L44.471 73.1528V66.6293ZM44.471 77.5548L49.1482 84.0537L44.471 82.7732V77.5548ZM44.471 84.3799L50.5761 86.0512L54.4947 91.8267C54.4736 92.106 54.6058 92.3842 54.8553 92.5403L57.5176 101.711C57.546 101.808 57.5921 101.898 57.6552 101.977L64.1495 110.133V119.203L61.655 122.428L62.2776 118.988C62.2976 118.878 62.2935 118.765 62.2662 118.658L59.7868 108.897C59.7694 108.826 59.7419 108.757 59.7049 108.695L54.9788 100.637C54.9112 100.522 54.8146 100.426 54.6997 100.359L47.7657 96.33C47.7241 96.307 47.6817 96.2865 47.6371 96.2707L44.471 95.1384V84.3799ZM44.471 96.7839L47.0483 97.7054L53.7453 101.598L58.3125 109.384L60.7234 118.876L59.6046 125.052L57.0893 127.828L51.9159 126.229L46.1734 123.811L44.471 122.365V115.886L51.5448 110.154C51.7882 109.956 51.8888 109.63 51.7989 109.329L50.1718 103.905C50.1328 103.777 50.0618 103.662 49.9658 103.569L44.471 98.2973V96.7839ZM55.3482 128.912L48.7835 132.485H44.4703V127.312L48.8826 126.633L51.3502 127.672C51.3729 127.682 51.3974 127.69 51.4212 127.699L55.3482 128.912ZM43.6962 99.701L48.746 104.546L50.1645 109.276L43.6962 114.519L37.2272 109.276L38.6464 104.546L43.6962 99.701ZM25.1142 118.988L25.7378 122.428L23.2429 119.203V110.133L29.7369 101.977C29.8 101.898 29.8474 101.808 29.875 101.711L32.5369 92.5403C32.7867 92.3842 32.9194 92.1056 32.8978 91.826L36.8167 86.0512L42.9214 84.3799V95.1384L39.7558 96.2707C39.7104 96.2865 39.6676 96.307 39.6272 96.33L32.6929 100.359C32.5773 100.426 32.4813 100.522 32.414 100.637L27.688 108.695C27.651 108.757 27.6235 108.826 27.6053 108.897L25.1259 118.658C25.0987 118.765 25.0953 118.878 25.1142 118.988ZM26.8642 86.3052L26.0783 84.1116C26.4113 84.0254 26.6578 83.7246 26.6578 83.3651C26.6578 83.2483 26.6325 83.1391 26.5868 83.0405L24.8715 77.6078L28.6209 72.2514L35.4353 85.3266L31.2794 91.4521C31.2734 91.4608 31.2696 91.4703 31.2639 91.4786L26.4279 94.1496L26.4991 94.0528C26.5924 93.9274 26.6456 93.7766 26.6513 93.6205L26.9095 86.5954C26.9129 86.4964 26.8978 86.3985 26.8642 86.3052ZM22.1526 93.6957L21.0142 87.5766L22.0773 83.4868L23.2411 83.6413L24.3409 83.8556L25.3553 86.6884L25.1116 93.323L24.0964 94.6939L22.1526 93.6957ZM23.1602 95.9547L21.1135 97.0852L21.8563 95.285L23.1602 95.9547ZM36.4422 83.9052L29.9404 71.4309L38.5541 70.6651L42.7004 75.2096L36.4422 83.9052ZM42.9214 77.5548V82.7732L38.2447 84.0537L42.9214 77.5548ZM31.7897 69.7104L35.5072 67.3255L37.2416 69.2258L31.7897 69.7104ZM28.2992 70.1099C28.2981 70.1099 28.2974 70.1114 28.297 70.1118C28.2898 70.1164 28.2842 70.1231 28.2774 70.1265C28.2373 70.1556 28.199 70.1878 28.1643 70.2222C28.1518 70.2358 28.14 70.2509 28.128 70.2648C28.1136 70.2834 28.0966 70.2981 28.0834 70.3178L23.4353 76.9565L23.2659 77.1073L23.7131 68.9579L32.1335 67.6487L28.2992 70.1099ZM29.0801 109.384L33.6477 101.598L40.3442 97.7054L42.9214 96.7839V98.2973L37.4268 103.569C37.33 103.662 37.2593 103.777 37.2211 103.905L35.5941 109.329C35.5038 109.63 35.6046 109.956 35.8484 110.154L42.9214 115.886V122.365L41.2196 123.811L38.0911 125.128C38.087 125.13 38.0807 125.132 38.0758 125.135L35.4769 126.229L30.3035 127.828L27.7878 125.052L26.6694 118.876L29.0801 109.384ZM42.9214 66.6293V73.1528L37.2983 66.9899L42.9214 66.6293ZM39.5179 61.7613C39.527 61.8422 39.5497 61.9205 39.5838 61.9949L41.0551 65.1962L35.5891 65.5461C35.577 65.5476 35.5665 65.5518 35.5552 65.5529C35.5427 65.554 35.5314 65.5522 35.52 65.5541L23.7997 67.3765L23.952 64.5933L24.7589 43.5387L37.5741 45.1639L39.5179 61.7613ZM36.8104 43.5047L24.7045 41.9702L22.3321 24.6225L24.7169 22.8344L36.8104 43.5047ZM23.7703 21.6073L21.6623 23.1867L11.0665 8.80899L23.7703 21.6073ZM1.55005 26.0757V5.23431L4.15335 2.03913L20.7613 24.5764L23.2411 42.7015L22.4046 64.5211L22.2731 66.9238L7.83189 47.5288L1.55005 26.0757ZM20.3179 79.7197L18.6282 76.2021L16.4009 67.5225C16.3904 67.4832 16.3778 67.4453 16.362 67.4083L10.4402 53.6258L22.1401 69.3404L21.6348 78.553L20.3179 79.7197ZM20.5928 81.5479L23.6383 78.8482L24.7203 82.2747L23.4917 82.1118L20.5928 81.5479ZM30.6137 93.6076L28.4296 101.131L22.8235 108.172L20.4589 99.2164L30.6137 93.6076ZM19.375 101.182L21.6933 109.962V119.468C21.6933 119.641 21.7501 119.807 21.8556 119.943L26.4521 125.883C26.4593 125.892 26.4684 125.898 26.4763 125.907C26.4816 125.914 26.4847 125.923 26.4911 125.929L29.4864 129.235C29.4966 129.246 29.5087 129.253 29.5193 129.263C29.5408 129.285 29.563 129.305 29.5872 129.324C29.6072 129.34 29.628 129.353 29.6492 129.366C29.6636 129.376 29.6749 129.386 29.6904 129.394L38.0405 133.94C38.1546 134.002 38.2821 134.035 38.4114 134.035H38.7285L36.878 134.698L24.6977 130.352L13.7991 111.854L19.375 101.182ZM34.5778 135.523L33.4798 135.916L24.6769 137.399L24.9022 132.069L34.5778 135.523ZM15.5327 130.524L12.2619 121.304L13.3507 114.146L23.3885 131.183L23.1537 136.743L15.5327 130.524ZM12.7091 143.287L40.4991 148.48L18.4196 155.406L12.7091 143.287ZM41.7475 165.442L20.2631 156.452L42.8458 149.368L41.7475 165.442ZM42.9207 147.356L12.6021 141.69L17.2664 133.937L23.373 138.922C23.3779 138.925 23.3836 138.928 23.3885 138.932C23.4047 138.945 23.4226 138.956 23.4396 138.967C23.4619 138.981 23.4845 138.996 23.5087 139.008C23.5268 139.017 23.5453 139.026 23.5646 139.034C23.5903 139.045 23.6164 139.053 23.6421 139.061C23.6618 139.067 23.6809 139.073 23.7006 139.077C23.7308 139.083 23.7607 139.087 23.7917 139.089C23.8053 139.091 23.8167 139.095 23.8299 139.095C23.8409 139.096 23.8518 139.096 23.8624 139.096H23.8631C23.8643 139.096 23.8655 139.096 23.867 139.096C23.9089 139.095 23.9498 139.092 23.991 139.085L33.8049 137.433C33.8503 137.424 33.8944 137.413 33.9375 137.398L40.1926 135.156L42.9207 134.849V147.356ZM42.9207 132.485H38.6083L32.0443 128.912L35.9709 127.699C35.9955 127.69 36.0189 127.682 36.0424 127.672L38.5095 126.633L42.9207 127.312V132.485ZM43.6962 125.865L41.2358 125.485L41.9309 125.193C42.0038 125.162 42.0717 125.121 42.1318 125.069L43.6962 123.74L45.2606 125.069C45.3211 125.121 45.3888 125.162 45.4621 125.193L46.1567 125.485L43.6962 125.865ZM45.6571 165.442L44.547 149.368L67.1309 156.452L45.6571 165.442ZM68.9734 155.406L46.893 148.48L74.683 143.287L68.9734 155.406ZM74.7901 141.69L44.4703 147.357V134.849L47.1995 135.156L53.4546 137.398C53.4981 137.413 53.5423 137.424 53.5876 137.433L63.4008 139.085C63.4424 139.092 63.4843 139.095 63.5251 139.096C63.527 139.096 63.5285 139.096 63.5293 139.096C63.5293 139.096 63.5293 139.096 63.53 139.096C63.541 139.096 63.5521 139.096 63.5626 139.095C63.5755 139.095 63.5876 139.091 63.6004 139.089C63.6314 139.087 63.6612 139.083 63.6918 139.077C63.7115 139.073 63.7307 139.067 63.75 139.061C63.7765 139.053 63.8015 139.045 63.8272 139.034C63.8469 139.026 63.8661 139.017 63.8842 139.008C63.9084 138.996 63.9308 138.981 63.9534 138.967C63.9701 138.956 63.9878 138.945 64.0041 138.933C64.0086 138.928 64.0151 138.926 64.0196 138.922L70.1265 133.938L74.7901 141.69ZM52.8148 135.523L62.4899 132.069L62.7148 137.399L53.9127 135.916L52.8148 135.523ZM75.1305 121.304L71.8595 130.524L64.2387 136.743L64.0041 131.183L74.0414 114.147L75.1305 121.304ZM73.593 111.854L62.6948 130.352L50.5146 134.698L48.6644 134.035H48.9808C49.1104 134.035 49.2378 134.002 49.3512 133.94L57.7028 129.394C57.7171 129.386 57.7293 129.376 57.7429 129.367C57.7641 129.353 57.7853 129.34 57.8057 129.324C57.8295 129.305 57.8517 129.285 57.8728 129.263C57.8842 129.253 57.8963 129.246 57.9058 129.235L60.9018 125.929C60.9074 125.923 60.9105 125.914 60.9165 125.907C60.9237 125.899 60.9332 125.892 60.9407 125.883L65.537 119.943C65.6425 119.807 65.6996 119.641 65.6996 119.468V109.962L68.0175 101.182L73.593 111.854ZM66.9335 99.2164L64.5691 108.172L58.9628 101.131L56.7787 93.6076L66.9335 99.2164ZM63.9019 82.1115L62.6725 82.2747L63.7538 78.8482L66.8002 81.5479L63.9019 82.1115ZM71.0306 67.4083C71.0151 67.4453 71.0018 67.4832 70.9919 67.5225L68.7639 76.2021L67.0742 79.7197L65.7573 78.553L65.2521 69.3404L76.9527 53.6255L71.0306 67.4083ZM85.843 26.0757L79.5602 47.5295L65.1193 66.9242L64.9878 64.5344L64.1514 42.7015L66.6309 24.5764L83.2395 2.03877L85.843 5.23431V26.0757Z" fill="#171717"/>
<path d="M8.96973 185.798H14.7453C15.5598 185.798 16.2371 185.868 16.7761 186.006C17.3116 186.144 17.784 186.352 18.193 186.638C18.7062 187.006 19.1151 187.497 19.4126 188.103C19.7104 188.71 19.859 189.372 19.859 190.082C19.859 190.982 19.6137 191.804 19.1228 192.548C18.6318 193.288 17.9178 193.813 16.9808 194.117L20.0449 201.105H17.9848L15.147 194.523H10.889V201.105H8.96973V185.798ZM10.889 187.449V192.871H14.7899C15.3183 192.871 15.8016 192.771 16.237 192.57C16.6721 192.373 17.0255 192.09 17.2931 191.73C17.4602 191.495 17.5868 191.232 17.6764 190.938C17.7618 190.644 17.8063 190.354 17.8063 190.064C17.8063 189.662 17.728 189.283 17.5682 188.926C17.4083 188.565 17.1816 188.267 16.8914 188.025C16.6385 187.829 16.3481 187.683 16.0246 187.591C15.7011 187.497 15.2737 187.449 14.7453 187.449H10.889ZM28.6397 185.798L33.6195 201.105H31.5257L30.1309 196.665H24.6084L23.225 201.105H21.4808L26.4381 185.798H28.6397ZM29.6367 195.103L27.353 187.847L25.0955 195.103H29.6367ZM35.6612 185.798H41.4998C42.374 185.798 43.0581 185.865 43.5528 185.999C44.0514 186.133 44.4754 186.326 44.8246 186.572C45.2819 186.892 45.6354 187.293 45.8845 187.78C46.1377 188.267 46.2601 188.832 46.2601 189.472C46.2601 190.082 46.1525 190.617 45.9404 191.082C45.725 191.548 45.4385 191.927 45.0741 192.217C44.8844 192.369 44.6614 192.51 44.3972 192.641C44.1368 192.771 43.8729 192.878 43.605 192.957V193.002C43.91 193.061 44.2112 193.154 44.5087 193.292C44.8061 193.425 45.0851 193.596 45.3455 193.808C45.8179 194.188 46.1752 194.649 46.4129 195.192C46.6548 195.738 46.7737 196.326 46.7737 196.963C46.7737 197.594 46.6433 198.186 46.3829 198.743C46.1187 199.301 45.7586 199.759 45.2934 200.124C44.8621 200.473 44.3674 200.722 43.8058 200.874C43.2403 201.027 42.4822 201.105 41.5225 201.105H35.6612V185.798ZM37.5805 187.449V192.313H40.7972C41.496 192.313 42.0501 192.254 42.4594 192.138C42.8722 192.023 43.2256 191.841 43.523 191.596C43.8095 191.354 44.014 191.082 44.1481 190.774C44.2781 190.465 44.3412 190.131 44.3412 189.766C44.3412 189.354 44.2705 188.999 44.1254 188.706C43.9806 188.412 43.7535 188.163 43.4489 187.962C43.1923 187.788 42.8949 187.657 42.5525 187.575C42.2104 187.49 41.7266 187.449 41.1022 187.449H37.5805ZM37.5805 193.875V199.454H41.3959C41.9125 199.454 42.3665 199.402 42.7645 199.301C43.1587 199.201 43.4936 199.045 43.7612 198.833C44.0514 198.602 44.2858 198.305 44.4604 197.944C44.635 197.587 44.7207 197.174 44.7207 196.709C44.7207 196.323 44.6576 195.966 44.5309 195.631C44.4043 195.297 44.2146 195.002 43.9693 194.746C43.6568 194.433 43.2924 194.21 42.8721 194.076C42.4556 193.943 41.8716 193.875 41.1241 193.875H37.5805ZM49.6931 185.798H55.5317C56.4059 185.798 57.09 185.865 57.5848 185.999C58.0829 186.133 58.5069 186.326 58.8565 186.572C59.3139 186.892 59.6672 187.293 59.9163 187.78C60.1691 188.267 60.292 188.832 60.292 189.472C60.292 190.082 60.1843 190.617 59.9722 191.082C59.7564 191.548 59.4699 191.927 59.1056 192.217C58.9159 192.369 58.6929 192.51 58.4291 192.641C58.1683 192.771 57.9045 192.878 57.6369 192.957V193.002C57.9415 193.061 58.2431 193.154 58.5401 193.292C58.838 193.425 59.1169 193.596 59.377 193.808C59.8494 194.188 60.2066 194.649 60.4444 195.192C60.6866 195.738 60.8052 196.326 60.8052 196.963C60.8052 197.594 60.6749 198.186 60.4149 198.743C60.1507 199.301 59.79 199.759 59.3251 200.124C58.8939 200.473 58.3992 200.722 57.8375 200.874C57.2721 201.027 56.5136 201.105 55.5543 201.105H49.6931V185.798ZM51.6119 187.449V192.313H54.8291C55.528 192.313 56.0821 192.254 56.4914 192.138C56.9041 192.023 57.2574 191.841 57.5548 191.596C57.8413 191.354 58.0458 191.082 58.1796 190.774C58.3096 190.465 58.3732 190.131 58.3732 189.766C58.3732 189.354 58.3025 188.999 58.1573 188.706C58.0126 188.412 57.7854 188.163 57.4804 187.962C57.2242 187.788 56.9263 187.657 56.5842 187.575C56.2418 187.49 55.7585 187.449 55.1337 187.449H51.6119ZM51.6119 193.875V199.454H55.4278C55.9445 199.454 56.3983 199.402 56.7963 199.301C57.1905 199.201 57.525 199.045 57.793 198.833C58.0828 198.602 58.3172 198.305 58.4922 197.944C58.6668 197.587 58.7526 197.174 58.7526 196.709C58.7526 196.323 58.6891 195.966 58.5629 195.631C58.4363 195.297 58.2466 195.002 58.0013 194.746C57.6887 194.433 57.3243 194.21 56.904 194.076C56.4875 193.943 55.9036 193.875 55.156 193.875H51.6119ZM65.6437 185.798V201.105H63.7246V185.798H65.6437ZM67.8453 185.798H78.4221V187.449H74.0933V201.105H72.1741V187.449H67.8453V185.798Z" fill="#171717"/>
</svg>
