<svg width="60" height="60" viewBox="0 0 60 60" fill="none" xmlns="http://www.w3.org/2000/svg">
<rect width="60" height="60" fill="white"/>
<path d="M59.9867 31.0757C59.9415 27.6895 57.0864 24.8194 53.6927 24.8156C37.9296 24.8005 22.1626 24.8043 6.39944 24.8156C3.60839 24.8194 0.896449 26.8081 0.399259 29.5389C0.0150669 31.6369 0.116764 33.8253 0 36.0174C20.1136 36.0174 40.0351 36.0174 59.9905 36.0174C59.9905 34.3413 60.0093 32.7066 59.9867 31.0757Z" fill="#66ADD9"/>
<path d="M7.64613 21.2747C10.7837 21.2747 13.8761 21.2747 17.0588 21.2747C17.0588 20.6909 17.04 20.1296 17.0626 19.5722C17.1794 16.4422 19.8649 13.6473 22.9912 13.5946C27.6467 13.5155 32.306 13.508 36.9615 13.5908C40.3025 13.6473 42.9165 16.3744 43.0445 19.7153C43.0634 20.2313 43.0483 20.7511 43.0483 21.2709C46.2461 21.2709 49.3347 21.2709 52.461 21.2709C52.4723 21.1127 52.4911 20.9809 52.4911 20.8491C52.4911 18.0844 52.4987 15.3159 52.4836 12.5513C52.4798 12.0691 52.4271 11.5757 52.3217 11.1049C51.6135 8.04266 49.0975 6.01247 45.9109 6.0087C35.3306 5.99363 24.7502 6.00117 14.1661 6.0087C13.684 6.0087 13.1905 6.06143 12.7197 6.17066C9.64242 6.87501 7.63106 9.42123 7.61223 12.6379C7.59716 15.3461 7.60846 18.0505 7.61223 20.7587C7.61223 20.9282 7.63483 21.0977 7.64613 21.2747Z" fill="#66ADD9"/>
<path d="M59.9944 46.017C59.9944 43.8965 59.9944 41.7721 59.9944 39.6025C39.9938 39.6025 20.0685 39.6025 0.113124 39.6025C0.113124 42.7439 0.109358 49.5878 0.113124 52.6839C0.113124 53.7913 0.877742 54.6124 1.87589 54.6049C2.88157 54.5973 3.61605 53.78 3.61982 52.6651C3.62359 52.0699 3.61982 47.7271 3.61982 47.1433C21.2814 47.1433 38.8563 47.1433 56.4801 47.1433C56.4801 47.8175 56.4688 52.2018 56.4839 52.8421C56.5065 53.8139 57.29 54.6011 58.2278 54.6086C59.162 54.6162 59.9718 53.829 59.9906 52.8647C60.0094 51.8289 59.9944 47.0491 59.9944 46.017Z" fill="#66ADD9"/>
<path d="M36.5096 17.0449C32.2044 17.0223 27.8954 17.026 23.5902 17.0449C22.1062 17.0486 20.9423 17.8961 20.6447 19.2257C20.4978 19.8736 20.5468 20.5666 20.5016 21.271C26.901 21.271 33.2025 21.271 39.5681 21.271C39.5681 20.8567 39.5756 20.4725 39.5681 20.0883C39.5229 18.2539 38.3552 17.0524 36.5096 17.0449Z" fill="#66ADD9"/>
</svg>
