<svg width="25" height="25" viewBox="0 0 25 25" fill="none" xmlns="http://www.w3.org/2000/svg">
<g id="Group 80">
<circle id="Ellipse 4" cx="12.5" cy="12.5" r="12.5" fill="#FFD500"/>
<g id="Group 76">
<g id="Group 39">
<path id="Vector" d="M15.547 15.1391C13.0802 17.0493 9.85894 16.4319 8.19372 14.4042C6.47571 12.3119 6.63095 9.38815 8.53784 7.51049C10.4426 5.63487 13.4631 5.48586 15.5661 7.17636C17.6427 8.84601 18.229 11.9936 16.3175 14.3793C16.3501 14.4134 16.3832 14.4495 16.4189 14.4846C17.6189 15.6634 18.8184 16.8428 20.0195 18.0207C20.1903 18.188 20.2829 18.3747 20.2104 18.6142C20.1007 18.9758 19.6614 19.1177 19.3556 18.8898C19.3043 18.8517 19.2583 18.8064 19.2128 18.7617C18.0246 17.595 16.8365 16.4283 15.6494 15.2612C15.6122 15.2251 15.5832 15.1828 15.547 15.1391ZM16.376 11.1407C16.3599 8.89382 14.5043 7.0777 12.2347 7.08635C9.95105 7.09499 8.09799 8.92128 8.10782 11.1519C8.11765 13.3947 9.95467 15.2113 12.246 15.2052C14.5653 15.1981 16.3615 13.3698 16.376 11.1407Z" fill="black"/>
</g>
</g>
</g>
</svg>
