<svg viewBox="0 0 120 20" xmlns="http://www.w3.org/2000/svg" xmlns:xlink="http://www.w3.org/1999/xlink" width="120.000000" height="20.000000" fill="none" customFrame="#000000">
	<g id="Group 368">
		<path id="Star 1" d="M13.6443 4.98409L19.5106 6.90983L15.8966 11.9159L15.8779 18.0902L10 16.2L4.12215 18.0902L4.10345 11.9159L0.489435 6.90983L6.35573 4.98409L10 0L13.6443 4.98409Z" fill="rgb(193,196,171)" fill-rule="evenodd" />
		<path id="Star 2" d="M38.6443 4.98409L44.5106 6.90983L40.8965 11.9159L40.8779 18.0902L35 16.2L29.1221 18.0902L29.1034 11.9159L25.4894 6.90983L31.3557 4.98409L35 0L38.6443 4.98409Z" fill="rgb(193,196,171)" fill-rule="evenodd" />
		<path id="Star 3" d="M63.6443 4.98409L69.5106 6.90983L65.8966 11.9159L65.8779 18.0902L60 16.2L54.1221 18.0902L54.1035 11.9159L50.4894 6.90983L56.3557 4.98409L60 0L63.6443 4.98409Z" fill="rgb(193,196,171)" fill-rule="evenodd" />
		<path id="Star 4" d="M88.6443 4.98409L94.5106 6.90983L90.8966 11.9159L90.8779 18.0902L85 16.2L79.1221 18.0902L79.1034 11.9159L75.4894 6.90983L81.3557 4.98409L85 0L88.6443 4.98409Z" fill="rgb(193,196,171)" fill-rule="evenodd" />
		<path id="Star 5" d="M113.644 4.98409L119.511 6.90983L115.897 11.9159L115.878 18.0902L110 16.2L104.122 18.0902L104.103 11.9159L100.489 6.90983L106.356 4.98409L110 0L113.644 4.98409Z" fill="rgb(193,196,171)" fill-rule="evenodd" />
	</g>
</svg>
