<svg width="50" height="50" viewBox="0 0 50 50" fill="none" xmlns="http://www.w3.org/2000/svg">
<path d="M26 0H24C10.7452 0 0 10.7452 0 24V26C0 39.2548 10.7452 50 24 50H26C39.2548 50 50 39.2548 50 26V24C50 10.7452 39.2548 0 26 0Z" fill="#4FA2E3"/>
<path d="M40.9602 13.9307C40.9422 13.8684 40.9243 13.805 40.9074 13.7417C40.6161 12.684 39.7494 12 38.6991 12C38.6791 12 38.659 12 38.6389 12.0011C38.165 12.0127 37.6784 12.1087 37.2319 12.2787C28.2003 15.7146 18.9829 19.2339 9.83521 22.7395C9.3908 22.9105 8.96224 23.166 8.62762 23.4615C8.2096 23.831 7.98688 24.3123 8.0006 24.8169C8.01432 25.3204 8.26238 25.7859 8.69834 26.1279C9.07096 26.4203 9.53542 26.661 10.0062 26.8035C11.7849 27.3429 13.6153 27.8549 15.339 28.3341C15.509 28.3816 15.5723 28.4418 15.6304 28.6138C16.0378 29.8077 16.4622 31.0174 16.8728 32.1912L17.1082 32.8636C17.238 33.2352 17.3679 33.6078 17.4977 33.9794L17.504 33.9973C17.8661 35.0381 18.2408 36.1138 18.6229 37.1683C19.0325 38.2978 19.7693 38.9712 20.8133 39.1708C21.7549 39.3502 22.6289 39.0567 23.4839 38.2714C23.8396 37.9452 24.1943 37.618 24.549 37.2908L24.6408 37.2063C24.8467 37.0163 25.0525 36.8274 25.2584 36.6373C25.6331 36.2922 26.0078 35.948 26.3857 35.6008C26.6285 35.378 26.9977 35.366 27.2544 35.5725L27.3801 35.6736C27.8181 36.0262 28.2509 36.3745 28.6848 36.7229C29.0152 36.9878 29.3487 37.2612 29.6739 37.5283C30.4212 38.1405 31.1939 38.7749 31.993 39.3576C32.5546 39.7672 33.1742 39.9836 33.7864 39.9836C34.0735 39.9836 34.3543 39.935 34.6193 39.84C35.4722 39.5339 36.1119 38.7707 36.3737 37.7457C36.3969 37.6549 36.4191 37.5599 36.4391 37.4554C36.6808 36.2647 36.9236 35.0751 37.1643 33.8844L38.1787 28.8735C38.9303 25.161 39.6819 21.4496 40.4345 17.7371C40.5569 17.1344 40.6868 16.5211 40.8113 15.9278L40.8398 15.7948C40.8679 15.6619 40.896 15.5293 40.924 15.3967C40.9772 15.1442 41.0042 14.8869 41.0057 14.6288L41.0076 14.3085C41.0084 14.181 40.9924 14.054 40.9602 13.9307ZM34.1063 36.8632L34.0957 36.9139C34.0873 36.9561 34.0788 36.9984 34.0693 37.0406C33.9659 37.4713 33.8466 37.5546 33.8001 37.5715C33.7537 37.5874 33.6091 37.5948 33.2692 37.3245C32.2991 36.5529 31.3185 35.7612 30.3695 34.9959L30.3473 34.978C29.9293 34.6402 29.5113 34.3024 29.0922 33.9657L24.3231 30.1265C24.3204 30.1242 24.3176 30.1219 24.3148 30.1196C24.2883 30.0975 24.2847 30.0568 24.3083 30.0315L32.3223 21.5172L33.8276 19.9179C33.8603 19.8831 33.892 19.8493 33.9237 19.8145C34.3797 19.3089 34.4377 18.6903 34.0746 18.2005C33.7104 17.7097 33.0855 17.5904 32.4817 17.8954C31.595 18.343 30.6967 18.8032 29.8269 19.2466L27.4012 20.4858C24.0201 22.2138 20.1873 24.1719 16.5065 26.0477C16.4199 26.0921 16.3165 26.1111 16.2795 26.1005C14.8081 25.6888 13.3134 25.2603 11.8683 24.8454C11.7176 24.8021 11.7087 24.5919 11.8552 24.536L13.2933 23.9872C21.4097 20.887 29.8026 17.6812 38.0605 14.5366C38.1914 14.487 38.3518 14.4753 38.5271 14.4627C38.5294 14.4627 38.5313 14.4646 38.5317 14.4669C38.532 14.4686 38.5323 14.4704 38.5323 14.4722C38.5503 14.6411 38.5672 14.8005 38.5408 14.9356C37.7702 18.7906 36.988 22.6498 36.2322 26.3813L35.8511 28.2613C35.4849 30.0727 35.1175 31.883 34.7502 33.6944L34.1063 36.8632ZM26.4093 23.6953C26.6185 23.5884 26.818 23.8541 26.657 24.0252C25.1391 25.6371 23.4185 27.4633 21.777 29.225C21.5543 29.4646 21.377 29.7908 21.2915 30.1191C20.9843 31.2961 20.6898 32.4963 20.4037 33.6574L20.3921 33.706C20.3388 33.9241 20.0335 33.9386 19.9594 33.7266L18.4233 29.333C18.1585 28.5756 18.4937 27.739 19.2082 27.374L26.4093 23.6953ZM24.1888 33.1063C24.5691 33.4126 24.5879 33.9854 24.2286 34.3161C23.6461 34.8521 22.7225 34.3054 22.9122 33.5369C23.0522 32.9697 23.7338 32.7398 24.1888 33.1063Z" fill="white"/>
<path fill-rule="evenodd" clip-rule="evenodd" d="M40.9602 13.9307C40.9422 13.8684 40.9243 13.805 40.9074 13.7417C40.6161 12.684 39.7494 12 38.6991 12C38.6791 12 38.659 12 38.6389 12.0011C38.165 12.0127 37.6784 12.1087 37.2319 12.2787C28.2003 15.7146 18.9829 19.2339 9.83521 22.7395C9.3908 22.9105 8.96224 23.166 8.62762 23.4615C8.2096 23.831 7.98688 24.3123 8.0006 24.8169C8.01432 25.3204 8.26238 25.7859 8.69834 26.1279C9.07096 26.4203 9.53542 26.661 10.0062 26.8035C11.7849 27.3429 13.6153 27.8549 15.339 28.3341C15.509 28.3816 15.5723 28.4418 15.6304 28.6138C15.9998 29.6963 16.3831 30.7919 16.7575 31.8618C16.7961 31.9719 16.8345 32.0817 16.8728 32.1912L17.1082 32.8636C17.1731 33.0494 17.238 33.2355 17.3029 33.4215C17.3679 33.6076 17.4328 33.7936 17.4977 33.9794L17.504 33.9973C17.8661 35.0381 18.2408 36.1138 18.6229 37.1683C19.0325 38.2978 19.7693 38.9712 20.8133 39.1708C21.7549 39.3502 22.6289 39.0567 23.4839 38.2714C23.8396 37.9452 24.1943 37.618 24.549 37.2908L24.6408 37.2063C24.7438 37.1112 24.8469 37.0164 24.9499 36.9216C25.0527 36.8269 25.1555 36.7323 25.2584 36.6373C25.5604 36.3591 25.8625 36.0815 26.1663 35.8024C26.2393 35.7353 26.3125 35.6681 26.3857 35.6008C26.6285 35.378 26.9977 35.366 27.2544 35.5725L27.4161 35.7026C27.8419 36.0453 28.2628 36.3841 28.6848 36.7229C29.0152 36.9878 29.3487 37.2612 29.6739 37.5283L29.7165 37.5632C30.4506 38.1646 31.2091 38.786 31.993 39.3576C32.5546 39.7672 33.1742 39.9836 33.7864 39.9836C34.0735 39.9836 34.3543 39.935 34.6193 39.84C35.4722 39.5339 36.1119 38.7707 36.3737 37.7457C36.3969 37.6549 36.4191 37.5599 36.4391 37.4554C36.5245 37.0347 36.6101 36.6142 36.6956 36.1936C36.8521 35.4239 37.0087 34.6544 37.1643 33.8844L38.1787 28.8735C38.9303 25.161 39.6819 21.4496 40.4345 17.7371C40.5361 17.2368 40.6429 16.7292 40.7474 16.2319C40.7688 16.1301 40.7902 16.0287 40.8113 15.9278L40.8398 15.7948L40.924 15.3967C40.9772 15.1442 41.0042 14.8869 41.0057 14.6288L41.0076 14.3085C41.0084 14.181 40.9924 14.054 40.9602 13.9307ZM38.5271 14.0106C38.5163 14.0117 38.5054 14.0129 38.4946 14.0141L38.5271 14.4627C38.4849 14.4657 38.4436 14.4687 38.4034 14.4722C38.3034 14.4808 38.2099 14.4924 38.1262 14.5153C38.1036 14.5215 38.0816 14.5286 38.0605 14.5366C38.0484 14.5412 38.0363 14.5458 38.0242 14.5504C37.8624 14.612 37.7006 14.6736 37.5387 14.7353C37.5361 14.7363 37.5334 14.7373 37.5307 14.7383C37.2306 14.8526 36.9304 14.967 36.63 15.0814C36.573 15.1031 36.516 15.1248 36.459 15.1466C35.7515 15.4161 35.0432 15.686 34.3343 15.9561C33.5434 16.2576 32.7517 16.5594 31.9597 16.8614C31.9596 16.8614 31.9599 16.8613 31.9597 16.8614C31.0256 17.2175 30.0906 17.5742 29.1562 17.9306C29.1557 17.9308 29.1553 17.931 29.1549 17.9311C28.3013 18.2567 27.4479 18.5824 26.595 18.9079C26.5949 18.9079 26.5951 18.9078 26.595 18.9079C25.9348 19.1598 25.2747 19.4118 24.6154 19.6634C21.2233 20.9583 17.8458 22.2483 14.5113 23.522C14.1969 23.6421 13.8828 23.762 13.5692 23.8818C13.4772 23.917 13.3852 23.9521 13.2933 23.9872L11.8552 24.536C11.7087 24.5919 11.7176 24.8021 11.8683 24.8454C11.9075 24.8567 11.9468 24.868 11.9862 24.8793C12.5294 25.0352 13.0793 25.1929 13.632 25.3509C13.6999 25.3703 13.7679 25.3897 13.8359 25.4091C13.8361 25.4091 13.8357 25.409 13.8359 25.4091C14.0912 25.4819 14.3476 25.555 14.6035 25.6277C15.1629 25.7866 15.7229 25.9448 16.2795 26.1005C16.3165 26.1111 16.4199 26.0921 16.5065 26.0477C19.488 24.5283 22.5693 22.9549 25.4294 21.4935C26.1002 21.1507 26.7589 20.8141 27.4012 20.4858L29.8269 19.2466C30.0514 19.1322 30.2777 19.0167 30.5053 18.9005C31.1595 18.5666 31.8238 18.2275 32.4817 17.8954C33.0839 17.5912 33.7071 17.709 34.0717 18.1966C34.0727 18.1979 34.0736 18.1992 34.0746 18.2005C34.4377 18.6903 34.3797 19.3089 33.9237 19.8145C33.892 19.8493 33.8603 19.8831 33.8276 19.9179L24.3083 30.0315L24.0165 29.7568C24.0161 29.7572 24.0157 29.7576 24.0153 29.758L24.3083 30.0315C24.2847 30.0568 24.2883 30.0975 24.3148 30.1196L24.3231 30.1265L29.0922 33.9657C29.5113 34.3024 29.9293 34.6402 30.3473 34.978L30.3695 34.9959L30.5642 35.1529C31.0874 35.5749 31.6193 36.0039 32.153 36.4323C32.1634 36.4406 32.1738 36.449 32.1843 36.4574C32.1873 36.4598 32.1902 36.4622 32.1932 36.4646C32.1987 36.469 32.2043 36.4734 32.2098 36.4779C32.234 36.4973 32.2581 36.5166 32.2822 36.536C32.2907 36.5427 32.2991 36.5495 32.3076 36.5563C32.3439 36.5854 32.3801 36.6145 32.4164 36.6436C32.431 36.6552 32.4455 36.6669 32.46 36.6785C32.73 36.8947 33 37.1104 33.2692 37.3245C33.6091 37.5948 33.7537 37.5874 33.8001 37.5715C33.8466 37.5546 33.9659 37.4713 34.0693 37.0406C34.0788 36.9984 34.0872 36.9562 34.0957 36.914L34.1063 36.8632L34.9094 32.9094C35.2236 31.3599 35.5378 29.811 35.8511 28.2613L36.3367 25.8654C36.9494 22.8407 37.5781 19.7365 38.2029 16.6224C38.2149 16.5627 38.2269 16.5029 38.2389 16.4431C38.3017 16.1301 38.3644 15.817 38.4271 15.5038C38.4273 15.5029 38.4275 15.5019 38.4277 15.5009C38.4608 15.3353 38.494 15.1698 38.5271 15.0042C38.5316 14.9813 38.5362 14.9585 38.5408 14.9356C38.5476 14.9006 38.5515 14.8639 38.5533 14.8259C38.5583 14.7172 38.5456 14.5973 38.5323 14.4722C38.5323 14.4704 38.532 14.4686 38.5317 14.4669C38.5313 14.4646 38.5294 14.4627 38.5271 14.4627V14.0106ZM21.777 29.225C22.319 28.6433 22.8696 28.0546 23.4187 27.4689C24.0995 26.7427 24.7779 26.0212 25.4347 25.3234C25.7806 24.9558 26.1206 24.5948 26.4517 24.2432L26.657 24.0252C26.818 23.8541 26.6185 23.5884 26.4093 23.6953L26.3427 23.7293L19.2082 27.374C18.4937 27.739 18.1585 28.5756 18.4233 29.333L19.9594 33.7266C20.0335 33.9386 20.3388 33.9241 20.3921 33.706L20.8827 33.826C20.8827 33.8251 20.8827 33.8242 20.8827 33.8233L20.3921 33.706L20.4037 33.6574L20.4555 33.4473C20.5738 32.967 20.6935 32.4807 20.8151 31.9928C20.9057 31.629 20.9973 31.2643 21.09 30.9005C21.1566 30.6394 21.2237 30.3787 21.2915 30.1191C21.377 29.7908 21.5543 29.4646 21.777 29.225ZM26.0484 35.2337C26.0484 35.2339 26.0485 35.2336 26.0484 35.2337ZM21.4836 35.4651C21.7903 35.8454 22.1936 36.1424 22.644 36.3268C22.4734 36.484 22.3029 36.6408 22.1323 36.7973L22.131 36.7984C21.6328 37.256 21.3761 37.242 21.1877 37.2061C20.9382 37.1583 20.7096 37.0555 20.5033 36.4869M21.4836 35.4651C21.1302 35.7168 20.7095 35.8543 20.2832 35.8751C20.3562 36.0795 20.4297 36.2839 20.5033 36.4869M11.7555 25.2383C11.7555 25.2383 11.7554 25.2383 11.7555 25.2383ZM31.7755 16.4963C32.409 16.2549 33.0418 16.0138 33.674 15.773ZM28.1145 22.3673C28.2254 22.487 28.3239 22.6181 28.4078 22.758L29.3878 21.7168L28.3114 22.2667C28.3113 22.2668 28.3115 22.2667 28.3114 22.2667C28.246 22.3001 28.1802 22.3338 28.1145 22.3673ZM24.5019 34.6131C24.6676 34.4614 24.7939 34.2594 24.8539 34.0162C24.9798 33.5063 24.7797 33.0612 24.4416 32.7924C24.0134 32.4519 23.3637 32.394 22.8743 32.8444C22.6926 33.0116 22.5752 33.2199 22.5212 33.4403C22.4144 33.8756 22.5545 34.358 22.9342 34.6638C23.4233 35.0578 24.0865 34.9934 24.5019 34.6131Z" fill="white"/>
</svg>
