<svg width="50" height="50" viewBox="0 0 50 50" fill="none" xmlns="http://www.w3.org/2000/svg">
<g id="Viber">
<path id="Vector" d="M26 0H24C10.7452 0 0 10.7452 0 24V26C0 39.2548 10.7452 50 24 50H26C39.2548 50 50 39.2548 50 26V24C50 10.7452 39.2548 0 26 0Z" fill="#6E66EA"/>
<g id="Group">
<path id="Vector_2" d="M40.5747 19.9262C40.5557 19.0026 40.4702 18.194 40.314 17.453C39.232 12.3292 34.6465 8.57552 29.4087 8.52696C26.8109 8.50268 24.172 8.51429 21.6206 8.5259L21.1245 8.52802C20.0837 8.53224 19.027 8.70852 17.9852 9.05264C13.1823 10.635 10.0757 14.9291 10.0693 19.9927L10.0683 20.6335C10.0662 22.0617 10.0641 23.5384 10.0725 25.0068V25.1324C10.0746 25.6433 10.0767 26.1711 10.1496 26.6904C10.7069 30.6636 12.7928 33.6298 16.349 35.5077C16.4789 35.5763 16.4915 35.5974 16.4905 35.742C16.4789 36.8747 16.4683 38.0464 16.4968 39.2033C16.5084 39.6794 16.5454 41.1276 18.076 41.571C18.0928 41.5759 18.1102 41.5784 18.1277 41.5785L18.7249 41.5823C18.7558 41.5825 18.7866 41.5776 18.8159 41.5678C19.4366 41.3588 19.9781 40.9609 20.5186 40.3148C20.9925 39.748 21.476 39.178 21.9436 38.628C22.4165 38.0707 22.9517 37.4394 23.4658 36.8251C23.5418 36.7343 23.6009 36.7079 23.7339 36.7079L24.5668 36.7111C26.0594 36.7174 27.6037 36.7237 29.1322 36.7037C29.7771 36.6952 30.5382 36.6667 31.294 36.5221C36.7493 35.4771 40.5705 30.861 40.5853 25.2981C40.5863 24.9065 40.5884 24.5148 40.5905 24.1243V24.1021C40.5969 22.732 40.6032 21.3175 40.5747 19.9262ZM18.951 36.861C18.9489 36.2276 18.9468 35.5732 18.9563 34.925C18.9658 34.2906 18.6777 33.8536 18.0739 33.5876C15.1583 32.3072 13.3491 30.0799 12.6946 26.968C12.5996 26.5173 12.5489 26.0064 12.5436 25.449C12.5257 23.6735 12.5246 21.8379 12.5384 19.8376C12.569 15.3724 15.8022 11.6853 20.2262 11.0699C20.5967 11.0181 20.9957 10.9939 21.4844 10.9928C23.9682 10.9854 26.5523 10.9844 29.1628 10.9907C33.5266 10.9991 37.1462 13.9949 37.9642 18.2763C38.0561 18.7556 38.1036 19.296 38.1099 19.9294C38.1289 21.7513 38.1226 23.5659 38.1152 25.3203C38.1078 27.4251 37.4217 29.3779 36.1328 30.9655C34.8429 32.5552 33.0727 33.6245 31.0153 34.0584C30.4854 34.1703 29.8827 34.2262 29.1184 34.2347C27.1614 34.2568 25.2128 34.2494 23.2251 34.2389H23.2082C22.672 34.2389 22.2445 34.4384 21.9035 34.849C21.1118 35.8001 20.3075 36.7459 19.5284 37.6622C19.4779 37.7215 19.4274 37.7809 19.3769 37.8403C19.2318 38.011 18.9521 37.9084 18.9521 37.6843C18.9532 37.4067 18.9521 37.1333 18.951 36.861Z" fill="white"/>
<path id="Vector_3" d="M27.8821 32.1995C29.6195 32.1995 31.0763 31.5926 32.2131 30.3955C33.4967 29.0444 33.4914 27.0778 32.2015 25.7204C31.8532 25.3541 31.5323 25.0353 31.2209 24.7471C30.1252 23.7316 28.489 23.568 27.2424 24.3502C26.9595 24.5276 26.7177 24.7545 26.4845 24.9741C26.3968 25.0564 26.3092 25.1387 26.2206 25.2179C25.9999 25.4132 25.8849 25.3752 25.7382 25.2295C24.7438 24.2436 23.7632 23.263 22.8237 22.315C22.6516 22.1419 22.6537 22.0311 22.8321 21.8411C22.8997 21.7683 22.9704 21.6975 23.0433 21.6247C23.1509 21.517 23.2618 21.4051 23.3652 21.2859C24.482 20.0086 24.4651 18.1043 23.324 16.8566C22.982 16.4819 22.6147 16.1145 22.2315 15.762C20.95 14.5839 19.013 14.5882 17.7252 15.7725C16.4881 16.9105 15.8632 18.3904 15.8125 20.3042L15.8146 20.3401C15.8368 20.5089 15.8547 20.6789 15.8727 20.8499C15.9128 21.2236 15.955 21.611 16.0321 21.991C16.4754 24.176 17.5606 26.1975 19.259 27.9983C21.6541 30.5391 24.2392 31.9029 27.1611 32.1679C27.406 32.1879 27.6488 32.1995 27.8821 32.1995ZM21.3934 19.7795C20.8941 20.2725 20.4349 20.7771 20.2945 21.5297C20.1193 22.4692 20.3283 23.2566 20.9162 23.872C22.1903 25.2052 23.1974 26.2112 24.1801 27.1338C25.1798 28.0712 26.7821 28.0522 27.8272 27.0884C27.9253 26.9976 28.0203 26.9037 28.1111 26.8118L28.1248 26.7981C28.185 26.7379 28.2452 26.6778 28.3075 26.6176C28.7065 26.2334 29.1984 26.2249 29.5911 26.5965C29.8782 26.8667 30.1611 27.1496 30.4323 27.4367C30.7955 27.821 30.7934 28.316 30.426 28.6971C29.6565 29.4962 28.6379 29.8266 27.3131 29.7063C25.3634 29.5279 23.5478 28.6475 21.7649 27.0124C20.1003 25.486 19.051 23.8277 18.5581 21.9424C18.462 21.5751 18.404 21.1845 18.347 20.8035C18.2956 20.4609 18.2691 20.1125 18.3182 19.7696C18.4444 18.89 18.7575 18.2212 19.2854 17.6916C19.7393 17.2356 20.2206 17.2314 20.6756 17.6779C20.9268 17.9249 21.1675 18.1655 21.3902 18.3914C21.8494 18.8601 21.8504 19.3267 21.3934 19.7795Z" fill="white"/>
<path id="Vector_4" d="M33.893 19.7301C33.855 19.5116 33.7991 19.2825 33.7104 18.9901C33.2934 17.6041 32.4141 16.3533 31.234 15.4666C30.056 14.5809 28.6225 14.0933 27.1922 14.0933C26.5968 14.0943 26.145 14.3846 25.9519 14.8913C25.8083 15.2681 25.8484 15.6692 26.0637 15.9901C26.297 16.3395 26.6971 16.5486 27.1594 16.5612C29.2316 16.6193 30.9416 17.9873 31.4124 19.9655C31.4715 20.2135 31.4947 20.4848 31.518 20.7477L31.5201 20.7667C31.5306 20.8859 31.5412 21.0052 31.5549 21.1245C31.6288 21.7621 32.1397 22.2276 32.7773 22.2308C33.4032 22.2308 33.9015 21.7948 33.9891 21.171C33.9987 21.1 34.0013 21.0299 34.0017 20.9623C34.0018 20.9507 34.0105 20.941 34.0221 20.9399C34.0346 20.9387 34.0437 20.9273 34.0422 20.9148L34.0102 20.6537C33.9986 20.5629 33.9891 20.4732 33.9785 20.3803C33.9553 20.1692 33.931 19.9486 33.893 19.7301Z" fill="white"/>
<path id="Vector_5" d="M27.0501 20.3485C27.5377 20.4045 27.7235 20.5892 27.7636 21.0547C27.8217 21.7366 28.3368 22.2317 28.9902 22.2317C29.0156 22.2317 29.042 22.2306 29.0683 22.2296C29.7439 22.1895 30.2327 21.6522 30.2284 20.9502C30.221 19.3309 28.8425 17.9291 27.219 17.8901C26.4843 17.8732 25.9132 18.3598 25.8699 19.047C25.8256 19.7162 26.3228 20.2641 27.0501 20.3485Z" fill="white"/>
</g>
</g>
</svg>
