<svg width="60" height="59" viewBox="0 0 60 59" fill="none" xmlns="http://www.w3.org/2000/svg">
<path d="M10.5003 8.32751L10.5003 8.32752C5.60782 12.7467 2.5789 18.202 1.44069 24.704C1.31252 25.4397 1.2231 26.165 1.13028 26.9178C1.08879 27.2544 1.04662 27.5964 1 27.9473V31.2734C1.04781 31.628 1.09092 31.973 1.1333 32.3122C1.22471 33.0437 1.31274 33.7483 1.43734 34.464C2.57291 40.9683 5.57004 46.4421 10.4861 50.8351L10.5003 8.32751ZM10.5003 8.32751C14.8196 4.42604 19.8715 2.05988 25.6368 1.28686C33.3385 0.254747 40.3548 2.00237 46.5992 6.60961C52.5229 10.9818 56.0954 16.8837 57.5145 24.1208L57.5145 24.1209M10.5003 8.32751L57.5145 24.1209M57.5145 24.1209C59.8238 35.8928 54.1358 48.2334 43.7143 54.1649C39.9241 56.3222 35.8814 57.5919 31.5426 57.9068L31.5373 57.9072M57.5145 24.1209L31.5373 57.9072M31.5373 57.9072C31.3662 57.9205 31.2222 57.9606 31.14 57.9849M31.5373 57.9072L31.14 57.9849M31.14 57.9849C31.1199 57.9909 31.1034 57.9958 31.0897 58M31.14 57.9849L31.0897 58M31.0897 58H31.0869H31.08H31.073H31.066H31.059H31.0521H31.0451H31.0381H31.0311H31.0242H31.0172H31.0102H31.0032H30.9963H30.9893H30.9823H30.9753H30.9683H30.9614H30.9544H30.9474H30.9404H30.9335H30.9265H30.9195H30.9125H30.9056H30.8986H30.8916H30.8846H30.8777H30.8707H30.8637H30.8567H30.8498H30.8428H30.8358H30.8288H30.8219H30.8149H30.8079H30.8009H30.7939H30.787H30.78H30.773H30.766H30.7591H30.7521H30.7451H30.7381H30.7312H30.7242H30.7172H30.7102H30.7033H30.6963H30.6893H30.6823H30.6753H30.6684H30.6614H30.6544H30.6474H30.6405H30.6335H30.6265H30.6195H30.6125H30.6056H30.5986H30.5916H30.5846H30.5777H30.5707H30.5637H30.5567H30.5498H30.5428H30.5358H30.5288H30.5218H30.5149H30.5079H30.5009H30.4939H30.487H30.48H30.473H30.466H30.459H30.4521H30.4451H30.4381H30.4311H30.4242H30.4172H30.4102H30.4032H30.3962H30.3893H30.3823H30.3753H30.3683H30.3614H30.3544H30.3474H30.3404H30.3334H30.3265H30.3195H30.3125H30.3055H30.2986H30.2916H30.2846H30.2776H30.2706H30.2637H30.2567H30.2497H30.2427H30.2357H30.2288H30.2218H30.2148H30.2078H30.2009H30.1939H30.1869H30.1799H30.1729H30.166H30.159H30.152H30.145H30.1381H30.1311H30.1241H30.1171H30.1101H30.1032H30.0962H30.0892H30.0822H30.0752H30.0683H30.0613H30.0543H30.0473H30.0403H30.0334H30.0264H30.0194H30.0124H30.0055H29.9985H29.9915H29.9845H29.9775H29.9706H29.9636H29.9566H29.9496H29.9426H29.9357H29.9287H29.9217H29.9147H29.9077H29.9008H29.8938H29.8868H29.8798H29.8729H29.8659H29.8589H29.8519H29.8449H29.838H29.831H29.824H29.817H29.81H29.8031H29.7961H29.7891H29.7821H29.7751H29.7682H29.7612H29.7542H29.7472H29.7403H29.7333H29.7263H29.7193H29.7123H29.7054H29.6984H29.6914H29.6844H29.6774H29.6705H29.6635H29.6565H29.6495H29.6425H29.6356H29.6286H29.6216H29.6146H29.6076H29.6007H29.5937H29.5867H29.5797H29.5728H29.5658H29.5588H29.5518H29.5448H29.5379H29.5309H29.5239H29.5169H29.5099H29.503H29.496H29.489H29.482H29.475H29.4681H29.4611H29.4541H29.4471H29.4401H29.4332H29.4262H29.4192H29.4122H29.4052H29.3983H29.3913H29.3843H29.3773H29.3704H29.3634H29.3564H29.3494H29.3424H29.3355H29.3285H29.3215H29.3145H29.3075H29.3006H29.2936H29.2866H29.2796H29.2726H29.2657H29.2587H29.2517H29.2447H29.2377H29.2308H29.2238H29.2168H29.2098H29.2028H29.1959H29.1889H29.1819H29.1749H29.168H29.161H29.154H29.147H29.14H29.1331H29.1261H29.1191H29.1121H29.1051H29.0982H29.0912H29.0842H29.0772H29.0702H29.0633H29.0563H29.0493H29.0423H29.0354H29.0284H29.0214H29.0144H29.0074H29.0005H28.9935H28.9865H28.9795H28.9725H28.9656H28.9586H28.9516H28.9446H28.9376H28.9307H28.9237H28.9167H28.9097H28.9028H28.8958H28.8888H28.8818H28.8748H28.8679H28.8609H28.8539H28.8469H28.8399H28.833H28.826H28.819H28.812H28.805H28.7981H28.7911H28.7841H28.7771H28.7702H28.7632H28.7562H28.7492H28.7422H28.7353H28.7283H28.7213H28.7143H28.7073H28.7004H28.6934H28.6864H28.6794H28.6725H28.6655H28.6585H28.6515H28.6445H28.6376H28.6306H28.6236H28.6166H28.6097H28.6027H28.5957H28.5887H28.5817H28.5748H28.5678H28.5608H28.5538H28.5468H28.5399H28.5329H28.5259H28.5189H28.512H28.505H28.498H28.491H28.484H28.4771H28.4701H28.4631H28.4561H28.4492H28.4422H28.4352H28.4282H28.4212H28.4143H28.4073H28.4003H28.3933H28.3864H28.3794H28.3724H28.3654H28.3584H28.3515H28.3445H28.3375H28.3305H28.3236H28.3166H28.3096H28.3026H28.2957H28.2887H28.2817H28.2747H28.2677H28.2608H28.2538H28.2468H28.2398H28.2329H28.2259H28.2189H28.2119H28.205H28.198H28.191H28.184H28.177H28.1701H28.1631H28.1561H28.1491H28.1422H28.1352H28.1282H28.1212H28.1143H28.1073H28.1003H28.0933H28.0863H28.0794H28.0724H28.0654H28.0584H28.0515H28.0445H28.0375H28.0305H28.0236H28.0166H28.0096H28.0026H27.9957H27.9887H27.9817H27.9747H27.9678H27.9608H27.9538H27.9468H27.9398H27.9329H27.9259H27.9189H27.9119H27.905H27.898H27.891H27.884H27.8771H27.8701H27.8631H27.8561H27.8492H27.8422H27.8352H27.8282H27.8213H27.8143H27.8073H27.8003H27.7934H27.7864H27.7794H27.7724H27.7655H27.7585H27.7515H27.7445H27.7376H27.7306H27.7236H27.7184C27.507 57.9757 27.2997 57.9528 27.0951 57.9302C26.5818 57.8735 26.0853 57.8187 25.5822 57.7477C19.8529 56.9314 14.7887 54.6785 10.4862 50.8352L31.0897 58Z" stroke="white" stroke-width="2"/>
<path d="M19.7206 29.4381C19.7206 25.0804 19.7206 20.7211 19.7206 16.3634C19.7206 16.2474 19.7206 16.1331 19.7206 16.0171C19.7257 14.5679 20.6083 14.0669 21.8793 14.7982C23.2428 15.5816 24.6029 16.3701 25.9663 17.1569C32.3784 20.8572 38.7905 24.5559 45.1976 28.2646C45.4733 28.4243 45.7675 28.6194 45.9424 28.8732C46.3661 29.4885 46.1139 30.1946 45.3439 30.6452C43.6543 31.6304 41.9562 32.6038 40.2633 33.5806C34.1504 37.1094 28.0392 40.6383 21.9264 44.1654C21.7431 44.2714 21.5632 44.3857 21.3682 44.4613C20.6806 44.7287 19.9829 44.3739 19.803 43.656C19.7391 43.4005 19.7274 43.1248 19.7257 42.8592C19.719 38.3855 19.7206 33.9118 19.7206 29.4381Z" fill="white"/>
</svg>
