<?xml version="1.0" encoding="utf-8"?>
<!-- Generator: Adobe Illustrator 24.0.1, SVG Export Plug-In . SVG Version: 6.00 Build 0)  -->
<svg version="1.1" id="Layer_1" xmlns="http://www.w3.org/2000/svg" xmlns:xlink="http://www.w3.org/1999/xlink" x="0px" y="0px"
	 viewBox="0 0 59 59" style="enable-background:new 0 0 59 59;" xml:space="preserve">
<style type="text/css">
	.st0{fill-rule:evenodd;clip-rule:evenodd;fill:#FFFFFF;}
</style>
<g>
	<path class="st0" d="M45.18,28.26c-6.41-3.71-12.82-7.41-19.23-11.11c-1.36-0.79-2.72-1.58-4.09-2.36
		c-1.27-0.73-2.15-0.23-2.16,1.22c0,0.12,0,0.23,0,0.35c0,4.36,0,8.72,0,13.07c0,4.47,0,8.95,0.01,13.42c0,0.27,0.01,0.54,0.08,0.8
		c0.18,0.72,0.88,1.07,1.57,0.81c0.2-0.08,0.37-0.19,0.56-0.3c6.11-3.53,12.22-7.06,18.34-10.58c1.69-0.98,3.39-1.95,5.08-2.94
		c0.77-0.45,1.02-1.16,0.6-1.77C45.75,28.61,45.46,28.42,45.18,28.26z"/>
	<path class="st0" d="M29.5,0C13.21,0,0,13.21,0,29.5C0,45.79,13.21,59,29.5,59S59,45.79,59,29.5C59,13.21,45.79,0,29.5,0z
		 M29.5,57.04c-15.21,0-27.54-12.33-27.54-27.54S14.29,1.96,29.5,1.96S57.04,14.29,57.04,29.5S44.71,57.04,29.5,57.04z"/>
</g>
</svg>
