<svg width="108" height="108" viewBox="0 0 108 108" fill="none" xmlns="http://www.w3.org/2000/svg">
<path d="M73.8693 89.0889V96.3779C73.8693 100.517 70.4816 103.905 66.3423 103.905H11.0778C6.93776 103.905 3.55078 100.518 3.55078 96.3779V17.8143C3.55078 13.6742 6.93776 10.2872 11.0778 10.2872H66.3423C70.4824 10.2872 73.8693 13.675 73.8693 17.8143V56.372M11.9803 10.2056C12.4152 6.47224 15.6122 3.54993 19.457 3.54993H74.7214C78.8615 3.54993 82.2485 6.93767 82.2485 11.077V55.5846M82.2485 85.1274V89.6406C82.2485 93.7799 78.8607 97.1676 74.7214 97.1676H73.7776M44.706 10.2872V27.8196L54.2206 21.3249L63.7353 27.8196V10.2872M17.9225 39.6255H59.462M17.9225 51.2202H39.9016M17.9225 62.8141H39.9016M17.9225 74.4087H39.9016M59.4888 55.287C59.7528 54.4225 59.2661 53.5076 58.4017 53.2436L53.4862 51.7422C52.6218 51.4781 51.7069 51.9648 51.4429 52.8293L45.8752 71.057C45.6111 71.9215 46.0978 72.8363 46.9623 73.1004L51.8777 74.6018C52.7422 74.8659 53.657 74.3791 53.9211 73.5147L59.4888 55.287ZM59.4888 55.287C60.0244 55.4502 60.5604 55.6143 61.0961 55.7776C62.0155 55.8967 62.912 55.7898 63.7872 55.4587C67.3947 54.144 70.4764 54.5789 73.0432 57.0541M60.2849 77.4683C61.051 76.0652 60.5474 74.2614 59.1664 73.4588C57.7853 72.6561 56.0289 73.1459 55.2636 74.5491M60.2849 77.4683L58.5873 80.5799C57.822 81.9823 56.0663 82.4729 54.6853 81.6702C53.3042 80.8675 52.8006 79.0638 53.5659 77.6606L55.2636 74.5491M60.2849 77.4683L57.2718 82.9093C56.4981 84.3079 56.9949 86.1078 58.3759 86.9105C59.7569 87.7132 61.5187 87.2264 62.2924 85.8286L65.3047 80.3861C66.0784 78.9882 65.5817 77.1883 64.2007 76.3856C62.8196 75.583 61.0586 76.0705 60.2849 77.4683ZM55.2636 74.5491L53.7987 73.809M89.0544 56.5872C87.8428 57.0137 87.2369 57.2273 87.2369 57.2273C86.4228 57.2632 84.3093 56.5178 80.8964 54.9917C78.148 54.1135 76.0826 54.363 74.7015 55.741C71.9509 57.7805 68.5403 60.7433 65.5928 64.3096C66.2856 64.9909 67.4202 66.8244 69.2102 67.1922C70.7247 67.3257 71.5633 66.9732 72.4797 66.6169C74.5001 65.8318 75.7835 65.4586 76.593 65.2816C79.0148 64.7521 80.5065 65.1618 81.5877 65.7623L91.2152 71.111C95.0989 73.1345 92.8576 79.1919 87.657 76.1895M87.657 76.1895L79.6569 71.832M87.657 76.1895C90.9356 78.0825 87.9165 83.3557 82.1962 80.0527M82.1962 80.0527L76.1029 76.5993M82.1962 80.0527C85.6458 82.0441 82.9551 87.3867 78.4549 84.7879L73.0978 81.6946M78.4409 84.7802C80.8795 86.188 79.02 91.2063 75.646 89.2576L74.1589 88.548M92.9284 72.9033L94.8465 72.1922M69.2007 79.3202C70.5817 80.1236 71.083 81.9258 70.3139 83.3267L68.1828 87.2104C67.4145 88.6113 65.6557 89.1004 64.2747 88.2969C62.8937 87.4942 62.3931 85.692 63.1615 84.2911L65.2926 80.4074C66.0617 79.0066 67.8204 78.5175 69.2007 79.3202ZM72.9981 84.5696C74.3792 85.3723 74.8912 87.1814 74.1358 88.5899L73.4193 89.9274C72.6639 91.336 70.9174 91.8319 69.5364 91.0285C68.1553 90.2258 67.6434 88.4167 68.3987 87.0082L69.1152 85.6706C69.8706 84.2614 71.6179 83.7669 72.9981 84.5696ZM89.572 53.2775L94.3905 51.4892C95.2379 51.1747 96.1798 51.6067 96.4943 52.4541L103.126 70.3223C103.44 71.1697 103.008 72.1116 102.161 72.4261L97.3425 74.2144C96.4951 74.5289 95.5532 74.0969 95.2386 73.2495L88.6071 55.3813C88.2926 54.5339 88.7246 53.592 89.572 53.2775Z" stroke="#E74B5B" stroke-width="3" stroke-miterlimit="22.9256" stroke-linecap="round" stroke-linejoin="round"/>
</svg>
