<svg width="108" height="108" viewBox="0 0 108 108" fill="none" xmlns="http://www.w3.org/2000/svg">
<path d="M70.2109 34.8014L87.0016 51.5256C88.3725 52.8904 88.4045 55.3391 87.0016 56.4904C85.4258 57.7834 83.462 57.7222 82.0171 56.4904M82.0171 56.4904L65.2282 39.7674M82.0171 56.4904C83.388 57.8558 83.1134 60.2021 82.019 61.4564C80.7334 62.9292 78.0876 62.4622 77.0345 61.4558M74.358 10.7774C63.7119 4.21868 49.4535 4.31171 31.3383 10.3416C23.9731 12.7934 18.3473 18.5648 15.3467 28.5774C14.7575 30.5428 13.9746 33.5983 12.3317 37.5847C11.5149 39.449 11.6547 40.9 12.7523 41.9383C12.7523 41.9383 13.4387 42.6431 14.812 44.0523C15.5417 45.1511 15.5974 46.298 14.9788 47.4943C13.4374 50.9949 10.6518 55.1693 6.65265 60.6367C5.51622 62.1906 5.57702 63.6828 6.7824 64.5263C6.7824 64.5263 7.52519 65.0339 9.00951 66.0491C12.4182 68.0082 13.2299 69.6078 10.7308 72.2263C9.78803 73.2134 10.0701 74.8167 11.2322 75.4329C12.3492 76.0254 12.5743 76.7609 12.2226 77.7186C11.6685 79.2258 12.4677 80.0555 13.9357 80.914C16.1227 82.1927 15.7968 83.5231 15.1812 86.3383C14.372 91.2637 17.3783 94.7569 21.9741 93.5301L48.0576 84.8136C51.1403 83.4713 52.3771 81.5371 51.7672 79.011M78.7294 73.3045C77.5134 84.0807 79.6653 93.6999 85.1864 102.162H43.7244C42.2394 96.6218 39.4174 92.1509 35.691 88.9462M63.7213 21.1627C57.2475 14.7151 46.6554 14.7151 40.1815 21.1627C33.7083 27.6102 33.7083 38.161 40.1815 44.6086L67.0642 71.3847C69.0889 73.4013 71.5429 72.0015 72.0487 71.3847C72.5546 70.7678 74.4401 68.8018 72.0487 66.4199M72.0487 66.4199L51.7847 46.2362M72.0487 66.4199C74.2652 68.6432 76.476 66.925 77.2088 66.2264C77.9415 65.5277 79.2158 63.6285 77.0345 61.4558M89.8217 31.5286C89.6287 31.7584 89.4237 31.9825 89.2068 32.1985C85.2923 36.0975 78.9463 36.0975 75.0318 32.1985C74.682 31.8501 74.3003 31.3994 74.0132 31.016L61.3858 43.5934C60.0149 44.9582 57.7715 44.9582 56.4013 43.5934C55.0304 42.228 55.0304 39.9941 56.4013 38.6286L73.7675 21.3312C80.2413 14.8831 90.8334 14.8831 97.3073 21.3312C103.781 27.7788 103.781 38.3296 97.3073 44.7778L88.1143 53.9343M60.0814 44.5705L77.0345 61.4558" stroke="#E74B5B" stroke-width="3" stroke-miterlimit="22.9256"/>
</svg>
