<svg width="108" height="108" viewBox="0 0 108 108" fill="none" xmlns="http://www.w3.org/2000/svg">
<path d="M53.1986 36.5586V33.1392C53.1986 30.6486 55.2364 28.61 57.7279 28.61H66.5815C69.0722 28.61 71.1108 30.6486 71.1108 33.1392V36.5586M11.2893 59.3099V55.8905C11.2893 53.3998 13.327 51.3612 15.8185 51.3612H24.6721C27.1628 51.3612 29.2014 53.3998 29.2014 55.8905V59.3099M76.0267 81.7724V78.353C76.0267 75.8624 78.0644 73.8238 80.5559 73.8238H89.4095C91.9002 73.8238 93.9388 75.8624 93.9388 78.353V81.7724M33.9821 102.968V99.5482C33.9821 97.0576 36.0198 95.019 38.5113 95.019H47.3649C49.8556 95.019 51.8942 97.0576 51.8942 99.5482V102.968M20.1289 14.4508C23.0759 14.4508 25.4649 12.0618 25.4649 9.11474C25.4649 6.16772 23.0759 3.77869 20.1289 3.77869C17.1819 3.77869 14.7928 6.16772 14.7928 9.11474C14.7928 12.0618 17.1819 14.4508 20.1289 14.4508ZM20.1289 14.4508L20.1292 26.7289M32.9139 32.1487L44.6899 22.909M79.6068 19.9604L94.9004 27.0531M49.0944 53.3837L37.751 44.9491M83.2727 49.2735L72.753 35.4487M68.822 73.4911L58.8983 80.6727M75.5278 96.6546L60.3349 89.9801M25.4302 87.2151L13.1445 87.696M79.6732 21.4978C79.6732 31.1734 71.8295 39.0171 62.1539 39.0171C52.4782 39.0171 44.6345 31.1734 44.6345 21.4978C44.6345 11.8221 52.4782 3.97846 62.1539 3.97846C71.8295 3.97846 79.6732 11.8221 79.6732 21.4978ZM67.4899 16.1617C67.4899 19.1087 65.1009 21.4978 62.1539 21.4978C59.2068 21.4978 56.8178 19.1087 56.8178 16.1617C56.8178 13.2147 59.2068 10.8257 62.1539 10.8257C65.1009 10.8257 67.4899 13.2147 67.4899 16.1617ZM37.7638 44.249C37.7638 53.9247 29.9201 61.7684 20.2445 61.7684C10.5688 61.7684 2.72517 53.9247 2.72517 44.249C2.72517 34.5734 10.5688 26.7297 20.2445 26.7297C29.9201 26.7297 37.7638 34.5734 37.7638 44.249ZM25.5805 38.913C25.5805 41.86 23.1915 44.249 20.2445 44.249C17.2975 44.249 14.9084 41.86 14.9084 38.913C14.9084 35.966 17.2975 33.5769 20.2445 33.5769C23.1915 33.5769 25.5805 35.966 25.5805 38.913ZM102.501 66.7108C102.501 76.3864 94.6575 84.2301 84.9819 84.2301C75.3062 84.2301 67.4626 76.3864 67.4626 66.7108C67.4626 57.0351 75.3062 49.1914 84.9819 49.1914C94.6575 49.1914 102.501 57.0351 102.501 66.7108ZM90.3179 61.3755C90.3179 64.3226 87.9289 66.7116 84.9819 66.7116C82.0349 66.7116 79.6458 64.3226 79.6458 61.3755C79.6458 58.4285 82.0349 56.0395 84.9819 56.0395C87.9289 56.0395 90.3179 58.4285 90.3179 61.3755ZM60.4566 87.9059C60.4566 97.5816 52.6129 105.425 42.9373 105.425C33.2616 105.425 25.418 97.5816 25.418 87.9059C25.418 78.2303 33.2616 70.3866 42.9373 70.3866C52.6129 70.3866 60.4566 78.2303 60.4566 87.9059ZM48.2733 82.5707C48.2733 85.5177 45.8843 87.9068 42.9373 87.9068C39.9903 87.9068 37.6012 85.5177 37.6012 82.5707C37.6012 79.6237 39.9903 77.2347 42.9373 77.2347C45.8843 77.2347 48.2733 79.6237 48.2733 82.5707ZM13.1489 87.9085C13.1489 90.8555 10.7599 93.2445 7.81286 93.2445C4.86584 93.2445 2.47681 90.8555 2.47681 87.9085C2.47681 84.9614 4.86584 82.5724 7.81286 82.5724C10.7599 82.5724 13.1489 84.9614 13.1489 87.9085ZM85.0191 100.001C85.0191 102.948 82.63 105.337 79.683 105.337C76.736 105.337 74.347 102.948 74.347 100.001C74.347 97.0541 76.736 94.6651 79.683 94.6651C82.63 94.6651 85.0191 97.0541 85.0191 100.001ZM58.8705 56.3434C58.8705 59.2904 56.4814 61.6795 53.5344 61.6795C50.5874 61.6795 48.1984 59.2904 48.1984 56.3434C48.1984 53.3964 50.5874 51.0074 53.5344 51.0074C56.4814 51.0074 58.8705 53.3964 58.8705 56.3434ZM104.373 30.4259C104.373 33.3729 101.984 35.762 99.0365 35.762C96.0895 35.762 93.7005 33.3729 93.7005 30.4259C93.7005 27.4789 96.0895 25.0899 99.0365 25.0899C101.984 25.0899 104.373 27.4789 104.373 30.4259Z" stroke="#E74B5B" stroke-width="3" stroke-miterlimit="22.9256"/>
</svg>
