<svg width="108" height="108" viewBox="0 0 108 108" fill="none" xmlns="http://www.w3.org/2000/svg">
<path d="M87.7723 78.1505H98.8205C101.2 78.1505 103.14 80.0491 103.14 82.3762V82.6373C103.14 84.9645 101.2 86.8631 98.8205 86.8631H87.1587M48.5033 76.6442H57.7593L76.362 58.6508C78.0726 56.9964 80.7606 56.9372 82.4047 58.5843L82.5891 58.7693C84.2332 60.4158 84.203 63.1286 82.5226 64.812L77.9027 69.4385H97.3438C99.7229 69.4385 101.664 71.3371 101.664 73.6642V73.9253C101.664 76.2525 99.7229 78.1505 97.3438 78.1505M92.4574 95.5751C94.8365 95.5751 96.7774 97.4736 96.7774 99.8002V100.061C96.7774 102.388 94.8365 104.287 92.4574 104.287H65.7998L56.5655 98.905H37.7066M95.9191 86.8625C98.2982 86.8625 100.239 88.761 100.239 91.0876V91.3487C100.239 93.6759 98.2982 95.5744 95.9191 95.5744H84.2568M77.4827 19.4647V8.41649C77.4827 6.03736 79.3813 4.09646 81.7085 4.09646H81.9696C84.2967 4.09646 86.1953 6.03736 86.1953 8.41649V20.0782M75.9764 58.7336V49.4776L57.9831 30.875C56.3287 29.1644 56.2694 26.4763 57.9166 24.8322L58.1015 24.6479C59.7481 23.0038 62.4609 23.034 64.1443 24.7144L68.7707 29.3342V9.89317C68.7707 7.51404 70.6693 5.57314 72.9965 5.57314H73.2576C75.5848 5.57314 77.4827 7.51404 77.4827 9.89317M94.9073 14.7796C94.9073 12.4004 96.8059 10.4595 99.1324 10.4595H99.3936C101.721 10.4595 103.619 12.4004 103.619 14.7796V41.4372L98.2372 50.6714V69.5304M86.1947 11.3179C86.1947 8.93873 88.0933 6.99783 90.4198 6.99783H90.681C93.0081 6.99783 94.9067 8.93873 94.9067 11.3179V22.9802M18.8615 29.4841H7.8133C5.43417 29.4841 3.49327 27.5855 3.49327 25.2584V24.9972C3.49327 22.6701 5.43417 20.7715 7.8133 20.7715H19.475M58.1304 30.9904H48.8744L30.2718 48.9838C28.5612 50.6382 25.8732 50.6974 24.229 49.0503L24.0447 48.8653C22.4006 47.2188 22.4308 44.506 24.1112 42.8226L28.731 38.1961H9.28998C6.91085 38.1961 4.96995 36.2975 4.96995 33.9704V33.7092C4.96995 31.3821 6.91085 29.4841 9.28998 29.4841M14.1764 12.0595C11.7973 12.0595 9.85635 10.1609 9.85635 7.83439V7.57327C9.85635 5.24612 11.7973 3.34753 14.1764 3.34753H40.834L50.0682 8.72959H68.9272M10.7147 20.7721C8.33555 20.7721 6.39465 18.8735 6.39465 16.547V16.2859C6.39465 13.9587 8.33555 12.0601 10.7147 12.0601H22.377M29.1515 88.1705V99.2187C29.1515 101.598 27.2529 103.539 24.9257 103.539H24.6646C22.3375 103.539 20.4389 101.598 20.4389 99.2187V87.557M30.6578 48.9016V58.1576L48.6511 76.7602C50.3055 78.4708 50.3648 81.1588 48.7176 82.8029L48.5327 82.9873C46.8861 84.6314 44.1733 84.6012 42.4899 82.9208L37.8635 78.301V97.742C37.8635 100.121 35.9649 102.062 33.6377 102.062H33.3766C31.0494 102.062 29.1515 100.121 29.1515 97.742M11.7269 92.8556C11.7269 95.2347 9.82829 97.1756 7.50175 97.1756H7.24063C4.91348 97.1756 3.01489 95.2347 3.01489 92.8556V66.198L8.39695 56.9638V38.1048M20.4395 96.3173C20.4395 98.6964 18.5409 100.637 16.2143 100.637H15.9532C13.6261 100.637 11.7275 98.6964 11.7275 96.3173V84.655" stroke="#E74B5B" stroke-width="3" stroke-miterlimit="22.9256" stroke-linecap="round" stroke-linejoin="round"/>
</svg>
