<svg width="20" height="20" viewBox="0 0 20 20" fill="none" xmlns="http://www.w3.org/2000/svg">
<path d="M7.75409 8.98303C7.95334 8.69246 8.06127 8.29395 8.06127 7.77091C8.06127 7.24787 7.96165 6.84106 7.75409 6.55879C7.54654 6.27652 7.26426 6.12708 6.89897 6.12708C6.55027 6.12708 6.26799 6.27651 6.05214 6.56709C5.84458 6.85767 5.73666 7.26448 5.73666 7.77921C5.73666 8.29395 5.84458 8.69246 6.05214 8.99133C6.25969 9.28191 6.54197 9.43135 6.89897 9.43135C7.26426 9.41475 7.54654 9.27361 7.75409 8.98303Z" fill="black"/>
<path d="M13.0924 10.577C12.7354 10.577 12.4448 10.7182 12.2456 11.0087C12.0463 11.2993 11.9384 11.6978 11.9384 12.2209C11.9384 12.7439 12.038 13.1507 12.2456 13.433C12.4531 13.7153 12.7354 13.8647 13.0924 13.8647C13.4494 13.8647 13.7399 13.7153 13.9392 13.4247C14.1468 13.1341 14.2464 12.7273 14.2464 12.2126C14.2464 11.6978 14.1468 11.2993 13.9392 11.0004C13.7316 10.7265 13.4494 10.577 13.0924 10.577Z" fill="black"/>
<path d="M19.5349 6.99045C18.6797 4.36696 17.0276 2.40764 14.5951 1.1208C13.6071 0.597758 12.561 0.257368 11.4568 0.116231C11.1579 0.0747197 10.8508 0.041511 10.5519 0C10.1866 0 9.8213 0 9.456 0C9.29826 0.0166044 9.14881 0.0249064 8.99107 0.0415108C8.10274 0.149439 7.23101 0.34039 6.40079 0.664176C4.58261 1.37817 3.09651 2.51557 1.9342 4.09298C0.796802 5.63719 0.165838 7.37235 0.0247007 9.29016C-0.0666235 10.5521 0.0662089 11.7891 0.456412 12.9929C1.31154 15.6247 2.96368 17.5841 5.40452 18.8792C6.39248 19.4022 7.43856 19.7426 8.54275 19.8838C8.84163 19.9253 9.14882 19.9585 9.4477 20C9.81299 20 10.1783 20 10.5436 20C10.5768 19.9917 10.6017 19.9834 10.6349 19.9751C11.133 19.9087 11.6395 19.8672 12.1293 19.7592C14.5701 19.2279 16.5378 17.9328 18.0322 15.9319C19.1945 14.3794 19.8254 12.6276 19.9666 10.6849C20.0579 9.423 19.9251 8.18597 19.5349 6.99045ZM5.25508 9.64716C4.83997 9.16563 4.63242 8.54296 4.63242 7.77086C4.63242 6.99875 4.83997 6.36779 5.25508 5.89456C5.67019 5.42134 6.21814 5.18057 6.89062 5.18057C7.5631 5.18057 8.11104 5.41303 8.53446 5.88626C8.94956 6.35948 9.16542 6.99045 9.16542 7.77086C9.16542 8.55126 8.95787 9.18223 8.53446 9.65546C8.11934 10.1287 7.5714 10.3611 6.89062 10.3611C6.21814 10.3611 5.67019 10.1204 5.25508 9.64716ZM7.43026 14.7281H6.11021L12.5693 5.2719H13.8894L7.43026 14.7281ZM14.7362 14.1054C14.3211 14.587 13.7731 14.8194 13.0924 14.8194C12.4116 14.8194 11.8719 14.5787 11.4568 14.1054C11.0417 13.6322 10.8342 13.0012 10.8342 12.2291C10.8342 11.457 11.0417 10.8261 11.4568 10.3528C11.8719 9.87962 12.4116 9.63885 13.0924 9.63885C13.7731 9.63885 14.3128 9.87962 14.7362 10.3528C15.1513 10.8344 15.3672 11.457 15.3672 12.2291C15.3589 13.0012 15.1513 13.6239 14.7362 14.1054Z" fill="black"/>
</svg>
