<svg width="20" height="20" viewBox="0 0 20 20" fill="none" xmlns="http://www.w3.org/2000/svg">
<path d="M19.5378 6.99045C18.6827 4.36696 17.0305 2.40764 14.598 1.1208C13.61 0.597758 12.564 0.257368 11.4598 0.116231C11.1609 0.0747197 10.8537 0.041511 10.5548 0C10.1895 0 9.82423 0 9.45893 0C9.30119 0.0166044 9.15175 0.0249064 8.99401 0.0415108C8.10567 0.149439 7.23394 0.34039 6.40372 0.664176C4.58554 1.37817 3.09944 2.51557 1.93714 4.09298C0.799735 5.63719 0.168767 7.37235 0.0276301 9.29016C-0.0636941 10.5521 0.0691411 11.7891 0.459344 12.9929C1.31447 15.6247 2.96661 17.5841 5.40746 18.8792C6.39542 19.4022 7.44149 19.7426 8.54569 19.8838C8.84457 19.9253 9.15175 19.9585 9.45063 20C9.81592 20 10.1812 20 10.5465 20C10.5797 19.9917 10.6046 19.9834 10.6378 19.9751C11.136 19.9087 11.6424 19.8672 12.1322 19.7592C14.5731 19.2279 16.5407 17.9328 18.0351 15.9319C19.1974 14.3794 19.8284 12.6276 19.9695 10.6849C20.0608 9.423 19.928 8.18597 19.5378 6.99045ZM17.5204 10.2532C16.275 11.2578 15.0297 12.2707 13.7844 13.2752C13.6515 13.3831 13.6183 13.4828 13.6847 13.6488C13.8259 14.0473 13.967 14.4375 14.1165 14.836C14.1248 14.8526 14.1331 14.8775 14.1414 14.9108C13.9836 14.8858 13.8259 14.8609 13.6764 14.8277C13.0953 14.7281 12.5141 14.6202 11.933 14.5205C11.5013 14.4458 11.0779 14.3711 10.6461 14.2964C10.3971 14.2549 10.1729 14.4541 10.1895 14.7032C10.231 15.4255 10.2642 16.1478 10.3058 16.8701C10.3307 17.3101 10.3473 17.7418 10.3722 18.1818C10.3722 18.1901 10.3722 18.1984 10.3722 18.215C10.1314 18.215 9.89064 18.215 9.65818 18.215C9.65818 18.1237 9.65818 18.0324 9.65818 17.9411C9.68309 17.3848 9.7163 16.8203 9.74951 16.264C9.77441 15.7825 9.79932 15.301 9.82423 14.8277C9.82423 14.753 9.83253 14.6783 9.82423 14.6119C9.79102 14.4043 9.59176 14.2632 9.38421 14.2964C8.63701 14.4292 7.88151 14.5621 7.13431 14.6949C6.74411 14.7613 6.35391 14.836 5.9637 14.9024C5.9388 14.9024 5.92219 14.9108 5.88898 14.9108C5.89729 14.8858 5.90559 14.8692 5.90559 14.8443C6.04673 14.4458 6.19616 14.0473 6.3373 13.6488C6.39542 13.4828 6.37051 13.3914 6.22937 13.2752C4.98404 12.2707 3.73871 11.2578 2.49338 10.2532C2.47678 10.2366 2.46017 10.22 2.43527 10.2034C2.46017 10.1868 2.47678 10.1785 2.50169 10.1702C2.75075 10.054 2.99152 9.93773 3.24058 9.8298C3.43153 9.73848 3.48135 9.63055 3.41493 9.4313C3.17416 8.7007 2.9417 7.97011 2.70094 7.24782C2.69264 7.22291 2.68433 7.19801 2.67603 7.1565C2.82547 7.1897 2.95831 7.21461 3.09944 7.24782C3.6806 7.37235 4.27005 7.49689 4.85121 7.62142C5.01725 7.65463 5.12518 7.59651 5.1916 7.43877C5.32443 7.13989 5.44897 6.83271 5.5735 6.53383C5.5818 6.51723 5.5901 6.49232 5.60671 6.46741C5.72294 6.59195 5.83087 6.70818 5.9471 6.83271C6.40372 7.32254 6.85204 7.80407 7.30866 8.2939C7.39168 8.38522 7.48301 8.42673 7.60754 8.39352C7.73207 8.35201 7.81509 8.22748 7.79019 8.10295C7.70716 7.65463 7.62414 7.21461 7.53282 6.76629C7.37508 5.96098 7.21733 5.15567 7.06789 4.35035C7.03469 4.20091 7.00978 4.04317 6.97657 3.89373C6.96827 3.86883 6.96827 3.84392 6.96827 3.81071C7.1011 3.88543 7.22564 3.96015 7.35017 4.02657C7.64905 4.20091 7.94793 4.37526 8.24681 4.54961C8.43776 4.66584 8.5872 4.61602 8.68682 4.41677C9.11854 3.56995 9.55025 2.72312 9.98197 1.8846C9.99027 1.86799 10.0069 1.84309 10.0235 1.80988C10.0899 1.93441 10.1397 2.04234 10.1978 2.15027C10.5797 2.90577 10.9699 3.66127 11.3518 4.41677C11.4515 4.61602 11.6009 4.66584 11.8001 4.54961C12.207 4.31714 12.6055 4.08468 13.0123 3.85222C13.0289 3.84392 13.0455 3.83562 13.0787 3.81901C13.0621 3.91864 13.0455 4.00166 13.0289 4.09298C12.813 5.20548 12.5972 6.30967 12.3813 7.42217C12.3398 7.64633 12.29 7.87879 12.2485 8.10295C12.2236 8.22748 12.2817 8.33541 12.3896 8.39352C12.4975 8.45164 12.6221 8.42673 12.7051 8.33541C12.896 8.13616 13.0787 7.9369 13.2696 7.73765C13.6432 7.33084 14.0251 6.93234 14.3987 6.52553C14.407 6.51723 14.4153 6.51723 14.4236 6.50062C14.4319 6.52553 14.4402 6.54213 14.4486 6.55874C14.5731 6.85762 14.6976 7.14819 14.8222 7.44707C14.9052 7.63802 14.9965 7.68784 15.1958 7.64633C15.9014 7.49689 16.6071 7.34745 17.3045 7.19801C17.3128 7.19801 17.3211 7.19801 17.3377 7.19801C17.3294 7.22291 17.3294 7.24782 17.3211 7.27273C17.0803 8.00332 16.8479 8.73391 16.6071 9.45621C16.5407 9.67206 16.5822 9.77999 16.7815 9.87132C17.0222 9.98755 17.263 10.0955 17.5038 10.2117C17.5287 10.22 17.5453 10.2366 17.5785 10.2449C17.5536 10.22 17.537 10.2366 17.5204 10.2532Z" fill="black"/>
</svg>
