<svg width="20" height="20" viewBox="0 0 20 20" fill="none" xmlns="http://www.w3.org/2000/svg">
<path d="M19.5378 6.99045C18.6827 4.36696 17.0305 2.40764 14.598 1.1208C13.61 0.597758 12.564 0.257368 11.4598 0.116231C11.1609 0.0747197 10.8537 0.041511 10.5548 0C10.1895 0 9.82423 0 9.45893 0C9.30119 0.0166044 9.15175 0.0249064 8.99401 0.0415108C8.10567 0.149439 7.23394 0.34039 6.40372 0.664176C4.58554 1.37817 3.09944 2.51557 1.93714 4.09298C0.799734 5.63719 0.168767 7.37235 0.02763 9.29016C-0.0636942 10.5521 0.0691414 11.7891 0.459345 12.9929C1.31447 15.6247 2.96661 17.5841 5.40745 18.8792C6.39542 19.4022 7.44149 19.7426 8.54569 19.8838C8.84456 19.9253 9.15175 19.9585 9.45063 20C9.81592 20 10.1812 20 10.5465 20C10.5797 19.9917 10.6046 19.9834 10.6378 19.9751C11.136 19.9087 11.6424 19.8672 12.1322 19.7592C14.5731 19.2279 16.5407 17.9328 18.0351 15.9319C19.1974 14.3794 19.8284 12.6276 19.9695 10.6849C20.0608 9.423 19.928 8.18597 19.5378 6.99045ZM18.7657 10.0208C14.2161 10.5853 10.6212 14.2051 10.0733 18.763H9.91555C9.37591 14.2051 5.78105 10.5853 1.23145 10.0208V9.97924C5.78105 9.41469 9.37591 5.79494 9.91555 1.22873H10.0733C10.6129 5.79494 14.2161 9.40639 18.7657 9.97924V10.0208Z" fill="black"/>
</svg>
