<svg width="20" height="20" viewBox="0 0 20 20" fill="none" xmlns="http://www.w3.org/2000/svg">
<path d="M19.5319 6.99045C18.6768 4.36696 17.0247 2.40764 14.5921 1.1208C13.6042 0.597758 12.5581 0.257368 11.4539 0.116231C11.155 0.0747197 10.8478 0.041511 10.549 0C10.1837 0 9.81837 0 9.45307 0C9.29533 0.0166044 9.14589 0.0249064 8.98815 0.0415108C8.09981 0.149439 7.22809 0.34039 6.39787 0.664176C4.57968 1.37817 3.09359 2.51557 1.93128 4.09298C0.793877 5.63719 0.162908 7.37235 0.0217703 9.29016C-0.0695539 10.5521 0.0632849 11.7891 0.453488 12.9929C1.30861 15.6247 2.96076 17.5841 5.4016 18.8792C6.38957 19.4022 7.43564 19.7426 8.53984 19.8838C8.83871 19.9253 9.14589 19.9585 9.44477 20C9.81007 20 10.1754 20 10.5407 20C10.5739 19.9917 10.5988 19.9834 10.632 19.9751C11.1301 19.9087 11.6365 19.8672 12.1264 19.7592C14.5672 19.2279 16.5348 17.9328 18.0292 15.9319C19.1916 14.3794 19.8225 12.6276 19.9637 10.6849C20.0633 9.423 19.9304 8.18597 19.5319 6.99045ZM14.1604 15.0021C13.2638 14.2051 12.3921 13.4247 11.5203 12.6442C10.7399 11.9552 9.95951 11.2661 9.18741 10.5687C9.12099 10.5023 9.06287 10.411 9.03796 10.3196C8.88022 9.72187 8.99645 9.11582 9.01305 8.51806C9.03796 7.87879 9.07947 7.23122 9.11268 6.59195C9.16249 5.72852 9.21231 4.86509 9.26212 4.00166C9.27873 3.64467 9.29533 3.28767 9.32023 2.91407C9.66892 2.91407 10.0093 2.91407 10.3746 2.91407C10.3829 2.97219 10.3995 3.0386 10.4078 3.11332C10.4493 3.98506 10.4908 4.85679 10.5324 5.72022C10.5905 6.8078 10.6569 7.88709 10.7233 8.97468C10.7233 8.99128 10.7316 9.01619 10.7233 9.03279C10.632 9.49772 10.8811 9.8049 11.1799 10.1204C12.3921 11.3989 13.5959 12.6858 14.7997 13.9809C14.8578 14.039 14.9076 14.1054 14.9657 14.1802C14.6835 14.4458 14.4261 14.7198 14.1604 15.0021Z" fill="black"/>
</svg>
