<svg width="20" height="20" viewBox="0 0 20 20" fill="none" xmlns="http://www.w3.org/2000/svg">
<path d="M11.9633 8.33537C11.9633 8.56783 12.0546 8.75878 12.2373 8.89992C12.4199 9.04106 12.6856 9.15729 13.0343 9.25691V7.37231C12.6773 7.43043 12.4033 7.53836 12.229 7.7127C12.0546 7.87875 11.9633 8.0863 11.9633 8.33537Z" fill="black"/>
<path d="M13.8976 10.7596V12.6359C14.2712 12.5778 14.5452 12.4699 14.7278 12.3039C14.9104 12.1378 14.9935 11.9386 14.9935 11.6978C14.9935 11.457 14.9021 11.2661 14.7112 11.1249C14.5202 10.9838 14.2546 10.8593 13.8976 10.7596Z" fill="black"/>
<path d="M19.5349 6.99045C18.6797 4.36696 17.0276 2.40764 14.5951 1.1208C13.6071 0.597758 12.561 0.257368 11.4568 0.116231C11.1579 0.0747197 10.8508 0.041511 10.5519 0C10.1866 0 9.8213 0 9.456 0C9.29826 0.0166044 9.14881 0.0249064 8.99107 0.0415108C8.10274 0.149439 7.23101 0.34039 6.40079 0.664176C4.58261 1.37817 3.09651 2.51557 1.9342 4.09298C0.796802 5.63719 0.165838 7.37235 0.0247007 9.29016C-0.0666235 10.5521 0.0662089 11.7891 0.456412 12.9929C1.31154 15.6247 2.96368 17.5841 5.40452 18.8792C6.39248 19.4022 7.43856 19.7426 8.54275 19.8838C8.84163 19.9253 9.14882 19.9585 9.4477 20C9.81299 20 10.1783 20 10.5436 20C10.5768 19.9917 10.6017 19.9834 10.6349 19.9751C11.133 19.9087 11.6395 19.8672 12.1293 19.7592C14.5701 19.2279 16.5378 17.9328 18.0322 15.9319C19.1945 14.3794 19.8254 12.6276 19.9666 10.6849C20.0579 9.423 19.9251 8.18597 19.5349 6.99045ZM5.04753 11.3408C5.27169 11.7393 5.58717 12.0465 5.98568 12.2706C6.38419 12.4948 6.84081 12.6027 7.34724 12.6027C8.12765 12.6027 8.79182 12.3122 9.32316 11.7227L10.2115 12.5695C9.8628 12.968 9.43939 13.2752 8.93296 13.4911C8.42652 13.7069 7.87027 13.8066 7.26421 13.8066C6.51702 13.8066 5.84454 13.6405 5.23848 13.3167C4.63242 12.9846 4.1592 12.5363 3.81881 11.9552C3.47842 11.374 3.30407 10.7264 3.30407 9.99585C3.30407 9.26525 3.47841 8.61768 3.8271 8.03653C4.1758 7.45537 4.64902 7.00706 5.24678 6.67497C5.85284 6.34288 6.52532 6.18514 7.27252 6.18514C7.87858 6.18514 8.43482 6.29307 8.93296 6.50062C9.43109 6.71648 9.8545 7.02366 10.2032 7.42217L9.31486 8.26069C8.77522 7.67953 8.11934 7.38896 7.33894 7.38896C6.8325 7.38896 6.37588 7.49689 5.97738 7.72105C5.57887 7.9452 5.26338 8.25239 5.03922 8.65089C4.81506 9.0494 4.69884 9.49772 4.69884 9.99585C4.70714 10.5023 4.82337 10.9506 5.04753 11.3408ZM15.7242 13.0594C15.3007 13.4579 14.6947 13.6986 13.8977 13.7817V14.9689H13.0259V13.7983C12.5029 13.765 12.0131 13.6654 11.5482 13.516C11.0832 13.3582 10.7096 13.1673 10.4357 12.9265L10.9089 11.8555C11.1663 12.0714 11.49 12.2457 11.8636 12.3869C12.2372 12.528 12.6274 12.6193 13.0259 12.6609V10.5438C12.5278 10.4276 12.1044 10.2947 11.7723 10.1453C11.4402 10.0042 11.1579 9.78829 10.9338 9.51432C10.7096 9.24035 10.5934 8.86675 10.5934 8.41013C10.5934 7.83728 10.801 7.35575 11.2161 6.94894C11.6312 6.55043 12.2372 6.30967 13.0259 6.22665V5.03113H13.8977V6.20174C14.2962 6.22665 14.6781 6.29307 15.06 6.401C15.4336 6.51723 15.7657 6.65836 16.0479 6.84931L15.6162 7.9203C15.0766 7.61312 14.512 7.42217 13.906 7.34745V9.48111C14.4124 9.59734 14.8358 9.73018 15.1679 9.87132C15.5 10.0125 15.7823 10.22 16.0147 10.5023C16.2472 10.7846 16.3551 11.1499 16.3551 11.6065C16.3551 12.1793 16.1476 12.6609 15.7242 13.0594Z" fill="black"/>
</svg>
